M48
; DRILL file {KiCad 9.0.0} date 2025-05-18T23:18:51+0200
; FORMAT={-:-/ absolute / inch / decimal}
; #@! TF.CreationDate,2025-05-18T23:18:51+02:00
; #@! TF.GenerationSoftware,Kicad,Pcbnew,9.0.0
; #@! TF.FileFunction,Plated,1,2,PTH
FMAT,2
INCH
; #@! TA.AperFunction,Plated,PTH,ViaDrill
T1C0.0079
; #@! TA.AperFunction,Plated,PTH,ViaDrill
T2C0.0118
; #@! TA.AperFunction,Plated,PTH,ViaDrill
T3C0.0197
; #@! TA.AperFunction,Plated,PTH,ViaDrill
T4C0.0236
; #@! TA.AperFunction,Plated,PTH,ComponentDrill
T5C0.0236
; #@! TA.AperFunction,Plated,PTH,ComponentDrill
T6C0.0256
; #@! TA.AperFunction,Plated,PTH,ComponentDrill
T7C0.0315
; #@! TA.AperFunction,Plated,PTH,ComponentDrill
T8C0.0394
; #@! TA.AperFunction,Plated,PTH,ComponentDrill
T9C0.0433
%
G90
G05
T1
X4.7402Y-3.0354
X4.8228Y-3.0217
X4.8863Y-3.3898
X4.9316Y-3.315
X4.9331Y-3.2362
X4.9961Y-3.3898
X5.0315Y-3.3189
X5.1063Y-3.2874
X5.1378Y-3.2874
X5.3701Y-3.1216
X5.5236Y-2.9572
X5.6181Y-3.0787
X5.6929Y-3.7913
X5.748Y-3.6732
X5.7953Y-3.7362
X5.8189Y-3.9173
X5.8661Y-3.8622
X5.8875Y-3.8403
X5.939Y-3.6142
X5.9646Y-3.5748
X6.0276Y-3.5591
X6.0709Y-3.6654
X6.0748Y-3.5591
X6.0945Y-3.3823
X6.1024Y-3.5512
X6.1417Y-3.7657
X6.1614Y-4.0472
X6.1988Y-3.7933
X6.2234Y-3.5148
X6.252Y-3.3681
X6.2815Y-3.7224
X6.2953Y-3.7717
X6.2972Y-3.5886
X6.3276Y-3.968
X6.3543Y-3.5413
X6.3583Y-3.9705
X6.3622Y-3.6398
X6.372Y-3.6083
X6.4177Y-3.6205
X6.5394Y-3.6575
X6.5748Y-3.6929
X6.6654Y-3.6654
T2
X4.6308Y-3.937
X4.6683Y-3.0354
X4.7815Y-4.0925
X4.7918Y-3.8818
X4.8347Y-3.7331
X4.8583Y-3.2362
X4.8597Y-3.315
X4.9035Y-3.065
X4.9342Y-4.2404
X5.0025Y-3.8715
X5.0039Y-3.5768
X5.0797Y-4.1848
X5.1181Y-3.378
X5.124Y-3.439
X5.1317Y-4.1317
X5.1575Y-3.3701
X5.2244Y-3.5728
X5.2283Y-2.8898
X5.2331Y-4.15
X5.2525Y-3.9488
X5.3312Y-3.7087
X5.3656Y-3.9173
X5.3834Y-4.2579
X5.4444Y-3.689
X5.4478Y-2.9311
X5.5236Y-2.8853
X5.6Y-2.8626
X5.6211Y-3.7913
X5.6673Y-2.9291
X5.7126Y-3.7106
X5.752Y-3.7815
X5.7539Y-2.9154
X5.9331Y-2.8228
X5.9744Y-3.7263
X6.0059Y-3.7539
X6.0098Y-3.6969
X6.0512Y-2.8228
X6.0512Y-3.9646
X6.0512Y-4.0394
X6.0925Y-3.872
X6.1575Y-2.7884
X6.2008Y-3.8563
X6.2008Y-3.9892
X6.2795Y-3.6486
X6.2795Y-3.8548
X6.2795Y-3.9911
X6.3957Y-3.7106
X6.4099Y-3.1811
X6.4409Y-3.748
X6.4626Y-3.6831
X6.5059Y-3.5748
X6.5167Y-3.1709
X6.5167Y-3.2709
X6.5335Y-3.8661
X6.6299Y-3.8307
X6.9016Y-3.1821
X6.9099Y-3.7874
T3
X4.7224Y-2.9055
X4.7598Y-3.2244
X4.7618Y-3.1713
X5.0118Y-3.6673
X5.1083Y-3.8957
X5.1252Y-3.094
X5.2008Y-3.0945
X5.2185Y-3.1634
X5.3898Y-3.5886
X5.5413Y-2.8031
X5.6732Y-3.0748
X5.7047Y-3.1319
X5.8051Y-3.1713
X5.8681Y-2.9173
X5.9035Y-2.9469
X6.3071Y-4.25
X6.6324Y-3.4252
X6.7402Y-4.2756
T4
X5.5413Y-3.189
X6.8819Y-3.4606
X6.8858Y-3.5787
T6
X6.8366Y-3.4295
X6.8366Y-3.6571
T7
X4.8391Y-4.0349
T8
X4.498Y-2.837
X4.498Y-2.937
X4.498Y-3.037
X4.498Y-3.137
X4.5492Y-3.2992
X4.624Y-3.7264
X5.3386Y-2.8543
X5.5Y-4.15
X5.6Y-4.15
X5.6496Y-3.685
X5.6535Y-3.8858
X5.7Y-4.15
X5.8Y-4.15
X5.8071Y-3.6339
X5.9Y-4.15
X5.9961Y-3.0197
X6.0Y-3.158
X6.1Y-4.15
X6.1339Y-3.1417
X6.1654Y-3.5945
X6.2Y-4.15
X6.3Y-4.15
X6.4Y-4.15
X6.4803Y-3.9685
X6.5443Y-4.1004
X6.5443Y-4.2004
X6.6654Y-3.5433
X6.6654Y-3.9291
X6.7402Y-3.815
X6.8366Y-4.0217
T9
X4.9118Y-2.8406
X4.9449Y-3.9291
X5.0118Y-2.8406
T5
G00X6.7953Y-3.3732
M15
G01X6.8386Y-3.3732
M16
G05
G00X6.7953Y-3.7134
M15
G01X6.8386Y-3.7134
M16
G05
G00X6.9697Y-3.3732
M15
G01X6.9933Y-3.3732
M16
G05
G00X6.9697Y-3.7134
M15
G01X6.9933Y-3.7134
M16
G05
M30
