%TF.GenerationSoftware,KiCad,Pcbnew,9.0.0*%
%TF.CreationDate,2025-05-18T23:18:51+02:00*%
%TF.ProjectId,CYPD3177_DEV_BOARD,43595044-3331-4373-975f-4445565f424f,rev?*%
%TF.SameCoordinates,Original*%
%TF.FileFunction,Copper,L2,Bot*%
%TF.FilePolarity,Positive*%
%FSLAX46Y46*%
G04 Gerber Fmt 4.6, Leading zero omitted, Abs format (unit mm)*
G04 Created by KiCad (PCBNEW 9.0.0) date 2025-05-18 23:18:51*
%MOMM*%
%LPD*%
G01*
G04 APERTURE LIST*
G04 Aperture macros list*
%AMRoundRect*
0 Rectangle with rounded corners*
0 $1 Rounding radius*
0 $2 $3 $4 $5 $6 $7 $8 $9 X,Y pos of 4 corners*
0 Add a 4 corners polygon primitive as box body*
4,1,4,$2,$3,$4,$5,$6,$7,$8,$9,$2,$3,0*
0 Add four circle primitives for the rounded corners*
1,1,$1+$1,$2,$3*
1,1,$1+$1,$4,$5*
1,1,$1+$1,$6,$7*
1,1,$1+$1,$8,$9*
0 Add four rect primitives between the rounded corners*
20,1,$1+$1,$2,$3,$4,$5,0*
20,1,$1+$1,$4,$5,$6,$7,0*
20,1,$1+$1,$6,$7,$8,$9,0*
20,1,$1+$1,$8,$9,$2,$3,0*%
G04 Aperture macros list end*
%TA.AperFunction,ComponentPad*%
%ADD10R,1.700000X1.700000*%
%TD*%
%TA.AperFunction,ComponentPad*%
%ADD11RoundRect,0.250001X-0.799999X-0.799999X0.799999X-0.799999X0.799999X0.799999X-0.799999X0.799999X0*%
%TD*%
%TA.AperFunction,ComponentPad*%
%ADD12C,2.100000*%
%TD*%
%TA.AperFunction,ComponentPad*%
%ADD13C,0.650000*%
%TD*%
%TA.AperFunction,HeatsinkPad*%
%ADD14O,2.100000X1.000000*%
%TD*%
%TA.AperFunction,HeatsinkPad*%
%ADD15O,1.600000X1.000000*%
%TD*%
%TA.AperFunction,ComponentPad*%
%ADD16O,1.700000X1.700000*%
%TD*%
%TA.AperFunction,ComponentPad*%
%ADD17C,1.100000*%
%TD*%
%TA.AperFunction,ComponentPad*%
%ADD18C,0.800000*%
%TD*%
%TA.AperFunction,ViaPad*%
%ADD19C,0.600000*%
%TD*%
%TA.AperFunction,ViaPad*%
%ADD20C,1.000000*%
%TD*%
%TA.AperFunction,ViaPad*%
%ADD21C,0.400000*%
%TD*%
%TA.AperFunction,ViaPad*%
%ADD22C,1.200000*%
%TD*%
%TA.AperFunction,Conductor*%
%ADD23C,0.200000*%
%TD*%
%TA.AperFunction,Conductor*%
%ADD24C,0.300000*%
%TD*%
%TA.AperFunction,Conductor*%
%ADD25C,0.400000*%
%TD*%
G04 APERTURE END LIST*
D10*
%TO.P,J18,1,Pin_1*%
%TO.N,/Logic/PGOOD_Logic*%
X135600000Y-72500000D03*
%TD*%
D11*
%TO.P,J2,1,Pin_1*%
%TO.N,GND*%
X124760000Y-72150000D03*
D12*
%TO.P,J2,2,Pin_2*%
%TO.N,/Logic/Rail_2*%
X127300000Y-72150000D03*
%TD*%
D10*
%TO.P,J9,1,Pin_1*%
%TO.N,/Power/CC2*%
X169300000Y-90000000D03*
%TD*%
%TO.P,J17,1,Pin_1*%
%TO.N,/Logic/VBUS_SW*%
X156600000Y-91300000D03*
%TD*%
%TO.P,J21,1,Pin_1*%
%TO.N,GND*%
X173650000Y-102150000D03*
%TD*%
D13*
%TO.P,J1,A4,VBUS*%
%TO.N,/Power/VBUS*%
X173650000Y-92890000D03*
%TO.P,J1,A9,VBUS*%
X173650000Y-87110000D03*
D14*
%TO.P,J1,S1,SHIELD*%
%TO.N,GND*%
X173150000Y-94320000D03*
D15*
X177330000Y-94320000D03*
D14*
X173150000Y-85680000D03*
D15*
X177330000Y-85680000D03*
%TD*%
D10*
%TO.P,J20,1,Pin_1*%
%TO.N,/Logic/LOGIC_Report*%
X143500000Y-93600000D03*
%TD*%
%TO.P,J5,1,Pin_1*%
%TO.N,+5V*%
X114250000Y-79680000D03*
D16*
%TO.P,J5,2,Pin_2*%
%TO.N,GND*%
X114250000Y-77140000D03*
%TO.P,J5,3,Pin_3*%
%TO.N,/Logic/SCL*%
X114250000Y-74600000D03*
%TO.P,J5,4,Pin_4*%
%TO.N,/Logic/SDA*%
X114250000Y-72060000D03*
%TD*%
D10*
%TO.P,J10,1,Pin_1*%
%TO.N,/Logic/PD_Int*%
X164600000Y-100800000D03*
%TD*%
%TO.P,J15,1,Pin_1*%
%TO.N,/Logic/LOGIC_SW*%
X147500000Y-92300000D03*
%TD*%
%TO.P,J8,1,Pin_1*%
%TO.N,+3.3V*%
X154940000Y-105410000D03*
D16*
%TO.P,J8,2,Pin_2*%
%TO.N,GND*%
X157480000Y-105410000D03*
%TO.P,J8,3,Pin_3*%
%TO.N,/Logic/SCL_3.3v*%
X160020000Y-105410000D03*
%TO.P,J8,4,Pin_4*%
%TO.N,/Logic/SDA_3.3v*%
X162560000Y-105410000D03*
%TD*%
D17*
%TO.P,SW1,*%
%TO.N,*%
X125600000Y-99800000D03*
D18*
X122912994Y-102487006D03*
%TD*%
D10*
%TO.P,J16,1,Pin_1*%
%TO.N,/Logic/VBUS_Fault*%
X143600000Y-98700000D03*
%TD*%
%TO.P,J12,1,Pin_1*%
%TO.N,GND*%
X117450000Y-94650000D03*
%TD*%
%TO.P,J7,1,Pin_1*%
%TO.N,/Logic/UPDI*%
X139700000Y-105410000D03*
D16*
%TO.P,J7,2,Pin_2*%
%TO.N,+5V*%
X142240000Y-105410000D03*
%TO.P,J7,3,Pin_3*%
%TO.N,GND*%
X144780000Y-105410000D03*
%TO.P,J7,4,Pin_4*%
%TO.N,/Logic/RX*%
X147320000Y-105410000D03*
%TO.P,J7,5,Pin_5*%
%TO.N,/Logic/TX*%
X149860000Y-105410000D03*
%TD*%
D10*
%TO.P,J23,1,Pin_1*%
%TO.N,/Logic/Buck_Status*%
X155800000Y-79800000D03*
%TD*%
%TO.P,J13,1,Pin_1*%
%TO.N,/Logic/SCL*%
X166225000Y-104150000D03*
D16*
%TO.P,J13,2,Pin_2*%
%TO.N,/Logic/SDA*%
X166225000Y-106690000D03*
%TD*%
D10*
%TO.P,J22,1,Pin_1*%
%TO.N,/Logic/INA_ALERT*%
X115550000Y-83800000D03*
%TD*%
%TO.P,J19,1,Pin_1*%
%TO.N,/Logic/LOGIC_Selection*%
X152400001Y-80212500D03*
%TD*%
%TO.P,J11,1,Pin_1*%
%TO.N,/Power/NTC*%
X169300000Y-99800000D03*
%TD*%
%TO.P,J6,1,Pin_1*%
%TO.N,/Power/CC1*%
X171200000Y-96900000D03*
%TD*%
%TO.P,J14,1,Pin_1*%
%TO.N,+5V*%
X152300000Y-76700000D03*
%TD*%
D19*
%TO.N,GND*%
X153700000Y-102600000D03*
X165950000Y-98200000D03*
X130150000Y-87350000D03*
X168400000Y-97300000D03*
D20*
X140750000Y-71200000D03*
D19*
X145100000Y-94250000D03*
X162450000Y-94250000D03*
X121449283Y-103950717D03*
X146100000Y-96050000D03*
D20*
X132550000Y-80350000D03*
X119950000Y-73800000D03*
D19*
X152650000Y-93900000D03*
D21*
X157450000Y-96350000D03*
D19*
X132920000Y-105410000D03*
D21*
X122500000Y-76750000D03*
D19*
X127100000Y-90850000D03*
X152550000Y-95350000D03*
D22*
X140750000Y-81000000D03*
D19*
X163600000Y-95200000D03*
X123400000Y-82200000D03*
X162812500Y-80800000D03*
X165525000Y-80540000D03*
X165525000Y-83080000D03*
X165250000Y-90800000D03*
D20*
X136900000Y-91150000D03*
D19*
X153700000Y-71700000D03*
X146150000Y-74050000D03*
X132800000Y-73400000D03*
X156400000Y-70825000D03*
X138375000Y-74450000D03*
X130000000Y-85800000D03*
D20*
X147450000Y-80550000D03*
D19*
X121710913Y-98597919D03*
X150700000Y-71700000D03*
X175300000Y-80825000D03*
D20*
X127300000Y-93150000D03*
D19*
X142240000Y-72710000D03*
X151750000Y-94647500D03*
X159500000Y-101375000D03*
D20*
X129750000Y-98950000D03*
D19*
X131000000Y-85600000D03*
D20*
X171200000Y-108600000D03*
D19*
X136287500Y-99500000D03*
X127063711Y-98336289D03*
X164150000Y-93550000D03*
D20*
X160200000Y-107950000D03*
D19*
X154750000Y-98350000D03*
X123437500Y-84200000D03*
X132700000Y-90750000D03*
X135412500Y-94200000D03*
X175512500Y-96200000D03*
D21*
X169300000Y-93100000D03*
D22*
%TO.N,/Power/VBUS*%
X174800000Y-87900000D03*
D20*
X168462500Y-87000000D03*
D22*
X174900000Y-90900000D03*
D19*
%TO.N,+5V*%
X118575000Y-77100000D03*
X159500000Y-92675000D03*
X157500000Y-97950000D03*
X124550000Y-77850000D03*
X117622068Y-99999758D03*
D21*
X147200000Y-94900000D03*
D20*
X149050000Y-74100000D03*
D19*
X159500000Y-97912500D03*
X133412500Y-100300000D03*
D20*
X149950000Y-74850000D03*
X144100000Y-78100000D03*
D19*
X138287500Y-93700000D03*
X142775000Y-96300000D03*
X140300000Y-73287500D03*
X125329532Y-107707222D03*
X136737500Y-108150000D03*
X129024165Y-106293008D03*
X122801625Y-94820200D03*
D20*
X144900000Y-79550000D03*
D19*
X130345235Y-104945235D03*
D20*
%TO.N,/Logic/Rail_2_IN*%
X120900000Y-81900000D03*
X132100000Y-78600000D03*
X130180000Y-78587500D03*
X120950000Y-80550000D03*
D19*
%TO.N,+3.3V*%
X157500000Y-101325000D03*
X153700000Y-100700000D03*
X143950000Y-74400000D03*
D21*
%TO.N,Net-(IC1-DVDT)*%
X130500000Y-83500000D03*
X125300000Y-82200000D03*
%TO.N,/Logic/SDA_3.3v*%
X156500000Y-102800000D03*
%TO.N,/Logic/INA_ALERT*%
X120400000Y-77100000D03*
X146000000Y-93300000D03*
%TO.N,Net-(IC1-ILIM)*%
X125262500Y-84200000D03*
X129700000Y-83500000D03*
%TO.N,/Power/CC1*%
X167000000Y-93800000D03*
X166100000Y-92900000D03*
%TO.N,/Power/Measured_VBUS*%
X161600000Y-92450000D03*
X159950000Y-91150000D03*
%TO.N,/Logic/UPDI*%
X149000000Y-98100000D03*
X147800000Y-99500000D03*
X150850000Y-91800000D03*
%TO.N,/Power/NTC*%
X154800000Y-85910000D03*
%TO.N,Net-(U6-VOUT)*%
X163010000Y-91960000D03*
X161400000Y-89950000D03*
%TO.N,/Logic/PGOOD_Logic*%
X151500000Y-90800000D03*
%TO.N,/Logic/VBUS_SW*%
X136400000Y-79287500D03*
%TO.N,/Logic/LOGIC_Report*%
X153100000Y-90400000D03*
X140300000Y-75112500D03*
%TO.N,/Logic/Load_Monitor_VBUS*%
X124112500Y-86100000D03*
X149542500Y-97542500D03*
%TO.N,/Logic/PD_Int*%
X154200000Y-93100000D03*
%TO.N,/Logic/SCL*%
X156000000Y-95650000D03*
X159550000Y-94550000D03*
X161500000Y-100850000D03*
%TO.N,/Logic/LOGIC_SW*%
X127800000Y-84300000D03*
%TO.N,/Logic/VBUS_Fault*%
X144600000Y-96300000D03*
X126900000Y-86100000D03*
%TO.N,/Logic/SDA*%
X160722174Y-100787352D03*
X159900000Y-95800000D03*
%TO.N,/Logic/LOGIC_Selection*%
X142700000Y-78200000D03*
X154300000Y-90400000D03*
%TO.N,Net-(U6-PWR_EN)*%
X158800000Y-85550000D03*
X161850000Y-91650000D03*
X158075000Y-89275000D03*
%TO.N,/Logic/Buck_Status*%
X155000000Y-90200000D03*
%TD*%
D23*
%TO.N,GND*%
X147320000Y-107950000D02*
X160200000Y-107950000D01*
X171200000Y-108600000D02*
X177330000Y-102470000D01*
X160101000Y-97663557D02*
X160101000Y-100774000D01*
X160101000Y-100774000D02*
X159500000Y-101375000D01*
D24*
X145099000Y-95049000D02*
X142686810Y-95049000D01*
D23*
X157450000Y-96350000D02*
X158787443Y-96350000D01*
X117021068Y-100248701D02*
X117021068Y-95078932D01*
X144780000Y-105410000D02*
X141189000Y-109001000D01*
X160200000Y-107950000D02*
X160020000Y-107950000D01*
X160850000Y-108600000D02*
X171200000Y-108600000D01*
X160020000Y-107950000D02*
X157480000Y-105410000D01*
X117021068Y-95078932D02*
X117450000Y-94650000D01*
D24*
X146100000Y-96050000D02*
X145099000Y-95049000D01*
D23*
X160200000Y-107950000D02*
X160850000Y-108600000D01*
X125773367Y-109001000D02*
X117021068Y-100248701D01*
X158787443Y-96350000D02*
X160101000Y-97663557D01*
X141189000Y-109001000D02*
X125773367Y-109001000D01*
D24*
X142686810Y-95049000D02*
X138787810Y-91150000D01*
D23*
X177330000Y-102470000D02*
X177330000Y-94320000D01*
D24*
X138787810Y-91150000D02*
X136900000Y-91150000D01*
D23*
X144780000Y-105410000D02*
X147320000Y-107950000D01*
%TO.N,+5V*%
X153699000Y-92892479D02*
X153699000Y-94149000D01*
D25*
X124150000Y-77450000D02*
X124550000Y-77850000D01*
X146849000Y-97251000D02*
X147200000Y-96900000D01*
X126699000Y-97449000D02*
X133200000Y-97449000D01*
X156493500Y-99150000D02*
X157500000Y-98143500D01*
X130345235Y-104945235D02*
X130345235Y-103367265D01*
X124150000Y-76149000D02*
X124150000Y-77450000D01*
X114250000Y-79680000D02*
X114250000Y-85000000D01*
X146849000Y-97449000D02*
X148550000Y-99150000D01*
D23*
X153991536Y-92599943D02*
X153699000Y-92892479D01*
D25*
X136737500Y-108150000D02*
X137087500Y-108500000D01*
X117781000Y-76306000D02*
X118575000Y-77100000D01*
X137286443Y-71249000D02*
X130253024Y-71249000D01*
X136737500Y-108150000D02*
X136337500Y-108150000D01*
X144100000Y-78062557D02*
X139918721Y-73881279D01*
X158306500Y-98143500D02*
X158537500Y-97912500D01*
X138287500Y-93700000D02*
X138287500Y-97436500D01*
X114250000Y-85000000D02*
X123600000Y-94350000D01*
D23*
X159500000Y-92675000D02*
X159424943Y-92599943D01*
D25*
X139150000Y-108500000D02*
X142240000Y-105410000D01*
X148550000Y-99150000D02*
X156493500Y-99150000D01*
X139918721Y-73881279D02*
X137286443Y-71249000D01*
X130253024Y-71249000D02*
X125353024Y-76149000D01*
X117781000Y-76149000D02*
X117781000Y-76306000D01*
X138300000Y-97449000D02*
X142800000Y-97449000D01*
X129024165Y-106293008D02*
X129024165Y-106266305D01*
X125353024Y-76149000D02*
X124150000Y-76149000D01*
X117781000Y-76149000D02*
X114250000Y-79680000D01*
X133200000Y-97449000D02*
X138300000Y-97449000D01*
X117622068Y-99999758D02*
X122801625Y-94820200D01*
X124150000Y-76149000D02*
X117781000Y-76149000D01*
X130345235Y-103367265D02*
X133412500Y-100300000D01*
D23*
X153699000Y-94149000D02*
X157500000Y-97950000D01*
D25*
X123129800Y-94820200D02*
X123600000Y-94350000D01*
X144100000Y-78100000D02*
X144100000Y-78062557D01*
X140300000Y-73287500D02*
X140300000Y-73500000D01*
X122801625Y-94820200D02*
X123129800Y-94820200D01*
X142800000Y-97449000D02*
X146849000Y-97449000D01*
X125329532Y-107707222D02*
X127609951Y-107707222D01*
X158537500Y-97912500D02*
X159500000Y-97912500D01*
X142775000Y-97424000D02*
X142800000Y-97449000D01*
X137087500Y-108500000D02*
X139150000Y-108500000D01*
X133412500Y-100300000D02*
X133412500Y-97661500D01*
X147200000Y-96900000D02*
X147200000Y-94900000D01*
X129024165Y-106266305D02*
X130345235Y-104945235D01*
X138287500Y-97436500D02*
X138300000Y-97449000D01*
X136337500Y-108150000D02*
X134480508Y-106293008D01*
X123600000Y-94350000D02*
X126699000Y-97449000D01*
X146849000Y-97449000D02*
X146849000Y-97251000D01*
D23*
X157500000Y-97950000D02*
X157500000Y-98143500D01*
D25*
X133412500Y-97661500D02*
X133200000Y-97449000D01*
X140300000Y-73500000D02*
X139918721Y-73881279D01*
D23*
X159424943Y-92599943D02*
X153991536Y-92599943D01*
D25*
X142775000Y-96300000D02*
X142775000Y-97424000D01*
X134480508Y-106293008D02*
X129024165Y-106293008D01*
X157500000Y-98143500D02*
X158306500Y-98143500D01*
X127609951Y-107707222D02*
X129024165Y-106293008D01*
%TO.N,+3.3V*%
X168699000Y-93348943D02*
X169051057Y-93701000D01*
X157051000Y-75353000D02*
X157051000Y-81401000D01*
X169051057Y-93701000D02*
X169101000Y-93701000D01*
X156800000Y-101325000D02*
X154940000Y-103185000D01*
X157500000Y-101325000D02*
X158251000Y-102076000D01*
X169101000Y-93701000D02*
X169101000Y-97099000D01*
X143950000Y-74400000D02*
X146000000Y-72350000D01*
X146000000Y-72350000D02*
X146051000Y-72401000D01*
X156875000Y-100700000D02*
X153700000Y-100700000D01*
X157500000Y-101325000D02*
X156800000Y-101325000D01*
X169101000Y-97099000D02*
X170551000Y-98549000D01*
X170551000Y-101051000D02*
X169551000Y-102051000D01*
X170551000Y-98549000D02*
X170551000Y-101051000D01*
X154940000Y-103185000D02*
X154940000Y-105410000D01*
X169551000Y-102051000D02*
X161101000Y-102051000D01*
X154099000Y-72401000D02*
X157051000Y-75353000D01*
X158251000Y-102076000D02*
X161076000Y-102076000D01*
X157500000Y-101325000D02*
X156875000Y-100700000D01*
X153750000Y-100650000D02*
X153700000Y-100700000D01*
X168699000Y-93049000D02*
X168699000Y-93348943D01*
X161076000Y-102076000D02*
X161101000Y-102051000D01*
X157051000Y-81401000D02*
X168699000Y-93049000D01*
X146051000Y-72401000D02*
X154099000Y-72401000D01*
D23*
%TO.N,Net-(IC1-DVDT)*%
X130500000Y-83500000D02*
X129200000Y-82200000D01*
X125300000Y-82200000D02*
X129200000Y-82200000D01*
%TO.N,/Logic/SDA_3.3v*%
X159950000Y-102800000D02*
X162560000Y-105410000D01*
X156500000Y-102800000D02*
X159950000Y-102800000D01*
%TO.N,/Logic/INA_ALERT*%
X118300000Y-79200000D02*
X118300000Y-83450000D01*
X118300000Y-83450000D02*
X117950000Y-83800000D01*
X120400000Y-77100000D02*
X118300000Y-79200000D01*
X137499000Y-84801000D02*
X137500000Y-84800000D01*
X137500000Y-84800000D02*
X146000000Y-93300000D01*
X118300000Y-83450000D02*
X119651000Y-84801000D01*
X117950000Y-83800000D02*
X115550000Y-83800000D01*
X119651000Y-84801000D02*
X137499000Y-84801000D01*
%TO.N,Net-(IC1-ILIM)*%
X126200000Y-83500000D02*
X125500000Y-84200000D01*
X125500000Y-84200000D02*
X125262500Y-84200000D01*
X129700000Y-83500000D02*
X126200000Y-83500000D01*
%TO.N,/Power/CC1*%
X167000000Y-93800000D02*
X166100000Y-92900000D01*
%TO.N,/Power/Measured_VBUS*%
X161600000Y-92450000D02*
X160550000Y-91400000D01*
X160550000Y-91400000D02*
X160200000Y-91400000D01*
X160200000Y-91400000D02*
X159950000Y-91150000D01*
%TO.N,/Logic/UPDI*%
X150850000Y-96950000D02*
X150850000Y-91800000D01*
X139700000Y-105410000D02*
X145610000Y-99500000D01*
X145610000Y-99500000D02*
X147800000Y-99500000D01*
X149700000Y-98100000D02*
X150850000Y-96950000D01*
X149000000Y-98100000D02*
X149700000Y-98100000D01*
%TO.N,/Power/NTC*%
X154800000Y-86708521D02*
X154800000Y-85910000D01*
X162451000Y-92951000D02*
X161042479Y-92951000D01*
X161042479Y-92951000D02*
X154800000Y-86708521D01*
X169300000Y-99800000D02*
X162451000Y-92951000D01*
%TO.N,Net-(U6-VOUT)*%
X161400000Y-90350000D02*
X161400000Y-89950000D01*
X163010000Y-91960000D02*
X161400000Y-90350000D01*
%TO.N,/Logic/PGOOD_Logic*%
X151500000Y-90800000D02*
X147203979Y-90800000D01*
X147203979Y-90800000D02*
X135899000Y-79495021D01*
X135899000Y-79495021D02*
X135899000Y-76001000D01*
X135600000Y-75702000D02*
X135600000Y-72500000D01*
X135899000Y-76001000D02*
X135600000Y-75702000D01*
%TO.N,/Logic/VBUS_SW*%
X136400000Y-79287500D02*
X140987500Y-79287500D01*
X140987500Y-79287500D02*
X153000000Y-91300000D01*
X153000000Y-91300000D02*
X156600000Y-91300000D01*
%TO.N,/Logic/LOGIC_Report*%
X140300000Y-77600000D02*
X140300000Y-75112500D01*
X153100000Y-90400000D02*
X140300000Y-77600000D01*
%TO.N,/Logic/Load_Monitor_VBUS*%
X124112500Y-86100000D02*
X124712500Y-86700000D01*
X143632900Y-91500000D02*
X145499000Y-93366100D01*
X149542500Y-96292500D02*
X149542500Y-97542500D01*
X145499000Y-93366100D02*
X145499000Y-93507521D01*
X138300000Y-86700000D02*
X143100000Y-91500000D01*
X124712500Y-86700000D02*
X138300000Y-86700000D01*
X147125000Y-93875000D02*
X149542500Y-96292500D01*
X145866479Y-93875000D02*
X147125000Y-93875000D01*
X145499000Y-93507521D02*
X145866479Y-93875000D01*
X143100000Y-91500000D02*
X143632900Y-91500000D01*
%TO.N,/Logic/PD_Int*%
X160850000Y-93550000D02*
X164600000Y-97300000D01*
X154200000Y-93100000D02*
X154650000Y-93550000D01*
X164600000Y-97300000D02*
X164600000Y-100800000D01*
X154650000Y-93550000D02*
X160850000Y-93550000D01*
%TO.N,/Logic/SCL*%
X161500000Y-98250000D02*
X161500000Y-100850000D01*
X156000000Y-95650000D02*
X158900000Y-95650000D01*
X158900000Y-95650000D02*
X161500000Y-98250000D01*
X156000000Y-95650000D02*
X157100000Y-94550000D01*
X157100000Y-94550000D02*
X159550000Y-94550000D01*
%TO.N,/Logic/LOGIC_SW*%
X139500000Y-84300000D02*
X127800000Y-84300000D01*
X147500000Y-92300000D02*
X139500000Y-84300000D01*
%TO.N,/Logic/VBUS_Fault*%
X123904979Y-85599000D02*
X123611500Y-85892479D01*
X130402979Y-93099000D02*
X140099000Y-93099000D01*
X126900000Y-86100000D02*
X126399000Y-85599000D01*
X123611500Y-85892479D02*
X123611500Y-86307521D01*
X143800000Y-95500000D02*
X144600000Y-96300000D01*
X142500000Y-95500000D02*
X143800000Y-95500000D01*
X140099000Y-93099000D02*
X142500000Y-95500000D01*
X123611500Y-86307521D02*
X130402979Y-93099000D01*
X126399000Y-85599000D02*
X123904979Y-85599000D01*
%TO.N,/Logic/SDA*%
X159900000Y-95800000D02*
X160187500Y-96087500D01*
X160187500Y-96087500D02*
X160387500Y-96087500D01*
X162001000Y-101057521D02*
X161707521Y-101351000D01*
X160387500Y-96087500D02*
X162001000Y-97701000D01*
X160728831Y-100787352D02*
X160722174Y-100787352D01*
X162001000Y-97701000D02*
X162001000Y-101057521D01*
X161707521Y-101351000D02*
X161292479Y-101351000D01*
X161292479Y-101351000D02*
X160728831Y-100787352D01*
%TO.N,/Logic/LOGIC_Selection*%
X152400001Y-80899999D02*
X148600000Y-84700000D01*
X152400001Y-80212500D02*
X152400001Y-80899999D01*
X154300000Y-90400000D02*
X148600000Y-84700000D01*
X142700000Y-78800000D02*
X142700000Y-78200000D01*
X148600000Y-84700000D02*
X142700000Y-78800000D01*
%TO.N,Net-(U6-PWR_EN)*%
X158800000Y-88500000D02*
X158800000Y-85550000D01*
X161850000Y-91550000D02*
X159575000Y-89275000D01*
X161850000Y-91650000D02*
X161850000Y-91550000D01*
X159575000Y-89275000D02*
X158800000Y-88500000D01*
X159575000Y-89275000D02*
X158075000Y-89275000D01*
%TO.N,/Logic/Buck_Status*%
X154299000Y-89499000D02*
X154299000Y-81301000D01*
X155000000Y-90200000D02*
X154299000Y-89499000D01*
X154299000Y-81301000D02*
X155800000Y-79800000D01*
%TD*%
%TA.AperFunction,Conductor*%
%TO.N,GND*%
G36*
X178842539Y-70120185D02*
G01*
X178888294Y-70172989D01*
X178899500Y-70224500D01*
X178899500Y-109775500D01*
X178879815Y-109842539D01*
X178827011Y-109888294D01*
X178775500Y-109899500D01*
X113224500Y-109899500D01*
X113157461Y-109879815D01*
X113111706Y-109827011D01*
X113100500Y-109775500D01*
X113100500Y-102556001D01*
X122212493Y-102556001D01*
X122239412Y-102691328D01*
X122239415Y-102691338D01*
X122292215Y-102818810D01*
X122292222Y-102818823D01*
X122368879Y-102933547D01*
X122368882Y-102933551D01*
X122466448Y-103031117D01*
X122466452Y-103031120D01*
X122581176Y-103107777D01*
X122581189Y-103107784D01*
X122708661Y-103160584D01*
X122708666Y-103160586D01*
X122708670Y-103160586D01*
X122708671Y-103160587D01*
X122843998Y-103187506D01*
X122844001Y-103187506D01*
X122981989Y-103187506D01*
X123073035Y-103169395D01*
X123117322Y-103160586D01*
X123244805Y-103107781D01*
X123359536Y-103031120D01*
X123457108Y-102933548D01*
X123533769Y-102818817D01*
X123586574Y-102691334D01*
X123595383Y-102647047D01*
X123613494Y-102556001D01*
X123613494Y-102418010D01*
X123586575Y-102282683D01*
X123586574Y-102282682D01*
X123586574Y-102282678D01*
X123562364Y-102224230D01*
X123533772Y-102155201D01*
X123533765Y-102155188D01*
X123457108Y-102040464D01*
X123457105Y-102040460D01*
X123359539Y-101942894D01*
X123359535Y-101942891D01*
X123244811Y-101866234D01*
X123244798Y-101866227D01*
X123117326Y-101813427D01*
X123117316Y-101813424D01*
X122981989Y-101786506D01*
X122981987Y-101786506D01*
X122844001Y-101786506D01*
X122843999Y-101786506D01*
X122708671Y-101813424D01*
X122708661Y-101813427D01*
X122581189Y-101866227D01*
X122581176Y-101866234D01*
X122466452Y-101942891D01*
X122466448Y-101942894D01*
X122368882Y-102040460D01*
X122368879Y-102040464D01*
X122292222Y-102155188D01*
X122292215Y-102155201D01*
X122239415Y-102282673D01*
X122239412Y-102282683D01*
X122212494Y-102418010D01*
X122212494Y-102418013D01*
X122212494Y-102555999D01*
X122212494Y-102556001D01*
X122212493Y-102556001D01*
X113100500Y-102556001D01*
X113100500Y-80916547D01*
X113120185Y-80849508D01*
X113172989Y-80803753D01*
X113242147Y-80793809D01*
X113274579Y-80803110D01*
X113330009Y-80827585D01*
X113355135Y-80830500D01*
X113625501Y-80830499D01*
X113692539Y-80850183D01*
X113738294Y-80902987D01*
X113749500Y-80954499D01*
X113749500Y-85065891D01*
X113783608Y-85193187D01*
X113802688Y-85226233D01*
X113849500Y-85307314D01*
X113849502Y-85307316D01*
X122603350Y-94061164D01*
X122636835Y-94122487D01*
X122631851Y-94192179D01*
X122589979Y-94248112D01*
X122576451Y-94255817D01*
X122576879Y-94256559D01*
X122432915Y-94339675D01*
X122432907Y-94339681D01*
X122321106Y-94451482D01*
X122321100Y-94451490D01*
X122242051Y-94588409D01*
X122242047Y-94588418D01*
X122220065Y-94670452D01*
X122187972Y-94726037D01*
X117527905Y-99386105D01*
X117472320Y-99418198D01*
X117390286Y-99440180D01*
X117390277Y-99440184D01*
X117253358Y-99519233D01*
X117253350Y-99519239D01*
X117141549Y-99631040D01*
X117141543Y-99631048D01*
X117062494Y-99767967D01*
X117062491Y-99767974D01*
X117021568Y-99920701D01*
X117021568Y-100078815D01*
X117062491Y-100231540D01*
X117062491Y-100231541D01*
X117062494Y-100231548D01*
X117141543Y-100368467D01*
X117141547Y-100368472D01*
X117141548Y-100368474D01*
X117253352Y-100480278D01*
X117253354Y-100480279D01*
X117253358Y-100480282D01*
X117342574Y-100531790D01*
X117390284Y-100559335D01*
X117543011Y-100600258D01*
X117543013Y-100600258D01*
X117701123Y-100600258D01*
X117701125Y-100600258D01*
X117853852Y-100559335D01*
X117990784Y-100480278D01*
X118102588Y-100368474D01*
X118181645Y-100231542D01*
X118203626Y-100149506D01*
X118235717Y-100093921D01*
X118613410Y-99716228D01*
X124749500Y-99716228D01*
X124749500Y-99883771D01*
X124782182Y-100048074D01*
X124782184Y-100048082D01*
X124846295Y-100202860D01*
X124939373Y-100342162D01*
X125057837Y-100460626D01*
X125150494Y-100522537D01*
X125197137Y-100553703D01*
X125197138Y-100553703D01*
X125197139Y-100553704D01*
X125232201Y-100568227D01*
X125351918Y-100617816D01*
X125516228Y-100650499D01*
X125516232Y-100650500D01*
X125516233Y-100650500D01*
X125683768Y-100650500D01*
X125683769Y-100650499D01*
X125848082Y-100617816D01*
X126002863Y-100553703D01*
X126142162Y-100460626D01*
X126260626Y-100342162D01*
X126353703Y-100202863D01*
X126417816Y-100048082D01*
X126450500Y-99883767D01*
X126450500Y-99716233D01*
X126417816Y-99551918D01*
X126362427Y-99418198D01*
X126353704Y-99397139D01*
X126346331Y-99386105D01*
X126266918Y-99267254D01*
X126260626Y-99257837D01*
X126142162Y-99139373D01*
X126002860Y-99046295D01*
X125848082Y-98982184D01*
X125848074Y-98982182D01*
X125683771Y-98949500D01*
X125683767Y-98949500D01*
X125516233Y-98949500D01*
X125516228Y-98949500D01*
X125351925Y-98982182D01*
X125351917Y-98982184D01*
X125197139Y-99046295D01*
X125057837Y-99139373D01*
X124939373Y-99257837D01*
X124846295Y-99397139D01*
X124782184Y-99551917D01*
X124782182Y-99551925D01*
X124749500Y-99716228D01*
X118613410Y-99716228D01*
X122895789Y-95433848D01*
X122902717Y-95429219D01*
X122905661Y-95424980D01*
X122919850Y-95417771D01*
X122936015Y-95406971D01*
X122943520Y-95403862D01*
X123033409Y-95379777D01*
X123113997Y-95333249D01*
X123121507Y-95330139D01*
X123141925Y-95327943D01*
X123168959Y-95320700D01*
X123195690Y-95320700D01*
X123195692Y-95320700D01*
X123322986Y-95286592D01*
X123437114Y-95220700D01*
X123512318Y-95145494D01*
X123573641Y-95112010D01*
X123643333Y-95116994D01*
X123687681Y-95145495D01*
X126391686Y-97849500D01*
X126490413Y-97906500D01*
X126490956Y-97906814D01*
X126505814Y-97915392D01*
X126633108Y-97949500D01*
X126764893Y-97949500D01*
X132788000Y-97949500D01*
X132855039Y-97969185D01*
X132900794Y-98021989D01*
X132912000Y-98073500D01*
X132912000Y-99932664D01*
X132910373Y-99940842D01*
X132911289Y-99945919D01*
X132906354Y-99961045D01*
X132902561Y-99980117D01*
X132899449Y-99987627D01*
X132852923Y-100068216D01*
X132828839Y-100158095D01*
X132825727Y-100165609D01*
X132812840Y-100181599D01*
X132798847Y-100205837D01*
X130037921Y-102966765D01*
X129944737Y-103059948D01*
X129944735Y-103059951D01*
X129878843Y-103174077D01*
X129844735Y-103301373D01*
X129844735Y-104577899D01*
X129843108Y-104586077D01*
X129844024Y-104591154D01*
X129839089Y-104606280D01*
X129835296Y-104625352D01*
X129832184Y-104632862D01*
X129785658Y-104713451D01*
X129761574Y-104803330D01*
X129758462Y-104810844D01*
X129745575Y-104826834D01*
X129731582Y-104851072D01*
X128893525Y-105689129D01*
X128837940Y-105721222D01*
X128792386Y-105733429D01*
X128792374Y-105733434D01*
X128655455Y-105812483D01*
X128655447Y-105812489D01*
X128543646Y-105924290D01*
X128543640Y-105924298D01*
X128464591Y-106061217D01*
X128464587Y-106061226D01*
X128442605Y-106143260D01*
X128410512Y-106198845D01*
X127438956Y-107170403D01*
X127377633Y-107203888D01*
X127351275Y-107206722D01*
X125696866Y-107206722D01*
X125634866Y-107190109D01*
X125561318Y-107147646D01*
X125561317Y-107147645D01*
X125561316Y-107147645D01*
X125408589Y-107106722D01*
X125250475Y-107106722D01*
X125097748Y-107147645D01*
X125097741Y-107147648D01*
X124960822Y-107226697D01*
X124960814Y-107226703D01*
X124849013Y-107338504D01*
X124849007Y-107338512D01*
X124769958Y-107475431D01*
X124769955Y-107475438D01*
X124729032Y-107628165D01*
X124729032Y-107786279D01*
X124765654Y-107922952D01*
X124769955Y-107939005D01*
X124769958Y-107939012D01*
X124849007Y-108075931D01*
X124849011Y-108075936D01*
X124849012Y-108075938D01*
X124960816Y-108187742D01*
X124960818Y-108187743D01*
X124960822Y-108187746D01*
X125097741Y-108266795D01*
X125097748Y-108266799D01*
X125250475Y-108307722D01*
X125250477Y-108307722D01*
X125408587Y-108307722D01*
X125408589Y-108307722D01*
X125561316Y-108266799D01*
X125634866Y-108224334D01*
X125696866Y-108207722D01*
X127675841Y-108207722D01*
X127675843Y-108207722D01*
X127803137Y-108173614D01*
X127917265Y-108107722D01*
X129118329Y-106906656D01*
X129125257Y-106902027D01*
X129128201Y-106897788D01*
X129142390Y-106890579D01*
X129158555Y-106879779D01*
X129166060Y-106876670D01*
X129255949Y-106852585D01*
X129336537Y-106806057D01*
X129344047Y-106802947D01*
X129364465Y-106800751D01*
X129391499Y-106793508D01*
X134221832Y-106793508D01*
X134288871Y-106813193D01*
X134309513Y-106829827D01*
X135932659Y-108452972D01*
X135932669Y-108452983D01*
X135936999Y-108457313D01*
X135937000Y-108457314D01*
X136030186Y-108550500D01*
X136144314Y-108616392D01*
X136271607Y-108650500D01*
X136271608Y-108650500D01*
X136370166Y-108650500D01*
X136378342Y-108652126D01*
X136383421Y-108651210D01*
X136398551Y-108656146D01*
X136417618Y-108659939D01*
X136425127Y-108663049D01*
X136505716Y-108709577D01*
X136595600Y-108733661D01*
X136603108Y-108736771D01*
X136619098Y-108749656D01*
X136643337Y-108763651D01*
X136687000Y-108807314D01*
X136780186Y-108900500D01*
X136894314Y-108966392D01*
X137021608Y-109000500D01*
X137021610Y-109000500D01*
X139215890Y-109000500D01*
X139215892Y-109000500D01*
X139343186Y-108966392D01*
X139457314Y-108900500D01*
X141807459Y-106550353D01*
X141868780Y-106516870D01*
X141933458Y-106520106D01*
X141970583Y-106532169D01*
X141970586Y-106532169D01*
X141970591Y-106532171D01*
X142053429Y-106545291D01*
X142149449Y-106560500D01*
X142149454Y-106560500D01*
X142330551Y-106560500D01*
X142417259Y-106546765D01*
X142509409Y-106532171D01*
X142681639Y-106476211D01*
X142842994Y-106393996D01*
X142989501Y-106287553D01*
X143117553Y-106159501D01*
X143223996Y-106012994D01*
X143306211Y-105851639D01*
X143362171Y-105679409D01*
X143376765Y-105587259D01*
X143390500Y-105500551D01*
X143390500Y-105319448D01*
X146169500Y-105319448D01*
X146169500Y-105500551D01*
X146197829Y-105679410D01*
X146253787Y-105851636D01*
X146253788Y-105851639D01*
X146336006Y-106012997D01*
X146442441Y-106159494D01*
X146442445Y-106159499D01*
X146570500Y-106287554D01*
X146570505Y-106287558D01*
X146698287Y-106380396D01*
X146717006Y-106393996D01*
X146793094Y-106432765D01*
X146878360Y-106476211D01*
X146878363Y-106476212D01*
X146964476Y-106504191D01*
X147050591Y-106532171D01*
X147133429Y-106545291D01*
X147229449Y-106560500D01*
X147229454Y-106560500D01*
X147410551Y-106560500D01*
X147497259Y-106546765D01*
X147589409Y-106532171D01*
X147761639Y-106476211D01*
X147922994Y-106393996D01*
X148069501Y-106287553D01*
X148197553Y-106159501D01*
X148303996Y-106012994D01*
X148386211Y-105851639D01*
X148442171Y-105679409D01*
X148456759Y-105587305D01*
X148467527Y-105519321D01*
X148497456Y-105456186D01*
X148556768Y-105419255D01*
X148626630Y-105420253D01*
X148684863Y-105458863D01*
X148712473Y-105519321D01*
X148737829Y-105679410D01*
X148793787Y-105851636D01*
X148793788Y-105851639D01*
X148876006Y-106012997D01*
X148982441Y-106159494D01*
X148982445Y-106159499D01*
X149110500Y-106287554D01*
X149110505Y-106287558D01*
X149238287Y-106380396D01*
X149257006Y-106393996D01*
X149333094Y-106432765D01*
X149418360Y-106476211D01*
X149418363Y-106476212D01*
X149504476Y-106504191D01*
X149590591Y-106532171D01*
X149673429Y-106545291D01*
X149769449Y-106560500D01*
X149769454Y-106560500D01*
X149950551Y-106560500D01*
X150037259Y-106546765D01*
X150129409Y-106532171D01*
X150301639Y-106476211D01*
X150462994Y-106393996D01*
X150609501Y-106287553D01*
X150737553Y-106159501D01*
X150843996Y-106012994D01*
X150926211Y-105851639D01*
X150982171Y-105679409D01*
X150996765Y-105587259D01*
X151010500Y-105500551D01*
X151010500Y-105319448D01*
X150994019Y-105215397D01*
X150982171Y-105140591D01*
X150944384Y-105024292D01*
X150926212Y-104968363D01*
X150926211Y-104968360D01*
X150876459Y-104870718D01*
X150843996Y-104807006D01*
X150776024Y-104713450D01*
X150737558Y-104660505D01*
X150737554Y-104660500D01*
X150609499Y-104532445D01*
X150609494Y-104532441D01*
X150462997Y-104426006D01*
X150462996Y-104426005D01*
X150462994Y-104426004D01*
X150386906Y-104387235D01*
X150301639Y-104343788D01*
X150301636Y-104343787D01*
X150129410Y-104287829D01*
X149950551Y-104259500D01*
X149950546Y-104259500D01*
X149769454Y-104259500D01*
X149769449Y-104259500D01*
X149590589Y-104287829D01*
X149418363Y-104343787D01*
X149418360Y-104343788D01*
X149257002Y-104426006D01*
X149110505Y-104532441D01*
X149110500Y-104532445D01*
X148982445Y-104660500D01*
X148982441Y-104660505D01*
X148876006Y-104807002D01*
X148793788Y-104968360D01*
X148793787Y-104968363D01*
X148737829Y-105140589D01*
X148712473Y-105300678D01*
X148682544Y-105363813D01*
X148623232Y-105400744D01*
X148553369Y-105399746D01*
X148495137Y-105361136D01*
X148467527Y-105300678D01*
X148453740Y-105213639D01*
X148442171Y-105140591D01*
X148404384Y-105024292D01*
X148386212Y-104968363D01*
X148386211Y-104968360D01*
X148336459Y-104870718D01*
X148303996Y-104807006D01*
X148236024Y-104713450D01*
X148197558Y-104660505D01*
X148197554Y-104660500D01*
X148069499Y-104532445D01*
X148069494Y-104532441D01*
X147922997Y-104426006D01*
X147922996Y-104426005D01*
X147922994Y-104426004D01*
X147846906Y-104387235D01*
X147761639Y-104343788D01*
X147761636Y-104343787D01*
X147589410Y-104287829D01*
X147410551Y-104259500D01*
X147410546Y-104259500D01*
X147229454Y-104259500D01*
X147229449Y-104259500D01*
X147050589Y-104287829D01*
X146878363Y-104343787D01*
X146878360Y-104343788D01*
X146717002Y-104426006D01*
X146570505Y-104532441D01*
X146570500Y-104532445D01*
X146442445Y-104660500D01*
X146442441Y-104660505D01*
X146336006Y-104807002D01*
X146253788Y-104968360D01*
X146253787Y-104968363D01*
X146197829Y-105140589D01*
X146169500Y-105319448D01*
X143390500Y-105319448D01*
X143374019Y-105215397D01*
X143362171Y-105140591D01*
X143324384Y-105024292D01*
X143306212Y-104968363D01*
X143306211Y-104968360D01*
X143256459Y-104870718D01*
X143223996Y-104807006D01*
X143156024Y-104713450D01*
X143117558Y-104660505D01*
X143117554Y-104660500D01*
X142989499Y-104532445D01*
X142989494Y-104532441D01*
X142842997Y-104426006D01*
X142842996Y-104426005D01*
X142842994Y-104426004D01*
X142766906Y-104387235D01*
X142681639Y-104343788D01*
X142681636Y-104343787D01*
X142509410Y-104287829D01*
X142330551Y-104259500D01*
X142330546Y-104259500D01*
X142149454Y-104259500D01*
X142149449Y-104259500D01*
X141970589Y-104287829D01*
X141798363Y-104343787D01*
X141798360Y-104343788D01*
X141637006Y-104426003D01*
X141505747Y-104521367D01*
X141505740Y-104521373D01*
X141490499Y-104532447D01*
X141362447Y-104660499D01*
X141351373Y-104675740D01*
X141351367Y-104675747D01*
X141256003Y-104807006D01*
X141173788Y-104968360D01*
X141173787Y-104968363D01*
X141117829Y-105140589D01*
X141096972Y-105272273D01*
X141067043Y-105335408D01*
X141007731Y-105372339D01*
X140937868Y-105371341D01*
X140879636Y-105332731D01*
X140851522Y-105268767D01*
X140850499Y-105252875D01*
X140850499Y-104877255D01*
X140870184Y-104810216D01*
X140886818Y-104789574D01*
X141015893Y-104660499D01*
X145739574Y-99936819D01*
X145800897Y-99903334D01*
X145827255Y-99900500D01*
X147459460Y-99900500D01*
X147521460Y-99917113D01*
X147555592Y-99936819D01*
X147606814Y-99966392D01*
X147734108Y-100000500D01*
X147734110Y-100000500D01*
X147865890Y-100000500D01*
X147865892Y-100000500D01*
X147993186Y-99966392D01*
X148107314Y-99900500D01*
X148200500Y-99807314D01*
X148266392Y-99693186D01*
X148266392Y-99693184D01*
X148269329Y-99688098D01*
X148319896Y-99639883D01*
X148388503Y-99626659D01*
X148408795Y-99630320D01*
X148484107Y-99650500D01*
X148484108Y-99650500D01*
X148484110Y-99650500D01*
X156559390Y-99650500D01*
X156559392Y-99650500D01*
X156686686Y-99616392D01*
X156800814Y-99550500D01*
X157670995Y-98680319D01*
X157732318Y-98646834D01*
X157758676Y-98644000D01*
X158372390Y-98644000D01*
X158372392Y-98644000D01*
X158499686Y-98609892D01*
X158613814Y-98544000D01*
X158708495Y-98449319D01*
X158769818Y-98415834D01*
X158796176Y-98413000D01*
X159132666Y-98413000D01*
X159194665Y-98429612D01*
X159268216Y-98472077D01*
X159420943Y-98513000D01*
X159420945Y-98513000D01*
X159579055Y-98513000D01*
X159579057Y-98513000D01*
X159731784Y-98472077D01*
X159868716Y-98393020D01*
X159980520Y-98281216D01*
X160059577Y-98144284D01*
X160100500Y-97991557D01*
X160100500Y-97833443D01*
X160067806Y-97711427D01*
X160069469Y-97641580D01*
X160108631Y-97583717D01*
X160172860Y-97556213D01*
X160241762Y-97567799D01*
X160275262Y-97591655D01*
X161063181Y-98379574D01*
X161096666Y-98440897D01*
X161099500Y-98467255D01*
X161099500Y-100212498D01*
X161079815Y-100279537D01*
X161027011Y-100325292D01*
X160957853Y-100335236D01*
X160923214Y-100323249D01*
X160922874Y-100324072D01*
X160915362Y-100320961D01*
X160915361Y-100320960D01*
X160915360Y-100320960D01*
X160788066Y-100286852D01*
X160656282Y-100286852D01*
X160528986Y-100320960D01*
X160414860Y-100386852D01*
X160414857Y-100386854D01*
X160321676Y-100480035D01*
X160321674Y-100480038D01*
X160255782Y-100594164D01*
X160235806Y-100668717D01*
X160221674Y-100721460D01*
X160221674Y-100853244D01*
X160231565Y-100890157D01*
X160255782Y-100980539D01*
X160269786Y-101004794D01*
X160321674Y-101094666D01*
X160414860Y-101187852D01*
X160528988Y-101253744D01*
X160633282Y-101281689D01*
X160647167Y-101289705D01*
X160660614Y-101292631D01*
X160688868Y-101313782D01*
X160738905Y-101363819D01*
X160772390Y-101425142D01*
X160767406Y-101494834D01*
X160725534Y-101550767D01*
X160660070Y-101575184D01*
X160651224Y-101575500D01*
X158509676Y-101575500D01*
X158442637Y-101555815D01*
X158421995Y-101539181D01*
X158113651Y-101230837D01*
X158081557Y-101175250D01*
X158059577Y-101093216D01*
X157994523Y-100980538D01*
X157980524Y-100956290D01*
X157980518Y-100956282D01*
X157868717Y-100844481D01*
X157868709Y-100844475D01*
X157731790Y-100765426D01*
X157731786Y-100765424D01*
X157731784Y-100765423D01*
X157731782Y-100765422D01*
X157731779Y-100765421D01*
X157649747Y-100743440D01*
X157594161Y-100711347D01*
X157182316Y-100299502D01*
X157182314Y-100299500D01*
X157125250Y-100266554D01*
X157068187Y-100233608D01*
X157004539Y-100216554D01*
X156940892Y-100199500D01*
X156940891Y-100199500D01*
X154067334Y-100199500D01*
X154005334Y-100182887D01*
X153931786Y-100140424D01*
X153931785Y-100140423D01*
X153931784Y-100140423D01*
X153779057Y-100099500D01*
X153620943Y-100099500D01*
X153468216Y-100140423D01*
X153468209Y-100140426D01*
X153331290Y-100219475D01*
X153331282Y-100219481D01*
X153219481Y-100331282D01*
X153219475Y-100331290D01*
X153140426Y-100468209D01*
X153140423Y-100468216D01*
X153099500Y-100620943D01*
X153099500Y-100779057D01*
X153135565Y-100913651D01*
X153140423Y-100931783D01*
X153140426Y-100931790D01*
X153219475Y-101068709D01*
X153219479Y-101068714D01*
X153219480Y-101068716D01*
X153331284Y-101180520D01*
X153331286Y-101180521D01*
X153331290Y-101180524D01*
X153399986Y-101220185D01*
X153468216Y-101259577D01*
X153620943Y-101300500D01*
X153620945Y-101300500D01*
X153779055Y-101300500D01*
X153779057Y-101300500D01*
X153931784Y-101259577D01*
X154005334Y-101217112D01*
X154067334Y-101200500D01*
X155917325Y-101200500D01*
X155984364Y-101220185D01*
X156030119Y-101272989D01*
X156040063Y-101342147D01*
X156011038Y-101405703D01*
X156005009Y-101412177D01*
X154899794Y-102517391D01*
X154615245Y-102801940D01*
X154615244Y-102801940D01*
X154615245Y-102801941D01*
X154539500Y-102877686D01*
X154473608Y-102991812D01*
X154439500Y-103119108D01*
X154439500Y-104135500D01*
X154419815Y-104202539D01*
X154367011Y-104248294D01*
X154315500Y-104259500D01*
X154045143Y-104259500D01*
X154045117Y-104259502D01*
X154020012Y-104262413D01*
X154020008Y-104262415D01*
X153917235Y-104307793D01*
X153837794Y-104387234D01*
X153792415Y-104490006D01*
X153792415Y-104490008D01*
X153789500Y-104515131D01*
X153789500Y-106304856D01*
X153789502Y-106304882D01*
X153792413Y-106329987D01*
X153792415Y-106329991D01*
X153837793Y-106432764D01*
X153837794Y-106432765D01*
X153917235Y-106512206D01*
X154020009Y-106557585D01*
X154045135Y-106560500D01*
X155834864Y-106560499D01*
X155834879Y-106560497D01*
X155834882Y-106560497D01*
X155859987Y-106557586D01*
X155859988Y-106557585D01*
X155859991Y-106557585D01*
X155962765Y-106512206D01*
X156042206Y-106432765D01*
X156087585Y-106329991D01*
X156090500Y-106304865D01*
X156090499Y-104515136D01*
X156089589Y-104507290D01*
X156087586Y-104490012D01*
X156087585Y-104490010D01*
X156087585Y-104490009D01*
X156042206Y-104387235D01*
X155962765Y-104307794D01*
X155962763Y-104307793D01*
X155859992Y-104262415D01*
X155834868Y-104259500D01*
X155834865Y-104259500D01*
X155564500Y-104259500D01*
X155497461Y-104239815D01*
X155451706Y-104187011D01*
X155440500Y-104135500D01*
X155440500Y-103443675D01*
X155460185Y-103376636D01*
X155476819Y-103355994D01*
X155658736Y-103174077D01*
X155848339Y-102984473D01*
X155909660Y-102950990D01*
X155979351Y-102955974D01*
X156035285Y-102997845D01*
X156043405Y-103010155D01*
X156099500Y-103107314D01*
X156192686Y-103200500D01*
X156287285Y-103255117D01*
X156306810Y-103266390D01*
X156306814Y-103266392D01*
X156434108Y-103300500D01*
X156434110Y-103300500D01*
X156565890Y-103300500D01*
X156565892Y-103300500D01*
X156693186Y-103266392D01*
X156778540Y-103217113D01*
X156840540Y-103200500D01*
X159732745Y-103200500D01*
X159799784Y-103220185D01*
X159820426Y-103236819D01*
X161454325Y-104870718D01*
X161487810Y-104932041D01*
X161484575Y-104996716D01*
X161437829Y-105140587D01*
X161412473Y-105300678D01*
X161382544Y-105363813D01*
X161323232Y-105400744D01*
X161253369Y-105399746D01*
X161195137Y-105361136D01*
X161167527Y-105300678D01*
X161153740Y-105213639D01*
X161142171Y-105140591D01*
X161104384Y-105024292D01*
X161086212Y-104968363D01*
X161086211Y-104968360D01*
X161036459Y-104870718D01*
X161003996Y-104807006D01*
X160936025Y-104713451D01*
X160908638Y-104675755D01*
X160908634Y-104675751D01*
X160897553Y-104660499D01*
X160769501Y-104532447D01*
X160754248Y-104521365D01*
X160754244Y-104521361D01*
X160622997Y-104426006D01*
X160622996Y-104426005D01*
X160622994Y-104426004D01*
X160546906Y-104387235D01*
X160461639Y-104343788D01*
X160461636Y-104343787D01*
X160289410Y-104287829D01*
X160110551Y-104259500D01*
X160110546Y-104259500D01*
X159929454Y-104259500D01*
X159929449Y-104259500D01*
X159750589Y-104287829D01*
X159578363Y-104343787D01*
X159578360Y-104343788D01*
X159417002Y-104426006D01*
X159270505Y-104532441D01*
X159270500Y-104532445D01*
X159142445Y-104660500D01*
X159142441Y-104660505D01*
X159036006Y-104807002D01*
X158953788Y-104968360D01*
X158953787Y-104968363D01*
X158897829Y-105140589D01*
X158869500Y-105319448D01*
X158869500Y-105500551D01*
X158897829Y-105679410D01*
X158953787Y-105851636D01*
X158953788Y-105851639D01*
X159036006Y-106012997D01*
X159142441Y-106159494D01*
X159142445Y-106159499D01*
X159270500Y-106287554D01*
X159270505Y-106287558D01*
X159398287Y-106380396D01*
X159417006Y-106393996D01*
X159493094Y-106432765D01*
X159578360Y-106476211D01*
X159578363Y-106476212D01*
X159664476Y-106504191D01*
X159750591Y-106532171D01*
X159833429Y-106545291D01*
X159929449Y-106560500D01*
X159929454Y-106560500D01*
X160110551Y-106560500D01*
X160197259Y-106546765D01*
X160289409Y-106532171D01*
X160461639Y-106476211D01*
X160622994Y-106393996D01*
X160769501Y-106287553D01*
X160897553Y-106159501D01*
X161003996Y-106012994D01*
X161086211Y-105851639D01*
X161142171Y-105679409D01*
X161156759Y-105587305D01*
X161167527Y-105519321D01*
X161197456Y-105456186D01*
X161256768Y-105419255D01*
X161326630Y-105420253D01*
X161384863Y-105458863D01*
X161412473Y-105519321D01*
X161437829Y-105679410D01*
X161493787Y-105851636D01*
X161493788Y-105851639D01*
X161576006Y-106012997D01*
X161682441Y-106159494D01*
X161682445Y-106159499D01*
X161810500Y-106287554D01*
X161810505Y-106287558D01*
X161938287Y-106380396D01*
X161957006Y-106393996D01*
X162033094Y-106432765D01*
X162118360Y-106476211D01*
X162118363Y-106476212D01*
X162204476Y-106504191D01*
X162290591Y-106532171D01*
X162373429Y-106545291D01*
X162469449Y-106560500D01*
X162469454Y-106560500D01*
X162650551Y-106560500D01*
X162737259Y-106546765D01*
X162829409Y-106532171D01*
X163001639Y-106476211D01*
X163162994Y-106393996D01*
X163309501Y-106287553D01*
X163437553Y-106159501D01*
X163543996Y-106012994D01*
X163626211Y-105851639D01*
X163682171Y-105679409D01*
X163696765Y-105587259D01*
X163710500Y-105500551D01*
X163710500Y-105319448D01*
X163694019Y-105215397D01*
X163682171Y-105140591D01*
X163644384Y-105024292D01*
X163626212Y-104968363D01*
X163626211Y-104968360D01*
X163576459Y-104870718D01*
X163543996Y-104807006D01*
X163476024Y-104713450D01*
X163437558Y-104660505D01*
X163437554Y-104660500D01*
X163309499Y-104532445D01*
X163309494Y-104532441D01*
X163162997Y-104426006D01*
X163162996Y-104426005D01*
X163162994Y-104426004D01*
X163086906Y-104387235D01*
X163001639Y-104343788D01*
X163001636Y-104343787D01*
X162829410Y-104287829D01*
X162650551Y-104259500D01*
X162650546Y-104259500D01*
X162469454Y-104259500D01*
X162469449Y-104259500D01*
X162290587Y-104287829D01*
X162146716Y-104334575D01*
X162076875Y-104336570D01*
X162020718Y-104304325D01*
X160971524Y-103255131D01*
X165074500Y-103255131D01*
X165074500Y-105044856D01*
X165074502Y-105044882D01*
X165077413Y-105069987D01*
X165077415Y-105069991D01*
X165122793Y-105172764D01*
X165122794Y-105172765D01*
X165202235Y-105252206D01*
X165305009Y-105297585D01*
X165330135Y-105300500D01*
X166067873Y-105300499D01*
X166134910Y-105320183D01*
X166180665Y-105372987D01*
X166190609Y-105442146D01*
X166161584Y-105505702D01*
X166102806Y-105543476D01*
X166087270Y-105546972D01*
X165955589Y-105567829D01*
X165783363Y-105623787D01*
X165783360Y-105623788D01*
X165622002Y-105706006D01*
X165475505Y-105812441D01*
X165475500Y-105812445D01*
X165347445Y-105940500D01*
X165347441Y-105940505D01*
X165241006Y-106087002D01*
X165158788Y-106248360D01*
X165158787Y-106248363D01*
X165102829Y-106420589D01*
X165074500Y-106599448D01*
X165074500Y-106780551D01*
X165102829Y-106959410D01*
X165158787Y-107131636D01*
X165158788Y-107131639D01*
X165241006Y-107292997D01*
X165347441Y-107439494D01*
X165347445Y-107439499D01*
X165475500Y-107567554D01*
X165475505Y-107567558D01*
X165603287Y-107660396D01*
X165622006Y-107673996D01*
X165727484Y-107727740D01*
X165783360Y-107756211D01*
X165783363Y-107756212D01*
X165860523Y-107781282D01*
X165955591Y-107812171D01*
X166038429Y-107825291D01*
X166134449Y-107840500D01*
X166134454Y-107840500D01*
X166315551Y-107840500D01*
X166402259Y-107826765D01*
X166494409Y-107812171D01*
X166666639Y-107756211D01*
X166827994Y-107673996D01*
X166974501Y-107567553D01*
X167102553Y-107439501D01*
X167208996Y-107292994D01*
X167291211Y-107131639D01*
X167347171Y-106959409D01*
X167367695Y-106829827D01*
X167375500Y-106780551D01*
X167375500Y-106599448D01*
X167349099Y-106432765D01*
X167347171Y-106420591D01*
X167317732Y-106329987D01*
X167291212Y-106248363D01*
X167291211Y-106248360D01*
X167245933Y-106159499D01*
X167208996Y-106087006D01*
X167155226Y-106012997D01*
X167102558Y-105940505D01*
X167102554Y-105940500D01*
X166974499Y-105812445D01*
X166974494Y-105812441D01*
X166827997Y-105706006D01*
X166827996Y-105706005D01*
X166827994Y-105706004D01*
X166775799Y-105679409D01*
X166666639Y-105623788D01*
X166666636Y-105623787D01*
X166494410Y-105567829D01*
X166362728Y-105546972D01*
X166299594Y-105517042D01*
X166262663Y-105457731D01*
X166263661Y-105387868D01*
X166302271Y-105329636D01*
X166366235Y-105301522D01*
X166382120Y-105300499D01*
X167119864Y-105300499D01*
X167119879Y-105300497D01*
X167119882Y-105300497D01*
X167144987Y-105297586D01*
X167144988Y-105297585D01*
X167144991Y-105297585D01*
X167247765Y-105252206D01*
X167327206Y-105172765D01*
X167372585Y-105069991D01*
X167375500Y-105044865D01*
X167375499Y-103255136D01*
X167373375Y-103236819D01*
X167372586Y-103230012D01*
X167372585Y-103230010D01*
X167372585Y-103230009D01*
X167327206Y-103127235D01*
X167247765Y-103047794D01*
X167209995Y-103031117D01*
X167144992Y-103002415D01*
X167119865Y-102999500D01*
X165330143Y-102999500D01*
X165330117Y-102999502D01*
X165305012Y-103002413D01*
X165305008Y-103002415D01*
X165202235Y-103047793D01*
X165122794Y-103127234D01*
X165077415Y-103230006D01*
X165077415Y-103230008D01*
X165074500Y-103255131D01*
X160971524Y-103255131D01*
X160504574Y-102788181D01*
X160471089Y-102726858D01*
X160476073Y-102657166D01*
X160517945Y-102601233D01*
X160583409Y-102576816D01*
X160592255Y-102576500D01*
X161141890Y-102576500D01*
X161141892Y-102576500D01*
X161219426Y-102555725D01*
X161251519Y-102551500D01*
X169616890Y-102551500D01*
X169616892Y-102551500D01*
X169744186Y-102517392D01*
X169858314Y-102451500D01*
X170951500Y-101358314D01*
X171017392Y-101244186D01*
X171051500Y-101116892D01*
X171051500Y-100985107D01*
X171051500Y-98483108D01*
X171017392Y-98355814D01*
X170951500Y-98241686D01*
X170951498Y-98241684D01*
X170948505Y-98236500D01*
X170932032Y-98168600D01*
X170954884Y-98102573D01*
X171009805Y-98059382D01*
X171055892Y-98050499D01*
X172094856Y-98050499D01*
X172094864Y-98050499D01*
X172094879Y-98050497D01*
X172094882Y-98050497D01*
X172119987Y-98047586D01*
X172119988Y-98047585D01*
X172119991Y-98047585D01*
X172222765Y-98002206D01*
X172302206Y-97922765D01*
X172347585Y-97819991D01*
X172350500Y-97794865D01*
X172350499Y-96005136D01*
X172350497Y-96005117D01*
X172347586Y-95980012D01*
X172347585Y-95980010D01*
X172347585Y-95980009D01*
X172302206Y-95877235D01*
X172222765Y-95797794D01*
X172222763Y-95797793D01*
X172119992Y-95752415D01*
X172094865Y-95749500D01*
X170305143Y-95749500D01*
X170305117Y-95749502D01*
X170280012Y-95752413D01*
X170280008Y-95752415D01*
X170177235Y-95797793D01*
X170097794Y-95877234D01*
X170052415Y-95980006D01*
X170052415Y-95980008D01*
X170049500Y-96005131D01*
X170049500Y-97040324D01*
X170029815Y-97107363D01*
X169977011Y-97153118D01*
X169907853Y-97163062D01*
X169844297Y-97134037D01*
X169837819Y-97128005D01*
X169637819Y-96928005D01*
X169604334Y-96866682D01*
X169601500Y-96840324D01*
X169601500Y-93635110D01*
X169601500Y-93635108D01*
X169567392Y-93507814D01*
X169562592Y-93499501D01*
X169546834Y-93472207D01*
X169501500Y-93393686D01*
X169408314Y-93300500D01*
X169304281Y-93240436D01*
X169278602Y-93220731D01*
X169235819Y-93177948D01*
X169202334Y-93116625D01*
X169199500Y-93090267D01*
X169199500Y-92983110D01*
X169199500Y-92983108D01*
X169165392Y-92855814D01*
X169099500Y-92741686D01*
X169006314Y-92648500D01*
X162581814Y-86224000D01*
X167594500Y-86224000D01*
X167594500Y-87776000D01*
X167594501Y-87776009D01*
X167601481Y-87840935D01*
X167601483Y-87840947D01*
X167612688Y-87892453D01*
X167623644Y-87930654D01*
X167623646Y-87930658D01*
X167680323Y-88027568D01*
X167680325Y-88027571D01*
X167726081Y-88080376D01*
X167726091Y-88080387D01*
X167770807Y-88122548D01*
X167770809Y-88122549D01*
X167770813Y-88122553D01*
X167870889Y-88173439D01*
X167937928Y-88193124D01*
X168024000Y-88205500D01*
X169187495Y-88205500D01*
X169248287Y-88221425D01*
X169952287Y-88617425D01*
X170001067Y-88667448D01*
X170015058Y-88735903D01*
X169989819Y-88801054D01*
X169933362Y-88842218D01*
X169891495Y-88849500D01*
X168405143Y-88849500D01*
X168405117Y-88849502D01*
X168380012Y-88852413D01*
X168380008Y-88852415D01*
X168277235Y-88897793D01*
X168197794Y-88977234D01*
X168152415Y-89080006D01*
X168152415Y-89080008D01*
X168149500Y-89105131D01*
X168149500Y-90894856D01*
X168149502Y-90894882D01*
X168152413Y-90919987D01*
X168152415Y-90919991D01*
X168197793Y-91022764D01*
X168197794Y-91022765D01*
X168277235Y-91102206D01*
X168380009Y-91147585D01*
X168405135Y-91150500D01*
X170194864Y-91150499D01*
X170194879Y-91150497D01*
X170194882Y-91150497D01*
X170219987Y-91147586D01*
X170219988Y-91147585D01*
X170219991Y-91147585D01*
X170322765Y-91102206D01*
X170402206Y-91022765D01*
X170447585Y-90919991D01*
X170450500Y-90894865D01*
X170450499Y-89109688D01*
X170470184Y-89042650D01*
X170522987Y-88996895D01*
X170592146Y-88986951D01*
X170635287Y-89001612D01*
X173637661Y-90690448D01*
X173686441Y-90740471D01*
X173700432Y-90808926D01*
X173696345Y-90831711D01*
X173546282Y-91371939D01*
X173509373Y-91431264D01*
X173498880Y-91439654D01*
X173200641Y-91652683D01*
X173040859Y-91766814D01*
X173034434Y-91771403D01*
X172968440Y-91794351D01*
X172962360Y-91794500D01*
X172124000Y-91794500D01*
X172123991Y-91794500D01*
X172123990Y-91794501D01*
X172059064Y-91801481D01*
X172059052Y-91801483D01*
X172007546Y-91812688D01*
X171969345Y-91823644D01*
X171969341Y-91823646D01*
X171872431Y-91880323D01*
X171872428Y-91880325D01*
X171819623Y-91926081D01*
X171819612Y-91926091D01*
X171777451Y-91970807D01*
X171777445Y-91970816D01*
X171726560Y-92070890D01*
X171706877Y-92137921D01*
X171706876Y-92137928D01*
X171694500Y-92224000D01*
X171694500Y-92576000D01*
X171694501Y-92576009D01*
X171701481Y-92640935D01*
X171701483Y-92640947D01*
X171712688Y-92692453D01*
X171723644Y-92730654D01*
X171723646Y-92730658D01*
X171780323Y-92827568D01*
X171780325Y-92827571D01*
X171826081Y-92880376D01*
X171826091Y-92880387D01*
X171870807Y-92922548D01*
X171870809Y-92922549D01*
X171870813Y-92922553D01*
X171970889Y-92973439D01*
X172037928Y-92993124D01*
X172124000Y-93005500D01*
X172937951Y-93005500D01*
X173004990Y-93025185D01*
X173050745Y-93077989D01*
X173052512Y-93082048D01*
X173095685Y-93186279D01*
X173095692Y-93186292D01*
X173164141Y-93288732D01*
X173164144Y-93288736D01*
X173251263Y-93375855D01*
X173251267Y-93375858D01*
X173353707Y-93444307D01*
X173353716Y-93444312D01*
X173361618Y-93447585D01*
X173467548Y-93491463D01*
X173588389Y-93515499D01*
X173588393Y-93515500D01*
X173588394Y-93515500D01*
X173711607Y-93515500D01*
X173711608Y-93515499D01*
X173832452Y-93491463D01*
X173946286Y-93444311D01*
X173963845Y-93432577D01*
X174030519Y-93411700D01*
X174078788Y-93420549D01*
X174213666Y-93474500D01*
X174464368Y-93574781D01*
X174520054Y-93591118D01*
X174566106Y-93599987D01*
X174623880Y-93605500D01*
X174623881Y-93605500D01*
X176074099Y-93605500D01*
X176074107Y-93605500D01*
X176123622Y-93599987D01*
X176141298Y-93598019D01*
X176141298Y-93598018D01*
X176141306Y-93598018D01*
X176194520Y-93586019D01*
X176234812Y-93573966D01*
X176330856Y-93515825D01*
X176382961Y-93469275D01*
X176424457Y-93423907D01*
X176473821Y-93323071D01*
X176488602Y-93269755D01*
X176492484Y-93255756D01*
X176492484Y-93255753D01*
X176492488Y-93255741D01*
X176503558Y-93169493D01*
X176407721Y-86844294D01*
X176407569Y-86838241D01*
X176407398Y-86833353D01*
X176390076Y-86742095D01*
X176366762Y-86676230D01*
X176342175Y-86624141D01*
X176340521Y-86620636D01*
X176340520Y-86620635D01*
X176340518Y-86620630D01*
X176265933Y-86536714D01*
X176265928Y-86536709D01*
X176210712Y-86493909D01*
X176210704Y-86493904D01*
X176158582Y-86461326D01*
X176158577Y-86461324D01*
X176158576Y-86461323D01*
X176158575Y-86461323D01*
X176077820Y-86438712D01*
X176050459Y-86431051D01*
X175980860Y-86424896D01*
X175894041Y-86429641D01*
X175894039Y-86429641D01*
X175802705Y-86447908D01*
X175744526Y-86445603D01*
X175728016Y-86440916D01*
X175728012Y-86440915D01*
X175728007Y-86440914D01*
X175642239Y-86433018D01*
X175642237Y-86433018D01*
X175642219Y-86433017D01*
X175581613Y-86433479D01*
X175581578Y-86433481D01*
X175532894Y-86438712D01*
X175473519Y-86451148D01*
X174939330Y-86619840D01*
X174926308Y-86623188D01*
X174258178Y-86756813D01*
X174188580Y-86750658D01*
X174140236Y-86715503D01*
X174140166Y-86715574D01*
X174139720Y-86715128D01*
X174138001Y-86713878D01*
X174135856Y-86711264D01*
X174048736Y-86624144D01*
X174048732Y-86624141D01*
X173946292Y-86555692D01*
X173946283Y-86555687D01*
X173832454Y-86508538D01*
X173832455Y-86508538D01*
X173832452Y-86508537D01*
X173832448Y-86508536D01*
X173832444Y-86508535D01*
X173711610Y-86484500D01*
X173711606Y-86484500D01*
X173588394Y-86484500D01*
X173588389Y-86484500D01*
X173467555Y-86508535D01*
X173467545Y-86508538D01*
X173353716Y-86555687D01*
X173353707Y-86555692D01*
X173251267Y-86624141D01*
X173251263Y-86624144D01*
X173164144Y-86711263D01*
X173164142Y-86711266D01*
X173144352Y-86740883D01*
X173090738Y-86785687D01*
X173021413Y-86794393D01*
X173011755Y-86792431D01*
X168987193Y-85806825D01*
X168987189Y-85806824D01*
X168951118Y-85800256D01*
X168951121Y-85800256D01*
X168924235Y-85797014D01*
X168921624Y-85796699D01*
X168885037Y-85794500D01*
X168024000Y-85794500D01*
X168023991Y-85794500D01*
X168023990Y-85794501D01*
X167959064Y-85801481D01*
X167959052Y-85801483D01*
X167907546Y-85812688D01*
X167869345Y-85823644D01*
X167869341Y-85823646D01*
X167772431Y-85880323D01*
X167772428Y-85880325D01*
X167719623Y-85926081D01*
X167719612Y-85926091D01*
X167677451Y-85970807D01*
X167677445Y-85970816D01*
X167626560Y-86070890D01*
X167606877Y-86137921D01*
X167606876Y-86137928D01*
X167594500Y-86224000D01*
X162581814Y-86224000D01*
X157587819Y-81230005D01*
X157554334Y-81168682D01*
X157551500Y-81142324D01*
X157551500Y-75287107D01*
X157546135Y-75267087D01*
X157546134Y-75267084D01*
X157517392Y-75159814D01*
X157451500Y-75045686D01*
X157358314Y-74952500D01*
X154406314Y-72000500D01*
X154332621Y-71957953D01*
X154292187Y-71934608D01*
X154228539Y-71917554D01*
X154164892Y-71900500D01*
X154164891Y-71900500D01*
X146255669Y-71900500D01*
X146213929Y-71893264D01*
X146203377Y-71889492D01*
X146193186Y-71883608D01*
X146173044Y-71878211D01*
X146168158Y-71876901D01*
X146168153Y-71876900D01*
X146103450Y-71859563D01*
X146065893Y-71849500D01*
X145934108Y-71849500D01*
X145806812Y-71883608D01*
X145692686Y-71949500D01*
X145692683Y-71949502D01*
X143855837Y-73786347D01*
X143800252Y-73818440D01*
X143718218Y-73840422D01*
X143718209Y-73840426D01*
X143581290Y-73919475D01*
X143581282Y-73919481D01*
X143469481Y-74031282D01*
X143469475Y-74031290D01*
X143390426Y-74168209D01*
X143390423Y-74168216D01*
X143349500Y-74320943D01*
X143349500Y-74479057D01*
X143390423Y-74631782D01*
X143390423Y-74631783D01*
X143390426Y-74631790D01*
X143469475Y-74768709D01*
X143469479Y-74768714D01*
X143469480Y-74768716D01*
X143581284Y-74880520D01*
X143581286Y-74880521D01*
X143581290Y-74880524D01*
X143705958Y-74952500D01*
X143718216Y-74959577D01*
X143870943Y-75000500D01*
X143870945Y-75000500D01*
X144029055Y-75000500D01*
X144029057Y-75000500D01*
X144181784Y-74959577D01*
X144318716Y-74880520D01*
X144430520Y-74768716D01*
X144509577Y-74631784D01*
X144531558Y-74549748D01*
X144563649Y-74494163D01*
X146119995Y-72937819D01*
X146181318Y-72904334D01*
X146207676Y-72901500D01*
X149134650Y-72901500D01*
X149201689Y-72921185D01*
X149247444Y-72973989D01*
X149257388Y-73043147D01*
X149228363Y-73106703D01*
X149169585Y-73144477D01*
X149153505Y-73148058D01*
X148133051Y-73305051D01*
X147906221Y-73339948D01*
X147906209Y-73339950D01*
X147906190Y-73339954D01*
X147870308Y-73347708D01*
X147870305Y-73347709D01*
X147841624Y-73355739D01*
X147830997Y-73358925D01*
X147830995Y-73358926D01*
X147732157Y-73412173D01*
X147677786Y-73456046D01*
X147618576Y-73519727D01*
X145173532Y-77046231D01*
X145119157Y-77090108D01*
X145074446Y-77099546D01*
X143925134Y-77125666D01*
X143857665Y-77107510D01*
X143834636Y-77089379D01*
X140713167Y-73967910D01*
X140679682Y-73906587D01*
X140684666Y-73836895D01*
X140691625Y-73821524D01*
X140697824Y-73809989D01*
X140700500Y-73807314D01*
X140766392Y-73693186D01*
X140772145Y-73671711D01*
X140778968Y-73659018D01*
X140779780Y-73658195D01*
X140780802Y-73655726D01*
X140859577Y-73519284D01*
X140900500Y-73366557D01*
X140900500Y-73208443D01*
X140859577Y-73055716D01*
X140844610Y-73029792D01*
X140780524Y-72918790D01*
X140780518Y-72918782D01*
X140668717Y-72806981D01*
X140668709Y-72806975D01*
X140531790Y-72727926D01*
X140531786Y-72727924D01*
X140531784Y-72727923D01*
X140379057Y-72687000D01*
X140220943Y-72687000D01*
X140068216Y-72727923D01*
X140068209Y-72727926D01*
X139931290Y-72806975D01*
X139931286Y-72806978D01*
X139829441Y-72908823D01*
X139768118Y-72942307D01*
X139698426Y-72937323D01*
X139654079Y-72908822D01*
X137593759Y-70848502D01*
X137593758Y-70848501D01*
X137593757Y-70848500D01*
X137508887Y-70799500D01*
X137479630Y-70782608D01*
X137415982Y-70765554D01*
X137352336Y-70748500D01*
X137352335Y-70748500D01*
X130318916Y-70748500D01*
X130187131Y-70748500D01*
X130059836Y-70782608D01*
X129945710Y-70848500D01*
X129945707Y-70848502D01*
X128836256Y-71957953D01*
X128774933Y-71991438D01*
X128705241Y-71986454D01*
X128649308Y-71944582D01*
X128626102Y-71889670D01*
X128622165Y-71864814D01*
X128617246Y-71833757D01*
X128551557Y-71631588D01*
X128455051Y-71442184D01*
X128455049Y-71442181D01*
X128455048Y-71442179D01*
X128330109Y-71270213D01*
X128179786Y-71119890D01*
X128007820Y-70994951D01*
X127818414Y-70898444D01*
X127818413Y-70898443D01*
X127818412Y-70898443D01*
X127616243Y-70832754D01*
X127616241Y-70832753D01*
X127616240Y-70832753D01*
X127454957Y-70807208D01*
X127406287Y-70799500D01*
X127193713Y-70799500D01*
X127145042Y-70807208D01*
X126983760Y-70832753D01*
X126781585Y-70898444D01*
X126592179Y-70994951D01*
X126420213Y-71119890D01*
X126269890Y-71270213D01*
X126144951Y-71442179D01*
X126048444Y-71631585D01*
X125982753Y-71833760D01*
X125949500Y-72043713D01*
X125949500Y-72256286D01*
X125982753Y-72466239D01*
X126048444Y-72668414D01*
X126144951Y-72857820D01*
X126269890Y-73029786D01*
X126420213Y-73180109D01*
X126592179Y-73305048D01*
X126592181Y-73305049D01*
X126592184Y-73305051D01*
X126781588Y-73401557D01*
X126983757Y-73467246D01*
X127023830Y-73473593D01*
X127039670Y-73476102D01*
X127102805Y-73506031D01*
X127139736Y-73565343D01*
X127138738Y-73635205D01*
X127107953Y-73686256D01*
X125182029Y-75612181D01*
X125120706Y-75645666D01*
X125094348Y-75648500D01*
X117715107Y-75648500D01*
X117587812Y-75682608D01*
X117473686Y-75748500D01*
X117473683Y-75748502D01*
X114729003Y-78493181D01*
X114667680Y-78526666D01*
X114641322Y-78529500D01*
X113355143Y-78529500D01*
X113355117Y-78529502D01*
X113330013Y-78532413D01*
X113321586Y-78536134D01*
X113274584Y-78556887D01*
X113205307Y-78565958D01*
X113142123Y-78536134D01*
X113105092Y-78476884D01*
X113100500Y-78443452D01*
X113100500Y-75356831D01*
X113120185Y-75289792D01*
X113172989Y-75244037D01*
X113242147Y-75234093D01*
X113305703Y-75263118D01*
X113324818Y-75283946D01*
X113372441Y-75349495D01*
X113500500Y-75477554D01*
X113500505Y-75477558D01*
X113564421Y-75523995D01*
X113647006Y-75583996D01*
X113752484Y-75637740D01*
X113808360Y-75666211D01*
X113808363Y-75666212D01*
X113894476Y-75694191D01*
X113980591Y-75722171D01*
X114063429Y-75735291D01*
X114159449Y-75750500D01*
X114159454Y-75750500D01*
X114340551Y-75750500D01*
X114427259Y-75736765D01*
X114519409Y-75722171D01*
X114691639Y-75666211D01*
X114852994Y-75583996D01*
X114999501Y-75477553D01*
X115127553Y-75349501D01*
X115233996Y-75202994D01*
X115316211Y-75041639D01*
X115372171Y-74869409D01*
X115394115Y-74730861D01*
X115400500Y-74690551D01*
X115400500Y-74509448D01*
X115384019Y-74405397D01*
X115372171Y-74330591D01*
X115326034Y-74188593D01*
X115316212Y-74158363D01*
X115316211Y-74158360D01*
X115287740Y-74102484D01*
X115233996Y-73997006D01*
X115206179Y-73958719D01*
X115127558Y-73850505D01*
X115127554Y-73850500D01*
X114999499Y-73722445D01*
X114999494Y-73722441D01*
X114852997Y-73616006D01*
X114852996Y-73616005D01*
X114852994Y-73616004D01*
X114801300Y-73589664D01*
X114691639Y-73533788D01*
X114691636Y-73533787D01*
X114519410Y-73477829D01*
X114359321Y-73452473D01*
X114296186Y-73422544D01*
X114259255Y-73363232D01*
X114260253Y-73293370D01*
X114298863Y-73235137D01*
X114359321Y-73207527D01*
X114429425Y-73196422D01*
X114519409Y-73182171D01*
X114691639Y-73126211D01*
X114852994Y-73043996D01*
X114999501Y-72937553D01*
X115127553Y-72809501D01*
X115233996Y-72662994D01*
X115316211Y-72501639D01*
X115372171Y-72329409D01*
X115386765Y-72237259D01*
X115400500Y-72150551D01*
X115400500Y-71969448D01*
X115379008Y-71833757D01*
X115372171Y-71790591D01*
X115316211Y-71618361D01*
X115316211Y-71618360D01*
X115287740Y-71562484D01*
X115233996Y-71457006D01*
X115206179Y-71418719D01*
X115127558Y-71310505D01*
X115127554Y-71310500D01*
X114999499Y-71182445D01*
X114999494Y-71182441D01*
X114852997Y-71076006D01*
X114852996Y-71076005D01*
X114852994Y-71076004D01*
X114801300Y-71049664D01*
X114691639Y-70993788D01*
X114691636Y-70993787D01*
X114519410Y-70937829D01*
X114340551Y-70909500D01*
X114340546Y-70909500D01*
X114159454Y-70909500D01*
X114159449Y-70909500D01*
X113980589Y-70937829D01*
X113808363Y-70993787D01*
X113808360Y-70993788D01*
X113647002Y-71076006D01*
X113500505Y-71182441D01*
X113500500Y-71182445D01*
X113372445Y-71310500D01*
X113324818Y-71376054D01*
X113269488Y-71418719D01*
X113199875Y-71424698D01*
X113138080Y-71392092D01*
X113103722Y-71331253D01*
X113100500Y-71303168D01*
X113100500Y-70224500D01*
X113120185Y-70157461D01*
X113172989Y-70111706D01*
X113224500Y-70100500D01*
X178775500Y-70100500D01*
X178842539Y-70120185D01*
G37*
%TD.AperFunction*%
%TA.AperFunction,Conductor*%
G36*
X142392539Y-97969185D02*
G01*
X142438294Y-98021989D01*
X142449500Y-98073500D01*
X142449500Y-99594856D01*
X142449502Y-99594882D01*
X142452413Y-99619987D01*
X142452415Y-99619991D01*
X142497793Y-99722764D01*
X142497794Y-99722765D01*
X142577235Y-99802206D01*
X142680009Y-99847585D01*
X142705135Y-99850500D01*
X144393745Y-99850499D01*
X144460784Y-99870184D01*
X144506539Y-99922987D01*
X144516483Y-99992146D01*
X144487458Y-100055702D01*
X144481426Y-100062180D01*
X140320424Y-104223181D01*
X140259101Y-104256666D01*
X140232743Y-104259500D01*
X138805143Y-104259500D01*
X138805117Y-104259502D01*
X138780012Y-104262413D01*
X138780008Y-104262415D01*
X138677235Y-104307793D01*
X138597794Y-104387234D01*
X138552415Y-104490006D01*
X138552415Y-104490008D01*
X138549500Y-104515131D01*
X138549500Y-106304856D01*
X138549502Y-106304882D01*
X138552413Y-106329987D01*
X138552415Y-106329991D01*
X138597793Y-106432764D01*
X138597794Y-106432765D01*
X138677235Y-106512206D01*
X138780009Y-106557585D01*
X138805135Y-106560500D01*
X140082323Y-106560499D01*
X140149362Y-106580184D01*
X140195117Y-106632987D01*
X140205061Y-106702146D01*
X140176036Y-106765702D01*
X140170004Y-106772180D01*
X138979005Y-107963181D01*
X138917682Y-107996666D01*
X138891324Y-107999500D01*
X137413600Y-107999500D01*
X137346561Y-107979815D01*
X137300806Y-107927011D01*
X137299039Y-107922952D01*
X137297076Y-107918213D01*
X137218024Y-107781290D01*
X137218018Y-107781282D01*
X137106217Y-107669481D01*
X137106209Y-107669475D01*
X136969290Y-107590426D01*
X136969286Y-107590424D01*
X136969284Y-107590423D01*
X136816557Y-107549500D01*
X136658443Y-107549500D01*
X136559109Y-107576116D01*
X136489259Y-107574453D01*
X136439335Y-107544022D01*
X134787824Y-105892510D01*
X134787823Y-105892509D01*
X134787822Y-105892508D01*
X134717030Y-105851636D01*
X134673695Y-105826616D01*
X134610047Y-105809562D01*
X134546400Y-105792508D01*
X134546399Y-105792508D01*
X130505137Y-105792508D01*
X130483893Y-105786270D01*
X130461806Y-105784691D01*
X130451020Y-105776617D01*
X130438098Y-105772823D01*
X130423600Y-105756091D01*
X130405872Y-105742821D01*
X130401163Y-105730198D01*
X130392343Y-105720019D01*
X130389191Y-105698103D01*
X130381453Y-105677357D01*
X130384316Y-105664193D01*
X130382399Y-105650861D01*
X130391596Y-105630720D01*
X130396303Y-105609084D01*
X130409574Y-105591355D01*
X130411424Y-105587305D01*
X130417454Y-105580829D01*
X130439396Y-105558886D01*
X130494983Y-105526793D01*
X130577019Y-105504812D01*
X130713951Y-105425755D01*
X130825755Y-105313951D01*
X130904812Y-105177019D01*
X130945735Y-105024292D01*
X130945735Y-104866178D01*
X130904812Y-104713451D01*
X130862347Y-104639898D01*
X130845735Y-104577899D01*
X130845735Y-103625940D01*
X130865420Y-103558901D01*
X130882049Y-103538264D01*
X133506663Y-100913649D01*
X133562248Y-100881558D01*
X133644284Y-100859577D01*
X133781216Y-100780520D01*
X133893020Y-100668716D01*
X133972077Y-100531784D01*
X134013000Y-100379057D01*
X134013000Y-100220943D01*
X133972077Y-100068216D01*
X133929612Y-99994663D01*
X133913000Y-99932664D01*
X133913000Y-98073500D01*
X133932685Y-98006461D01*
X133985489Y-97960706D01*
X134037000Y-97949500D01*
X138234108Y-97949500D01*
X138365893Y-97949500D01*
X142325500Y-97949500D01*
X142392539Y-97969185D01*
G37*
%TD.AperFunction*%
%TA.AperFunction,Conductor*%
G36*
X162300784Y-93371185D02*
G01*
X162321426Y-93387819D01*
X168113181Y-99179573D01*
X168146666Y-99240896D01*
X168149500Y-99267254D01*
X168149500Y-100694856D01*
X168149502Y-100694882D01*
X168152413Y-100719987D01*
X168152415Y-100719991D01*
X168197793Y-100822764D01*
X168197794Y-100822765D01*
X168277235Y-100902206D01*
X168380009Y-100947585D01*
X168405135Y-100950500D01*
X169644324Y-100950499D01*
X169711363Y-100970184D01*
X169757118Y-101022987D01*
X169767062Y-101092146D01*
X169738037Y-101155702D01*
X169732005Y-101162180D01*
X169380005Y-101514181D01*
X169318682Y-101547666D01*
X169292324Y-101550500D01*
X165874500Y-101550500D01*
X165807461Y-101530815D01*
X165761706Y-101478011D01*
X165750500Y-101426500D01*
X165750499Y-99905143D01*
X165750499Y-99905137D01*
X165750499Y-99905136D01*
X165750290Y-99903334D01*
X165747586Y-99880012D01*
X165747585Y-99880010D01*
X165747585Y-99880009D01*
X165702206Y-99777235D01*
X165622765Y-99697794D01*
X165600806Y-99688098D01*
X165519992Y-99652415D01*
X165494868Y-99649500D01*
X165494865Y-99649500D01*
X165124500Y-99649500D01*
X165057461Y-99629815D01*
X165011706Y-99577011D01*
X165000500Y-99525500D01*
X165000500Y-97247276D01*
X165000500Y-97247273D01*
X164979606Y-97169293D01*
X164979606Y-97169292D01*
X164979606Y-97169291D01*
X164973207Y-97145413D01*
X164973207Y-97145412D01*
X164968487Y-97137237D01*
X164920480Y-97054087D01*
X161429574Y-93563181D01*
X161396089Y-93501858D01*
X161401073Y-93432166D01*
X161442945Y-93376233D01*
X161508409Y-93351816D01*
X161517255Y-93351500D01*
X162233745Y-93351500D01*
X162300784Y-93371185D01*
G37*
%TD.AperFunction*%
%TA.AperFunction,Conductor*%
G36*
X152128342Y-90995974D02*
G01*
X152139371Y-91005764D01*
X152679519Y-91545912D01*
X152679520Y-91545913D01*
X152754087Y-91620480D01*
X152845413Y-91673207D01*
X152947273Y-91700500D01*
X155325501Y-91700500D01*
X155392540Y-91720185D01*
X155438295Y-91772989D01*
X155449501Y-91824500D01*
X155449501Y-92075443D01*
X155429816Y-92142482D01*
X155377012Y-92188237D01*
X155325501Y-92199443D01*
X153938809Y-92199443D01*
X153836949Y-92226736D01*
X153836946Y-92226737D01*
X153771540Y-92264500D01*
X153763839Y-92268945D01*
X153745623Y-92279462D01*
X153378522Y-92646563D01*
X153378520Y-92646566D01*
X153325793Y-92737891D01*
X153314907Y-92778520D01*
X153309285Y-92799501D01*
X153298500Y-92839749D01*
X153298500Y-92839752D01*
X153298500Y-94096273D01*
X153298500Y-94201727D01*
X153309474Y-94242683D01*
X153325793Y-94303589D01*
X153346628Y-94339675D01*
X153378520Y-94394913D01*
X155129023Y-96145416D01*
X156863181Y-97879573D01*
X156877884Y-97906500D01*
X156894477Y-97932319D01*
X156895368Y-97938519D01*
X156896666Y-97940896D01*
X156899500Y-97967254D01*
X156899500Y-97984823D01*
X156879815Y-98051862D01*
X156863181Y-98072504D01*
X156322505Y-98613181D01*
X156261182Y-98646666D01*
X156234824Y-98649500D01*
X150012013Y-98649500D01*
X149944974Y-98629815D01*
X149899219Y-98577011D01*
X149889275Y-98507853D01*
X149918300Y-98444297D01*
X149940118Y-98426281D01*
X149939464Y-98425428D01*
X149945905Y-98420484D01*
X149945913Y-98420480D01*
X151085703Y-97280687D01*
X151085708Y-97280684D01*
X151095911Y-97270480D01*
X151095913Y-97270480D01*
X151170480Y-97195913D01*
X151223207Y-97104587D01*
X151226565Y-97092053D01*
X151235741Y-97057813D01*
X151242360Y-97033108D01*
X151250501Y-97002727D01*
X151250501Y-96897273D01*
X151250501Y-96889678D01*
X151250500Y-96889660D01*
X151250500Y-92140539D01*
X151267112Y-92078540D01*
X151316392Y-91993186D01*
X151350500Y-91865892D01*
X151350500Y-91734108D01*
X151316392Y-91606814D01*
X151250500Y-91492686D01*
X151247994Y-91490180D01*
X151246557Y-91487548D01*
X151245553Y-91486240D01*
X151245757Y-91486083D01*
X151214509Y-91428857D01*
X151219493Y-91359165D01*
X151261365Y-91303232D01*
X151326829Y-91278815D01*
X151367765Y-91282723D01*
X151434108Y-91300500D01*
X151434110Y-91300500D01*
X151565890Y-91300500D01*
X151565892Y-91300500D01*
X151693186Y-91266392D01*
X151807314Y-91200500D01*
X151900500Y-91107314D01*
X151944303Y-91031444D01*
X151994870Y-90983229D01*
X152063477Y-90970006D01*
X152128342Y-90995974D01*
G37*
%TD.AperFunction*%
%TA.AperFunction,Conductor*%
G36*
X156493539Y-80970184D02*
G01*
X156539294Y-81022988D01*
X156550500Y-81074499D01*
X156550500Y-81466891D01*
X156584608Y-81594187D01*
X156617554Y-81651250D01*
X156650500Y-81708314D01*
X156650502Y-81708316D01*
X168162181Y-93219995D01*
X168195666Y-93281318D01*
X168198500Y-93307676D01*
X168198500Y-93414835D01*
X168206397Y-93444307D01*
X168232608Y-93542130D01*
X168260891Y-93591117D01*
X168298500Y-93656257D01*
X168298502Y-93656259D01*
X168564181Y-93921938D01*
X168597666Y-93983261D01*
X168600500Y-94009619D01*
X168600500Y-97164891D01*
X168634608Y-97292187D01*
X168656333Y-97329815D01*
X168700500Y-97406314D01*
X168700502Y-97406316D01*
X169732005Y-98437819D01*
X169765490Y-98499142D01*
X169760506Y-98568834D01*
X169718634Y-98624767D01*
X169653170Y-98649184D01*
X169644324Y-98649500D01*
X168767254Y-98649500D01*
X168700215Y-98629815D01*
X168679573Y-98613181D01*
X162980055Y-92913662D01*
X162900501Y-92834108D01*
X165599500Y-92834108D01*
X165599500Y-92965891D01*
X165633608Y-93093187D01*
X165661577Y-93141629D01*
X165699500Y-93207314D01*
X165792686Y-93300500D01*
X165906814Y-93366392D01*
X166002014Y-93391900D01*
X166057600Y-93423993D01*
X166476005Y-93842398D01*
X166508099Y-93897985D01*
X166533608Y-93993186D01*
X166599500Y-94107314D01*
X166692686Y-94200500D01*
X166806814Y-94266392D01*
X166934108Y-94300500D01*
X166934110Y-94300500D01*
X167065890Y-94300500D01*
X167065892Y-94300500D01*
X167193186Y-94266392D01*
X167307314Y-94200500D01*
X167400500Y-94107314D01*
X167466392Y-93993186D01*
X167500500Y-93865892D01*
X167500500Y-93734108D01*
X167466392Y-93606814D01*
X167465633Y-93605500D01*
X167457329Y-93591117D01*
X167400500Y-93492686D01*
X167307314Y-93399500D01*
X167193186Y-93333608D01*
X167097985Y-93308099D01*
X167042398Y-93276005D01*
X166623993Y-92857600D01*
X166591900Y-92802014D01*
X166566392Y-92706814D01*
X166500500Y-92592686D01*
X166407314Y-92499500D01*
X166339764Y-92460500D01*
X166293187Y-92433608D01*
X166229539Y-92416554D01*
X166165892Y-92399500D01*
X166034108Y-92399500D01*
X165906812Y-92433608D01*
X165792686Y-92499500D01*
X165792683Y-92499502D01*
X165699502Y-92592683D01*
X165699500Y-92592686D01*
X165633608Y-92706812D01*
X165599500Y-92834108D01*
X162900501Y-92834108D01*
X162713659Y-92647266D01*
X162713658Y-92647265D01*
X162696913Y-92630520D01*
X162605588Y-92577793D01*
X162573244Y-92569126D01*
X162573243Y-92569126D01*
X162533144Y-92558382D01*
X162503727Y-92550500D01*
X162503726Y-92550500D01*
X162224500Y-92550500D01*
X162157461Y-92530815D01*
X162111706Y-92478011D01*
X162103678Y-92454392D01*
X162100500Y-92440625D01*
X162100500Y-92384108D01*
X162066392Y-92256814D01*
X162052520Y-92232787D01*
X162048351Y-92214727D01*
X162049357Y-92197605D01*
X162045313Y-92180934D01*
X162051365Y-92163447D01*
X162052451Y-92144978D01*
X162062555Y-92131116D01*
X162068166Y-92114908D01*
X162086564Y-92098182D01*
X162093610Y-92088518D01*
X162099859Y-92086096D01*
X162107169Y-92079450D01*
X162157314Y-92050500D01*
X162250500Y-91957314D01*
X162250500Y-91957313D01*
X162256247Y-91951567D01*
X162258275Y-91953595D01*
X162303474Y-91920560D01*
X162373218Y-91916373D01*
X162433156Y-91949549D01*
X162486005Y-92002398D01*
X162518099Y-92057985D01*
X162543608Y-92153186D01*
X162609500Y-92267314D01*
X162702686Y-92360500D01*
X162816814Y-92426392D01*
X162944108Y-92460500D01*
X162944110Y-92460500D01*
X163075890Y-92460500D01*
X163075892Y-92460500D01*
X163203186Y-92426392D01*
X163317314Y-92360500D01*
X163410500Y-92267314D01*
X163476392Y-92153186D01*
X163510500Y-92025892D01*
X163510500Y-91894108D01*
X163476392Y-91766814D01*
X163410500Y-91652686D01*
X163317314Y-91559500D01*
X163203186Y-91493608D01*
X163107985Y-91468099D01*
X163052398Y-91436005D01*
X161893693Y-90277300D01*
X161860208Y-90215977D01*
X161864841Y-90151185D01*
X161864288Y-90151037D01*
X161865057Y-90148164D01*
X161865192Y-90146285D01*
X161866348Y-90143346D01*
X161866389Y-90143189D01*
X161866392Y-90143186D01*
X161900500Y-90015892D01*
X161900500Y-89884108D01*
X161866392Y-89756814D01*
X161800500Y-89642686D01*
X161707314Y-89549500D01*
X161650250Y-89516554D01*
X161593187Y-89483608D01*
X161529539Y-89466554D01*
X161465892Y-89449500D01*
X161334108Y-89449500D01*
X161206812Y-89483608D01*
X161092686Y-89549500D01*
X161092683Y-89549502D01*
X160999502Y-89642683D01*
X160999500Y-89642686D01*
X160933607Y-89756814D01*
X160933607Y-89756815D01*
X160923599Y-89794165D01*
X160887234Y-89853825D01*
X160824386Y-89884353D01*
X160755011Y-89876058D01*
X160716144Y-89849751D01*
X159816594Y-88950200D01*
X159816571Y-88950179D01*
X159236819Y-88370426D01*
X159203334Y-88309103D01*
X159200500Y-88282745D01*
X159200500Y-85890539D01*
X159217112Y-85828540D01*
X159266392Y-85743186D01*
X159300500Y-85615892D01*
X159300500Y-85484108D01*
X159266392Y-85356814D01*
X159200500Y-85242686D01*
X159107314Y-85149500D01*
X159050250Y-85116554D01*
X158993187Y-85083608D01*
X158927065Y-85065891D01*
X158865892Y-85049500D01*
X158734108Y-85049500D01*
X158606812Y-85083608D01*
X158492686Y-85149500D01*
X158492683Y-85149502D01*
X158399502Y-85242683D01*
X158399500Y-85242686D01*
X158333608Y-85356812D01*
X158317006Y-85418773D01*
X158299500Y-85484108D01*
X158299500Y-85615892D01*
X158333608Y-85743186D01*
X158382887Y-85828540D01*
X158399500Y-85890539D01*
X158399500Y-88447273D01*
X158399500Y-88552727D01*
X158426793Y-88654588D01*
X158427937Y-88658857D01*
X158426274Y-88728707D01*
X158387111Y-88786569D01*
X158322882Y-88814073D01*
X158276794Y-88807886D01*
X158276037Y-88810712D01*
X158268187Y-88808608D01*
X158268186Y-88808608D01*
X158140892Y-88774500D01*
X158009108Y-88774500D01*
X157881812Y-88808608D01*
X157767686Y-88874500D01*
X157767683Y-88874502D01*
X157737710Y-88904476D01*
X157676387Y-88937961D01*
X157606695Y-88932977D01*
X157562348Y-88904476D01*
X155236819Y-86578947D01*
X155222115Y-86552019D01*
X155205523Y-86526201D01*
X155204631Y-86520000D01*
X155203334Y-86517624D01*
X155200500Y-86491266D01*
X155200500Y-86250539D01*
X155217112Y-86188540D01*
X155266392Y-86103186D01*
X155300500Y-85975892D01*
X155300500Y-85844108D01*
X155266392Y-85716814D01*
X155200500Y-85602686D01*
X155107314Y-85509500D01*
X155050250Y-85476554D01*
X154993187Y-85443608D01*
X154929539Y-85426554D01*
X154865892Y-85409500D01*
X154823500Y-85409500D01*
X154756461Y-85389815D01*
X154710706Y-85337011D01*
X154699500Y-85285500D01*
X154699500Y-81518253D01*
X154719185Y-81451214D01*
X154735815Y-81430576D01*
X155179573Y-80986817D01*
X155240896Y-80953333D01*
X155267254Y-80950499D01*
X156426500Y-80950499D01*
X156493539Y-80970184D01*
G37*
%TD.AperFunction*%
%TA.AperFunction,Conductor*%
G36*
X158749784Y-96070185D02*
G01*
X158770426Y-96086819D01*
X159820844Y-97137237D01*
X159854329Y-97198560D01*
X159849345Y-97268252D01*
X159807473Y-97324185D01*
X159742009Y-97348602D01*
X159701070Y-97344693D01*
X159624532Y-97324185D01*
X159579057Y-97312000D01*
X159420943Y-97312000D01*
X159268216Y-97352923D01*
X159268213Y-97352924D01*
X159220416Y-97380520D01*
X159203259Y-97390426D01*
X159194666Y-97395387D01*
X159132666Y-97412000D01*
X158471607Y-97412000D01*
X158397040Y-97431979D01*
X158397041Y-97431980D01*
X158344312Y-97446108D01*
X158344311Y-97446109D01*
X158230189Y-97511998D01*
X158230183Y-97512002D01*
X158158392Y-97583794D01*
X158097069Y-97617279D01*
X158027377Y-97612295D01*
X157983030Y-97583794D01*
X157868717Y-97469481D01*
X157868709Y-97469475D01*
X157731790Y-97390426D01*
X157731786Y-97390424D01*
X157731784Y-97390423D01*
X157579057Y-97349500D01*
X157579056Y-97349500D01*
X157517254Y-97349500D01*
X157450215Y-97329815D01*
X157429573Y-97313181D01*
X156378574Y-96262181D01*
X156345089Y-96200858D01*
X156350073Y-96131166D01*
X156391945Y-96075233D01*
X156457409Y-96050816D01*
X156466255Y-96050500D01*
X158682745Y-96050500D01*
X158749784Y-96070185D01*
G37*
%TD.AperFunction*%
%TA.AperFunction,Conductor*%
G36*
X118343331Y-84075572D02*
G01*
X118387681Y-84104074D01*
X119326179Y-85042571D01*
X119326189Y-85042582D01*
X119330519Y-85046912D01*
X119330520Y-85046913D01*
X119405087Y-85121480D01*
X119496413Y-85174207D01*
X119598274Y-85201501D01*
X119598277Y-85201501D01*
X119711323Y-85201501D01*
X119711339Y-85201500D01*
X123436724Y-85201500D01*
X123503763Y-85221185D01*
X123549518Y-85273989D01*
X123559462Y-85343147D01*
X123530437Y-85406703D01*
X123524405Y-85413181D01*
X123291022Y-85646563D01*
X123291020Y-85646566D01*
X123238293Y-85737889D01*
X123211000Y-85839752D01*
X123211000Y-86360247D01*
X123238293Y-86462110D01*
X123255127Y-86491266D01*
X123291020Y-86553434D01*
X130082497Y-93344910D01*
X130082499Y-93344913D01*
X130157066Y-93419480D01*
X130218232Y-93454794D01*
X130226622Y-93459638D01*
X130248390Y-93472206D01*
X130248391Y-93472206D01*
X130248392Y-93472207D01*
X130350252Y-93499501D01*
X130350254Y-93499501D01*
X130463302Y-93499501D01*
X130463318Y-93499500D01*
X137563000Y-93499500D01*
X137630039Y-93519185D01*
X137675794Y-93571989D01*
X137687000Y-93623500D01*
X137687000Y-93779057D01*
X137711497Y-93870479D01*
X137727923Y-93931783D01*
X137727924Y-93931786D01*
X137770387Y-94005334D01*
X137787000Y-94067334D01*
X137787000Y-96824500D01*
X137767315Y-96891539D01*
X137714511Y-96937294D01*
X137663000Y-96948500D01*
X126957676Y-96948500D01*
X126890637Y-96928815D01*
X126869995Y-96912181D01*
X115119994Y-85162180D01*
X115086509Y-85100857D01*
X115091493Y-85031165D01*
X115133365Y-84975232D01*
X115198829Y-84950815D01*
X115207675Y-84950499D01*
X116444856Y-84950499D01*
X116444864Y-84950499D01*
X116444879Y-84950497D01*
X116444882Y-84950497D01*
X116469987Y-84947586D01*
X116469988Y-84947585D01*
X116469991Y-84947585D01*
X116572765Y-84902206D01*
X116652206Y-84822765D01*
X116697585Y-84719991D01*
X116700500Y-84694865D01*
X116700500Y-84324500D01*
X116720185Y-84257461D01*
X116772989Y-84211706D01*
X116824500Y-84200500D01*
X118002725Y-84200500D01*
X118002727Y-84200500D01*
X118104588Y-84173207D01*
X118195913Y-84120480D01*
X118212317Y-84104076D01*
X118273639Y-84070589D01*
X118343331Y-84075572D01*
G37*
%TD.AperFunction*%
%TA.AperFunction,Conductor*%
G36*
X144855702Y-93289641D02*
G01*
X144862180Y-93295673D01*
X145064663Y-93498156D01*
X145096757Y-93553743D01*
X145098500Y-93560247D01*
X145098500Y-93560248D01*
X145125793Y-93662109D01*
X145178520Y-93753434D01*
X145545997Y-94120911D01*
X145545999Y-94120913D01*
X145620566Y-94195480D01*
X145662516Y-94219700D01*
X145679524Y-94229520D01*
X145711891Y-94248207D01*
X145813752Y-94275500D01*
X145919206Y-94275500D01*
X146819317Y-94275500D01*
X146886356Y-94295185D01*
X146932111Y-94347989D01*
X146942055Y-94417147D01*
X146913030Y-94480703D01*
X146894802Y-94497877D01*
X146892683Y-94499502D01*
X146799502Y-94592683D01*
X146799500Y-94592686D01*
X146733608Y-94706812D01*
X146699500Y-94834108D01*
X146699500Y-96641324D01*
X146679815Y-96708363D01*
X146663181Y-96729005D01*
X146480005Y-96912181D01*
X146418682Y-96945666D01*
X146392324Y-96948500D01*
X144940540Y-96948500D01*
X144873501Y-96928815D01*
X144827746Y-96876011D01*
X144817802Y-96806853D01*
X144846827Y-96743297D01*
X144878537Y-96717113D01*
X144907314Y-96700500D01*
X145000500Y-96607314D01*
X145066392Y-96493186D01*
X145100500Y-96365892D01*
X145100500Y-96234108D01*
X145066392Y-96106814D01*
X145000500Y-95992686D01*
X144907314Y-95899500D01*
X144793186Y-95833608D01*
X144697985Y-95808099D01*
X144642398Y-95776005D01*
X144045915Y-95179522D01*
X144045913Y-95179520D01*
X143986981Y-95145495D01*
X143954589Y-95126793D01*
X143883901Y-95107853D01*
X143852727Y-95099500D01*
X143852726Y-95099500D01*
X142717254Y-95099500D01*
X142687814Y-95090855D01*
X142657827Y-95084332D01*
X142652811Y-95080577D01*
X142650215Y-95079815D01*
X142629577Y-95063185D01*
X142528571Y-94962179D01*
X142495088Y-94900856D01*
X142500072Y-94831165D01*
X142541944Y-94775232D01*
X142607409Y-94750815D01*
X142616226Y-94750499D01*
X144394864Y-94750499D01*
X144394879Y-94750497D01*
X144394882Y-94750497D01*
X144419987Y-94747586D01*
X144419988Y-94747585D01*
X144419991Y-94747585D01*
X144522765Y-94702206D01*
X144602206Y-94622765D01*
X144647585Y-94519991D01*
X144650500Y-94494865D01*
X144650499Y-93383353D01*
X144670184Y-93316315D01*
X144722987Y-93270560D01*
X144792146Y-93260616D01*
X144855702Y-93289641D01*
G37*
%TD.AperFunction*%
%TA.AperFunction,Conductor*%
G36*
X138149784Y-87120185D02*
G01*
X138170426Y-87136819D01*
X142854087Y-91820480D01*
X142945412Y-91873207D01*
X143047273Y-91900500D01*
X143415645Y-91900500D01*
X143482684Y-91920185D01*
X143503326Y-91936819D01*
X143804326Y-92237819D01*
X143837811Y-92299142D01*
X143832827Y-92368834D01*
X143790955Y-92424767D01*
X143725491Y-92449184D01*
X143716645Y-92449500D01*
X142605143Y-92449500D01*
X142605117Y-92449502D01*
X142580012Y-92452413D01*
X142580008Y-92452415D01*
X142477235Y-92497793D01*
X142397794Y-92577234D01*
X142352415Y-92680006D01*
X142352415Y-92680008D01*
X142349500Y-92705131D01*
X142349500Y-94483746D01*
X142329815Y-94550785D01*
X142277011Y-94596540D01*
X142207853Y-94606484D01*
X142144297Y-94577459D01*
X142137819Y-94571427D01*
X141498178Y-93931786D01*
X140344913Y-92778520D01*
X140299250Y-92752156D01*
X140253589Y-92725793D01*
X140182748Y-92706812D01*
X140151727Y-92698500D01*
X140151726Y-92698500D01*
X130620233Y-92698500D01*
X130553194Y-92678815D01*
X130532552Y-92662181D01*
X125182553Y-87312181D01*
X125149068Y-87250858D01*
X125154052Y-87181166D01*
X125195924Y-87125233D01*
X125261388Y-87100816D01*
X125270234Y-87100500D01*
X138082745Y-87100500D01*
X138149784Y-87120185D01*
G37*
%TD.AperFunction*%
%TA.AperFunction,Conductor*%
G36*
X140837284Y-79707685D02*
G01*
X140857926Y-79724319D01*
X151294235Y-90160628D01*
X151306215Y-90182568D01*
X151321671Y-90202221D01*
X151322672Y-90212707D01*
X151327720Y-90221951D01*
X151325936Y-90246884D01*
X151328314Y-90271774D01*
X151323487Y-90281136D01*
X151322736Y-90291643D01*
X151307754Y-90311655D01*
X151296299Y-90333877D01*
X151283704Y-90343781D01*
X151280864Y-90347576D01*
X151268556Y-90355695D01*
X151221462Y-90382886D01*
X151159460Y-90399500D01*
X147421233Y-90399500D01*
X147354194Y-90379815D01*
X147333552Y-90363181D01*
X136870053Y-79899681D01*
X136836568Y-79838358D01*
X136841552Y-79768666D01*
X136883424Y-79712733D01*
X136948888Y-79688316D01*
X136957734Y-79688000D01*
X140770245Y-79688000D01*
X140837284Y-79707685D01*
G37*
%TD.AperFunction*%
%TA.AperFunction,Conductor*%
G36*
X153907363Y-72921185D02*
G01*
X153928005Y-72937819D01*
X156514181Y-75523995D01*
X156547666Y-75585318D01*
X156550500Y-75611676D01*
X156550500Y-78525500D01*
X156530815Y-78592539D01*
X156478011Y-78638294D01*
X156426500Y-78649500D01*
X154905143Y-78649500D01*
X154905117Y-78649502D01*
X154880012Y-78652413D01*
X154880008Y-78652415D01*
X154777235Y-78697793D01*
X154697794Y-78777234D01*
X154652415Y-78880006D01*
X154652415Y-78880008D01*
X154649500Y-78905131D01*
X154649500Y-80332744D01*
X154629815Y-80399783D01*
X154613181Y-80420425D01*
X153978522Y-81055084D01*
X153978520Y-81055087D01*
X153925791Y-81146414D01*
X153915867Y-81183456D01*
X153915867Y-81183458D01*
X153898500Y-81248273D01*
X153898500Y-89132745D01*
X153878815Y-89199784D01*
X153826011Y-89245539D01*
X153756853Y-89255483D01*
X153693297Y-89226458D01*
X153686819Y-89220426D01*
X149254073Y-84787680D01*
X149220588Y-84726357D01*
X149225572Y-84656665D01*
X149254069Y-84612323D01*
X152467074Y-81399317D01*
X152528397Y-81365833D01*
X152554755Y-81362999D01*
X153294857Y-81362999D01*
X153294865Y-81362999D01*
X153294880Y-81362997D01*
X153294883Y-81362997D01*
X153319988Y-81360086D01*
X153319989Y-81360085D01*
X153319992Y-81360085D01*
X153422766Y-81314706D01*
X153502207Y-81235265D01*
X153547586Y-81132491D01*
X153550501Y-81107365D01*
X153550500Y-79317636D01*
X153550498Y-79317617D01*
X153547587Y-79292512D01*
X153547586Y-79292510D01*
X153547586Y-79292509D01*
X153502207Y-79189735D01*
X153422766Y-79110294D01*
X153422750Y-79110287D01*
X153319993Y-79064915D01*
X153294866Y-79062000D01*
X151505144Y-79062000D01*
X151505118Y-79062002D01*
X151480013Y-79064913D01*
X151480009Y-79064915D01*
X151377236Y-79110293D01*
X151297795Y-79189734D01*
X151252416Y-79292506D01*
X151252416Y-79292508D01*
X151249501Y-79317631D01*
X151249501Y-81107356D01*
X151249503Y-81107382D01*
X151252414Y-81132487D01*
X151252416Y-81132491D01*
X151297794Y-81235264D01*
X151297796Y-81235266D01*
X151310388Y-81247859D01*
X151343872Y-81309183D01*
X151338886Y-81378874D01*
X151310386Y-81423219D01*
X148687680Y-84045925D01*
X148626357Y-84079410D01*
X148556665Y-84074426D01*
X148512318Y-84045925D01*
X145007802Y-80541409D01*
X145006924Y-80539801D01*
X145005340Y-80538877D01*
X144990236Y-80509239D01*
X144974317Y-80480086D01*
X144974447Y-80478258D01*
X144973615Y-80476625D01*
X144976930Y-80443538D01*
X144979301Y-80410394D01*
X144980399Y-80408926D01*
X144980582Y-80407103D01*
X145001255Y-80381067D01*
X145021173Y-80354461D01*
X145023253Y-80353363D01*
X145024030Y-80352385D01*
X145029785Y-80349915D01*
X145055476Y-80336359D01*
X145063242Y-80333711D01*
X145133497Y-80319737D01*
X145269472Y-80263414D01*
X145273238Y-80262131D01*
X145281745Y-80261765D01*
X145313245Y-80255500D01*
X145519259Y-80255500D01*
X145519415Y-80255500D01*
X145520867Y-80255497D01*
X145522129Y-80255491D01*
X145609727Y-80242228D01*
X145676562Y-80221862D01*
X145733270Y-80198114D01*
X145820416Y-80127330D01*
X145865632Y-80074063D01*
X145911897Y-80000436D01*
X146430718Y-78833085D01*
X146472919Y-78781864D01*
X150622302Y-75877298D01*
X150667360Y-75838730D01*
X150699656Y-75805131D01*
X151149500Y-75805131D01*
X151149500Y-77594856D01*
X151149502Y-77594882D01*
X151152413Y-77619987D01*
X151152415Y-77619991D01*
X151197793Y-77722764D01*
X151197794Y-77722765D01*
X151277235Y-77802206D01*
X151380009Y-77847585D01*
X151405135Y-77850500D01*
X153194864Y-77850499D01*
X153194879Y-77850497D01*
X153194882Y-77850497D01*
X153219987Y-77847586D01*
X153219988Y-77847585D01*
X153219991Y-77847585D01*
X153322765Y-77802206D01*
X153402206Y-77722765D01*
X153447585Y-77619991D01*
X153450500Y-77594865D01*
X153450499Y-75805136D01*
X153450389Y-75804184D01*
X153447586Y-75780012D01*
X153447585Y-75780010D01*
X153447585Y-75780009D01*
X153402206Y-75677235D01*
X153322765Y-75597794D01*
X153322763Y-75597793D01*
X153219992Y-75552415D01*
X153194865Y-75549500D01*
X151405143Y-75549500D01*
X151405117Y-75549502D01*
X151380012Y-75552413D01*
X151380008Y-75552415D01*
X151277235Y-75597793D01*
X151197794Y-75677234D01*
X151152415Y-75780006D01*
X151152415Y-75780008D01*
X151149500Y-75805131D01*
X150699656Y-75805131D01*
X150700566Y-75804184D01*
X150722553Y-75778625D01*
X150773439Y-75678549D01*
X150793124Y-75611510D01*
X150805500Y-75525438D01*
X150805500Y-73394535D01*
X150805496Y-73393034D01*
X150805490Y-73391813D01*
X150792257Y-73304362D01*
X150771913Y-73237519D01*
X150748182Y-73180797D01*
X150685559Y-73103649D01*
X150658591Y-73039193D01*
X150670752Y-72970390D01*
X150718181Y-72919084D01*
X150781833Y-72901500D01*
X153840324Y-72901500D01*
X153907363Y-72921185D01*
G37*
%TD.AperFunction*%
%TA.AperFunction,Conductor*%
G36*
X137350784Y-85221185D02*
G01*
X137371426Y-85237819D01*
X138221426Y-86087819D01*
X138254911Y-86149142D01*
X138249927Y-86218834D01*
X138208055Y-86274767D01*
X138142591Y-86299184D01*
X138133745Y-86299500D01*
X127524305Y-86299500D01*
X127457266Y-86279815D01*
X127411511Y-86227011D01*
X127403570Y-86174019D01*
X127400500Y-86174019D01*
X127400500Y-86034110D01*
X127400500Y-86034108D01*
X127366392Y-85906814D01*
X127300500Y-85792686D01*
X127207314Y-85699500D01*
X127093186Y-85633608D01*
X126997985Y-85608099D01*
X126984097Y-85600080D01*
X126970652Y-85597156D01*
X126942398Y-85576005D01*
X126779574Y-85413181D01*
X126746089Y-85351858D01*
X126751073Y-85282166D01*
X126792945Y-85226233D01*
X126858409Y-85201816D01*
X126867255Y-85201500D01*
X137283745Y-85201500D01*
X137350784Y-85221185D01*
G37*
%TD.AperFunction*%
%TA.AperFunction,Conductor*%
G36*
X134392539Y-71769185D02*
G01*
X134438294Y-71821989D01*
X134449500Y-71873500D01*
X134449500Y-73394856D01*
X134449502Y-73394882D01*
X134452413Y-73419987D01*
X134452415Y-73419991D01*
X134497793Y-73522764D01*
X134497794Y-73522765D01*
X134577235Y-73602206D01*
X134680009Y-73647585D01*
X134705135Y-73650500D01*
X135075500Y-73650499D01*
X135142539Y-73670183D01*
X135188294Y-73722987D01*
X135199500Y-73774499D01*
X135199500Y-75649273D01*
X135199500Y-75754727D01*
X135213007Y-75805136D01*
X135226793Y-75856589D01*
X135238750Y-75877298D01*
X135279520Y-75947913D01*
X135279522Y-75947915D01*
X135462181Y-76130574D01*
X135495666Y-76191897D01*
X135498500Y-76218255D01*
X135498500Y-79547747D01*
X135525793Y-79649610D01*
X135542464Y-79678484D01*
X135578520Y-79740934D01*
X135578521Y-79740935D01*
X135578522Y-79740936D01*
X139525405Y-83687819D01*
X139558890Y-83749142D01*
X139553906Y-83818834D01*
X139512034Y-83874767D01*
X139446570Y-83899184D01*
X139437724Y-83899500D01*
X131062051Y-83899500D01*
X130995012Y-83879815D01*
X130949257Y-83827011D01*
X130939313Y-83757853D01*
X130954664Y-83713499D01*
X130960546Y-83703311D01*
X130966392Y-83693186D01*
X131000500Y-83565892D01*
X131000500Y-83434108D01*
X130966392Y-83306814D01*
X130900500Y-83192686D01*
X130807314Y-83099500D01*
X130693186Y-83033608D01*
X130597983Y-83008098D01*
X130542397Y-82976005D01*
X129445915Y-81879522D01*
X129445914Y-81879521D01*
X129445913Y-81879520D01*
X129400250Y-81853156D01*
X129354589Y-81826793D01*
X129303657Y-81813146D01*
X129252727Y-81799500D01*
X129252726Y-81799500D01*
X125640540Y-81799500D01*
X125578540Y-81782887D01*
X125493188Y-81733609D01*
X125493187Y-81733608D01*
X125493186Y-81733608D01*
X125365892Y-81699500D01*
X125234108Y-81699500D01*
X125106812Y-81733608D01*
X124992686Y-81799500D01*
X124992683Y-81799502D01*
X124899502Y-81892683D01*
X124899500Y-81892686D01*
X124833608Y-82006812D01*
X124799500Y-82134108D01*
X124799500Y-82265891D01*
X124833608Y-82393187D01*
X124866554Y-82450250D01*
X124899500Y-82507314D01*
X124992686Y-82600500D01*
X125082605Y-82652415D01*
X125106810Y-82666390D01*
X125106814Y-82666392D01*
X125234108Y-82700500D01*
X125234110Y-82700500D01*
X125365890Y-82700500D01*
X125365892Y-82700500D01*
X125493186Y-82666392D01*
X125578540Y-82617113D01*
X125640540Y-82600500D01*
X128982745Y-82600500D01*
X129049784Y-82620185D01*
X129070426Y-82636819D01*
X129321426Y-82887819D01*
X129354911Y-82949142D01*
X129349927Y-83018834D01*
X129308055Y-83074767D01*
X129242591Y-83099184D01*
X129233745Y-83099500D01*
X126147273Y-83099500D01*
X126045410Y-83126793D01*
X126040696Y-83129516D01*
X126040689Y-83129520D01*
X125954093Y-83179515D01*
X125954085Y-83179521D01*
X125462388Y-83671217D01*
X125401065Y-83704702D01*
X125342614Y-83703311D01*
X125328392Y-83699500D01*
X125196608Y-83699500D01*
X125069312Y-83733608D01*
X124955186Y-83799500D01*
X124955183Y-83799502D01*
X124862002Y-83892683D01*
X124862000Y-83892686D01*
X124796108Y-84006812D01*
X124762000Y-84134108D01*
X124762000Y-84274019D01*
X124759126Y-84274019D01*
X124750508Y-84329334D01*
X124704136Y-84381596D01*
X124638327Y-84400500D01*
X119868254Y-84400500D01*
X119801215Y-84380815D01*
X119780573Y-84364181D01*
X118736819Y-83320426D01*
X118703334Y-83259103D01*
X118700500Y-83232745D01*
X118700500Y-79417254D01*
X118720185Y-79350215D01*
X118736814Y-79329578D01*
X120442399Y-77623992D01*
X120497986Y-77591900D01*
X120593183Y-77566393D01*
X120593183Y-77566392D01*
X120593186Y-77566392D01*
X120707314Y-77500500D01*
X120800500Y-77407314D01*
X120866392Y-77293186D01*
X120900500Y-77165892D01*
X120900500Y-77034108D01*
X120866392Y-76906814D01*
X120844107Y-76868216D01*
X120825219Y-76835500D01*
X120808746Y-76767600D01*
X120831598Y-76701573D01*
X120886519Y-76658383D01*
X120932606Y-76649500D01*
X123525500Y-76649500D01*
X123592539Y-76669185D01*
X123638294Y-76721989D01*
X123649500Y-76773500D01*
X123649500Y-77384108D01*
X123649500Y-77515892D01*
X123658409Y-77549142D01*
X123683608Y-77643187D01*
X123701841Y-77674767D01*
X123749500Y-77757314D01*
X123749502Y-77757316D01*
X123936347Y-77944161D01*
X123968440Y-77999747D01*
X123990421Y-78081779D01*
X123990426Y-78081790D01*
X124069475Y-78218709D01*
X124069479Y-78218714D01*
X124069480Y-78218716D01*
X124181284Y-78330520D01*
X124181286Y-78330521D01*
X124181290Y-78330524D01*
X124318209Y-78409573D01*
X124318216Y-78409577D01*
X124340439Y-78415531D01*
X124400096Y-78451893D01*
X124430627Y-78514739D01*
X124422333Y-78584115D01*
X124377849Y-78637994D01*
X124334190Y-78656582D01*
X120228685Y-79531526D01*
X120205064Y-79537555D01*
X120186136Y-79543200D01*
X120087281Y-79593730D01*
X120087280Y-79593731D01*
X120031884Y-79636303D01*
X119987152Y-79678483D01*
X119930476Y-79775397D01*
X119906888Y-79841163D01*
X119889478Y-79926365D01*
X119752412Y-82256483D01*
X119755916Y-82323890D01*
X119764734Y-82377629D01*
X119774344Y-82418435D01*
X119774344Y-82418436D01*
X119774345Y-82418437D01*
X119826666Y-82517772D01*
X119870031Y-82572555D01*
X119912848Y-82616677D01*
X119912850Y-82616678D01*
X120010566Y-82671957D01*
X120010570Y-82671959D01*
X120076661Y-82694598D01*
X120076664Y-82694599D01*
X120107810Y-82700499D01*
X120162102Y-82710784D01*
X122236161Y-82802964D01*
X122236162Y-82802963D01*
X122236163Y-82802964D01*
X122236504Y-82802962D01*
X122266679Y-82802794D01*
X122291382Y-82801421D01*
X122296234Y-82801113D01*
X122404839Y-82772658D01*
X122468023Y-82742832D01*
X122540575Y-82694900D01*
X124215776Y-81205831D01*
X124273979Y-81176891D01*
X132748310Y-79492235D01*
X132791644Y-79480247D01*
X132825913Y-79467988D01*
X132843894Y-79460906D01*
X132937084Y-79398293D01*
X132986931Y-79349334D01*
X133026238Y-79302055D01*
X133070783Y-79198999D01*
X133086248Y-79130862D01*
X133093230Y-79044186D01*
X133010702Y-77723751D01*
X132998742Y-77656127D01*
X132994913Y-77643186D01*
X132983032Y-77603031D01*
X132983028Y-77603020D01*
X132983025Y-77603010D01*
X132967903Y-77562630D01*
X132924130Y-77500497D01*
X132903244Y-77470850D01*
X132901046Y-77468709D01*
X132853192Y-77422097D01*
X132853187Y-77422093D01*
X132853185Y-77422091D01*
X132820428Y-77396062D01*
X132805055Y-77383846D01*
X132769690Y-77369480D01*
X132701040Y-77341593D01*
X132632586Y-77327641D01*
X132632579Y-77327640D01*
X132632578Y-77327640D01*
X132545771Y-77322577D01*
X132545768Y-77322577D01*
X132545765Y-77322577D01*
X129331951Y-77594934D01*
X129312962Y-77597144D01*
X129297577Y-77599425D01*
X129278743Y-77602825D01*
X129278719Y-77602830D01*
X129278714Y-77602831D01*
X126785799Y-78134108D01*
X125072478Y-78499242D01*
X125002808Y-78493963D01*
X124947052Y-78451855D01*
X124922912Y-78386288D01*
X124938052Y-78318079D01*
X124958944Y-78290291D01*
X125030520Y-78218716D01*
X125109577Y-78081784D01*
X125150500Y-77929057D01*
X125150500Y-77770943D01*
X125109577Y-77618216D01*
X125096097Y-77594868D01*
X125030524Y-77481290D01*
X125030518Y-77481282D01*
X124918717Y-77369481D01*
X124918709Y-77369475D01*
X124781790Y-77290426D01*
X124781782Y-77290422D01*
X124742403Y-77279870D01*
X124682744Y-77243504D01*
X124652216Y-77180656D01*
X124650500Y-77160096D01*
X124650500Y-76773500D01*
X124670185Y-76706461D01*
X124722989Y-76660706D01*
X124774500Y-76649500D01*
X125418914Y-76649500D01*
X125418916Y-76649500D01*
X125546210Y-76615392D01*
X125660338Y-76549500D01*
X130424019Y-71785819D01*
X130485342Y-71752334D01*
X130511700Y-71749500D01*
X134325500Y-71749500D01*
X134392539Y-71769185D01*
G37*
%TD.AperFunction*%
%TA.AperFunction,Conductor*%
G36*
X137094806Y-71769185D02*
G01*
X137115447Y-71785818D01*
X138343141Y-73013513D01*
X139518220Y-74188592D01*
X139518221Y-74188593D01*
X139929476Y-74599847D01*
X139962961Y-74661170D01*
X139957977Y-74730861D01*
X139929477Y-74775208D01*
X139899503Y-74805182D01*
X139899500Y-74805186D01*
X139833608Y-74919312D01*
X139811855Y-75000499D01*
X139799500Y-75046608D01*
X139799500Y-75178392D01*
X139833608Y-75305686D01*
X139882887Y-75391040D01*
X139899500Y-75453039D01*
X139899500Y-77547273D01*
X139899500Y-77652727D01*
X139911948Y-77699184D01*
X139926793Y-77754589D01*
X139952723Y-77799500D01*
X139979520Y-77845913D01*
X139979522Y-77845915D01*
X140808926Y-78675319D01*
X140842411Y-78736642D01*
X140837427Y-78806334D01*
X140795555Y-78862267D01*
X140730091Y-78886684D01*
X140721245Y-78887000D01*
X136740540Y-78887000D01*
X136678540Y-78870387D01*
X136593188Y-78821109D01*
X136593187Y-78821108D01*
X136593186Y-78821108D01*
X136465892Y-78787000D01*
X136423500Y-78787000D01*
X136356461Y-78767315D01*
X136310706Y-78714511D01*
X136299500Y-78663000D01*
X136299500Y-75948275D01*
X136299499Y-75948271D01*
X136299403Y-75947913D01*
X136288039Y-75905500D01*
X136272207Y-75846412D01*
X136219480Y-75755087D01*
X136036819Y-75572426D01*
X136003334Y-75511103D01*
X136000500Y-75484745D01*
X136000500Y-73774499D01*
X136020185Y-73707460D01*
X136072989Y-73661705D01*
X136124500Y-73650499D01*
X136494856Y-73650499D01*
X136494864Y-73650499D01*
X136494879Y-73650497D01*
X136494882Y-73650497D01*
X136519987Y-73647586D01*
X136519988Y-73647585D01*
X136519991Y-73647585D01*
X136622765Y-73602206D01*
X136702206Y-73522765D01*
X136747585Y-73419991D01*
X136750500Y-73394865D01*
X136750499Y-71873499D01*
X136753049Y-71864814D01*
X136751761Y-71855853D01*
X136762739Y-71831812D01*
X136770184Y-71806461D01*
X136777024Y-71800533D01*
X136780786Y-71792297D01*
X136803018Y-71778009D01*
X136822987Y-71760706D01*
X136833502Y-71758418D01*
X136839564Y-71754523D01*
X136874499Y-71749500D01*
X137027767Y-71749500D01*
X137094806Y-71769185D01*
G37*
%TD.AperFunction*%
%TD*%
%TA.AperFunction,Conductor*%
%TO.N,/Power/VBUS*%
G36*
X176023549Y-86735364D02*
G01*
X176078771Y-86778169D01*
X176102085Y-86844034D01*
X176102256Y-86848922D01*
X176120449Y-88049624D01*
X176174242Y-91600000D01*
X176198093Y-93174121D01*
X176179426Y-93241451D01*
X176127321Y-93288001D01*
X176074107Y-93300000D01*
X174623880Y-93300000D01*
X174577828Y-93291131D01*
X173100000Y-92700000D01*
X172124000Y-92700000D01*
X172056961Y-92680315D01*
X172011206Y-92627511D01*
X172000000Y-92576000D01*
X172000000Y-92224000D01*
X172019685Y-92156961D01*
X172072489Y-92111206D01*
X172124000Y-92100000D01*
X173099998Y-92100000D01*
X173100000Y-92100000D01*
X173800000Y-91600000D01*
X174300000Y-89800000D01*
X173700000Y-88300000D01*
X172000000Y-87900000D01*
X172000000Y-87300000D01*
X173100000Y-87300000D01*
X175953953Y-86729209D01*
X176023549Y-86735364D01*
G37*
%TD.AperFunction*%
%TD*%
%TA.AperFunction,Conductor*%
%TO.N,/Logic/Rail_2_IN*%
G36*
X132640029Y-77640939D02*
G01*
X132690080Y-77689691D01*
X132705797Y-77742808D01*
X132788325Y-79063243D01*
X132772860Y-79131380D01*
X132723013Y-79180339D01*
X132688744Y-79192598D01*
X124100000Y-80900000D01*
X122337612Y-82466566D01*
X122274428Y-82496392D01*
X122249725Y-82497765D01*
X120175666Y-82405585D01*
X120109567Y-82382943D01*
X120066202Y-82328160D01*
X120057386Y-82274428D01*
X120194452Y-79944301D01*
X120218039Y-79878537D01*
X120273439Y-79835961D01*
X120292381Y-79830312D01*
X129342391Y-77901621D01*
X129357761Y-77899342D01*
X132571568Y-77626986D01*
X132640029Y-77640939D01*
G37*
%TD.AperFunction*%
%TD*%
%TA.AperFunction,Conductor*%
%TO.N,/Power/VBUS*%
G36*
X168914532Y-86103558D02*
G01*
X173800000Y-87300000D01*
X175565525Y-86742465D01*
X175614232Y-86737232D01*
X175700000Y-86745128D01*
X175700000Y-91800000D01*
X174300000Y-91700000D01*
X174100000Y-90600000D01*
X174080779Y-90589188D01*
X169300002Y-87900000D01*
X169300000Y-87900000D01*
X168024000Y-87900000D01*
X167956961Y-87880315D01*
X167911206Y-87827511D01*
X167900000Y-87776000D01*
X167900000Y-86224000D01*
X167919685Y-86156961D01*
X167972489Y-86111206D01*
X168024000Y-86100000D01*
X168885037Y-86100000D01*
X168914532Y-86103558D01*
G37*
%TD.AperFunction*%
%TD*%
%TA.AperFunction,Conductor*%
%TO.N,+5V*%
G36*
X150426398Y-73281239D02*
G01*
X150479650Y-73326471D01*
X150499994Y-73393314D01*
X150500000Y-73394535D01*
X150500000Y-75525438D01*
X150480315Y-75592477D01*
X150447109Y-75627023D01*
X146200000Y-78599999D01*
X146199999Y-78600000D01*
X145632728Y-79876361D01*
X145587512Y-79929628D01*
X145520677Y-79949994D01*
X145519415Y-79950000D01*
X144329450Y-79950000D01*
X144262411Y-79930315D01*
X144216797Y-79877820D01*
X143628999Y-78599999D01*
X143178888Y-77621497D01*
X143168756Y-77552367D01*
X143197607Y-77488732D01*
X143256281Y-77450797D01*
X143288719Y-77445710D01*
X145300000Y-77400000D01*
X147869633Y-73693798D01*
X147924006Y-73649923D01*
X147952674Y-73641896D01*
X150357147Y-73271977D01*
X150426398Y-73281239D01*
G37*
%TD.AperFunction*%
%TD*%
M02*
