%TF.GenerationSoftware,KiCad,Pcbnew,9.0.0*%
%TF.CreationDate,2025-05-18T23:18:51+02:00*%
%TF.ProjectId,CYPD3177_DEV_BOARD,43595044-3331-4373-975f-4445565f424f,rev?*%
%TF.SameCoordinates,Original*%
%TF.FileFunction,Soldermask,Top*%
%TF.FilePolarity,Negative*%
%FSLAX46Y46*%
G04 Gerber Fmt 4.6, Leading zero omitted, Abs format (unit mm)*
G04 Created by KiCad (PCBNEW 9.0.0) date 2025-05-18 23:18:51*
%MOMM*%
%LPD*%
G01*
G04 APERTURE LIST*
G04 Aperture macros list*
%AMRoundRect*
0 Rectangle with rounded corners*
0 $1 Rounding radius*
0 $2 $3 $4 $5 $6 $7 $8 $9 X,Y pos of 4 corners*
0 Add a 4 corners polygon primitive as box body*
4,1,4,$2,$3,$4,$5,$6,$7,$8,$9,$2,$3,0*
0 Add four circle primitives for the rounded corners*
1,1,$1+$1,$2,$3*
1,1,$1+$1,$4,$5*
1,1,$1+$1,$6,$7*
1,1,$1+$1,$8,$9*
0 Add four rect primitives between the rounded corners*
20,1,$1+$1,$2,$3,$4,$5,0*
20,1,$1+$1,$4,$5,$6,$7,0*
20,1,$1+$1,$6,$7,$8,$9,0*
20,1,$1+$1,$8,$9,$2,$3,0*%
%AMRotRect*
0 Rectangle, with rotation*
0 The origin of the aperture is its center*
0 $1 length*
0 $2 width*
0 $3 Rotation angle, in degrees counterclockwise*
0 Add horizontal line*
21,1,$1,$2,0,0,$3*%
%AMFreePoly0*
4,1,45,0.915337,4.272534,0.924317,4.268814,0.972251,4.227872,0.979514,4.213617,0.983234,4.204637,0.991000,4.165600,0.991000,1.397000,0.983234,1.357963,0.979514,1.348983,0.955942,1.314462,0.955561,1.314096,0.953959,1.312589,0.356000,0.762465,0.356000,0.508000,0.348234,0.468963,0.344514,0.459983,0.343300,0.458561,0.343300,-0.508000,0.323820,-0.567954,0.272820,-0.605008,
0.241300,-0.610000,-0.241300,-0.610000,-0.301254,-0.590520,-0.338308,-0.539520,-0.343300,-0.508000,-0.343300,0.457600,-0.344514,0.459983,-0.348234,0.468963,-0.356000,0.508000,-0.356000,0.762465,-0.953959,1.312589,-0.977428,1.344732,-0.981518,1.353549,-0.990967,1.394350,-0.990978,1.394879,-0.991000,1.397000,-0.991000,4.165600,-0.983234,4.204637,-0.979514,4.213617,-0.938572,4.261551,
-0.924317,4.268814,-0.915337,4.272534,-0.876300,4.280300,0.876300,4.280300,0.915337,4.272534,0.915337,4.272534,$1*%
G04 Aperture macros list end*
%ADD10C,0.010000*%
%ADD11C,0.025400*%
%ADD12RoundRect,0.250000X-0.450000X0.262500X-0.450000X-0.262500X0.450000X-0.262500X0.450000X0.262500X0*%
%ADD13RoundRect,0.250000X-0.262500X-0.450000X0.262500X-0.450000X0.262500X0.450000X-0.262500X0.450000X0*%
%ADD14R,1.700000X1.700000*%
%ADD15RoundRect,0.250000X0.262500X0.450000X-0.262500X0.450000X-0.262500X-0.450000X0.262500X-0.450000X0*%
%ADD16RoundRect,0.250001X-0.799999X-0.799999X0.799999X-0.799999X0.799999X0.799999X-0.799999X0.799999X0*%
%ADD17C,2.100000*%
%ADD18RoundRect,0.250000X0.450000X-0.262500X0.450000X0.262500X-0.450000X0.262500X-0.450000X-0.262500X0*%
%ADD19RoundRect,0.250000X-0.250000X-0.475000X0.250000X-0.475000X0.250000X0.475000X-0.250000X0.475000X0*%
%ADD20RoundRect,0.250000X0.475000X-0.250000X0.475000X0.250000X-0.475000X0.250000X-0.475000X-0.250000X0*%
%ADD21R,0.800000X1.700000*%
%ADD22RoundRect,0.250000X-0.475000X0.250000X-0.475000X-0.250000X0.475000X-0.250000X0.475000X0.250000X0*%
%ADD23RoundRect,0.243750X0.243750X0.456250X-0.243750X0.456250X-0.243750X-0.456250X0.243750X-0.456250X0*%
%ADD24RoundRect,0.062500X-0.350000X-0.062500X0.350000X-0.062500X0.350000X0.062500X-0.350000X0.062500X0*%
%ADD25RoundRect,0.062500X-0.062500X-0.350000X0.062500X-0.350000X0.062500X0.350000X-0.062500X0.350000X0*%
%ADD26R,2.600000X2.600000*%
%ADD27RoundRect,0.135000X0.185000X-0.135000X0.185000X0.135000X-0.185000X0.135000X-0.185000X-0.135000X0*%
%ADD28R,1.150000X0.300000*%
%ADD29C,0.650000*%
%ADD30O,2.100000X1.000000*%
%ADD31O,1.600000X1.000000*%
%ADD32RoundRect,0.250000X0.325000X0.650000X-0.325000X0.650000X-0.325000X-0.650000X0.325000X-0.650000X0*%
%ADD33RoundRect,0.250000X0.250000X0.475000X-0.250000X0.475000X-0.250000X-0.475000X0.250000X-0.475000X0*%
%ADD34RoundRect,0.102000X0.250000X0.175000X-0.250000X0.175000X-0.250000X-0.175000X0.250000X-0.175000X0*%
%ADD35RoundRect,0.243750X-0.243750X-0.456250X0.243750X-0.456250X0.243750X0.456250X-0.243750X0.456250X0*%
%ADD36RoundRect,0.250000X0.650000X-0.325000X0.650000X0.325000X-0.650000X0.325000X-0.650000X-0.325000X0*%
%ADD37R,0.200000X0.450000*%
%ADD38R,0.700000X0.250000*%
%ADD39O,1.700000X1.700000*%
%ADD40RoundRect,0.250000X0.550000X-1.500000X0.550000X1.500000X-0.550000X1.500000X-0.550000X-1.500000X0*%
%ADD41RoundRect,0.250000X0.132583X-0.503814X0.503814X-0.132583X-0.132583X0.503814X-0.503814X0.132583X0*%
%ADD42C,1.100000*%
%ADD43C,0.800000*%
%ADD44RotRect,1.000000X1.100000X315.000000*%
%ADD45RotRect,1.800000X1.150000X315.000000*%
%ADD46RoundRect,0.050000X0.100000X-0.285000X0.100000X0.285000X-0.100000X0.285000X-0.100000X-0.285000X0*%
%ADD47RoundRect,0.102000X-0.250000X-0.175000X0.250000X-0.175000X0.250000X0.175000X-0.250000X0.175000X0*%
%ADD48RoundRect,0.250000X0.300000X0.300000X-0.300000X0.300000X-0.300000X-0.300000X0.300000X-0.300000X0*%
%ADD49C,0.365000*%
%ADD50R,0.800000X0.300000*%
%ADD51R,0.300000X0.800000*%
%ADD52R,2.800000X2.800000*%
%ADD53RoundRect,0.075000X-0.650000X-0.075000X0.650000X-0.075000X0.650000X0.075000X-0.650000X0.075000X0*%
%ADD54RoundRect,0.250000X-0.132583X0.503814X-0.503814X0.132583X0.132583X-0.503814X0.503814X-0.132583X0*%
%ADD55RoundRect,0.250000X-0.300000X0.300000X-0.300000X-0.300000X0.300000X-0.300000X0.300000X0.300000X0*%
%ADD56RoundRect,0.250000X-0.300000X-0.300000X0.300000X-0.300000X0.300000X0.300000X-0.300000X0.300000X0*%
%ADD57RoundRect,0.075000X-0.350000X-0.075000X0.350000X-0.075000X0.350000X0.075000X-0.350000X0.075000X0*%
%ADD58RoundRect,0.075000X-0.075000X-0.350000X0.075000X-0.350000X0.075000X0.350000X-0.075000X0.350000X0*%
%ADD59R,2.650000X2.650000*%
%ADD60RoundRect,0.250001X0.624999X-0.462499X0.624999X0.462499X-0.624999X0.462499X-0.624999X-0.462499X0*%
%ADD61RoundRect,0.250001X0.499999X0.999999X-0.499999X0.999999X-0.499999X-0.999999X0.499999X-0.999999X0*%
%ADD62RoundRect,0.250000X0.503814X0.132583X0.132583X0.503814X-0.503814X-0.132583X-0.132583X-0.503814X0*%
%ADD63RoundRect,0.250000X0.312500X0.625000X-0.312500X0.625000X-0.312500X-0.625000X0.312500X-0.625000X0*%
%ADD64RoundRect,0.243750X0.456250X-0.243750X0.456250X0.243750X-0.456250X0.243750X-0.456250X-0.243750X0*%
%ADD65RoundRect,0.100000X0.225000X0.100000X-0.225000X0.100000X-0.225000X-0.100000X0.225000X-0.100000X0*%
%ADD66RoundRect,0.102000X-0.215900X-0.508000X0.215900X-0.508000X0.215900X0.508000X-0.215900X0.508000X0*%
%ADD67FreePoly0,0.000000*%
G04 APERTURE END LIST*
D10*
%TO.C,U5*%
X157675000Y-85980000D02*
X158075000Y-85980000D01*
X158075000Y-88630000D01*
X157675000Y-88630000D01*
X157675000Y-89005000D01*
X157050000Y-89005000D01*
X157050000Y-88630000D01*
X155900000Y-88630000D01*
X155900000Y-88580000D01*
X155600000Y-88580000D01*
X155600000Y-87980000D01*
X155900000Y-87980000D01*
X155900000Y-87930000D01*
X155600000Y-87930000D01*
X155600000Y-87330000D01*
X155900000Y-87330000D01*
X155900000Y-87280000D01*
X155600000Y-87280000D01*
X155600000Y-86680000D01*
X155900000Y-86680000D01*
X155900000Y-86630000D01*
X155600000Y-86630000D01*
X155600000Y-86055000D01*
X155900000Y-86055000D01*
X155900000Y-85980000D01*
X157025000Y-85980000D01*
X157025000Y-85605000D01*
X157675000Y-85605000D01*
X157675000Y-85980000D01*
G36*
X157675000Y-85980000D02*
G01*
X158075000Y-85980000D01*
X158075000Y-88630000D01*
X157675000Y-88630000D01*
X157675000Y-89005000D01*
X157050000Y-89005000D01*
X157050000Y-88630000D01*
X155900000Y-88630000D01*
X155900000Y-88580000D01*
X155600000Y-88580000D01*
X155600000Y-87980000D01*
X155900000Y-87980000D01*
X155900000Y-87930000D01*
X155600000Y-87930000D01*
X155600000Y-87330000D01*
X155900000Y-87330000D01*
X155900000Y-87280000D01*
X155600000Y-87280000D01*
X155600000Y-86680000D01*
X155900000Y-86680000D01*
X155900000Y-86630000D01*
X155600000Y-86630000D01*
X155600000Y-86055000D01*
X155900000Y-86055000D01*
X155900000Y-85980000D01*
X157025000Y-85980000D01*
X157025000Y-85605000D01*
X157675000Y-85605000D01*
X157675000Y-85980000D01*
G37*
%TO.C,U4*%
X166510000Y-74710000D02*
X165750000Y-74710000D01*
X165750000Y-74290000D01*
X166510000Y-74290000D01*
X166510000Y-74710000D01*
G36*
X166510000Y-74710000D02*
G01*
X165750000Y-74710000D01*
X165750000Y-74290000D01*
X166510000Y-74290000D01*
X166510000Y-74710000D01*
G37*
X166510000Y-75210000D02*
X165750000Y-75210000D01*
X165750000Y-74790000D01*
X166510000Y-74790000D01*
X166510000Y-75210000D01*
G36*
X166510000Y-75210000D02*
G01*
X165750000Y-75210000D01*
X165750000Y-74790000D01*
X166510000Y-74790000D01*
X166510000Y-75210000D01*
G37*
X166510000Y-75710000D02*
X165750000Y-75710000D01*
X165750000Y-75290000D01*
X166510000Y-75290000D01*
X166510000Y-75710000D01*
G36*
X166510000Y-75710000D02*
G01*
X165750000Y-75710000D01*
X165750000Y-75290000D01*
X166510000Y-75290000D01*
X166510000Y-75710000D01*
G37*
X166510000Y-76210000D02*
X165750000Y-76210000D01*
X165750000Y-75790000D01*
X166510000Y-75790000D01*
X166510000Y-76210000D01*
G36*
X166510000Y-76210000D02*
G01*
X165750000Y-76210000D01*
X165750000Y-75790000D01*
X166510000Y-75790000D01*
X166510000Y-76210000D01*
G37*
X167980000Y-74710000D02*
X167220000Y-74710000D01*
X167220000Y-74290000D01*
X167980000Y-74290000D01*
X167980000Y-74710000D01*
G36*
X167980000Y-74710000D02*
G01*
X167220000Y-74710000D01*
X167220000Y-74290000D01*
X167980000Y-74290000D01*
X167980000Y-74710000D01*
G37*
X167980000Y-75210000D02*
X167220000Y-75210000D01*
X167220000Y-74790000D01*
X167980000Y-74790000D01*
X167980000Y-75210000D01*
G36*
X167980000Y-75210000D02*
G01*
X167220000Y-75210000D01*
X167220000Y-74790000D01*
X167980000Y-74790000D01*
X167980000Y-75210000D01*
G37*
X167980000Y-75710000D02*
X167220000Y-75710000D01*
X167220000Y-75290000D01*
X167980000Y-75290000D01*
X167980000Y-75710000D01*
G36*
X167980000Y-75710000D02*
G01*
X167220000Y-75710000D01*
X167220000Y-75290000D01*
X167980000Y-75290000D01*
X167980000Y-75710000D01*
G37*
X167980000Y-76210000D02*
X167220000Y-76210000D01*
X167220000Y-75790000D01*
X167980000Y-75790000D01*
X167980000Y-76210000D01*
G36*
X167980000Y-76210000D02*
G01*
X167220000Y-76210000D01*
X167220000Y-75790000D01*
X167980000Y-75790000D01*
X167980000Y-76210000D01*
G37*
%TO.C,U7*%
X152570000Y-86010000D02*
X153720000Y-86010000D01*
X153720000Y-86060000D01*
X154020000Y-86060000D01*
X154020000Y-86660000D01*
X153720000Y-86660000D01*
X153720000Y-86710000D01*
X154020000Y-86710000D01*
X154020000Y-87310000D01*
X153720000Y-87310000D01*
X153720000Y-87360000D01*
X154020000Y-87360000D01*
X154020000Y-87960000D01*
X153720000Y-87960000D01*
X153720000Y-88010000D01*
X154020000Y-88010000D01*
X154020000Y-88585000D01*
X153720000Y-88585000D01*
X153720000Y-88660000D01*
X152595000Y-88660000D01*
X152595000Y-89035000D01*
X151945000Y-89035000D01*
X151945000Y-88660000D01*
X151545000Y-88660000D01*
X151545000Y-86010000D01*
X151945000Y-86010000D01*
X151945000Y-85635000D01*
X152570000Y-85635000D01*
X152570000Y-86010000D01*
G36*
X152570000Y-86010000D02*
G01*
X153720000Y-86010000D01*
X153720000Y-86060000D01*
X154020000Y-86060000D01*
X154020000Y-86660000D01*
X153720000Y-86660000D01*
X153720000Y-86710000D01*
X154020000Y-86710000D01*
X154020000Y-87310000D01*
X153720000Y-87310000D01*
X153720000Y-87360000D01*
X154020000Y-87360000D01*
X154020000Y-87960000D01*
X153720000Y-87960000D01*
X153720000Y-88010000D01*
X154020000Y-88010000D01*
X154020000Y-88585000D01*
X153720000Y-88585000D01*
X153720000Y-88660000D01*
X152595000Y-88660000D01*
X152595000Y-89035000D01*
X151945000Y-89035000D01*
X151945000Y-88660000D01*
X151545000Y-88660000D01*
X151545000Y-86010000D01*
X151945000Y-86010000D01*
X151945000Y-85635000D01*
X152570000Y-85635000D01*
X152570000Y-86010000D01*
G37*
D11*
%TO.C,U3*%
X147476300Y-76508200D02*
X146841300Y-77092400D01*
X146841300Y-77397200D01*
X146358700Y-77397200D01*
X146358700Y-77092400D01*
X145723700Y-76508200D01*
X145723700Y-73739600D01*
X146358700Y-73739600D01*
X146841300Y-73739600D01*
X147476300Y-73739600D01*
X147476300Y-76508200D01*
G36*
X147476300Y-76508200D02*
G01*
X146841300Y-77092400D01*
X146841300Y-77397200D01*
X146358700Y-77397200D01*
X146358700Y-77092400D01*
X145723700Y-76508200D01*
X145723700Y-73739600D01*
X146358700Y-73739600D01*
X146841300Y-73739600D01*
X147476300Y-73739600D01*
X147476300Y-76508200D01*
G37*
D10*
%TO.C,D3*%
X169175500Y-93931000D02*
X169177500Y-93931000D01*
X169180500Y-93932000D01*
X169182500Y-93932000D01*
X169185500Y-93933000D01*
X169187500Y-93934000D01*
X169190500Y-93935000D01*
X169192500Y-93937000D01*
X169194500Y-93938000D01*
X169196500Y-93940000D01*
X169198500Y-93941000D01*
X169200500Y-93943000D01*
X169202500Y-93945000D01*
X169204500Y-93947000D01*
X169206500Y-93949000D01*
X169207500Y-93951000D01*
X169209500Y-93953000D01*
X169210500Y-93955000D01*
X169212500Y-93957000D01*
X169213500Y-93960000D01*
X169214500Y-93962000D01*
X169215500Y-93965000D01*
X169215500Y-93967000D01*
X169216500Y-93970000D01*
X169216500Y-93972000D01*
X169217500Y-93975000D01*
X169217500Y-93977000D01*
X169217500Y-93980000D01*
X169217500Y-94220000D01*
X169217500Y-94223000D01*
X169217500Y-94225000D01*
X169216500Y-94228000D01*
X169216500Y-94230000D01*
X169215500Y-94233000D01*
X169215500Y-94235000D01*
X169214500Y-94238000D01*
X169213500Y-94240000D01*
X169212500Y-94243000D01*
X169210500Y-94245000D01*
X169209500Y-94247000D01*
X169207500Y-94249000D01*
X169206500Y-94251000D01*
X169204500Y-94253000D01*
X169202500Y-94255000D01*
X169200500Y-94257000D01*
X169198500Y-94259000D01*
X169196500Y-94260000D01*
X169194500Y-94262000D01*
X169192500Y-94263000D01*
X169190500Y-94265000D01*
X169187500Y-94266000D01*
X169185500Y-94267000D01*
X169182500Y-94268000D01*
X169180500Y-94268000D01*
X169177500Y-94269000D01*
X169175500Y-94269000D01*
X169172500Y-94270000D01*
X169170500Y-94270000D01*
X169167500Y-94270000D01*
X168562500Y-94270000D01*
X168559500Y-94270000D01*
X168557500Y-94270000D01*
X168554500Y-94269000D01*
X168552500Y-94269000D01*
X168549500Y-94268000D01*
X168547500Y-94268000D01*
X168544500Y-94267000D01*
X168542500Y-94266000D01*
X168539500Y-94265000D01*
X168537500Y-94263000D01*
X168535500Y-94262000D01*
X168533500Y-94260000D01*
X168531500Y-94259000D01*
X168529500Y-94257000D01*
X168527500Y-94255000D01*
X168525500Y-94253000D01*
X168523500Y-94251000D01*
X168522500Y-94249000D01*
X168520500Y-94247000D01*
X168519500Y-94245000D01*
X168517500Y-94243000D01*
X168516500Y-94240000D01*
X168515500Y-94238000D01*
X168514500Y-94235000D01*
X168514500Y-94233000D01*
X168513500Y-94230000D01*
X168513500Y-94228000D01*
X168512500Y-94225000D01*
X168512500Y-94223000D01*
X168512500Y-94220000D01*
X168512500Y-93980000D01*
X168512500Y-93977000D01*
X168512500Y-93975000D01*
X168513500Y-93972000D01*
X168513500Y-93970000D01*
X168514500Y-93967000D01*
X168514500Y-93965000D01*
X168515500Y-93962000D01*
X168516500Y-93960000D01*
X168517500Y-93957000D01*
X168519500Y-93955000D01*
X168520500Y-93953000D01*
X168522500Y-93951000D01*
X168523500Y-93949000D01*
X168525500Y-93947000D01*
X168527500Y-93945000D01*
X168529500Y-93943000D01*
X168531500Y-93941000D01*
X168533500Y-93940000D01*
X168535500Y-93938000D01*
X168537500Y-93937000D01*
X168539500Y-93935000D01*
X168542500Y-93934000D01*
X168544500Y-93933000D01*
X168547500Y-93932000D01*
X168549500Y-93932000D01*
X168552500Y-93931000D01*
X168554500Y-93931000D01*
X168557500Y-93930000D01*
X168559500Y-93930000D01*
X168562500Y-93930000D01*
X169167500Y-93930000D01*
X169170500Y-93930000D01*
X169172500Y-93930000D01*
X169175500Y-93931000D01*
G36*
X169175500Y-93931000D02*
G01*
X169177500Y-93931000D01*
X169180500Y-93932000D01*
X169182500Y-93932000D01*
X169185500Y-93933000D01*
X169187500Y-93934000D01*
X169190500Y-93935000D01*
X169192500Y-93937000D01*
X169194500Y-93938000D01*
X169196500Y-93940000D01*
X169198500Y-93941000D01*
X169200500Y-93943000D01*
X169202500Y-93945000D01*
X169204500Y-93947000D01*
X169206500Y-93949000D01*
X169207500Y-93951000D01*
X169209500Y-93953000D01*
X169210500Y-93955000D01*
X169212500Y-93957000D01*
X169213500Y-93960000D01*
X169214500Y-93962000D01*
X169215500Y-93965000D01*
X169215500Y-93967000D01*
X169216500Y-93970000D01*
X169216500Y-93972000D01*
X169217500Y-93975000D01*
X169217500Y-93977000D01*
X169217500Y-93980000D01*
X169217500Y-94220000D01*
X169217500Y-94223000D01*
X169217500Y-94225000D01*
X169216500Y-94228000D01*
X169216500Y-94230000D01*
X169215500Y-94233000D01*
X169215500Y-94235000D01*
X169214500Y-94238000D01*
X169213500Y-94240000D01*
X169212500Y-94243000D01*
X169210500Y-94245000D01*
X169209500Y-94247000D01*
X169207500Y-94249000D01*
X169206500Y-94251000D01*
X169204500Y-94253000D01*
X169202500Y-94255000D01*
X169200500Y-94257000D01*
X169198500Y-94259000D01*
X169196500Y-94260000D01*
X169194500Y-94262000D01*
X169192500Y-94263000D01*
X169190500Y-94265000D01*
X169187500Y-94266000D01*
X169185500Y-94267000D01*
X169182500Y-94268000D01*
X169180500Y-94268000D01*
X169177500Y-94269000D01*
X169175500Y-94269000D01*
X169172500Y-94270000D01*
X169170500Y-94270000D01*
X169167500Y-94270000D01*
X168562500Y-94270000D01*
X168559500Y-94270000D01*
X168557500Y-94270000D01*
X168554500Y-94269000D01*
X168552500Y-94269000D01*
X168549500Y-94268000D01*
X168547500Y-94268000D01*
X168544500Y-94267000D01*
X168542500Y-94266000D01*
X168539500Y-94265000D01*
X168537500Y-94263000D01*
X168535500Y-94262000D01*
X168533500Y-94260000D01*
X168531500Y-94259000D01*
X168529500Y-94257000D01*
X168527500Y-94255000D01*
X168525500Y-94253000D01*
X168523500Y-94251000D01*
X168522500Y-94249000D01*
X168520500Y-94247000D01*
X168519500Y-94245000D01*
X168517500Y-94243000D01*
X168516500Y-94240000D01*
X168515500Y-94238000D01*
X168514500Y-94235000D01*
X168514500Y-94233000D01*
X168513500Y-94230000D01*
X168513500Y-94228000D01*
X168512500Y-94225000D01*
X168512500Y-94223000D01*
X168512500Y-94220000D01*
X168512500Y-93980000D01*
X168512500Y-93977000D01*
X168512500Y-93975000D01*
X168513500Y-93972000D01*
X168513500Y-93970000D01*
X168514500Y-93967000D01*
X168514500Y-93965000D01*
X168515500Y-93962000D01*
X168516500Y-93960000D01*
X168517500Y-93957000D01*
X168519500Y-93955000D01*
X168520500Y-93953000D01*
X168522500Y-93951000D01*
X168523500Y-93949000D01*
X168525500Y-93947000D01*
X168527500Y-93945000D01*
X168529500Y-93943000D01*
X168531500Y-93941000D01*
X168533500Y-93940000D01*
X168535500Y-93938000D01*
X168537500Y-93937000D01*
X168539500Y-93935000D01*
X168542500Y-93934000D01*
X168544500Y-93933000D01*
X168547500Y-93932000D01*
X168549500Y-93932000D01*
X168552500Y-93931000D01*
X168554500Y-93931000D01*
X168557500Y-93930000D01*
X168559500Y-93930000D01*
X168562500Y-93930000D01*
X169167500Y-93930000D01*
X169170500Y-93930000D01*
X169172500Y-93930000D01*
X169175500Y-93931000D01*
G37*
X169175500Y-91931000D02*
X169177500Y-91931000D01*
X169180500Y-91932000D01*
X169182500Y-91932000D01*
X169185500Y-91933000D01*
X169187500Y-91934000D01*
X169190500Y-91935000D01*
X169192500Y-91937000D01*
X169194500Y-91938000D01*
X169196500Y-91940000D01*
X169198500Y-91941000D01*
X169200500Y-91943000D01*
X169202500Y-91945000D01*
X169204500Y-91947000D01*
X169206500Y-91949000D01*
X169207500Y-91951000D01*
X169209500Y-91953000D01*
X169210500Y-91955000D01*
X169212500Y-91957000D01*
X169213500Y-91960000D01*
X169214500Y-91962000D01*
X169215500Y-91965000D01*
X169215500Y-91967000D01*
X169216500Y-91970000D01*
X169216500Y-91972000D01*
X169217500Y-91975000D01*
X169217500Y-91977000D01*
X169217500Y-91980000D01*
X169217500Y-92220000D01*
X169217500Y-92223000D01*
X169217500Y-92225000D01*
X169216500Y-92228000D01*
X169216500Y-92230000D01*
X169215500Y-92233000D01*
X169215500Y-92235000D01*
X169214500Y-92238000D01*
X169213500Y-92240000D01*
X169212500Y-92243000D01*
X169210500Y-92245000D01*
X169209500Y-92247000D01*
X169207500Y-92249000D01*
X169206500Y-92251000D01*
X169204500Y-92253000D01*
X169202500Y-92255000D01*
X169200500Y-92257000D01*
X169198500Y-92259000D01*
X169196500Y-92260000D01*
X169194500Y-92262000D01*
X169192500Y-92263000D01*
X169190500Y-92265000D01*
X169187500Y-92266000D01*
X169185500Y-92267000D01*
X169182500Y-92268000D01*
X169180500Y-92268000D01*
X169177500Y-92269000D01*
X169175500Y-92269000D01*
X169172500Y-92270000D01*
X169170500Y-92270000D01*
X169167500Y-92270000D01*
X168562500Y-92270000D01*
X168559500Y-92270000D01*
X168557500Y-92270000D01*
X168554500Y-92269000D01*
X168552500Y-92269000D01*
X168549500Y-92268000D01*
X168547500Y-92268000D01*
X168544500Y-92267000D01*
X168542500Y-92266000D01*
X168539500Y-92265000D01*
X168537500Y-92263000D01*
X168535500Y-92262000D01*
X168533500Y-92260000D01*
X168531500Y-92259000D01*
X168529500Y-92257000D01*
X168527500Y-92255000D01*
X168525500Y-92253000D01*
X168523500Y-92251000D01*
X168522500Y-92249000D01*
X168520500Y-92247000D01*
X168519500Y-92245000D01*
X168517500Y-92243000D01*
X168516500Y-92240000D01*
X168515500Y-92238000D01*
X168514500Y-92235000D01*
X168514500Y-92233000D01*
X168513500Y-92230000D01*
X168513500Y-92228000D01*
X168512500Y-92225000D01*
X168512500Y-92223000D01*
X168512500Y-92220000D01*
X168512500Y-91980000D01*
X168512500Y-91977000D01*
X168512500Y-91975000D01*
X168513500Y-91972000D01*
X168513500Y-91970000D01*
X168514500Y-91967000D01*
X168514500Y-91965000D01*
X168515500Y-91962000D01*
X168516500Y-91960000D01*
X168517500Y-91957000D01*
X168519500Y-91955000D01*
X168520500Y-91953000D01*
X168522500Y-91951000D01*
X168523500Y-91949000D01*
X168525500Y-91947000D01*
X168527500Y-91945000D01*
X168529500Y-91943000D01*
X168531500Y-91941000D01*
X168533500Y-91940000D01*
X168535500Y-91938000D01*
X168537500Y-91937000D01*
X168539500Y-91935000D01*
X168542500Y-91934000D01*
X168544500Y-91933000D01*
X168547500Y-91932000D01*
X168549500Y-91932000D01*
X168552500Y-91931000D01*
X168554500Y-91931000D01*
X168557500Y-91930000D01*
X168559500Y-91930000D01*
X168562500Y-91930000D01*
X169167500Y-91930000D01*
X169170500Y-91930000D01*
X169172500Y-91930000D01*
X169175500Y-91931000D01*
G36*
X169175500Y-91931000D02*
G01*
X169177500Y-91931000D01*
X169180500Y-91932000D01*
X169182500Y-91932000D01*
X169185500Y-91933000D01*
X169187500Y-91934000D01*
X169190500Y-91935000D01*
X169192500Y-91937000D01*
X169194500Y-91938000D01*
X169196500Y-91940000D01*
X169198500Y-91941000D01*
X169200500Y-91943000D01*
X169202500Y-91945000D01*
X169204500Y-91947000D01*
X169206500Y-91949000D01*
X169207500Y-91951000D01*
X169209500Y-91953000D01*
X169210500Y-91955000D01*
X169212500Y-91957000D01*
X169213500Y-91960000D01*
X169214500Y-91962000D01*
X169215500Y-91965000D01*
X169215500Y-91967000D01*
X169216500Y-91970000D01*
X169216500Y-91972000D01*
X169217500Y-91975000D01*
X169217500Y-91977000D01*
X169217500Y-91980000D01*
X169217500Y-92220000D01*
X169217500Y-92223000D01*
X169217500Y-92225000D01*
X169216500Y-92228000D01*
X169216500Y-92230000D01*
X169215500Y-92233000D01*
X169215500Y-92235000D01*
X169214500Y-92238000D01*
X169213500Y-92240000D01*
X169212500Y-92243000D01*
X169210500Y-92245000D01*
X169209500Y-92247000D01*
X169207500Y-92249000D01*
X169206500Y-92251000D01*
X169204500Y-92253000D01*
X169202500Y-92255000D01*
X169200500Y-92257000D01*
X169198500Y-92259000D01*
X169196500Y-92260000D01*
X169194500Y-92262000D01*
X169192500Y-92263000D01*
X169190500Y-92265000D01*
X169187500Y-92266000D01*
X169185500Y-92267000D01*
X169182500Y-92268000D01*
X169180500Y-92268000D01*
X169177500Y-92269000D01*
X169175500Y-92269000D01*
X169172500Y-92270000D01*
X169170500Y-92270000D01*
X169167500Y-92270000D01*
X168562500Y-92270000D01*
X168559500Y-92270000D01*
X168557500Y-92270000D01*
X168554500Y-92269000D01*
X168552500Y-92269000D01*
X168549500Y-92268000D01*
X168547500Y-92268000D01*
X168544500Y-92267000D01*
X168542500Y-92266000D01*
X168539500Y-92265000D01*
X168537500Y-92263000D01*
X168535500Y-92262000D01*
X168533500Y-92260000D01*
X168531500Y-92259000D01*
X168529500Y-92257000D01*
X168527500Y-92255000D01*
X168525500Y-92253000D01*
X168523500Y-92251000D01*
X168522500Y-92249000D01*
X168520500Y-92247000D01*
X168519500Y-92245000D01*
X168517500Y-92243000D01*
X168516500Y-92240000D01*
X168515500Y-92238000D01*
X168514500Y-92235000D01*
X168514500Y-92233000D01*
X168513500Y-92230000D01*
X168513500Y-92228000D01*
X168512500Y-92225000D01*
X168512500Y-92223000D01*
X168512500Y-92220000D01*
X168512500Y-91980000D01*
X168512500Y-91977000D01*
X168512500Y-91975000D01*
X168513500Y-91972000D01*
X168513500Y-91970000D01*
X168514500Y-91967000D01*
X168514500Y-91965000D01*
X168515500Y-91962000D01*
X168516500Y-91960000D01*
X168517500Y-91957000D01*
X168519500Y-91955000D01*
X168520500Y-91953000D01*
X168522500Y-91951000D01*
X168523500Y-91949000D01*
X168525500Y-91947000D01*
X168527500Y-91945000D01*
X168529500Y-91943000D01*
X168531500Y-91941000D01*
X168533500Y-91940000D01*
X168535500Y-91938000D01*
X168537500Y-91937000D01*
X168539500Y-91935000D01*
X168542500Y-91934000D01*
X168544500Y-91933000D01*
X168547500Y-91932000D01*
X168549500Y-91932000D01*
X168552500Y-91931000D01*
X168554500Y-91931000D01*
X168557500Y-91930000D01*
X168559500Y-91930000D01*
X168562500Y-91930000D01*
X169167500Y-91930000D01*
X169170500Y-91930000D01*
X169172500Y-91930000D01*
X169175500Y-91931000D01*
G37*
X169175500Y-92831000D02*
X169177500Y-92831000D01*
X169180500Y-92832000D01*
X169182500Y-92832000D01*
X169185500Y-92833000D01*
X169187500Y-92834000D01*
X169190500Y-92835000D01*
X169192500Y-92837000D01*
X169194500Y-92838000D01*
X169196500Y-92840000D01*
X169198500Y-92841000D01*
X169200500Y-92843000D01*
X169202500Y-92845000D01*
X169204500Y-92847000D01*
X169206500Y-92849000D01*
X169207500Y-92851000D01*
X169209500Y-92853000D01*
X169210500Y-92855000D01*
X169212500Y-92857000D01*
X169213500Y-92860000D01*
X169214500Y-92862000D01*
X169215500Y-92865000D01*
X169215500Y-92867000D01*
X169216500Y-92870000D01*
X169216500Y-92872000D01*
X169217500Y-92875000D01*
X169217500Y-92877000D01*
X169217500Y-92880000D01*
X169217500Y-93320000D01*
X169217500Y-93323000D01*
X169217500Y-93325000D01*
X169216500Y-93328000D01*
X169216500Y-93330000D01*
X169215500Y-93333000D01*
X169215500Y-93335000D01*
X169214500Y-93338000D01*
X169213500Y-93340000D01*
X169212500Y-93343000D01*
X169210500Y-93345000D01*
X169209500Y-93347000D01*
X169207500Y-93349000D01*
X169206500Y-93351000D01*
X169204500Y-93353000D01*
X169202500Y-93355000D01*
X169200500Y-93357000D01*
X169198500Y-93359000D01*
X169196500Y-93360000D01*
X169194500Y-93362000D01*
X169192500Y-93363000D01*
X169190500Y-93365000D01*
X169187500Y-93366000D01*
X169185500Y-93367000D01*
X169182500Y-93368000D01*
X169180500Y-93368000D01*
X169177500Y-93369000D01*
X169175500Y-93369000D01*
X169172500Y-93370000D01*
X169170500Y-93370000D01*
X169167500Y-93370000D01*
X168562500Y-93370000D01*
X168559500Y-93370000D01*
X168557500Y-93370000D01*
X168554500Y-93369000D01*
X168552500Y-93369000D01*
X168549500Y-93368000D01*
X168547500Y-93368000D01*
X168544500Y-93367000D01*
X168542500Y-93366000D01*
X168539500Y-93365000D01*
X168537500Y-93363000D01*
X168535500Y-93362000D01*
X168533500Y-93360000D01*
X168531500Y-93359000D01*
X168529500Y-93357000D01*
X168527500Y-93355000D01*
X168525500Y-93353000D01*
X168523500Y-93351000D01*
X168522500Y-93349000D01*
X168520500Y-93347000D01*
X168519500Y-93345000D01*
X168517500Y-93343000D01*
X168516500Y-93340000D01*
X168515500Y-93338000D01*
X168514500Y-93335000D01*
X168514500Y-93333000D01*
X168513500Y-93330000D01*
X168513500Y-93328000D01*
X168512500Y-93325000D01*
X168512500Y-93323000D01*
X168512500Y-93320000D01*
X168512500Y-92880000D01*
X168512500Y-92877000D01*
X168512500Y-92875000D01*
X168513500Y-92872000D01*
X168513500Y-92870000D01*
X168514500Y-92867000D01*
X168514500Y-92865000D01*
X168515500Y-92862000D01*
X168516500Y-92860000D01*
X168517500Y-92857000D01*
X168519500Y-92855000D01*
X168520500Y-92853000D01*
X168522500Y-92851000D01*
X168523500Y-92849000D01*
X168525500Y-92847000D01*
X168527500Y-92845000D01*
X168529500Y-92843000D01*
X168531500Y-92841000D01*
X168533500Y-92840000D01*
X168535500Y-92838000D01*
X168537500Y-92837000D01*
X168539500Y-92835000D01*
X168542500Y-92834000D01*
X168544500Y-92833000D01*
X168547500Y-92832000D01*
X168549500Y-92832000D01*
X168552500Y-92831000D01*
X168554500Y-92831000D01*
X168557500Y-92830000D01*
X168559500Y-92830000D01*
X168562500Y-92830000D01*
X169167500Y-92830000D01*
X169170500Y-92830000D01*
X169172500Y-92830000D01*
X169175500Y-92831000D01*
G36*
X169175500Y-92831000D02*
G01*
X169177500Y-92831000D01*
X169180500Y-92832000D01*
X169182500Y-92832000D01*
X169185500Y-92833000D01*
X169187500Y-92834000D01*
X169190500Y-92835000D01*
X169192500Y-92837000D01*
X169194500Y-92838000D01*
X169196500Y-92840000D01*
X169198500Y-92841000D01*
X169200500Y-92843000D01*
X169202500Y-92845000D01*
X169204500Y-92847000D01*
X169206500Y-92849000D01*
X169207500Y-92851000D01*
X169209500Y-92853000D01*
X169210500Y-92855000D01*
X169212500Y-92857000D01*
X169213500Y-92860000D01*
X169214500Y-92862000D01*
X169215500Y-92865000D01*
X169215500Y-92867000D01*
X169216500Y-92870000D01*
X169216500Y-92872000D01*
X169217500Y-92875000D01*
X169217500Y-92877000D01*
X169217500Y-92880000D01*
X169217500Y-93320000D01*
X169217500Y-93323000D01*
X169217500Y-93325000D01*
X169216500Y-93328000D01*
X169216500Y-93330000D01*
X169215500Y-93333000D01*
X169215500Y-93335000D01*
X169214500Y-93338000D01*
X169213500Y-93340000D01*
X169212500Y-93343000D01*
X169210500Y-93345000D01*
X169209500Y-93347000D01*
X169207500Y-93349000D01*
X169206500Y-93351000D01*
X169204500Y-93353000D01*
X169202500Y-93355000D01*
X169200500Y-93357000D01*
X169198500Y-93359000D01*
X169196500Y-93360000D01*
X169194500Y-93362000D01*
X169192500Y-93363000D01*
X169190500Y-93365000D01*
X169187500Y-93366000D01*
X169185500Y-93367000D01*
X169182500Y-93368000D01*
X169180500Y-93368000D01*
X169177500Y-93369000D01*
X169175500Y-93369000D01*
X169172500Y-93370000D01*
X169170500Y-93370000D01*
X169167500Y-93370000D01*
X168562500Y-93370000D01*
X168559500Y-93370000D01*
X168557500Y-93370000D01*
X168554500Y-93369000D01*
X168552500Y-93369000D01*
X168549500Y-93368000D01*
X168547500Y-93368000D01*
X168544500Y-93367000D01*
X168542500Y-93366000D01*
X168539500Y-93365000D01*
X168537500Y-93363000D01*
X168535500Y-93362000D01*
X168533500Y-93360000D01*
X168531500Y-93359000D01*
X168529500Y-93357000D01*
X168527500Y-93355000D01*
X168525500Y-93353000D01*
X168523500Y-93351000D01*
X168522500Y-93349000D01*
X168520500Y-93347000D01*
X168519500Y-93345000D01*
X168517500Y-93343000D01*
X168516500Y-93340000D01*
X168515500Y-93338000D01*
X168514500Y-93335000D01*
X168514500Y-93333000D01*
X168513500Y-93330000D01*
X168513500Y-93328000D01*
X168512500Y-93325000D01*
X168512500Y-93323000D01*
X168512500Y-93320000D01*
X168512500Y-92880000D01*
X168512500Y-92877000D01*
X168512500Y-92875000D01*
X168513500Y-92872000D01*
X168513500Y-92870000D01*
X168514500Y-92867000D01*
X168514500Y-92865000D01*
X168515500Y-92862000D01*
X168516500Y-92860000D01*
X168517500Y-92857000D01*
X168519500Y-92855000D01*
X168520500Y-92853000D01*
X168522500Y-92851000D01*
X168523500Y-92849000D01*
X168525500Y-92847000D01*
X168527500Y-92845000D01*
X168529500Y-92843000D01*
X168531500Y-92841000D01*
X168533500Y-92840000D01*
X168535500Y-92838000D01*
X168537500Y-92837000D01*
X168539500Y-92835000D01*
X168542500Y-92834000D01*
X168544500Y-92833000D01*
X168547500Y-92832000D01*
X168549500Y-92832000D01*
X168552500Y-92831000D01*
X168554500Y-92831000D01*
X168557500Y-92830000D01*
X168559500Y-92830000D01*
X168562500Y-92830000D01*
X169167500Y-92830000D01*
X169170500Y-92830000D01*
X169172500Y-92830000D01*
X169175500Y-92831000D01*
G37*
X169175500Y-92431000D02*
X169177500Y-92431000D01*
X169180500Y-92432000D01*
X169182500Y-92432000D01*
X169185500Y-92433000D01*
X169187500Y-92434000D01*
X169190500Y-92435000D01*
X169192500Y-92437000D01*
X169194500Y-92438000D01*
X169196500Y-92440000D01*
X169198500Y-92441000D01*
X169200500Y-92443000D01*
X169202500Y-92445000D01*
X169204500Y-92447000D01*
X169206500Y-92449000D01*
X169207500Y-92451000D01*
X169209500Y-92453000D01*
X169210500Y-92455000D01*
X169212500Y-92457000D01*
X169213500Y-92460000D01*
X169214500Y-92462000D01*
X169215500Y-92465000D01*
X169215500Y-92467000D01*
X169216500Y-92470000D01*
X169216500Y-92472000D01*
X169217500Y-92475000D01*
X169217500Y-92477000D01*
X169217500Y-92480000D01*
X169217500Y-92720000D01*
X169217500Y-92723000D01*
X169217500Y-92725000D01*
X169216500Y-92728000D01*
X169216500Y-92730000D01*
X169215500Y-92733000D01*
X169215500Y-92735000D01*
X169214500Y-92738000D01*
X169213500Y-92740000D01*
X169212500Y-92743000D01*
X169210500Y-92745000D01*
X169209500Y-92747000D01*
X169207500Y-92749000D01*
X169206500Y-92751000D01*
X169204500Y-92753000D01*
X169202500Y-92755000D01*
X169200500Y-92757000D01*
X169198500Y-92759000D01*
X169196500Y-92760000D01*
X169194500Y-92762000D01*
X169192500Y-92763000D01*
X169190500Y-92765000D01*
X169187500Y-92766000D01*
X169185500Y-92767000D01*
X169182500Y-92768000D01*
X169180500Y-92768000D01*
X169177500Y-92769000D01*
X169175500Y-92769000D01*
X169172500Y-92770000D01*
X169170500Y-92770000D01*
X169167500Y-92770000D01*
X168562500Y-92770000D01*
X168559500Y-92770000D01*
X168557500Y-92770000D01*
X168554500Y-92769000D01*
X168552500Y-92769000D01*
X168549500Y-92768000D01*
X168547500Y-92768000D01*
X168544500Y-92767000D01*
X168542500Y-92766000D01*
X168539500Y-92765000D01*
X168537500Y-92763000D01*
X168535500Y-92762000D01*
X168533500Y-92760000D01*
X168531500Y-92759000D01*
X168529500Y-92757000D01*
X168527500Y-92755000D01*
X168525500Y-92753000D01*
X168523500Y-92751000D01*
X168522500Y-92749000D01*
X168520500Y-92747000D01*
X168519500Y-92745000D01*
X168517500Y-92743000D01*
X168516500Y-92740000D01*
X168515500Y-92738000D01*
X168514500Y-92735000D01*
X168514500Y-92733000D01*
X168513500Y-92730000D01*
X168513500Y-92728000D01*
X168512500Y-92725000D01*
X168512500Y-92723000D01*
X168512500Y-92720000D01*
X168512500Y-92480000D01*
X168512500Y-92477000D01*
X168512500Y-92475000D01*
X168513500Y-92472000D01*
X168513500Y-92470000D01*
X168514500Y-92467000D01*
X168514500Y-92465000D01*
X168515500Y-92462000D01*
X168516500Y-92460000D01*
X168517500Y-92457000D01*
X168519500Y-92455000D01*
X168520500Y-92453000D01*
X168522500Y-92451000D01*
X168523500Y-92449000D01*
X168525500Y-92447000D01*
X168527500Y-92445000D01*
X168529500Y-92443000D01*
X168531500Y-92441000D01*
X168533500Y-92440000D01*
X168535500Y-92438000D01*
X168537500Y-92437000D01*
X168539500Y-92435000D01*
X168542500Y-92434000D01*
X168544500Y-92433000D01*
X168547500Y-92432000D01*
X168549500Y-92432000D01*
X168552500Y-92431000D01*
X168554500Y-92431000D01*
X168557500Y-92430000D01*
X168559500Y-92430000D01*
X168562500Y-92430000D01*
X169167500Y-92430000D01*
X169170500Y-92430000D01*
X169172500Y-92430000D01*
X169175500Y-92431000D01*
G36*
X169175500Y-92431000D02*
G01*
X169177500Y-92431000D01*
X169180500Y-92432000D01*
X169182500Y-92432000D01*
X169185500Y-92433000D01*
X169187500Y-92434000D01*
X169190500Y-92435000D01*
X169192500Y-92437000D01*
X169194500Y-92438000D01*
X169196500Y-92440000D01*
X169198500Y-92441000D01*
X169200500Y-92443000D01*
X169202500Y-92445000D01*
X169204500Y-92447000D01*
X169206500Y-92449000D01*
X169207500Y-92451000D01*
X169209500Y-92453000D01*
X169210500Y-92455000D01*
X169212500Y-92457000D01*
X169213500Y-92460000D01*
X169214500Y-92462000D01*
X169215500Y-92465000D01*
X169215500Y-92467000D01*
X169216500Y-92470000D01*
X169216500Y-92472000D01*
X169217500Y-92475000D01*
X169217500Y-92477000D01*
X169217500Y-92480000D01*
X169217500Y-92720000D01*
X169217500Y-92723000D01*
X169217500Y-92725000D01*
X169216500Y-92728000D01*
X169216500Y-92730000D01*
X169215500Y-92733000D01*
X169215500Y-92735000D01*
X169214500Y-92738000D01*
X169213500Y-92740000D01*
X169212500Y-92743000D01*
X169210500Y-92745000D01*
X169209500Y-92747000D01*
X169207500Y-92749000D01*
X169206500Y-92751000D01*
X169204500Y-92753000D01*
X169202500Y-92755000D01*
X169200500Y-92757000D01*
X169198500Y-92759000D01*
X169196500Y-92760000D01*
X169194500Y-92762000D01*
X169192500Y-92763000D01*
X169190500Y-92765000D01*
X169187500Y-92766000D01*
X169185500Y-92767000D01*
X169182500Y-92768000D01*
X169180500Y-92768000D01*
X169177500Y-92769000D01*
X169175500Y-92769000D01*
X169172500Y-92770000D01*
X169170500Y-92770000D01*
X169167500Y-92770000D01*
X168562500Y-92770000D01*
X168559500Y-92770000D01*
X168557500Y-92770000D01*
X168554500Y-92769000D01*
X168552500Y-92769000D01*
X168549500Y-92768000D01*
X168547500Y-92768000D01*
X168544500Y-92767000D01*
X168542500Y-92766000D01*
X168539500Y-92765000D01*
X168537500Y-92763000D01*
X168535500Y-92762000D01*
X168533500Y-92760000D01*
X168531500Y-92759000D01*
X168529500Y-92757000D01*
X168527500Y-92755000D01*
X168525500Y-92753000D01*
X168523500Y-92751000D01*
X168522500Y-92749000D01*
X168520500Y-92747000D01*
X168519500Y-92745000D01*
X168517500Y-92743000D01*
X168516500Y-92740000D01*
X168515500Y-92738000D01*
X168514500Y-92735000D01*
X168514500Y-92733000D01*
X168513500Y-92730000D01*
X168513500Y-92728000D01*
X168512500Y-92725000D01*
X168512500Y-92723000D01*
X168512500Y-92720000D01*
X168512500Y-92480000D01*
X168512500Y-92477000D01*
X168512500Y-92475000D01*
X168513500Y-92472000D01*
X168513500Y-92470000D01*
X168514500Y-92467000D01*
X168514500Y-92465000D01*
X168515500Y-92462000D01*
X168516500Y-92460000D01*
X168517500Y-92457000D01*
X168519500Y-92455000D01*
X168520500Y-92453000D01*
X168522500Y-92451000D01*
X168523500Y-92449000D01*
X168525500Y-92447000D01*
X168527500Y-92445000D01*
X168529500Y-92443000D01*
X168531500Y-92441000D01*
X168533500Y-92440000D01*
X168535500Y-92438000D01*
X168537500Y-92437000D01*
X168539500Y-92435000D01*
X168542500Y-92434000D01*
X168544500Y-92433000D01*
X168547500Y-92432000D01*
X168549500Y-92432000D01*
X168552500Y-92431000D01*
X168554500Y-92431000D01*
X168557500Y-92430000D01*
X168559500Y-92430000D01*
X168562500Y-92430000D01*
X169167500Y-92430000D01*
X169170500Y-92430000D01*
X169172500Y-92430000D01*
X169175500Y-92431000D01*
G37*
X169175500Y-93431000D02*
X169177500Y-93431000D01*
X169180500Y-93432000D01*
X169182500Y-93432000D01*
X169185500Y-93433000D01*
X169187500Y-93434000D01*
X169190500Y-93435000D01*
X169192500Y-93437000D01*
X169194500Y-93438000D01*
X169196500Y-93440000D01*
X169198500Y-93441000D01*
X169200500Y-93443000D01*
X169202500Y-93445000D01*
X169204500Y-93447000D01*
X169206500Y-93449000D01*
X169207500Y-93451000D01*
X169209500Y-93453000D01*
X169210500Y-93455000D01*
X169212500Y-93457000D01*
X169213500Y-93460000D01*
X169214500Y-93462000D01*
X169215500Y-93465000D01*
X169215500Y-93467000D01*
X169216500Y-93470000D01*
X169216500Y-93472000D01*
X169217500Y-93475000D01*
X169217500Y-93477000D01*
X169217500Y-93480000D01*
X169217500Y-93720000D01*
X169217500Y-93723000D01*
X169217500Y-93725000D01*
X169216500Y-93728000D01*
X169216500Y-93730000D01*
X169215500Y-93733000D01*
X169215500Y-93735000D01*
X169214500Y-93738000D01*
X169213500Y-93740000D01*
X169212500Y-93743000D01*
X169210500Y-93745000D01*
X169209500Y-93747000D01*
X169207500Y-93749000D01*
X169206500Y-93751000D01*
X169204500Y-93753000D01*
X169202500Y-93755000D01*
X169200500Y-93757000D01*
X169198500Y-93759000D01*
X169196500Y-93760000D01*
X169194500Y-93762000D01*
X169192500Y-93763000D01*
X169190500Y-93765000D01*
X169187500Y-93766000D01*
X169185500Y-93767000D01*
X169182500Y-93768000D01*
X169180500Y-93768000D01*
X169177500Y-93769000D01*
X169175500Y-93769000D01*
X169172500Y-93770000D01*
X169170500Y-93770000D01*
X169167500Y-93770000D01*
X168562500Y-93770000D01*
X168559500Y-93770000D01*
X168557500Y-93770000D01*
X168554500Y-93769000D01*
X168552500Y-93769000D01*
X168549500Y-93768000D01*
X168547500Y-93768000D01*
X168544500Y-93767000D01*
X168542500Y-93766000D01*
X168539500Y-93765000D01*
X168537500Y-93763000D01*
X168535500Y-93762000D01*
X168533500Y-93760000D01*
X168531500Y-93759000D01*
X168529500Y-93757000D01*
X168527500Y-93755000D01*
X168525500Y-93753000D01*
X168523500Y-93751000D01*
X168522500Y-93749000D01*
X168520500Y-93747000D01*
X168519500Y-93745000D01*
X168517500Y-93743000D01*
X168516500Y-93740000D01*
X168515500Y-93738000D01*
X168514500Y-93735000D01*
X168514500Y-93733000D01*
X168513500Y-93730000D01*
X168513500Y-93728000D01*
X168512500Y-93725000D01*
X168512500Y-93723000D01*
X168512500Y-93720000D01*
X168512500Y-93480000D01*
X168512500Y-93477000D01*
X168512500Y-93475000D01*
X168513500Y-93472000D01*
X168513500Y-93470000D01*
X168514500Y-93467000D01*
X168514500Y-93465000D01*
X168515500Y-93462000D01*
X168516500Y-93460000D01*
X168517500Y-93457000D01*
X168519500Y-93455000D01*
X168520500Y-93453000D01*
X168522500Y-93451000D01*
X168523500Y-93449000D01*
X168525500Y-93447000D01*
X168527500Y-93445000D01*
X168529500Y-93443000D01*
X168531500Y-93441000D01*
X168533500Y-93440000D01*
X168535500Y-93438000D01*
X168537500Y-93437000D01*
X168539500Y-93435000D01*
X168542500Y-93434000D01*
X168544500Y-93433000D01*
X168547500Y-93432000D01*
X168549500Y-93432000D01*
X168552500Y-93431000D01*
X168554500Y-93431000D01*
X168557500Y-93430000D01*
X168559500Y-93430000D01*
X168562500Y-93430000D01*
X169167500Y-93430000D01*
X169170500Y-93430000D01*
X169172500Y-93430000D01*
X169175500Y-93431000D01*
G36*
X169175500Y-93431000D02*
G01*
X169177500Y-93431000D01*
X169180500Y-93432000D01*
X169182500Y-93432000D01*
X169185500Y-93433000D01*
X169187500Y-93434000D01*
X169190500Y-93435000D01*
X169192500Y-93437000D01*
X169194500Y-93438000D01*
X169196500Y-93440000D01*
X169198500Y-93441000D01*
X169200500Y-93443000D01*
X169202500Y-93445000D01*
X169204500Y-93447000D01*
X169206500Y-93449000D01*
X169207500Y-93451000D01*
X169209500Y-93453000D01*
X169210500Y-93455000D01*
X169212500Y-93457000D01*
X169213500Y-93460000D01*
X169214500Y-93462000D01*
X169215500Y-93465000D01*
X169215500Y-93467000D01*
X169216500Y-93470000D01*
X169216500Y-93472000D01*
X169217500Y-93475000D01*
X169217500Y-93477000D01*
X169217500Y-93480000D01*
X169217500Y-93720000D01*
X169217500Y-93723000D01*
X169217500Y-93725000D01*
X169216500Y-93728000D01*
X169216500Y-93730000D01*
X169215500Y-93733000D01*
X169215500Y-93735000D01*
X169214500Y-93738000D01*
X169213500Y-93740000D01*
X169212500Y-93743000D01*
X169210500Y-93745000D01*
X169209500Y-93747000D01*
X169207500Y-93749000D01*
X169206500Y-93751000D01*
X169204500Y-93753000D01*
X169202500Y-93755000D01*
X169200500Y-93757000D01*
X169198500Y-93759000D01*
X169196500Y-93760000D01*
X169194500Y-93762000D01*
X169192500Y-93763000D01*
X169190500Y-93765000D01*
X169187500Y-93766000D01*
X169185500Y-93767000D01*
X169182500Y-93768000D01*
X169180500Y-93768000D01*
X169177500Y-93769000D01*
X169175500Y-93769000D01*
X169172500Y-93770000D01*
X169170500Y-93770000D01*
X169167500Y-93770000D01*
X168562500Y-93770000D01*
X168559500Y-93770000D01*
X168557500Y-93770000D01*
X168554500Y-93769000D01*
X168552500Y-93769000D01*
X168549500Y-93768000D01*
X168547500Y-93768000D01*
X168544500Y-93767000D01*
X168542500Y-93766000D01*
X168539500Y-93765000D01*
X168537500Y-93763000D01*
X168535500Y-93762000D01*
X168533500Y-93760000D01*
X168531500Y-93759000D01*
X168529500Y-93757000D01*
X168527500Y-93755000D01*
X168525500Y-93753000D01*
X168523500Y-93751000D01*
X168522500Y-93749000D01*
X168520500Y-93747000D01*
X168519500Y-93745000D01*
X168517500Y-93743000D01*
X168516500Y-93740000D01*
X168515500Y-93738000D01*
X168514500Y-93735000D01*
X168514500Y-93733000D01*
X168513500Y-93730000D01*
X168513500Y-93728000D01*
X168512500Y-93725000D01*
X168512500Y-93723000D01*
X168512500Y-93720000D01*
X168512500Y-93480000D01*
X168512500Y-93477000D01*
X168512500Y-93475000D01*
X168513500Y-93472000D01*
X168513500Y-93470000D01*
X168514500Y-93467000D01*
X168514500Y-93465000D01*
X168515500Y-93462000D01*
X168516500Y-93460000D01*
X168517500Y-93457000D01*
X168519500Y-93455000D01*
X168520500Y-93453000D01*
X168522500Y-93451000D01*
X168523500Y-93449000D01*
X168525500Y-93447000D01*
X168527500Y-93445000D01*
X168529500Y-93443000D01*
X168531500Y-93441000D01*
X168533500Y-93440000D01*
X168535500Y-93438000D01*
X168537500Y-93437000D01*
X168539500Y-93435000D01*
X168542500Y-93434000D01*
X168544500Y-93433000D01*
X168547500Y-93432000D01*
X168549500Y-93432000D01*
X168552500Y-93431000D01*
X168554500Y-93431000D01*
X168557500Y-93430000D01*
X168559500Y-93430000D01*
X168562500Y-93430000D01*
X169167500Y-93430000D01*
X169170500Y-93430000D01*
X169172500Y-93430000D01*
X169175500Y-93431000D01*
G37*
X170010500Y-92431000D02*
X170012500Y-92431000D01*
X170015500Y-92432000D01*
X170017500Y-92432000D01*
X170020500Y-92433000D01*
X170022500Y-92434000D01*
X170025500Y-92435000D01*
X170027500Y-92437000D01*
X170029500Y-92438000D01*
X170031500Y-92440000D01*
X170033500Y-92441000D01*
X170035500Y-92443000D01*
X170037500Y-92445000D01*
X170039500Y-92447000D01*
X170041500Y-92449000D01*
X170042500Y-92451000D01*
X170044500Y-92453000D01*
X170045500Y-92455000D01*
X170047500Y-92457000D01*
X170048500Y-92460000D01*
X170049500Y-92462000D01*
X170050500Y-92465000D01*
X170050500Y-92467000D01*
X170051500Y-92470000D01*
X170051500Y-92472000D01*
X170052500Y-92475000D01*
X170052500Y-92477000D01*
X170052500Y-92480000D01*
X170052500Y-92720000D01*
X170052500Y-92723000D01*
X170052500Y-92725000D01*
X170051500Y-92728000D01*
X170051500Y-92730000D01*
X170050500Y-92733000D01*
X170050500Y-92735000D01*
X170049500Y-92738000D01*
X170048500Y-92740000D01*
X170047500Y-92743000D01*
X170045500Y-92745000D01*
X170044500Y-92747000D01*
X170042500Y-92749000D01*
X170041500Y-92751000D01*
X170039500Y-92753000D01*
X170037500Y-92755000D01*
X170035500Y-92757000D01*
X170033500Y-92759000D01*
X170031500Y-92760000D01*
X170029500Y-92762000D01*
X170027500Y-92763000D01*
X170025500Y-92765000D01*
X170022500Y-92766000D01*
X170020500Y-92767000D01*
X170017500Y-92768000D01*
X170015500Y-92768000D01*
X170012500Y-92769000D01*
X170010500Y-92769000D01*
X170007500Y-92770000D01*
X170005500Y-92770000D01*
X170002500Y-92770000D01*
X169397500Y-92770000D01*
X169394500Y-92770000D01*
X169392500Y-92770000D01*
X169389500Y-92769000D01*
X169387500Y-92769000D01*
X169384500Y-92768000D01*
X169382500Y-92768000D01*
X169379500Y-92767000D01*
X169377500Y-92766000D01*
X169374500Y-92765000D01*
X169372500Y-92763000D01*
X169370500Y-92762000D01*
X169368500Y-92760000D01*
X169366500Y-92759000D01*
X169364500Y-92757000D01*
X169362500Y-92755000D01*
X169360500Y-92753000D01*
X169358500Y-92751000D01*
X169357500Y-92749000D01*
X169355500Y-92747000D01*
X169354500Y-92745000D01*
X169352500Y-92743000D01*
X169351500Y-92740000D01*
X169350500Y-92738000D01*
X169349500Y-92735000D01*
X169349500Y-92733000D01*
X169348500Y-92730000D01*
X169348500Y-92728000D01*
X169347500Y-92725000D01*
X169347500Y-92723000D01*
X169347500Y-92720000D01*
X169347500Y-92480000D01*
X169347500Y-92477000D01*
X169347500Y-92475000D01*
X169348500Y-92472000D01*
X169348500Y-92470000D01*
X169349500Y-92467000D01*
X169349500Y-92465000D01*
X169350500Y-92462000D01*
X169351500Y-92460000D01*
X169352500Y-92457000D01*
X169354500Y-92455000D01*
X169355500Y-92453000D01*
X169357500Y-92451000D01*
X169358500Y-92449000D01*
X169360500Y-92447000D01*
X169362500Y-92445000D01*
X169364500Y-92443000D01*
X169366500Y-92441000D01*
X169368500Y-92440000D01*
X169370500Y-92438000D01*
X169372500Y-92437000D01*
X169374500Y-92435000D01*
X169377500Y-92434000D01*
X169379500Y-92433000D01*
X169382500Y-92432000D01*
X169384500Y-92432000D01*
X169387500Y-92431000D01*
X169389500Y-92431000D01*
X169392500Y-92430000D01*
X169394500Y-92430000D01*
X169397500Y-92430000D01*
X170002500Y-92430000D01*
X170005500Y-92430000D01*
X170007500Y-92430000D01*
X170010500Y-92431000D01*
G36*
X170010500Y-92431000D02*
G01*
X170012500Y-92431000D01*
X170015500Y-92432000D01*
X170017500Y-92432000D01*
X170020500Y-92433000D01*
X170022500Y-92434000D01*
X170025500Y-92435000D01*
X170027500Y-92437000D01*
X170029500Y-92438000D01*
X170031500Y-92440000D01*
X170033500Y-92441000D01*
X170035500Y-92443000D01*
X170037500Y-92445000D01*
X170039500Y-92447000D01*
X170041500Y-92449000D01*
X170042500Y-92451000D01*
X170044500Y-92453000D01*
X170045500Y-92455000D01*
X170047500Y-92457000D01*
X170048500Y-92460000D01*
X170049500Y-92462000D01*
X170050500Y-92465000D01*
X170050500Y-92467000D01*
X170051500Y-92470000D01*
X170051500Y-92472000D01*
X170052500Y-92475000D01*
X170052500Y-92477000D01*
X170052500Y-92480000D01*
X170052500Y-92720000D01*
X170052500Y-92723000D01*
X170052500Y-92725000D01*
X170051500Y-92728000D01*
X170051500Y-92730000D01*
X170050500Y-92733000D01*
X170050500Y-92735000D01*
X170049500Y-92738000D01*
X170048500Y-92740000D01*
X170047500Y-92743000D01*
X170045500Y-92745000D01*
X170044500Y-92747000D01*
X170042500Y-92749000D01*
X170041500Y-92751000D01*
X170039500Y-92753000D01*
X170037500Y-92755000D01*
X170035500Y-92757000D01*
X170033500Y-92759000D01*
X170031500Y-92760000D01*
X170029500Y-92762000D01*
X170027500Y-92763000D01*
X170025500Y-92765000D01*
X170022500Y-92766000D01*
X170020500Y-92767000D01*
X170017500Y-92768000D01*
X170015500Y-92768000D01*
X170012500Y-92769000D01*
X170010500Y-92769000D01*
X170007500Y-92770000D01*
X170005500Y-92770000D01*
X170002500Y-92770000D01*
X169397500Y-92770000D01*
X169394500Y-92770000D01*
X169392500Y-92770000D01*
X169389500Y-92769000D01*
X169387500Y-92769000D01*
X169384500Y-92768000D01*
X169382500Y-92768000D01*
X169379500Y-92767000D01*
X169377500Y-92766000D01*
X169374500Y-92765000D01*
X169372500Y-92763000D01*
X169370500Y-92762000D01*
X169368500Y-92760000D01*
X169366500Y-92759000D01*
X169364500Y-92757000D01*
X169362500Y-92755000D01*
X169360500Y-92753000D01*
X169358500Y-92751000D01*
X169357500Y-92749000D01*
X169355500Y-92747000D01*
X169354500Y-92745000D01*
X169352500Y-92743000D01*
X169351500Y-92740000D01*
X169350500Y-92738000D01*
X169349500Y-92735000D01*
X169349500Y-92733000D01*
X169348500Y-92730000D01*
X169348500Y-92728000D01*
X169347500Y-92725000D01*
X169347500Y-92723000D01*
X169347500Y-92720000D01*
X169347500Y-92480000D01*
X169347500Y-92477000D01*
X169347500Y-92475000D01*
X169348500Y-92472000D01*
X169348500Y-92470000D01*
X169349500Y-92467000D01*
X169349500Y-92465000D01*
X169350500Y-92462000D01*
X169351500Y-92460000D01*
X169352500Y-92457000D01*
X169354500Y-92455000D01*
X169355500Y-92453000D01*
X169357500Y-92451000D01*
X169358500Y-92449000D01*
X169360500Y-92447000D01*
X169362500Y-92445000D01*
X169364500Y-92443000D01*
X169366500Y-92441000D01*
X169368500Y-92440000D01*
X169370500Y-92438000D01*
X169372500Y-92437000D01*
X169374500Y-92435000D01*
X169377500Y-92434000D01*
X169379500Y-92433000D01*
X169382500Y-92432000D01*
X169384500Y-92432000D01*
X169387500Y-92431000D01*
X169389500Y-92431000D01*
X169392500Y-92430000D01*
X169394500Y-92430000D01*
X169397500Y-92430000D01*
X170002500Y-92430000D01*
X170005500Y-92430000D01*
X170007500Y-92430000D01*
X170010500Y-92431000D01*
G37*
X170010500Y-93431000D02*
X170012500Y-93431000D01*
X170015500Y-93432000D01*
X170017500Y-93432000D01*
X170020500Y-93433000D01*
X170022500Y-93434000D01*
X170025500Y-93435000D01*
X170027500Y-93437000D01*
X170029500Y-93438000D01*
X170031500Y-93440000D01*
X170033500Y-93441000D01*
X170035500Y-93443000D01*
X170037500Y-93445000D01*
X170039500Y-93447000D01*
X170041500Y-93449000D01*
X170042500Y-93451000D01*
X170044500Y-93453000D01*
X170045500Y-93455000D01*
X170047500Y-93457000D01*
X170048500Y-93460000D01*
X170049500Y-93462000D01*
X170050500Y-93465000D01*
X170050500Y-93467000D01*
X170051500Y-93470000D01*
X170051500Y-93472000D01*
X170052500Y-93475000D01*
X170052500Y-93477000D01*
X170052500Y-93480000D01*
X170052500Y-93720000D01*
X170052500Y-93723000D01*
X170052500Y-93725000D01*
X170051500Y-93728000D01*
X170051500Y-93730000D01*
X170050500Y-93733000D01*
X170050500Y-93735000D01*
X170049500Y-93738000D01*
X170048500Y-93740000D01*
X170047500Y-93743000D01*
X170045500Y-93745000D01*
X170044500Y-93747000D01*
X170042500Y-93749000D01*
X170041500Y-93751000D01*
X170039500Y-93753000D01*
X170037500Y-93755000D01*
X170035500Y-93757000D01*
X170033500Y-93759000D01*
X170031500Y-93760000D01*
X170029500Y-93762000D01*
X170027500Y-93763000D01*
X170025500Y-93765000D01*
X170022500Y-93766000D01*
X170020500Y-93767000D01*
X170017500Y-93768000D01*
X170015500Y-93768000D01*
X170012500Y-93769000D01*
X170010500Y-93769000D01*
X170007500Y-93770000D01*
X170005500Y-93770000D01*
X170002500Y-93770000D01*
X169397500Y-93770000D01*
X169394500Y-93770000D01*
X169392500Y-93770000D01*
X169389500Y-93769000D01*
X169387500Y-93769000D01*
X169384500Y-93768000D01*
X169382500Y-93768000D01*
X169379500Y-93767000D01*
X169377500Y-93766000D01*
X169374500Y-93765000D01*
X169372500Y-93763000D01*
X169370500Y-93762000D01*
X169368500Y-93760000D01*
X169366500Y-93759000D01*
X169364500Y-93757000D01*
X169362500Y-93755000D01*
X169360500Y-93753000D01*
X169358500Y-93751000D01*
X169357500Y-93749000D01*
X169355500Y-93747000D01*
X169354500Y-93745000D01*
X169352500Y-93743000D01*
X169351500Y-93740000D01*
X169350500Y-93738000D01*
X169349500Y-93735000D01*
X169349500Y-93733000D01*
X169348500Y-93730000D01*
X169348500Y-93728000D01*
X169347500Y-93725000D01*
X169347500Y-93723000D01*
X169347500Y-93720000D01*
X169347500Y-93480000D01*
X169347500Y-93477000D01*
X169347500Y-93475000D01*
X169348500Y-93472000D01*
X169348500Y-93470000D01*
X169349500Y-93467000D01*
X169349500Y-93465000D01*
X169350500Y-93462000D01*
X169351500Y-93460000D01*
X169352500Y-93457000D01*
X169354500Y-93455000D01*
X169355500Y-93453000D01*
X169357500Y-93451000D01*
X169358500Y-93449000D01*
X169360500Y-93447000D01*
X169362500Y-93445000D01*
X169364500Y-93443000D01*
X169366500Y-93441000D01*
X169368500Y-93440000D01*
X169370500Y-93438000D01*
X169372500Y-93437000D01*
X169374500Y-93435000D01*
X169377500Y-93434000D01*
X169379500Y-93433000D01*
X169382500Y-93432000D01*
X169384500Y-93432000D01*
X169387500Y-93431000D01*
X169389500Y-93431000D01*
X169392500Y-93430000D01*
X169394500Y-93430000D01*
X169397500Y-93430000D01*
X170002500Y-93430000D01*
X170005500Y-93430000D01*
X170007500Y-93430000D01*
X170010500Y-93431000D01*
G36*
X170010500Y-93431000D02*
G01*
X170012500Y-93431000D01*
X170015500Y-93432000D01*
X170017500Y-93432000D01*
X170020500Y-93433000D01*
X170022500Y-93434000D01*
X170025500Y-93435000D01*
X170027500Y-93437000D01*
X170029500Y-93438000D01*
X170031500Y-93440000D01*
X170033500Y-93441000D01*
X170035500Y-93443000D01*
X170037500Y-93445000D01*
X170039500Y-93447000D01*
X170041500Y-93449000D01*
X170042500Y-93451000D01*
X170044500Y-93453000D01*
X170045500Y-93455000D01*
X170047500Y-93457000D01*
X170048500Y-93460000D01*
X170049500Y-93462000D01*
X170050500Y-93465000D01*
X170050500Y-93467000D01*
X170051500Y-93470000D01*
X170051500Y-93472000D01*
X170052500Y-93475000D01*
X170052500Y-93477000D01*
X170052500Y-93480000D01*
X170052500Y-93720000D01*
X170052500Y-93723000D01*
X170052500Y-93725000D01*
X170051500Y-93728000D01*
X170051500Y-93730000D01*
X170050500Y-93733000D01*
X170050500Y-93735000D01*
X170049500Y-93738000D01*
X170048500Y-93740000D01*
X170047500Y-93743000D01*
X170045500Y-93745000D01*
X170044500Y-93747000D01*
X170042500Y-93749000D01*
X170041500Y-93751000D01*
X170039500Y-93753000D01*
X170037500Y-93755000D01*
X170035500Y-93757000D01*
X170033500Y-93759000D01*
X170031500Y-93760000D01*
X170029500Y-93762000D01*
X170027500Y-93763000D01*
X170025500Y-93765000D01*
X170022500Y-93766000D01*
X170020500Y-93767000D01*
X170017500Y-93768000D01*
X170015500Y-93768000D01*
X170012500Y-93769000D01*
X170010500Y-93769000D01*
X170007500Y-93770000D01*
X170005500Y-93770000D01*
X170002500Y-93770000D01*
X169397500Y-93770000D01*
X169394500Y-93770000D01*
X169392500Y-93770000D01*
X169389500Y-93769000D01*
X169387500Y-93769000D01*
X169384500Y-93768000D01*
X169382500Y-93768000D01*
X169379500Y-93767000D01*
X169377500Y-93766000D01*
X169374500Y-93765000D01*
X169372500Y-93763000D01*
X169370500Y-93762000D01*
X169368500Y-93760000D01*
X169366500Y-93759000D01*
X169364500Y-93757000D01*
X169362500Y-93755000D01*
X169360500Y-93753000D01*
X169358500Y-93751000D01*
X169357500Y-93749000D01*
X169355500Y-93747000D01*
X169354500Y-93745000D01*
X169352500Y-93743000D01*
X169351500Y-93740000D01*
X169350500Y-93738000D01*
X169349500Y-93735000D01*
X169349500Y-93733000D01*
X169348500Y-93730000D01*
X169348500Y-93728000D01*
X169347500Y-93725000D01*
X169347500Y-93723000D01*
X169347500Y-93720000D01*
X169347500Y-93480000D01*
X169347500Y-93477000D01*
X169347500Y-93475000D01*
X169348500Y-93472000D01*
X169348500Y-93470000D01*
X169349500Y-93467000D01*
X169349500Y-93465000D01*
X169350500Y-93462000D01*
X169351500Y-93460000D01*
X169352500Y-93457000D01*
X169354500Y-93455000D01*
X169355500Y-93453000D01*
X169357500Y-93451000D01*
X169358500Y-93449000D01*
X169360500Y-93447000D01*
X169362500Y-93445000D01*
X169364500Y-93443000D01*
X169366500Y-93441000D01*
X169368500Y-93440000D01*
X169370500Y-93438000D01*
X169372500Y-93437000D01*
X169374500Y-93435000D01*
X169377500Y-93434000D01*
X169379500Y-93433000D01*
X169382500Y-93432000D01*
X169384500Y-93432000D01*
X169387500Y-93431000D01*
X169389500Y-93431000D01*
X169392500Y-93430000D01*
X169394500Y-93430000D01*
X169397500Y-93430000D01*
X170002500Y-93430000D01*
X170005500Y-93430000D01*
X170007500Y-93430000D01*
X170010500Y-93431000D01*
G37*
X170010500Y-91931000D02*
X170012500Y-91931000D01*
X170015500Y-91932000D01*
X170017500Y-91932000D01*
X170020500Y-91933000D01*
X170022500Y-91934000D01*
X170025500Y-91935000D01*
X170027500Y-91937000D01*
X170029500Y-91938000D01*
X170031500Y-91940000D01*
X170033500Y-91941000D01*
X170035500Y-91943000D01*
X170037500Y-91945000D01*
X170039500Y-91947000D01*
X170041500Y-91949000D01*
X170042500Y-91951000D01*
X170044500Y-91953000D01*
X170045500Y-91955000D01*
X170047500Y-91957000D01*
X170048500Y-91960000D01*
X170049500Y-91962000D01*
X170050500Y-91965000D01*
X170050500Y-91967000D01*
X170051500Y-91970000D01*
X170051500Y-91972000D01*
X170052500Y-91975000D01*
X170052500Y-91977000D01*
X170052500Y-91980000D01*
X170052500Y-92220000D01*
X170052500Y-92223000D01*
X170052500Y-92225000D01*
X170051500Y-92228000D01*
X170051500Y-92230000D01*
X170050500Y-92233000D01*
X170050500Y-92235000D01*
X170049500Y-92238000D01*
X170048500Y-92240000D01*
X170047500Y-92243000D01*
X170045500Y-92245000D01*
X170044500Y-92247000D01*
X170042500Y-92249000D01*
X170041500Y-92251000D01*
X170039500Y-92253000D01*
X170037500Y-92255000D01*
X170035500Y-92257000D01*
X170033500Y-92259000D01*
X170031500Y-92260000D01*
X170029500Y-92262000D01*
X170027500Y-92263000D01*
X170025500Y-92265000D01*
X170022500Y-92266000D01*
X170020500Y-92267000D01*
X170017500Y-92268000D01*
X170015500Y-92268000D01*
X170012500Y-92269000D01*
X170010500Y-92269000D01*
X170007500Y-92270000D01*
X170005500Y-92270000D01*
X170002500Y-92270000D01*
X169397500Y-92270000D01*
X169394500Y-92270000D01*
X169392500Y-92270000D01*
X169389500Y-92269000D01*
X169387500Y-92269000D01*
X169384500Y-92268000D01*
X169382500Y-92268000D01*
X169379500Y-92267000D01*
X169377500Y-92266000D01*
X169374500Y-92265000D01*
X169372500Y-92263000D01*
X169370500Y-92262000D01*
X169368500Y-92260000D01*
X169366500Y-92259000D01*
X169364500Y-92257000D01*
X169362500Y-92255000D01*
X169360500Y-92253000D01*
X169358500Y-92251000D01*
X169357500Y-92249000D01*
X169355500Y-92247000D01*
X169354500Y-92245000D01*
X169352500Y-92243000D01*
X169351500Y-92240000D01*
X169350500Y-92238000D01*
X169349500Y-92235000D01*
X169349500Y-92233000D01*
X169348500Y-92230000D01*
X169348500Y-92228000D01*
X169347500Y-92225000D01*
X169347500Y-92223000D01*
X169347500Y-92220000D01*
X169347500Y-91980000D01*
X169347500Y-91977000D01*
X169347500Y-91975000D01*
X169348500Y-91972000D01*
X169348500Y-91970000D01*
X169349500Y-91967000D01*
X169349500Y-91965000D01*
X169350500Y-91962000D01*
X169351500Y-91960000D01*
X169352500Y-91957000D01*
X169354500Y-91955000D01*
X169355500Y-91953000D01*
X169357500Y-91951000D01*
X169358500Y-91949000D01*
X169360500Y-91947000D01*
X169362500Y-91945000D01*
X169364500Y-91943000D01*
X169366500Y-91941000D01*
X169368500Y-91940000D01*
X169370500Y-91938000D01*
X169372500Y-91937000D01*
X169374500Y-91935000D01*
X169377500Y-91934000D01*
X169379500Y-91933000D01*
X169382500Y-91932000D01*
X169384500Y-91932000D01*
X169387500Y-91931000D01*
X169389500Y-91931000D01*
X169392500Y-91930000D01*
X169394500Y-91930000D01*
X169397500Y-91930000D01*
X170002500Y-91930000D01*
X170005500Y-91930000D01*
X170007500Y-91930000D01*
X170010500Y-91931000D01*
G36*
X170010500Y-91931000D02*
G01*
X170012500Y-91931000D01*
X170015500Y-91932000D01*
X170017500Y-91932000D01*
X170020500Y-91933000D01*
X170022500Y-91934000D01*
X170025500Y-91935000D01*
X170027500Y-91937000D01*
X170029500Y-91938000D01*
X170031500Y-91940000D01*
X170033500Y-91941000D01*
X170035500Y-91943000D01*
X170037500Y-91945000D01*
X170039500Y-91947000D01*
X170041500Y-91949000D01*
X170042500Y-91951000D01*
X170044500Y-91953000D01*
X170045500Y-91955000D01*
X170047500Y-91957000D01*
X170048500Y-91960000D01*
X170049500Y-91962000D01*
X170050500Y-91965000D01*
X170050500Y-91967000D01*
X170051500Y-91970000D01*
X170051500Y-91972000D01*
X170052500Y-91975000D01*
X170052500Y-91977000D01*
X170052500Y-91980000D01*
X170052500Y-92220000D01*
X170052500Y-92223000D01*
X170052500Y-92225000D01*
X170051500Y-92228000D01*
X170051500Y-92230000D01*
X170050500Y-92233000D01*
X170050500Y-92235000D01*
X170049500Y-92238000D01*
X170048500Y-92240000D01*
X170047500Y-92243000D01*
X170045500Y-92245000D01*
X170044500Y-92247000D01*
X170042500Y-92249000D01*
X170041500Y-92251000D01*
X170039500Y-92253000D01*
X170037500Y-92255000D01*
X170035500Y-92257000D01*
X170033500Y-92259000D01*
X170031500Y-92260000D01*
X170029500Y-92262000D01*
X170027500Y-92263000D01*
X170025500Y-92265000D01*
X170022500Y-92266000D01*
X170020500Y-92267000D01*
X170017500Y-92268000D01*
X170015500Y-92268000D01*
X170012500Y-92269000D01*
X170010500Y-92269000D01*
X170007500Y-92270000D01*
X170005500Y-92270000D01*
X170002500Y-92270000D01*
X169397500Y-92270000D01*
X169394500Y-92270000D01*
X169392500Y-92270000D01*
X169389500Y-92269000D01*
X169387500Y-92269000D01*
X169384500Y-92268000D01*
X169382500Y-92268000D01*
X169379500Y-92267000D01*
X169377500Y-92266000D01*
X169374500Y-92265000D01*
X169372500Y-92263000D01*
X169370500Y-92262000D01*
X169368500Y-92260000D01*
X169366500Y-92259000D01*
X169364500Y-92257000D01*
X169362500Y-92255000D01*
X169360500Y-92253000D01*
X169358500Y-92251000D01*
X169357500Y-92249000D01*
X169355500Y-92247000D01*
X169354500Y-92245000D01*
X169352500Y-92243000D01*
X169351500Y-92240000D01*
X169350500Y-92238000D01*
X169349500Y-92235000D01*
X169349500Y-92233000D01*
X169348500Y-92230000D01*
X169348500Y-92228000D01*
X169347500Y-92225000D01*
X169347500Y-92223000D01*
X169347500Y-92220000D01*
X169347500Y-91980000D01*
X169347500Y-91977000D01*
X169347500Y-91975000D01*
X169348500Y-91972000D01*
X169348500Y-91970000D01*
X169349500Y-91967000D01*
X169349500Y-91965000D01*
X169350500Y-91962000D01*
X169351500Y-91960000D01*
X169352500Y-91957000D01*
X169354500Y-91955000D01*
X169355500Y-91953000D01*
X169357500Y-91951000D01*
X169358500Y-91949000D01*
X169360500Y-91947000D01*
X169362500Y-91945000D01*
X169364500Y-91943000D01*
X169366500Y-91941000D01*
X169368500Y-91940000D01*
X169370500Y-91938000D01*
X169372500Y-91937000D01*
X169374500Y-91935000D01*
X169377500Y-91934000D01*
X169379500Y-91933000D01*
X169382500Y-91932000D01*
X169384500Y-91932000D01*
X169387500Y-91931000D01*
X169389500Y-91931000D01*
X169392500Y-91930000D01*
X169394500Y-91930000D01*
X169397500Y-91930000D01*
X170002500Y-91930000D01*
X170005500Y-91930000D01*
X170007500Y-91930000D01*
X170010500Y-91931000D01*
G37*
X170010500Y-92831000D02*
X170012500Y-92831000D01*
X170015500Y-92832000D01*
X170017500Y-92832000D01*
X170020500Y-92833000D01*
X170022500Y-92834000D01*
X170025500Y-92835000D01*
X170027500Y-92837000D01*
X170029500Y-92838000D01*
X170031500Y-92840000D01*
X170033500Y-92841000D01*
X170035500Y-92843000D01*
X170037500Y-92845000D01*
X170039500Y-92847000D01*
X170041500Y-92849000D01*
X170042500Y-92851000D01*
X170044500Y-92853000D01*
X170045500Y-92855000D01*
X170047500Y-92857000D01*
X170048500Y-92860000D01*
X170049500Y-92862000D01*
X170050500Y-92865000D01*
X170050500Y-92867000D01*
X170051500Y-92870000D01*
X170051500Y-92872000D01*
X170052500Y-92875000D01*
X170052500Y-92877000D01*
X170052500Y-92880000D01*
X170052500Y-93320000D01*
X170052500Y-93323000D01*
X170052500Y-93325000D01*
X170051500Y-93328000D01*
X170051500Y-93330000D01*
X170050500Y-93333000D01*
X170050500Y-93335000D01*
X170049500Y-93338000D01*
X170048500Y-93340000D01*
X170047500Y-93343000D01*
X170045500Y-93345000D01*
X170044500Y-93347000D01*
X170042500Y-93349000D01*
X170041500Y-93351000D01*
X170039500Y-93353000D01*
X170037500Y-93355000D01*
X170035500Y-93357000D01*
X170033500Y-93359000D01*
X170031500Y-93360000D01*
X170029500Y-93362000D01*
X170027500Y-93363000D01*
X170025500Y-93365000D01*
X170022500Y-93366000D01*
X170020500Y-93367000D01*
X170017500Y-93368000D01*
X170015500Y-93368000D01*
X170012500Y-93369000D01*
X170010500Y-93369000D01*
X170007500Y-93370000D01*
X170005500Y-93370000D01*
X170002500Y-93370000D01*
X169397500Y-93370000D01*
X169394500Y-93370000D01*
X169392500Y-93370000D01*
X169389500Y-93369000D01*
X169387500Y-93369000D01*
X169384500Y-93368000D01*
X169382500Y-93368000D01*
X169379500Y-93367000D01*
X169377500Y-93366000D01*
X169374500Y-93365000D01*
X169372500Y-93363000D01*
X169370500Y-93362000D01*
X169368500Y-93360000D01*
X169366500Y-93359000D01*
X169364500Y-93357000D01*
X169362500Y-93355000D01*
X169360500Y-93353000D01*
X169358500Y-93351000D01*
X169357500Y-93349000D01*
X169355500Y-93347000D01*
X169354500Y-93345000D01*
X169352500Y-93343000D01*
X169351500Y-93340000D01*
X169350500Y-93338000D01*
X169349500Y-93335000D01*
X169349500Y-93333000D01*
X169348500Y-93330000D01*
X169348500Y-93328000D01*
X169347500Y-93325000D01*
X169347500Y-93323000D01*
X169347500Y-93320000D01*
X169347500Y-92880000D01*
X169347500Y-92877000D01*
X169347500Y-92875000D01*
X169348500Y-92872000D01*
X169348500Y-92870000D01*
X169349500Y-92867000D01*
X169349500Y-92865000D01*
X169350500Y-92862000D01*
X169351500Y-92860000D01*
X169352500Y-92857000D01*
X169354500Y-92855000D01*
X169355500Y-92853000D01*
X169357500Y-92851000D01*
X169358500Y-92849000D01*
X169360500Y-92847000D01*
X169362500Y-92845000D01*
X169364500Y-92843000D01*
X169366500Y-92841000D01*
X169368500Y-92840000D01*
X169370500Y-92838000D01*
X169372500Y-92837000D01*
X169374500Y-92835000D01*
X169377500Y-92834000D01*
X169379500Y-92833000D01*
X169382500Y-92832000D01*
X169384500Y-92832000D01*
X169387500Y-92831000D01*
X169389500Y-92831000D01*
X169392500Y-92830000D01*
X169394500Y-92830000D01*
X169397500Y-92830000D01*
X170002500Y-92830000D01*
X170005500Y-92830000D01*
X170007500Y-92830000D01*
X170010500Y-92831000D01*
G36*
X170010500Y-92831000D02*
G01*
X170012500Y-92831000D01*
X170015500Y-92832000D01*
X170017500Y-92832000D01*
X170020500Y-92833000D01*
X170022500Y-92834000D01*
X170025500Y-92835000D01*
X170027500Y-92837000D01*
X170029500Y-92838000D01*
X170031500Y-92840000D01*
X170033500Y-92841000D01*
X170035500Y-92843000D01*
X170037500Y-92845000D01*
X170039500Y-92847000D01*
X170041500Y-92849000D01*
X170042500Y-92851000D01*
X170044500Y-92853000D01*
X170045500Y-92855000D01*
X170047500Y-92857000D01*
X170048500Y-92860000D01*
X170049500Y-92862000D01*
X170050500Y-92865000D01*
X170050500Y-92867000D01*
X170051500Y-92870000D01*
X170051500Y-92872000D01*
X170052500Y-92875000D01*
X170052500Y-92877000D01*
X170052500Y-92880000D01*
X170052500Y-93320000D01*
X170052500Y-93323000D01*
X170052500Y-93325000D01*
X170051500Y-93328000D01*
X170051500Y-93330000D01*
X170050500Y-93333000D01*
X170050500Y-93335000D01*
X170049500Y-93338000D01*
X170048500Y-93340000D01*
X170047500Y-93343000D01*
X170045500Y-93345000D01*
X170044500Y-93347000D01*
X170042500Y-93349000D01*
X170041500Y-93351000D01*
X170039500Y-93353000D01*
X170037500Y-93355000D01*
X170035500Y-93357000D01*
X170033500Y-93359000D01*
X170031500Y-93360000D01*
X170029500Y-93362000D01*
X170027500Y-93363000D01*
X170025500Y-93365000D01*
X170022500Y-93366000D01*
X170020500Y-93367000D01*
X170017500Y-93368000D01*
X170015500Y-93368000D01*
X170012500Y-93369000D01*
X170010500Y-93369000D01*
X170007500Y-93370000D01*
X170005500Y-93370000D01*
X170002500Y-93370000D01*
X169397500Y-93370000D01*
X169394500Y-93370000D01*
X169392500Y-93370000D01*
X169389500Y-93369000D01*
X169387500Y-93369000D01*
X169384500Y-93368000D01*
X169382500Y-93368000D01*
X169379500Y-93367000D01*
X169377500Y-93366000D01*
X169374500Y-93365000D01*
X169372500Y-93363000D01*
X169370500Y-93362000D01*
X169368500Y-93360000D01*
X169366500Y-93359000D01*
X169364500Y-93357000D01*
X169362500Y-93355000D01*
X169360500Y-93353000D01*
X169358500Y-93351000D01*
X169357500Y-93349000D01*
X169355500Y-93347000D01*
X169354500Y-93345000D01*
X169352500Y-93343000D01*
X169351500Y-93340000D01*
X169350500Y-93338000D01*
X169349500Y-93335000D01*
X169349500Y-93333000D01*
X169348500Y-93330000D01*
X169348500Y-93328000D01*
X169347500Y-93325000D01*
X169347500Y-93323000D01*
X169347500Y-93320000D01*
X169347500Y-92880000D01*
X169347500Y-92877000D01*
X169347500Y-92875000D01*
X169348500Y-92872000D01*
X169348500Y-92870000D01*
X169349500Y-92867000D01*
X169349500Y-92865000D01*
X169350500Y-92862000D01*
X169351500Y-92860000D01*
X169352500Y-92857000D01*
X169354500Y-92855000D01*
X169355500Y-92853000D01*
X169357500Y-92851000D01*
X169358500Y-92849000D01*
X169360500Y-92847000D01*
X169362500Y-92845000D01*
X169364500Y-92843000D01*
X169366500Y-92841000D01*
X169368500Y-92840000D01*
X169370500Y-92838000D01*
X169372500Y-92837000D01*
X169374500Y-92835000D01*
X169377500Y-92834000D01*
X169379500Y-92833000D01*
X169382500Y-92832000D01*
X169384500Y-92832000D01*
X169387500Y-92831000D01*
X169389500Y-92831000D01*
X169392500Y-92830000D01*
X169394500Y-92830000D01*
X169397500Y-92830000D01*
X170002500Y-92830000D01*
X170005500Y-92830000D01*
X170007500Y-92830000D01*
X170010500Y-92831000D01*
G37*
X170010500Y-93931000D02*
X170012500Y-93931000D01*
X170015500Y-93932000D01*
X170017500Y-93932000D01*
X170020500Y-93933000D01*
X170022500Y-93934000D01*
X170025500Y-93935000D01*
X170027500Y-93937000D01*
X170029500Y-93938000D01*
X170031500Y-93940000D01*
X170033500Y-93941000D01*
X170035500Y-93943000D01*
X170037500Y-93945000D01*
X170039500Y-93947000D01*
X170041500Y-93949000D01*
X170042500Y-93951000D01*
X170044500Y-93953000D01*
X170045500Y-93955000D01*
X170047500Y-93957000D01*
X170048500Y-93960000D01*
X170049500Y-93962000D01*
X170050500Y-93965000D01*
X170050500Y-93967000D01*
X170051500Y-93970000D01*
X170051500Y-93972000D01*
X170052500Y-93975000D01*
X170052500Y-93977000D01*
X170052500Y-93980000D01*
X170052500Y-94220000D01*
X170052500Y-94223000D01*
X170052500Y-94225000D01*
X170051500Y-94228000D01*
X170051500Y-94230000D01*
X170050500Y-94233000D01*
X170050500Y-94235000D01*
X170049500Y-94238000D01*
X170048500Y-94240000D01*
X170047500Y-94243000D01*
X170045500Y-94245000D01*
X170044500Y-94247000D01*
X170042500Y-94249000D01*
X170041500Y-94251000D01*
X170039500Y-94253000D01*
X170037500Y-94255000D01*
X170035500Y-94257000D01*
X170033500Y-94259000D01*
X170031500Y-94260000D01*
X170029500Y-94262000D01*
X170027500Y-94263000D01*
X170025500Y-94265000D01*
X170022500Y-94266000D01*
X170020500Y-94267000D01*
X170017500Y-94268000D01*
X170015500Y-94268000D01*
X170012500Y-94269000D01*
X170010500Y-94269000D01*
X170007500Y-94270000D01*
X170005500Y-94270000D01*
X170002500Y-94270000D01*
X169397500Y-94270000D01*
X169394500Y-94270000D01*
X169392500Y-94270000D01*
X169389500Y-94269000D01*
X169387500Y-94269000D01*
X169384500Y-94268000D01*
X169382500Y-94268000D01*
X169379500Y-94267000D01*
X169377500Y-94266000D01*
X169374500Y-94265000D01*
X169372500Y-94263000D01*
X169370500Y-94262000D01*
X169368500Y-94260000D01*
X169366500Y-94259000D01*
X169364500Y-94257000D01*
X169362500Y-94255000D01*
X169360500Y-94253000D01*
X169358500Y-94251000D01*
X169357500Y-94249000D01*
X169355500Y-94247000D01*
X169354500Y-94245000D01*
X169352500Y-94243000D01*
X169351500Y-94240000D01*
X169350500Y-94238000D01*
X169349500Y-94235000D01*
X169349500Y-94233000D01*
X169348500Y-94230000D01*
X169348500Y-94228000D01*
X169347500Y-94225000D01*
X169347500Y-94223000D01*
X169347500Y-94220000D01*
X169347500Y-93980000D01*
X169347500Y-93977000D01*
X169347500Y-93975000D01*
X169348500Y-93972000D01*
X169348500Y-93970000D01*
X169349500Y-93967000D01*
X169349500Y-93965000D01*
X169350500Y-93962000D01*
X169351500Y-93960000D01*
X169352500Y-93957000D01*
X169354500Y-93955000D01*
X169355500Y-93953000D01*
X169357500Y-93951000D01*
X169358500Y-93949000D01*
X169360500Y-93947000D01*
X169362500Y-93945000D01*
X169364500Y-93943000D01*
X169366500Y-93941000D01*
X169368500Y-93940000D01*
X169370500Y-93938000D01*
X169372500Y-93937000D01*
X169374500Y-93935000D01*
X169377500Y-93934000D01*
X169379500Y-93933000D01*
X169382500Y-93932000D01*
X169384500Y-93932000D01*
X169387500Y-93931000D01*
X169389500Y-93931000D01*
X169392500Y-93930000D01*
X169394500Y-93930000D01*
X169397500Y-93930000D01*
X170002500Y-93930000D01*
X170005500Y-93930000D01*
X170007500Y-93930000D01*
X170010500Y-93931000D01*
G36*
X170010500Y-93931000D02*
G01*
X170012500Y-93931000D01*
X170015500Y-93932000D01*
X170017500Y-93932000D01*
X170020500Y-93933000D01*
X170022500Y-93934000D01*
X170025500Y-93935000D01*
X170027500Y-93937000D01*
X170029500Y-93938000D01*
X170031500Y-93940000D01*
X170033500Y-93941000D01*
X170035500Y-93943000D01*
X170037500Y-93945000D01*
X170039500Y-93947000D01*
X170041500Y-93949000D01*
X170042500Y-93951000D01*
X170044500Y-93953000D01*
X170045500Y-93955000D01*
X170047500Y-93957000D01*
X170048500Y-93960000D01*
X170049500Y-93962000D01*
X170050500Y-93965000D01*
X170050500Y-93967000D01*
X170051500Y-93970000D01*
X170051500Y-93972000D01*
X170052500Y-93975000D01*
X170052500Y-93977000D01*
X170052500Y-93980000D01*
X170052500Y-94220000D01*
X170052500Y-94223000D01*
X170052500Y-94225000D01*
X170051500Y-94228000D01*
X170051500Y-94230000D01*
X170050500Y-94233000D01*
X170050500Y-94235000D01*
X170049500Y-94238000D01*
X170048500Y-94240000D01*
X170047500Y-94243000D01*
X170045500Y-94245000D01*
X170044500Y-94247000D01*
X170042500Y-94249000D01*
X170041500Y-94251000D01*
X170039500Y-94253000D01*
X170037500Y-94255000D01*
X170035500Y-94257000D01*
X170033500Y-94259000D01*
X170031500Y-94260000D01*
X170029500Y-94262000D01*
X170027500Y-94263000D01*
X170025500Y-94265000D01*
X170022500Y-94266000D01*
X170020500Y-94267000D01*
X170017500Y-94268000D01*
X170015500Y-94268000D01*
X170012500Y-94269000D01*
X170010500Y-94269000D01*
X170007500Y-94270000D01*
X170005500Y-94270000D01*
X170002500Y-94270000D01*
X169397500Y-94270000D01*
X169394500Y-94270000D01*
X169392500Y-94270000D01*
X169389500Y-94269000D01*
X169387500Y-94269000D01*
X169384500Y-94268000D01*
X169382500Y-94268000D01*
X169379500Y-94267000D01*
X169377500Y-94266000D01*
X169374500Y-94265000D01*
X169372500Y-94263000D01*
X169370500Y-94262000D01*
X169368500Y-94260000D01*
X169366500Y-94259000D01*
X169364500Y-94257000D01*
X169362500Y-94255000D01*
X169360500Y-94253000D01*
X169358500Y-94251000D01*
X169357500Y-94249000D01*
X169355500Y-94247000D01*
X169354500Y-94245000D01*
X169352500Y-94243000D01*
X169351500Y-94240000D01*
X169350500Y-94238000D01*
X169349500Y-94235000D01*
X169349500Y-94233000D01*
X169348500Y-94230000D01*
X169348500Y-94228000D01*
X169347500Y-94225000D01*
X169347500Y-94223000D01*
X169347500Y-94220000D01*
X169347500Y-93980000D01*
X169347500Y-93977000D01*
X169347500Y-93975000D01*
X169348500Y-93972000D01*
X169348500Y-93970000D01*
X169349500Y-93967000D01*
X169349500Y-93965000D01*
X169350500Y-93962000D01*
X169351500Y-93960000D01*
X169352500Y-93957000D01*
X169354500Y-93955000D01*
X169355500Y-93953000D01*
X169357500Y-93951000D01*
X169358500Y-93949000D01*
X169360500Y-93947000D01*
X169362500Y-93945000D01*
X169364500Y-93943000D01*
X169366500Y-93941000D01*
X169368500Y-93940000D01*
X169370500Y-93938000D01*
X169372500Y-93937000D01*
X169374500Y-93935000D01*
X169377500Y-93934000D01*
X169379500Y-93933000D01*
X169382500Y-93932000D01*
X169384500Y-93932000D01*
X169387500Y-93931000D01*
X169389500Y-93931000D01*
X169392500Y-93930000D01*
X169394500Y-93930000D01*
X169397500Y-93930000D01*
X170002500Y-93930000D01*
X170005500Y-93930000D01*
X170007500Y-93930000D01*
X170010500Y-93931000D01*
G37*
%TD*%
D12*
%TO.C,R19*%
X161550000Y-97987500D03*
X161550000Y-99812500D03*
%TD*%
D13*
%TO.C,R32*%
X118575000Y-77100000D03*
X120400000Y-77100000D03*
%TD*%
D14*
%TO.C,J18*%
X135600000Y-72500000D03*
%TD*%
D15*
%TO.C,R11*%
X140112500Y-93700000D03*
X138287500Y-93700000D03*
%TD*%
D16*
%TO.C,J2*%
X124760000Y-72150000D03*
D17*
X127300000Y-72150000D03*
%TD*%
D15*
%TO.C,R13*%
X138562500Y-108150000D03*
X136737500Y-108150000D03*
%TD*%
D18*
%TO.C,R34*%
X159150000Y-80900000D03*
X159150000Y-79075000D03*
%TD*%
D19*
%TO.C,C14*%
X163350000Y-90800000D03*
X165250000Y-90800000D03*
%TD*%
D20*
%TO.C,C11*%
X153700000Y-73600000D03*
X153700000Y-71700000D03*
%TD*%
D13*
%TO.C,R15*%
X173687500Y-96200000D03*
X175512500Y-96200000D03*
%TD*%
D14*
%TO.C,J9*%
X169300000Y-90000000D03*
%TD*%
D12*
%TO.C,R21*%
X134400000Y-82800000D03*
X134400000Y-84625000D03*
%TD*%
D14*
%TO.C,J17*%
X156600000Y-91300000D03*
%TD*%
D21*
%TO.C,SW2*%
X136320000Y-105410000D03*
X132920000Y-105410000D03*
%TD*%
D14*
%TO.C,J21*%
X173650000Y-102150000D03*
%TD*%
D13*
%TO.C,R5*%
X131587500Y-100300000D03*
X133412500Y-100300000D03*
%TD*%
D22*
%TO.C,C3*%
X147200000Y-94900000D03*
X147200000Y-96799998D03*
%TD*%
D19*
%TO.C,C8*%
X123400000Y-82200000D03*
X125300000Y-82200000D03*
%TD*%
D23*
%TO.C,D2*%
X133437500Y-98400000D03*
X131562500Y-98400000D03*
%TD*%
D13*
%TO.C,R22*%
X130800000Y-82200000D03*
X132625000Y-82200000D03*
%TD*%
D24*
%TO.C,U9*%
X149812500Y-93397500D03*
X149812500Y-93897500D03*
X149812500Y-94397500D03*
X149812500Y-94897500D03*
X149812500Y-95397500D03*
X149812500Y-95897500D03*
D25*
X150500000Y-96585000D03*
X151000000Y-96585000D03*
X151500000Y-96585000D03*
X152000000Y-96585000D03*
X152500000Y-96585000D03*
X153000000Y-96585000D03*
D24*
X153687500Y-95897500D03*
X153687500Y-95397500D03*
X153687500Y-94897500D03*
X153687500Y-94397500D03*
X153687500Y-93897500D03*
X153687500Y-93397500D03*
D25*
X153000000Y-92710000D03*
X152500000Y-92710000D03*
X152000000Y-92710000D03*
X151500000Y-92710000D03*
X151000000Y-92710000D03*
X150500000Y-92710000D03*
D26*
X151750000Y-94647500D03*
%TD*%
D20*
%TO.C,C6*%
X142240000Y-74610000D03*
X142240000Y-72710000D03*
%TD*%
D22*
%TO.C,C13*%
X168400000Y-95400000D03*
X168400000Y-97300000D03*
%TD*%
D27*
%TO.C,TH1*%
X154800000Y-85910000D03*
X154800000Y-84890000D03*
%TD*%
D28*
%TO.C,J1*%
X172585000Y-93350000D03*
D29*
X173650000Y-92890000D03*
D28*
X172585000Y-92550000D03*
X172585000Y-91250000D03*
X172585000Y-90250000D03*
X172585000Y-89750000D03*
X172585000Y-88750000D03*
X172585000Y-87450000D03*
D29*
X173650000Y-87110000D03*
D28*
X172585000Y-86650000D03*
X172585000Y-86950000D03*
X172585000Y-87750000D03*
X172585000Y-88250000D03*
X172585000Y-89250000D03*
X172585000Y-90750000D03*
X172585000Y-91750000D03*
X172585000Y-92250000D03*
X172585000Y-93050000D03*
D30*
X173150000Y-94320000D03*
D31*
X177330000Y-94320000D03*
D30*
X173150000Y-85680000D03*
D31*
X177330000Y-85680000D03*
%TD*%
D32*
%TO.C,C28*%
X168475000Y-80540000D03*
X165525000Y-80540000D03*
%TD*%
D33*
%TO.C,C23*%
X125249999Y-80200000D03*
X123350001Y-80200000D03*
%TD*%
D34*
%TO.C,U5*%
X158750000Y-88280000D03*
X158750000Y-87630000D03*
X158750000Y-86980000D03*
X158750000Y-86330000D03*
%TD*%
D14*
%TO.C,J20*%
X143500000Y-93600000D03*
%TD*%
D15*
%TO.C,R18*%
X162812500Y-78900000D03*
X160987500Y-78900000D03*
%TD*%
D22*
%TO.C,C18*%
X127100000Y-88950000D03*
X127100000Y-90850000D03*
%TD*%
%TO.C,C1*%
X153700000Y-100700000D03*
X153700000Y-102600000D03*
%TD*%
%TO.C,C22*%
X134400000Y-79300000D03*
X134400000Y-81200000D03*
%TD*%
D15*
%TO.C,R7*%
X133425000Y-96100000D03*
X131600000Y-96100000D03*
%TD*%
%TO.C,R4*%
X125262500Y-84200000D03*
X123437500Y-84200000D03*
%TD*%
D35*
%TO.C,D1*%
X138262500Y-95700000D03*
X140137500Y-95700000D03*
%TD*%
D13*
%TO.C,R25*%
X142775000Y-96300000D03*
X144600000Y-96300000D03*
%TD*%
D36*
%TO.C,C7*%
X175300000Y-83775000D03*
X175300000Y-80825000D03*
%TD*%
D20*
%TO.C,C19*%
X144900000Y-81450000D03*
X144900000Y-79550000D03*
%TD*%
D37*
%TO.C,IC2*%
X136600000Y-78000000D03*
D38*
X136675000Y-77400000D03*
D37*
X136600000Y-76800000D03*
X136200000Y-76800000D03*
X135800000Y-76800000D03*
D38*
X135725000Y-77400000D03*
D37*
X135800000Y-78000000D03*
X136200000Y-78000000D03*
%TD*%
D14*
%TO.C,J5*%
X114250000Y-79680000D03*
D39*
X114250000Y-77140000D03*
X114250000Y-74600000D03*
X114250000Y-72060000D03*
%TD*%
D14*
%TO.C,J10*%
X164600000Y-100800000D03*
%TD*%
%TO.C,J15*%
X147500000Y-92300000D03*
%TD*%
D40*
%TO.C,C26*%
X139700000Y-88300000D03*
X139700000Y-82900000D03*
%TD*%
D18*
%TO.C,R20*%
X149400000Y-90025000D03*
X149400000Y-88200000D03*
%TD*%
D14*
%TO.C,J8*%
X154940000Y-105410000D03*
D39*
X157480000Y-105410000D03*
X160020000Y-105410000D03*
X162560000Y-105410000D03*
%TD*%
D41*
%TO.C,R2*%
X117622068Y-99999758D03*
X118912538Y-98709288D03*
%TD*%
D20*
%TO.C,C4*%
X150700000Y-73600000D03*
X150700000Y-71700000D03*
%TD*%
D13*
%TO.C,R16*%
X160987500Y-80800000D03*
X162812500Y-80800000D03*
%TD*%
D42*
%TO.C,SW1*%
X125600000Y-99800000D03*
D43*
X122912994Y-102487006D03*
D44*
X122700862Y-97607969D03*
X121710913Y-98597919D03*
X120720963Y-99587868D03*
X127792031Y-102699138D03*
X126802081Y-103689087D03*
X125812132Y-104679037D03*
D45*
X127063711Y-98336289D03*
X121449283Y-103950717D03*
%TD*%
D18*
%TO.C,R29*%
X140300000Y-75112500D03*
X140300000Y-73287500D03*
%TD*%
D46*
%TO.C,U8*%
X140400000Y-78100000D03*
X140900000Y-78100000D03*
X141400000Y-78100000D03*
X141900000Y-78100000D03*
X141900000Y-76620000D03*
X141400000Y-76620000D03*
X140900000Y-76620000D03*
X140400000Y-76620000D03*
%TD*%
D19*
%TO.C,C15*%
X164050000Y-98200000D03*
X165950000Y-98200000D03*
%TD*%
D14*
%TO.C,J16*%
X143600000Y-98700000D03*
%TD*%
D15*
%TO.C,R27*%
X124112500Y-86100000D03*
X122287500Y-86100000D03*
%TD*%
D47*
%TO.C,U7*%
X150870000Y-86360000D03*
X150870000Y-87010000D03*
X150870000Y-87660000D03*
X150870000Y-88310000D03*
%TD*%
D18*
%TO.C,R14*%
X167000000Y-90812500D03*
X167000000Y-88987500D03*
%TD*%
D14*
%TO.C,J12*%
X117450000Y-94650000D03*
%TD*%
D48*
%TO.C,D7*%
X168400000Y-78000000D03*
X165600000Y-78000000D03*
%TD*%
D22*
%TO.C,C20*%
X138375000Y-74450000D03*
X138375000Y-76350000D03*
%TD*%
D36*
%TO.C,C12*%
X146600000Y-86565000D03*
X146600000Y-83615000D03*
%TD*%
D14*
%TO.C,J7*%
X139700000Y-105410000D03*
D39*
X142240000Y-105410000D03*
X144780000Y-105410000D03*
X147320000Y-105410000D03*
X149860000Y-105410000D03*
%TD*%
D14*
%TO.C,J23*%
X155800000Y-79800000D03*
%TD*%
D15*
%TO.C,R24*%
X145075000Y-91300000D03*
X143250000Y-91300000D03*
%TD*%
D49*
%TO.C,U1*%
X155500000Y-98200000D03*
X155500000Y-98700000D03*
X155500000Y-99200000D03*
X155500000Y-99700000D03*
X156000000Y-99700000D03*
X156000000Y-99200000D03*
X156000000Y-98700000D03*
X156000000Y-98200000D03*
%TD*%
D20*
%TO.C,C21*%
X138400000Y-79800000D03*
X138400000Y-77900000D03*
%TD*%
D36*
%TO.C,C10*%
X156400000Y-73775000D03*
X156400000Y-70825000D03*
%TD*%
D50*
%TO.C,IC1*%
X132000000Y-87650000D03*
X132000000Y-87150000D03*
X132000000Y-86650000D03*
X132000000Y-86150000D03*
X132000000Y-85650000D03*
X132000000Y-85150000D03*
D51*
X131250000Y-84400000D03*
X130750000Y-84400000D03*
X130250000Y-84400000D03*
X129750000Y-84400000D03*
X129250000Y-84400000D03*
X128750000Y-84400000D03*
D50*
X128000000Y-85150000D03*
X128000000Y-85650000D03*
X128000000Y-86150000D03*
X128000000Y-86650000D03*
X128000000Y-87150000D03*
X128000000Y-87650000D03*
D51*
X128750000Y-88400000D03*
X129250000Y-88400000D03*
X129750000Y-88400000D03*
X130250000Y-88400000D03*
X130750000Y-88400000D03*
X131250000Y-88400000D03*
D52*
X130000000Y-86400000D03*
%TD*%
D32*
%TO.C,C27*%
X168475000Y-83080000D03*
X165525000Y-83080000D03*
%TD*%
D14*
%TO.C,J13*%
X166225000Y-104150000D03*
D39*
X166225000Y-106690000D03*
%TD*%
D14*
%TO.C,J22*%
X115550000Y-83800000D03*
%TD*%
D36*
%TO.C,C24*%
X149140000Y-86565000D03*
X149140000Y-83615000D03*
%TD*%
D18*
%TO.C,R28*%
X149800000Y-81125000D03*
X149800000Y-79300000D03*
%TD*%
D13*
%TO.C,R23*%
X127387500Y-82200000D03*
X129212500Y-82200000D03*
%TD*%
D33*
%TO.C,C17*%
X162849999Y-76400000D03*
X160950001Y-76400000D03*
%TD*%
D13*
%TO.C,R31*%
X134787500Y-75300000D03*
X136612500Y-75300000D03*
%TD*%
D53*
%TO.C,U2*%
X122500000Y-76500000D03*
X122500000Y-77000000D03*
X122500000Y-77500000D03*
X122500000Y-78000000D03*
X122500000Y-78500000D03*
X126900000Y-78500000D03*
X126900000Y-78000000D03*
X126900000Y-77500000D03*
X126900000Y-77000000D03*
X126900000Y-76500000D03*
%TD*%
D12*
%TO.C,R36*%
X159500000Y-96087500D03*
X159500000Y-97912500D03*
%TD*%
D54*
%TO.C,R1*%
X122801625Y-94820200D03*
X121511155Y-96110670D03*
%TD*%
D12*
%TO.C,R30*%
X136400000Y-79287500D03*
X136400000Y-81112500D03*
%TD*%
D20*
%TO.C,C2*%
X157500000Y-97950000D03*
X157500000Y-96050000D03*
%TD*%
D13*
%TO.C,R6*%
X133587500Y-94200000D03*
X135412500Y-94200000D03*
%TD*%
D15*
%TO.C,R9*%
X138112500Y-99500000D03*
X136287500Y-99500000D03*
%TD*%
D18*
%TO.C,R12*%
X157500000Y-101325000D03*
X157500000Y-99500000D03*
%TD*%
D55*
%TO.C,D5*%
X144400000Y-86850000D03*
X144400000Y-89650000D03*
%TD*%
D13*
%TO.C,R8*%
X138200000Y-97600000D03*
X140025000Y-97600000D03*
%TD*%
D14*
%TO.C,J19*%
X152400001Y-80212500D03*
%TD*%
D56*
%TO.C,D6*%
X130000000Y-73400000D03*
X132800000Y-73400000D03*
%TD*%
D57*
%TO.C,U6*%
X161310000Y-93290000D03*
X161310000Y-93790000D03*
X161310000Y-94290000D03*
X161310000Y-94790000D03*
X161310000Y-95290000D03*
X161310000Y-95790000D03*
D58*
X162010000Y-96490000D03*
X162510000Y-96490000D03*
X163010000Y-96490000D03*
X163510000Y-96490000D03*
X164010000Y-96490000D03*
X164510000Y-96490000D03*
D57*
X165210000Y-95790000D03*
X165210000Y-95290000D03*
X165210000Y-94790000D03*
X165210000Y-94290000D03*
X165210000Y-93790000D03*
X165210000Y-93290000D03*
D58*
X164510000Y-92590000D03*
X164010000Y-92590000D03*
X163510000Y-92590000D03*
X163010000Y-92590000D03*
X162510000Y-92590000D03*
X162010000Y-92590000D03*
D59*
X163260000Y-94540000D03*
%TD*%
D22*
%TO.C,C16*%
X132700000Y-88850000D03*
X132700000Y-90750000D03*
%TD*%
D60*
%TO.C,R33*%
X130180000Y-78587500D03*
X130180000Y-75612500D03*
%TD*%
D12*
%TO.C,R35*%
X159500000Y-92675000D03*
X159500000Y-94500000D03*
%TD*%
D61*
%TO.C,L1*%
X162750000Y-72900000D03*
X159050000Y-72900000D03*
%TD*%
D62*
%TO.C,R10*%
X129024165Y-106293008D03*
X127733695Y-105002538D03*
%TD*%
D63*
%TO.C,R17*%
X168462500Y-87000000D03*
X165537500Y-87000000D03*
%TD*%
D64*
%TO.C,D4*%
X159500000Y-101375000D03*
X159500000Y-99500000D03*
%TD*%
D14*
%TO.C,J11*%
X169300000Y-99800000D03*
%TD*%
D65*
%TO.C,Q1*%
X136800000Y-97600000D03*
X136800000Y-96950000D03*
X136800000Y-96300000D03*
X134900000Y-96300000D03*
X134900000Y-96950000D03*
X134900000Y-97600000D03*
%TD*%
D62*
%TO.C,R3*%
X130345235Y-104945235D03*
X129054765Y-103654765D03*
%TD*%
D66*
%TO.C,U3*%
X145100000Y-77905200D03*
D67*
X146600000Y-77905200D03*
D66*
X148100000Y-77905200D03*
X148100000Y-74400000D03*
X145100000Y-74400000D03*
%TD*%
D41*
%TO.C,R26*%
X125329532Y-107707222D03*
X126620002Y-106416752D03*
%TD*%
D14*
%TO.C,J6*%
X171200000Y-96900000D03*
%TD*%
D20*
%TO.C,C25*%
X144300000Y-85200000D03*
X144300000Y-83300000D03*
%TD*%
D14*
%TO.C,J14*%
X152300000Y-76700000D03*
%TD*%
M02*
