%TF.GenerationSoftware,KiCad,Pcbnew,9.0.0*%
%TF.CreationDate,2025-05-10T22:56:34+02:00*%
%TF.ProjectId,CYPD3177_3.3V_V2_+_OLED,43595044-3331-4373-975f-332e33565f56,rev?*%
%TF.SameCoordinates,Original*%
%TF.FileFunction,Soldermask,Top*%
%TF.FilePolarity,Negative*%
%FSLAX46Y46*%
G04 Gerber Fmt 4.6, Leading zero omitted, Abs format (unit mm)*
G04 Created by KiCad (PCBNEW 9.0.0) date 2025-05-10 22:56:34*
%MOMM*%
%LPD*%
G01*
G04 APERTURE LIST*
G04 Aperture macros list*
%AMRoundRect*
0 Rectangle with rounded corners*
0 $1 Rounding radius*
0 $2 $3 $4 $5 $6 $7 $8 $9 X,Y pos of 4 corners*
0 Add a 4 corners polygon primitive as box body*
4,1,4,$2,$3,$4,$5,$6,$7,$8,$9,$2,$3,0*
0 Add four circle primitives for the rounded corners*
1,1,$1+$1,$2,$3*
1,1,$1+$1,$4,$5*
1,1,$1+$1,$6,$7*
1,1,$1+$1,$8,$9*
0 Add four rect primitives between the rounded corners*
20,1,$1+$1,$2,$3,$4,$5,0*
20,1,$1+$1,$4,$5,$6,$7,0*
20,1,$1+$1,$6,$7,$8,$9,0*
20,1,$1+$1,$8,$9,$2,$3,0*%
%AMRotRect*
0 Rectangle, with rotation*
0 The origin of the aperture is its center*
0 $1 length*
0 $2 width*
0 $3 Rotation angle, in degrees counterclockwise*
0 Add horizontal line*
21,1,$1,$2,0,0,$3*%
%AMFreePoly0*
4,1,45,0.915337,4.272534,0.924317,4.268814,0.972251,4.227872,0.979514,4.213617,0.983234,4.204637,0.991000,4.165600,0.991000,1.397000,0.983234,1.357963,0.979514,1.348983,0.955942,1.314462,0.955561,1.314096,0.953959,1.312589,0.356000,0.762465,0.356000,0.508000,0.348234,0.468963,0.344514,0.459983,0.343300,0.458561,0.343300,-0.508000,0.323820,-0.567954,0.272820,-0.605008,
0.241300,-0.610000,-0.241300,-0.610000,-0.301254,-0.590520,-0.338308,-0.539520,-0.343300,-0.508000,-0.343300,0.457600,-0.344514,0.459983,-0.348234,0.468963,-0.356000,0.508000,-0.356000,0.762465,-0.953959,1.312589,-0.977428,1.344732,-0.981518,1.353549,-0.990967,1.394350,-0.990978,1.394879,-0.991000,1.397000,-0.991000,4.165600,-0.983234,4.204637,-0.979514,4.213617,-0.938572,4.261551,
-0.924317,4.268814,-0.915337,4.272534,-0.876300,4.280300,0.876300,4.280300,0.915337,4.272534,0.915337,4.272534,$1*%
G04 Aperture macros list end*
%ADD10C,0.010000*%
%ADD11C,0.025400*%
%ADD12R,0.800000X1.700000*%
%ADD13R,1.700000X1.700000*%
%ADD14O,1.700000X1.700000*%
%ADD15RoundRect,0.140000X-0.140000X-0.170000X0.140000X-0.170000X0.140000X0.170000X-0.140000X0.170000X0*%
%ADD16RoundRect,0.135000X0.135000X0.185000X-0.135000X0.185000X-0.135000X-0.185000X0.135000X-0.185000X0*%
%ADD17RoundRect,0.140000X0.170000X-0.140000X0.170000X0.140000X-0.170000X0.140000X-0.170000X-0.140000X0*%
%ADD18RoundRect,0.140000X-0.170000X0.140000X-0.170000X-0.140000X0.170000X-0.140000X0.170000X0.140000X0*%
%ADD19R,0.450000X0.200000*%
%ADD20R,0.250000X0.700000*%
%ADD21RoundRect,0.135000X0.185000X-0.135000X0.185000X0.135000X-0.185000X0.135000X-0.185000X-0.135000X0*%
%ADD22RoundRect,0.135000X-0.135000X-0.185000X0.135000X-0.185000X0.135000X0.185000X-0.135000X0.185000X0*%
%ADD23RoundRect,0.140000X0.140000X0.170000X-0.140000X0.170000X-0.140000X-0.170000X0.140000X-0.170000X0*%
%ADD24RoundRect,0.075000X-0.650000X-0.075000X0.650000X-0.075000X0.650000X0.075000X-0.650000X0.075000X0*%
%ADD25RoundRect,0.250000X-1.500000X-0.550000X1.500000X-0.550000X1.500000X0.550000X-1.500000X0.550000X0*%
%ADD26R,0.300000X0.800000*%
%ADD27R,0.800000X0.300000*%
%ADD28R,2.800000X2.800000*%
%ADD29R,0.150000X0.365000*%
%ADD30RoundRect,0.102000X-0.250000X-0.175000X0.250000X-0.175000X0.250000X0.175000X-0.250000X0.175000X0*%
%ADD31RoundRect,0.062500X-0.350000X-0.062500X0.350000X-0.062500X0.350000X0.062500X-0.350000X0.062500X0*%
%ADD32RoundRect,0.062500X-0.062500X-0.350000X0.062500X-0.350000X0.062500X0.350000X-0.062500X0.350000X0*%
%ADD33R,2.600000X2.600000*%
%ADD34RoundRect,0.135000X-0.185000X0.135000X-0.185000X-0.135000X0.185000X-0.135000X0.185000X0.135000X0*%
%ADD35RoundRect,0.218750X0.218750X0.256250X-0.218750X0.256250X-0.218750X-0.256250X0.218750X-0.256250X0*%
%ADD36RoundRect,0.250000X0.475000X-0.337500X0.475000X0.337500X-0.475000X0.337500X-0.475000X-0.337500X0*%
%ADD37RoundRect,0.250001X0.462499X0.624999X-0.462499X0.624999X-0.462499X-0.624999X0.462499X-0.624999X0*%
%ADD38RoundRect,0.250000X0.325000X0.650000X-0.325000X0.650000X-0.325000X-0.650000X0.325000X-0.650000X0*%
%ADD39RoundRect,0.102000X-0.215900X-0.508000X0.215900X-0.508000X0.215900X0.508000X-0.215900X0.508000X0*%
%ADD40FreePoly0,0.000000*%
%ADD41RoundRect,0.250000X0.650000X-0.325000X0.650000X0.325000X-0.650000X0.325000X-0.650000X-0.325000X0*%
%ADD42RoundRect,0.250001X-0.624999X0.462499X-0.624999X-0.462499X0.624999X-0.462499X0.624999X0.462499X0*%
%ADD43RoundRect,0.102000X0.250000X0.175000X-0.250000X0.175000X-0.250000X-0.175000X0.250000X-0.175000X0*%
%ADD44RoundRect,0.237500X-0.287500X-0.237500X0.287500X-0.237500X0.287500X0.237500X-0.287500X0.237500X0*%
%ADD45RoundRect,0.250000X-0.650000X0.325000X-0.650000X-0.325000X0.650000X-0.325000X0.650000X0.325000X0*%
%ADD46RoundRect,0.075000X-0.350000X-0.075000X0.350000X-0.075000X0.350000X0.075000X-0.350000X0.075000X0*%
%ADD47RoundRect,0.075000X-0.075000X-0.350000X0.075000X-0.350000X0.075000X0.350000X-0.075000X0.350000X0*%
%ADD48R,2.650000X2.650000*%
%ADD49RoundRect,0.150000X-0.625000X0.150000X-0.625000X-0.150000X0.625000X-0.150000X0.625000X0.150000X0*%
%ADD50RoundRect,0.250000X-0.650000X0.350000X-0.650000X-0.350000X0.650000X-0.350000X0.650000X0.350000X0*%
%ADD51R,1.150000X0.300000*%
%ADD52C,0.650000*%
%ADD53O,2.100000X1.000000*%
%ADD54O,1.600000X1.000000*%
%ADD55RoundRect,0.250001X0.499999X0.999999X-0.499999X0.999999X-0.499999X-0.999999X0.499999X-0.999999X0*%
%ADD56RoundRect,0.050000X0.100000X-0.285000X0.100000X0.285000X-0.100000X0.285000X-0.100000X-0.285000X0*%
%ADD57RoundRect,0.250000X0.300000X-0.300000X0.300000X0.300000X-0.300000X0.300000X-0.300000X-0.300000X0*%
%ADD58RoundRect,0.250001X-0.799999X0.799999X-0.799999X-0.799999X0.799999X-0.799999X0.799999X0.799999X0*%
%ADD59C,2.100000*%
%ADD60C,1.100000*%
%ADD61C,0.800000*%
%ADD62RotRect,1.000000X1.100000X315.000000*%
%ADD63RotRect,1.800000X1.150000X315.000000*%
%ADD64C,0.365000*%
G04 APERTURE END LIST*
D10*
X141015000Y-85695000D02*
X142165000Y-85695000D01*
X142165000Y-85745000D01*
X142465000Y-85745000D01*
X142465000Y-86345000D01*
X142165000Y-86345000D01*
X142165000Y-86395000D01*
X142465000Y-86395000D01*
X142465000Y-86995000D01*
X142165000Y-86995000D01*
X142165000Y-87045000D01*
X142465000Y-87045000D01*
X142465000Y-87645000D01*
X142165000Y-87645000D01*
X142165000Y-87695000D01*
X142465000Y-87695000D01*
X142465000Y-88270000D01*
X142165000Y-88270000D01*
X142165000Y-88345000D01*
X141040000Y-88345000D01*
X141040000Y-88720000D01*
X140390000Y-88720000D01*
X140390000Y-88345000D01*
X139990000Y-88345000D01*
X139990000Y-85695000D01*
X140390000Y-85695000D01*
X140390000Y-85320000D01*
X141015000Y-85320000D01*
X141015000Y-85695000D01*
G36*
X141015000Y-85695000D02*
G01*
X142165000Y-85695000D01*
X142165000Y-85745000D01*
X142465000Y-85745000D01*
X142465000Y-86345000D01*
X142165000Y-86345000D01*
X142165000Y-86395000D01*
X142465000Y-86395000D01*
X142465000Y-86995000D01*
X142165000Y-86995000D01*
X142165000Y-87045000D01*
X142465000Y-87045000D01*
X142465000Y-87645000D01*
X142165000Y-87645000D01*
X142165000Y-87695000D01*
X142465000Y-87695000D01*
X142465000Y-88270000D01*
X142165000Y-88270000D01*
X142165000Y-88345000D01*
X141040000Y-88345000D01*
X141040000Y-88720000D01*
X140390000Y-88720000D01*
X140390000Y-88345000D01*
X139990000Y-88345000D01*
X139990000Y-85695000D01*
X140390000Y-85695000D01*
X140390000Y-85320000D01*
X141015000Y-85320000D01*
X141015000Y-85695000D01*
G37*
D11*
X127776300Y-86358200D02*
X127141300Y-86942400D01*
X127141300Y-87247200D01*
X126658700Y-87247200D01*
X126658700Y-86942400D01*
X126023700Y-86358200D01*
X126023700Y-83589600D01*
X126658700Y-83589600D01*
X127141300Y-83589600D01*
X127776300Y-83589600D01*
X127776300Y-86358200D01*
G36*
X127776300Y-86358200D02*
G01*
X127141300Y-86942400D01*
X127141300Y-87247200D01*
X126658700Y-87247200D01*
X126658700Y-86942400D01*
X126023700Y-86358200D01*
X126023700Y-83589600D01*
X126658700Y-83589600D01*
X127141300Y-83589600D01*
X127776300Y-83589600D01*
X127776300Y-86358200D01*
G37*
D10*
X145735000Y-85675000D02*
X146135000Y-85675000D01*
X146135000Y-88325000D01*
X145735000Y-88325000D01*
X145735000Y-88700000D01*
X145110000Y-88700000D01*
X145110000Y-88325000D01*
X143960000Y-88325000D01*
X143960000Y-88275000D01*
X143660000Y-88275000D01*
X143660000Y-87675000D01*
X143960000Y-87675000D01*
X143960000Y-87625000D01*
X143660000Y-87625000D01*
X143660000Y-87025000D01*
X143960000Y-87025000D01*
X143960000Y-86975000D01*
X143660000Y-86975000D01*
X143660000Y-86375000D01*
X143960000Y-86375000D01*
X143960000Y-86325000D01*
X143660000Y-86325000D01*
X143660000Y-85750000D01*
X143960000Y-85750000D01*
X143960000Y-85675000D01*
X145085000Y-85675000D01*
X145085000Y-85300000D01*
X145735000Y-85300000D01*
X145735000Y-85675000D01*
G36*
X145735000Y-85675000D02*
G01*
X146135000Y-85675000D01*
X146135000Y-88325000D01*
X145735000Y-88325000D01*
X145735000Y-88700000D01*
X145110000Y-88700000D01*
X145110000Y-88325000D01*
X143960000Y-88325000D01*
X143960000Y-88275000D01*
X143660000Y-88275000D01*
X143660000Y-87675000D01*
X143960000Y-87675000D01*
X143960000Y-87625000D01*
X143660000Y-87625000D01*
X143660000Y-87025000D01*
X143960000Y-87025000D01*
X143960000Y-86975000D01*
X143660000Y-86975000D01*
X143660000Y-86375000D01*
X143960000Y-86375000D01*
X143960000Y-86325000D01*
X143660000Y-86325000D01*
X143660000Y-85750000D01*
X143960000Y-85750000D01*
X143960000Y-85675000D01*
X145085000Y-85675000D01*
X145085000Y-85300000D01*
X145735000Y-85300000D01*
X145735000Y-85675000D01*
G37*
X153075500Y-90831000D02*
X153077500Y-90831000D01*
X153080500Y-90832000D01*
X153082500Y-90832000D01*
X153085500Y-90833000D01*
X153087500Y-90834000D01*
X153090500Y-90835000D01*
X153092500Y-90837000D01*
X153094500Y-90838000D01*
X153096500Y-90840000D01*
X153098500Y-90841000D01*
X153100500Y-90843000D01*
X153102500Y-90845000D01*
X153104500Y-90847000D01*
X153106500Y-90849000D01*
X153107500Y-90851000D01*
X153109500Y-90853000D01*
X153110500Y-90855000D01*
X153112500Y-90857000D01*
X153113500Y-90860000D01*
X153114500Y-90862000D01*
X153115500Y-90865000D01*
X153115500Y-90867000D01*
X153116500Y-90870000D01*
X153116500Y-90872000D01*
X153117500Y-90875000D01*
X153117500Y-90877000D01*
X153117500Y-90880000D01*
X153117500Y-91120000D01*
X153117500Y-91123000D01*
X153117500Y-91125000D01*
X153116500Y-91128000D01*
X153116500Y-91130000D01*
X153115500Y-91133000D01*
X153115500Y-91135000D01*
X153114500Y-91138000D01*
X153113500Y-91140000D01*
X153112500Y-91143000D01*
X153110500Y-91145000D01*
X153109500Y-91147000D01*
X153107500Y-91149000D01*
X153106500Y-91151000D01*
X153104500Y-91153000D01*
X153102500Y-91155000D01*
X153100500Y-91157000D01*
X153098500Y-91159000D01*
X153096500Y-91160000D01*
X153094500Y-91162000D01*
X153092500Y-91163000D01*
X153090500Y-91165000D01*
X153087500Y-91166000D01*
X153085500Y-91167000D01*
X153082500Y-91168000D01*
X153080500Y-91168000D01*
X153077500Y-91169000D01*
X153075500Y-91169000D01*
X153072500Y-91170000D01*
X153070500Y-91170000D01*
X153067500Y-91170000D01*
X152462500Y-91170000D01*
X152459500Y-91170000D01*
X152457500Y-91170000D01*
X152454500Y-91169000D01*
X152452500Y-91169000D01*
X152449500Y-91168000D01*
X152447500Y-91168000D01*
X152444500Y-91167000D01*
X152442500Y-91166000D01*
X152439500Y-91165000D01*
X152437500Y-91163000D01*
X152435500Y-91162000D01*
X152433500Y-91160000D01*
X152431500Y-91159000D01*
X152429500Y-91157000D01*
X152427500Y-91155000D01*
X152425500Y-91153000D01*
X152423500Y-91151000D01*
X152422500Y-91149000D01*
X152420500Y-91147000D01*
X152419500Y-91145000D01*
X152417500Y-91143000D01*
X152416500Y-91140000D01*
X152415500Y-91138000D01*
X152414500Y-91135000D01*
X152414500Y-91133000D01*
X152413500Y-91130000D01*
X152413500Y-91128000D01*
X152412500Y-91125000D01*
X152412500Y-91123000D01*
X152412500Y-91120000D01*
X152412500Y-90880000D01*
X152412500Y-90877000D01*
X152412500Y-90875000D01*
X152413500Y-90872000D01*
X152413500Y-90870000D01*
X152414500Y-90867000D01*
X152414500Y-90865000D01*
X152415500Y-90862000D01*
X152416500Y-90860000D01*
X152417500Y-90857000D01*
X152419500Y-90855000D01*
X152420500Y-90853000D01*
X152422500Y-90851000D01*
X152423500Y-90849000D01*
X152425500Y-90847000D01*
X152427500Y-90845000D01*
X152429500Y-90843000D01*
X152431500Y-90841000D01*
X152433500Y-90840000D01*
X152435500Y-90838000D01*
X152437500Y-90837000D01*
X152439500Y-90835000D01*
X152442500Y-90834000D01*
X152444500Y-90833000D01*
X152447500Y-90832000D01*
X152449500Y-90832000D01*
X152452500Y-90831000D01*
X152454500Y-90831000D01*
X152457500Y-90830000D01*
X152459500Y-90830000D01*
X152462500Y-90830000D01*
X153067500Y-90830000D01*
X153070500Y-90830000D01*
X153072500Y-90830000D01*
X153075500Y-90831000D01*
G36*
X153075500Y-90831000D02*
G01*
X153077500Y-90831000D01*
X153080500Y-90832000D01*
X153082500Y-90832000D01*
X153085500Y-90833000D01*
X153087500Y-90834000D01*
X153090500Y-90835000D01*
X153092500Y-90837000D01*
X153094500Y-90838000D01*
X153096500Y-90840000D01*
X153098500Y-90841000D01*
X153100500Y-90843000D01*
X153102500Y-90845000D01*
X153104500Y-90847000D01*
X153106500Y-90849000D01*
X153107500Y-90851000D01*
X153109500Y-90853000D01*
X153110500Y-90855000D01*
X153112500Y-90857000D01*
X153113500Y-90860000D01*
X153114500Y-90862000D01*
X153115500Y-90865000D01*
X153115500Y-90867000D01*
X153116500Y-90870000D01*
X153116500Y-90872000D01*
X153117500Y-90875000D01*
X153117500Y-90877000D01*
X153117500Y-90880000D01*
X153117500Y-91120000D01*
X153117500Y-91123000D01*
X153117500Y-91125000D01*
X153116500Y-91128000D01*
X153116500Y-91130000D01*
X153115500Y-91133000D01*
X153115500Y-91135000D01*
X153114500Y-91138000D01*
X153113500Y-91140000D01*
X153112500Y-91143000D01*
X153110500Y-91145000D01*
X153109500Y-91147000D01*
X153107500Y-91149000D01*
X153106500Y-91151000D01*
X153104500Y-91153000D01*
X153102500Y-91155000D01*
X153100500Y-91157000D01*
X153098500Y-91159000D01*
X153096500Y-91160000D01*
X153094500Y-91162000D01*
X153092500Y-91163000D01*
X153090500Y-91165000D01*
X153087500Y-91166000D01*
X153085500Y-91167000D01*
X153082500Y-91168000D01*
X153080500Y-91168000D01*
X153077500Y-91169000D01*
X153075500Y-91169000D01*
X153072500Y-91170000D01*
X153070500Y-91170000D01*
X153067500Y-91170000D01*
X152462500Y-91170000D01*
X152459500Y-91170000D01*
X152457500Y-91170000D01*
X152454500Y-91169000D01*
X152452500Y-91169000D01*
X152449500Y-91168000D01*
X152447500Y-91168000D01*
X152444500Y-91167000D01*
X152442500Y-91166000D01*
X152439500Y-91165000D01*
X152437500Y-91163000D01*
X152435500Y-91162000D01*
X152433500Y-91160000D01*
X152431500Y-91159000D01*
X152429500Y-91157000D01*
X152427500Y-91155000D01*
X152425500Y-91153000D01*
X152423500Y-91151000D01*
X152422500Y-91149000D01*
X152420500Y-91147000D01*
X152419500Y-91145000D01*
X152417500Y-91143000D01*
X152416500Y-91140000D01*
X152415500Y-91138000D01*
X152414500Y-91135000D01*
X152414500Y-91133000D01*
X152413500Y-91130000D01*
X152413500Y-91128000D01*
X152412500Y-91125000D01*
X152412500Y-91123000D01*
X152412500Y-91120000D01*
X152412500Y-90880000D01*
X152412500Y-90877000D01*
X152412500Y-90875000D01*
X152413500Y-90872000D01*
X152413500Y-90870000D01*
X152414500Y-90867000D01*
X152414500Y-90865000D01*
X152415500Y-90862000D01*
X152416500Y-90860000D01*
X152417500Y-90857000D01*
X152419500Y-90855000D01*
X152420500Y-90853000D01*
X152422500Y-90851000D01*
X152423500Y-90849000D01*
X152425500Y-90847000D01*
X152427500Y-90845000D01*
X152429500Y-90843000D01*
X152431500Y-90841000D01*
X152433500Y-90840000D01*
X152435500Y-90838000D01*
X152437500Y-90837000D01*
X152439500Y-90835000D01*
X152442500Y-90834000D01*
X152444500Y-90833000D01*
X152447500Y-90832000D01*
X152449500Y-90832000D01*
X152452500Y-90831000D01*
X152454500Y-90831000D01*
X152457500Y-90830000D01*
X152459500Y-90830000D01*
X152462500Y-90830000D01*
X153067500Y-90830000D01*
X153070500Y-90830000D01*
X153072500Y-90830000D01*
X153075500Y-90831000D01*
G37*
X153075500Y-91731000D02*
X153077500Y-91731000D01*
X153080500Y-91732000D01*
X153082500Y-91732000D01*
X153085500Y-91733000D01*
X153087500Y-91734000D01*
X153090500Y-91735000D01*
X153092500Y-91737000D01*
X153094500Y-91738000D01*
X153096500Y-91740000D01*
X153098500Y-91741000D01*
X153100500Y-91743000D01*
X153102500Y-91745000D01*
X153104500Y-91747000D01*
X153106500Y-91749000D01*
X153107500Y-91751000D01*
X153109500Y-91753000D01*
X153110500Y-91755000D01*
X153112500Y-91757000D01*
X153113500Y-91760000D01*
X153114500Y-91762000D01*
X153115500Y-91765000D01*
X153115500Y-91767000D01*
X153116500Y-91770000D01*
X153116500Y-91772000D01*
X153117500Y-91775000D01*
X153117500Y-91777000D01*
X153117500Y-91780000D01*
X153117500Y-92220000D01*
X153117500Y-92223000D01*
X153117500Y-92225000D01*
X153116500Y-92228000D01*
X153116500Y-92230000D01*
X153115500Y-92233000D01*
X153115500Y-92235000D01*
X153114500Y-92238000D01*
X153113500Y-92240000D01*
X153112500Y-92243000D01*
X153110500Y-92245000D01*
X153109500Y-92247000D01*
X153107500Y-92249000D01*
X153106500Y-92251000D01*
X153104500Y-92253000D01*
X153102500Y-92255000D01*
X153100500Y-92257000D01*
X153098500Y-92259000D01*
X153096500Y-92260000D01*
X153094500Y-92262000D01*
X153092500Y-92263000D01*
X153090500Y-92265000D01*
X153087500Y-92266000D01*
X153085500Y-92267000D01*
X153082500Y-92268000D01*
X153080500Y-92268000D01*
X153077500Y-92269000D01*
X153075500Y-92269000D01*
X153072500Y-92270000D01*
X153070500Y-92270000D01*
X153067500Y-92270000D01*
X152462500Y-92270000D01*
X152459500Y-92270000D01*
X152457500Y-92270000D01*
X152454500Y-92269000D01*
X152452500Y-92269000D01*
X152449500Y-92268000D01*
X152447500Y-92268000D01*
X152444500Y-92267000D01*
X152442500Y-92266000D01*
X152439500Y-92265000D01*
X152437500Y-92263000D01*
X152435500Y-92262000D01*
X152433500Y-92260000D01*
X152431500Y-92259000D01*
X152429500Y-92257000D01*
X152427500Y-92255000D01*
X152425500Y-92253000D01*
X152423500Y-92251000D01*
X152422500Y-92249000D01*
X152420500Y-92247000D01*
X152419500Y-92245000D01*
X152417500Y-92243000D01*
X152416500Y-92240000D01*
X152415500Y-92238000D01*
X152414500Y-92235000D01*
X152414500Y-92233000D01*
X152413500Y-92230000D01*
X152413500Y-92228000D01*
X152412500Y-92225000D01*
X152412500Y-92223000D01*
X152412500Y-92220000D01*
X152412500Y-91780000D01*
X152412500Y-91777000D01*
X152412500Y-91775000D01*
X152413500Y-91772000D01*
X152413500Y-91770000D01*
X152414500Y-91767000D01*
X152414500Y-91765000D01*
X152415500Y-91762000D01*
X152416500Y-91760000D01*
X152417500Y-91757000D01*
X152419500Y-91755000D01*
X152420500Y-91753000D01*
X152422500Y-91751000D01*
X152423500Y-91749000D01*
X152425500Y-91747000D01*
X152427500Y-91745000D01*
X152429500Y-91743000D01*
X152431500Y-91741000D01*
X152433500Y-91740000D01*
X152435500Y-91738000D01*
X152437500Y-91737000D01*
X152439500Y-91735000D01*
X152442500Y-91734000D01*
X152444500Y-91733000D01*
X152447500Y-91732000D01*
X152449500Y-91732000D01*
X152452500Y-91731000D01*
X152454500Y-91731000D01*
X152457500Y-91730000D01*
X152459500Y-91730000D01*
X152462500Y-91730000D01*
X153067500Y-91730000D01*
X153070500Y-91730000D01*
X153072500Y-91730000D01*
X153075500Y-91731000D01*
G36*
X153075500Y-91731000D02*
G01*
X153077500Y-91731000D01*
X153080500Y-91732000D01*
X153082500Y-91732000D01*
X153085500Y-91733000D01*
X153087500Y-91734000D01*
X153090500Y-91735000D01*
X153092500Y-91737000D01*
X153094500Y-91738000D01*
X153096500Y-91740000D01*
X153098500Y-91741000D01*
X153100500Y-91743000D01*
X153102500Y-91745000D01*
X153104500Y-91747000D01*
X153106500Y-91749000D01*
X153107500Y-91751000D01*
X153109500Y-91753000D01*
X153110500Y-91755000D01*
X153112500Y-91757000D01*
X153113500Y-91760000D01*
X153114500Y-91762000D01*
X153115500Y-91765000D01*
X153115500Y-91767000D01*
X153116500Y-91770000D01*
X153116500Y-91772000D01*
X153117500Y-91775000D01*
X153117500Y-91777000D01*
X153117500Y-91780000D01*
X153117500Y-92220000D01*
X153117500Y-92223000D01*
X153117500Y-92225000D01*
X153116500Y-92228000D01*
X153116500Y-92230000D01*
X153115500Y-92233000D01*
X153115500Y-92235000D01*
X153114500Y-92238000D01*
X153113500Y-92240000D01*
X153112500Y-92243000D01*
X153110500Y-92245000D01*
X153109500Y-92247000D01*
X153107500Y-92249000D01*
X153106500Y-92251000D01*
X153104500Y-92253000D01*
X153102500Y-92255000D01*
X153100500Y-92257000D01*
X153098500Y-92259000D01*
X153096500Y-92260000D01*
X153094500Y-92262000D01*
X153092500Y-92263000D01*
X153090500Y-92265000D01*
X153087500Y-92266000D01*
X153085500Y-92267000D01*
X153082500Y-92268000D01*
X153080500Y-92268000D01*
X153077500Y-92269000D01*
X153075500Y-92269000D01*
X153072500Y-92270000D01*
X153070500Y-92270000D01*
X153067500Y-92270000D01*
X152462500Y-92270000D01*
X152459500Y-92270000D01*
X152457500Y-92270000D01*
X152454500Y-92269000D01*
X152452500Y-92269000D01*
X152449500Y-92268000D01*
X152447500Y-92268000D01*
X152444500Y-92267000D01*
X152442500Y-92266000D01*
X152439500Y-92265000D01*
X152437500Y-92263000D01*
X152435500Y-92262000D01*
X152433500Y-92260000D01*
X152431500Y-92259000D01*
X152429500Y-92257000D01*
X152427500Y-92255000D01*
X152425500Y-92253000D01*
X152423500Y-92251000D01*
X152422500Y-92249000D01*
X152420500Y-92247000D01*
X152419500Y-92245000D01*
X152417500Y-92243000D01*
X152416500Y-92240000D01*
X152415500Y-92238000D01*
X152414500Y-92235000D01*
X152414500Y-92233000D01*
X152413500Y-92230000D01*
X152413500Y-92228000D01*
X152412500Y-92225000D01*
X152412500Y-92223000D01*
X152412500Y-92220000D01*
X152412500Y-91780000D01*
X152412500Y-91777000D01*
X152412500Y-91775000D01*
X152413500Y-91772000D01*
X152413500Y-91770000D01*
X152414500Y-91767000D01*
X152414500Y-91765000D01*
X152415500Y-91762000D01*
X152416500Y-91760000D01*
X152417500Y-91757000D01*
X152419500Y-91755000D01*
X152420500Y-91753000D01*
X152422500Y-91751000D01*
X152423500Y-91749000D01*
X152425500Y-91747000D01*
X152427500Y-91745000D01*
X152429500Y-91743000D01*
X152431500Y-91741000D01*
X152433500Y-91740000D01*
X152435500Y-91738000D01*
X152437500Y-91737000D01*
X152439500Y-91735000D01*
X152442500Y-91734000D01*
X152444500Y-91733000D01*
X152447500Y-91732000D01*
X152449500Y-91732000D01*
X152452500Y-91731000D01*
X152454500Y-91731000D01*
X152457500Y-91730000D01*
X152459500Y-91730000D01*
X152462500Y-91730000D01*
X153067500Y-91730000D01*
X153070500Y-91730000D01*
X153072500Y-91730000D01*
X153075500Y-91731000D01*
G37*
X153075500Y-92831000D02*
X153077500Y-92831000D01*
X153080500Y-92832000D01*
X153082500Y-92832000D01*
X153085500Y-92833000D01*
X153087500Y-92834000D01*
X153090500Y-92835000D01*
X153092500Y-92837000D01*
X153094500Y-92838000D01*
X153096500Y-92840000D01*
X153098500Y-92841000D01*
X153100500Y-92843000D01*
X153102500Y-92845000D01*
X153104500Y-92847000D01*
X153106500Y-92849000D01*
X153107500Y-92851000D01*
X153109500Y-92853000D01*
X153110500Y-92855000D01*
X153112500Y-92857000D01*
X153113500Y-92860000D01*
X153114500Y-92862000D01*
X153115500Y-92865000D01*
X153115500Y-92867000D01*
X153116500Y-92870000D01*
X153116500Y-92872000D01*
X153117500Y-92875000D01*
X153117500Y-92877000D01*
X153117500Y-92880000D01*
X153117500Y-93120000D01*
X153117500Y-93123000D01*
X153117500Y-93125000D01*
X153116500Y-93128000D01*
X153116500Y-93130000D01*
X153115500Y-93133000D01*
X153115500Y-93135000D01*
X153114500Y-93138000D01*
X153113500Y-93140000D01*
X153112500Y-93143000D01*
X153110500Y-93145000D01*
X153109500Y-93147000D01*
X153107500Y-93149000D01*
X153106500Y-93151000D01*
X153104500Y-93153000D01*
X153102500Y-93155000D01*
X153100500Y-93157000D01*
X153098500Y-93159000D01*
X153096500Y-93160000D01*
X153094500Y-93162000D01*
X153092500Y-93163000D01*
X153090500Y-93165000D01*
X153087500Y-93166000D01*
X153085500Y-93167000D01*
X153082500Y-93168000D01*
X153080500Y-93168000D01*
X153077500Y-93169000D01*
X153075500Y-93169000D01*
X153072500Y-93170000D01*
X153070500Y-93170000D01*
X153067500Y-93170000D01*
X152462500Y-93170000D01*
X152459500Y-93170000D01*
X152457500Y-93170000D01*
X152454500Y-93169000D01*
X152452500Y-93169000D01*
X152449500Y-93168000D01*
X152447500Y-93168000D01*
X152444500Y-93167000D01*
X152442500Y-93166000D01*
X152439500Y-93165000D01*
X152437500Y-93163000D01*
X152435500Y-93162000D01*
X152433500Y-93160000D01*
X152431500Y-93159000D01*
X152429500Y-93157000D01*
X152427500Y-93155000D01*
X152425500Y-93153000D01*
X152423500Y-93151000D01*
X152422500Y-93149000D01*
X152420500Y-93147000D01*
X152419500Y-93145000D01*
X152417500Y-93143000D01*
X152416500Y-93140000D01*
X152415500Y-93138000D01*
X152414500Y-93135000D01*
X152414500Y-93133000D01*
X152413500Y-93130000D01*
X152413500Y-93128000D01*
X152412500Y-93125000D01*
X152412500Y-93123000D01*
X152412500Y-93120000D01*
X152412500Y-92880000D01*
X152412500Y-92877000D01*
X152412500Y-92875000D01*
X152413500Y-92872000D01*
X152413500Y-92870000D01*
X152414500Y-92867000D01*
X152414500Y-92865000D01*
X152415500Y-92862000D01*
X152416500Y-92860000D01*
X152417500Y-92857000D01*
X152419500Y-92855000D01*
X152420500Y-92853000D01*
X152422500Y-92851000D01*
X152423500Y-92849000D01*
X152425500Y-92847000D01*
X152427500Y-92845000D01*
X152429500Y-92843000D01*
X152431500Y-92841000D01*
X152433500Y-92840000D01*
X152435500Y-92838000D01*
X152437500Y-92837000D01*
X152439500Y-92835000D01*
X152442500Y-92834000D01*
X152444500Y-92833000D01*
X152447500Y-92832000D01*
X152449500Y-92832000D01*
X152452500Y-92831000D01*
X152454500Y-92831000D01*
X152457500Y-92830000D01*
X152459500Y-92830000D01*
X152462500Y-92830000D01*
X153067500Y-92830000D01*
X153070500Y-92830000D01*
X153072500Y-92830000D01*
X153075500Y-92831000D01*
G36*
X153075500Y-92831000D02*
G01*
X153077500Y-92831000D01*
X153080500Y-92832000D01*
X153082500Y-92832000D01*
X153085500Y-92833000D01*
X153087500Y-92834000D01*
X153090500Y-92835000D01*
X153092500Y-92837000D01*
X153094500Y-92838000D01*
X153096500Y-92840000D01*
X153098500Y-92841000D01*
X153100500Y-92843000D01*
X153102500Y-92845000D01*
X153104500Y-92847000D01*
X153106500Y-92849000D01*
X153107500Y-92851000D01*
X153109500Y-92853000D01*
X153110500Y-92855000D01*
X153112500Y-92857000D01*
X153113500Y-92860000D01*
X153114500Y-92862000D01*
X153115500Y-92865000D01*
X153115500Y-92867000D01*
X153116500Y-92870000D01*
X153116500Y-92872000D01*
X153117500Y-92875000D01*
X153117500Y-92877000D01*
X153117500Y-92880000D01*
X153117500Y-93120000D01*
X153117500Y-93123000D01*
X153117500Y-93125000D01*
X153116500Y-93128000D01*
X153116500Y-93130000D01*
X153115500Y-93133000D01*
X153115500Y-93135000D01*
X153114500Y-93138000D01*
X153113500Y-93140000D01*
X153112500Y-93143000D01*
X153110500Y-93145000D01*
X153109500Y-93147000D01*
X153107500Y-93149000D01*
X153106500Y-93151000D01*
X153104500Y-93153000D01*
X153102500Y-93155000D01*
X153100500Y-93157000D01*
X153098500Y-93159000D01*
X153096500Y-93160000D01*
X153094500Y-93162000D01*
X153092500Y-93163000D01*
X153090500Y-93165000D01*
X153087500Y-93166000D01*
X153085500Y-93167000D01*
X153082500Y-93168000D01*
X153080500Y-93168000D01*
X153077500Y-93169000D01*
X153075500Y-93169000D01*
X153072500Y-93170000D01*
X153070500Y-93170000D01*
X153067500Y-93170000D01*
X152462500Y-93170000D01*
X152459500Y-93170000D01*
X152457500Y-93170000D01*
X152454500Y-93169000D01*
X152452500Y-93169000D01*
X152449500Y-93168000D01*
X152447500Y-93168000D01*
X152444500Y-93167000D01*
X152442500Y-93166000D01*
X152439500Y-93165000D01*
X152437500Y-93163000D01*
X152435500Y-93162000D01*
X152433500Y-93160000D01*
X152431500Y-93159000D01*
X152429500Y-93157000D01*
X152427500Y-93155000D01*
X152425500Y-93153000D01*
X152423500Y-93151000D01*
X152422500Y-93149000D01*
X152420500Y-93147000D01*
X152419500Y-93145000D01*
X152417500Y-93143000D01*
X152416500Y-93140000D01*
X152415500Y-93138000D01*
X152414500Y-93135000D01*
X152414500Y-93133000D01*
X152413500Y-93130000D01*
X152413500Y-93128000D01*
X152412500Y-93125000D01*
X152412500Y-93123000D01*
X152412500Y-93120000D01*
X152412500Y-92880000D01*
X152412500Y-92877000D01*
X152412500Y-92875000D01*
X152413500Y-92872000D01*
X152413500Y-92870000D01*
X152414500Y-92867000D01*
X152414500Y-92865000D01*
X152415500Y-92862000D01*
X152416500Y-92860000D01*
X152417500Y-92857000D01*
X152419500Y-92855000D01*
X152420500Y-92853000D01*
X152422500Y-92851000D01*
X152423500Y-92849000D01*
X152425500Y-92847000D01*
X152427500Y-92845000D01*
X152429500Y-92843000D01*
X152431500Y-92841000D01*
X152433500Y-92840000D01*
X152435500Y-92838000D01*
X152437500Y-92837000D01*
X152439500Y-92835000D01*
X152442500Y-92834000D01*
X152444500Y-92833000D01*
X152447500Y-92832000D01*
X152449500Y-92832000D01*
X152452500Y-92831000D01*
X152454500Y-92831000D01*
X152457500Y-92830000D01*
X152459500Y-92830000D01*
X152462500Y-92830000D01*
X153067500Y-92830000D01*
X153070500Y-92830000D01*
X153072500Y-92830000D01*
X153075500Y-92831000D01*
G37*
X153075500Y-91331000D02*
X153077500Y-91331000D01*
X153080500Y-91332000D01*
X153082500Y-91332000D01*
X153085500Y-91333000D01*
X153087500Y-91334000D01*
X153090500Y-91335000D01*
X153092500Y-91337000D01*
X153094500Y-91338000D01*
X153096500Y-91340000D01*
X153098500Y-91341000D01*
X153100500Y-91343000D01*
X153102500Y-91345000D01*
X153104500Y-91347000D01*
X153106500Y-91349000D01*
X153107500Y-91351000D01*
X153109500Y-91353000D01*
X153110500Y-91355000D01*
X153112500Y-91357000D01*
X153113500Y-91360000D01*
X153114500Y-91362000D01*
X153115500Y-91365000D01*
X153115500Y-91367000D01*
X153116500Y-91370000D01*
X153116500Y-91372000D01*
X153117500Y-91375000D01*
X153117500Y-91377000D01*
X153117500Y-91380000D01*
X153117500Y-91620000D01*
X153117500Y-91623000D01*
X153117500Y-91625000D01*
X153116500Y-91628000D01*
X153116500Y-91630000D01*
X153115500Y-91633000D01*
X153115500Y-91635000D01*
X153114500Y-91638000D01*
X153113500Y-91640000D01*
X153112500Y-91643000D01*
X153110500Y-91645000D01*
X153109500Y-91647000D01*
X153107500Y-91649000D01*
X153106500Y-91651000D01*
X153104500Y-91653000D01*
X153102500Y-91655000D01*
X153100500Y-91657000D01*
X153098500Y-91659000D01*
X153096500Y-91660000D01*
X153094500Y-91662000D01*
X153092500Y-91663000D01*
X153090500Y-91665000D01*
X153087500Y-91666000D01*
X153085500Y-91667000D01*
X153082500Y-91668000D01*
X153080500Y-91668000D01*
X153077500Y-91669000D01*
X153075500Y-91669000D01*
X153072500Y-91670000D01*
X153070500Y-91670000D01*
X153067500Y-91670000D01*
X152462500Y-91670000D01*
X152459500Y-91670000D01*
X152457500Y-91670000D01*
X152454500Y-91669000D01*
X152452500Y-91669000D01*
X152449500Y-91668000D01*
X152447500Y-91668000D01*
X152444500Y-91667000D01*
X152442500Y-91666000D01*
X152439500Y-91665000D01*
X152437500Y-91663000D01*
X152435500Y-91662000D01*
X152433500Y-91660000D01*
X152431500Y-91659000D01*
X152429500Y-91657000D01*
X152427500Y-91655000D01*
X152425500Y-91653000D01*
X152423500Y-91651000D01*
X152422500Y-91649000D01*
X152420500Y-91647000D01*
X152419500Y-91645000D01*
X152417500Y-91643000D01*
X152416500Y-91640000D01*
X152415500Y-91638000D01*
X152414500Y-91635000D01*
X152414500Y-91633000D01*
X152413500Y-91630000D01*
X152413500Y-91628000D01*
X152412500Y-91625000D01*
X152412500Y-91623000D01*
X152412500Y-91620000D01*
X152412500Y-91380000D01*
X152412500Y-91377000D01*
X152412500Y-91375000D01*
X152413500Y-91372000D01*
X152413500Y-91370000D01*
X152414500Y-91367000D01*
X152414500Y-91365000D01*
X152415500Y-91362000D01*
X152416500Y-91360000D01*
X152417500Y-91357000D01*
X152419500Y-91355000D01*
X152420500Y-91353000D01*
X152422500Y-91351000D01*
X152423500Y-91349000D01*
X152425500Y-91347000D01*
X152427500Y-91345000D01*
X152429500Y-91343000D01*
X152431500Y-91341000D01*
X152433500Y-91340000D01*
X152435500Y-91338000D01*
X152437500Y-91337000D01*
X152439500Y-91335000D01*
X152442500Y-91334000D01*
X152444500Y-91333000D01*
X152447500Y-91332000D01*
X152449500Y-91332000D01*
X152452500Y-91331000D01*
X152454500Y-91331000D01*
X152457500Y-91330000D01*
X152459500Y-91330000D01*
X152462500Y-91330000D01*
X153067500Y-91330000D01*
X153070500Y-91330000D01*
X153072500Y-91330000D01*
X153075500Y-91331000D01*
G36*
X153075500Y-91331000D02*
G01*
X153077500Y-91331000D01*
X153080500Y-91332000D01*
X153082500Y-91332000D01*
X153085500Y-91333000D01*
X153087500Y-91334000D01*
X153090500Y-91335000D01*
X153092500Y-91337000D01*
X153094500Y-91338000D01*
X153096500Y-91340000D01*
X153098500Y-91341000D01*
X153100500Y-91343000D01*
X153102500Y-91345000D01*
X153104500Y-91347000D01*
X153106500Y-91349000D01*
X153107500Y-91351000D01*
X153109500Y-91353000D01*
X153110500Y-91355000D01*
X153112500Y-91357000D01*
X153113500Y-91360000D01*
X153114500Y-91362000D01*
X153115500Y-91365000D01*
X153115500Y-91367000D01*
X153116500Y-91370000D01*
X153116500Y-91372000D01*
X153117500Y-91375000D01*
X153117500Y-91377000D01*
X153117500Y-91380000D01*
X153117500Y-91620000D01*
X153117500Y-91623000D01*
X153117500Y-91625000D01*
X153116500Y-91628000D01*
X153116500Y-91630000D01*
X153115500Y-91633000D01*
X153115500Y-91635000D01*
X153114500Y-91638000D01*
X153113500Y-91640000D01*
X153112500Y-91643000D01*
X153110500Y-91645000D01*
X153109500Y-91647000D01*
X153107500Y-91649000D01*
X153106500Y-91651000D01*
X153104500Y-91653000D01*
X153102500Y-91655000D01*
X153100500Y-91657000D01*
X153098500Y-91659000D01*
X153096500Y-91660000D01*
X153094500Y-91662000D01*
X153092500Y-91663000D01*
X153090500Y-91665000D01*
X153087500Y-91666000D01*
X153085500Y-91667000D01*
X153082500Y-91668000D01*
X153080500Y-91668000D01*
X153077500Y-91669000D01*
X153075500Y-91669000D01*
X153072500Y-91670000D01*
X153070500Y-91670000D01*
X153067500Y-91670000D01*
X152462500Y-91670000D01*
X152459500Y-91670000D01*
X152457500Y-91670000D01*
X152454500Y-91669000D01*
X152452500Y-91669000D01*
X152449500Y-91668000D01*
X152447500Y-91668000D01*
X152444500Y-91667000D01*
X152442500Y-91666000D01*
X152439500Y-91665000D01*
X152437500Y-91663000D01*
X152435500Y-91662000D01*
X152433500Y-91660000D01*
X152431500Y-91659000D01*
X152429500Y-91657000D01*
X152427500Y-91655000D01*
X152425500Y-91653000D01*
X152423500Y-91651000D01*
X152422500Y-91649000D01*
X152420500Y-91647000D01*
X152419500Y-91645000D01*
X152417500Y-91643000D01*
X152416500Y-91640000D01*
X152415500Y-91638000D01*
X152414500Y-91635000D01*
X152414500Y-91633000D01*
X152413500Y-91630000D01*
X152413500Y-91628000D01*
X152412500Y-91625000D01*
X152412500Y-91623000D01*
X152412500Y-91620000D01*
X152412500Y-91380000D01*
X152412500Y-91377000D01*
X152412500Y-91375000D01*
X152413500Y-91372000D01*
X152413500Y-91370000D01*
X152414500Y-91367000D01*
X152414500Y-91365000D01*
X152415500Y-91362000D01*
X152416500Y-91360000D01*
X152417500Y-91357000D01*
X152419500Y-91355000D01*
X152420500Y-91353000D01*
X152422500Y-91351000D01*
X152423500Y-91349000D01*
X152425500Y-91347000D01*
X152427500Y-91345000D01*
X152429500Y-91343000D01*
X152431500Y-91341000D01*
X152433500Y-91340000D01*
X152435500Y-91338000D01*
X152437500Y-91337000D01*
X152439500Y-91335000D01*
X152442500Y-91334000D01*
X152444500Y-91333000D01*
X152447500Y-91332000D01*
X152449500Y-91332000D01*
X152452500Y-91331000D01*
X152454500Y-91331000D01*
X152457500Y-91330000D01*
X152459500Y-91330000D01*
X152462500Y-91330000D01*
X153067500Y-91330000D01*
X153070500Y-91330000D01*
X153072500Y-91330000D01*
X153075500Y-91331000D01*
G37*
X153075500Y-92331000D02*
X153077500Y-92331000D01*
X153080500Y-92332000D01*
X153082500Y-92332000D01*
X153085500Y-92333000D01*
X153087500Y-92334000D01*
X153090500Y-92335000D01*
X153092500Y-92337000D01*
X153094500Y-92338000D01*
X153096500Y-92340000D01*
X153098500Y-92341000D01*
X153100500Y-92343000D01*
X153102500Y-92345000D01*
X153104500Y-92347000D01*
X153106500Y-92349000D01*
X153107500Y-92351000D01*
X153109500Y-92353000D01*
X153110500Y-92355000D01*
X153112500Y-92357000D01*
X153113500Y-92360000D01*
X153114500Y-92362000D01*
X153115500Y-92365000D01*
X153115500Y-92367000D01*
X153116500Y-92370000D01*
X153116500Y-92372000D01*
X153117500Y-92375000D01*
X153117500Y-92377000D01*
X153117500Y-92380000D01*
X153117500Y-92620000D01*
X153117500Y-92623000D01*
X153117500Y-92625000D01*
X153116500Y-92628000D01*
X153116500Y-92630000D01*
X153115500Y-92633000D01*
X153115500Y-92635000D01*
X153114500Y-92638000D01*
X153113500Y-92640000D01*
X153112500Y-92643000D01*
X153110500Y-92645000D01*
X153109500Y-92647000D01*
X153107500Y-92649000D01*
X153106500Y-92651000D01*
X153104500Y-92653000D01*
X153102500Y-92655000D01*
X153100500Y-92657000D01*
X153098500Y-92659000D01*
X153096500Y-92660000D01*
X153094500Y-92662000D01*
X153092500Y-92663000D01*
X153090500Y-92665000D01*
X153087500Y-92666000D01*
X153085500Y-92667000D01*
X153082500Y-92668000D01*
X153080500Y-92668000D01*
X153077500Y-92669000D01*
X153075500Y-92669000D01*
X153072500Y-92670000D01*
X153070500Y-92670000D01*
X153067500Y-92670000D01*
X152462500Y-92670000D01*
X152459500Y-92670000D01*
X152457500Y-92670000D01*
X152454500Y-92669000D01*
X152452500Y-92669000D01*
X152449500Y-92668000D01*
X152447500Y-92668000D01*
X152444500Y-92667000D01*
X152442500Y-92666000D01*
X152439500Y-92665000D01*
X152437500Y-92663000D01*
X152435500Y-92662000D01*
X152433500Y-92660000D01*
X152431500Y-92659000D01*
X152429500Y-92657000D01*
X152427500Y-92655000D01*
X152425500Y-92653000D01*
X152423500Y-92651000D01*
X152422500Y-92649000D01*
X152420500Y-92647000D01*
X152419500Y-92645000D01*
X152417500Y-92643000D01*
X152416500Y-92640000D01*
X152415500Y-92638000D01*
X152414500Y-92635000D01*
X152414500Y-92633000D01*
X152413500Y-92630000D01*
X152413500Y-92628000D01*
X152412500Y-92625000D01*
X152412500Y-92623000D01*
X152412500Y-92620000D01*
X152412500Y-92380000D01*
X152412500Y-92377000D01*
X152412500Y-92375000D01*
X152413500Y-92372000D01*
X152413500Y-92370000D01*
X152414500Y-92367000D01*
X152414500Y-92365000D01*
X152415500Y-92362000D01*
X152416500Y-92360000D01*
X152417500Y-92357000D01*
X152419500Y-92355000D01*
X152420500Y-92353000D01*
X152422500Y-92351000D01*
X152423500Y-92349000D01*
X152425500Y-92347000D01*
X152427500Y-92345000D01*
X152429500Y-92343000D01*
X152431500Y-92341000D01*
X152433500Y-92340000D01*
X152435500Y-92338000D01*
X152437500Y-92337000D01*
X152439500Y-92335000D01*
X152442500Y-92334000D01*
X152444500Y-92333000D01*
X152447500Y-92332000D01*
X152449500Y-92332000D01*
X152452500Y-92331000D01*
X152454500Y-92331000D01*
X152457500Y-92330000D01*
X152459500Y-92330000D01*
X152462500Y-92330000D01*
X153067500Y-92330000D01*
X153070500Y-92330000D01*
X153072500Y-92330000D01*
X153075500Y-92331000D01*
G36*
X153075500Y-92331000D02*
G01*
X153077500Y-92331000D01*
X153080500Y-92332000D01*
X153082500Y-92332000D01*
X153085500Y-92333000D01*
X153087500Y-92334000D01*
X153090500Y-92335000D01*
X153092500Y-92337000D01*
X153094500Y-92338000D01*
X153096500Y-92340000D01*
X153098500Y-92341000D01*
X153100500Y-92343000D01*
X153102500Y-92345000D01*
X153104500Y-92347000D01*
X153106500Y-92349000D01*
X153107500Y-92351000D01*
X153109500Y-92353000D01*
X153110500Y-92355000D01*
X153112500Y-92357000D01*
X153113500Y-92360000D01*
X153114500Y-92362000D01*
X153115500Y-92365000D01*
X153115500Y-92367000D01*
X153116500Y-92370000D01*
X153116500Y-92372000D01*
X153117500Y-92375000D01*
X153117500Y-92377000D01*
X153117500Y-92380000D01*
X153117500Y-92620000D01*
X153117500Y-92623000D01*
X153117500Y-92625000D01*
X153116500Y-92628000D01*
X153116500Y-92630000D01*
X153115500Y-92633000D01*
X153115500Y-92635000D01*
X153114500Y-92638000D01*
X153113500Y-92640000D01*
X153112500Y-92643000D01*
X153110500Y-92645000D01*
X153109500Y-92647000D01*
X153107500Y-92649000D01*
X153106500Y-92651000D01*
X153104500Y-92653000D01*
X153102500Y-92655000D01*
X153100500Y-92657000D01*
X153098500Y-92659000D01*
X153096500Y-92660000D01*
X153094500Y-92662000D01*
X153092500Y-92663000D01*
X153090500Y-92665000D01*
X153087500Y-92666000D01*
X153085500Y-92667000D01*
X153082500Y-92668000D01*
X153080500Y-92668000D01*
X153077500Y-92669000D01*
X153075500Y-92669000D01*
X153072500Y-92670000D01*
X153070500Y-92670000D01*
X153067500Y-92670000D01*
X152462500Y-92670000D01*
X152459500Y-92670000D01*
X152457500Y-92670000D01*
X152454500Y-92669000D01*
X152452500Y-92669000D01*
X152449500Y-92668000D01*
X152447500Y-92668000D01*
X152444500Y-92667000D01*
X152442500Y-92666000D01*
X152439500Y-92665000D01*
X152437500Y-92663000D01*
X152435500Y-92662000D01*
X152433500Y-92660000D01*
X152431500Y-92659000D01*
X152429500Y-92657000D01*
X152427500Y-92655000D01*
X152425500Y-92653000D01*
X152423500Y-92651000D01*
X152422500Y-92649000D01*
X152420500Y-92647000D01*
X152419500Y-92645000D01*
X152417500Y-92643000D01*
X152416500Y-92640000D01*
X152415500Y-92638000D01*
X152414500Y-92635000D01*
X152414500Y-92633000D01*
X152413500Y-92630000D01*
X152413500Y-92628000D01*
X152412500Y-92625000D01*
X152412500Y-92623000D01*
X152412500Y-92620000D01*
X152412500Y-92380000D01*
X152412500Y-92377000D01*
X152412500Y-92375000D01*
X152413500Y-92372000D01*
X152413500Y-92370000D01*
X152414500Y-92367000D01*
X152414500Y-92365000D01*
X152415500Y-92362000D01*
X152416500Y-92360000D01*
X152417500Y-92357000D01*
X152419500Y-92355000D01*
X152420500Y-92353000D01*
X152422500Y-92351000D01*
X152423500Y-92349000D01*
X152425500Y-92347000D01*
X152427500Y-92345000D01*
X152429500Y-92343000D01*
X152431500Y-92341000D01*
X152433500Y-92340000D01*
X152435500Y-92338000D01*
X152437500Y-92337000D01*
X152439500Y-92335000D01*
X152442500Y-92334000D01*
X152444500Y-92333000D01*
X152447500Y-92332000D01*
X152449500Y-92332000D01*
X152452500Y-92331000D01*
X152454500Y-92331000D01*
X152457500Y-92330000D01*
X152459500Y-92330000D01*
X152462500Y-92330000D01*
X153067500Y-92330000D01*
X153070500Y-92330000D01*
X153072500Y-92330000D01*
X153075500Y-92331000D01*
G37*
X153910500Y-91331000D02*
X153912500Y-91331000D01*
X153915500Y-91332000D01*
X153917500Y-91332000D01*
X153920500Y-91333000D01*
X153922500Y-91334000D01*
X153925500Y-91335000D01*
X153927500Y-91337000D01*
X153929500Y-91338000D01*
X153931500Y-91340000D01*
X153933500Y-91341000D01*
X153935500Y-91343000D01*
X153937500Y-91345000D01*
X153939500Y-91347000D01*
X153941500Y-91349000D01*
X153942500Y-91351000D01*
X153944500Y-91353000D01*
X153945500Y-91355000D01*
X153947500Y-91357000D01*
X153948500Y-91360000D01*
X153949500Y-91362000D01*
X153950500Y-91365000D01*
X153950500Y-91367000D01*
X153951500Y-91370000D01*
X153951500Y-91372000D01*
X153952500Y-91375000D01*
X153952500Y-91377000D01*
X153952500Y-91380000D01*
X153952500Y-91620000D01*
X153952500Y-91623000D01*
X153952500Y-91625000D01*
X153951500Y-91628000D01*
X153951500Y-91630000D01*
X153950500Y-91633000D01*
X153950500Y-91635000D01*
X153949500Y-91638000D01*
X153948500Y-91640000D01*
X153947500Y-91643000D01*
X153945500Y-91645000D01*
X153944500Y-91647000D01*
X153942500Y-91649000D01*
X153941500Y-91651000D01*
X153939500Y-91653000D01*
X153937500Y-91655000D01*
X153935500Y-91657000D01*
X153933500Y-91659000D01*
X153931500Y-91660000D01*
X153929500Y-91662000D01*
X153927500Y-91663000D01*
X153925500Y-91665000D01*
X153922500Y-91666000D01*
X153920500Y-91667000D01*
X153917500Y-91668000D01*
X153915500Y-91668000D01*
X153912500Y-91669000D01*
X153910500Y-91669000D01*
X153907500Y-91670000D01*
X153905500Y-91670000D01*
X153902500Y-91670000D01*
X153297500Y-91670000D01*
X153294500Y-91670000D01*
X153292500Y-91670000D01*
X153289500Y-91669000D01*
X153287500Y-91669000D01*
X153284500Y-91668000D01*
X153282500Y-91668000D01*
X153279500Y-91667000D01*
X153277500Y-91666000D01*
X153274500Y-91665000D01*
X153272500Y-91663000D01*
X153270500Y-91662000D01*
X153268500Y-91660000D01*
X153266500Y-91659000D01*
X153264500Y-91657000D01*
X153262500Y-91655000D01*
X153260500Y-91653000D01*
X153258500Y-91651000D01*
X153257500Y-91649000D01*
X153255500Y-91647000D01*
X153254500Y-91645000D01*
X153252500Y-91643000D01*
X153251500Y-91640000D01*
X153250500Y-91638000D01*
X153249500Y-91635000D01*
X153249500Y-91633000D01*
X153248500Y-91630000D01*
X153248500Y-91628000D01*
X153247500Y-91625000D01*
X153247500Y-91623000D01*
X153247500Y-91620000D01*
X153247500Y-91380000D01*
X153247500Y-91377000D01*
X153247500Y-91375000D01*
X153248500Y-91372000D01*
X153248500Y-91370000D01*
X153249500Y-91367000D01*
X153249500Y-91365000D01*
X153250500Y-91362000D01*
X153251500Y-91360000D01*
X153252500Y-91357000D01*
X153254500Y-91355000D01*
X153255500Y-91353000D01*
X153257500Y-91351000D01*
X153258500Y-91349000D01*
X153260500Y-91347000D01*
X153262500Y-91345000D01*
X153264500Y-91343000D01*
X153266500Y-91341000D01*
X153268500Y-91340000D01*
X153270500Y-91338000D01*
X153272500Y-91337000D01*
X153274500Y-91335000D01*
X153277500Y-91334000D01*
X153279500Y-91333000D01*
X153282500Y-91332000D01*
X153284500Y-91332000D01*
X153287500Y-91331000D01*
X153289500Y-91331000D01*
X153292500Y-91330000D01*
X153294500Y-91330000D01*
X153297500Y-91330000D01*
X153902500Y-91330000D01*
X153905500Y-91330000D01*
X153907500Y-91330000D01*
X153910500Y-91331000D01*
G36*
X153910500Y-91331000D02*
G01*
X153912500Y-91331000D01*
X153915500Y-91332000D01*
X153917500Y-91332000D01*
X153920500Y-91333000D01*
X153922500Y-91334000D01*
X153925500Y-91335000D01*
X153927500Y-91337000D01*
X153929500Y-91338000D01*
X153931500Y-91340000D01*
X153933500Y-91341000D01*
X153935500Y-91343000D01*
X153937500Y-91345000D01*
X153939500Y-91347000D01*
X153941500Y-91349000D01*
X153942500Y-91351000D01*
X153944500Y-91353000D01*
X153945500Y-91355000D01*
X153947500Y-91357000D01*
X153948500Y-91360000D01*
X153949500Y-91362000D01*
X153950500Y-91365000D01*
X153950500Y-91367000D01*
X153951500Y-91370000D01*
X153951500Y-91372000D01*
X153952500Y-91375000D01*
X153952500Y-91377000D01*
X153952500Y-91380000D01*
X153952500Y-91620000D01*
X153952500Y-91623000D01*
X153952500Y-91625000D01*
X153951500Y-91628000D01*
X153951500Y-91630000D01*
X153950500Y-91633000D01*
X153950500Y-91635000D01*
X153949500Y-91638000D01*
X153948500Y-91640000D01*
X153947500Y-91643000D01*
X153945500Y-91645000D01*
X153944500Y-91647000D01*
X153942500Y-91649000D01*
X153941500Y-91651000D01*
X153939500Y-91653000D01*
X153937500Y-91655000D01*
X153935500Y-91657000D01*
X153933500Y-91659000D01*
X153931500Y-91660000D01*
X153929500Y-91662000D01*
X153927500Y-91663000D01*
X153925500Y-91665000D01*
X153922500Y-91666000D01*
X153920500Y-91667000D01*
X153917500Y-91668000D01*
X153915500Y-91668000D01*
X153912500Y-91669000D01*
X153910500Y-91669000D01*
X153907500Y-91670000D01*
X153905500Y-91670000D01*
X153902500Y-91670000D01*
X153297500Y-91670000D01*
X153294500Y-91670000D01*
X153292500Y-91670000D01*
X153289500Y-91669000D01*
X153287500Y-91669000D01*
X153284500Y-91668000D01*
X153282500Y-91668000D01*
X153279500Y-91667000D01*
X153277500Y-91666000D01*
X153274500Y-91665000D01*
X153272500Y-91663000D01*
X153270500Y-91662000D01*
X153268500Y-91660000D01*
X153266500Y-91659000D01*
X153264500Y-91657000D01*
X153262500Y-91655000D01*
X153260500Y-91653000D01*
X153258500Y-91651000D01*
X153257500Y-91649000D01*
X153255500Y-91647000D01*
X153254500Y-91645000D01*
X153252500Y-91643000D01*
X153251500Y-91640000D01*
X153250500Y-91638000D01*
X153249500Y-91635000D01*
X153249500Y-91633000D01*
X153248500Y-91630000D01*
X153248500Y-91628000D01*
X153247500Y-91625000D01*
X153247500Y-91623000D01*
X153247500Y-91620000D01*
X153247500Y-91380000D01*
X153247500Y-91377000D01*
X153247500Y-91375000D01*
X153248500Y-91372000D01*
X153248500Y-91370000D01*
X153249500Y-91367000D01*
X153249500Y-91365000D01*
X153250500Y-91362000D01*
X153251500Y-91360000D01*
X153252500Y-91357000D01*
X153254500Y-91355000D01*
X153255500Y-91353000D01*
X153257500Y-91351000D01*
X153258500Y-91349000D01*
X153260500Y-91347000D01*
X153262500Y-91345000D01*
X153264500Y-91343000D01*
X153266500Y-91341000D01*
X153268500Y-91340000D01*
X153270500Y-91338000D01*
X153272500Y-91337000D01*
X153274500Y-91335000D01*
X153277500Y-91334000D01*
X153279500Y-91333000D01*
X153282500Y-91332000D01*
X153284500Y-91332000D01*
X153287500Y-91331000D01*
X153289500Y-91331000D01*
X153292500Y-91330000D01*
X153294500Y-91330000D01*
X153297500Y-91330000D01*
X153902500Y-91330000D01*
X153905500Y-91330000D01*
X153907500Y-91330000D01*
X153910500Y-91331000D01*
G37*
X153910500Y-92331000D02*
X153912500Y-92331000D01*
X153915500Y-92332000D01*
X153917500Y-92332000D01*
X153920500Y-92333000D01*
X153922500Y-92334000D01*
X153925500Y-92335000D01*
X153927500Y-92337000D01*
X153929500Y-92338000D01*
X153931500Y-92340000D01*
X153933500Y-92341000D01*
X153935500Y-92343000D01*
X153937500Y-92345000D01*
X153939500Y-92347000D01*
X153941500Y-92349000D01*
X153942500Y-92351000D01*
X153944500Y-92353000D01*
X153945500Y-92355000D01*
X153947500Y-92357000D01*
X153948500Y-92360000D01*
X153949500Y-92362000D01*
X153950500Y-92365000D01*
X153950500Y-92367000D01*
X153951500Y-92370000D01*
X153951500Y-92372000D01*
X153952500Y-92375000D01*
X153952500Y-92377000D01*
X153952500Y-92380000D01*
X153952500Y-92620000D01*
X153952500Y-92623000D01*
X153952500Y-92625000D01*
X153951500Y-92628000D01*
X153951500Y-92630000D01*
X153950500Y-92633000D01*
X153950500Y-92635000D01*
X153949500Y-92638000D01*
X153948500Y-92640000D01*
X153947500Y-92643000D01*
X153945500Y-92645000D01*
X153944500Y-92647000D01*
X153942500Y-92649000D01*
X153941500Y-92651000D01*
X153939500Y-92653000D01*
X153937500Y-92655000D01*
X153935500Y-92657000D01*
X153933500Y-92659000D01*
X153931500Y-92660000D01*
X153929500Y-92662000D01*
X153927500Y-92663000D01*
X153925500Y-92665000D01*
X153922500Y-92666000D01*
X153920500Y-92667000D01*
X153917500Y-92668000D01*
X153915500Y-92668000D01*
X153912500Y-92669000D01*
X153910500Y-92669000D01*
X153907500Y-92670000D01*
X153905500Y-92670000D01*
X153902500Y-92670000D01*
X153297500Y-92670000D01*
X153294500Y-92670000D01*
X153292500Y-92670000D01*
X153289500Y-92669000D01*
X153287500Y-92669000D01*
X153284500Y-92668000D01*
X153282500Y-92668000D01*
X153279500Y-92667000D01*
X153277500Y-92666000D01*
X153274500Y-92665000D01*
X153272500Y-92663000D01*
X153270500Y-92662000D01*
X153268500Y-92660000D01*
X153266500Y-92659000D01*
X153264500Y-92657000D01*
X153262500Y-92655000D01*
X153260500Y-92653000D01*
X153258500Y-92651000D01*
X153257500Y-92649000D01*
X153255500Y-92647000D01*
X153254500Y-92645000D01*
X153252500Y-92643000D01*
X153251500Y-92640000D01*
X153250500Y-92638000D01*
X153249500Y-92635000D01*
X153249500Y-92633000D01*
X153248500Y-92630000D01*
X153248500Y-92628000D01*
X153247500Y-92625000D01*
X153247500Y-92623000D01*
X153247500Y-92620000D01*
X153247500Y-92380000D01*
X153247500Y-92377000D01*
X153247500Y-92375000D01*
X153248500Y-92372000D01*
X153248500Y-92370000D01*
X153249500Y-92367000D01*
X153249500Y-92365000D01*
X153250500Y-92362000D01*
X153251500Y-92360000D01*
X153252500Y-92357000D01*
X153254500Y-92355000D01*
X153255500Y-92353000D01*
X153257500Y-92351000D01*
X153258500Y-92349000D01*
X153260500Y-92347000D01*
X153262500Y-92345000D01*
X153264500Y-92343000D01*
X153266500Y-92341000D01*
X153268500Y-92340000D01*
X153270500Y-92338000D01*
X153272500Y-92337000D01*
X153274500Y-92335000D01*
X153277500Y-92334000D01*
X153279500Y-92333000D01*
X153282500Y-92332000D01*
X153284500Y-92332000D01*
X153287500Y-92331000D01*
X153289500Y-92331000D01*
X153292500Y-92330000D01*
X153294500Y-92330000D01*
X153297500Y-92330000D01*
X153902500Y-92330000D01*
X153905500Y-92330000D01*
X153907500Y-92330000D01*
X153910500Y-92331000D01*
G36*
X153910500Y-92331000D02*
G01*
X153912500Y-92331000D01*
X153915500Y-92332000D01*
X153917500Y-92332000D01*
X153920500Y-92333000D01*
X153922500Y-92334000D01*
X153925500Y-92335000D01*
X153927500Y-92337000D01*
X153929500Y-92338000D01*
X153931500Y-92340000D01*
X153933500Y-92341000D01*
X153935500Y-92343000D01*
X153937500Y-92345000D01*
X153939500Y-92347000D01*
X153941500Y-92349000D01*
X153942500Y-92351000D01*
X153944500Y-92353000D01*
X153945500Y-92355000D01*
X153947500Y-92357000D01*
X153948500Y-92360000D01*
X153949500Y-92362000D01*
X153950500Y-92365000D01*
X153950500Y-92367000D01*
X153951500Y-92370000D01*
X153951500Y-92372000D01*
X153952500Y-92375000D01*
X153952500Y-92377000D01*
X153952500Y-92380000D01*
X153952500Y-92620000D01*
X153952500Y-92623000D01*
X153952500Y-92625000D01*
X153951500Y-92628000D01*
X153951500Y-92630000D01*
X153950500Y-92633000D01*
X153950500Y-92635000D01*
X153949500Y-92638000D01*
X153948500Y-92640000D01*
X153947500Y-92643000D01*
X153945500Y-92645000D01*
X153944500Y-92647000D01*
X153942500Y-92649000D01*
X153941500Y-92651000D01*
X153939500Y-92653000D01*
X153937500Y-92655000D01*
X153935500Y-92657000D01*
X153933500Y-92659000D01*
X153931500Y-92660000D01*
X153929500Y-92662000D01*
X153927500Y-92663000D01*
X153925500Y-92665000D01*
X153922500Y-92666000D01*
X153920500Y-92667000D01*
X153917500Y-92668000D01*
X153915500Y-92668000D01*
X153912500Y-92669000D01*
X153910500Y-92669000D01*
X153907500Y-92670000D01*
X153905500Y-92670000D01*
X153902500Y-92670000D01*
X153297500Y-92670000D01*
X153294500Y-92670000D01*
X153292500Y-92670000D01*
X153289500Y-92669000D01*
X153287500Y-92669000D01*
X153284500Y-92668000D01*
X153282500Y-92668000D01*
X153279500Y-92667000D01*
X153277500Y-92666000D01*
X153274500Y-92665000D01*
X153272500Y-92663000D01*
X153270500Y-92662000D01*
X153268500Y-92660000D01*
X153266500Y-92659000D01*
X153264500Y-92657000D01*
X153262500Y-92655000D01*
X153260500Y-92653000D01*
X153258500Y-92651000D01*
X153257500Y-92649000D01*
X153255500Y-92647000D01*
X153254500Y-92645000D01*
X153252500Y-92643000D01*
X153251500Y-92640000D01*
X153250500Y-92638000D01*
X153249500Y-92635000D01*
X153249500Y-92633000D01*
X153248500Y-92630000D01*
X153248500Y-92628000D01*
X153247500Y-92625000D01*
X153247500Y-92623000D01*
X153247500Y-92620000D01*
X153247500Y-92380000D01*
X153247500Y-92377000D01*
X153247500Y-92375000D01*
X153248500Y-92372000D01*
X153248500Y-92370000D01*
X153249500Y-92367000D01*
X153249500Y-92365000D01*
X153250500Y-92362000D01*
X153251500Y-92360000D01*
X153252500Y-92357000D01*
X153254500Y-92355000D01*
X153255500Y-92353000D01*
X153257500Y-92351000D01*
X153258500Y-92349000D01*
X153260500Y-92347000D01*
X153262500Y-92345000D01*
X153264500Y-92343000D01*
X153266500Y-92341000D01*
X153268500Y-92340000D01*
X153270500Y-92338000D01*
X153272500Y-92337000D01*
X153274500Y-92335000D01*
X153277500Y-92334000D01*
X153279500Y-92333000D01*
X153282500Y-92332000D01*
X153284500Y-92332000D01*
X153287500Y-92331000D01*
X153289500Y-92331000D01*
X153292500Y-92330000D01*
X153294500Y-92330000D01*
X153297500Y-92330000D01*
X153902500Y-92330000D01*
X153905500Y-92330000D01*
X153907500Y-92330000D01*
X153910500Y-92331000D01*
G37*
X153910500Y-91731000D02*
X153912500Y-91731000D01*
X153915500Y-91732000D01*
X153917500Y-91732000D01*
X153920500Y-91733000D01*
X153922500Y-91734000D01*
X153925500Y-91735000D01*
X153927500Y-91737000D01*
X153929500Y-91738000D01*
X153931500Y-91740000D01*
X153933500Y-91741000D01*
X153935500Y-91743000D01*
X153937500Y-91745000D01*
X153939500Y-91747000D01*
X153941500Y-91749000D01*
X153942500Y-91751000D01*
X153944500Y-91753000D01*
X153945500Y-91755000D01*
X153947500Y-91757000D01*
X153948500Y-91760000D01*
X153949500Y-91762000D01*
X153950500Y-91765000D01*
X153950500Y-91767000D01*
X153951500Y-91770000D01*
X153951500Y-91772000D01*
X153952500Y-91775000D01*
X153952500Y-91777000D01*
X153952500Y-91780000D01*
X153952500Y-92220000D01*
X153952500Y-92223000D01*
X153952500Y-92225000D01*
X153951500Y-92228000D01*
X153951500Y-92230000D01*
X153950500Y-92233000D01*
X153950500Y-92235000D01*
X153949500Y-92238000D01*
X153948500Y-92240000D01*
X153947500Y-92243000D01*
X153945500Y-92245000D01*
X153944500Y-92247000D01*
X153942500Y-92249000D01*
X153941500Y-92251000D01*
X153939500Y-92253000D01*
X153937500Y-92255000D01*
X153935500Y-92257000D01*
X153933500Y-92259000D01*
X153931500Y-92260000D01*
X153929500Y-92262000D01*
X153927500Y-92263000D01*
X153925500Y-92265000D01*
X153922500Y-92266000D01*
X153920500Y-92267000D01*
X153917500Y-92268000D01*
X153915500Y-92268000D01*
X153912500Y-92269000D01*
X153910500Y-92269000D01*
X153907500Y-92270000D01*
X153905500Y-92270000D01*
X153902500Y-92270000D01*
X153297500Y-92270000D01*
X153294500Y-92270000D01*
X153292500Y-92270000D01*
X153289500Y-92269000D01*
X153287500Y-92269000D01*
X153284500Y-92268000D01*
X153282500Y-92268000D01*
X153279500Y-92267000D01*
X153277500Y-92266000D01*
X153274500Y-92265000D01*
X153272500Y-92263000D01*
X153270500Y-92262000D01*
X153268500Y-92260000D01*
X153266500Y-92259000D01*
X153264500Y-92257000D01*
X153262500Y-92255000D01*
X153260500Y-92253000D01*
X153258500Y-92251000D01*
X153257500Y-92249000D01*
X153255500Y-92247000D01*
X153254500Y-92245000D01*
X153252500Y-92243000D01*
X153251500Y-92240000D01*
X153250500Y-92238000D01*
X153249500Y-92235000D01*
X153249500Y-92233000D01*
X153248500Y-92230000D01*
X153248500Y-92228000D01*
X153247500Y-92225000D01*
X153247500Y-92223000D01*
X153247500Y-92220000D01*
X153247500Y-91780000D01*
X153247500Y-91777000D01*
X153247500Y-91775000D01*
X153248500Y-91772000D01*
X153248500Y-91770000D01*
X153249500Y-91767000D01*
X153249500Y-91765000D01*
X153250500Y-91762000D01*
X153251500Y-91760000D01*
X153252500Y-91757000D01*
X153254500Y-91755000D01*
X153255500Y-91753000D01*
X153257500Y-91751000D01*
X153258500Y-91749000D01*
X153260500Y-91747000D01*
X153262500Y-91745000D01*
X153264500Y-91743000D01*
X153266500Y-91741000D01*
X153268500Y-91740000D01*
X153270500Y-91738000D01*
X153272500Y-91737000D01*
X153274500Y-91735000D01*
X153277500Y-91734000D01*
X153279500Y-91733000D01*
X153282500Y-91732000D01*
X153284500Y-91732000D01*
X153287500Y-91731000D01*
X153289500Y-91731000D01*
X153292500Y-91730000D01*
X153294500Y-91730000D01*
X153297500Y-91730000D01*
X153902500Y-91730000D01*
X153905500Y-91730000D01*
X153907500Y-91730000D01*
X153910500Y-91731000D01*
G36*
X153910500Y-91731000D02*
G01*
X153912500Y-91731000D01*
X153915500Y-91732000D01*
X153917500Y-91732000D01*
X153920500Y-91733000D01*
X153922500Y-91734000D01*
X153925500Y-91735000D01*
X153927500Y-91737000D01*
X153929500Y-91738000D01*
X153931500Y-91740000D01*
X153933500Y-91741000D01*
X153935500Y-91743000D01*
X153937500Y-91745000D01*
X153939500Y-91747000D01*
X153941500Y-91749000D01*
X153942500Y-91751000D01*
X153944500Y-91753000D01*
X153945500Y-91755000D01*
X153947500Y-91757000D01*
X153948500Y-91760000D01*
X153949500Y-91762000D01*
X153950500Y-91765000D01*
X153950500Y-91767000D01*
X153951500Y-91770000D01*
X153951500Y-91772000D01*
X153952500Y-91775000D01*
X153952500Y-91777000D01*
X153952500Y-91780000D01*
X153952500Y-92220000D01*
X153952500Y-92223000D01*
X153952500Y-92225000D01*
X153951500Y-92228000D01*
X153951500Y-92230000D01*
X153950500Y-92233000D01*
X153950500Y-92235000D01*
X153949500Y-92238000D01*
X153948500Y-92240000D01*
X153947500Y-92243000D01*
X153945500Y-92245000D01*
X153944500Y-92247000D01*
X153942500Y-92249000D01*
X153941500Y-92251000D01*
X153939500Y-92253000D01*
X153937500Y-92255000D01*
X153935500Y-92257000D01*
X153933500Y-92259000D01*
X153931500Y-92260000D01*
X153929500Y-92262000D01*
X153927500Y-92263000D01*
X153925500Y-92265000D01*
X153922500Y-92266000D01*
X153920500Y-92267000D01*
X153917500Y-92268000D01*
X153915500Y-92268000D01*
X153912500Y-92269000D01*
X153910500Y-92269000D01*
X153907500Y-92270000D01*
X153905500Y-92270000D01*
X153902500Y-92270000D01*
X153297500Y-92270000D01*
X153294500Y-92270000D01*
X153292500Y-92270000D01*
X153289500Y-92269000D01*
X153287500Y-92269000D01*
X153284500Y-92268000D01*
X153282500Y-92268000D01*
X153279500Y-92267000D01*
X153277500Y-92266000D01*
X153274500Y-92265000D01*
X153272500Y-92263000D01*
X153270500Y-92262000D01*
X153268500Y-92260000D01*
X153266500Y-92259000D01*
X153264500Y-92257000D01*
X153262500Y-92255000D01*
X153260500Y-92253000D01*
X153258500Y-92251000D01*
X153257500Y-92249000D01*
X153255500Y-92247000D01*
X153254500Y-92245000D01*
X153252500Y-92243000D01*
X153251500Y-92240000D01*
X153250500Y-92238000D01*
X153249500Y-92235000D01*
X153249500Y-92233000D01*
X153248500Y-92230000D01*
X153248500Y-92228000D01*
X153247500Y-92225000D01*
X153247500Y-92223000D01*
X153247500Y-92220000D01*
X153247500Y-91780000D01*
X153247500Y-91777000D01*
X153247500Y-91775000D01*
X153248500Y-91772000D01*
X153248500Y-91770000D01*
X153249500Y-91767000D01*
X153249500Y-91765000D01*
X153250500Y-91762000D01*
X153251500Y-91760000D01*
X153252500Y-91757000D01*
X153254500Y-91755000D01*
X153255500Y-91753000D01*
X153257500Y-91751000D01*
X153258500Y-91749000D01*
X153260500Y-91747000D01*
X153262500Y-91745000D01*
X153264500Y-91743000D01*
X153266500Y-91741000D01*
X153268500Y-91740000D01*
X153270500Y-91738000D01*
X153272500Y-91737000D01*
X153274500Y-91735000D01*
X153277500Y-91734000D01*
X153279500Y-91733000D01*
X153282500Y-91732000D01*
X153284500Y-91732000D01*
X153287500Y-91731000D01*
X153289500Y-91731000D01*
X153292500Y-91730000D01*
X153294500Y-91730000D01*
X153297500Y-91730000D01*
X153902500Y-91730000D01*
X153905500Y-91730000D01*
X153907500Y-91730000D01*
X153910500Y-91731000D01*
G37*
X153910500Y-92831000D02*
X153912500Y-92831000D01*
X153915500Y-92832000D01*
X153917500Y-92832000D01*
X153920500Y-92833000D01*
X153922500Y-92834000D01*
X153925500Y-92835000D01*
X153927500Y-92837000D01*
X153929500Y-92838000D01*
X153931500Y-92840000D01*
X153933500Y-92841000D01*
X153935500Y-92843000D01*
X153937500Y-92845000D01*
X153939500Y-92847000D01*
X153941500Y-92849000D01*
X153942500Y-92851000D01*
X153944500Y-92853000D01*
X153945500Y-92855000D01*
X153947500Y-92857000D01*
X153948500Y-92860000D01*
X153949500Y-92862000D01*
X153950500Y-92865000D01*
X153950500Y-92867000D01*
X153951500Y-92870000D01*
X153951500Y-92872000D01*
X153952500Y-92875000D01*
X153952500Y-92877000D01*
X153952500Y-92880000D01*
X153952500Y-93120000D01*
X153952500Y-93123000D01*
X153952500Y-93125000D01*
X153951500Y-93128000D01*
X153951500Y-93130000D01*
X153950500Y-93133000D01*
X153950500Y-93135000D01*
X153949500Y-93138000D01*
X153948500Y-93140000D01*
X153947500Y-93143000D01*
X153945500Y-93145000D01*
X153944500Y-93147000D01*
X153942500Y-93149000D01*
X153941500Y-93151000D01*
X153939500Y-93153000D01*
X153937500Y-93155000D01*
X153935500Y-93157000D01*
X153933500Y-93159000D01*
X153931500Y-93160000D01*
X153929500Y-93162000D01*
X153927500Y-93163000D01*
X153925500Y-93165000D01*
X153922500Y-93166000D01*
X153920500Y-93167000D01*
X153917500Y-93168000D01*
X153915500Y-93168000D01*
X153912500Y-93169000D01*
X153910500Y-93169000D01*
X153907500Y-93170000D01*
X153905500Y-93170000D01*
X153902500Y-93170000D01*
X153297500Y-93170000D01*
X153294500Y-93170000D01*
X153292500Y-93170000D01*
X153289500Y-93169000D01*
X153287500Y-93169000D01*
X153284500Y-93168000D01*
X153282500Y-93168000D01*
X153279500Y-93167000D01*
X153277500Y-93166000D01*
X153274500Y-93165000D01*
X153272500Y-93163000D01*
X153270500Y-93162000D01*
X153268500Y-93160000D01*
X153266500Y-93159000D01*
X153264500Y-93157000D01*
X153262500Y-93155000D01*
X153260500Y-93153000D01*
X153258500Y-93151000D01*
X153257500Y-93149000D01*
X153255500Y-93147000D01*
X153254500Y-93145000D01*
X153252500Y-93143000D01*
X153251500Y-93140000D01*
X153250500Y-93138000D01*
X153249500Y-93135000D01*
X153249500Y-93133000D01*
X153248500Y-93130000D01*
X153248500Y-93128000D01*
X153247500Y-93125000D01*
X153247500Y-93123000D01*
X153247500Y-93120000D01*
X153247500Y-92880000D01*
X153247500Y-92877000D01*
X153247500Y-92875000D01*
X153248500Y-92872000D01*
X153248500Y-92870000D01*
X153249500Y-92867000D01*
X153249500Y-92865000D01*
X153250500Y-92862000D01*
X153251500Y-92860000D01*
X153252500Y-92857000D01*
X153254500Y-92855000D01*
X153255500Y-92853000D01*
X153257500Y-92851000D01*
X153258500Y-92849000D01*
X153260500Y-92847000D01*
X153262500Y-92845000D01*
X153264500Y-92843000D01*
X153266500Y-92841000D01*
X153268500Y-92840000D01*
X153270500Y-92838000D01*
X153272500Y-92837000D01*
X153274500Y-92835000D01*
X153277500Y-92834000D01*
X153279500Y-92833000D01*
X153282500Y-92832000D01*
X153284500Y-92832000D01*
X153287500Y-92831000D01*
X153289500Y-92831000D01*
X153292500Y-92830000D01*
X153294500Y-92830000D01*
X153297500Y-92830000D01*
X153902500Y-92830000D01*
X153905500Y-92830000D01*
X153907500Y-92830000D01*
X153910500Y-92831000D01*
G36*
X153910500Y-92831000D02*
G01*
X153912500Y-92831000D01*
X153915500Y-92832000D01*
X153917500Y-92832000D01*
X153920500Y-92833000D01*
X153922500Y-92834000D01*
X153925500Y-92835000D01*
X153927500Y-92837000D01*
X153929500Y-92838000D01*
X153931500Y-92840000D01*
X153933500Y-92841000D01*
X153935500Y-92843000D01*
X153937500Y-92845000D01*
X153939500Y-92847000D01*
X153941500Y-92849000D01*
X153942500Y-92851000D01*
X153944500Y-92853000D01*
X153945500Y-92855000D01*
X153947500Y-92857000D01*
X153948500Y-92860000D01*
X153949500Y-92862000D01*
X153950500Y-92865000D01*
X153950500Y-92867000D01*
X153951500Y-92870000D01*
X153951500Y-92872000D01*
X153952500Y-92875000D01*
X153952500Y-92877000D01*
X153952500Y-92880000D01*
X153952500Y-93120000D01*
X153952500Y-93123000D01*
X153952500Y-93125000D01*
X153951500Y-93128000D01*
X153951500Y-93130000D01*
X153950500Y-93133000D01*
X153950500Y-93135000D01*
X153949500Y-93138000D01*
X153948500Y-93140000D01*
X153947500Y-93143000D01*
X153945500Y-93145000D01*
X153944500Y-93147000D01*
X153942500Y-93149000D01*
X153941500Y-93151000D01*
X153939500Y-93153000D01*
X153937500Y-93155000D01*
X153935500Y-93157000D01*
X153933500Y-93159000D01*
X153931500Y-93160000D01*
X153929500Y-93162000D01*
X153927500Y-93163000D01*
X153925500Y-93165000D01*
X153922500Y-93166000D01*
X153920500Y-93167000D01*
X153917500Y-93168000D01*
X153915500Y-93168000D01*
X153912500Y-93169000D01*
X153910500Y-93169000D01*
X153907500Y-93170000D01*
X153905500Y-93170000D01*
X153902500Y-93170000D01*
X153297500Y-93170000D01*
X153294500Y-93170000D01*
X153292500Y-93170000D01*
X153289500Y-93169000D01*
X153287500Y-93169000D01*
X153284500Y-93168000D01*
X153282500Y-93168000D01*
X153279500Y-93167000D01*
X153277500Y-93166000D01*
X153274500Y-93165000D01*
X153272500Y-93163000D01*
X153270500Y-93162000D01*
X153268500Y-93160000D01*
X153266500Y-93159000D01*
X153264500Y-93157000D01*
X153262500Y-93155000D01*
X153260500Y-93153000D01*
X153258500Y-93151000D01*
X153257500Y-93149000D01*
X153255500Y-93147000D01*
X153254500Y-93145000D01*
X153252500Y-93143000D01*
X153251500Y-93140000D01*
X153250500Y-93138000D01*
X153249500Y-93135000D01*
X153249500Y-93133000D01*
X153248500Y-93130000D01*
X153248500Y-93128000D01*
X153247500Y-93125000D01*
X153247500Y-93123000D01*
X153247500Y-93120000D01*
X153247500Y-92880000D01*
X153247500Y-92877000D01*
X153247500Y-92875000D01*
X153248500Y-92872000D01*
X153248500Y-92870000D01*
X153249500Y-92867000D01*
X153249500Y-92865000D01*
X153250500Y-92862000D01*
X153251500Y-92860000D01*
X153252500Y-92857000D01*
X153254500Y-92855000D01*
X153255500Y-92853000D01*
X153257500Y-92851000D01*
X153258500Y-92849000D01*
X153260500Y-92847000D01*
X153262500Y-92845000D01*
X153264500Y-92843000D01*
X153266500Y-92841000D01*
X153268500Y-92840000D01*
X153270500Y-92838000D01*
X153272500Y-92837000D01*
X153274500Y-92835000D01*
X153277500Y-92834000D01*
X153279500Y-92833000D01*
X153282500Y-92832000D01*
X153284500Y-92832000D01*
X153287500Y-92831000D01*
X153289500Y-92831000D01*
X153292500Y-92830000D01*
X153294500Y-92830000D01*
X153297500Y-92830000D01*
X153902500Y-92830000D01*
X153905500Y-92830000D01*
X153907500Y-92830000D01*
X153910500Y-92831000D01*
G37*
X153910500Y-90831000D02*
X153912500Y-90831000D01*
X153915500Y-90832000D01*
X153917500Y-90832000D01*
X153920500Y-90833000D01*
X153922500Y-90834000D01*
X153925500Y-90835000D01*
X153927500Y-90837000D01*
X153929500Y-90838000D01*
X153931500Y-90840000D01*
X153933500Y-90841000D01*
X153935500Y-90843000D01*
X153937500Y-90845000D01*
X153939500Y-90847000D01*
X153941500Y-90849000D01*
X153942500Y-90851000D01*
X153944500Y-90853000D01*
X153945500Y-90855000D01*
X153947500Y-90857000D01*
X153948500Y-90860000D01*
X153949500Y-90862000D01*
X153950500Y-90865000D01*
X153950500Y-90867000D01*
X153951500Y-90870000D01*
X153951500Y-90872000D01*
X153952500Y-90875000D01*
X153952500Y-90877000D01*
X153952500Y-90880000D01*
X153952500Y-91120000D01*
X153952500Y-91123000D01*
X153952500Y-91125000D01*
X153951500Y-91128000D01*
X153951500Y-91130000D01*
X153950500Y-91133000D01*
X153950500Y-91135000D01*
X153949500Y-91138000D01*
X153948500Y-91140000D01*
X153947500Y-91143000D01*
X153945500Y-91145000D01*
X153944500Y-91147000D01*
X153942500Y-91149000D01*
X153941500Y-91151000D01*
X153939500Y-91153000D01*
X153937500Y-91155000D01*
X153935500Y-91157000D01*
X153933500Y-91159000D01*
X153931500Y-91160000D01*
X153929500Y-91162000D01*
X153927500Y-91163000D01*
X153925500Y-91165000D01*
X153922500Y-91166000D01*
X153920500Y-91167000D01*
X153917500Y-91168000D01*
X153915500Y-91168000D01*
X153912500Y-91169000D01*
X153910500Y-91169000D01*
X153907500Y-91170000D01*
X153905500Y-91170000D01*
X153902500Y-91170000D01*
X153297500Y-91170000D01*
X153294500Y-91170000D01*
X153292500Y-91170000D01*
X153289500Y-91169000D01*
X153287500Y-91169000D01*
X153284500Y-91168000D01*
X153282500Y-91168000D01*
X153279500Y-91167000D01*
X153277500Y-91166000D01*
X153274500Y-91165000D01*
X153272500Y-91163000D01*
X153270500Y-91162000D01*
X153268500Y-91160000D01*
X153266500Y-91159000D01*
X153264500Y-91157000D01*
X153262500Y-91155000D01*
X153260500Y-91153000D01*
X153258500Y-91151000D01*
X153257500Y-91149000D01*
X153255500Y-91147000D01*
X153254500Y-91145000D01*
X153252500Y-91143000D01*
X153251500Y-91140000D01*
X153250500Y-91138000D01*
X153249500Y-91135000D01*
X153249500Y-91133000D01*
X153248500Y-91130000D01*
X153248500Y-91128000D01*
X153247500Y-91125000D01*
X153247500Y-91123000D01*
X153247500Y-91120000D01*
X153247500Y-90880000D01*
X153247500Y-90877000D01*
X153247500Y-90875000D01*
X153248500Y-90872000D01*
X153248500Y-90870000D01*
X153249500Y-90867000D01*
X153249500Y-90865000D01*
X153250500Y-90862000D01*
X153251500Y-90860000D01*
X153252500Y-90857000D01*
X153254500Y-90855000D01*
X153255500Y-90853000D01*
X153257500Y-90851000D01*
X153258500Y-90849000D01*
X153260500Y-90847000D01*
X153262500Y-90845000D01*
X153264500Y-90843000D01*
X153266500Y-90841000D01*
X153268500Y-90840000D01*
X153270500Y-90838000D01*
X153272500Y-90837000D01*
X153274500Y-90835000D01*
X153277500Y-90834000D01*
X153279500Y-90833000D01*
X153282500Y-90832000D01*
X153284500Y-90832000D01*
X153287500Y-90831000D01*
X153289500Y-90831000D01*
X153292500Y-90830000D01*
X153294500Y-90830000D01*
X153297500Y-90830000D01*
X153902500Y-90830000D01*
X153905500Y-90830000D01*
X153907500Y-90830000D01*
X153910500Y-90831000D01*
G36*
X153910500Y-90831000D02*
G01*
X153912500Y-90831000D01*
X153915500Y-90832000D01*
X153917500Y-90832000D01*
X153920500Y-90833000D01*
X153922500Y-90834000D01*
X153925500Y-90835000D01*
X153927500Y-90837000D01*
X153929500Y-90838000D01*
X153931500Y-90840000D01*
X153933500Y-90841000D01*
X153935500Y-90843000D01*
X153937500Y-90845000D01*
X153939500Y-90847000D01*
X153941500Y-90849000D01*
X153942500Y-90851000D01*
X153944500Y-90853000D01*
X153945500Y-90855000D01*
X153947500Y-90857000D01*
X153948500Y-90860000D01*
X153949500Y-90862000D01*
X153950500Y-90865000D01*
X153950500Y-90867000D01*
X153951500Y-90870000D01*
X153951500Y-90872000D01*
X153952500Y-90875000D01*
X153952500Y-90877000D01*
X153952500Y-90880000D01*
X153952500Y-91120000D01*
X153952500Y-91123000D01*
X153952500Y-91125000D01*
X153951500Y-91128000D01*
X153951500Y-91130000D01*
X153950500Y-91133000D01*
X153950500Y-91135000D01*
X153949500Y-91138000D01*
X153948500Y-91140000D01*
X153947500Y-91143000D01*
X153945500Y-91145000D01*
X153944500Y-91147000D01*
X153942500Y-91149000D01*
X153941500Y-91151000D01*
X153939500Y-91153000D01*
X153937500Y-91155000D01*
X153935500Y-91157000D01*
X153933500Y-91159000D01*
X153931500Y-91160000D01*
X153929500Y-91162000D01*
X153927500Y-91163000D01*
X153925500Y-91165000D01*
X153922500Y-91166000D01*
X153920500Y-91167000D01*
X153917500Y-91168000D01*
X153915500Y-91168000D01*
X153912500Y-91169000D01*
X153910500Y-91169000D01*
X153907500Y-91170000D01*
X153905500Y-91170000D01*
X153902500Y-91170000D01*
X153297500Y-91170000D01*
X153294500Y-91170000D01*
X153292500Y-91170000D01*
X153289500Y-91169000D01*
X153287500Y-91169000D01*
X153284500Y-91168000D01*
X153282500Y-91168000D01*
X153279500Y-91167000D01*
X153277500Y-91166000D01*
X153274500Y-91165000D01*
X153272500Y-91163000D01*
X153270500Y-91162000D01*
X153268500Y-91160000D01*
X153266500Y-91159000D01*
X153264500Y-91157000D01*
X153262500Y-91155000D01*
X153260500Y-91153000D01*
X153258500Y-91151000D01*
X153257500Y-91149000D01*
X153255500Y-91147000D01*
X153254500Y-91145000D01*
X153252500Y-91143000D01*
X153251500Y-91140000D01*
X153250500Y-91138000D01*
X153249500Y-91135000D01*
X153249500Y-91133000D01*
X153248500Y-91130000D01*
X153248500Y-91128000D01*
X153247500Y-91125000D01*
X153247500Y-91123000D01*
X153247500Y-91120000D01*
X153247500Y-90880000D01*
X153247500Y-90877000D01*
X153247500Y-90875000D01*
X153248500Y-90872000D01*
X153248500Y-90870000D01*
X153249500Y-90867000D01*
X153249500Y-90865000D01*
X153250500Y-90862000D01*
X153251500Y-90860000D01*
X153252500Y-90857000D01*
X153254500Y-90855000D01*
X153255500Y-90853000D01*
X153257500Y-90851000D01*
X153258500Y-90849000D01*
X153260500Y-90847000D01*
X153262500Y-90845000D01*
X153264500Y-90843000D01*
X153266500Y-90841000D01*
X153268500Y-90840000D01*
X153270500Y-90838000D01*
X153272500Y-90837000D01*
X153274500Y-90835000D01*
X153277500Y-90834000D01*
X153279500Y-90833000D01*
X153282500Y-90832000D01*
X153284500Y-90832000D01*
X153287500Y-90831000D01*
X153289500Y-90831000D01*
X153292500Y-90830000D01*
X153294500Y-90830000D01*
X153297500Y-90830000D01*
X153902500Y-90830000D01*
X153905500Y-90830000D01*
X153907500Y-90830000D01*
X153910500Y-90831000D01*
G37*
X151610000Y-82580000D02*
X151190000Y-82580000D01*
X151190000Y-81820000D01*
X151610000Y-81820000D01*
X151610000Y-82580000D01*
G36*
X151610000Y-82580000D02*
G01*
X151190000Y-82580000D01*
X151190000Y-81820000D01*
X151610000Y-81820000D01*
X151610000Y-82580000D01*
G37*
X151610000Y-84050000D02*
X151190000Y-84050000D01*
X151190000Y-83290000D01*
X151610000Y-83290000D01*
X151610000Y-84050000D01*
G36*
X151610000Y-84050000D02*
G01*
X151190000Y-84050000D01*
X151190000Y-83290000D01*
X151610000Y-83290000D01*
X151610000Y-84050000D01*
G37*
X152110000Y-82580000D02*
X151690000Y-82580000D01*
X151690000Y-81820000D01*
X152110000Y-81820000D01*
X152110000Y-82580000D01*
G36*
X152110000Y-82580000D02*
G01*
X151690000Y-82580000D01*
X151690000Y-81820000D01*
X152110000Y-81820000D01*
X152110000Y-82580000D01*
G37*
X152110000Y-84050000D02*
X151690000Y-84050000D01*
X151690000Y-83290000D01*
X152110000Y-83290000D01*
X152110000Y-84050000D01*
G36*
X152110000Y-84050000D02*
G01*
X151690000Y-84050000D01*
X151690000Y-83290000D01*
X152110000Y-83290000D01*
X152110000Y-84050000D01*
G37*
X152610000Y-82580000D02*
X152190000Y-82580000D01*
X152190000Y-81820000D01*
X152610000Y-81820000D01*
X152610000Y-82580000D01*
G36*
X152610000Y-82580000D02*
G01*
X152190000Y-82580000D01*
X152190000Y-81820000D01*
X152610000Y-81820000D01*
X152610000Y-82580000D01*
G37*
X152610000Y-84050000D02*
X152190000Y-84050000D01*
X152190000Y-83290000D01*
X152610000Y-83290000D01*
X152610000Y-84050000D01*
G36*
X152610000Y-84050000D02*
G01*
X152190000Y-84050000D01*
X152190000Y-83290000D01*
X152610000Y-83290000D01*
X152610000Y-84050000D01*
G37*
X153110000Y-82580000D02*
X152690000Y-82580000D01*
X152690000Y-81820000D01*
X153110000Y-81820000D01*
X153110000Y-82580000D01*
G36*
X153110000Y-82580000D02*
G01*
X152690000Y-82580000D01*
X152690000Y-81820000D01*
X153110000Y-81820000D01*
X153110000Y-82580000D01*
G37*
X153110000Y-84050000D02*
X152690000Y-84050000D01*
X152690000Y-83290000D01*
X153110000Y-83290000D01*
X153110000Y-84050000D01*
G36*
X153110000Y-84050000D02*
G01*
X152690000Y-84050000D01*
X152690000Y-83290000D01*
X153110000Y-83290000D01*
X153110000Y-84050000D01*
G37*
D12*
X117930000Y-81350000D03*
X121330000Y-81350000D03*
D13*
X107920000Y-81290000D03*
D14*
X110460000Y-81290000D03*
X113000000Y-81290000D03*
X115540000Y-81290000D03*
D15*
X126680000Y-91920000D03*
X125720000Y-91920000D03*
D16*
X126700000Y-92850000D03*
X125680000Y-92850000D03*
X121400000Y-83440000D03*
X120380000Y-83440000D03*
D15*
X120020000Y-88910000D03*
X120980000Y-88910000D03*
D17*
X123390000Y-82520000D03*
X123390000Y-83480000D03*
D18*
X122320000Y-83490000D03*
X122320000Y-82530000D03*
D17*
X133400000Y-85130000D03*
X133400000Y-84170000D03*
D19*
X122560000Y-90120000D03*
D20*
X121960000Y-90045000D03*
D19*
X121360000Y-90120000D03*
X121360000Y-90520000D03*
X121360000Y-90920000D03*
D20*
X121960000Y-90995000D03*
D19*
X122560000Y-90920000D03*
X122560000Y-90520000D03*
D18*
X137900000Y-81240000D03*
X137900000Y-82200000D03*
D21*
X113790000Y-94050000D03*
X113790000Y-93030000D03*
D17*
X152690000Y-94900000D03*
X152690000Y-93940000D03*
D22*
X108170000Y-83630000D03*
X109190000Y-83630000D03*
D23*
X137680000Y-92800000D03*
X136720000Y-92800000D03*
D18*
X129700000Y-84290000D03*
X129700000Y-85250000D03*
D21*
X124000000Y-88010000D03*
X124000000Y-86990000D03*
D24*
X116310000Y-94490000D03*
X116310000Y-94990000D03*
X116310000Y-95490000D03*
X116310000Y-95990000D03*
X116310000Y-96490000D03*
X120710000Y-96490000D03*
X120710000Y-95990000D03*
X120710000Y-95490000D03*
X120710000Y-94990000D03*
X120710000Y-94490000D03*
D25*
X155625000Y-83675000D03*
X161025000Y-83675000D03*
D26*
X131000000Y-90700000D03*
X130500000Y-90700000D03*
X130000000Y-90700000D03*
X129500000Y-90700000D03*
X129000000Y-90700000D03*
X128500000Y-90700000D03*
D27*
X127750000Y-91450000D03*
X127750000Y-91950000D03*
X127750000Y-92450000D03*
X127750000Y-92950000D03*
X127750000Y-93450000D03*
X127750000Y-93950000D03*
D26*
X128500000Y-94700000D03*
X129000000Y-94700000D03*
X129500000Y-94700000D03*
X130000000Y-94700000D03*
X130500000Y-94700000D03*
X131000000Y-94700000D03*
D27*
X131750000Y-93950000D03*
X131750000Y-93450000D03*
X131750000Y-92950000D03*
X131750000Y-92450000D03*
X131750000Y-91950000D03*
X131750000Y-91450000D03*
D28*
X129750000Y-92700000D03*
D29*
X133600000Y-92300000D03*
X133250000Y-92300000D03*
X132900000Y-92300000D03*
X132900000Y-93464000D03*
X133250000Y-93464000D03*
X133600000Y-93464000D03*
D30*
X139315000Y-86045000D03*
X139315000Y-86695000D03*
X139315000Y-87345000D03*
X139315000Y-87995000D03*
D15*
X151920000Y-81200000D03*
X152880000Y-81200000D03*
D31*
X138762500Y-91687500D03*
X138762500Y-92187500D03*
X138762500Y-92687500D03*
X138762500Y-93187500D03*
X138762500Y-93687500D03*
X138762500Y-94187500D03*
D32*
X139450000Y-94875000D03*
X139950000Y-94875000D03*
X140450000Y-94875000D03*
X140950000Y-94875000D03*
X141450000Y-94875000D03*
X141950000Y-94875000D03*
D31*
X142637500Y-94187500D03*
X142637500Y-93687500D03*
X142637500Y-93187500D03*
X142637500Y-92687500D03*
X142637500Y-92187500D03*
X142637500Y-91687500D03*
D32*
X141950000Y-91000000D03*
X141450000Y-91000000D03*
X140950000Y-91000000D03*
X140450000Y-91000000D03*
X139950000Y-91000000D03*
X139450000Y-91000000D03*
D33*
X140700000Y-92937500D03*
D21*
X120360000Y-91055000D03*
X120360000Y-90035000D03*
D22*
X134375000Y-91100000D03*
X135395000Y-91100000D03*
D18*
X151700000Y-93387500D03*
X151700000Y-94347500D03*
D22*
X134375000Y-92050000D03*
X135395000Y-92050000D03*
D34*
X150400000Y-81900000D03*
X150400000Y-82920000D03*
X144200000Y-93880000D03*
X144200000Y-94900000D03*
D22*
X134390000Y-93000000D03*
X135410000Y-93000000D03*
D15*
X151310000Y-89860000D03*
X152270000Y-89860000D03*
D35*
X146087500Y-96100000D03*
X144512500Y-96100000D03*
D36*
X153690000Y-87987500D03*
X153690000Y-85912500D03*
D37*
X151700000Y-87720000D03*
X148725000Y-87720000D03*
D22*
X134390000Y-93975000D03*
X135410000Y-93975000D03*
D38*
X151535000Y-85400000D03*
X148585000Y-85400000D03*
D34*
X145530000Y-91670000D03*
X145530000Y-92690000D03*
D21*
X123590000Y-89965000D03*
X123590000Y-88945000D03*
D39*
X125400000Y-87755200D03*
D40*
X126900000Y-87755200D03*
D39*
X128400000Y-87755200D03*
X128400000Y-84250000D03*
X125400000Y-84250000D03*
D16*
X154230000Y-89470000D03*
X153210000Y-89470000D03*
X127560000Y-94890000D03*
X126540000Y-94890000D03*
D17*
X129580000Y-89630000D03*
X129580000Y-88670000D03*
D34*
X154240000Y-94650000D03*
X154240000Y-95670000D03*
D41*
X135050000Y-87135000D03*
X135050000Y-84185000D03*
D34*
X145510000Y-93560000D03*
X145510000Y-94580000D03*
D21*
X112760000Y-94540000D03*
X112760000Y-93520000D03*
D42*
X123820000Y-93112500D03*
X123820000Y-96087500D03*
D21*
X126660000Y-91030000D03*
X126660000Y-90010000D03*
D16*
X137700000Y-90825000D03*
X136680000Y-90825000D03*
D21*
X143050000Y-86310000D03*
X143050000Y-85290000D03*
D16*
X116800000Y-93240000D03*
X115780000Y-93240000D03*
D34*
X125690000Y-90010000D03*
X125690000Y-91030000D03*
D43*
X146810000Y-87975000D03*
X146810000Y-87325000D03*
X146810000Y-86675000D03*
X146810000Y-86025000D03*
D22*
X137190000Y-94900000D03*
X138210000Y-94900000D03*
D44*
X111800000Y-95950000D03*
X113550000Y-95950000D03*
D45*
X142000000Y-81225000D03*
X142000000Y-84175000D03*
D46*
X146700000Y-91110000D03*
X146700000Y-91610000D03*
X146700000Y-92110000D03*
X146700000Y-92610000D03*
X146700000Y-93110000D03*
X146700000Y-93610000D03*
D47*
X147400000Y-94310000D03*
X147900000Y-94310000D03*
X148400000Y-94310000D03*
X148900000Y-94310000D03*
X149400000Y-94310000D03*
X149900000Y-94310000D03*
D46*
X150600000Y-93610000D03*
X150600000Y-93110000D03*
X150600000Y-92610000D03*
X150600000Y-92110000D03*
X150600000Y-91610000D03*
X150600000Y-91110000D03*
D47*
X149900000Y-90410000D03*
X149400000Y-90410000D03*
X148900000Y-90410000D03*
X148400000Y-90410000D03*
X147900000Y-90410000D03*
X147400000Y-90410000D03*
D48*
X148650000Y-92360000D03*
D22*
X127920000Y-96260000D03*
X128940000Y-96260000D03*
D17*
X132900000Y-95405000D03*
X132900000Y-94445000D03*
D49*
X105000000Y-91500000D03*
X105000000Y-92500000D03*
X105000000Y-93500000D03*
X105000000Y-94500000D03*
D50*
X101125000Y-90200000D03*
X101125000Y-95800000D03*
D41*
X137360000Y-87135000D03*
X137360000Y-84185000D03*
D51*
X155800000Y-95210000D03*
D52*
X156865000Y-94750000D03*
D51*
X155800000Y-94410000D03*
X155800000Y-93110000D03*
X155800000Y-92110000D03*
X155800000Y-91610000D03*
X155800000Y-90610000D03*
X155800000Y-89310000D03*
D52*
X156865000Y-88970000D03*
D51*
X155800000Y-88510000D03*
X155800000Y-88810000D03*
X155800000Y-89610000D03*
X155800000Y-90110000D03*
X155800000Y-91110000D03*
X155800000Y-92610000D03*
X155800000Y-93610000D03*
X155800000Y-94110000D03*
X155800000Y-94910000D03*
D53*
X156365000Y-96180000D03*
D54*
X160545000Y-96180000D03*
D53*
X156365000Y-87540000D03*
D54*
X160545000Y-87540000D03*
D15*
X123500000Y-91030000D03*
X124460000Y-91030000D03*
D21*
X154100000Y-82110000D03*
X154100000Y-81090000D03*
D18*
X122180000Y-95620000D03*
X122180000Y-96580000D03*
D22*
X135330000Y-94900000D03*
X136350000Y-94900000D03*
D55*
X147900000Y-82500000D03*
X144200000Y-82500000D03*
D16*
X116800000Y-92270000D03*
X115780000Y-92270000D03*
D17*
X106920000Y-94580000D03*
X106920000Y-95540000D03*
D56*
X121850000Y-85980000D03*
X122350000Y-85980000D03*
X122850000Y-85980000D03*
X123350000Y-85980000D03*
X123350000Y-84500000D03*
X122850000Y-84500000D03*
X122350000Y-84500000D03*
X121850000Y-84500000D03*
D45*
X139700000Y-81225000D03*
X139700000Y-84175000D03*
D34*
X107250000Y-84330000D03*
X107250000Y-85350000D03*
D22*
X127590000Y-89600000D03*
X128610000Y-89600000D03*
D44*
X134425000Y-96100000D03*
X136175000Y-96100000D03*
D16*
X143460000Y-89340000D03*
X142440000Y-89340000D03*
D57*
X131550000Y-86950000D03*
X131550000Y-84150000D03*
X116075000Y-90950000D03*
X116075000Y-88150000D03*
D17*
X123000000Y-87990000D03*
X123000000Y-87030000D03*
D34*
X142880000Y-95050000D03*
X142880000Y-96070000D03*
D58*
X103000000Y-84000000D03*
D59*
X103000000Y-86540000D03*
D16*
X109490000Y-95620000D03*
X110510000Y-95620000D03*
D13*
X125215000Y-81260000D03*
D14*
X127755000Y-81260000D03*
X130295000Y-81260000D03*
X132835000Y-81260000D03*
X135375000Y-81260000D03*
D60*
X112304037Y-87262132D03*
D61*
X109617031Y-89949138D03*
D62*
X109404899Y-85070101D03*
X108414950Y-86060051D03*
X107425000Y-87050000D03*
X114496068Y-90161270D03*
X113506118Y-91151219D03*
X112516169Y-92141169D03*
D63*
X113767748Y-85798421D03*
X108153320Y-91412849D03*
D64*
X108020000Y-94860000D03*
X108020000Y-95360000D03*
X108020000Y-95860000D03*
X108020000Y-96360000D03*
X108520000Y-96360000D03*
X108520000Y-95860000D03*
X108520000Y-95360000D03*
X108520000Y-94860000D03*
D21*
X149400000Y-83620000D03*
X149400000Y-82600000D03*
X114830000Y-96112500D03*
X114830000Y-95092500D03*
D14*
X118460000Y-84960000D03*
X118460000Y-87500000D03*
X118460000Y-90040000D03*
D13*
X118460000Y-92580000D03*
D15*
X110470000Y-94670000D03*
X109510000Y-94670000D03*
M02*
