%TF.GenerationSoftware,KiCad,Pcbnew,9.0.0*%
%TF.CreationDate,2025-05-10T22:56:34+02:00*%
%TF.ProjectId,CYPD3177_3.3V_V2_+_OLED,43595044-3331-4373-975f-332e33565f56,rev?*%
%TF.SameCoordinates,Original*%
%TF.FileFunction,Copper,L2,Inr*%
%TF.FilePolarity,Positive*%
%FSLAX46Y46*%
G04 Gerber Fmt 4.6, Leading zero omitted, Abs format (unit mm)*
G04 Created by KiCad (PCBNEW 9.0.0) date 2025-05-10 22:56:34*
%MOMM*%
%LPD*%
G01*
G04 APERTURE LIST*
G04 Aperture macros list*
%AMRoundRect*
0 Rectangle with rounded corners*
0 $1 Rounding radius*
0 $2 $3 $4 $5 $6 $7 $8 $9 X,Y pos of 4 corners*
0 Add a 4 corners polygon primitive as box body*
4,1,4,$2,$3,$4,$5,$6,$7,$8,$9,$2,$3,0*
0 Add four circle primitives for the rounded corners*
1,1,$1+$1,$2,$3*
1,1,$1+$1,$4,$5*
1,1,$1+$1,$6,$7*
1,1,$1+$1,$8,$9*
0 Add four rect primitives between the rounded corners*
20,1,$1+$1,$2,$3,$4,$5,0*
20,1,$1+$1,$4,$5,$6,$7,0*
20,1,$1+$1,$6,$7,$8,$9,0*
20,1,$1+$1,$8,$9,$2,$3,0*%
G04 Aperture macros list end*
%TA.AperFunction,ComponentPad*%
%ADD10R,1.700000X1.700000*%
%TD*%
%TA.AperFunction,ComponentPad*%
%ADD11O,1.700000X1.700000*%
%TD*%
%TA.AperFunction,ComponentPad*%
%ADD12C,0.650000*%
%TD*%
%TA.AperFunction,HeatsinkPad*%
%ADD13O,2.100000X1.000000*%
%TD*%
%TA.AperFunction,HeatsinkPad*%
%ADD14O,1.600000X1.000000*%
%TD*%
%TA.AperFunction,ComponentPad*%
%ADD15RoundRect,0.250001X-0.799999X0.799999X-0.799999X-0.799999X0.799999X-0.799999X0.799999X0.799999X0*%
%TD*%
%TA.AperFunction,ComponentPad*%
%ADD16C,2.100000*%
%TD*%
%TA.AperFunction,ComponentPad*%
%ADD17C,1.100000*%
%TD*%
%TA.AperFunction,ComponentPad*%
%ADD18C,0.800000*%
%TD*%
%TA.AperFunction,ViaPad*%
%ADD19C,1.000000*%
%TD*%
%TA.AperFunction,ViaPad*%
%ADD20C,0.400000*%
%TD*%
%TA.AperFunction,ViaPad*%
%ADD21C,0.600000*%
%TD*%
%TA.AperFunction,ViaPad*%
%ADD22C,1.200000*%
%TD*%
%TA.AperFunction,Conductor*%
%ADD23C,0.300000*%
%TD*%
%TA.AperFunction,Conductor*%
%ADD24C,0.200000*%
%TD*%
%TA.AperFunction,Conductor*%
%ADD25C,0.400000*%
%TD*%
G04 APERTURE END LIST*
D10*
X107920000Y-81290000D03*
D11*
X110460000Y-81290000D03*
X113000000Y-81290000D03*
X115540000Y-81290000D03*
D12*
X156865000Y-94750000D03*
X156865000Y-88970000D03*
D13*
X156365000Y-96180000D03*
D14*
X160545000Y-96180000D03*
D13*
X156365000Y-87540000D03*
D14*
X160545000Y-87540000D03*
D15*
X103000000Y-84000000D03*
D16*
X103000000Y-86540000D03*
D10*
X125215000Y-81260000D03*
D11*
X127755000Y-81260000D03*
X130295000Y-81260000D03*
X132835000Y-81260000D03*
X135375000Y-81260000D03*
D17*
X112304037Y-87262132D03*
D18*
X109617031Y-89949138D03*
D11*
X118460000Y-84960000D03*
X118460000Y-87500000D03*
X118460000Y-90040000D03*
D10*
X118460000Y-92580000D03*
D19*
X106300000Y-93070000D03*
X106300000Y-90510000D03*
X106280000Y-85450000D03*
D20*
X154240000Y-94650000D03*
X154003035Y-93981874D03*
X148530000Y-89330000D03*
D19*
X106310000Y-88000000D03*
X111340000Y-90530000D03*
D20*
X110470000Y-94670000D03*
X113662136Y-92256388D03*
D21*
X108153320Y-91412849D03*
D19*
X111340000Y-85440000D03*
X110620000Y-87990000D03*
D20*
X139140000Y-95880000D03*
X114540000Y-92190000D03*
X138888724Y-91017295D03*
X138264000Y-88279182D03*
X109404899Y-85070101D03*
X103370000Y-93590000D03*
X105000000Y-94500000D03*
X143548616Y-94279646D03*
X143438635Y-93687500D03*
D19*
X139690000Y-81450000D03*
X141990000Y-81480000D03*
D21*
X113767748Y-85798421D03*
D20*
X114970000Y-93980000D03*
X123000000Y-87990000D03*
X121400000Y-83440000D03*
X122180000Y-95620000D03*
X126009718Y-91647955D03*
X124460000Y-91030000D03*
X126760000Y-94480000D03*
X132660000Y-92970000D03*
X152270000Y-89860000D03*
X154240000Y-95670000D03*
X151700000Y-94347500D03*
X143490000Y-96070000D03*
D21*
X117970000Y-81390000D03*
X116075000Y-88150000D03*
X146100000Y-96190000D03*
D19*
X142000000Y-84175000D03*
X139700000Y-84175000D03*
D20*
X135395314Y-91100314D03*
X136400000Y-91730000D03*
X135410000Y-93970000D03*
X136720000Y-92800000D03*
D19*
X130080000Y-91990000D03*
X149450000Y-91790000D03*
X140700000Y-92937500D03*
D20*
X136680000Y-90825000D03*
D21*
X137590000Y-95690000D03*
D20*
X145530000Y-91670000D03*
X145510000Y-94580000D03*
D21*
X149290000Y-89120000D03*
D20*
X144200000Y-82500000D03*
X127760000Y-90610000D03*
X137680000Y-92800000D03*
X120380000Y-83440000D03*
X124420000Y-85139000D03*
D19*
X122420000Y-93160000D03*
X158376000Y-93710000D03*
X158230000Y-90070000D03*
D20*
X129670000Y-86470000D03*
X129550000Y-87460000D03*
X125180000Y-85740000D03*
D21*
X122350000Y-86990000D03*
D22*
X160950000Y-83675000D03*
D20*
X133747262Y-91500027D03*
D21*
X153690000Y-85912500D03*
D20*
X153327000Y-92000000D03*
X154100000Y-81090000D03*
X150400000Y-82920000D03*
D22*
X151700000Y-87720000D03*
D19*
X158210000Y-88950000D03*
D20*
X146550000Y-90500000D03*
D19*
X158270000Y-94910000D03*
D22*
X153690000Y-87987500D03*
D21*
X123000000Y-87030000D03*
X129700000Y-84290000D03*
X128400000Y-84250000D03*
X125400000Y-87755200D03*
D19*
X154430000Y-83670000D03*
X135040000Y-86560000D03*
X133280000Y-86510000D03*
X156800000Y-83650000D03*
X132160000Y-95870000D03*
X123820000Y-93112500D03*
X130920000Y-95850000D03*
X123820000Y-96087500D03*
X125540000Y-96090000D03*
D20*
X132500000Y-92100000D03*
D21*
X111800000Y-95950000D03*
D20*
X134425000Y-96100000D03*
X133550000Y-89660000D03*
X115780000Y-93240000D03*
X119160000Y-88730000D03*
X138340000Y-91260000D03*
X154446832Y-91876085D03*
X153570000Y-90490000D03*
X115780000Y-92270000D03*
X140353300Y-95897737D03*
X143050000Y-86310000D03*
X150850000Y-94150000D03*
X144150000Y-89350000D03*
X120161000Y-89620000D03*
X132750000Y-91554564D03*
X132120000Y-90110000D03*
X140980000Y-95860000D03*
X132560000Y-89690000D03*
X134740000Y-90340000D03*
X124880000Y-89965000D03*
X143840000Y-91970000D03*
X143725000Y-90866479D03*
X127190000Y-96520000D03*
X142880000Y-95050000D03*
X144270000Y-91400000D03*
X148980000Y-95150000D03*
X145530000Y-92690000D03*
X135300000Y-89990000D03*
X127560000Y-94890000D03*
X128940000Y-96260000D03*
X141646446Y-95906446D03*
X145500000Y-93560000D03*
X126270000Y-88660000D03*
X142800000Y-90650000D03*
X139700000Y-88500000D03*
X147450000Y-85490000D03*
X147930000Y-89360000D03*
X138210000Y-94900000D03*
X129500000Y-95560000D03*
D23*
X149528000Y-90040000D02*
X147799000Y-91769000D01*
X149528000Y-89358000D02*
X149528000Y-90040000D01*
X149290000Y-89120000D02*
X149528000Y-89358000D01*
D24*
X138729000Y-96291000D02*
X139140000Y-95880000D01*
X136749000Y-95698943D02*
X137341057Y-96291000D01*
X137341057Y-96291000D02*
X138729000Y-96291000D01*
X136749000Y-93301000D02*
X136749000Y-95698943D01*
X135370479Y-93301000D02*
X136749000Y-93301000D01*
X135200479Y-93471000D02*
X135370479Y-93301000D01*
X131721000Y-91111000D02*
X131721000Y-92739521D01*
X127552479Y-91111000D02*
X131721000Y-91111000D01*
X126970479Y-90529000D02*
X127552479Y-91111000D01*
X124252479Y-90529000D02*
X126970479Y-90529000D01*
X123959000Y-90822479D02*
X124252479Y-90529000D01*
X123959000Y-91011000D02*
X123959000Y-90822479D01*
X121800000Y-91450000D02*
X123520000Y-91450000D01*
X123520000Y-91450000D02*
X123959000Y-91011000D01*
X119509000Y-93741000D02*
X121800000Y-91450000D01*
X114861479Y-92511479D02*
X114861479Y-93030000D01*
X132452479Y-93471000D02*
X135200479Y-93471000D01*
X114540000Y-92190000D02*
X114861479Y-92511479D01*
X115572479Y-93741000D02*
X119509000Y-93741000D01*
X114861479Y-93030000D02*
X115572479Y-93741000D01*
X131721000Y-92739521D02*
X132452479Y-93471000D01*
D23*
X140849232Y-94330000D02*
X138670000Y-94330000D01*
X142120232Y-95601000D02*
X140849232Y-94330000D01*
X143108232Y-95601000D02*
X142120232Y-95601000D01*
X145758232Y-94821768D02*
X143887464Y-94821768D01*
X143887464Y-94821768D02*
X143108232Y-95601000D01*
D24*
X127840000Y-90690000D02*
X127760000Y-90610000D01*
X134381479Y-90690000D02*
X127840000Y-90690000D01*
X134947521Y-90841000D02*
X134532479Y-90841000D01*
X135700000Y-90540000D02*
X135248521Y-90540000D01*
X136179000Y-91019000D02*
X135700000Y-90540000D01*
X136179000Y-91032521D02*
X136179000Y-91019000D01*
X136400000Y-91253521D02*
X136179000Y-91032521D01*
X135248521Y-90540000D02*
X134947521Y-90841000D01*
X136400000Y-91730000D02*
X136400000Y-91253521D01*
X134532479Y-90841000D02*
X134381479Y-90690000D01*
D25*
X127755000Y-83605000D02*
X128400000Y-84250000D01*
X127755000Y-81260000D02*
X127755000Y-83605000D01*
D24*
X147700000Y-91670000D02*
X147799000Y-91769000D01*
X145530000Y-91670000D02*
X147700000Y-91670000D01*
D23*
X147799000Y-93211000D02*
X147799000Y-91769000D01*
X146260000Y-94750000D02*
X147799000Y-93211000D01*
X145830000Y-94750000D02*
X146260000Y-94750000D01*
D24*
X137680000Y-91825000D02*
X137680000Y-92800000D01*
X136680000Y-90825000D02*
X137680000Y-91825000D01*
D23*
X137590000Y-94400000D02*
X138165000Y-93825000D01*
X137590000Y-95690000D02*
X137590000Y-94400000D01*
X138165000Y-93825000D02*
X137680000Y-93340000D01*
X137680000Y-93340000D02*
X137680000Y-92800000D01*
X145680000Y-94750000D02*
X145830000Y-94750000D01*
X145510000Y-94580000D02*
X145680000Y-94750000D01*
D24*
X120380000Y-85020000D02*
X120380000Y-83440000D01*
X122350000Y-86990000D02*
X120380000Y-85020000D01*
X146001000Y-93161000D02*
X145530000Y-92690000D01*
X146001000Y-93352479D02*
X146001000Y-93161000D01*
X146001000Y-93767521D02*
X146001000Y-93352479D01*
X145707521Y-94061000D02*
X146001000Y-93767521D01*
X145292479Y-94061000D02*
X145707521Y-94061000D01*
X144701000Y-94061000D02*
X145292479Y-94061000D01*
X144601000Y-93961000D02*
X144701000Y-94061000D01*
X144320479Y-93726100D02*
X144555379Y-93961000D01*
X144555379Y-93961000D02*
X144601000Y-93961000D01*
X136242900Y-89560000D02*
X136575100Y-89560000D01*
X136008000Y-89325100D02*
X136242900Y-89560000D01*
X140154379Y-89560000D02*
X144320479Y-93726100D01*
X136575100Y-89560000D02*
X140154379Y-89560000D01*
X131249000Y-89159000D02*
X135841900Y-89159000D01*
X129550000Y-87460000D02*
X131249000Y-89159000D01*
X135841900Y-89159000D02*
X136008000Y-89325100D01*
X131820000Y-88620000D02*
X129670000Y-86470000D01*
X140320479Y-89159000D02*
X136409000Y-89159000D01*
X135870000Y-88620000D02*
X131820000Y-88620000D01*
X144721479Y-93560000D02*
X140320479Y-89159000D01*
X136409000Y-89159000D02*
X135870000Y-88620000D01*
X145500000Y-93560000D02*
X144721479Y-93560000D01*
X132750000Y-91554564D02*
X132740000Y-91544564D01*
X118460000Y-84960000D02*
X118639000Y-85139000D01*
D23*
X138670000Y-94330000D02*
X138165000Y-93825000D01*
X145830000Y-94750000D02*
X145758232Y-94821768D01*
%TA.AperFunction,Conductor*%
G36*
X140389579Y-80519685D02*
G01*
X140435334Y-80572489D01*
X140446493Y-80627412D01*
X140392388Y-82593225D01*
X140370867Y-82659697D01*
X140316824Y-82703982D01*
X140307647Y-82707450D01*
X138500000Y-83310000D01*
X138499999Y-83310000D01*
X138516217Y-84614459D01*
X138497368Y-84681738D01*
X138445137Y-84728145D01*
X138392227Y-84740000D01*
X128888823Y-84740000D01*
X128277588Y-88054619D01*
X128246072Y-88116977D01*
X128185846Y-88152398D01*
X128163191Y-88155902D01*
X126369097Y-88265298D01*
X126348950Y-88266526D01*
X126322727Y-88259500D01*
X126217273Y-88259500D01*
X126144530Y-88278991D01*
X126132051Y-88279752D01*
X125803772Y-88299770D01*
X125796225Y-88300000D01*
X125700000Y-88300000D01*
X125700000Y-87200000D01*
X125175813Y-87010208D01*
X125970000Y-86120000D01*
X127257689Y-83144655D01*
X127302382Y-83090951D01*
X127369015Y-83069933D01*
X127371329Y-83069908D01*
X136150000Y-83060000D01*
X138020000Y-81780000D01*
X138020000Y-80624000D01*
X138039685Y-80556961D01*
X138092489Y-80511206D01*
X138144000Y-80500000D01*
X140322540Y-80500000D01*
X140389579Y-80519685D01*
G37*
%TD.AperFunction*%
%TA.AperFunction,Conductor*%
G36*
X125685435Y-88300000D02*
G01*
X125680355Y-89468160D01*
X125660379Y-89535113D01*
X125607376Y-89580638D01*
X125604609Y-89581847D01*
X125300918Y-89710136D01*
X125231503Y-89718091D01*
X125168806Y-89687254D01*
X125164984Y-89683591D01*
X125125914Y-89644521D01*
X125125913Y-89644520D01*
X125034587Y-89591793D01*
X124932727Y-89564500D01*
X124827273Y-89564500D01*
X124725413Y-89591793D01*
X124725410Y-89591794D01*
X124634085Y-89644521D01*
X124559521Y-89719085D01*
X124506794Y-89810410D01*
X124506793Y-89810413D01*
X124479500Y-89912273D01*
X124479500Y-89974903D01*
X124459815Y-90041942D01*
X124407011Y-90087697D01*
X124403753Y-90089129D01*
X121916750Y-91139726D01*
X121868497Y-91149500D01*
X121760438Y-91149500D01*
X121722224Y-91159739D01*
X121684009Y-91169979D01*
X121684008Y-91169980D01*
X121650370Y-91189401D01*
X121650368Y-91189402D01*
X121639788Y-91195511D01*
X121615489Y-91209540D01*
X121530301Y-91294727D01*
X121527231Y-91297421D01*
X121519797Y-91300870D01*
X121493724Y-91318426D01*
X121490001Y-91319998D01*
X119299999Y-92980000D01*
X119307183Y-93303245D01*
X119288993Y-93370705D01*
X119237219Y-93417622D01*
X119183214Y-93430000D01*
X117734000Y-93430000D01*
X117666961Y-93410315D01*
X117621206Y-93357511D01*
X117610000Y-93306000D01*
X117610000Y-91791425D01*
X117629685Y-91724386D01*
X117658863Y-91692782D01*
X118319766Y-91189401D01*
X118416327Y-91115855D01*
X118481586Y-91090894D01*
X118491461Y-91090500D01*
X118563466Y-91090500D01*
X118563467Y-91090499D01*
X118766420Y-91050130D01*
X118957598Y-90970941D01*
X119129655Y-90855977D01*
X119275977Y-90709655D01*
X119390941Y-90537598D01*
X119470130Y-90346420D01*
X119470134Y-90346399D01*
X119471587Y-90341611D01*
X119483156Y-90323953D01*
X119490369Y-90304113D01*
X119507704Y-90286487D01*
X119509879Y-90283169D01*
X119515081Y-90278979D01*
X119530949Y-90266893D01*
X119550161Y-90254867D01*
X120004557Y-90025374D01*
X120073266Y-90012724D01*
X120092537Y-90016283D01*
X120108273Y-90020500D01*
X120108275Y-90020500D01*
X120213725Y-90020500D01*
X120213727Y-90020500D01*
X120315587Y-89993207D01*
X120406913Y-89940480D01*
X120481480Y-89865913D01*
X120529343Y-89783010D01*
X120579910Y-89734795D01*
X120580403Y-89734543D01*
X123500000Y-88260000D01*
X123535010Y-87559798D01*
X123550000Y-87260000D01*
X125690000Y-87250000D01*
X125685435Y-88300000D01*
G37*
%TD.AperFunction*%
%TA.AperFunction,Conductor*%
G36*
X123307296Y-86384904D02*
G01*
X123523450Y-86446202D01*
X123955757Y-86568797D01*
X123964142Y-86571500D01*
X124471352Y-86755144D01*
X125700000Y-87200000D01*
X125700000Y-88300000D01*
X125685435Y-88300000D01*
X125690000Y-87250000D01*
X123550000Y-87260000D01*
X123535010Y-87559798D01*
X123535009Y-87559798D01*
X123535010Y-87559797D01*
X121936135Y-87538338D01*
X121869366Y-87517755D01*
X121824323Y-87464342D01*
X121813818Y-87412174D01*
X121829515Y-86517400D01*
X121850373Y-86450718D01*
X121903971Y-86405896D01*
X121952050Y-86395585D01*
X123272025Y-86380209D01*
X123307296Y-86384904D01*
G37*
%TD.AperFunction*%
%TA.AperFunction,Conductor*%
G36*
X126242360Y-94448574D02*
G01*
X126268787Y-94456463D01*
X126295982Y-94461036D01*
X126301788Y-94466314D01*
X126309309Y-94468559D01*
X126327276Y-94489483D01*
X126347683Y-94508034D01*
X126352138Y-94518437D01*
X126354826Y-94521568D01*
X126361577Y-94540479D01*
X126375775Y-94593465D01*
X126380000Y-94625559D01*
X126380000Y-96756313D01*
X126360315Y-96823352D01*
X126307511Y-96869107D01*
X126256314Y-96880313D01*
X123399227Y-96887548D01*
X123332138Y-96868033D01*
X123286249Y-96815345D01*
X123274914Y-96764048D01*
X123272992Y-96287493D01*
X123266027Y-94560282D01*
X123285441Y-94493167D01*
X123338060Y-94447199D01*
X123390578Y-94435786D01*
X126242360Y-94448574D01*
G37*
%TD.AperFunction*%
%TA.AperFunction,Conductor*%
G36*
X152383446Y-86833026D02*
G01*
X154630087Y-87338764D01*
X154691165Y-87372690D01*
X154707467Y-87393163D01*
X155240000Y-88230000D01*
X156380000Y-88360000D01*
X158749111Y-88417087D01*
X158860460Y-88419896D01*
X158869924Y-88422936D01*
X158825000Y-90200000D01*
X156385021Y-90152467D01*
X156385020Y-90152466D01*
X154996719Y-90125423D01*
X154954718Y-90117219D01*
X151079584Y-88630532D01*
X151024044Y-88588141D01*
X151000239Y-88522452D01*
X151000000Y-88514760D01*
X151000000Y-86954000D01*
X151019685Y-86886961D01*
X151072489Y-86841206D01*
X151124000Y-86830000D01*
X152356215Y-86830000D01*
X152383446Y-86833026D01*
G37*
%TD.AperFunction*%
%TA.AperFunction,Conductor*%
G36*
X158893023Y-88430356D02*
G01*
X158925619Y-88440354D01*
X158926168Y-88441003D01*
X158926982Y-88441265D01*
X158948735Y-88467688D01*
X158970737Y-88493703D01*
X158970932Y-88494649D01*
X158971391Y-88495206D01*
X158971848Y-88499076D01*
X158981328Y-88544918D01*
X158923450Y-95307061D01*
X158903193Y-95373930D01*
X158849999Y-95419231D01*
X158799455Y-95430000D01*
X156552947Y-95430000D01*
X156485908Y-95410315D01*
X156440153Y-95357511D01*
X156428952Y-95307057D01*
X156385021Y-90152467D01*
X158825000Y-90200000D01*
X158869925Y-88422936D01*
X158893023Y-88430356D01*
G37*
%TD.AperFunction*%
%TA.AperFunction,Conductor*%
G36*
X157468039Y-82719685D02*
G01*
X157513794Y-82772489D01*
X157525000Y-82824000D01*
X157525000Y-84976000D01*
X157505315Y-85043039D01*
X157452511Y-85088794D01*
X157401000Y-85100000D01*
X152274748Y-85100000D01*
X151800000Y-85300000D01*
X151799998Y-85300000D01*
X151799996Y-85300002D01*
X150499997Y-86200002D01*
X150499996Y-86200002D01*
X148234805Y-88169734D01*
X148171300Y-88198870D01*
X148153876Y-88200162D01*
X145366220Y-88209978D01*
X145353814Y-88209400D01*
X137420001Y-87440000D01*
X137419992Y-87439999D01*
X132526569Y-87517982D01*
X132459224Y-87499368D01*
X132412634Y-87447300D01*
X132400594Y-87393416D01*
X132403800Y-86710499D01*
X132405928Y-86257273D01*
X142649500Y-86257273D01*
X142649500Y-86362727D01*
X142676793Y-86464587D01*
X142729520Y-86555913D01*
X142804087Y-86630480D01*
X142895413Y-86683207D01*
X142997273Y-86710500D01*
X142997275Y-86710500D01*
X143102725Y-86710500D01*
X143102727Y-86710500D01*
X143204587Y-86683207D01*
X143295913Y-86630480D01*
X143370480Y-86555913D01*
X143423207Y-86464587D01*
X143450500Y-86362727D01*
X143450500Y-86257273D01*
X143423207Y-86155413D01*
X143370480Y-86064087D01*
X143295913Y-85989520D01*
X143204589Y-85936794D01*
X143204588Y-85936793D01*
X143112430Y-85912100D01*
X143102727Y-85909500D01*
X142997273Y-85909500D01*
X142895413Y-85936793D01*
X142895410Y-85936794D01*
X142804085Y-85989521D01*
X142729521Y-86064085D01*
X142676794Y-86155410D01*
X142676793Y-86155413D01*
X142649500Y-86257273D01*
X132405928Y-86257273D01*
X132409414Y-85514701D01*
X132429413Y-85447757D01*
X132482432Y-85402250D01*
X132534697Y-85391292D01*
X138197953Y-85449978D01*
X138202004Y-85450087D01*
X145780000Y-85780000D01*
X146258090Y-85437273D01*
X147049500Y-85437273D01*
X147049500Y-85542727D01*
X147076793Y-85644587D01*
X147129520Y-85735913D01*
X147204087Y-85810480D01*
X147295413Y-85863207D01*
X147397273Y-85890500D01*
X147397275Y-85890500D01*
X147502725Y-85890500D01*
X147502727Y-85890500D01*
X147604587Y-85863207D01*
X147695913Y-85810480D01*
X147770480Y-85735913D01*
X147823207Y-85644587D01*
X147850500Y-85542727D01*
X147850500Y-85437273D01*
X147823207Y-85335413D01*
X147770480Y-85244087D01*
X147695913Y-85169520D01*
X147604587Y-85116793D01*
X147502727Y-85089500D01*
X147397273Y-85089500D01*
X147295413Y-85116793D01*
X147295410Y-85116794D01*
X147204085Y-85169521D01*
X147129521Y-85244085D01*
X147076794Y-85335410D01*
X147076793Y-85335413D01*
X147049500Y-85437273D01*
X146258090Y-85437273D01*
X149075416Y-83417623D01*
X149129940Y-83395678D01*
X150121807Y-83252522D01*
X150190967Y-83262428D01*
X150201497Y-83267852D01*
X150245413Y-83293207D01*
X150347273Y-83320500D01*
X150347275Y-83320500D01*
X150452725Y-83320500D01*
X150452727Y-83320500D01*
X150554587Y-83293207D01*
X150645913Y-83240480D01*
X150691088Y-83195304D01*
X150752407Y-83161821D01*
X150761019Y-83160265D01*
X153941187Y-82701272D01*
X153958900Y-82700000D01*
X157401000Y-82700000D01*
X157468039Y-82719685D01*
G37*
%TD.AperFunction*%
%TA.AperFunction,Conductor*%
G36*
X127731123Y-91558450D02*
G01*
X127747013Y-91569051D01*
X129430000Y-92890000D01*
X131850228Y-93325097D01*
X131912725Y-93356332D01*
X131915967Y-93359459D01*
X132186314Y-93629806D01*
X132214642Y-93673694D01*
X132932153Y-95574409D01*
X132940141Y-95619057D01*
X132933798Y-96538804D01*
X132913652Y-96605706D01*
X132860533Y-96651096D01*
X132809262Y-96661948D01*
X130250130Y-96650820D01*
X130183177Y-96630844D01*
X130137652Y-96577842D01*
X130126673Y-96527821D01*
X130118984Y-95574409D01*
X130116883Y-95313846D01*
X130084753Y-95311519D01*
X129843153Y-95294028D01*
X129777710Y-95269554D01*
X129764426Y-95258033D01*
X129745914Y-95239521D01*
X129745913Y-95239520D01*
X129654587Y-95186793D01*
X129552727Y-95159500D01*
X129447273Y-95159500D01*
X129345413Y-95186793D01*
X129345412Y-95186793D01*
X129268807Y-95231021D01*
X129200907Y-95247493D01*
X129197854Y-95247309D01*
X128180068Y-95173624D01*
X128152227Y-95163212D01*
X128123573Y-95155269D01*
X128117626Y-95150272D01*
X128114625Y-95149150D01*
X128096558Y-95132569D01*
X127992029Y-95015574D01*
X127962044Y-94952467D01*
X127960500Y-94932959D01*
X127960500Y-94837275D01*
X127960500Y-94837273D01*
X127933207Y-94735413D01*
X127880480Y-94644087D01*
X127805913Y-94569520D01*
X127714587Y-94516793D01*
X127612727Y-94489500D01*
X127577507Y-94489500D01*
X127510468Y-94469815D01*
X127485038Y-94448116D01*
X127040000Y-93949999D01*
X121972230Y-93901177D01*
X121905384Y-93880848D01*
X121860140Y-93827605D01*
X121849426Y-93777765D01*
X121840573Y-91892141D01*
X121859942Y-91825015D01*
X121912530Y-91779013D01*
X121962116Y-91767589D01*
X122826784Y-91750524D01*
X122829231Y-91750500D01*
X123559561Y-91750500D01*
X123559562Y-91750500D01*
X123603166Y-91738815D01*
X123632802Y-91734615D01*
X124880000Y-91710000D01*
X125499108Y-91672809D01*
X125567205Y-91688438D01*
X125616044Y-91738404D01*
X125626314Y-91764489D01*
X125630342Y-91779520D01*
X125636511Y-91802543D01*
X125636512Y-91802544D01*
X125689238Y-91893868D01*
X125763805Y-91968435D01*
X125855131Y-92021162D01*
X125956991Y-92048455D01*
X125956993Y-92048455D01*
X126062443Y-92048455D01*
X126062445Y-92048455D01*
X126164305Y-92021162D01*
X126255631Y-91968435D01*
X126330198Y-91893868D01*
X126382925Y-91802542D01*
X126409583Y-91703049D01*
X126445946Y-91643391D01*
X126508793Y-91612861D01*
X126521891Y-91611370D01*
X127663027Y-91542821D01*
X127731123Y-91558450D01*
G37*
%TD.AperFunction*%
%TA.AperFunction,Conductor*%
G36*
X105856691Y-82790703D02*
G01*
X105923536Y-82811028D01*
X105968783Y-82864268D01*
X105979500Y-82914696D01*
X105979500Y-82982475D01*
X106017016Y-83122485D01*
X106017017Y-83122488D01*
X106089488Y-83248011D01*
X106089490Y-83248013D01*
X106089491Y-83248015D01*
X106191985Y-83350509D01*
X106191986Y-83350510D01*
X106191988Y-83350511D01*
X106317511Y-83422982D01*
X106317512Y-83422982D01*
X106317515Y-83422984D01*
X106457525Y-83460500D01*
X106457528Y-83460500D01*
X106602472Y-83460500D01*
X106602475Y-83460500D01*
X106742485Y-83422984D01*
X106868015Y-83350509D01*
X106970509Y-83248015D01*
X107042984Y-83122485D01*
X107080500Y-82982475D01*
X107080500Y-82927626D01*
X107100185Y-82860587D01*
X107152989Y-82814832D01*
X107205684Y-82803632D01*
X107746960Y-82808820D01*
X107813806Y-82829146D01*
X107859053Y-82882386D01*
X107869770Y-82933046D01*
X107855041Y-90820303D01*
X107835231Y-90887305D01*
X107793046Y-90927454D01*
X107784604Y-90932329D01*
X107784601Y-90932331D01*
X107672801Y-91044131D01*
X107672795Y-91044139D01*
X107593746Y-91181058D01*
X107593743Y-91181065D01*
X107552820Y-91333792D01*
X107552820Y-91491906D01*
X107555720Y-91502727D01*
X107593743Y-91644632D01*
X107593746Y-91644639D01*
X107672795Y-91781558D01*
X107672799Y-91781563D01*
X107672800Y-91781565D01*
X107784604Y-91893369D01*
X107790828Y-91896962D01*
X107839043Y-91947527D01*
X107852829Y-92004581D01*
X107850462Y-93272488D01*
X107850000Y-93520000D01*
X114771647Y-94446068D01*
X114787263Y-94449191D01*
X114904108Y-94480500D01*
X114904111Y-94480500D01*
X115020736Y-94480500D01*
X115037179Y-94481595D01*
X115100000Y-94490000D01*
X115100005Y-94489999D01*
X115100006Y-94490000D01*
X115547722Y-94486577D01*
X122835556Y-94430874D01*
X122902742Y-94450045D01*
X122948899Y-94502498D01*
X122960501Y-94554370D01*
X122965064Y-95685890D01*
X122969417Y-96765511D01*
X122969456Y-96775000D01*
X122950042Y-96842118D01*
X122897423Y-96888086D01*
X122845457Y-96899500D01*
X118295410Y-96899500D01*
X118228371Y-96879815D01*
X118182616Y-96827011D01*
X118172672Y-96757853D01*
X118201697Y-96694297D01*
X118233410Y-96668113D01*
X118315913Y-96620480D01*
X118390480Y-96545913D01*
X118443207Y-96454587D01*
X118470500Y-96352727D01*
X118470500Y-96247273D01*
X118443207Y-96145413D01*
X118390480Y-96054087D01*
X118315913Y-95979520D01*
X118225493Y-95927316D01*
X118224589Y-95926794D01*
X118224584Y-95926792D01*
X118222404Y-95926208D01*
X118220772Y-95925213D01*
X118217080Y-95923684D01*
X118217318Y-95923108D01*
X118162744Y-95889842D01*
X118132216Y-95826995D01*
X118130500Y-95806434D01*
X118130500Y-95737275D01*
X118130500Y-95737273D01*
X118103207Y-95635413D01*
X118056266Y-95554108D01*
X121679500Y-95554108D01*
X121679500Y-95685891D01*
X121713608Y-95813187D01*
X121746554Y-95870250D01*
X121779500Y-95927314D01*
X121872686Y-96020500D01*
X121986814Y-96086392D01*
X122114108Y-96120500D01*
X122114110Y-96120500D01*
X122245890Y-96120500D01*
X122245892Y-96120500D01*
X122373186Y-96086392D01*
X122487314Y-96020500D01*
X122580500Y-95927314D01*
X122646392Y-95813186D01*
X122680500Y-95685892D01*
X122680500Y-95554108D01*
X122646392Y-95426814D01*
X122580500Y-95312686D01*
X122487314Y-95219500D01*
X122402442Y-95170499D01*
X122373187Y-95153608D01*
X122308931Y-95136391D01*
X122245892Y-95119500D01*
X122114108Y-95119500D01*
X121986812Y-95153608D01*
X121872686Y-95219500D01*
X121872683Y-95219502D01*
X121779502Y-95312683D01*
X121779500Y-95312686D01*
X121713608Y-95426812D01*
X121679500Y-95554108D01*
X118056266Y-95554108D01*
X118050480Y-95544087D01*
X117975913Y-95469520D01*
X117901944Y-95426814D01*
X117884589Y-95416794D01*
X117884588Y-95416793D01*
X117884587Y-95416793D01*
X117782727Y-95389500D01*
X117677273Y-95389500D01*
X117575413Y-95416793D01*
X117575410Y-95416794D01*
X117484085Y-95469521D01*
X117409521Y-95544085D01*
X117356794Y-95635410D01*
X117356793Y-95635413D01*
X117329500Y-95737273D01*
X117329500Y-95842727D01*
X117356793Y-95944587D01*
X117409520Y-96035913D01*
X117484087Y-96110480D01*
X117575413Y-96163207D01*
X117577587Y-96163789D01*
X117579215Y-96164781D01*
X117582920Y-96166316D01*
X117582680Y-96166893D01*
X117637248Y-96200148D01*
X117667782Y-96262993D01*
X117669500Y-96283565D01*
X117669500Y-96352727D01*
X117696793Y-96454587D01*
X117749520Y-96545913D01*
X117824087Y-96620480D01*
X117906590Y-96668113D01*
X117954806Y-96718680D01*
X117968028Y-96787287D01*
X117942060Y-96852152D01*
X117885146Y-96892680D01*
X117844590Y-96899500D01*
X113600501Y-96899500D01*
X104844036Y-96889687D01*
X104777019Y-96869927D01*
X104731323Y-96817072D01*
X104720175Y-96765514D01*
X104721443Y-95870943D01*
X111199500Y-95870943D01*
X111199500Y-96029057D01*
X111236279Y-96166316D01*
X111240423Y-96181783D01*
X111240426Y-96181790D01*
X111319475Y-96318709D01*
X111319479Y-96318714D01*
X111319480Y-96318716D01*
X111431284Y-96430520D01*
X111431286Y-96430521D01*
X111431290Y-96430524D01*
X111568209Y-96509573D01*
X111568216Y-96509577D01*
X111720943Y-96550500D01*
X111720945Y-96550500D01*
X111879055Y-96550500D01*
X111879057Y-96550500D01*
X112031784Y-96509577D01*
X112168716Y-96430520D01*
X112280520Y-96318716D01*
X112359577Y-96181784D01*
X112400500Y-96029057D01*
X112400500Y-95870943D01*
X112359577Y-95718216D01*
X112311771Y-95635413D01*
X112280524Y-95581290D01*
X112280518Y-95581282D01*
X112168717Y-95469481D01*
X112168709Y-95469475D01*
X112031790Y-95390426D01*
X112031786Y-95390424D01*
X112031784Y-95390423D01*
X111879057Y-95349500D01*
X111720943Y-95349500D01*
X111568216Y-95390423D01*
X111568209Y-95390426D01*
X111431290Y-95469475D01*
X111431282Y-95469481D01*
X111319481Y-95581282D01*
X111319475Y-95581290D01*
X111240426Y-95718209D01*
X111240423Y-95718216D01*
X111199500Y-95870943D01*
X104721443Y-95870943D01*
X104722529Y-95105226D01*
X104742308Y-95038220D01*
X104795176Y-94992540D01*
X104864349Y-94982694D01*
X104878613Y-94985630D01*
X104934108Y-95000500D01*
X104934110Y-95000500D01*
X105065890Y-95000500D01*
X105065892Y-95000500D01*
X105193186Y-94966392D01*
X105307314Y-94900500D01*
X105400500Y-94807314D01*
X105466392Y-94693186D01*
X105490260Y-94604108D01*
X109969500Y-94604108D01*
X109969500Y-94735891D01*
X110003608Y-94863187D01*
X110025151Y-94900499D01*
X110069500Y-94977314D01*
X110162686Y-95070500D01*
X110276814Y-95136392D01*
X110404108Y-95170500D01*
X110404110Y-95170500D01*
X110535890Y-95170500D01*
X110535892Y-95170500D01*
X110663186Y-95136392D01*
X110777314Y-95070500D01*
X110870500Y-94977314D01*
X110936392Y-94863186D01*
X110970500Y-94735892D01*
X110970500Y-94604108D01*
X110936392Y-94476814D01*
X110870500Y-94362686D01*
X110777314Y-94269500D01*
X110720250Y-94236554D01*
X110663187Y-94203608D01*
X110549648Y-94173186D01*
X110535892Y-94169500D01*
X110404108Y-94169500D01*
X110276812Y-94203608D01*
X110162686Y-94269500D01*
X110162683Y-94269502D01*
X110069502Y-94362683D01*
X110069500Y-94362686D01*
X110003608Y-94476812D01*
X109969500Y-94604108D01*
X105490260Y-94604108D01*
X105500500Y-94565892D01*
X105500500Y-94434108D01*
X105466392Y-94306814D01*
X105400500Y-94192686D01*
X105307314Y-94099500D01*
X105241462Y-94061480D01*
X105193187Y-94033608D01*
X105113450Y-94012243D01*
X105065892Y-93999500D01*
X104934108Y-93999500D01*
X104934106Y-93999500D01*
X104880337Y-94013907D01*
X104810487Y-94012243D01*
X104752625Y-93973080D01*
X104725122Y-93908851D01*
X104724246Y-93893975D01*
X104725531Y-92987525D01*
X106309500Y-92987525D01*
X106309500Y-93132475D01*
X106341120Y-93250480D01*
X106347017Y-93272488D01*
X106419488Y-93398011D01*
X106419490Y-93398013D01*
X106419491Y-93398015D01*
X106521985Y-93500509D01*
X106521986Y-93500510D01*
X106521988Y-93500511D01*
X106647511Y-93572982D01*
X106647512Y-93572982D01*
X106647515Y-93572984D01*
X106787525Y-93610500D01*
X106787528Y-93610500D01*
X106932472Y-93610500D01*
X106932475Y-93610500D01*
X107072485Y-93572984D01*
X107198015Y-93500509D01*
X107300509Y-93398015D01*
X107372984Y-93272485D01*
X107410500Y-93132475D01*
X107410500Y-92987525D01*
X107372984Y-92847515D01*
X107351613Y-92810500D01*
X107300511Y-92721988D01*
X107300506Y-92721982D01*
X107198017Y-92619493D01*
X107198011Y-92619488D01*
X107072488Y-92547017D01*
X107072489Y-92547017D01*
X107061006Y-92543940D01*
X106932475Y-92509500D01*
X106787525Y-92509500D01*
X106658993Y-92543940D01*
X106647511Y-92547017D01*
X106521988Y-92619488D01*
X106521982Y-92619493D01*
X106419493Y-92721982D01*
X106419488Y-92721988D01*
X106347017Y-92847511D01*
X106347016Y-92847515D01*
X106309500Y-92987525D01*
X104725531Y-92987525D01*
X104729131Y-90447525D01*
X105749500Y-90447525D01*
X105749500Y-90592475D01*
X105787016Y-90732485D01*
X105787017Y-90732488D01*
X105859488Y-90858011D01*
X105859490Y-90858013D01*
X105859491Y-90858015D01*
X105961985Y-90960509D01*
X105961986Y-90960510D01*
X105961988Y-90960511D01*
X106087511Y-91032982D01*
X106087512Y-91032982D01*
X106087515Y-91032984D01*
X106227525Y-91070500D01*
X106227528Y-91070500D01*
X106372472Y-91070500D01*
X106372475Y-91070500D01*
X106512485Y-91032984D01*
X106638015Y-90960509D01*
X106740509Y-90858015D01*
X106812984Y-90732485D01*
X106850500Y-90592475D01*
X106850500Y-90447525D01*
X106812984Y-90307515D01*
X106806626Y-90296503D01*
X106740511Y-90181988D01*
X106740506Y-90181982D01*
X106638017Y-90079493D01*
X106638011Y-90079488D01*
X106512488Y-90007017D01*
X106512489Y-90007017D01*
X106501006Y-90003940D01*
X106372475Y-89969500D01*
X106227525Y-89969500D01*
X106098993Y-90003940D01*
X106087511Y-90007017D01*
X105961988Y-90079488D01*
X105961982Y-90079493D01*
X105859493Y-90181982D01*
X105859488Y-90181988D01*
X105787017Y-90307511D01*
X105787016Y-90307515D01*
X105749500Y-90447525D01*
X104729131Y-90447525D01*
X104732717Y-87917525D01*
X105059500Y-87917525D01*
X105059500Y-88062475D01*
X105072940Y-88112632D01*
X105097017Y-88202488D01*
X105169488Y-88328011D01*
X105169490Y-88328013D01*
X105169491Y-88328015D01*
X105271985Y-88430509D01*
X105271986Y-88430510D01*
X105271988Y-88430511D01*
X105397511Y-88502982D01*
X105397512Y-88502982D01*
X105397515Y-88502984D01*
X105537525Y-88540500D01*
X105537528Y-88540500D01*
X105682472Y-88540500D01*
X105682475Y-88540500D01*
X105822485Y-88502984D01*
X105948015Y-88430509D01*
X106050509Y-88328015D01*
X106122984Y-88202485D01*
X106160500Y-88062475D01*
X106160500Y-87917525D01*
X106122984Y-87777515D01*
X106068234Y-87682686D01*
X106050511Y-87651988D01*
X106050506Y-87651982D01*
X105948017Y-87549493D01*
X105948011Y-87549488D01*
X105822488Y-87477017D01*
X105822489Y-87477017D01*
X105798242Y-87470520D01*
X105682475Y-87439500D01*
X105537525Y-87439500D01*
X105421758Y-87470520D01*
X105397511Y-87477017D01*
X105271988Y-87549488D01*
X105271982Y-87549493D01*
X105169493Y-87651982D01*
X105169488Y-87651988D01*
X105097017Y-87777511D01*
X105097016Y-87777515D01*
X105059500Y-87917525D01*
X104732717Y-87917525D01*
X104735506Y-85950118D01*
X104755285Y-85883112D01*
X104808153Y-85837432D01*
X104877326Y-85827586D01*
X104907966Y-85838216D01*
X104908600Y-85836687D01*
X104916109Y-85839797D01*
X104916111Y-85839797D01*
X104916114Y-85839799D01*
X105030691Y-85870500D01*
X105030694Y-85870500D01*
X105149306Y-85870500D01*
X105149309Y-85870500D01*
X105263886Y-85839799D01*
X105366613Y-85780489D01*
X105450489Y-85696613D01*
X105509799Y-85593886D01*
X105540500Y-85479309D01*
X105540500Y-85360691D01*
X105509799Y-85246114D01*
X105450489Y-85143387D01*
X105366613Y-85059511D01*
X105263886Y-85000201D01*
X105149309Y-84969500D01*
X105030691Y-84969500D01*
X104956192Y-84989462D01*
X104916109Y-85000202D01*
X104908600Y-85003313D01*
X104907284Y-85000135D01*
X104854464Y-85012658D01*
X104788558Y-84989462D01*
X104745654Y-84934317D01*
X104737011Y-84888660D01*
X104739822Y-82905013D01*
X104759602Y-82838005D01*
X104812470Y-82792325D01*
X104865009Y-82781198D01*
X105856691Y-82790703D01*
G37*
%TD.AperFunction*%
M02*
