%TF.GenerationSoftware,KiCad,Pcbnew,9.0.0*%
%TF.CreationDate,2025-05-10T22:56:34+02:00*%
%TF.ProjectId,CYPD3177_3.3V_V2_+_OLED,43595044-3331-4373-975f-332e33565f56,rev?*%
%TF.SameCoordinates,Original*%
%TF.FileFunction,Soldermask,Bot*%
%TF.FilePolarity,Negative*%
%FSLAX46Y46*%
G04 Gerber Fmt 4.6, Leading zero omitted, Abs format (unit mm)*
G04 Created by KiCad (PCBNEW 9.0.0) date 2025-05-10 22:56:34*
%MOMM*%
%LPD*%
G01*
G04 APERTURE LIST*
G04 Aperture macros list*
%AMRoundRect*
0 Rectangle with rounded corners*
0 $1 Rounding radius*
0 $2 $3 $4 $5 $6 $7 $8 $9 X,Y pos of 4 corners*
0 Add a 4 corners polygon primitive as box body*
4,1,4,$2,$3,$4,$5,$6,$7,$8,$9,$2,$3,0*
0 Add four circle primitives for the rounded corners*
1,1,$1+$1,$2,$3*
1,1,$1+$1,$4,$5*
1,1,$1+$1,$6,$7*
1,1,$1+$1,$8,$9*
0 Add four rect primitives between the rounded corners*
20,1,$1+$1,$2,$3,$4,$5,0*
20,1,$1+$1,$4,$5,$6,$7,0*
20,1,$1+$1,$6,$7,$8,$9,0*
20,1,$1+$1,$8,$9,$2,$3,0*%
G04 Aperture macros list end*
%ADD10R,3.150000X1.000000*%
%ADD11R,1.700000X1.700000*%
%ADD12O,1.700000X1.700000*%
%ADD13C,0.650000*%
%ADD14O,2.100000X1.000000*%
%ADD15O,1.600000X1.000000*%
%ADD16RoundRect,0.250001X-0.799999X0.799999X-0.799999X-0.799999X0.799999X-0.799999X0.799999X0.799999X0*%
%ADD17C,2.100000*%
%ADD18C,1.100000*%
%ADD19C,0.800000*%
G04 APERTURE END LIST*
D10*
X106300000Y-93070000D03*
X111350000Y-93070000D03*
X106300000Y-90530000D03*
X111350000Y-90530000D03*
X106300000Y-87990000D03*
X111350000Y-87990000D03*
X106300000Y-85450000D03*
X111350000Y-85450000D03*
X106300000Y-82910000D03*
X111350000Y-82910000D03*
X150650000Y-93070000D03*
X155700000Y-93070000D03*
X150650000Y-90530000D03*
X155700000Y-90530000D03*
X150650000Y-87990000D03*
X155700000Y-87990000D03*
X150650000Y-85450000D03*
X155700000Y-85450000D03*
X150650000Y-82910000D03*
X155700000Y-82910000D03*
D11*
X107920000Y-81290000D03*
D12*
X110460000Y-81290000D03*
X113000000Y-81290000D03*
X115540000Y-81290000D03*
D13*
X156865000Y-94750000D03*
X156865000Y-88970000D03*
D14*
X156365000Y-96180000D03*
D15*
X160545000Y-96180000D03*
D14*
X156365000Y-87540000D03*
D15*
X160545000Y-87540000D03*
D16*
X103000000Y-84000000D03*
D17*
X103000000Y-86540000D03*
D11*
X125215000Y-81260000D03*
D12*
X127755000Y-81260000D03*
X130295000Y-81260000D03*
X132835000Y-81260000D03*
X135375000Y-81260000D03*
D18*
X112304037Y-87262132D03*
D19*
X109617031Y-89949138D03*
D12*
X118460000Y-84960000D03*
X118460000Y-87500000D03*
X118460000Y-90040000D03*
D11*
X118460000Y-92580000D03*
M02*
