%TF.GenerationSoftware,KiCad,Pcbnew,9.0.0*%
%TF.CreationDate,2025-05-10T22:56:34+02:00*%
%TF.ProjectId,CYPD3177_3.3V_V2_+_OLED,43595044-3331-4373-975f-332e33565f56,rev?*%
%TF.SameCoordinates,Original*%
%TF.FileFunction,Copper,L4,Bot*%
%TF.FilePolarity,Positive*%
%FSLAX46Y46*%
G04 Gerber Fmt 4.6, Leading zero omitted, Abs format (unit mm)*
G04 Created by KiCad (PCBNEW 9.0.0) date 2025-05-10 22:56:34*
%MOMM*%
%LPD*%
G01*
G04 APERTURE LIST*
G04 Aperture macros list*
%AMRoundRect*
0 Rectangle with rounded corners*
0 $1 Rounding radius*
0 $2 $3 $4 $5 $6 $7 $8 $9 X,Y pos of 4 corners*
0 Add a 4 corners polygon primitive as box body*
4,1,4,$2,$3,$4,$5,$6,$7,$8,$9,$2,$3,0*
0 Add four circle primitives for the rounded corners*
1,1,$1+$1,$2,$3*
1,1,$1+$1,$4,$5*
1,1,$1+$1,$6,$7*
1,1,$1+$1,$8,$9*
0 Add four rect primitives between the rounded corners*
20,1,$1+$1,$2,$3,$4,$5,0*
20,1,$1+$1,$4,$5,$6,$7,0*
20,1,$1+$1,$6,$7,$8,$9,0*
20,1,$1+$1,$8,$9,$2,$3,0*%
G04 Aperture macros list end*
%TA.AperFunction,SMDPad,CuDef*%
%ADD10R,3.150000X1.000000*%
%TD*%
%TA.AperFunction,ComponentPad*%
%ADD11R,1.700000X1.700000*%
%TD*%
%TA.AperFunction,ComponentPad*%
%ADD12O,1.700000X1.700000*%
%TD*%
%TA.AperFunction,ComponentPad*%
%ADD13C,0.650000*%
%TD*%
%TA.AperFunction,HeatsinkPad*%
%ADD14O,2.100000X1.000000*%
%TD*%
%TA.AperFunction,HeatsinkPad*%
%ADD15O,1.600000X1.000000*%
%TD*%
%TA.AperFunction,ComponentPad*%
%ADD16RoundRect,0.250001X-0.799999X0.799999X-0.799999X-0.799999X0.799999X-0.799999X0.799999X0.799999X0*%
%TD*%
%TA.AperFunction,ComponentPad*%
%ADD17C,2.100000*%
%TD*%
%TA.AperFunction,ComponentPad*%
%ADD18C,1.100000*%
%TD*%
%TA.AperFunction,ComponentPad*%
%ADD19C,0.800000*%
%TD*%
%TA.AperFunction,ViaPad*%
%ADD20C,1.000000*%
%TD*%
%TA.AperFunction,ViaPad*%
%ADD21C,0.400000*%
%TD*%
%TA.AperFunction,ViaPad*%
%ADD22C,0.600000*%
%TD*%
%TA.AperFunction,ViaPad*%
%ADD23C,1.200000*%
%TD*%
%TA.AperFunction,Conductor*%
%ADD24C,0.200000*%
%TD*%
%TA.AperFunction,Conductor*%
%ADD25C,0.150000*%
%TD*%
%TA.AperFunction,Conductor*%
%ADD26C,0.300000*%
%TD*%
G04 APERTURE END LIST*
D10*
X106300000Y-93070000D03*
X111350000Y-93070000D03*
X106300000Y-90530000D03*
X111350000Y-90530000D03*
X106300000Y-87990000D03*
X111350000Y-87990000D03*
X106300000Y-85450000D03*
X111350000Y-85450000D03*
X106300000Y-82910000D03*
X111350000Y-82910000D03*
X150650000Y-93070000D03*
X155700000Y-93070000D03*
X150650000Y-90530000D03*
X155700000Y-90530000D03*
X150650000Y-87990000D03*
X155700000Y-87990000D03*
X150650000Y-85450000D03*
X155700000Y-85450000D03*
X150650000Y-82910000D03*
X155700000Y-82910000D03*
D11*
X107920000Y-81290000D03*
D12*
X110460000Y-81290000D03*
X113000000Y-81290000D03*
X115540000Y-81290000D03*
D13*
X156865000Y-94750000D03*
X156865000Y-88970000D03*
D14*
X156365000Y-96180000D03*
D15*
X160545000Y-96180000D03*
D14*
X156365000Y-87540000D03*
D15*
X160545000Y-87540000D03*
D16*
X103000000Y-84000000D03*
D17*
X103000000Y-86540000D03*
D11*
X125215000Y-81260000D03*
D12*
X127755000Y-81260000D03*
X130295000Y-81260000D03*
X132835000Y-81260000D03*
X135375000Y-81260000D03*
D18*
X112304037Y-87262132D03*
D19*
X109617031Y-89949138D03*
D12*
X118460000Y-84960000D03*
X118460000Y-87500000D03*
X118460000Y-90040000D03*
D11*
X118460000Y-92580000D03*
D20*
X106300000Y-93070000D03*
X106300000Y-90510000D03*
X106280000Y-85450000D03*
D21*
X154240000Y-94650000D03*
X154003035Y-93981874D03*
X148530000Y-89330000D03*
D20*
X106300000Y-82910000D03*
X106310000Y-88000000D03*
X111340000Y-90530000D03*
D21*
X110470000Y-94670000D03*
X113662136Y-92256388D03*
D22*
X108153320Y-91412849D03*
D20*
X111340000Y-85440000D03*
X110620000Y-87990000D03*
D21*
X139140000Y-95880000D03*
X114540000Y-92190000D03*
X138888724Y-91017295D03*
X138264000Y-88279182D03*
X109404899Y-85070101D03*
X103370000Y-93590000D03*
X105000000Y-94500000D03*
X143548616Y-94279646D03*
X143438635Y-93687500D03*
D20*
X139690000Y-81450000D03*
X141990000Y-81480000D03*
D22*
X113767748Y-85798421D03*
D21*
X114970000Y-93980000D03*
X123000000Y-87990000D03*
X121400000Y-83440000D03*
X122180000Y-95620000D03*
X126009718Y-91647955D03*
X124460000Y-91030000D03*
X126760000Y-94480000D03*
X132660000Y-92970000D03*
X154240000Y-95670000D03*
X151700000Y-94347500D03*
X143490000Y-96070000D03*
D22*
X117970000Y-81390000D03*
X116075000Y-88150000D03*
X146100000Y-96190000D03*
D20*
X142000000Y-84175000D03*
X139700000Y-84175000D03*
D21*
X135395314Y-91100314D03*
X136400000Y-91730000D03*
X135410000Y-93970000D03*
X136720000Y-92800000D03*
D20*
X130080000Y-91990000D03*
X140700000Y-92937500D03*
D21*
X136680000Y-90825000D03*
D22*
X137590000Y-95690000D03*
D21*
X145530000Y-91670000D03*
X145510000Y-94580000D03*
D22*
X149290000Y-89120000D03*
D21*
X144200000Y-82500000D03*
X127760000Y-90610000D03*
X137680000Y-92800000D03*
X120380000Y-83440000D03*
X124420000Y-85139000D03*
D20*
X122420000Y-93160000D03*
X158376000Y-93710000D03*
X158230000Y-90070000D03*
D21*
X129670000Y-86470000D03*
X129550000Y-87460000D03*
X125180000Y-85740000D03*
D22*
X122350000Y-86990000D03*
D23*
X160950000Y-83675000D03*
D21*
X133747262Y-91500027D03*
D22*
X153690000Y-85912500D03*
D21*
X153327000Y-92000000D03*
X154100000Y-81090000D03*
D20*
X158210000Y-88950000D03*
D21*
X146550000Y-90500000D03*
D20*
X158270000Y-94910000D03*
D22*
X123000000Y-87030000D03*
X129700000Y-84290000D03*
X128400000Y-84250000D03*
X125400000Y-87755200D03*
D20*
X135040000Y-86560000D03*
X133280000Y-86510000D03*
X132160000Y-95870000D03*
X123820000Y-93112500D03*
X130920000Y-95850000D03*
X123820000Y-96087500D03*
X125540000Y-96090000D03*
D21*
X132500000Y-92100000D03*
D22*
X111800000Y-95950000D03*
D21*
X134425000Y-96100000D03*
X133550000Y-89660000D03*
X115780000Y-93240000D03*
X119160000Y-88730000D03*
X138340000Y-91260000D03*
X154446832Y-91876085D03*
X153570000Y-90490000D03*
X115780000Y-92270000D03*
X140353300Y-95897737D03*
X143050000Y-86310000D03*
X150850000Y-94150000D03*
X144150000Y-89350000D03*
X120161000Y-89620000D03*
X132750000Y-91554564D03*
X132120000Y-90110000D03*
X140980000Y-95860000D03*
X132560000Y-89690000D03*
X134740000Y-90340000D03*
X124880000Y-89965000D03*
X143840000Y-91970000D03*
X143725000Y-90866479D03*
X127190000Y-96520000D03*
X142880000Y-95050000D03*
X144270000Y-91400000D03*
X148980000Y-95150000D03*
X145530000Y-92690000D03*
X135300000Y-89990000D03*
X127560000Y-94890000D03*
X128940000Y-96260000D03*
X141646446Y-95906446D03*
X145500000Y-93560000D03*
X126270000Y-88660000D03*
X142800000Y-90650000D03*
X139700000Y-88500000D03*
X147450000Y-85490000D03*
X147930000Y-89360000D03*
X138210000Y-94900000D03*
X129500000Y-95560000D03*
D24*
X157183085Y-91876085D02*
X154446832Y-91876085D01*
X157576000Y-93871000D02*
X157576000Y-92269000D01*
X157465126Y-93981874D02*
X157576000Y-93871000D01*
X154003035Y-93981874D02*
X157465126Y-93981874D01*
X157576000Y-92269000D02*
X157183085Y-91876085D01*
X153940000Y-94650000D02*
X154240000Y-94650000D01*
X153623190Y-94333190D02*
X153940000Y-94650000D01*
X153615390Y-94333190D02*
X153623190Y-94333190D01*
D25*
X133961000Y-82386000D02*
X132835000Y-81260000D01*
X139986570Y-82386000D02*
X133961000Y-82386000D01*
X141668570Y-80704000D02*
X139986570Y-82386000D01*
X148904852Y-83686000D02*
X145922852Y-80704000D01*
X151513000Y-83686000D02*
X148904852Y-83686000D01*
X152570000Y-87351148D02*
X152570000Y-84743000D01*
X145922852Y-80704000D02*
X141668570Y-80704000D01*
X152576000Y-87357148D02*
X152570000Y-87351148D01*
X152570000Y-88088852D02*
X152576000Y-88082852D01*
X152570000Y-84743000D02*
X151513000Y-83686000D01*
X152570000Y-89486834D02*
X152570000Y-88088852D01*
X152746000Y-89662834D02*
X152570000Y-89486834D01*
X152746000Y-90057166D02*
X152746000Y-89662834D01*
X152501000Y-94219666D02*
X152501000Y-90302166D01*
X148782834Y-95626000D02*
X151094666Y-95626000D01*
X148682834Y-95526000D02*
X148782834Y-95626000D01*
X152501000Y-90302166D02*
X152746000Y-90057166D01*
X152576000Y-88082852D02*
X152576000Y-87357148D01*
X144794970Y-95526000D02*
X148682834Y-95526000D01*
X143548616Y-94279646D02*
X144794970Y-95526000D01*
X151094666Y-95626000D02*
X152501000Y-94219666D01*
X143072616Y-94053519D02*
X143438635Y-93687500D01*
X143072616Y-94082480D02*
X143072616Y-94053519D01*
X150427054Y-96790000D02*
X145385804Y-96790000D01*
X145385804Y-96790000D02*
X143351450Y-94755646D01*
X152646388Y-94570666D02*
X151445666Y-95771388D01*
X152850000Y-94367054D02*
X152646389Y-94570666D01*
X152852000Y-91451389D02*
X152852000Y-94074278D01*
X152852000Y-91160611D02*
X152852000Y-91451389D01*
X152852000Y-90447554D02*
X152852000Y-91160611D01*
X143351450Y-94755646D02*
X143072616Y-94476812D01*
X152891389Y-90408166D02*
X152891388Y-90408166D01*
X152646389Y-94570666D02*
X152646388Y-94570666D01*
X153097000Y-90202554D02*
X152891389Y-90408166D01*
X153097000Y-90202555D02*
X153097000Y-90202554D01*
X152852000Y-94074278D02*
X152852000Y-94365054D01*
X153097000Y-89911778D02*
X153097000Y-90202555D01*
X153097000Y-89808222D02*
X153097000Y-89911778D01*
X153097000Y-89517446D02*
X153097000Y-89517445D01*
X153097000Y-89517445D02*
X153097000Y-89808222D01*
X152927000Y-89347446D02*
X153097000Y-89517446D01*
X152852000Y-94365055D02*
X152850000Y-94367054D01*
X152927000Y-88228241D02*
X152927000Y-89347446D01*
X152927000Y-87937464D02*
X152927000Y-88228241D01*
X151240054Y-95977000D02*
X150427054Y-96790000D01*
X152927000Y-87502536D02*
X152927000Y-87937464D01*
X143072616Y-94476812D02*
X143072616Y-94082480D01*
X152927000Y-87211759D02*
X152927000Y-87502536D01*
X152927000Y-82560000D02*
X152927000Y-87211759D01*
X152852000Y-94365054D02*
X152852000Y-94365055D01*
X146068240Y-80353000D02*
X150720000Y-80353000D01*
X145777464Y-80353000D02*
X146068240Y-80353000D01*
X152891388Y-90408166D02*
X152852000Y-90447554D01*
X141813958Y-80353000D02*
X145777464Y-80353000D01*
X151445666Y-95771389D02*
X151240055Y-95977000D01*
X141523181Y-80353000D02*
X141813958Y-80353000D01*
X151240055Y-95977000D02*
X151240054Y-95977000D01*
X136282000Y-80353000D02*
X141523181Y-80353000D01*
X150720000Y-80353000D02*
X152927000Y-82560000D01*
X135375000Y-81260000D02*
X136282000Y-80353000D01*
X151445666Y-95771388D02*
X151445666Y-95771389D01*
D26*
X149099232Y-89120000D02*
X149290000Y-89120000D01*
X148390000Y-85280000D02*
X148390000Y-88410768D01*
X144335000Y-81225000D02*
X148390000Y-85280000D01*
X148390000Y-88410768D02*
X149099232Y-89120000D01*
D24*
X148068521Y-90500000D02*
X146550000Y-90500000D01*
X148847521Y-89721000D02*
X148068521Y-90500000D01*
X151089000Y-89721000D02*
X148847521Y-89721000D01*
X151700000Y-89110000D02*
X151089000Y-89721000D01*
X148530000Y-89468521D02*
X148530000Y-89330000D01*
X148108521Y-89890000D02*
X148530000Y-89468521D01*
X147290000Y-89890000D02*
X148108521Y-89890000D01*
X139890000Y-88690000D02*
X139700000Y-88500000D01*
X146910000Y-88690000D02*
X139890000Y-88690000D01*
X147580000Y-89360000D02*
X146910000Y-88690000D01*
X147580000Y-89360000D02*
X147450000Y-89230000D01*
X147450000Y-89230000D02*
X147450000Y-85490000D01*
X147930000Y-89360000D02*
X147580000Y-89360000D01*
X146683900Y-91780900D02*
X146683900Y-91201000D01*
X149053000Y-94150000D02*
X146683900Y-91780900D01*
X150850000Y-94150000D02*
X149053000Y-94150000D01*
X138488521Y-94470000D02*
X138925563Y-94470000D01*
X138002479Y-94399000D02*
X138417521Y-94399000D01*
X138417521Y-94399000D02*
X138488521Y-94470000D01*
X134994200Y-94470000D02*
X137931479Y-94470000D01*
X134668200Y-94144000D02*
X134994200Y-94470000D01*
X129755800Y-94470000D02*
X130081800Y-94144000D01*
X129697100Y-94470000D02*
X129755800Y-94470000D01*
X128375100Y-95792000D02*
X129697100Y-94470000D01*
X125593900Y-94913900D02*
X126472000Y-95792000D01*
X137931479Y-94470000D02*
X138002479Y-94399000D01*
X114120000Y-96551000D02*
X115757100Y-94913900D01*
X126472000Y-95792000D02*
X128375100Y-95792000D01*
X115757100Y-94913900D02*
X125593900Y-94913900D01*
X138925563Y-94470000D02*
X140353300Y-95897737D01*
X111199000Y-95701000D02*
X111199000Y-96198943D01*
X111551057Y-96551000D02*
X114120000Y-96551000D01*
X113662136Y-93237864D02*
X111199000Y-95701000D01*
X130081800Y-94144000D02*
X134668200Y-94144000D01*
X111199000Y-96198943D02*
X111551057Y-96551000D01*
X113662136Y-92256388D02*
X113662136Y-93237864D01*
X124592000Y-82939000D02*
X132859000Y-82939000D01*
X122103000Y-80450000D02*
X124592000Y-82939000D01*
X109309000Y-81223240D02*
X110082240Y-80450000D01*
X109309000Y-84974202D02*
X109309000Y-81223240D01*
X109404899Y-85070101D02*
X109309000Y-84974202D01*
X110082240Y-80450000D02*
X122103000Y-80450000D01*
X138199182Y-88279182D02*
X132859000Y-82939000D01*
X138264000Y-88279182D02*
X138199182Y-88279182D01*
X142844379Y-91970000D02*
X143840000Y-91970000D01*
X142426379Y-91552000D02*
X142844379Y-91970000D01*
X141377379Y-90503000D02*
X142191479Y-91317100D01*
X139065379Y-90503000D02*
X141377379Y-90503000D01*
X138733179Y-90503000D02*
X139065379Y-90503000D01*
X142191479Y-91317100D02*
X142426379Y-91552000D01*
X138650179Y-90420000D02*
X138733179Y-90503000D01*
X135920000Y-90078521D02*
X138308700Y-90078521D01*
X135507521Y-90491000D02*
X135920000Y-90078521D01*
X134891000Y-90491000D02*
X135507521Y-90491000D01*
X134740000Y-90340000D02*
X134891000Y-90491000D01*
X138308700Y-90078521D02*
X138498279Y-90268100D01*
X138498279Y-90268100D02*
X138650179Y-90420000D01*
X104090000Y-93590000D02*
X105000000Y-94500000D01*
X103370000Y-93590000D02*
X104090000Y-93590000D01*
X120775000Y-84065000D02*
X121400000Y-83440000D01*
X120775000Y-86895000D02*
X120775000Y-84065000D01*
X125601100Y-89371000D02*
X123251000Y-89371000D01*
X137957279Y-89160000D02*
X125812100Y-89160000D01*
X138899279Y-90102000D02*
X137957279Y-89160000D01*
X123251000Y-89371000D02*
X120775000Y-86895000D01*
X141543479Y-90102000D02*
X138899279Y-90102000D01*
X142592479Y-91151000D02*
X141543479Y-90102000D01*
X125812100Y-89160000D02*
X125601100Y-89371000D01*
X143440479Y-91151000D02*
X142592479Y-91151000D01*
X143725000Y-90866479D02*
X143440479Y-91151000D01*
D26*
X116570000Y-88150000D02*
X116075000Y-88150000D01*
X118460000Y-90040000D02*
X116570000Y-88150000D01*
D24*
X117309000Y-91830000D02*
X116220000Y-91830000D01*
X116220000Y-91830000D02*
X115780000Y-92270000D01*
X117309000Y-91429000D02*
X117309000Y-91830000D01*
X119611000Y-91429000D02*
X117309000Y-91429000D01*
X123449714Y-92350000D02*
X119611000Y-92350000D01*
X123488214Y-92311500D02*
X123449714Y-92350000D01*
X124151786Y-92311500D02*
X123488214Y-92311500D01*
X119611000Y-92350000D02*
X119611000Y-91429000D01*
X127760000Y-90680000D02*
X126090000Y-92350000D01*
X127760000Y-90610000D02*
X127760000Y-90680000D01*
X124190286Y-92350000D02*
X124151786Y-92311500D01*
X126090000Y-92350000D02*
X124190286Y-92350000D01*
X125560000Y-94510000D02*
X115492142Y-94510000D01*
X125562900Y-94512900D02*
X125560000Y-94510000D01*
X125760000Y-94512900D02*
X125562900Y-94512900D01*
X125994900Y-94747800D02*
X125760000Y-94512900D01*
X126638100Y-95391000D02*
X125994900Y-94747800D01*
X128209000Y-95391000D02*
X126638100Y-95391000D01*
X129296100Y-94303900D02*
X128209000Y-95391000D01*
X129531000Y-94069000D02*
X129296100Y-94303900D01*
X115492142Y-94510000D02*
X114052142Y-95950000D01*
X129857000Y-93743000D02*
X129531000Y-94069000D01*
X114052142Y-95950000D02*
X111800000Y-95950000D01*
X129915700Y-93743000D02*
X129857000Y-93743000D01*
X130247900Y-93743000D02*
X129915700Y-93743000D01*
X131527000Y-93743000D02*
X130247900Y-93743000D01*
X131950000Y-93320000D02*
X131527000Y-93743000D01*
X131950000Y-92650000D02*
X131950000Y-93320000D01*
X132500000Y-92100000D02*
X131950000Y-92650000D01*
X133425436Y-92230000D02*
X132750000Y-91554564D01*
X138050000Y-92230000D02*
X133425436Y-92230000D01*
X140980000Y-95160000D02*
X138050000Y-92230000D01*
X140980000Y-95860000D02*
X140980000Y-95160000D01*
X138190000Y-94920000D02*
X138210000Y-94900000D01*
X134877100Y-94920000D02*
X138190000Y-94920000D01*
X134737000Y-94779900D02*
X134877100Y-94920000D01*
X134502100Y-94545000D02*
X134737000Y-94779900D01*
X134169900Y-94545000D02*
X134502100Y-94545000D01*
X130013000Y-94779900D02*
X130247900Y-94545000D01*
X129872900Y-94920000D02*
X130013000Y-94779900D01*
X130247900Y-94545000D02*
X130580100Y-94545000D01*
X129833900Y-94959000D02*
X129872900Y-94920000D01*
X129599000Y-95193900D02*
X129833900Y-94959000D01*
X129500000Y-95292900D02*
X129599000Y-95193900D01*
X129500000Y-95560000D02*
X129500000Y-95292900D01*
X130580100Y-94545000D02*
X134169900Y-94545000D01*
X128142900Y-94890000D02*
X127560000Y-94890000D01*
X129456000Y-93576900D02*
X129221100Y-93811800D01*
X129690900Y-93342000D02*
X129456000Y-93576900D01*
X130023100Y-93342000D02*
X129690900Y-93342000D01*
X130355300Y-93342000D02*
X130023100Y-93342000D01*
X131128000Y-93342000D02*
X130355300Y-93342000D01*
X131481000Y-92989000D02*
X131128000Y-93342000D01*
X132568000Y-91012000D02*
X132168000Y-91012000D01*
X132168000Y-91012000D02*
X131481000Y-91699000D01*
X133419000Y-90161000D02*
X132568000Y-91012000D01*
X129221100Y-93811800D02*
X128142900Y-94890000D01*
X133809000Y-90161000D02*
X133419000Y-90161000D01*
X131481000Y-91699000D02*
X131481000Y-92989000D01*
X134160000Y-89810000D02*
X133809000Y-90161000D01*
X135120000Y-89810000D02*
X134160000Y-89810000D01*
X135300000Y-89990000D02*
X135120000Y-89810000D01*
X146502900Y-91020000D02*
X146683900Y-91201000D01*
X139231479Y-89300000D02*
X143400000Y-89300000D01*
X138814000Y-88882521D02*
X139231479Y-89300000D01*
X143400000Y-89300000D02*
X143400000Y-89308521D01*
X138814000Y-88467479D02*
X138814000Y-88882521D01*
X145111479Y-91020000D02*
X146502900Y-91020000D01*
X140971479Y-86310000D02*
X138814000Y-88467479D01*
X143050000Y-86310000D02*
X140971479Y-86310000D01*
X143400000Y-89308521D02*
X145111479Y-91020000D01*
X145371479Y-95150000D02*
X148980000Y-95150000D01*
X144440000Y-94218521D02*
X145371479Y-95150000D01*
X144440000Y-91570000D02*
X144440000Y-94218521D01*
X144270000Y-91400000D02*
X144440000Y-91570000D01*
D26*
X144335000Y-81225000D02*
X142000000Y-81225000D01*
D24*
X151700000Y-89110000D02*
X151700000Y-87720000D01*
X125996300Y-90110000D02*
X132120000Y-90110000D01*
X125975200Y-90131100D02*
X125996300Y-90110000D01*
X125740300Y-90366000D02*
X125975200Y-90131100D01*
X125408100Y-90366000D02*
X125740300Y-90366000D01*
X125187521Y-90366000D02*
X125408100Y-90366000D01*
X124672479Y-90466000D02*
X125087521Y-90466000D01*
X124379000Y-90172521D02*
X124672479Y-90466000D01*
X120435000Y-90110000D02*
X124379000Y-90110000D01*
X125087521Y-90466000D02*
X125187521Y-90366000D01*
X120161000Y-89836000D02*
X120435000Y-90110000D01*
X120161000Y-89620000D02*
X120161000Y-89836000D01*
X124379000Y-90110000D02*
X124379000Y-90172521D01*
X132479000Y-89609000D02*
X132560000Y-89690000D01*
X124880000Y-89965000D02*
X125574200Y-89965000D01*
X125574200Y-89965000D02*
X125930200Y-89609000D01*
X125930200Y-89609000D02*
X132479000Y-89609000D01*
X141851000Y-89701000D02*
X142800000Y-90650000D01*
X139065379Y-89701000D02*
X141851000Y-89701000D01*
X138123379Y-88759000D02*
X139065379Y-89701000D01*
X126369000Y-88759000D02*
X138123379Y-88759000D01*
X126270000Y-88660000D02*
X126369000Y-88759000D01*
X128199000Y-85139000D02*
X124420000Y-85139000D01*
X129530000Y-86470000D02*
X128199000Y-85139000D01*
X129670000Y-86470000D02*
X129530000Y-86470000D01*
X127830000Y-85740000D02*
X125180000Y-85740000D01*
X129550000Y-87460000D02*
X127830000Y-85740000D01*
X127190000Y-96520000D02*
X127469000Y-96799000D01*
X127469000Y-96799000D02*
X141461000Y-96799000D01*
X142880000Y-95380000D02*
X142880000Y-95050000D01*
X141461000Y-96799000D02*
X142880000Y-95380000D01*
X134336000Y-94946000D02*
X135788000Y-96398000D01*
X129508521Y-96260000D02*
X130000000Y-95768521D01*
X129508521Y-96260000D02*
X128940000Y-96260000D01*
X135788000Y-96398000D02*
X141154892Y-96398000D01*
X130000000Y-95768521D02*
X130000000Y-95360000D01*
X130414000Y-94946000D02*
X134336000Y-94946000D01*
X141154892Y-96398000D02*
X141646446Y-95906446D01*
X130000000Y-95360000D02*
X130414000Y-94946000D01*
X122751786Y-93961000D02*
X122892786Y-93820000D01*
X115780000Y-93240000D02*
X116360000Y-93820000D01*
X116360000Y-93820000D02*
X121947214Y-93820000D01*
X122088214Y-93961000D02*
X122751786Y-93961000D01*
X123488214Y-93913500D02*
X124151786Y-93913500D01*
X121947214Y-93820000D02*
X122088214Y-93961000D01*
X122892786Y-93820000D02*
X123394714Y-93820000D01*
X124151786Y-93913500D02*
X124208286Y-93970000D01*
X123394714Y-93820000D02*
X123488214Y-93913500D01*
X124208286Y-93970000D02*
X128495800Y-93970000D01*
X130819000Y-92941000D02*
X131080000Y-92680000D01*
X128495800Y-93970000D02*
X129524800Y-92941000D01*
X129524800Y-92941000D02*
X130819000Y-92941000D01*
X131080000Y-92680000D02*
X131080000Y-91532900D01*
X131080000Y-91532900D02*
X132001900Y-90611000D01*
X132001900Y-90611000D02*
X132347521Y-90611000D01*
X132347521Y-90611000D02*
X133298521Y-89660000D01*
X133298521Y-89660000D02*
X133550000Y-89660000D01*
X146750000Y-89350000D02*
X144150000Y-89350000D01*
X147290000Y-89890000D02*
X146750000Y-89350000D01*
X153570000Y-90490000D02*
X153570000Y-91534479D01*
X153828000Y-91792479D02*
X153828000Y-92269000D01*
X153321911Y-92775089D02*
X153321911Y-94039711D01*
X153321911Y-94039711D02*
X153615390Y-94333190D01*
X153828000Y-92269000D02*
X153321911Y-92775089D01*
X153570000Y-91534479D02*
X153828000Y-91792479D01*
%TA.AperFunction,Conductor*%
G36*
X112787578Y-82762703D02*
G01*
X112854361Y-82783239D01*
X112899441Y-82836621D01*
X112910000Y-82886693D01*
X112910000Y-86412148D01*
X112890315Y-86479187D01*
X112837511Y-86524942D01*
X112768353Y-86534886D01*
X112717113Y-86515253D01*
X112706897Y-86508427D01*
X112552119Y-86444316D01*
X112552111Y-86444314D01*
X112387808Y-86411632D01*
X112387804Y-86411632D01*
X112220270Y-86411632D01*
X112220265Y-86411632D01*
X112055962Y-86444314D01*
X112055954Y-86444316D01*
X111901176Y-86508427D01*
X111761874Y-86601505D01*
X111643410Y-86719969D01*
X111550332Y-86859271D01*
X111486221Y-87014049D01*
X111486219Y-87014057D01*
X111453537Y-87178360D01*
X111453537Y-87345903D01*
X111486219Y-87510206D01*
X111486221Y-87510214D01*
X111550332Y-87664992D01*
X111643410Y-87804294D01*
X111761874Y-87922758D01*
X111854531Y-87984669D01*
X111901174Y-88015835D01*
X112055955Y-88079948D01*
X112217671Y-88112115D01*
X112220265Y-88112631D01*
X112220269Y-88112632D01*
X112220270Y-88112632D01*
X112387805Y-88112632D01*
X112387806Y-88112631D01*
X112552119Y-88079948D01*
X112706900Y-88015835D01*
X112717108Y-88009013D01*
X112783785Y-87988135D01*
X112851166Y-88006619D01*
X112897856Y-88058597D01*
X112910000Y-88112115D01*
X112910000Y-93372243D01*
X112901355Y-93401680D01*
X112894832Y-93431671D01*
X112891076Y-93436687D01*
X112890315Y-93439282D01*
X112873681Y-93459925D01*
X112809332Y-93524273D01*
X112748008Y-93557757D01*
X112722041Y-93560590D01*
X109854390Y-93569608D01*
X109787289Y-93550135D01*
X109741368Y-93497475D01*
X109730000Y-93445609D01*
X109730000Y-90742395D01*
X109749685Y-90675356D01*
X109802489Y-90629601D01*
X109818012Y-90623732D01*
X109821343Y-90622720D01*
X109821359Y-90622718D01*
X109948842Y-90569913D01*
X110063573Y-90493252D01*
X110161145Y-90395680D01*
X110237806Y-90280949D01*
X110290611Y-90153466D01*
X110317531Y-90018131D01*
X110317531Y-89880145D01*
X110317531Y-89880142D01*
X110290612Y-89744815D01*
X110290611Y-89744814D01*
X110290611Y-89744810D01*
X110290609Y-89744805D01*
X110237809Y-89617333D01*
X110237802Y-89617320D01*
X110161145Y-89502596D01*
X110161142Y-89502592D01*
X110063576Y-89405026D01*
X110063572Y-89405023D01*
X109948848Y-89328366D01*
X109948835Y-89328359D01*
X109821359Y-89275557D01*
X109817992Y-89274536D01*
X109816446Y-89273523D01*
X109815732Y-89273227D01*
X109815788Y-89273091D01*
X109759558Y-89236232D01*
X109731108Y-89172417D01*
X109730000Y-89155879D01*
X109730000Y-85950676D01*
X109730006Y-85949411D01*
X109734609Y-85498304D01*
X109754976Y-85431473D01*
X109770918Y-85411895D01*
X109805399Y-85377415D01*
X109871291Y-85263287D01*
X109905399Y-85135993D01*
X109905399Y-85004209D01*
X109871291Y-84876915D01*
X109805399Y-84762787D01*
X109779597Y-84736985D01*
X109746112Y-84675662D01*
X109743285Y-84648049D01*
X109761647Y-82848516D01*
X109782015Y-82781683D01*
X109835283Y-82736469D01*
X109887215Y-82725793D01*
X112787578Y-82762703D01*
G37*
%TD.AperFunction*%
%TA.AperFunction,Conductor*%
G36*
X107495859Y-91350184D02*
G01*
X107541614Y-91402988D01*
X107552820Y-91454499D01*
X107552820Y-91491905D01*
X107593743Y-91644632D01*
X107593746Y-91644639D01*
X107672795Y-91781558D01*
X107672799Y-91781563D01*
X107672800Y-91781565D01*
X107784604Y-91893369D01*
X107807998Y-91906875D01*
X107816281Y-91915562D01*
X107827203Y-91920550D01*
X107839947Y-91940381D01*
X107856214Y-91957440D01*
X107859430Y-91970697D01*
X107864977Y-91979328D01*
X107870000Y-92014263D01*
X107870000Y-92145500D01*
X107850315Y-92212539D01*
X107797511Y-92258294D01*
X107746000Y-92269500D01*
X107001327Y-92269500D01*
X106977136Y-92267117D01*
X106961291Y-92263965D01*
X106938843Y-92259500D01*
X106938842Y-92259500D01*
X106781158Y-92259500D01*
X106742864Y-92267117D01*
X106742859Y-92267118D01*
X106718669Y-92269500D01*
X104855232Y-92269500D01*
X104788193Y-92249815D01*
X104742438Y-92197011D01*
X104731232Y-92145392D01*
X104731852Y-91454385D01*
X104751597Y-91387366D01*
X104804442Y-91341658D01*
X104855847Y-91330499D01*
X107428820Y-91330499D01*
X107495859Y-91350184D01*
G37*
%TD.AperFunction*%
%TA.AperFunction,Conductor*%
G36*
X105516724Y-88790500D02*
G01*
X105531158Y-88790500D01*
X105713505Y-88790500D01*
X105713509Y-88790499D01*
X107746000Y-88790499D01*
X107813039Y-88810184D01*
X107858794Y-88862988D01*
X107870000Y-88914499D01*
X107870000Y-89605500D01*
X107850315Y-89672539D01*
X107797511Y-89718294D01*
X107746000Y-89729500D01*
X106441331Y-89729500D01*
X106417141Y-89727118D01*
X106378842Y-89719500D01*
X106221158Y-89719500D01*
X106182857Y-89727118D01*
X106158668Y-89729500D01*
X104857510Y-89729500D01*
X104790471Y-89709815D01*
X104744716Y-89657011D01*
X104733510Y-89605393D01*
X104734130Y-88914385D01*
X104753875Y-88847366D01*
X104806720Y-88801658D01*
X104858126Y-88790499D01*
X105516716Y-88790499D01*
X105516724Y-88790500D01*
G37*
%TD.AperFunction*%
%TA.AperFunction,Conductor*%
G36*
X107813039Y-86270184D02*
G01*
X107858794Y-86322988D01*
X107870000Y-86374499D01*
X107870000Y-87065500D01*
X107850315Y-87132539D01*
X107797511Y-87178294D01*
X107746000Y-87189500D01*
X104859788Y-87189500D01*
X104792749Y-87169815D01*
X104746994Y-87117011D01*
X104735788Y-87065393D01*
X104736408Y-86374385D01*
X104756153Y-86307366D01*
X104808998Y-86261658D01*
X104860403Y-86250499D01*
X107746000Y-86250499D01*
X107813039Y-86270184D01*
G37*
%TD.AperFunction*%
%TA.AperFunction,Conductor*%
G36*
X106441168Y-83710500D02*
G01*
X106451158Y-83710500D01*
X106623276Y-83710500D01*
X106623284Y-83710499D01*
X107746000Y-83710499D01*
X107813039Y-83730184D01*
X107858794Y-83782988D01*
X107870000Y-83834499D01*
X107870000Y-84525500D01*
X107850315Y-84592539D01*
X107797511Y-84638294D01*
X107746000Y-84649500D01*
X104862066Y-84649500D01*
X104795027Y-84629815D01*
X104749272Y-84577011D01*
X104738067Y-84525393D01*
X104738686Y-83834385D01*
X104758431Y-83767366D01*
X104811276Y-83721658D01*
X104862681Y-83710499D01*
X106441156Y-83710499D01*
X106441168Y-83710500D01*
G37*
%TD.AperFunction*%
M02*
