%TF.GenerationSoftware,KiCad,Pcbnew,9.0.0*%
%TF.CreationDate,2025-05-10T22:56:43+02:00*%
%TF.ProjectId,CYPD3177_3.3V_V2_+_OLED,43595044-3331-4373-975f-332e33565f56,rev?*%
%TF.SameCoordinates,Original*%
%TF.FileFunction,Plated,1,4,PTH,Mixed*%
%TF.FilePolarity,Positive*%
%FSLAX46Y46*%
G04 Gerber Fmt 4.6, Leading zero omitted, Abs format (unit mm)*
G04 Created by KiCad (PCBNEW 9.0.0) date 2025-05-10 22:56:43*
%MOMM*%
%LPD*%
G01*
G04 APERTURE LIST*
%TA.AperFunction,ViaDrill*%
%ADD10C,0.200000*%
%TD*%
%TA.AperFunction,ViaDrill*%
%ADD11C,0.300000*%
%TD*%
%TA.AperFunction,ViaDrill*%
%ADD12C,0.500000*%
%TD*%
%TA.AperFunction,ViaDrill*%
%ADD13C,0.600000*%
%TD*%
G04 aperture for slot hole*
%TA.AperFunction,ComponentDrill*%
%ADD14C,0.600000*%
%TD*%
%TA.AperFunction,ComponentDrill*%
%ADD15C,0.650000*%
%TD*%
%TA.AperFunction,ComponentDrill*%
%ADD16C,0.800000*%
%TD*%
%TA.AperFunction,ComponentDrill*%
%ADD17C,1.000000*%
%TD*%
%TA.AperFunction,ComponentDrill*%
%ADD18C,1.100000*%
%TD*%
G04 APERTURE END LIST*
D10*
X103370000Y-93590000D03*
X105000000Y-94500000D03*
X108330000Y-92930000D03*
X109320000Y-92410000D03*
X109404899Y-85070101D03*
X110470000Y-94670000D03*
X113662136Y-92256388D03*
X114540000Y-92190000D03*
X114970000Y-93980000D03*
X115780000Y-92270000D03*
X115780000Y-93240000D03*
X117730000Y-95790000D03*
X118070000Y-96300000D03*
X119160000Y-88730000D03*
X120161000Y-89620000D03*
X120380000Y-83440000D03*
X121400000Y-83440000D03*
X122180000Y-95620000D03*
X123000000Y-87990000D03*
X124420000Y-85139000D03*
X124460000Y-91030000D03*
X124880000Y-89965000D03*
X125180000Y-85740000D03*
X126009718Y-91647955D03*
X126270000Y-88660000D03*
X126760000Y-94480000D03*
X127190000Y-96520000D03*
X127560000Y-94890000D03*
X127760000Y-90610000D03*
X128940000Y-96260000D03*
X129500000Y-95560000D03*
X129550000Y-87460000D03*
X129670000Y-86470000D03*
X132120000Y-90110000D03*
X132500000Y-92100000D03*
X132560000Y-89690000D03*
X132660000Y-92970000D03*
X132750000Y-91554564D03*
X133550000Y-89660000D03*
X133747262Y-91500027D03*
X134425000Y-96100000D03*
X134740000Y-90340000D03*
X135300000Y-89990000D03*
X135395314Y-91100314D03*
X135410000Y-93970000D03*
X136400000Y-91730000D03*
X136680000Y-90825000D03*
X136720000Y-92800000D03*
X137680000Y-92800000D03*
X138210000Y-94900000D03*
X138264000Y-88279182D03*
X138340000Y-91260000D03*
X138888724Y-91017295D03*
X139140000Y-95880000D03*
X139700000Y-88500000D03*
X140353300Y-95897737D03*
X140980000Y-95860000D03*
X141646446Y-95906446D03*
X142800000Y-90650000D03*
X142880000Y-95050000D03*
X143050000Y-86310000D03*
X143438635Y-93687500D03*
X143490000Y-96070000D03*
X143548616Y-94279646D03*
X143725000Y-90866479D03*
X143840000Y-91970000D03*
X144150000Y-89350000D03*
X144200000Y-82500000D03*
X144270000Y-91400000D03*
X145500000Y-93560000D03*
X145510000Y-94580000D03*
X145530000Y-91670000D03*
X145530000Y-92690000D03*
X146550000Y-90500000D03*
X147450000Y-85490000D03*
X147930000Y-89360000D03*
X148530000Y-89330000D03*
X148980000Y-95150000D03*
X150850000Y-94150000D03*
X151700000Y-94347500D03*
X153327000Y-92000000D03*
X153570000Y-90490000D03*
X154003035Y-93981874D03*
X154100000Y-81090000D03*
X154240000Y-94650000D03*
X154240000Y-95670000D03*
X154446832Y-91876085D03*
D11*
X108153320Y-91412849D03*
X111800000Y-95950000D03*
X113767748Y-85798421D03*
X116075000Y-88150000D03*
X117970000Y-81390000D03*
X122350000Y-86990000D03*
X123000000Y-87030000D03*
X125400000Y-87755200D03*
X128400000Y-84250000D03*
X129700000Y-84290000D03*
X137590000Y-95690000D03*
X146100000Y-96190000D03*
X149290000Y-89120000D03*
X153690000Y-85912500D03*
D12*
X106300000Y-82910000D03*
X110620000Y-87990000D03*
X111340000Y-85440000D03*
X111340000Y-90530000D03*
X122420000Y-93160000D03*
X123820000Y-93112500D03*
X123820000Y-96087500D03*
X125540000Y-96090000D03*
X130080000Y-91990000D03*
X130920000Y-95850000D03*
X132160000Y-95870000D03*
X133280000Y-86510000D03*
X135040000Y-86560000D03*
X139690000Y-81450000D03*
X139700000Y-84175000D03*
X140700000Y-92937500D03*
X141990000Y-81480000D03*
X142000000Y-84175000D03*
X158210000Y-88950000D03*
X158230000Y-90070000D03*
X158270000Y-94910000D03*
X158376000Y-93710000D03*
D13*
X160950000Y-83675000D03*
D14*
%TO.C,J1*%
X156915000Y-87540000D02*
X155815000Y-87540000D01*
X156915000Y-96180000D02*
X155815000Y-96180000D01*
X160845000Y-87540000D02*
X160245000Y-87540000D01*
X160845000Y-96180000D02*
X160245000Y-96180000D01*
D15*
X156865000Y-88970000D03*
X156865000Y-94750000D03*
D16*
%TO.C,SW1*%
X109617031Y-89949138D03*
D17*
%TO.C,J8*%
X107920000Y-81290000D03*
X110460000Y-81290000D03*
X113000000Y-81290000D03*
X115540000Y-81290000D03*
%TO.C,J5*%
X118460000Y-84960000D03*
X118460000Y-87500000D03*
X118460000Y-90040000D03*
X118460000Y-92580000D03*
%TO.C,J7*%
X125215000Y-81260000D03*
X127755000Y-81260000D03*
X130295000Y-81260000D03*
X132835000Y-81260000D03*
X135375000Y-81260000D03*
D18*
%TO.C,J2*%
X103000000Y-84000000D03*
X103000000Y-86540000D03*
%TO.C,SW1*%
X112304037Y-87262132D03*
M02*
