%TF.GenerationSoftware,KiCad,Pcbnew,9.0.0*%
%TF.CreationDate,2025-05-20T00:09:53+02:00*%
%TF.ProjectId,CYPD3177_3.3V_V2_+_OLED,43595044-3331-4373-975f-332e33565f56,rev?*%
%TF.SameCoordinates,Original*%
%TF.FileFunction,Copper,L4,Bot*%
%TF.FilePolarity,Positive*%
%FSLAX46Y46*%
G04 Gerber Fmt 4.6, Leading zero omitted, Abs format (unit mm)*
G04 Created by KiCad (PCBNEW 9.0.0) date 2025-05-20 00:09:53*
%MOMM*%
%LPD*%
G01*
G04 APERTURE LIST*
G04 Aperture macros list*
%AMRoundRect*
0 Rectangle with rounded corners*
0 $1 Rounding radius*
0 $2 $3 $4 $5 $6 $7 $8 $9 X,Y pos of 4 corners*
0 Add a 4 corners polygon primitive as box body*
4,1,4,$2,$3,$4,$5,$6,$7,$8,$9,$2,$3,0*
0 Add four circle primitives for the rounded corners*
1,1,$1+$1,$2,$3*
1,1,$1+$1,$4,$5*
1,1,$1+$1,$6,$7*
1,1,$1+$1,$8,$9*
0 Add four rect primitives between the rounded corners*
20,1,$1+$1,$2,$3,$4,$5,0*
20,1,$1+$1,$4,$5,$6,$7,0*
20,1,$1+$1,$6,$7,$8,$9,0*
20,1,$1+$1,$8,$9,$2,$3,0*%
G04 Aperture macros list end*
%TA.AperFunction,ComponentPad*%
%ADD10R,1.700000X1.700000*%
%TD*%
%TA.AperFunction,ComponentPad*%
%ADD11O,1.700000X1.700000*%
%TD*%
%TA.AperFunction,ComponentPad*%
%ADD12C,0.650000*%
%TD*%
%TA.AperFunction,HeatsinkPad*%
%ADD13O,2.100000X1.000000*%
%TD*%
%TA.AperFunction,HeatsinkPad*%
%ADD14O,1.600000X1.000000*%
%TD*%
%TA.AperFunction,ComponentPad*%
%ADD15RoundRect,0.250001X-0.799999X0.799999X-0.799999X-0.799999X0.799999X-0.799999X0.799999X0.799999X0*%
%TD*%
%TA.AperFunction,ComponentPad*%
%ADD16C,2.100000*%
%TD*%
%TA.AperFunction,ComponentPad*%
%ADD17C,1.100000*%
%TD*%
%TA.AperFunction,ComponentPad*%
%ADD18C,0.800000*%
%TD*%
%TA.AperFunction,SMDPad,CuDef*%
%ADD19R,3.150000X1.000000*%
%TD*%
%TA.AperFunction,ViaPad*%
%ADD20C,0.450000*%
%TD*%
%TA.AperFunction,ViaPad*%
%ADD21C,1.000000*%
%TD*%
%TA.AperFunction,ViaPad*%
%ADD22C,0.600000*%
%TD*%
%TA.AperFunction,Conductor*%
%ADD23C,0.200000*%
%TD*%
%TA.AperFunction,Conductor*%
%ADD24C,0.150000*%
%TD*%
%TA.AperFunction,Conductor*%
%ADD25C,0.300000*%
%TD*%
G04 APERTURE END LIST*
D10*
%TO.P,J8,1,Pin_1*%
%TO.N,+3.3V*%
X107920000Y-81290000D03*
D11*
%TO.P,J8,2,Pin_2*%
%TO.N,GND*%
X110460000Y-81290000D03*
%TO.P,J8,3,Pin_3*%
%TO.N,/Logic/SCL_3.3v*%
X113000000Y-81290000D03*
%TO.P,J8,4,Pin_4*%
%TO.N,/Logic/SDA_3.3v*%
X115540000Y-81290000D03*
%TD*%
D10*
%TO.P,J5,1,Pin_1*%
%TO.N,+5V*%
X118500000Y-92700000D03*
D11*
%TO.P,J5,2,Pin_2*%
%TO.N,GND*%
X118500000Y-90160000D03*
%TO.P,J5,3,Pin_3*%
%TO.N,/Logic/SCL*%
X118500000Y-87620000D03*
%TO.P,J5,4,Pin_4*%
%TO.N,/Logic/SDA*%
X118500000Y-85080000D03*
%TD*%
D12*
%TO.P,J1,A4,VBUS*%
%TO.N,/Power/VBUS*%
X156865000Y-94750000D03*
%TO.P,J1,A9,VBUS*%
X156865000Y-88970000D03*
D13*
%TO.P,J1,S1,SHIELD*%
%TO.N,GND*%
X156365000Y-96180000D03*
D14*
X160545000Y-96180000D03*
D13*
X156365000Y-87540000D03*
D14*
X160545000Y-87540000D03*
%TD*%
D15*
%TO.P,J2,1,Pin_1*%
%TO.N,GND*%
X103000000Y-84000000D03*
D16*
%TO.P,J2,2,Pin_2*%
%TO.N,/Logic/Rail_2*%
X103000000Y-86540000D03*
%TD*%
D10*
%TO.P,J7,1,Pin_1*%
%TO.N,/Logic/UPDI*%
X125215000Y-81260000D03*
D11*
%TO.P,J7,2,Pin_2*%
%TO.N,+5V*%
X127755000Y-81260000D03*
%TO.P,J7,3,Pin_3*%
%TO.N,GND*%
X130295000Y-81260000D03*
%TO.P,J7,4,Pin_4*%
%TO.N,/Logic/RX*%
X132835000Y-81260000D03*
%TO.P,J7,5,Pin_5*%
%TO.N,/Logic/TX*%
X135375000Y-81260000D03*
%TD*%
D17*
%TO.P,SW1,*%
%TO.N,*%
X112303503Y-87246497D03*
D18*
X109616497Y-89933503D03*
%TD*%
D19*
%TO.P,J4,1,Pin_1*%
%TO.N,/Logic/Rail_2*%
X106300000Y-93070000D03*
%TO.P,J4,2,Pin_2*%
%TO.N,GND*%
X111350000Y-93070000D03*
%TO.P,J4,3,Pin_3*%
%TO.N,/Logic/Rail_2*%
X106300000Y-90530000D03*
%TO.P,J4,4,Pin_4*%
%TO.N,GND*%
X111350000Y-90530000D03*
%TO.P,J4,5,Pin_5*%
%TO.N,/Logic/Rail_2*%
X106300000Y-87990000D03*
%TO.P,J4,6,Pin_6*%
%TO.N,GND*%
X111350000Y-87990000D03*
%TO.P,J4,7,Pin_7*%
%TO.N,/Logic/Rail_2*%
X106300000Y-85450000D03*
%TO.P,J4,8,Pin_8*%
%TO.N,GND*%
X111350000Y-85450000D03*
%TO.P,J4,9,Pin_9*%
%TO.N,/Logic/Rail_2*%
X106300000Y-82910000D03*
%TO.P,J4,10,Pin_10*%
%TO.N,GND*%
X111350000Y-82910000D03*
%TD*%
%TO.P,J3,1,Pin_1*%
%TO.N,/Power/VBUS_Finale*%
X150650000Y-93070000D03*
%TO.P,J3,2,Pin_2*%
%TO.N,GND*%
X155700000Y-93070000D03*
%TO.P,J3,3,Pin_3*%
%TO.N,/Power/VBUS_Finale*%
X150650000Y-90530000D03*
%TO.P,J3,4,Pin_4*%
%TO.N,GND*%
X155700000Y-90530000D03*
%TO.P,J3,5,Pin_5*%
%TO.N,/Power/VBUS_Finale*%
X150650000Y-87990000D03*
%TO.P,J3,6,Pin_6*%
%TO.N,GND*%
X155700000Y-87990000D03*
%TO.P,J3,7,Pin_7*%
%TO.N,/Power/VBUS_Finale*%
X150650000Y-85450000D03*
%TO.P,J3,8,Pin_8*%
%TO.N,GND*%
X155700000Y-85450000D03*
%TO.P,J3,9,Pin_9*%
%TO.N,/Power/VBUS_Finale*%
X150650000Y-82910000D03*
%TO.P,J3,10,Pin_10*%
%TO.N,GND*%
X155700000Y-82910000D03*
%TD*%
D20*
%TO.N,/Logic/UPDI*%
X135552415Y-88597585D03*
%TO.N,/Logic/Buck_Status*%
X141838905Y-96168203D03*
X153800000Y-81700000D03*
%TO.N,GND*%
X104500000Y-91500000D03*
D21*
X155700000Y-82080000D03*
D22*
X139850000Y-92687500D03*
X111350000Y-93070000D03*
D20*
X135680000Y-91770000D03*
D22*
X129750000Y-92050000D03*
X141600000Y-93200000D03*
D21*
X110620000Y-87990000D03*
D20*
X127690000Y-90530000D03*
D21*
X155700000Y-85450000D03*
X130600000Y-91850000D03*
X140700000Y-92937500D03*
X111340000Y-85440000D03*
D20*
X126009718Y-91647955D03*
X124375000Y-91780000D03*
D21*
X111340000Y-90530000D03*
D22*
X129150000Y-91650000D03*
D20*
X133060000Y-91816000D03*
D21*
%TO.N,/Power/VBUS*%
X153375000Y-88550000D03*
D20*
X144750000Y-90850000D03*
D21*
X158500000Y-94900000D03*
D22*
%TO.N,+5V*%
X148400000Y-89100396D03*
X141850000Y-82150000D03*
D21*
%TO.N,/Power/VBUS_Finale*%
X150175000Y-88050000D03*
X151400000Y-82200000D03*
D22*
%TO.N,+3.3V*%
X103750000Y-92050000D03*
D20*
X111144490Y-93980404D03*
D21*
%TO.N,/Logic/Rail_2*%
X106310000Y-88000000D03*
X105700000Y-82950000D03*
X106300000Y-93070000D03*
X106300000Y-90510000D03*
X106280000Y-85450000D03*
D20*
%TO.N,Net-(D1-K)*%
X101725000Y-91325000D03*
X115318778Y-88919781D03*
X103875000Y-90400000D03*
X132660000Y-91310000D03*
%TO.N,/Logic/SDA_3.3v*%
X104100000Y-94500000D03*
X103450000Y-93075000D03*
%TO.N,/Logic/INA_ALERT*%
X114680000Y-94150000D03*
X137912402Y-92097800D03*
%TO.N,Net-(Q1-G2)*%
X134110000Y-94019000D03*
X135650000Y-94019000D03*
%TO.N,/Logic/SW_UP*%
X113725000Y-84100000D03*
X134100231Y-88300000D03*
X140450000Y-90469686D03*
X136875000Y-89114151D03*
%TO.N,/Logic/SW_LEFT*%
X142500000Y-91060000D03*
X113350000Y-86800000D03*
%TO.N,/Power/USB_N*%
X157675002Y-92610000D03*
X157390000Y-91610000D03*
%TO.N,/Power/CC1*%
X153600000Y-91100000D03*
X154130000Y-94380000D03*
%TO.N,/Logic/SW_RIGHT*%
X137446970Y-91719151D03*
X115600000Y-92275000D03*
%TO.N,/Logic/SW_DOWN*%
X111807500Y-93970002D03*
X140310274Y-95650001D03*
%TO.N,/Logic/SW_PRESS*%
X113520000Y-92600000D03*
X140970000Y-95500000D03*
%TO.N,/Power/NTC*%
X150760000Y-94510000D03*
X142825000Y-85925000D03*
%TO.N,Net-(U6-VOUT)*%
X148400000Y-89800399D03*
X146744000Y-90274000D03*
%TO.N,/Logic/PGOOD_Logic*%
X138932216Y-90567785D03*
X121250000Y-89662105D03*
%TO.N,/Logic/RX*%
X143521751Y-95095681D03*
%TO.N,/Logic/VBUS_SW*%
X143222198Y-92089290D03*
X124825000Y-89625000D03*
%TO.N,/Logic/LOGIC_Report*%
X134838407Y-88477939D03*
X121400000Y-83440000D03*
%TO.N,/Logic/Load_Monitor_VBUS*%
X127740000Y-96292000D03*
X142700000Y-95290000D03*
%TO.N,/Logic/PD_Int*%
X144000000Y-90800000D03*
X147299837Y-95651000D03*
%TO.N,/Logic/SCL*%
X143150000Y-92690000D03*
X115275000Y-93844881D03*
X116050000Y-85900000D03*
X109253554Y-92653554D03*
%TO.N,/Logic/LOGIC_SW*%
X127560000Y-94890000D03*
X138980000Y-95560000D03*
%TO.N,/Logic/VBUS_Fault*%
X138263909Y-95436091D03*
X128465000Y-96035000D03*
%TO.N,/Logic/SDA*%
X109550000Y-91600000D03*
X115925000Y-93850000D03*
X143432729Y-93219210D03*
%TO.N,/Logic/LOGIC_Selection*%
X141740000Y-90160000D03*
X124290000Y-85950000D03*
%TO.N,Net-(U6-PWR_EN)*%
X141675000Y-88575000D03*
X145875000Y-86225000D03*
X147684727Y-89632374D03*
%TO.N,/Logic/TX*%
X143515545Y-94458097D03*
%TD*%
D23*
%TO.N,/Power/VBUS*%
X157700000Y-94100000D02*
X158500000Y-94900000D01*
X155550000Y-94100000D02*
X157700000Y-94100000D01*
X153950000Y-95700000D02*
X155550000Y-94100000D01*
X148420000Y-95700000D02*
X153950000Y-95700000D01*
X144950000Y-92230000D02*
X148420000Y-95700000D01*
X144950000Y-91190000D02*
X144950000Y-92230000D01*
X144750000Y-90990000D02*
X144950000Y-91190000D01*
X144750000Y-90850000D02*
X144750000Y-90990000D01*
%TO.N,/Logic/PD_Int*%
X146798837Y-95150000D02*
X147299837Y-95651000D01*
X145371479Y-95150000D02*
X146798837Y-95150000D01*
X145050000Y-94828521D02*
X145371479Y-95150000D01*
X144549000Y-91497521D02*
X144549000Y-92396100D01*
X144269259Y-91217780D02*
X144549000Y-91497521D01*
X144000000Y-90800000D02*
X144269259Y-91069259D01*
X145050000Y-92897100D02*
X145050000Y-94828521D01*
X144549000Y-92396100D02*
X145050000Y-92897100D01*
X144269259Y-91069259D02*
X144269259Y-91217780D01*
%TO.N,/Logic/UPDI*%
X125215000Y-82832521D02*
X125215000Y-81260000D01*
X125957479Y-83575000D02*
X125215000Y-82832521D01*
X134075000Y-83575000D02*
X125957479Y-83575000D01*
X136575000Y-86075000D02*
X134075000Y-83575000D01*
X135552415Y-88597585D02*
X136575000Y-87575000D01*
X136575000Y-87575000D02*
X136575000Y-86075000D01*
%TO.N,/Logic/LOGIC_Selection*%
X130844021Y-85950000D02*
X124290000Y-85950000D01*
X133909761Y-89015740D02*
X130844021Y-85950000D01*
X135886849Y-89213151D02*
X134948651Y-89213151D01*
X136550000Y-88550000D02*
X135886849Y-89213151D01*
X139097414Y-88550000D02*
X136550000Y-88550000D01*
X134751240Y-89015740D02*
X133909761Y-89015740D01*
X140516100Y-89968686D02*
X139097414Y-88550000D01*
X134948651Y-89213151D02*
X134751240Y-89015740D01*
X141548686Y-89968686D02*
X140516100Y-89968686D01*
X141740000Y-90160000D02*
X141548686Y-89968686D01*
%TO.N,/Logic/LOGIC_Report*%
X121400000Y-83650000D02*
X121400000Y-83440000D01*
X122501000Y-84751000D02*
X121400000Y-83650000D01*
X132751000Y-84751000D02*
X122501000Y-84751000D01*
X134700000Y-87875000D02*
X134275000Y-87450000D01*
X134275000Y-87450000D02*
X134275000Y-86275000D01*
X134700000Y-88339532D02*
X134700000Y-87875000D01*
X134838407Y-88477939D02*
X134700000Y-88339532D01*
X134275000Y-86275000D02*
X132751000Y-84751000D01*
%TO.N,/Logic/SW_UP*%
X114297208Y-83527792D02*
X113725000Y-84100000D01*
X119142652Y-83527792D02*
X114297208Y-83527792D01*
X121063860Y-85449000D02*
X119142652Y-83527792D01*
X131050129Y-85449000D02*
X121063860Y-85449000D01*
X133901129Y-88300000D02*
X131050129Y-85449000D01*
X134100231Y-88300000D02*
X133901129Y-88300000D01*
D24*
%TO.N,/Logic/Buck_Status*%
X158178570Y-95676000D02*
X157903570Y-95401000D01*
X142781797Y-96168203D02*
X141838905Y-96168203D01*
X159576000Y-87968430D02*
X159576000Y-94921430D01*
X158821430Y-95676000D02*
X158178570Y-95676000D01*
X158600000Y-81250000D02*
X158600000Y-86992430D01*
X154900000Y-80550000D02*
X157900000Y-80550000D01*
X155293347Y-95401000D02*
X154567347Y-96127000D01*
X157900000Y-80550000D02*
X158600000Y-81250000D01*
X158600000Y-86992430D02*
X159576000Y-87968430D01*
X143236000Y-95714000D02*
X142781797Y-96168203D01*
X153800000Y-81650000D02*
X154900000Y-80550000D01*
X154567347Y-96127000D02*
X147102671Y-96127000D01*
X157903570Y-95401000D02*
X155293347Y-95401000D01*
X146689671Y-95714000D02*
X143236000Y-95714000D01*
X147102671Y-96127000D02*
X146689671Y-95714000D01*
X159576000Y-94921430D02*
X158821430Y-95676000D01*
X153800000Y-81700000D02*
X153800000Y-81650000D01*
D25*
%TO.N,GND*%
X111350000Y-82180000D02*
X110460000Y-81290000D01*
X111350000Y-82910000D02*
X111350000Y-82180000D01*
D23*
X104500000Y-91500000D02*
X104409000Y-91409000D01*
%TO.N,/Power/VBUS*%
X153375000Y-88550000D02*
X152900000Y-88550000D01*
D25*
%TO.N,+5V*%
X148400000Y-88420768D02*
X148390000Y-88410768D01*
X142200000Y-82500000D02*
X141850000Y-82150000D01*
X148400000Y-89100396D02*
X148400000Y-88420768D01*
X148390000Y-88410768D02*
X148390000Y-85280000D01*
X148390000Y-85280000D02*
X145610000Y-82500000D01*
X145610000Y-82500000D02*
X142200000Y-82500000D01*
%TO.N,+3.3V*%
X102350000Y-93925000D02*
X102350000Y-92525000D01*
X102825000Y-92050000D02*
X103750000Y-92050000D01*
X111144490Y-93980404D02*
X109699894Y-95425000D01*
X109699894Y-95425000D02*
X103850000Y-95425000D01*
X102350000Y-92525000D02*
X102825000Y-92050000D01*
X103850000Y-95425000D02*
X102350000Y-93925000D01*
D23*
%TO.N,Net-(D1-K)*%
X101775000Y-91375000D02*
X102450000Y-91375000D01*
X130357300Y-92694000D02*
X130646700Y-92694000D01*
X125680000Y-92766000D02*
X126012200Y-92766000D01*
X117300000Y-94007000D02*
X117480000Y-94187000D01*
X115329000Y-88930003D02*
X115329000Y-91053943D01*
X130646700Y-92694000D02*
X130689500Y-92694000D01*
X124076000Y-93705600D02*
X124310900Y-93470700D01*
X130025100Y-92694000D02*
X130357300Y-92694000D01*
X124780700Y-93000900D02*
X125015600Y-92766000D01*
X128696300Y-92694000D02*
X129028500Y-92694000D01*
X129360700Y-92694000D02*
X129692900Y-92694000D01*
X117300000Y-92246479D02*
X117300000Y-94007000D01*
X123283000Y-94187000D02*
X123594600Y-94187000D01*
X131671000Y-92694000D02*
X132559000Y-91806000D01*
X129028500Y-92694000D02*
X129360700Y-92694000D01*
X125015600Y-92766000D02*
X125347800Y-92766000D01*
X115329000Y-91053943D02*
X115826057Y-91551000D01*
X132559000Y-91411000D02*
X132660000Y-91310000D01*
X124545800Y-93235800D02*
X124780700Y-93000900D01*
X115318778Y-88919781D02*
X115329000Y-88930003D01*
X126344400Y-92766000D02*
X128624300Y-92766000D01*
X101725000Y-91325000D02*
X101775000Y-91375000D01*
X117480000Y-94187000D02*
X123283000Y-94187000D01*
X128624300Y-92766000D02*
X128696300Y-92694000D01*
X124310900Y-93470700D02*
X124545800Y-93235800D01*
X102450000Y-91375000D02*
X103425000Y-90400000D01*
X130978900Y-92694000D02*
X131311100Y-92694000D01*
X115329000Y-88930003D02*
X115329000Y-89021000D01*
X126012200Y-92766000D02*
X126344400Y-92766000D01*
X130689500Y-92694000D02*
X130978900Y-92694000D01*
X132559000Y-91806000D02*
X132559000Y-91411000D01*
X103425000Y-90400000D02*
X103875000Y-90400000D01*
X116604521Y-91551000D02*
X117300000Y-92246479D01*
X115826057Y-91551000D02*
X116604521Y-91551000D01*
X123594600Y-94187000D02*
X124076000Y-93705600D01*
X125347800Y-92766000D02*
X125680000Y-92766000D01*
X131311100Y-92694000D02*
X131671000Y-92694000D01*
X129692900Y-92694000D02*
X130025100Y-92694000D01*
%TO.N,/Logic/SDA_3.3v*%
X103525000Y-93150000D02*
X103525000Y-93925000D01*
X103450000Y-93075000D02*
X103525000Y-93150000D01*
X103525000Y-93925000D02*
X104100000Y-94500000D01*
%TO.N,/Logic/INA_ALERT*%
X137790051Y-92220151D02*
X137912402Y-92097800D01*
X135970000Y-92716000D02*
X136302200Y-92716000D01*
X130357300Y-93496000D02*
X130978900Y-93496000D01*
X133701000Y-92716000D02*
X134033200Y-92716000D01*
X125112900Y-93802900D02*
X125347800Y-93568000D01*
X128956500Y-93568000D02*
X129028500Y-93496000D01*
X133133900Y-92950900D02*
X133368800Y-92716000D01*
X129360700Y-93496000D02*
X129692900Y-93496000D01*
X125680000Y-93568000D02*
X126012200Y-93568000D01*
X129028500Y-93496000D02*
X129360700Y-93496000D01*
X136302200Y-92716000D02*
X136982900Y-92716000D01*
X133368800Y-92716000D02*
X133701000Y-92716000D01*
X129692900Y-93496000D02*
X130025100Y-93496000D01*
X115519000Y-94989000D02*
X123615200Y-94989000D01*
X123925800Y-94990000D02*
X124878000Y-94037800D01*
X132899000Y-93185800D02*
X133133900Y-92950900D01*
X130025100Y-93496000D02*
X130357300Y-93496000D01*
X126012200Y-93568000D02*
X128956500Y-93568000D01*
X114680000Y-94150000D02*
X115519000Y-94989000D01*
X132588800Y-93496000D02*
X132899000Y-93185800D01*
X136982900Y-92716000D02*
X137126189Y-92716000D01*
X124878000Y-94037800D02*
X125112900Y-93802900D01*
X134033200Y-92716000D02*
X135637800Y-92716000D01*
X123615200Y-94989000D02*
X123616200Y-94990000D01*
X137912402Y-92097800D02*
X137905202Y-92105000D01*
X123616200Y-94990000D02*
X123925800Y-94990000D01*
X135637800Y-92716000D02*
X135970000Y-92716000D01*
X137622038Y-92220151D02*
X137790051Y-92220151D01*
X137126189Y-92716000D02*
X137622038Y-92220151D01*
X130978900Y-93496000D02*
X132588800Y-93496000D01*
X137905202Y-92105000D02*
X137825000Y-92105000D01*
X125347800Y-93568000D02*
X125680000Y-93568000D01*
%TO.N,Net-(Q1-G2)*%
X134210000Y-93990000D02*
X134181000Y-94019000D01*
X135550000Y-93990000D02*
X134210000Y-93990000D01*
X135579000Y-94019000D02*
X135550000Y-93990000D01*
X135650000Y-94019000D02*
X135579000Y-94019000D01*
X134181000Y-94019000D02*
X134110000Y-94019000D01*
%TO.N,/Logic/SW_UP*%
X137025000Y-89114151D02*
X137035849Y-89125000D01*
X137035849Y-89125000D02*
X139105314Y-89125000D01*
X139105314Y-89125000D02*
X140450000Y-90469686D01*
X136875000Y-89114151D02*
X137025000Y-89114151D01*
%TO.N,/Logic/SW_LEFT*%
X138885944Y-89614151D02*
X134782551Y-89614151D01*
X123377811Y-88250000D02*
X123186811Y-88441000D01*
X140331793Y-91060000D02*
X138885944Y-89614151D01*
X142500000Y-91060000D02*
X140331793Y-91060000D01*
X120350000Y-87600000D02*
X120350000Y-85302240D01*
X125613721Y-88250000D02*
X125607521Y-88256200D01*
X116821208Y-83928792D02*
X113950000Y-86800000D01*
X125192479Y-88256200D02*
X125186279Y-88250000D01*
X122813189Y-88441000D02*
X122622189Y-88250000D01*
X113950000Y-86800000D02*
X113350000Y-86800000D01*
X133743661Y-89416740D02*
X132576921Y-88250000D01*
X134585140Y-89416740D02*
X133743661Y-89416740D01*
X120350000Y-85302240D02*
X118976552Y-83928792D01*
X134782551Y-89614151D02*
X134585140Y-89416740D01*
X121000000Y-88250000D02*
X120350000Y-87600000D01*
X122622189Y-88250000D02*
X121000000Y-88250000D01*
X123186811Y-88441000D02*
X122813189Y-88441000D01*
X125186279Y-88250000D02*
X123377811Y-88250000D01*
X132576921Y-88250000D02*
X125613721Y-88250000D01*
X125607521Y-88256200D02*
X125192479Y-88256200D01*
X118976552Y-83928792D02*
X116821208Y-83928792D01*
%TO.N,/Power/USB_N*%
X157675002Y-91895002D02*
X157390000Y-91610000D01*
X157675002Y-92610000D02*
X157675002Y-91895002D01*
%TO.N,/Power/CC1*%
X153960000Y-94380000D02*
X153651000Y-94071000D01*
X153651000Y-94071000D02*
X153651000Y-91151000D01*
X154130000Y-94380000D02*
X153960000Y-94380000D01*
X153651000Y-91151000D02*
X153600000Y-91100000D01*
%TO.N,/Logic/SW_RIGHT*%
X131145000Y-93095000D02*
X132422700Y-93095000D01*
X126178300Y-93167000D02*
X128790400Y-93167000D01*
X136851121Y-92315000D02*
X137446970Y-91719151D01*
X125846100Y-93167000D02*
X126178300Y-93167000D01*
X130191200Y-93095000D02*
X130523400Y-93095000D01*
X137446970Y-91719151D02*
X137446970Y-91749476D01*
X115825000Y-92275000D02*
X116640000Y-93090000D01*
X130523400Y-93095000D02*
X130812800Y-93095000D01*
X116640000Y-93090000D02*
X116640000Y-94090000D01*
X116640000Y-94090000D02*
X117138000Y-94588000D01*
X136468300Y-92315000D02*
X136816800Y-92315000D01*
X132732900Y-92784800D02*
X132967800Y-92549900D01*
X123760700Y-94588000D02*
X124477000Y-93871700D01*
X129194600Y-93095000D02*
X129526800Y-93095000D01*
X123449100Y-94588000D02*
X123760700Y-94588000D01*
X125513900Y-93167000D02*
X125846100Y-93167000D01*
X133867100Y-92315000D02*
X134199300Y-92315000D01*
X130812800Y-93095000D02*
X131145000Y-93095000D01*
X136816800Y-92315000D02*
X136851121Y-92315000D01*
X124946800Y-93401900D02*
X125181700Y-93167000D01*
X129859000Y-93095000D02*
X130191200Y-93095000D01*
X117138000Y-94588000D02*
X123449100Y-94588000D01*
X129526800Y-93095000D02*
X129859000Y-93095000D01*
X134199300Y-92315000D02*
X135471700Y-92315000D01*
X135803900Y-92315000D02*
X136136100Y-92315000D01*
X135471700Y-92315000D02*
X135803900Y-92315000D01*
X133202700Y-92315000D02*
X133534900Y-92315000D01*
X115600000Y-92275000D02*
X115825000Y-92275000D01*
X133534900Y-92315000D02*
X133867100Y-92315000D01*
X124711900Y-93636800D02*
X124946800Y-93401900D01*
X132967800Y-92549900D02*
X133202700Y-92315000D01*
X128790400Y-93167000D02*
X128862400Y-93095000D01*
X132498000Y-93019700D02*
X132732900Y-92784800D01*
X125181700Y-93167000D02*
X125513900Y-93167000D01*
X136136100Y-92315000D02*
X136468300Y-92315000D01*
X124477000Y-93871700D02*
X124711900Y-93636800D01*
X128862400Y-93095000D02*
X129194600Y-93095000D01*
X132422700Y-93095000D02*
X132498000Y-93019700D01*
%TO.N,/Logic/SW_DOWN*%
X114709998Y-95830000D02*
X124220000Y-95830000D01*
X129360700Y-94298000D02*
X129692900Y-94298000D01*
X129692900Y-94298000D02*
X130025100Y-94298000D01*
X132921000Y-94298000D02*
X133701000Y-93518000D01*
X133701000Y-93518000D02*
X135970000Y-93518000D01*
X138708272Y-94048000D02*
X140310274Y-95650001D01*
X124220000Y-95830000D02*
X125680000Y-94370000D01*
X135970000Y-93518000D02*
X136500000Y-94048000D01*
X130025100Y-94298000D02*
X132921000Y-94298000D01*
X129288700Y-94370000D02*
X129360700Y-94298000D01*
X111807500Y-93970002D02*
X111962498Y-94125000D01*
X136500000Y-94048000D02*
X138708272Y-94048000D01*
X111962498Y-94125000D02*
X113004998Y-94125000D01*
X125680000Y-94370000D02*
X129288700Y-94370000D01*
X113004998Y-94125000D02*
X114709998Y-95830000D01*
%TO.N,/Logic/SW_PRESS*%
X136923900Y-93118000D02*
X137150000Y-93118000D01*
X114170000Y-94722902D02*
X114876098Y-95429000D01*
X137150000Y-93118000D02*
X137256100Y-93118000D01*
X133300000Y-93351900D02*
X133534900Y-93117000D01*
X114170000Y-93170000D02*
X114170000Y-94722902D01*
X137149000Y-93117000D02*
X137150000Y-93118000D01*
X135803900Y-93117000D02*
X136136100Y-93117000D01*
X137360189Y-93118000D02*
X137493189Y-93251000D01*
X129859000Y-93897000D02*
X130191200Y-93897000D01*
X137493189Y-93251000D02*
X138721000Y-93251000D01*
X113600000Y-92600000D02*
X114170000Y-93170000D01*
X113520000Y-92600000D02*
X113600000Y-92600000D01*
X124053900Y-95429000D02*
X125279000Y-94203900D01*
X114876098Y-95429000D02*
X124053900Y-95429000D01*
X125279000Y-94203900D02*
X125513900Y-93969000D01*
X138721000Y-93251000D02*
X140970000Y-95500000D01*
X133534900Y-93117000D02*
X133867100Y-93117000D01*
X133867100Y-93117000D02*
X135803900Y-93117000D01*
X129194600Y-93897000D02*
X129526800Y-93897000D01*
X129122600Y-93969000D02*
X129194600Y-93897000D01*
X129526800Y-93897000D02*
X129859000Y-93897000D01*
X125846100Y-93969000D02*
X129122600Y-93969000D01*
X130191200Y-93897000D02*
X132754900Y-93897000D01*
X136136100Y-93117000D02*
X137149000Y-93117000D01*
X137256100Y-93118000D02*
X137360189Y-93118000D01*
X132754900Y-93897000D02*
X133300000Y-93351900D01*
X125513900Y-93969000D02*
X125846100Y-93969000D01*
%TO.N,/Power/NTC*%
X143600000Y-89750000D02*
X144140000Y-90290000D01*
X148460000Y-94510000D02*
X150760000Y-94510000D01*
X142825000Y-85925000D02*
X142825000Y-88225000D01*
X144140000Y-90290000D02*
X145370000Y-90290000D01*
X146990000Y-91910000D02*
X146990000Y-93040000D01*
X143600000Y-89000000D02*
X143600000Y-89750000D01*
X146990000Y-93040000D02*
X148460000Y-94510000D01*
X142825000Y-88225000D02*
X143600000Y-89000000D01*
X145370000Y-90290000D02*
X146990000Y-91910000D01*
%TO.N,Net-(U6-VOUT)*%
X148400000Y-89800399D02*
X148225223Y-89800399D01*
X148225223Y-89800399D02*
X147751622Y-90274000D01*
X147751622Y-90274000D02*
X146744000Y-90274000D01*
%TO.N,/Logic/PGOOD_Logic*%
X125779821Y-88651000D02*
X125773621Y-88657200D01*
X133342661Y-89582840D02*
X132410821Y-88651000D01*
X134948651Y-90015151D02*
X134616451Y-90015151D01*
X125026379Y-88657200D02*
X125020179Y-88651000D01*
X125358579Y-88657200D02*
X125026379Y-88657200D01*
X125773621Y-88657200D02*
X125441421Y-88657200D01*
X123352911Y-88842000D02*
X123020711Y-88842000D01*
X132410821Y-88651000D02*
X125779821Y-88651000D01*
X123543911Y-88651000D02*
X123352911Y-88842000D01*
X133909761Y-89817740D02*
X133577561Y-89817740D01*
X122647089Y-88842000D02*
X122456089Y-88651000D01*
X138379582Y-90015151D02*
X134948651Y-90015151D01*
X125020179Y-88651000D02*
X123543911Y-88651000D01*
X133577561Y-89817740D02*
X133342661Y-89582840D01*
X123020711Y-88842000D02*
X122979289Y-88842000D01*
X122456089Y-88651000D02*
X122261105Y-88651000D01*
X125441421Y-88657200D02*
X125358579Y-88657200D01*
X122979289Y-88842000D02*
X122647089Y-88842000D01*
X122261105Y-88651000D02*
X121250000Y-89662105D01*
X138932216Y-90567785D02*
X138379582Y-90015151D01*
X134419040Y-89817740D02*
X133909761Y-89817740D01*
X134616451Y-90015151D02*
X134419040Y-89817740D01*
%TO.N,/Logic/RX*%
X140700000Y-89567686D02*
X132835000Y-81702686D01*
X143001000Y-91159571D02*
X143001000Y-90682479D01*
X141856207Y-89567686D02*
X140700000Y-89567686D01*
X143001000Y-90682479D02*
X142971000Y-90682479D01*
X143933729Y-93426731D02*
X143933729Y-93011689D01*
X143014545Y-94839545D02*
X143014545Y-94250576D01*
X132835000Y-81702686D02*
X132835000Y-81260000D01*
X143014545Y-94250576D02*
X143544911Y-93720210D01*
X143723198Y-92801158D02*
X143723198Y-91881769D01*
X143544911Y-93720210D02*
X143640250Y-93720210D01*
X143723198Y-91881769D02*
X143001000Y-91159571D01*
X143640250Y-93720210D02*
X143933729Y-93426731D01*
X143521751Y-95095681D02*
X143270681Y-95095681D01*
X143270681Y-95095681D02*
X143014545Y-94839545D01*
X142971000Y-90682479D02*
X141856207Y-89567686D01*
X143933729Y-93011689D02*
X143723198Y-92801158D01*
%TO.N,/Logic/VBUS_SW*%
X133411461Y-90218740D02*
X133176561Y-89983840D01*
X135114751Y-90416151D02*
X134782551Y-90416151D01*
X134450351Y-90416151D02*
X134252940Y-90218740D01*
X142732908Y-91600000D02*
X139257323Y-91600000D01*
X134075861Y-90218740D02*
X133743661Y-90218740D01*
X125939721Y-89058200D02*
X125607521Y-89058200D01*
X125391800Y-89058200D02*
X124825000Y-89625000D01*
X133743661Y-90218740D02*
X133411461Y-90218740D01*
X138431216Y-90773893D02*
X138073474Y-90416151D01*
X138724695Y-91068785D02*
X138431216Y-90775306D01*
X134782551Y-90416151D02*
X134450351Y-90416151D01*
X138726108Y-91068785D02*
X138724695Y-91068785D01*
X132244721Y-89052000D02*
X125945921Y-89052000D01*
X139257323Y-91600000D02*
X138726108Y-91068785D01*
X125607521Y-89058200D02*
X125524679Y-89058200D01*
X138073474Y-90416151D02*
X135114751Y-90416151D01*
X133176561Y-89983840D02*
X132941661Y-89748940D01*
X134252940Y-90218740D02*
X134075861Y-90218740D01*
X138431216Y-90775306D02*
X138431216Y-90773893D01*
X143222198Y-92089290D02*
X142732908Y-91600000D01*
X125524679Y-89058200D02*
X125391800Y-89058200D01*
X125945921Y-89052000D02*
X125939721Y-89058200D01*
X132941661Y-89748940D02*
X132244721Y-89052000D01*
%TO.N,/Logic/Load_Monitor_VBUS*%
X128028000Y-96580000D02*
X137120000Y-96580000D01*
X137120000Y-96580000D02*
X137400000Y-96300000D01*
X142700000Y-95290000D02*
X142010000Y-95290000D01*
X127740000Y-96292000D02*
X128028000Y-96580000D01*
X137400000Y-96300000D02*
X141000000Y-96300000D01*
X142010000Y-95290000D02*
X141000000Y-96300000D01*
%TO.N,/Logic/SCL*%
X110120000Y-91780000D02*
X113640000Y-91780000D01*
X126300000Y-90030000D02*
X132655621Y-90030000D01*
X109253554Y-92653554D02*
X109253554Y-92646446D01*
X118880000Y-87620000D02*
X120570000Y-89310000D01*
X115577848Y-85900000D02*
X116050000Y-85900000D01*
X132655621Y-90030000D02*
X133245361Y-90619740D01*
X134086840Y-90619740D02*
X134284251Y-90817151D01*
X108899000Y-92299000D02*
X108899000Y-91551000D01*
X126080000Y-90250000D02*
X126300000Y-90030000D01*
X139250223Y-92160000D02*
X142310000Y-92160000D01*
X115275000Y-93415000D02*
X115275000Y-93844881D01*
X113100000Y-89100000D02*
X113588924Y-88611076D01*
X113588924Y-87888924D02*
X115577848Y-85900000D01*
X113640000Y-91780000D02*
X115275000Y-93415000D01*
X142840000Y-92690000D02*
X143150000Y-92690000D01*
X134284251Y-90817151D02*
X137907374Y-90817151D01*
X120570000Y-89710000D02*
X121110000Y-90250000D01*
X113588924Y-88611076D02*
X113588924Y-87888924D01*
X109253554Y-92646446D02*
X110120000Y-91780000D01*
X109305423Y-89182503D02*
X109387926Y-89100000D01*
X133245361Y-90619740D02*
X134086840Y-90619740D01*
X108899000Y-91551000D02*
X108901000Y-91549000D01*
X137907374Y-90817151D02*
X139250223Y-92160000D01*
X108865497Y-90244577D02*
X108865497Y-89622429D01*
X120570000Y-89310000D02*
X120570000Y-89710000D01*
X109387926Y-89100000D02*
X113100000Y-89100000D01*
X108865497Y-89622429D02*
X108901000Y-89586926D01*
X108901000Y-89586926D02*
X109305423Y-89182503D01*
X108901000Y-90280080D02*
X108865497Y-90244577D01*
X121110000Y-90250000D02*
X126080000Y-90250000D01*
X108901000Y-91549000D02*
X108901000Y-90280080D01*
X109253554Y-92653554D02*
X108899000Y-92299000D01*
X118500000Y-87620000D02*
X118880000Y-87620000D01*
X142310000Y-92160000D02*
X142840000Y-92690000D01*
%TO.N,/Logic/LOGIC_SW*%
X135928521Y-94449000D02*
X138467521Y-94449000D01*
X138980000Y-94961479D02*
X138980000Y-95560000D01*
X127560000Y-94890000D02*
X129335800Y-94890000D01*
X138467521Y-94449000D02*
X138980000Y-94961479D01*
X129335800Y-94890000D02*
X129526800Y-94699000D01*
X129526800Y-94699000D02*
X135678521Y-94699000D01*
X135678521Y-94699000D02*
X135928521Y-94449000D01*
%TO.N,/Logic/VBUS_Fault*%
X135057100Y-95100000D02*
X135358100Y-95401000D01*
X128951000Y-95549000D02*
X129243900Y-95549000D01*
X137699000Y-95401000D02*
X137734091Y-95436091D01*
X128465000Y-96035000D02*
X128951000Y-95549000D01*
X129692900Y-95100000D02*
X135057100Y-95100000D01*
X137734091Y-95436091D02*
X138263909Y-95436091D01*
X129243900Y-95549000D02*
X129692900Y-95100000D01*
X135358100Y-95401000D02*
X137699000Y-95401000D01*
%TO.N,/Logic/SDA*%
X137217600Y-91240000D02*
X137239449Y-91218151D01*
X137654491Y-91218151D02*
X137676340Y-91240000D01*
X119651000Y-89683240D02*
X119651000Y-90411000D01*
X134140000Y-91240000D02*
X137217600Y-91240000D01*
X142921939Y-93730000D02*
X143432729Y-93219210D01*
X109771000Y-91379000D02*
X113929000Y-91379000D01*
X138650000Y-92612900D02*
X139767100Y-93730000D01*
X115800000Y-93725000D02*
X115800000Y-93250000D01*
X116250000Y-86650000D02*
X116250000Y-87150000D01*
X109550000Y-91600000D02*
X109771000Y-91379000D01*
X137763123Y-91240000D02*
X138650000Y-92126877D01*
X137239449Y-91218151D02*
X137654491Y-91218151D01*
X138650000Y-92126877D02*
X138650000Y-92612900D01*
X132867521Y-90809000D02*
X133079261Y-91020740D01*
X117820000Y-85080000D02*
X118500000Y-85080000D01*
X137676340Y-91240000D02*
X137763123Y-91240000D01*
X115925000Y-93850000D02*
X115800000Y-93725000D01*
X116250000Y-87150000D02*
X118109000Y-89009000D01*
X118976760Y-89009000D02*
X119651000Y-89683240D01*
X129452821Y-91030000D02*
X129503371Y-90979450D01*
X133079261Y-91020740D02*
X133920740Y-91020740D01*
X139767100Y-93730000D02*
X142921939Y-93730000D01*
X116250000Y-86650000D02*
X117820000Y-85080000D01*
X119651000Y-90411000D02*
X120270000Y-91030000D01*
X113929000Y-91379000D02*
X114230000Y-91680000D01*
X120270000Y-91030000D02*
X129452821Y-91030000D01*
X114230000Y-91680000D02*
X114230000Y-88670000D01*
X114230000Y-88670000D02*
X116250000Y-86650000D01*
X133920740Y-91020740D02*
X134140000Y-91240000D01*
X129503371Y-90979450D02*
X132282029Y-90979450D01*
X132282029Y-90979450D02*
X132452479Y-90809000D01*
X118109000Y-89009000D02*
X118976760Y-89009000D01*
X115800000Y-93250000D02*
X114230000Y-91680000D01*
X132452479Y-90809000D02*
X132867521Y-90809000D01*
%TO.N,Net-(U6-PWR_EN)*%
X142617479Y-85424000D02*
X143476353Y-85424000D01*
X143476353Y-85424000D02*
X147684727Y-89632374D01*
X147450000Y-89397647D02*
X147684727Y-89632374D01*
X141675000Y-88575000D02*
X141675000Y-86366479D01*
X147684727Y-89632374D02*
X147695820Y-89643467D01*
X141675000Y-86366479D02*
X142617479Y-85424000D01*
X147450000Y-89397647D02*
X147450000Y-87800000D01*
X147450000Y-87800000D02*
X145875000Y-86225000D01*
%TO.N,/Logic/TX*%
X143768259Y-91346238D02*
X143754767Y-91346238D01*
X144148000Y-91725979D02*
X143768259Y-91346238D01*
X143754767Y-91346238D02*
X143402000Y-90993471D01*
X143515545Y-94458097D02*
X144600000Y-93373642D01*
X140817100Y-89100000D02*
X135375000Y-83657900D01*
X144148000Y-92562200D02*
X144148000Y-91725979D01*
X135375000Y-83657900D02*
X135375000Y-81260000D01*
X141985621Y-89100000D02*
X140817100Y-89100000D01*
X143402000Y-90993471D02*
X143402000Y-90516379D01*
X144600000Y-93373642D02*
X144600000Y-93014200D01*
X143402000Y-90516379D02*
X141985621Y-89100000D01*
X144600000Y-93014200D02*
X144148000Y-92562200D01*
%TD*%
%TA.AperFunction,Conductor*%
%TO.N,GND*%
G36*
X112787578Y-82762703D02*
G01*
X112854361Y-82783239D01*
X112899441Y-82836621D01*
X112910000Y-82886693D01*
X112910000Y-86457003D01*
X112890315Y-86524042D01*
X112837511Y-86569797D01*
X112768353Y-86579741D01*
X112717111Y-86560106D01*
X112682691Y-86537108D01*
X112682675Y-86537099D01*
X112537004Y-86476761D01*
X112536992Y-86476758D01*
X112382348Y-86445997D01*
X112382345Y-86445997D01*
X112224661Y-86445997D01*
X112224658Y-86445997D01*
X112070013Y-86476758D01*
X112070001Y-86476761D01*
X111924330Y-86537099D01*
X111924317Y-86537106D01*
X111793214Y-86624707D01*
X111793210Y-86624710D01*
X111681716Y-86736204D01*
X111681713Y-86736208D01*
X111594112Y-86867311D01*
X111594105Y-86867324D01*
X111533767Y-87012995D01*
X111533764Y-87013007D01*
X111503003Y-87167650D01*
X111503003Y-87325343D01*
X111533764Y-87479986D01*
X111533767Y-87479998D01*
X111594105Y-87625669D01*
X111594112Y-87625682D01*
X111681713Y-87756785D01*
X111681716Y-87756789D01*
X111793210Y-87868283D01*
X111793214Y-87868286D01*
X111924317Y-87955887D01*
X111924330Y-87955894D01*
X112070001Y-88016232D01*
X112070006Y-88016234D01*
X112224656Y-88046996D01*
X112224659Y-88046997D01*
X112224661Y-88046997D01*
X112382347Y-88046997D01*
X112382348Y-88046996D01*
X112537000Y-88016234D01*
X112682682Y-87955891D01*
X112703870Y-87941733D01*
X112717109Y-87932888D01*
X112783786Y-87912010D01*
X112851166Y-87930494D01*
X112897857Y-87982473D01*
X112910000Y-88035990D01*
X112910000Y-88421426D01*
X112890315Y-88488465D01*
X112837511Y-88534220D01*
X112786390Y-88545425D01*
X109854390Y-88554645D01*
X109787289Y-88535172D01*
X109741368Y-88482512D01*
X109730000Y-88430646D01*
X109730000Y-85950676D01*
X109730006Y-85949411D01*
X109761647Y-82848516D01*
X109782015Y-82781683D01*
X109835283Y-82736469D01*
X109887215Y-82725793D01*
X112787578Y-82762703D01*
G37*
%TD.AperFunction*%
%TD*%
%TA.AperFunction,Conductor*%
%TO.N,GND*%
G36*
X157203823Y-81529685D02*
G01*
X157249578Y-81582489D01*
X157260783Y-81634121D01*
X157260460Y-81962649D01*
X157259043Y-83402033D01*
X157239292Y-83469053D01*
X157186443Y-83514756D01*
X157117275Y-83524631D01*
X157073045Y-83509299D01*
X157063191Y-83503610D01*
X157063188Y-83503609D01*
X157063187Y-83503608D01*
X157063186Y-83503608D01*
X156935892Y-83469500D01*
X156804108Y-83469500D01*
X156676812Y-83503608D01*
X156562686Y-83569500D01*
X156562683Y-83569502D01*
X156469502Y-83662683D01*
X156469500Y-83662686D01*
X156403608Y-83776812D01*
X156369500Y-83904108D01*
X156369500Y-84035891D01*
X156403608Y-84163187D01*
X156436554Y-84220250D01*
X156469500Y-84277314D01*
X156562686Y-84370500D01*
X156676814Y-84436392D01*
X156804108Y-84470500D01*
X156804110Y-84470500D01*
X156935890Y-84470500D01*
X156935892Y-84470500D01*
X157063186Y-84436392D01*
X157071921Y-84431348D01*
X157139820Y-84414874D01*
X157205848Y-84437724D01*
X157249040Y-84492644D01*
X157257924Y-84538856D01*
X157254205Y-88317464D01*
X157234454Y-88384484D01*
X157181605Y-88430187D01*
X157112437Y-88440062D01*
X157095124Y-88435305D01*
X157094986Y-88435823D01*
X157087136Y-88433719D01*
X157087135Y-88433719D01*
X156940766Y-88394500D01*
X156789234Y-88394500D01*
X156642863Y-88433719D01*
X156511635Y-88509485D01*
X156511632Y-88509487D01*
X156404487Y-88616632D01*
X156404485Y-88616635D01*
X156328719Y-88747863D01*
X156289500Y-88894234D01*
X156289500Y-89045765D01*
X156328719Y-89192136D01*
X156346874Y-89223580D01*
X156404485Y-89323365D01*
X156511635Y-89430515D01*
X156625281Y-89496129D01*
X156633979Y-89501151D01*
X156642865Y-89506281D01*
X156789234Y-89545500D01*
X156789236Y-89545500D01*
X156940764Y-89545500D01*
X156940766Y-89545500D01*
X157087135Y-89506281D01*
X157087136Y-89506280D01*
X157094986Y-89504177D01*
X157095768Y-89507098D01*
X157150888Y-89501151D01*
X157213379Y-89532401D01*
X157249055Y-89592476D01*
X157252919Y-89623311D01*
X157251411Y-91156087D01*
X157231660Y-91223107D01*
X157189412Y-91263351D01*
X157144086Y-91289520D01*
X157069521Y-91364085D01*
X157016794Y-91455410D01*
X157016793Y-91455413D01*
X156989500Y-91557273D01*
X156989500Y-91662727D01*
X157016793Y-91764587D01*
X157069520Y-91855913D01*
X157144087Y-91930480D01*
X157188518Y-91956132D01*
X157236733Y-92006698D01*
X157250517Y-92063640D01*
X157249999Y-92589965D01*
X157258717Y-93444334D01*
X157239717Y-93511571D01*
X157187383Y-93557862D01*
X157134327Y-93569598D01*
X154253604Y-93560394D01*
X154186628Y-93540496D01*
X154141042Y-93487546D01*
X154130000Y-93436395D01*
X154130000Y-85720559D01*
X154134225Y-85688466D01*
X154150500Y-85627727D01*
X154150500Y-85522273D01*
X154134225Y-85461533D01*
X154130000Y-85429440D01*
X154130000Y-84582768D01*
X154149685Y-84515729D01*
X154202489Y-84469974D01*
X154271647Y-84460030D01*
X154286082Y-84462990D01*
X154314108Y-84470500D01*
X154314110Y-84470500D01*
X154445890Y-84470500D01*
X154445892Y-84470500D01*
X154573186Y-84436392D01*
X154687314Y-84370500D01*
X154780500Y-84277314D01*
X154846392Y-84163186D01*
X154880500Y-84035892D01*
X154880500Y-83904108D01*
X154846392Y-83776814D01*
X154780500Y-83662686D01*
X154687314Y-83569500D01*
X154609599Y-83524631D01*
X154573187Y-83503608D01*
X154509539Y-83486554D01*
X154445892Y-83469500D01*
X154314108Y-83469500D01*
X154286090Y-83477007D01*
X154216241Y-83475342D01*
X154158379Y-83436178D01*
X154130877Y-83371949D01*
X154130000Y-83357231D01*
X154130000Y-81962649D01*
X154146612Y-81900650D01*
X154173207Y-81854587D01*
X154200500Y-81752727D01*
X154200500Y-81690476D01*
X154209144Y-81661035D01*
X154215668Y-81631049D01*
X154219422Y-81626033D01*
X154220185Y-81623437D01*
X154236819Y-81602795D01*
X154293295Y-81546319D01*
X154354618Y-81512834D01*
X154380976Y-81510000D01*
X157136784Y-81510000D01*
X157203823Y-81529685D01*
G37*
%TD.AperFunction*%
%TD*%
%TA.AperFunction,Conductor*%
%TO.N,/Logic/Rail_2*%
G36*
X107813039Y-82659685D02*
G01*
X107858794Y-82712489D01*
X107870000Y-82764000D01*
X107870000Y-83897706D01*
X107850315Y-83964745D01*
X107808002Y-84005091D01*
X107748387Y-84039511D01*
X107748384Y-84039513D01*
X107664513Y-84123384D01*
X107664511Y-84123387D01*
X107605201Y-84226114D01*
X107574500Y-84340691D01*
X107574500Y-84459309D01*
X107605201Y-84573886D01*
X107664511Y-84676613D01*
X107748387Y-84760489D01*
X107808001Y-84794907D01*
X107856215Y-84845472D01*
X107870000Y-84902293D01*
X107870000Y-93396000D01*
X107850315Y-93463039D01*
X107797511Y-93508794D01*
X107746000Y-93520000D01*
X104854111Y-93520000D01*
X104787072Y-93500315D01*
X104741317Y-93447511D01*
X104730111Y-93395889D01*
X104731349Y-92015834D01*
X104751093Y-91948816D01*
X104793349Y-91908562D01*
X104807314Y-91900500D01*
X104900500Y-91807314D01*
X104966392Y-91693186D01*
X105000500Y-91565892D01*
X105000500Y-91434108D01*
X104966392Y-91306814D01*
X104900500Y-91192686D01*
X104807314Y-91099500D01*
X104807311Y-91099498D01*
X104807307Y-91099495D01*
X104794270Y-91091968D01*
X104746056Y-91041400D01*
X104732274Y-90984476D01*
X104739647Y-82763889D01*
X104759392Y-82696867D01*
X104812237Y-82651159D01*
X104863647Y-82640000D01*
X107746000Y-82640000D01*
X107813039Y-82659685D01*
G37*
%TD.AperFunction*%
%TD*%
%TA.AperFunction,Conductor*%
%TO.N,/Power/VBUS_Finale*%
G36*
X152102899Y-81778422D02*
G01*
X152164072Y-81812181D01*
X152197283Y-81873653D01*
X152200000Y-81899469D01*
X152200000Y-83400000D01*
X152216253Y-93574308D01*
X152216304Y-93605802D01*
X152196726Y-93672873D01*
X152143996Y-93718712D01*
X152092304Y-93730000D01*
X149335599Y-93730000D01*
X149334203Y-93729590D01*
X149332800Y-93729968D01*
X149300779Y-93719775D01*
X149268560Y-93710315D01*
X149267160Y-93709074D01*
X149266222Y-93708776D01*
X149240077Y-93685067D01*
X149148398Y-93574308D01*
X149120815Y-93510113D01*
X149119920Y-93495464D01*
X149100156Y-82487017D01*
X149119720Y-82419943D01*
X149172442Y-82374093D01*
X149181762Y-82370268D01*
X151266021Y-81612355D01*
X151335293Y-81607843D01*
X152102899Y-81778422D01*
G37*
%TD.AperFunction*%
%TD*%
M02*
