%TF.GenerationSoftware,KiCad,Pcbnew,9.0.0*%
%TF.CreationDate,2025-05-20T17:11:30+02:00*%
%TF.ProjectId,CYPD3177_3.3V_V2_+_OLED,43595044-3331-4373-975f-332e33565f56,rev?*%
%TF.SameCoordinates,Original*%
%TF.FileFunction,Copper,L2,Inr*%
%TF.FilePolarity,Positive*%
%FSLAX46Y46*%
G04 Gerber Fmt 4.6, Leading zero omitted, Abs format (unit mm)*
G04 Created by KiCad (PCBNEW 9.0.0) date 2025-05-20 17:11:30*
%MOMM*%
%LPD*%
G01*
G04 APERTURE LIST*
G04 Aperture macros list*
%AMRoundRect*
0 Rectangle with rounded corners*
0 $1 Rounding radius*
0 $2 $3 $4 $5 $6 $7 $8 $9 X,Y pos of 4 corners*
0 Add a 4 corners polygon primitive as box body*
4,1,4,$2,$3,$4,$5,$6,$7,$8,$9,$2,$3,0*
0 Add four circle primitives for the rounded corners*
1,1,$1+$1,$2,$3*
1,1,$1+$1,$4,$5*
1,1,$1+$1,$6,$7*
1,1,$1+$1,$8,$9*
0 Add four rect primitives between the rounded corners*
20,1,$1+$1,$2,$3,$4,$5,0*
20,1,$1+$1,$4,$5,$6,$7,0*
20,1,$1+$1,$6,$7,$8,$9,0*
20,1,$1+$1,$8,$9,$2,$3,0*%
G04 Aperture macros list end*
%TA.AperFunction,ComponentPad*%
%ADD10R,1.700000X1.700000*%
%TD*%
%TA.AperFunction,ComponentPad*%
%ADD11O,1.700000X1.700000*%
%TD*%
%TA.AperFunction,HeatsinkPad*%
%ADD12O,2.100000X1.000000*%
%TD*%
%TA.AperFunction,HeatsinkPad*%
%ADD13O,1.600000X1.000000*%
%TD*%
%TA.AperFunction,ComponentPad*%
%ADD14RoundRect,0.250001X-0.799999X0.799999X-0.799999X-0.799999X0.799999X-0.799999X0.799999X0.799999X0*%
%TD*%
%TA.AperFunction,ComponentPad*%
%ADD15C,2.100000*%
%TD*%
%TA.AperFunction,ComponentPad*%
%ADD16C,1.100000*%
%TD*%
%TA.AperFunction,ComponentPad*%
%ADD17C,0.800000*%
%TD*%
%TA.AperFunction,ViaPad*%
%ADD18C,0.450000*%
%TD*%
%TA.AperFunction,ViaPad*%
%ADD19C,1.200000*%
%TD*%
%TA.AperFunction,ViaPad*%
%ADD20C,0.600000*%
%TD*%
%TA.AperFunction,ViaPad*%
%ADD21C,1.000000*%
%TD*%
G04 APERTURE END LIST*
D10*
%TO.N,+3.3V*%
%TO.C,J8*%
X107920000Y-81290000D03*
D11*
%TO.N,GND*%
X110460000Y-81290000D03*
%TO.N,/Logic/SCL_3.3v*%
X113000000Y-81290000D03*
%TO.N,/Logic/SDA_3.3v*%
X115540000Y-81290000D03*
%TD*%
D10*
%TO.N,+5V*%
%TO.C,J5*%
X118500000Y-92700000D03*
D11*
%TO.N,GND*%
X118500000Y-90160000D03*
%TO.N,/Logic/SCL*%
X118500000Y-87620000D03*
%TO.N,/Logic/SDA*%
X118500000Y-85080000D03*
%TD*%
D12*
%TO.N,GND*%
%TO.C,J1*%
X156365000Y-96180000D03*
D13*
X160545000Y-96180000D03*
D12*
X156365000Y-87540000D03*
D13*
X160545000Y-87540000D03*
%TD*%
D14*
%TO.N,GND*%
%TO.C,J2*%
X103000000Y-84000000D03*
D15*
%TO.N,/Logic/Rail_2*%
X103000000Y-86540000D03*
%TD*%
D10*
%TO.N,/Logic/UPDI*%
%TO.C,J7*%
X125215000Y-81260000D03*
D11*
%TO.N,+5V*%
X127755000Y-81260000D03*
%TO.N,GND*%
X130295000Y-81260000D03*
%TO.N,/Logic/RX*%
X132835000Y-81260000D03*
%TO.N,/Logic/TX*%
X135375000Y-81260000D03*
%TD*%
D16*
%TO.N,*%
%TO.C,SW1*%
X112303503Y-87246497D03*
D17*
X109616497Y-89933503D03*
%TD*%
D18*
%TO.N,/Logic/Buck_Status*%
X141838905Y-96168203D03*
X153800000Y-81700000D03*
D19*
%TO.N,GND*%
X160950000Y-83675000D03*
D20*
X153750000Y-85575000D03*
D18*
X153200000Y-92375000D03*
D20*
X146100000Y-96190000D03*
X147978494Y-83600000D03*
D18*
X104500000Y-91500000D03*
D21*
X155700000Y-82080000D03*
D20*
X139850000Y-92687500D03*
X111350000Y-93070000D03*
D18*
X135680000Y-91770000D03*
D20*
X129750000Y-92050000D03*
X141600000Y-93200000D03*
X108400000Y-91250000D03*
D21*
X139700000Y-84175000D03*
D20*
X116075000Y-88150000D03*
D21*
X110620000Y-87990000D03*
D18*
X127690000Y-90530000D03*
D21*
X155700000Y-85450000D03*
D18*
X129153554Y-96053554D03*
D20*
X148500000Y-91500000D03*
X148626735Y-92348504D03*
D21*
X130600000Y-91850000D03*
D20*
X147900000Y-92950000D03*
D18*
X123000000Y-87990000D03*
D21*
X140700000Y-92937500D03*
D18*
X127379340Y-95610000D03*
X153100000Y-90375000D03*
D21*
X111340000Y-85440000D03*
D20*
X117970000Y-81390000D03*
X128720507Y-92173763D03*
D18*
X143450000Y-96500000D03*
X126009718Y-91647955D03*
X124375000Y-91780000D03*
D21*
X111340000Y-90530000D03*
D20*
X113767748Y-85798421D03*
X129150000Y-91650000D03*
D18*
X133060000Y-91816000D03*
D20*
X152100000Y-81000000D03*
%TD*%
%TA.AperFunction,Conductor*%
%TO.N,GND*%
G36*
X106768153Y-80120185D02*
G01*
X106813908Y-80172989D01*
X106823852Y-80242147D01*
X106814548Y-80274585D01*
X106811575Y-80281319D01*
X106772415Y-80370006D01*
X106772415Y-80370008D01*
X106769500Y-80395131D01*
X106769500Y-82184856D01*
X106769502Y-82184882D01*
X106772413Y-82209987D01*
X106772415Y-82209991D01*
X106817793Y-82312764D01*
X106817794Y-82312765D01*
X106897235Y-82392206D01*
X107000009Y-82437585D01*
X107025135Y-82440500D01*
X108814864Y-82440499D01*
X108814879Y-82440497D01*
X108814882Y-82440497D01*
X108839987Y-82437586D01*
X108839988Y-82437585D01*
X108839991Y-82437585D01*
X108942765Y-82392206D01*
X109022206Y-82312765D01*
X109067585Y-82209991D01*
X109070500Y-82184865D01*
X109070499Y-81443925D01*
X109090183Y-81376888D01*
X109142987Y-81331133D01*
X109212146Y-81321189D01*
X109275702Y-81350214D01*
X109313476Y-81408992D01*
X109316972Y-81424529D01*
X109338317Y-81559293D01*
X109394251Y-81731444D01*
X109394252Y-81731447D01*
X109476434Y-81892734D01*
X109582823Y-82039169D01*
X109710830Y-82167176D01*
X109857265Y-82273565D01*
X110018552Y-82355747D01*
X110018555Y-82355748D01*
X110190706Y-82411682D01*
X110310000Y-82430577D01*
X110310000Y-81767445D01*
X110394174Y-81790000D01*
X110525826Y-81790000D01*
X110610000Y-81767445D01*
X110610000Y-82430576D01*
X110729293Y-82411682D01*
X110901444Y-82355748D01*
X110901447Y-82355747D01*
X111062734Y-82273565D01*
X111209169Y-82167176D01*
X111337176Y-82039169D01*
X111443565Y-81892734D01*
X111525747Y-81731447D01*
X111525748Y-81731444D01*
X111581683Y-81559292D01*
X111607273Y-81397721D01*
X111637202Y-81334586D01*
X111696513Y-81297654D01*
X111766376Y-81298652D01*
X111824609Y-81337261D01*
X111852219Y-81397720D01*
X111877828Y-81559410D01*
X111933787Y-81731636D01*
X111933788Y-81731639D01*
X111989664Y-81841300D01*
X112000202Y-81861982D01*
X112016006Y-81892997D01*
X112122441Y-82039494D01*
X112122445Y-82039499D01*
X112250500Y-82167554D01*
X112250505Y-82167558D01*
X112355121Y-82243565D01*
X112397006Y-82273996D01*
X112473094Y-82312765D01*
X112558360Y-82356211D01*
X112558363Y-82356212D01*
X112636754Y-82381682D01*
X112730591Y-82412171D01*
X112813429Y-82425291D01*
X112909449Y-82440500D01*
X112909454Y-82440500D01*
X113090551Y-82440500D01*
X113178232Y-82426612D01*
X113269409Y-82412171D01*
X113441639Y-82356211D01*
X113602994Y-82273996D01*
X113749501Y-82167553D01*
X113877553Y-82039501D01*
X113983996Y-81892994D01*
X114066211Y-81731639D01*
X114122171Y-81559409D01*
X114139026Y-81452993D01*
X114147527Y-81399321D01*
X114177456Y-81336186D01*
X114236768Y-81299255D01*
X114306630Y-81300253D01*
X114364863Y-81338863D01*
X114392473Y-81399321D01*
X114417829Y-81559410D01*
X114473787Y-81731636D01*
X114473788Y-81731639D01*
X114529664Y-81841300D01*
X114540202Y-81861982D01*
X114556006Y-81892997D01*
X114662441Y-82039494D01*
X114662445Y-82039499D01*
X114790500Y-82167554D01*
X114790505Y-82167558D01*
X114895121Y-82243565D01*
X114937006Y-82273996D01*
X115013094Y-82312765D01*
X115098360Y-82356211D01*
X115098363Y-82356212D01*
X115176754Y-82381682D01*
X115270591Y-82412171D01*
X115353429Y-82425291D01*
X115449449Y-82440500D01*
X115449454Y-82440500D01*
X115630551Y-82440500D01*
X115718232Y-82426612D01*
X115809409Y-82412171D01*
X115981639Y-82356211D01*
X116142994Y-82273996D01*
X116289501Y-82167553D01*
X116417553Y-82039501D01*
X116523996Y-81892994D01*
X116606211Y-81731639D01*
X116662171Y-81559409D01*
X116679026Y-81452993D01*
X116690500Y-81380551D01*
X116690500Y-81199448D01*
X116674019Y-81095397D01*
X116662171Y-81020591D01*
X116619100Y-80888030D01*
X116606212Y-80848363D01*
X116606211Y-80848360D01*
X116571549Y-80780334D01*
X116523996Y-80687006D01*
X116485614Y-80634177D01*
X116417558Y-80540505D01*
X116417554Y-80540500D01*
X116289501Y-80412447D01*
X116248201Y-80382441D01*
X116168889Y-80324817D01*
X116126224Y-80269489D01*
X116120245Y-80199875D01*
X116152850Y-80138080D01*
X116213689Y-80103723D01*
X116241775Y-80100500D01*
X123982868Y-80100500D01*
X124049907Y-80120185D01*
X124095662Y-80172989D01*
X124105606Y-80242147D01*
X124096302Y-80274584D01*
X124093329Y-80281319D01*
X124067415Y-80340007D01*
X124067415Y-80340008D01*
X124064500Y-80365131D01*
X124064500Y-82154856D01*
X124064502Y-82154882D01*
X124067413Y-82179987D01*
X124067415Y-82179991D01*
X124112793Y-82282764D01*
X124112794Y-82282765D01*
X124192235Y-82362206D01*
X124295009Y-82407585D01*
X124320135Y-82410500D01*
X126109864Y-82410499D01*
X126109879Y-82410497D01*
X126109882Y-82410497D01*
X126134987Y-82407586D01*
X126134988Y-82407585D01*
X126134991Y-82407585D01*
X126237765Y-82362206D01*
X126317206Y-82282765D01*
X126362585Y-82179991D01*
X126365500Y-82154865D01*
X126365499Y-81417125D01*
X126385183Y-81350089D01*
X126437987Y-81304334D01*
X126507146Y-81294390D01*
X126570702Y-81323415D01*
X126608476Y-81382193D01*
X126611972Y-81397729D01*
X126632829Y-81529410D01*
X126688787Y-81701636D01*
X126688788Y-81701639D01*
X126733562Y-81789511D01*
X126770491Y-81861988D01*
X126771006Y-81862997D01*
X126877441Y-82009494D01*
X126877445Y-82009499D01*
X127005500Y-82137554D01*
X127005505Y-82137558D01*
X127133287Y-82230396D01*
X127152006Y-82243996D01*
X127228094Y-82282765D01*
X127313360Y-82326211D01*
X127313363Y-82326212D01*
X127399476Y-82354191D01*
X127485591Y-82382171D01*
X127568429Y-82395291D01*
X127664449Y-82410500D01*
X127664454Y-82410500D01*
X127845551Y-82410500D01*
X127932259Y-82396765D01*
X128024409Y-82382171D01*
X128196639Y-82326211D01*
X128357994Y-82243996D01*
X128504501Y-82137553D01*
X128632553Y-82009501D01*
X128738996Y-81862994D01*
X128821211Y-81701639D01*
X128877171Y-81529409D01*
X128902780Y-81367720D01*
X128932709Y-81304585D01*
X128992021Y-81267654D01*
X129061883Y-81268652D01*
X129120116Y-81307262D01*
X129147726Y-81367720D01*
X129173317Y-81529293D01*
X129229251Y-81701444D01*
X129229252Y-81701447D01*
X129311434Y-81862734D01*
X129417823Y-82009169D01*
X129545830Y-82137176D01*
X129692265Y-82243565D01*
X129853552Y-82325747D01*
X129853555Y-82325748D01*
X130025706Y-82381682D01*
X130145000Y-82400577D01*
X130145000Y-81737445D01*
X130229174Y-81760000D01*
X130360826Y-81760000D01*
X130445000Y-81737445D01*
X130445000Y-82400576D01*
X130564293Y-82381682D01*
X130736444Y-82325748D01*
X130736447Y-82325747D01*
X130897734Y-82243565D01*
X131044169Y-82137176D01*
X131172176Y-82009169D01*
X131278565Y-81862734D01*
X131360747Y-81701447D01*
X131360748Y-81701444D01*
X131416683Y-81529292D01*
X131442273Y-81367721D01*
X131472202Y-81304586D01*
X131531513Y-81267654D01*
X131601376Y-81268652D01*
X131659609Y-81307261D01*
X131687219Y-81367720D01*
X131712828Y-81529410D01*
X131768787Y-81701636D01*
X131768788Y-81701639D01*
X131813562Y-81789511D01*
X131850491Y-81861988D01*
X131851006Y-81862997D01*
X131957441Y-82009494D01*
X131957445Y-82009499D01*
X132085500Y-82137554D01*
X132085505Y-82137558D01*
X132213287Y-82230396D01*
X132232006Y-82243996D01*
X132308094Y-82282765D01*
X132393360Y-82326211D01*
X132393363Y-82326212D01*
X132479476Y-82354191D01*
X132565591Y-82382171D01*
X132648429Y-82395291D01*
X132744449Y-82410500D01*
X132744454Y-82410500D01*
X132925551Y-82410500D01*
X133012259Y-82396765D01*
X133104409Y-82382171D01*
X133276639Y-82326211D01*
X133437994Y-82243996D01*
X133584501Y-82137553D01*
X133712553Y-82009501D01*
X133818996Y-81862994D01*
X133901211Y-81701639D01*
X133957171Y-81529409D01*
X133973782Y-81424529D01*
X133982527Y-81369321D01*
X134012456Y-81306186D01*
X134071768Y-81269255D01*
X134141630Y-81270253D01*
X134199863Y-81308863D01*
X134227473Y-81369321D01*
X134252829Y-81529410D01*
X134308787Y-81701636D01*
X134308788Y-81701639D01*
X134353562Y-81789511D01*
X134390491Y-81861988D01*
X134391006Y-81862997D01*
X134497441Y-82009494D01*
X134497445Y-82009499D01*
X134625500Y-82137554D01*
X134625505Y-82137558D01*
X134753287Y-82230396D01*
X134772006Y-82243996D01*
X134848094Y-82282765D01*
X134933360Y-82326211D01*
X134933363Y-82326212D01*
X135019476Y-82354191D01*
X135105591Y-82382171D01*
X135188429Y-82395291D01*
X135284449Y-82410500D01*
X135284454Y-82410500D01*
X135465551Y-82410500D01*
X135552259Y-82396765D01*
X135644409Y-82382171D01*
X135816639Y-82326211D01*
X135977994Y-82243996D01*
X136124501Y-82137553D01*
X136252553Y-82009501D01*
X136358996Y-81862994D01*
X136441211Y-81701639D01*
X136497171Y-81529409D01*
X136513782Y-81424529D01*
X136525500Y-81350551D01*
X136525500Y-81169451D01*
X136524604Y-81163793D01*
X136524604Y-81163791D01*
X136522820Y-81152525D01*
X139149500Y-81152525D01*
X139149500Y-81297475D01*
X139187016Y-81437485D01*
X139187017Y-81437488D01*
X139259488Y-81563011D01*
X139259493Y-81563017D01*
X139367005Y-81670529D01*
X139400490Y-81731852D01*
X139395506Y-81801544D01*
X139367012Y-81845885D01*
X139359513Y-81853384D01*
X139359511Y-81853387D01*
X139300201Y-81956114D01*
X139269500Y-82070691D01*
X139269500Y-82189309D01*
X139300201Y-82303886D01*
X139359511Y-82406613D01*
X139443387Y-82490489D01*
X139546114Y-82549799D01*
X139660691Y-82580500D01*
X139660694Y-82580500D01*
X139779306Y-82580500D01*
X139779309Y-82580500D01*
X139893886Y-82549799D01*
X139996613Y-82490489D01*
X140080489Y-82406613D01*
X140139799Y-82303886D01*
X140170500Y-82189309D01*
X140170500Y-82090691D01*
X141399500Y-82090691D01*
X141399500Y-82209309D01*
X141430201Y-82323886D01*
X141489511Y-82426613D01*
X141573387Y-82510489D01*
X141676114Y-82569799D01*
X141790691Y-82600500D01*
X141790694Y-82600500D01*
X141909306Y-82600500D01*
X141909309Y-82600500D01*
X142023886Y-82569799D01*
X142126613Y-82510489D01*
X142210489Y-82426613D01*
X142269799Y-82323886D01*
X142300500Y-82209309D01*
X142300500Y-82127525D01*
X150849500Y-82127525D01*
X150849500Y-82272475D01*
X150886484Y-82410499D01*
X150887017Y-82412488D01*
X150959488Y-82538011D01*
X150959490Y-82538013D01*
X150959491Y-82538015D01*
X151061985Y-82640509D01*
X151061986Y-82640510D01*
X151061988Y-82640511D01*
X151187511Y-82712982D01*
X151187512Y-82712982D01*
X151187515Y-82712984D01*
X151327525Y-82750500D01*
X151327528Y-82750500D01*
X151472472Y-82750500D01*
X151472475Y-82750500D01*
X151612485Y-82712984D01*
X151738015Y-82640509D01*
X151840509Y-82538015D01*
X151912984Y-82412485D01*
X151950500Y-82272475D01*
X151950500Y-82127525D01*
X151912984Y-81987515D01*
X151906400Y-81976112D01*
X151840511Y-81861988D01*
X151840506Y-81861982D01*
X151738017Y-81759493D01*
X151738011Y-81759488D01*
X151612488Y-81687017D01*
X151612489Y-81687017D01*
X151601006Y-81683940D01*
X151472475Y-81649500D01*
X151327525Y-81649500D01*
X151198993Y-81683940D01*
X151187511Y-81687017D01*
X151061988Y-81759488D01*
X151061982Y-81759493D01*
X150959493Y-81861982D01*
X150959488Y-81861988D01*
X150887017Y-81987511D01*
X150887016Y-81987515D01*
X150849500Y-82127525D01*
X142300500Y-82127525D01*
X142300500Y-82090691D01*
X142269799Y-81976114D01*
X142210489Y-81873387D01*
X142126613Y-81789511D01*
X142023886Y-81730201D01*
X141909309Y-81699500D01*
X141790691Y-81699500D01*
X141676114Y-81730201D01*
X141676112Y-81730201D01*
X141676112Y-81730202D01*
X141573387Y-81789511D01*
X141573384Y-81789513D01*
X141489513Y-81873384D01*
X141489511Y-81873387D01*
X141430201Y-81976114D01*
X141399500Y-82090691D01*
X140170500Y-82090691D01*
X140170500Y-82070691D01*
X140139799Y-81956114D01*
X140080489Y-81853387D01*
X140052992Y-81825890D01*
X140019508Y-81764566D01*
X140024494Y-81694875D01*
X140052990Y-81650533D01*
X140140509Y-81563015D01*
X140212984Y-81437485D01*
X140250500Y-81297475D01*
X140250500Y-81152525D01*
X140212984Y-81012515D01*
X140208303Y-81004408D01*
X140140511Y-80886988D01*
X140140506Y-80886982D01*
X140038017Y-80784493D01*
X140038011Y-80784488D01*
X139912488Y-80712017D01*
X139912489Y-80712017D01*
X139897990Y-80708132D01*
X139772475Y-80674500D01*
X139627525Y-80674500D01*
X139502010Y-80708132D01*
X139487511Y-80712017D01*
X139361988Y-80784488D01*
X139361982Y-80784493D01*
X139259493Y-80886982D01*
X139259488Y-80886988D01*
X139187017Y-81012511D01*
X139187016Y-81012515D01*
X139149500Y-81152525D01*
X136522820Y-81152525D01*
X136497171Y-80990589D01*
X136441212Y-80818363D01*
X136441211Y-80818360D01*
X136409867Y-80756846D01*
X136358996Y-80657006D01*
X136337394Y-80627273D01*
X136252558Y-80510505D01*
X136252554Y-80510500D01*
X136124495Y-80382441D01*
X136045182Y-80324818D01*
X136002516Y-80269489D01*
X135996537Y-80199875D01*
X136029142Y-80138080D01*
X136089981Y-80103723D01*
X136118067Y-80100500D01*
X153539949Y-80100500D01*
X153606988Y-80120185D01*
X153652743Y-80172989D01*
X153662687Y-80242147D01*
X153633662Y-80305703D01*
X153601952Y-80331884D01*
X153564244Y-80353656D01*
X153554084Y-80359522D01*
X153479521Y-80434085D01*
X153426794Y-80525410D01*
X153426793Y-80525413D01*
X153399500Y-80627273D01*
X153399500Y-80732727D01*
X153423977Y-80824075D01*
X153426793Y-80834586D01*
X153426794Y-80834589D01*
X153434812Y-80848477D01*
X153479520Y-80925913D01*
X153554087Y-81000480D01*
X153596346Y-81024878D01*
X153644561Y-81075444D01*
X153657784Y-81144051D01*
X153631816Y-81208916D01*
X153596346Y-81239651D01*
X153492686Y-81299500D01*
X153492683Y-81299502D01*
X153399502Y-81392683D01*
X153399500Y-81392686D01*
X153333608Y-81506812D01*
X153299500Y-81634108D01*
X153299500Y-81765891D01*
X153333608Y-81893187D01*
X153366554Y-81950250D01*
X153399500Y-82007314D01*
X153492686Y-82100500D01*
X153606814Y-82166392D01*
X153734108Y-82200500D01*
X153734110Y-82200500D01*
X153865890Y-82200500D01*
X153865892Y-82200500D01*
X153993186Y-82166392D01*
X154107314Y-82100500D01*
X154200500Y-82007314D01*
X154266392Y-81893186D01*
X154300500Y-81765892D01*
X154300500Y-81634108D01*
X154266392Y-81506814D01*
X154200500Y-81392686D01*
X154107314Y-81299500D01*
X154003653Y-81239651D01*
X153955438Y-81189083D01*
X153942216Y-81120476D01*
X153968184Y-81055612D01*
X154003649Y-81024880D01*
X154045913Y-81000480D01*
X154120480Y-80925913D01*
X154173207Y-80834587D01*
X154200500Y-80732727D01*
X154200500Y-80627273D01*
X154173207Y-80525413D01*
X154120480Y-80434087D01*
X154045913Y-80359520D01*
X153998048Y-80331885D01*
X153949835Y-80281319D01*
X153936613Y-80212712D01*
X153962581Y-80147848D01*
X154019495Y-80107320D01*
X154060051Y-80100500D01*
X161996511Y-80100500D01*
X162000389Y-80100561D01*
X162066275Y-80102622D01*
X162079452Y-80103741D01*
X162234101Y-80125238D01*
X162252975Y-80129381D01*
X162397654Y-80173208D01*
X162418296Y-80181551D01*
X162539321Y-80243634D01*
X162560201Y-80257149D01*
X162657402Y-80334935D01*
X162676244Y-80353656D01*
X162753655Y-80449132D01*
X162768152Y-80471585D01*
X162830973Y-80596701D01*
X162838182Y-80614315D01*
X162859610Y-80680822D01*
X162862735Y-80692416D01*
X162880712Y-80774811D01*
X162882614Y-80785942D01*
X162894233Y-80879378D01*
X162895085Y-80889803D01*
X162899404Y-80999531D01*
X162899500Y-81004408D01*
X162899500Y-95995324D01*
X162899393Y-96000479D01*
X162897084Y-96055975D01*
X162895789Y-96069412D01*
X162872535Y-96222748D01*
X162868281Y-96241180D01*
X162821849Y-96389596D01*
X162813592Y-96409640D01*
X162748714Y-96534792D01*
X162735495Y-96555135D01*
X162655314Y-96655469D01*
X162636973Y-96674024D01*
X162540322Y-96753112D01*
X162518106Y-96767622D01*
X162393870Y-96830944D01*
X162376239Y-96838280D01*
X162311250Y-96859616D01*
X162299540Y-96862835D01*
X162247483Y-96874434D01*
X162223333Y-96879815D01*
X162219235Y-96880728D01*
X162207923Y-96882704D01*
X162117468Y-96894217D01*
X162106816Y-96895108D01*
X162000562Y-96899399D01*
X161995558Y-96899500D01*
X161556234Y-96899500D01*
X161489195Y-96879815D01*
X161443440Y-96827011D01*
X161433496Y-96757853D01*
X161462521Y-96694297D01*
X161465296Y-96691316D01*
X161466401Y-96689969D01*
X161553947Y-96558948D01*
X161553952Y-96558939D01*
X161614255Y-96413353D01*
X161614258Y-96413343D01*
X161630836Y-96330000D01*
X161104808Y-96330000D01*
X161124556Y-96295796D01*
X161145000Y-96219496D01*
X161145000Y-96140504D01*
X161124556Y-96064204D01*
X161104808Y-96030000D01*
X161630836Y-96030000D01*
X161630836Y-96029999D01*
X161614258Y-95946656D01*
X161614255Y-95946646D01*
X161553952Y-95801060D01*
X161553947Y-95801051D01*
X161466401Y-95670030D01*
X161466398Y-95670026D01*
X161354973Y-95558601D01*
X161354969Y-95558598D01*
X161223948Y-95471052D01*
X161223939Y-95471047D01*
X161078351Y-95410743D01*
X161078343Y-95410741D01*
X160923797Y-95380000D01*
X160695000Y-95380000D01*
X160695000Y-95880000D01*
X160395000Y-95880000D01*
X160395000Y-95380000D01*
X160166202Y-95380000D01*
X160011656Y-95410741D01*
X160011648Y-95410743D01*
X159866060Y-95471047D01*
X159866051Y-95471052D01*
X159735030Y-95558598D01*
X159735026Y-95558601D01*
X159623601Y-95670026D01*
X159623598Y-95670030D01*
X159536052Y-95801051D01*
X159536047Y-95801060D01*
X159475744Y-95946646D01*
X159475741Y-95946656D01*
X159459163Y-96029999D01*
X159459164Y-96030000D01*
X159985192Y-96030000D01*
X159965444Y-96064204D01*
X159945000Y-96140504D01*
X159945000Y-96219496D01*
X159965444Y-96295796D01*
X159985192Y-96330000D01*
X159459163Y-96330000D01*
X159475741Y-96413343D01*
X159475744Y-96413353D01*
X159536047Y-96558939D01*
X159536052Y-96558948D01*
X159623598Y-96689969D01*
X159627464Y-96694680D01*
X159625896Y-96695966D01*
X159654932Y-96749142D01*
X159649948Y-96818834D01*
X159608076Y-96874767D01*
X159542612Y-96899184D01*
X159533766Y-96899500D01*
X157626234Y-96899500D01*
X157559195Y-96879815D01*
X157513440Y-96827011D01*
X157503496Y-96757853D01*
X157532521Y-96694297D01*
X157535296Y-96691316D01*
X157536401Y-96689969D01*
X157623947Y-96558948D01*
X157623952Y-96558939D01*
X157684255Y-96413353D01*
X157684258Y-96413343D01*
X157700836Y-96330000D01*
X157174808Y-96330000D01*
X157194556Y-96295796D01*
X157215000Y-96219496D01*
X157215000Y-96140504D01*
X157194556Y-96064204D01*
X157174808Y-96030000D01*
X157700836Y-96030000D01*
X157700836Y-96029999D01*
X157684258Y-95946656D01*
X157684255Y-95946646D01*
X157623952Y-95801060D01*
X157623947Y-95801051D01*
X157536401Y-95670030D01*
X157536398Y-95670026D01*
X157424973Y-95558601D01*
X157424969Y-95558598D01*
X157293948Y-95471052D01*
X157293933Y-95471044D01*
X157272333Y-95462097D01*
X157217930Y-95418255D01*
X157195866Y-95351961D01*
X157213146Y-95284262D01*
X157250897Y-95244434D01*
X157263733Y-95235858D01*
X157350858Y-95148733D01*
X157419311Y-95046286D01*
X157466463Y-94932452D01*
X157487334Y-94827525D01*
X157949500Y-94827525D01*
X157949500Y-94972475D01*
X157983537Y-95099500D01*
X157987017Y-95112488D01*
X158059488Y-95238011D01*
X158059490Y-95238013D01*
X158059491Y-95238015D01*
X158161985Y-95340509D01*
X158161986Y-95340510D01*
X158161988Y-95340511D01*
X158287511Y-95412982D01*
X158287512Y-95412982D01*
X158287515Y-95412984D01*
X158427525Y-95450500D01*
X158427528Y-95450500D01*
X158572472Y-95450500D01*
X158572475Y-95450500D01*
X158712485Y-95412984D01*
X158838015Y-95340509D01*
X158940509Y-95238015D01*
X159012984Y-95112485D01*
X159050500Y-94972475D01*
X159050500Y-94827525D01*
X159012984Y-94687515D01*
X158999746Y-94664587D01*
X158940511Y-94561988D01*
X158940506Y-94561982D01*
X158890705Y-94512181D01*
X158857220Y-94450858D01*
X158862204Y-94381166D01*
X158904076Y-94325233D01*
X158969540Y-94300816D01*
X158978386Y-94300500D01*
X159072472Y-94300500D01*
X159072475Y-94300500D01*
X159212485Y-94262984D01*
X159338015Y-94190509D01*
X159440509Y-94088015D01*
X159512984Y-93962485D01*
X159550500Y-93822475D01*
X159550500Y-93677525D01*
X159512984Y-93537515D01*
X159510714Y-93533584D01*
X159440511Y-93411988D01*
X159440506Y-93411982D01*
X159338017Y-93309493D01*
X159338011Y-93309488D01*
X159212488Y-93237017D01*
X159212489Y-93237017D01*
X159184756Y-93229586D01*
X159072475Y-93199500D01*
X158927525Y-93199500D01*
X158815244Y-93229586D01*
X158787511Y-93237017D01*
X158661988Y-93309488D01*
X158661982Y-93309493D01*
X158559493Y-93411982D01*
X158559488Y-93411988D01*
X158487017Y-93537511D01*
X158483190Y-93551793D01*
X158449500Y-93677525D01*
X158449500Y-93822475D01*
X158477106Y-93925499D01*
X158487017Y-93962488D01*
X158559488Y-94088011D01*
X158559493Y-94088017D01*
X158609295Y-94137819D01*
X158642780Y-94199142D01*
X158637796Y-94268834D01*
X158595924Y-94324767D01*
X158530460Y-94349184D01*
X158521614Y-94349500D01*
X158427525Y-94349500D01*
X158310329Y-94380903D01*
X158287511Y-94387017D01*
X158161988Y-94459488D01*
X158161982Y-94459493D01*
X158059493Y-94561982D01*
X158059488Y-94561988D01*
X157987017Y-94687511D01*
X157987016Y-94687515D01*
X157949500Y-94827525D01*
X157487334Y-94827525D01*
X157490500Y-94811606D01*
X157490500Y-94688394D01*
X157466463Y-94567548D01*
X157419311Y-94453714D01*
X157419310Y-94453713D01*
X157419307Y-94453707D01*
X157350858Y-94351267D01*
X157350855Y-94351263D01*
X157263736Y-94264144D01*
X157263732Y-94264141D01*
X157161292Y-94195692D01*
X157161283Y-94195687D01*
X157047454Y-94148538D01*
X157047455Y-94148538D01*
X157047452Y-94148537D01*
X157047448Y-94148536D01*
X157047444Y-94148535D01*
X156926610Y-94124500D01*
X156926606Y-94124500D01*
X156803394Y-94124500D01*
X156803389Y-94124500D01*
X156682555Y-94148535D01*
X156682545Y-94148538D01*
X156568716Y-94195687D01*
X156568707Y-94195692D01*
X156466267Y-94264141D01*
X156466263Y-94264144D01*
X156379144Y-94351263D01*
X156379141Y-94351267D01*
X156310692Y-94453707D01*
X156310687Y-94453716D01*
X156263538Y-94567545D01*
X156263535Y-94567555D01*
X156239500Y-94688389D01*
X156239500Y-94811610D01*
X156263535Y-94932444D01*
X156263537Y-94932452D01*
X156267117Y-94941094D01*
X156310687Y-95046283D01*
X156310692Y-95046292D01*
X156379141Y-95148732D01*
X156379144Y-95148736D01*
X156466261Y-95235853D01*
X156469663Y-95238645D01*
X156508999Y-95296390D01*
X156515000Y-95334500D01*
X156515000Y-95880000D01*
X156215000Y-95880000D01*
X156215000Y-95380000D01*
X155736202Y-95380000D01*
X155581656Y-95410741D01*
X155581648Y-95410743D01*
X155436060Y-95471047D01*
X155436051Y-95471052D01*
X155305030Y-95558598D01*
X155305026Y-95558601D01*
X155193601Y-95670026D01*
X155193598Y-95670030D01*
X155106052Y-95801051D01*
X155106047Y-95801060D01*
X155045744Y-95946646D01*
X155045741Y-95946656D01*
X155029163Y-96029999D01*
X155029164Y-96030000D01*
X155555192Y-96030000D01*
X155535444Y-96064204D01*
X155515000Y-96140504D01*
X155515000Y-96219496D01*
X155535444Y-96295796D01*
X155555192Y-96330000D01*
X155029163Y-96330000D01*
X155045741Y-96413343D01*
X155045744Y-96413353D01*
X155106047Y-96558939D01*
X155106052Y-96558948D01*
X155193598Y-96689969D01*
X155197464Y-96694680D01*
X155195896Y-96695966D01*
X155224932Y-96749142D01*
X155219948Y-96818834D01*
X155178076Y-96874767D01*
X155112612Y-96899184D01*
X155103766Y-96899500D01*
X141985324Y-96899500D01*
X141918285Y-96879815D01*
X141872530Y-96827011D01*
X141862586Y-96757853D01*
X141891611Y-96694297D01*
X141950389Y-96656523D01*
X141953209Y-96655730D01*
X142032091Y-96634595D01*
X142146219Y-96568703D01*
X142239405Y-96475517D01*
X142305297Y-96361389D01*
X142339405Y-96234095D01*
X142339405Y-96102311D01*
X142305297Y-95975017D01*
X142239405Y-95860889D01*
X142146219Y-95767703D01*
X142089155Y-95734757D01*
X142032092Y-95701811D01*
X141958173Y-95682005D01*
X141904797Y-95667703D01*
X141773013Y-95667703D01*
X141645719Y-95701811D01*
X141645718Y-95701811D01*
X141645716Y-95701812D01*
X141645715Y-95701812D01*
X141532129Y-95767392D01*
X141464229Y-95783865D01*
X141398202Y-95761013D01*
X141355011Y-95706091D01*
X141348370Y-95636538D01*
X141350354Y-95627912D01*
X141370500Y-95552727D01*
X141370500Y-95447273D01*
X141343207Y-95345413D01*
X141290480Y-95254087D01*
X141273666Y-95237273D01*
X142299500Y-95237273D01*
X142299500Y-95342727D01*
X142326793Y-95444587D01*
X142379520Y-95535913D01*
X142454087Y-95610480D01*
X142545413Y-95663207D01*
X142647273Y-95690500D01*
X142647275Y-95690500D01*
X142752725Y-95690500D01*
X142752727Y-95690500D01*
X142854587Y-95663207D01*
X142945913Y-95610480D01*
X142958120Y-95598273D01*
X146899337Y-95598273D01*
X146899337Y-95703727D01*
X146926363Y-95804588D01*
X146926630Y-95805586D01*
X146926631Y-95805589D01*
X146934069Y-95818472D01*
X146979357Y-95896913D01*
X147053924Y-95971480D01*
X147145250Y-96024207D01*
X147247110Y-96051500D01*
X147247112Y-96051500D01*
X147352562Y-96051500D01*
X147352564Y-96051500D01*
X147454424Y-96024207D01*
X147545750Y-95971480D01*
X147620317Y-95896913D01*
X147673044Y-95805587D01*
X147700337Y-95703727D01*
X147700337Y-95598273D01*
X147673044Y-95496413D01*
X147620317Y-95405087D01*
X147545750Y-95330520D01*
X147476433Y-95290500D01*
X147454426Y-95277794D01*
X147454425Y-95277793D01*
X147454424Y-95277793D01*
X147352564Y-95250500D01*
X147247110Y-95250500D01*
X147145250Y-95277793D01*
X147145247Y-95277794D01*
X147053922Y-95330521D01*
X146979358Y-95405085D01*
X146926631Y-95496410D01*
X146926630Y-95496413D01*
X146899337Y-95598273D01*
X142958120Y-95598273D01*
X143020480Y-95535913D01*
X143073207Y-95444587D01*
X143073207Y-95444586D01*
X143076980Y-95438052D01*
X143127547Y-95389836D01*
X143196154Y-95376614D01*
X143261019Y-95402582D01*
X143272048Y-95412371D01*
X143275838Y-95416161D01*
X143367164Y-95468888D01*
X143469024Y-95496181D01*
X143469026Y-95496181D01*
X143574476Y-95496181D01*
X143574478Y-95496181D01*
X143676338Y-95468888D01*
X143767664Y-95416161D01*
X143842231Y-95341594D01*
X143894958Y-95250268D01*
X143922251Y-95148408D01*
X143922251Y-95042954D01*
X143894958Y-94941094D01*
X143842231Y-94849768D01*
X143842225Y-94849762D01*
X143841102Y-94848298D01*
X143840535Y-94846832D01*
X143838167Y-94842730D01*
X143838806Y-94842360D01*
X143815911Y-94783127D01*
X143829953Y-94714683D01*
X143832095Y-94710816D01*
X143836023Y-94704011D01*
X143836025Y-94704010D01*
X143888752Y-94612684D01*
X143911638Y-94527273D01*
X145109500Y-94527273D01*
X145109500Y-94632727D01*
X145136793Y-94734587D01*
X145189520Y-94825913D01*
X145264087Y-94900480D01*
X145355413Y-94953207D01*
X145457273Y-94980500D01*
X145457275Y-94980500D01*
X145562725Y-94980500D01*
X145562727Y-94980500D01*
X145664587Y-94953207D01*
X145755913Y-94900480D01*
X145830480Y-94825913D01*
X145883207Y-94734587D01*
X145910500Y-94632727D01*
X145910500Y-94527273D01*
X145891744Y-94457273D01*
X150359500Y-94457273D01*
X150359500Y-94562727D01*
X150386793Y-94664587D01*
X150439520Y-94755913D01*
X150514087Y-94830480D01*
X150605413Y-94883207D01*
X150707273Y-94910500D01*
X150707275Y-94910500D01*
X150812725Y-94910500D01*
X150812727Y-94910500D01*
X150914587Y-94883207D01*
X151005913Y-94830480D01*
X151080480Y-94755913D01*
X151133207Y-94664587D01*
X151160500Y-94562727D01*
X151160500Y-94457273D01*
X151133207Y-94355413D01*
X151116960Y-94327273D01*
X153729500Y-94327273D01*
X153729500Y-94432727D01*
X153754834Y-94527273D01*
X153756793Y-94534586D01*
X153756794Y-94534589D01*
X153767266Y-94552727D01*
X153809520Y-94625913D01*
X153884087Y-94700480D01*
X153975413Y-94753207D01*
X154077273Y-94780500D01*
X154077275Y-94780500D01*
X154182725Y-94780500D01*
X154182727Y-94780500D01*
X154284587Y-94753207D01*
X154375913Y-94700480D01*
X154450480Y-94625913D01*
X154503207Y-94534587D01*
X154530500Y-94432727D01*
X154530500Y-94327273D01*
X154503207Y-94225413D01*
X154450480Y-94134087D01*
X154375913Y-94059520D01*
X154284587Y-94006793D01*
X154182727Y-93979500D01*
X154077273Y-93979500D01*
X153975413Y-94006793D01*
X153975410Y-94006794D01*
X153884085Y-94059521D01*
X153809521Y-94134085D01*
X153756794Y-94225410D01*
X153756793Y-94225413D01*
X153729500Y-94327273D01*
X151116960Y-94327273D01*
X151080480Y-94264087D01*
X151005913Y-94189520D01*
X150914587Y-94136793D01*
X150812727Y-94109500D01*
X150707273Y-94109500D01*
X150605413Y-94136793D01*
X150605410Y-94136794D01*
X150514085Y-94189521D01*
X150439521Y-94264085D01*
X150386794Y-94355410D01*
X150386794Y-94355411D01*
X150386793Y-94355413D01*
X150359500Y-94457273D01*
X145891744Y-94457273D01*
X145883207Y-94425413D01*
X145830480Y-94334087D01*
X145755913Y-94259520D01*
X145664587Y-94206793D01*
X145562727Y-94179500D01*
X145457273Y-94179500D01*
X145355413Y-94206793D01*
X145355410Y-94206794D01*
X145264085Y-94259521D01*
X145189521Y-94334085D01*
X145136794Y-94425410D01*
X145136793Y-94425413D01*
X145109500Y-94527273D01*
X143911638Y-94527273D01*
X143916045Y-94510824D01*
X143916045Y-94405370D01*
X143888752Y-94303510D01*
X143836025Y-94212184D01*
X143761458Y-94137617D01*
X143670132Y-94084890D01*
X143568272Y-94057597D01*
X143462818Y-94057597D01*
X143360958Y-94084890D01*
X143360955Y-94084891D01*
X143269630Y-94137618D01*
X143195066Y-94212182D01*
X143142339Y-94303507D01*
X143142338Y-94303510D01*
X143115045Y-94405370D01*
X143115045Y-94510824D01*
X143130773Y-94569520D01*
X143142338Y-94612683D01*
X143142339Y-94612686D01*
X143146736Y-94620301D01*
X143195065Y-94704010D01*
X143195069Y-94704014D01*
X143196194Y-94705481D01*
X143196759Y-94706943D01*
X143199129Y-94711048D01*
X143198488Y-94711417D01*
X143203400Y-94724125D01*
X143214993Y-94740405D01*
X143215738Y-94756045D01*
X143221384Y-94770652D01*
X143217366Y-94790231D01*
X143218318Y-94810196D01*
X143207964Y-94836054D01*
X143207341Y-94839096D01*
X143205200Y-94842961D01*
X143144770Y-94947628D01*
X143094203Y-94995844D01*
X143025596Y-95009066D01*
X142960731Y-94983098D01*
X142949702Y-94973309D01*
X142945914Y-94969521D01*
X142945913Y-94969520D01*
X142854587Y-94916793D01*
X142752727Y-94889500D01*
X142647273Y-94889500D01*
X142545413Y-94916793D01*
X142545410Y-94916794D01*
X142454085Y-94969521D01*
X142379521Y-95044085D01*
X142326794Y-95135410D01*
X142326793Y-95135413D01*
X142299500Y-95237273D01*
X141273666Y-95237273D01*
X141215913Y-95179520D01*
X141124587Y-95126793D01*
X141022727Y-95099500D01*
X140917273Y-95099500D01*
X140815413Y-95126793D01*
X140815410Y-95126794D01*
X140724085Y-95179521D01*
X140649521Y-95254085D01*
X140646952Y-95257434D01*
X140644065Y-95259541D01*
X140643773Y-95259834D01*
X140643727Y-95259788D01*
X140590523Y-95298635D01*
X140520777Y-95302788D01*
X140486579Y-95289333D01*
X140464861Y-95276794D01*
X140451470Y-95273206D01*
X140363001Y-95249501D01*
X140257547Y-95249501D01*
X140155687Y-95276794D01*
X140155684Y-95276795D01*
X140064359Y-95329522D01*
X139989795Y-95404086D01*
X139937068Y-95495411D01*
X139937067Y-95495414D01*
X139909774Y-95597274D01*
X139909774Y-95702728D01*
X139936120Y-95801051D01*
X139937067Y-95804587D01*
X139937068Y-95804590D01*
X139939785Y-95809296D01*
X139989794Y-95895914D01*
X140064361Y-95970481D01*
X140155687Y-96023208D01*
X140257547Y-96050501D01*
X140257549Y-96050501D01*
X140362999Y-96050501D01*
X140363001Y-96050501D01*
X140464861Y-96023208D01*
X140556187Y-95970481D01*
X140630754Y-95895914D01*
X140630760Y-95895902D01*
X140633312Y-95892578D01*
X140636196Y-95890471D01*
X140636501Y-95890167D01*
X140636548Y-95890214D01*
X140689736Y-95851370D01*
X140759482Y-95847208D01*
X140793694Y-95860667D01*
X140815413Y-95873207D01*
X140917273Y-95900500D01*
X140917275Y-95900500D01*
X141022725Y-95900500D01*
X141022727Y-95900500D01*
X141124587Y-95873207D01*
X141190907Y-95834916D01*
X141258803Y-95818445D01*
X141324830Y-95841297D01*
X141368021Y-95896218D01*
X141374663Y-95965771D01*
X141372679Y-95974398D01*
X141372514Y-95975015D01*
X141372513Y-95975017D01*
X141338405Y-96102311D01*
X141338405Y-96234095D01*
X141346882Y-96265733D01*
X141372513Y-96361390D01*
X141405459Y-96418453D01*
X141438405Y-96475517D01*
X141531591Y-96568703D01*
X141607410Y-96612477D01*
X141642928Y-96632984D01*
X141645719Y-96634595D01*
X141724579Y-96655725D01*
X141784240Y-96692090D01*
X141814769Y-96754937D01*
X141806474Y-96824312D01*
X141761989Y-96878190D01*
X141695437Y-96899465D01*
X141692486Y-96899500D01*
X127951554Y-96899500D01*
X127884515Y-96879815D01*
X127838760Y-96827011D01*
X127828816Y-96757853D01*
X127857841Y-96694297D01*
X127889553Y-96668113D01*
X127894585Y-96665207D01*
X127894587Y-96665207D01*
X127985913Y-96612480D01*
X128060480Y-96537913D01*
X128113207Y-96446587D01*
X128113207Y-96446584D01*
X128117127Y-96439796D01*
X128167694Y-96391581D01*
X128236301Y-96378357D01*
X128286514Y-96394409D01*
X128310413Y-96408207D01*
X128412273Y-96435500D01*
X128412275Y-96435500D01*
X128517725Y-96435500D01*
X128517727Y-96435500D01*
X128619587Y-96408207D01*
X128710913Y-96355480D01*
X128785480Y-96280913D01*
X128838207Y-96189587D01*
X128865500Y-96087727D01*
X128865500Y-95982273D01*
X128838207Y-95880413D01*
X128785480Y-95789087D01*
X128710913Y-95714520D01*
X128639911Y-95673527D01*
X128639908Y-95673525D01*
X130419500Y-95673525D01*
X130419500Y-95818475D01*
X130456966Y-95958299D01*
X130457017Y-95958488D01*
X130529488Y-96084011D01*
X130529490Y-96084013D01*
X130529491Y-96084015D01*
X130631985Y-96186509D01*
X130631986Y-96186510D01*
X130631988Y-96186511D01*
X130757511Y-96258982D01*
X130757512Y-96258982D01*
X130757515Y-96258984D01*
X130897525Y-96296500D01*
X130897528Y-96296500D01*
X131042472Y-96296500D01*
X131042475Y-96296500D01*
X131182485Y-96258984D01*
X131308015Y-96186509D01*
X131410509Y-96084015D01*
X131458739Y-96000479D01*
X131462613Y-95993769D01*
X131513180Y-95945553D01*
X131581787Y-95932331D01*
X131646652Y-95958299D01*
X131677387Y-95993769D01*
X131694960Y-96024206D01*
X131729491Y-96084015D01*
X131831985Y-96186509D01*
X131831986Y-96186510D01*
X131831988Y-96186511D01*
X131957511Y-96258982D01*
X131957512Y-96258982D01*
X131957515Y-96258984D01*
X132097525Y-96296500D01*
X132097528Y-96296500D01*
X132242472Y-96296500D01*
X132242475Y-96296500D01*
X132382485Y-96258984D01*
X132382486Y-96258983D01*
X132390336Y-96256880D01*
X132391085Y-96259676D01*
X132446670Y-96253687D01*
X132509156Y-96284948D01*
X132532067Y-96313720D01*
X132539511Y-96326613D01*
X132623387Y-96410489D01*
X132726114Y-96469799D01*
X132840691Y-96500500D01*
X132840694Y-96500500D01*
X132959306Y-96500500D01*
X132959309Y-96500500D01*
X133073886Y-96469799D01*
X133176613Y-96410489D01*
X133260489Y-96326613D01*
X133319799Y-96223886D01*
X133350500Y-96109309D01*
X133350500Y-95990691D01*
X133319799Y-95876114D01*
X133260489Y-95773387D01*
X133176613Y-95689511D01*
X133073886Y-95630201D01*
X132959309Y-95599500D01*
X132840691Y-95599500D01*
X132840686Y-95599500D01*
X132828377Y-95602799D01*
X132758528Y-95601135D01*
X132700666Y-95561972D01*
X132687596Y-95540236D01*
X132687048Y-95540553D01*
X132610511Y-95407988D01*
X132610506Y-95407982D01*
X132585888Y-95383364D01*
X137863409Y-95383364D01*
X137863409Y-95488818D01*
X137890642Y-95590452D01*
X137890702Y-95590677D01*
X137890703Y-95590680D01*
X137902135Y-95610480D01*
X137943429Y-95682004D01*
X138017996Y-95756571D01*
X138109322Y-95809298D01*
X138211182Y-95836591D01*
X138211184Y-95836591D01*
X138316634Y-95836591D01*
X138316636Y-95836591D01*
X138418496Y-95809298D01*
X138493345Y-95766083D01*
X138561240Y-95749611D01*
X138627268Y-95772462D01*
X138652953Y-95800710D01*
X138654574Y-95799467D01*
X138659519Y-95805912D01*
X138659520Y-95805913D01*
X138734087Y-95880480D01*
X138825413Y-95933207D01*
X138927273Y-95960500D01*
X138927275Y-95960500D01*
X139032725Y-95960500D01*
X139032727Y-95960500D01*
X139134587Y-95933207D01*
X139225913Y-95880480D01*
X139300480Y-95805913D01*
X139353207Y-95714587D01*
X139380500Y-95612727D01*
X139380500Y-95507273D01*
X139353207Y-95405413D01*
X139300480Y-95314087D01*
X139225913Y-95239520D01*
X139134587Y-95186793D01*
X139032727Y-95159500D01*
X138927273Y-95159500D01*
X138825413Y-95186793D01*
X138825410Y-95186794D01*
X138750566Y-95230006D01*
X138682666Y-95246479D01*
X138616639Y-95223626D01*
X138590958Y-95195378D01*
X138589335Y-95196624D01*
X138584389Y-95190178D01*
X138509823Y-95115612D01*
X138509822Y-95115611D01*
X138418496Y-95062884D01*
X138316636Y-95035591D01*
X138211182Y-95035591D01*
X138109322Y-95062884D01*
X138109319Y-95062885D01*
X138017994Y-95115612D01*
X137943430Y-95190176D01*
X137890703Y-95281501D01*
X137890702Y-95281504D01*
X137863409Y-95383364D01*
X132585888Y-95383364D01*
X132508017Y-95305493D01*
X132508011Y-95305488D01*
X132382488Y-95233017D01*
X132382489Y-95233017D01*
X132347441Y-95223626D01*
X132242475Y-95195500D01*
X132097525Y-95195500D01*
X131992559Y-95223626D01*
X131957511Y-95233017D01*
X131831988Y-95305488D01*
X131831982Y-95305493D01*
X131729493Y-95407982D01*
X131729491Y-95407985D01*
X131677387Y-95498231D01*
X131626819Y-95546446D01*
X131558212Y-95559668D01*
X131493347Y-95533700D01*
X131462613Y-95498231D01*
X131445670Y-95468886D01*
X131410509Y-95407985D01*
X131308015Y-95305491D01*
X131308013Y-95305490D01*
X131308011Y-95305488D01*
X131182488Y-95233017D01*
X131182489Y-95233017D01*
X131147441Y-95223626D01*
X131042475Y-95195500D01*
X130897525Y-95195500D01*
X130792559Y-95223626D01*
X130757511Y-95233017D01*
X130631988Y-95305488D01*
X130631982Y-95305493D01*
X130529493Y-95407982D01*
X130529488Y-95407988D01*
X130457017Y-95533511D01*
X130457016Y-95533515D01*
X130419500Y-95673525D01*
X128639908Y-95673525D01*
X128619589Y-95661794D01*
X128619588Y-95661793D01*
X128619587Y-95661793D01*
X128517727Y-95634500D01*
X128412273Y-95634500D01*
X128310413Y-95661793D01*
X128310410Y-95661794D01*
X128219085Y-95714521D01*
X128144522Y-95789084D01*
X128144520Y-95789086D01*
X128144520Y-95789087D01*
X128132852Y-95809297D01*
X128087872Y-95887204D01*
X128037304Y-95935419D01*
X127968697Y-95948641D01*
X127918486Y-95932591D01*
X127894587Y-95918793D01*
X127852496Y-95907515D01*
X127792727Y-95891500D01*
X127687273Y-95891500D01*
X127585413Y-95918793D01*
X127585410Y-95918794D01*
X127494085Y-95971521D01*
X127419521Y-96046085D01*
X127366794Y-96137410D01*
X127366793Y-96137413D01*
X127339500Y-96239273D01*
X127339500Y-96344727D01*
X127366793Y-96446587D01*
X127419520Y-96537913D01*
X127494087Y-96612480D01*
X127585413Y-96665207D01*
X127585414Y-96665207D01*
X127590447Y-96668113D01*
X127638662Y-96718680D01*
X127651884Y-96787288D01*
X127625916Y-96852152D01*
X127569002Y-96892680D01*
X127528446Y-96899500D01*
X126559707Y-96899500D01*
X126492668Y-96879815D01*
X126446913Y-96827011D01*
X126436969Y-96757853D01*
X126465994Y-96694297D01*
X126524772Y-96656523D01*
X126527563Y-96655739D01*
X126612485Y-96632984D01*
X126738015Y-96560509D01*
X126840509Y-96458015D01*
X126912984Y-96332485D01*
X126950500Y-96192475D01*
X126950500Y-96047525D01*
X126912984Y-95907515D01*
X126908933Y-95900499D01*
X126840511Y-95781988D01*
X126840506Y-95781982D01*
X126738017Y-95679493D01*
X126738011Y-95679488D01*
X126612488Y-95607017D01*
X126612489Y-95607017D01*
X126584435Y-95599500D01*
X126472475Y-95569500D01*
X126327525Y-95569500D01*
X126246401Y-95591237D01*
X126176551Y-95589574D01*
X126118689Y-95550411D01*
X126091185Y-95486183D01*
X126098650Y-95431991D01*
X126097695Y-95431736D01*
X126099733Y-95424129D01*
X126099751Y-95424000D01*
X126099792Y-95423896D01*
X126099799Y-95423886D01*
X126130500Y-95309309D01*
X126130500Y-95190691D01*
X126099799Y-95076114D01*
X126040489Y-94973387D01*
X125956613Y-94889511D01*
X125866135Y-94837273D01*
X127159500Y-94837273D01*
X127159500Y-94942727D01*
X127186793Y-95044587D01*
X127239520Y-95135913D01*
X127314087Y-95210480D01*
X127405413Y-95263207D01*
X127507273Y-95290500D01*
X127507275Y-95290500D01*
X127612725Y-95290500D01*
X127612727Y-95290500D01*
X127714587Y-95263207D01*
X127805913Y-95210480D01*
X127880480Y-95135913D01*
X127933207Y-95044587D01*
X127960500Y-94942727D01*
X127960500Y-94847273D01*
X136769500Y-94847273D01*
X136769500Y-94952727D01*
X136796793Y-95054587D01*
X136849520Y-95145913D01*
X136924087Y-95220480D01*
X137015413Y-95273207D01*
X137117273Y-95300500D01*
X137117275Y-95300500D01*
X137222725Y-95300500D01*
X137222727Y-95300500D01*
X137324587Y-95273207D01*
X137415913Y-95220480D01*
X137490480Y-95145913D01*
X137543207Y-95054587D01*
X137570500Y-94952727D01*
X137570500Y-94847273D01*
X137543207Y-94745413D01*
X137490480Y-94654087D01*
X137415913Y-94579520D01*
X137325422Y-94527275D01*
X137324589Y-94526794D01*
X137324588Y-94526793D01*
X137324587Y-94526793D01*
X137222727Y-94499500D01*
X137117273Y-94499500D01*
X137015413Y-94526793D01*
X137015410Y-94526794D01*
X136924085Y-94579521D01*
X136849521Y-94654085D01*
X136796794Y-94745410D01*
X136796793Y-94745413D01*
X136769500Y-94847273D01*
X127960500Y-94847273D01*
X127960500Y-94837273D01*
X127933207Y-94735413D01*
X127880480Y-94644087D01*
X127805913Y-94569520D01*
X127732739Y-94527273D01*
X127714589Y-94516794D01*
X127714588Y-94516793D01*
X127714587Y-94516793D01*
X127612727Y-94489500D01*
X127507273Y-94489500D01*
X127405413Y-94516793D01*
X127405410Y-94516794D01*
X127314085Y-94569521D01*
X127239521Y-94644085D01*
X127186794Y-94735410D01*
X127186793Y-94735413D01*
X127159500Y-94837273D01*
X125866135Y-94837273D01*
X125853886Y-94830201D01*
X125739309Y-94799500D01*
X125620691Y-94799500D01*
X125506114Y-94830201D01*
X125506112Y-94830201D01*
X125506112Y-94830202D01*
X125403387Y-94889511D01*
X125403384Y-94889513D01*
X125319513Y-94973384D01*
X125319511Y-94973387D01*
X125272629Y-95054589D01*
X125260201Y-95076114D01*
X125229500Y-95190691D01*
X125229500Y-95309309D01*
X125260201Y-95423886D01*
X125260202Y-95423887D01*
X125262305Y-95431736D01*
X125259392Y-95432516D01*
X125265311Y-95487710D01*
X125234018Y-95550180D01*
X125175382Y-95585433D01*
X125081874Y-95610489D01*
X125057511Y-95617017D01*
X124931988Y-95689488D01*
X124931982Y-95689493D01*
X124829493Y-95791982D01*
X124829488Y-95791988D01*
X124757017Y-95917511D01*
X124756673Y-95918794D01*
X124719500Y-96057525D01*
X124719500Y-96202475D01*
X124757016Y-96342485D01*
X124757017Y-96342488D01*
X124829488Y-96468011D01*
X124829490Y-96468013D01*
X124829491Y-96468015D01*
X124931985Y-96570509D01*
X124931986Y-96570510D01*
X124931988Y-96570511D01*
X125057511Y-96642982D01*
X125057512Y-96642982D01*
X125057515Y-96642984D01*
X125105068Y-96655726D01*
X125164727Y-96692090D01*
X125195256Y-96754937D01*
X125186961Y-96824313D01*
X125142476Y-96878191D01*
X125075924Y-96899465D01*
X125072973Y-96899500D01*
X100002318Y-96899500D01*
X99999761Y-96899474D01*
X99996125Y-96899399D01*
X99931757Y-96898070D01*
X99917101Y-96896895D01*
X99766573Y-96875791D01*
X99747550Y-96871579D01*
X99603409Y-96827531D01*
X99582813Y-96819152D01*
X99513483Y-96783395D01*
X99461466Y-96756567D01*
X99440692Y-96743068D01*
X99342990Y-96664657D01*
X99324247Y-96645998D01*
X99246466Y-96549972D01*
X99232018Y-96527588D01*
X99202986Y-96469797D01*
X99169036Y-96402218D01*
X99161833Y-96384636D01*
X99158281Y-96373630D01*
X99140390Y-96318185D01*
X99137261Y-96306595D01*
X99133553Y-96289638D01*
X99119280Y-96224357D01*
X99117372Y-96213219D01*
X99116400Y-96205423D01*
X99105766Y-96120148D01*
X99104913Y-96109734D01*
X99100595Y-96000418D01*
X99100500Y-95995625D01*
X99100500Y-94447273D01*
X103699500Y-94447273D01*
X103699500Y-94552727D01*
X103726793Y-94654587D01*
X103779520Y-94745913D01*
X103854087Y-94820480D01*
X103945413Y-94873207D01*
X104047273Y-94900500D01*
X104047275Y-94900500D01*
X104152725Y-94900500D01*
X104152727Y-94900500D01*
X104254587Y-94873207D01*
X104345913Y-94820480D01*
X104420480Y-94745913D01*
X104473207Y-94654587D01*
X104500500Y-94552727D01*
X104500500Y-94447273D01*
X104473207Y-94345413D01*
X104420480Y-94254087D01*
X104345913Y-94179520D01*
X104273685Y-94137819D01*
X104254589Y-94126794D01*
X104254588Y-94126793D01*
X104254587Y-94126793D01*
X104152727Y-94099500D01*
X104047273Y-94099500D01*
X103945413Y-94126793D01*
X103945410Y-94126794D01*
X103854085Y-94179521D01*
X103779521Y-94254085D01*
X103726794Y-94345410D01*
X103726793Y-94345413D01*
X103699500Y-94447273D01*
X99100500Y-94447273D01*
X99100500Y-93927677D01*
X110743990Y-93927677D01*
X110743990Y-94033131D01*
X110771283Y-94134991D01*
X110824010Y-94226317D01*
X110898577Y-94300884D01*
X110989903Y-94353611D01*
X111091763Y-94380904D01*
X111091765Y-94380904D01*
X111197215Y-94380904D01*
X111197217Y-94380904D01*
X111299077Y-94353611D01*
X111390403Y-94300884D01*
X111393715Y-94297571D01*
X111455034Y-94264084D01*
X111524726Y-94269065D01*
X111556887Y-94286874D01*
X111561582Y-94290477D01*
X111561587Y-94290482D01*
X111652913Y-94343209D01*
X111754773Y-94370502D01*
X111754775Y-94370502D01*
X111860225Y-94370502D01*
X111860227Y-94370502D01*
X111962087Y-94343209D01*
X112053413Y-94290482D01*
X112127980Y-94215915D01*
X112180707Y-94124589D01*
X112208000Y-94022729D01*
X112208000Y-93917275D01*
X112195942Y-93872273D01*
X113269500Y-93872273D01*
X113269500Y-93977727D01*
X113294687Y-94071725D01*
X113296793Y-94079586D01*
X113296794Y-94079589D01*
X113301659Y-94088015D01*
X113349520Y-94170913D01*
X113424087Y-94245480D01*
X113515413Y-94298207D01*
X113617273Y-94325500D01*
X113617275Y-94325500D01*
X113722725Y-94325500D01*
X113722727Y-94325500D01*
X113824587Y-94298207D01*
X113915913Y-94245480D01*
X113990480Y-94170913D01*
X114032996Y-94097273D01*
X114279500Y-94097273D01*
X114279500Y-94202727D01*
X114306793Y-94304587D01*
X114359520Y-94395913D01*
X114434087Y-94470480D01*
X114525413Y-94523207D01*
X114627273Y-94550500D01*
X114627275Y-94550500D01*
X114732725Y-94550500D01*
X114732727Y-94550500D01*
X114834587Y-94523207D01*
X114925913Y-94470480D01*
X115000480Y-94395913D01*
X115053207Y-94304587D01*
X115053207Y-94304586D01*
X115057271Y-94297548D01*
X115060091Y-94299176D01*
X115094322Y-94256636D01*
X115160600Y-94234522D01*
X115197207Y-94238664D01*
X115222273Y-94245381D01*
X115222275Y-94245381D01*
X115327725Y-94245381D01*
X115327727Y-94245381D01*
X115429587Y-94218088D01*
X115520913Y-94165361D01*
X115520923Y-94165350D01*
X115521234Y-94165113D01*
X115521559Y-94164987D01*
X115527951Y-94161297D01*
X115528526Y-94162293D01*
X115586401Y-94139914D01*
X115654847Y-94153947D01*
X115671869Y-94166531D01*
X115672637Y-94165531D01*
X115679083Y-94170477D01*
X115679085Y-94170478D01*
X115679087Y-94170480D01*
X115770413Y-94223207D01*
X115872273Y-94250500D01*
X115872275Y-94250500D01*
X115977725Y-94250500D01*
X115977727Y-94250500D01*
X116079587Y-94223207D01*
X116170913Y-94170480D01*
X116245480Y-94095913D01*
X116298207Y-94004587D01*
X116308473Y-93966273D01*
X133709500Y-93966273D01*
X133709500Y-94071727D01*
X133736793Y-94173587D01*
X133789520Y-94264913D01*
X133864087Y-94339480D01*
X133955413Y-94392207D01*
X134057273Y-94419500D01*
X134057275Y-94419500D01*
X134162725Y-94419500D01*
X134162727Y-94419500D01*
X134264587Y-94392207D01*
X134355913Y-94339480D01*
X134430480Y-94264913D01*
X134483207Y-94173587D01*
X134510500Y-94071727D01*
X134510500Y-93966273D01*
X135249500Y-93966273D01*
X135249500Y-94071727D01*
X135276793Y-94173587D01*
X135329520Y-94264913D01*
X135404087Y-94339480D01*
X135495413Y-94392207D01*
X135597273Y-94419500D01*
X135597275Y-94419500D01*
X135702725Y-94419500D01*
X135702727Y-94419500D01*
X135804587Y-94392207D01*
X135895913Y-94339480D01*
X135970480Y-94264913D01*
X136023207Y-94173587D01*
X136050500Y-94071727D01*
X136050500Y-93966273D01*
X136023207Y-93864413D01*
X135970480Y-93773087D01*
X135895913Y-93698520D01*
X135804587Y-93645793D01*
X135702727Y-93618500D01*
X135597273Y-93618500D01*
X135495413Y-93645793D01*
X135495410Y-93645794D01*
X135404085Y-93698521D01*
X135329521Y-93773085D01*
X135276794Y-93864410D01*
X135276793Y-93864413D01*
X135249500Y-93966273D01*
X134510500Y-93966273D01*
X134483207Y-93864413D01*
X134430480Y-93773087D01*
X134355913Y-93698520D01*
X134264587Y-93645793D01*
X134162727Y-93618500D01*
X134057273Y-93618500D01*
X133955413Y-93645793D01*
X133955410Y-93645794D01*
X133864085Y-93698521D01*
X133789521Y-93773085D01*
X133736794Y-93864410D01*
X133736793Y-93864413D01*
X133709500Y-93966273D01*
X116308473Y-93966273D01*
X116325500Y-93902727D01*
X116325500Y-93797273D01*
X116298207Y-93695413D01*
X116245480Y-93604087D01*
X116170913Y-93529520D01*
X116079587Y-93476793D01*
X115977727Y-93449500D01*
X115872273Y-93449500D01*
X115770413Y-93476793D01*
X115770410Y-93476794D01*
X115691318Y-93522458D01*
X115679382Y-93529350D01*
X115679082Y-93529523D01*
X115678749Y-93529779D01*
X115678417Y-93529907D01*
X115672049Y-93533584D01*
X115671475Y-93532590D01*
X115613577Y-93554968D01*
X115545134Y-93540924D01*
X115528129Y-93528350D01*
X115527363Y-93529350D01*
X115520916Y-93524403D01*
X115496816Y-93510489D01*
X115438455Y-93476794D01*
X115429589Y-93471675D01*
X115429588Y-93471674D01*
X115429587Y-93471674D01*
X115327727Y-93444381D01*
X115222273Y-93444381D01*
X115120413Y-93471674D01*
X115120410Y-93471675D01*
X115029085Y-93524402D01*
X114954521Y-93598966D01*
X114897729Y-93697333D01*
X114894921Y-93695711D01*
X114860599Y-93738300D01*
X114794304Y-93760362D01*
X114757793Y-93756216D01*
X114732727Y-93749500D01*
X114627273Y-93749500D01*
X114525413Y-93776793D01*
X114525410Y-93776794D01*
X114434085Y-93829521D01*
X114359521Y-93904085D01*
X114312112Y-93986199D01*
X114312111Y-93986200D01*
X114306793Y-93995413D01*
X114279500Y-94097273D01*
X114032996Y-94097273D01*
X114043207Y-94079587D01*
X114070500Y-93977727D01*
X114070500Y-93872273D01*
X114043207Y-93770413D01*
X113990480Y-93679087D01*
X113915913Y-93604520D01*
X113824587Y-93551793D01*
X113722727Y-93524500D01*
X113617273Y-93524500D01*
X113515413Y-93551793D01*
X113515410Y-93551794D01*
X113424085Y-93604521D01*
X113349521Y-93679085D01*
X113296794Y-93770410D01*
X113296793Y-93770413D01*
X113269500Y-93872273D01*
X112195942Y-93872273D01*
X112180707Y-93815415D01*
X112127980Y-93724089D01*
X112053413Y-93649522D01*
X111974714Y-93604085D01*
X111962089Y-93596796D01*
X111962088Y-93596795D01*
X111962087Y-93596795D01*
X111860227Y-93569502D01*
X111754773Y-93569502D01*
X111652913Y-93596795D01*
X111652910Y-93596796D01*
X111561584Y-93649524D01*
X111558266Y-93652842D01*
X111496941Y-93686324D01*
X111427250Y-93681335D01*
X111395103Y-93663532D01*
X111390409Y-93659930D01*
X111390403Y-93659924D01*
X111299077Y-93607197D01*
X111197217Y-93579904D01*
X111091763Y-93579904D01*
X110989903Y-93607197D01*
X110989900Y-93607198D01*
X110898575Y-93659925D01*
X110824011Y-93734489D01*
X110771284Y-93825814D01*
X110771283Y-93825817D01*
X110743990Y-93927677D01*
X99100500Y-93927677D01*
X99100500Y-93022273D01*
X103049500Y-93022273D01*
X103049500Y-93127727D01*
X103076793Y-93229587D01*
X103129520Y-93320913D01*
X103204087Y-93395480D01*
X103295413Y-93448207D01*
X103397273Y-93475500D01*
X103397275Y-93475500D01*
X103502725Y-93475500D01*
X103502727Y-93475500D01*
X103604587Y-93448207D01*
X103695913Y-93395480D01*
X103770480Y-93320913D01*
X103823207Y-93229587D01*
X103850500Y-93127727D01*
X103850500Y-93022273D01*
X103843869Y-92997525D01*
X105749500Y-92997525D01*
X105749500Y-93142475D01*
X105787016Y-93282485D01*
X105787017Y-93282488D01*
X105859488Y-93408011D01*
X105859490Y-93408013D01*
X105859491Y-93408015D01*
X105961985Y-93510509D01*
X105961986Y-93510510D01*
X105961988Y-93510511D01*
X106087511Y-93582982D01*
X106087512Y-93582982D01*
X106087515Y-93582984D01*
X106227525Y-93620500D01*
X106227528Y-93620500D01*
X106372472Y-93620500D01*
X106372475Y-93620500D01*
X106512485Y-93582984D01*
X106638015Y-93510509D01*
X106676251Y-93472273D01*
X108774500Y-93472273D01*
X108774500Y-93577727D01*
X108801659Y-93679085D01*
X108801793Y-93679586D01*
X108801794Y-93679589D01*
X108815922Y-93704059D01*
X108854520Y-93770913D01*
X108929087Y-93845480D01*
X109020413Y-93898207D01*
X109122273Y-93925500D01*
X109122275Y-93925500D01*
X109227725Y-93925500D01*
X109227727Y-93925500D01*
X109329587Y-93898207D01*
X109420913Y-93845480D01*
X109495480Y-93770913D01*
X109548207Y-93679587D01*
X109575500Y-93577727D01*
X109575500Y-93472273D01*
X109548207Y-93370413D01*
X109495480Y-93279087D01*
X109420913Y-93204520D01*
X109417811Y-93201418D01*
X109384326Y-93140095D01*
X109389310Y-93070403D01*
X109431182Y-93014470D01*
X109443474Y-93006361D01*
X109499467Y-92974034D01*
X109574034Y-92899467D01*
X109626761Y-92808141D01*
X109654054Y-92706281D01*
X109654054Y-92600827D01*
X109639704Y-92547273D01*
X113119500Y-92547273D01*
X113119500Y-92652727D01*
X113146793Y-92754587D01*
X113199520Y-92845913D01*
X113274087Y-92920480D01*
X113365413Y-92973207D01*
X113467273Y-93000500D01*
X113467275Y-93000500D01*
X113572725Y-93000500D01*
X113572727Y-93000500D01*
X113674587Y-92973207D01*
X113765913Y-92920480D01*
X113840480Y-92845913D01*
X113893207Y-92754587D01*
X113920500Y-92652727D01*
X113920500Y-92547273D01*
X113893207Y-92445413D01*
X113840480Y-92354087D01*
X113765913Y-92279520D01*
X113674587Y-92226793D01*
X113657718Y-92222273D01*
X115199500Y-92222273D01*
X115199500Y-92327727D01*
X115226793Y-92429587D01*
X115279520Y-92520913D01*
X115354087Y-92595480D01*
X115445413Y-92648207D01*
X115547273Y-92675500D01*
X115547275Y-92675500D01*
X115652725Y-92675500D01*
X115652727Y-92675500D01*
X115754587Y-92648207D01*
X115845913Y-92595480D01*
X115920480Y-92520913D01*
X115973207Y-92429587D01*
X116000500Y-92327727D01*
X116000500Y-92222273D01*
X116219500Y-92222273D01*
X116219500Y-92327727D01*
X116246793Y-92429587D01*
X116299520Y-92520913D01*
X116374087Y-92595480D01*
X116465413Y-92648207D01*
X116567273Y-92675500D01*
X116567275Y-92675500D01*
X116672725Y-92675500D01*
X116672727Y-92675500D01*
X116774587Y-92648207D01*
X116865913Y-92595480D01*
X116940480Y-92520913D01*
X116993207Y-92429587D01*
X117020500Y-92327727D01*
X117020500Y-92222273D01*
X116993207Y-92120413D01*
X116940480Y-92029087D01*
X116865913Y-91954520D01*
X116786966Y-91908940D01*
X116786964Y-91908938D01*
X116774593Y-91901796D01*
X116774589Y-91901794D01*
X116774587Y-91901793D01*
X116672727Y-91874500D01*
X116567273Y-91874500D01*
X116465413Y-91901793D01*
X116465410Y-91901794D01*
X116374085Y-91954521D01*
X116299521Y-92029085D01*
X116246794Y-92120410D01*
X116246793Y-92120413D01*
X116219500Y-92222273D01*
X116000500Y-92222273D01*
X115973207Y-92120413D01*
X115920480Y-92029087D01*
X115845913Y-91954520D01*
X115754587Y-91901793D01*
X115652727Y-91874500D01*
X115547273Y-91874500D01*
X115445413Y-91901793D01*
X115445410Y-91901794D01*
X115354085Y-91954521D01*
X115279521Y-92029085D01*
X115226794Y-92120410D01*
X115226793Y-92120413D01*
X115199500Y-92222273D01*
X113657718Y-92222273D01*
X113572727Y-92199500D01*
X113467273Y-92199500D01*
X113365413Y-92226793D01*
X113365410Y-92226794D01*
X113274085Y-92279521D01*
X113199521Y-92354085D01*
X113146794Y-92445410D01*
X113146793Y-92445413D01*
X113119500Y-92547273D01*
X109639704Y-92547273D01*
X109626761Y-92498967D01*
X109574034Y-92407641D01*
X109499467Y-92333074D01*
X109408141Y-92280347D01*
X109306281Y-92253054D01*
X109200827Y-92253054D01*
X109098967Y-92280347D01*
X109098964Y-92280348D01*
X109007639Y-92333075D01*
X108933075Y-92407639D01*
X108880348Y-92498964D01*
X108880348Y-92498965D01*
X108880347Y-92498967D01*
X108853054Y-92600827D01*
X108853054Y-92706281D01*
X108868678Y-92764589D01*
X108880347Y-92808140D01*
X108880348Y-92808143D01*
X108892439Y-92829085D01*
X108932648Y-92898730D01*
X108933075Y-92899468D01*
X109010742Y-92977135D01*
X109044227Y-93038458D01*
X109039243Y-93108150D01*
X108997371Y-93164083D01*
X108985062Y-93172202D01*
X108929086Y-93204520D01*
X108854521Y-93279085D01*
X108801794Y-93370410D01*
X108801793Y-93370413D01*
X108774500Y-93472273D01*
X106676251Y-93472273D01*
X106740509Y-93408015D01*
X106812984Y-93282485D01*
X106850500Y-93142475D01*
X106850500Y-92997525D01*
X106812984Y-92857515D01*
X106810218Y-92852725D01*
X106740511Y-92731988D01*
X106740506Y-92731982D01*
X106638017Y-92629493D01*
X106638011Y-92629488D01*
X106512488Y-92557017D01*
X106512489Y-92557017D01*
X106496120Y-92552631D01*
X106372475Y-92519500D01*
X106227525Y-92519500D01*
X106103880Y-92552631D01*
X106087511Y-92557017D01*
X105961988Y-92629488D01*
X105961982Y-92629493D01*
X105859493Y-92731982D01*
X105859488Y-92731988D01*
X105787017Y-92857511D01*
X105787016Y-92857515D01*
X105749500Y-92997525D01*
X103843869Y-92997525D01*
X103823207Y-92920413D01*
X103770480Y-92829087D01*
X103695913Y-92754520D01*
X103656708Y-92731885D01*
X103608495Y-92681320D01*
X103595273Y-92612712D01*
X103621241Y-92547848D01*
X103678155Y-92507320D01*
X103718711Y-92500500D01*
X103809306Y-92500500D01*
X103809309Y-92500500D01*
X103923886Y-92469799D01*
X104026613Y-92410489D01*
X104110489Y-92326613D01*
X104169799Y-92223886D01*
X104200500Y-92109309D01*
X104200500Y-91990691D01*
X104169799Y-91876114D01*
X104110489Y-91773387D01*
X104026613Y-91689511D01*
X103952172Y-91646532D01*
X103952170Y-91646530D01*
X103923891Y-91630203D01*
X103923890Y-91630202D01*
X103903770Y-91624811D01*
X103809309Y-91599500D01*
X103690691Y-91599500D01*
X103576114Y-91630201D01*
X103576112Y-91630201D01*
X103576112Y-91630202D01*
X103473387Y-91689511D01*
X103473384Y-91689513D01*
X103389513Y-91773384D01*
X103389511Y-91773387D01*
X103331572Y-91873740D01*
X103330201Y-91876114D01*
X103299500Y-91990691D01*
X103299500Y-92109309D01*
X103330201Y-92223886D01*
X103389511Y-92326613D01*
X103473387Y-92410489D01*
X103516418Y-92435333D01*
X103529893Y-92443113D01*
X103578108Y-92493681D01*
X103591330Y-92562288D01*
X103565362Y-92627153D01*
X103508447Y-92667681D01*
X103467892Y-92674500D01*
X103397273Y-92674500D01*
X103295413Y-92701793D01*
X103295410Y-92701794D01*
X103204085Y-92754521D01*
X103129521Y-92829085D01*
X103076794Y-92920410D01*
X103076793Y-92920413D01*
X103049500Y-93022273D01*
X99100500Y-93022273D01*
X99100500Y-91272273D01*
X101324500Y-91272273D01*
X101324500Y-91377727D01*
X101351793Y-91479587D01*
X101404520Y-91570913D01*
X101479087Y-91645480D01*
X101570413Y-91698207D01*
X101672273Y-91725500D01*
X101672275Y-91725500D01*
X101777725Y-91725500D01*
X101777727Y-91725500D01*
X101879587Y-91698207D01*
X101970913Y-91645480D01*
X102045480Y-91570913D01*
X102059129Y-91547273D01*
X109149500Y-91547273D01*
X109149500Y-91652727D01*
X109176793Y-91754587D01*
X109229520Y-91845913D01*
X109304087Y-91920480D01*
X109395413Y-91973207D01*
X109497273Y-92000500D01*
X109497275Y-92000500D01*
X109602725Y-92000500D01*
X109602727Y-92000500D01*
X109704587Y-91973207D01*
X109795913Y-91920480D01*
X109870480Y-91845913D01*
X109923207Y-91754587D01*
X109950500Y-91652727D01*
X109950500Y-91547273D01*
X109923207Y-91445413D01*
X109870480Y-91354087D01*
X109795913Y-91279520D01*
X109704587Y-91226793D01*
X109602727Y-91199500D01*
X109497273Y-91199500D01*
X109395413Y-91226793D01*
X109395410Y-91226794D01*
X109304085Y-91279521D01*
X109229521Y-91354085D01*
X109176794Y-91445410D01*
X109176793Y-91445413D01*
X109149500Y-91547273D01*
X102059129Y-91547273D01*
X102098207Y-91479587D01*
X102125500Y-91377727D01*
X102125500Y-91272273D01*
X102098207Y-91170413D01*
X102045480Y-91079087D01*
X101970913Y-91004520D01*
X101879587Y-90951793D01*
X101777727Y-90924500D01*
X101672273Y-90924500D01*
X101570413Y-90951793D01*
X101570410Y-90951794D01*
X101479085Y-91004521D01*
X101404521Y-91079085D01*
X101351794Y-91170410D01*
X101351793Y-91170413D01*
X101324500Y-91272273D01*
X99100500Y-91272273D01*
X99100500Y-90347273D01*
X103474500Y-90347273D01*
X103474500Y-90452727D01*
X103496065Y-90533207D01*
X103501793Y-90554586D01*
X103501794Y-90554589D01*
X103504343Y-90559004D01*
X103554520Y-90645913D01*
X103629087Y-90720480D01*
X103720413Y-90773207D01*
X103822273Y-90800500D01*
X103822275Y-90800500D01*
X103927725Y-90800500D01*
X103927727Y-90800500D01*
X104029587Y-90773207D01*
X104120913Y-90720480D01*
X104195480Y-90645913D01*
X104248207Y-90554587D01*
X104275500Y-90452727D01*
X104275500Y-90437525D01*
X105749500Y-90437525D01*
X105749500Y-90582475D01*
X105786986Y-90722372D01*
X105787017Y-90722488D01*
X105859488Y-90848011D01*
X105859490Y-90848013D01*
X105859491Y-90848015D01*
X105961985Y-90950509D01*
X105961986Y-90950510D01*
X105961988Y-90950511D01*
X106087511Y-91022982D01*
X106087512Y-91022982D01*
X106087515Y-91022984D01*
X106227525Y-91060500D01*
X106227528Y-91060500D01*
X106372472Y-91060500D01*
X106372475Y-91060500D01*
X106512485Y-91022984D01*
X106638015Y-90950509D01*
X106740509Y-90848015D01*
X106812984Y-90722485D01*
X106850500Y-90582475D01*
X106850500Y-90437525D01*
X106812984Y-90297515D01*
X106804306Y-90282485D01*
X106740511Y-90171988D01*
X106740506Y-90171982D01*
X106638017Y-90069493D01*
X106638011Y-90069488D01*
X106513453Y-89997574D01*
X108965996Y-89997574D01*
X108990994Y-90123241D01*
X108990996Y-90123247D01*
X109040030Y-90241627D01*
X109040035Y-90241636D01*
X109111220Y-90348171D01*
X109111223Y-90348175D01*
X109201824Y-90438776D01*
X109201828Y-90438779D01*
X109308363Y-90509964D01*
X109308372Y-90509969D01*
X109309676Y-90510509D01*
X109426753Y-90559004D01*
X109426757Y-90559004D01*
X109426758Y-90559005D01*
X109552425Y-90584003D01*
X109552428Y-90584003D01*
X109680568Y-90584003D01*
X109798725Y-90560499D01*
X109806241Y-90559004D01*
X109924624Y-90509968D01*
X110031166Y-90438779D01*
X110121773Y-90348172D01*
X110192962Y-90241630D01*
X110241998Y-90123247D01*
X110258591Y-90039833D01*
X110266997Y-89997574D01*
X110266997Y-89869431D01*
X110241999Y-89743764D01*
X110241998Y-89743763D01*
X110241998Y-89743759D01*
X110194667Y-89629493D01*
X110192963Y-89625378D01*
X110192958Y-89625369D01*
X110121773Y-89518834D01*
X110121770Y-89518830D01*
X110031169Y-89428229D01*
X110031165Y-89428226D01*
X109924630Y-89357041D01*
X109924621Y-89357036D01*
X109806241Y-89308002D01*
X109806235Y-89308000D01*
X109680568Y-89283003D01*
X109680566Y-89283003D01*
X109552428Y-89283003D01*
X109552426Y-89283003D01*
X109426758Y-89308000D01*
X109426752Y-89308002D01*
X109308372Y-89357036D01*
X109308363Y-89357041D01*
X109201828Y-89428226D01*
X109201824Y-89428229D01*
X109111223Y-89518830D01*
X109111220Y-89518834D01*
X109040035Y-89625369D01*
X109040030Y-89625378D01*
X108990996Y-89743758D01*
X108990994Y-89743764D01*
X108965997Y-89869431D01*
X108965997Y-89869434D01*
X108965997Y-89997572D01*
X108965997Y-89997574D01*
X108965996Y-89997574D01*
X106513453Y-89997574D01*
X106512488Y-89997017D01*
X106512489Y-89997017D01*
X106505847Y-89995237D01*
X106372475Y-89959500D01*
X106227525Y-89959500D01*
X106099196Y-89993886D01*
X106087511Y-89997017D01*
X105961988Y-90069488D01*
X105961982Y-90069493D01*
X105859493Y-90171982D01*
X105859488Y-90171988D01*
X105787017Y-90297511D01*
X105787016Y-90297515D01*
X105749500Y-90437525D01*
X104275500Y-90437525D01*
X104275500Y-90347273D01*
X104248207Y-90245413D01*
X104195480Y-90154087D01*
X104120913Y-90079520D01*
X104042373Y-90034175D01*
X104029589Y-90026794D01*
X104029588Y-90026793D01*
X104029587Y-90026793D01*
X103927727Y-89999500D01*
X103822273Y-89999500D01*
X103720413Y-90026793D01*
X103720410Y-90026794D01*
X103629085Y-90079521D01*
X103554521Y-90154085D01*
X103501794Y-90245410D01*
X103501793Y-90245413D01*
X103474500Y-90347273D01*
X99100500Y-90347273D01*
X99100500Y-88867054D01*
X114918278Y-88867054D01*
X114918278Y-88972508D01*
X114945571Y-89074368D01*
X114998298Y-89165694D01*
X115072865Y-89240261D01*
X115164191Y-89292988D01*
X115266051Y-89320281D01*
X115266053Y-89320281D01*
X115371499Y-89320281D01*
X115371505Y-89320281D01*
X115371510Y-89320279D01*
X115379130Y-89319276D01*
X115448166Y-89330039D01*
X115500423Y-89376417D01*
X115519311Y-89443686D01*
X115498833Y-89510487D01*
X115483004Y-89529894D01*
X115469511Y-89543387D01*
X115431410Y-89609380D01*
X115410201Y-89646114D01*
X115379500Y-89760691D01*
X115379500Y-89879309D01*
X115410201Y-89993886D01*
X115469511Y-90096613D01*
X115553387Y-90180489D01*
X115656114Y-90239799D01*
X115741239Y-90262608D01*
X115800897Y-90298972D01*
X115831426Y-90361819D01*
X115823131Y-90431195D01*
X115778646Y-90485072D01*
X115771145Y-90489768D01*
X115736988Y-90509489D01*
X115736982Y-90509493D01*
X115634493Y-90611982D01*
X115634488Y-90611988D01*
X115562017Y-90737511D01*
X115562016Y-90737515D01*
X115524500Y-90877525D01*
X115524500Y-91022475D01*
X115560120Y-91155410D01*
X115562017Y-91162488D01*
X115634488Y-91288011D01*
X115634490Y-91288013D01*
X115634491Y-91288015D01*
X115736985Y-91390509D01*
X115736986Y-91390510D01*
X115736988Y-91390511D01*
X115862511Y-91462982D01*
X115862512Y-91462982D01*
X115862515Y-91462984D01*
X116002525Y-91500500D01*
X116002528Y-91500500D01*
X116147472Y-91500500D01*
X116147475Y-91500500D01*
X116287485Y-91462984D01*
X116413015Y-91390509D01*
X116515509Y-91288015D01*
X116587984Y-91162485D01*
X116625500Y-91022475D01*
X116625500Y-90877525D01*
X116587984Y-90737515D01*
X116587844Y-90737273D01*
X116515511Y-90611988D01*
X116515506Y-90611982D01*
X116413017Y-90509493D01*
X116413011Y-90509488D01*
X116287488Y-90437017D01*
X116287489Y-90437017D01*
X116256024Y-90428586D01*
X116148516Y-90399779D01*
X116088858Y-90363415D01*
X116058329Y-90300568D01*
X116066624Y-90231192D01*
X116091286Y-90194000D01*
X116101392Y-90183502D01*
X116106613Y-90180489D01*
X116190489Y-90096613D01*
X116198633Y-90082507D01*
X116209126Y-90071609D01*
X116226851Y-90061490D01*
X116241624Y-90047402D01*
X116256579Y-90044518D01*
X116269804Y-90036969D01*
X116290187Y-90038039D01*
X116310230Y-90034175D01*
X116324367Y-90039833D01*
X116339577Y-90040632D01*
X116356146Y-90052553D01*
X116375097Y-90060138D01*
X116389017Y-90076202D01*
X116396294Y-90081437D01*
X116398585Y-90087243D01*
X116405838Y-90095612D01*
X116419579Y-90119410D01*
X116429511Y-90136613D01*
X116513387Y-90220489D01*
X116616114Y-90279799D01*
X116730691Y-90310500D01*
X116730694Y-90310500D01*
X116849306Y-90310500D01*
X116849309Y-90310500D01*
X116963886Y-90279799D01*
X117066613Y-90220489D01*
X117150489Y-90136613D01*
X117190648Y-90067055D01*
X117241215Y-90018840D01*
X117309822Y-90005618D01*
X117320768Y-90010000D01*
X118022555Y-90010000D01*
X118000000Y-90094174D01*
X118000000Y-90225826D01*
X118022555Y-90310000D01*
X117359423Y-90310000D01*
X117378317Y-90429293D01*
X117434251Y-90601444D01*
X117434252Y-90601447D01*
X117516434Y-90762734D01*
X117622823Y-90909169D01*
X117750830Y-91037176D01*
X117897265Y-91143565D01*
X118058552Y-91225747D01*
X118058555Y-91225748D01*
X118230707Y-91281683D01*
X118365470Y-91303027D01*
X118428605Y-91332956D01*
X118465537Y-91392267D01*
X118464539Y-91462130D01*
X118425930Y-91520363D01*
X118361966Y-91548477D01*
X118346073Y-91549500D01*
X117605143Y-91549500D01*
X117605117Y-91549502D01*
X117580012Y-91552413D01*
X117580008Y-91552415D01*
X117477235Y-91597793D01*
X117397794Y-91677234D01*
X117352416Y-91780005D01*
X117352415Y-91780007D01*
X117352415Y-91780009D01*
X117350853Y-91793471D01*
X117349500Y-91805131D01*
X117349500Y-93594856D01*
X117349502Y-93594882D01*
X117352413Y-93619987D01*
X117352415Y-93619991D01*
X117397793Y-93722764D01*
X117397794Y-93722765D01*
X117477235Y-93802206D01*
X117580009Y-93847585D01*
X117605135Y-93850500D01*
X119394864Y-93850499D01*
X119394879Y-93850497D01*
X119394882Y-93850497D01*
X119419987Y-93847586D01*
X119419987Y-93847585D01*
X119419991Y-93847585D01*
X119522765Y-93802206D01*
X119602206Y-93722765D01*
X119647585Y-93619991D01*
X119650500Y-93594865D01*
X119650499Y-93087525D01*
X121849500Y-93087525D01*
X121849500Y-93232475D01*
X121873994Y-93323886D01*
X121887017Y-93372488D01*
X121959488Y-93498011D01*
X121959490Y-93498013D01*
X121959491Y-93498015D01*
X122061985Y-93600509D01*
X122061986Y-93600510D01*
X122061988Y-93600511D01*
X122187511Y-93672982D01*
X122187512Y-93672982D01*
X122187515Y-93672984D01*
X122327525Y-93710500D01*
X122327528Y-93710500D01*
X122472472Y-93710500D01*
X122472475Y-93710500D01*
X122612485Y-93672984D01*
X122738015Y-93600509D01*
X122840509Y-93498015D01*
X122869665Y-93447514D01*
X122920229Y-93399300D01*
X122988836Y-93386076D01*
X123053701Y-93412043D01*
X123064732Y-93421834D01*
X123069510Y-93426612D01*
X123069511Y-93426613D01*
X123153387Y-93510489D01*
X123256114Y-93569799D01*
X123370691Y-93600500D01*
X123370694Y-93600500D01*
X123489306Y-93600500D01*
X123489309Y-93600500D01*
X123603886Y-93569799D01*
X123706613Y-93510489D01*
X123790489Y-93426613D01*
X123849799Y-93323886D01*
X123880500Y-93209309D01*
X123880500Y-93090691D01*
X123849799Y-92976114D01*
X123790489Y-92873387D01*
X123706613Y-92789511D01*
X123603886Y-92730201D01*
X123489309Y-92699500D01*
X123370691Y-92699500D01*
X123296095Y-92719488D01*
X123256109Y-92730202D01*
X123201163Y-92761926D01*
X123133262Y-92778399D01*
X123067235Y-92755546D01*
X123024045Y-92700625D01*
X123017404Y-92631071D01*
X123049420Y-92568969D01*
X123052350Y-92566338D01*
X123052268Y-92566256D01*
X123099024Y-92519500D01*
X123160509Y-92458015D01*
X123232984Y-92332485D01*
X123270500Y-92192475D01*
X123270500Y-92047525D01*
X123232984Y-91907515D01*
X123229680Y-91901793D01*
X123160511Y-91781988D01*
X123160506Y-91781982D01*
X123058017Y-91679493D01*
X123058011Y-91679488D01*
X122932488Y-91607017D01*
X122932489Y-91607017D01*
X122898068Y-91597794D01*
X122792475Y-91569500D01*
X122647525Y-91569500D01*
X122541932Y-91597794D01*
X122507511Y-91607017D01*
X122381988Y-91679488D01*
X122381982Y-91679493D01*
X122279493Y-91781982D01*
X122279488Y-91781988D01*
X122207017Y-91907511D01*
X122207016Y-91907515D01*
X122169500Y-92047525D01*
X122169500Y-92192475D01*
X122205443Y-92326613D01*
X122207017Y-92332488D01*
X122280869Y-92460402D01*
X122297342Y-92528302D01*
X122274490Y-92594329D01*
X122219569Y-92637519D01*
X122205583Y-92642174D01*
X122189835Y-92646394D01*
X122187511Y-92647017D01*
X122061988Y-92719488D01*
X122061982Y-92719493D01*
X121959493Y-92821982D01*
X121959488Y-92821988D01*
X121887017Y-92947511D01*
X121882583Y-92964055D01*
X121849500Y-93087525D01*
X119650499Y-93087525D01*
X119650499Y-92699500D01*
X119650499Y-91805143D01*
X119650499Y-91805136D01*
X119647815Y-91781988D01*
X119647586Y-91780012D01*
X119647584Y-91780005D01*
X119602206Y-91677235D01*
X119522765Y-91597794D01*
X119419992Y-91552415D01*
X119394868Y-91549500D01*
X118653927Y-91549500D01*
X118586888Y-91529815D01*
X118541133Y-91477011D01*
X118531189Y-91407853D01*
X118560214Y-91344297D01*
X118618992Y-91306523D01*
X118634530Y-91303027D01*
X118769292Y-91281683D01*
X118844419Y-91257273D01*
X132259500Y-91257273D01*
X132259500Y-91362727D01*
X132286364Y-91462984D01*
X132286793Y-91464586D01*
X132286794Y-91464589D01*
X132291769Y-91473206D01*
X132339520Y-91555913D01*
X132414087Y-91630480D01*
X132505413Y-91683207D01*
X132607273Y-91710500D01*
X132607275Y-91710500D01*
X132712725Y-91710500D01*
X132712727Y-91710500D01*
X132814587Y-91683207D01*
X132843656Y-91666424D01*
X137046470Y-91666424D01*
X137046470Y-91771878D01*
X137066308Y-91845913D01*
X137073763Y-91873737D01*
X137073764Y-91873740D01*
X137075135Y-91876114D01*
X137126490Y-91965064D01*
X137201057Y-92039631D01*
X137292383Y-92092358D01*
X137394243Y-92119651D01*
X137394245Y-92119651D01*
X137408480Y-92119651D01*
X137429433Y-92125803D01*
X137451223Y-92127251D01*
X137462297Y-92135453D01*
X137475519Y-92139336D01*
X137489818Y-92155838D01*
X137507369Y-92168838D01*
X137515508Y-92185486D01*
X137521274Y-92192140D01*
X137524440Y-92199728D01*
X137526645Y-92205549D01*
X137539195Y-92252387D01*
X137554286Y-92278526D01*
X137557842Y-92287913D01*
X137559775Y-92313142D01*
X137565742Y-92337737D01*
X137562399Y-92347393D01*
X137563180Y-92357579D01*
X137551166Y-92379847D01*
X137542889Y-92403764D01*
X137533814Y-92412013D01*
X137530007Y-92419071D01*
X137519916Y-92424647D01*
X137503884Y-92439222D01*
X137434085Y-92479521D01*
X137359521Y-92554085D01*
X137306794Y-92645410D01*
X137306793Y-92645413D01*
X137279500Y-92747273D01*
X137279500Y-92852727D01*
X137306793Y-92954587D01*
X137359520Y-93045913D01*
X137434087Y-93120480D01*
X137525413Y-93173207D01*
X137627273Y-93200500D01*
X137627275Y-93200500D01*
X137732725Y-93200500D01*
X137732727Y-93200500D01*
X137834587Y-93173207D01*
X137925913Y-93120480D01*
X138000480Y-93045913D01*
X138053207Y-92954587D01*
X138080500Y-92852727D01*
X138080500Y-92747273D01*
X138053207Y-92645413D01*
X138048507Y-92637273D01*
X142749500Y-92637273D01*
X142749500Y-92742727D01*
X142772640Y-92829085D01*
X142776793Y-92844586D01*
X142776794Y-92844589D01*
X142781491Y-92852725D01*
X142829520Y-92935913D01*
X142904087Y-93010480D01*
X142965459Y-93045913D01*
X142970510Y-93048829D01*
X143018726Y-93099396D01*
X143030089Y-93158356D01*
X143032229Y-93158356D01*
X143032229Y-93166483D01*
X143032229Y-93271937D01*
X143059172Y-93372488D01*
X143059522Y-93373796D01*
X143059523Y-93373799D01*
X143072041Y-93395480D01*
X143112249Y-93465123D01*
X143186816Y-93539690D01*
X143278142Y-93592417D01*
X143380002Y-93619710D01*
X143380004Y-93619710D01*
X143485454Y-93619710D01*
X143485456Y-93619710D01*
X143587316Y-93592417D01*
X143678642Y-93539690D01*
X143753209Y-93465123D01*
X143805936Y-93373797D01*
X143833229Y-93271937D01*
X143833229Y-93166483D01*
X143805936Y-93064623D01*
X143753209Y-92973297D01*
X143678642Y-92898730D01*
X143612216Y-92860379D01*
X143564002Y-92809812D01*
X143552640Y-92750854D01*
X143550500Y-92750854D01*
X143550500Y-92637275D01*
X143550500Y-92637273D01*
X143529064Y-92557273D01*
X157274502Y-92557273D01*
X157274502Y-92662727D01*
X157301795Y-92764587D01*
X157354522Y-92855913D01*
X157429089Y-92930480D01*
X157520415Y-92983207D01*
X157622275Y-93010500D01*
X157622277Y-93010500D01*
X157727727Y-93010500D01*
X157727729Y-93010500D01*
X157829589Y-92983207D01*
X157920915Y-92930480D01*
X157995482Y-92855913D01*
X158048209Y-92764587D01*
X158075502Y-92662727D01*
X158075502Y-92557273D01*
X158048209Y-92455413D01*
X157995482Y-92364087D01*
X157920915Y-92289520D01*
X157829589Y-92236793D01*
X157727729Y-92209500D01*
X157622275Y-92209500D01*
X157520415Y-92236793D01*
X157498846Y-92249245D01*
X157498845Y-92249246D01*
X157429087Y-92289521D01*
X157354523Y-92364085D01*
X157301796Y-92455410D01*
X157301795Y-92455413D01*
X157274502Y-92557273D01*
X143529064Y-92557273D01*
X143523207Y-92535413D01*
X143504625Y-92503228D01*
X143488152Y-92435333D01*
X143511003Y-92369305D01*
X143524327Y-92353553D01*
X143542678Y-92335203D01*
X143595405Y-92243877D01*
X143622698Y-92142017D01*
X143622698Y-92036563D01*
X143595405Y-91934703D01*
X143542678Y-91843377D01*
X143468111Y-91768810D01*
X143376785Y-91716083D01*
X143274925Y-91688790D01*
X143169471Y-91688790D01*
X143067611Y-91716083D01*
X143067608Y-91716084D01*
X142976283Y-91768811D01*
X142901719Y-91843375D01*
X142848992Y-91934700D01*
X142848991Y-91934703D01*
X142821698Y-92036563D01*
X142821698Y-92142017D01*
X142844414Y-92226793D01*
X142848991Y-92243876D01*
X142848994Y-92243883D01*
X142867571Y-92276060D01*
X142884044Y-92343960D01*
X142861191Y-92409987D01*
X142847869Y-92425737D01*
X142829520Y-92444086D01*
X142776794Y-92535410D01*
X142776793Y-92535413D01*
X142749500Y-92637273D01*
X138048507Y-92637273D01*
X138039290Y-92621309D01*
X138036301Y-92614235D01*
X138033159Y-92586856D01*
X138026659Y-92560064D01*
X138029231Y-92552631D01*
X138028335Y-92544821D01*
X138040495Y-92520085D01*
X138049511Y-92494037D01*
X138056365Y-92487806D01*
X138059161Y-92482119D01*
X138069439Y-92475920D01*
X138088516Y-92458577D01*
X138158315Y-92418280D01*
X138232882Y-92343713D01*
X138285609Y-92252387D01*
X138312902Y-92150527D01*
X138312902Y-92045073D01*
X138285609Y-91943213D01*
X138232882Y-91851887D01*
X138158315Y-91777320D01*
X138066989Y-91724593D01*
X137965129Y-91697300D01*
X137950892Y-91697300D01*
X137883853Y-91677615D01*
X137838098Y-91624811D01*
X137831117Y-91605394D01*
X137829081Y-91597794D01*
X137820177Y-91564564D01*
X137767450Y-91473238D01*
X137692883Y-91398671D01*
X137601557Y-91345944D01*
X137499697Y-91318651D01*
X137394243Y-91318651D01*
X137292383Y-91345944D01*
X137292380Y-91345945D01*
X137201055Y-91398672D01*
X137126491Y-91473236D01*
X137073764Y-91564561D01*
X137073764Y-91564562D01*
X137073763Y-91564564D01*
X137046470Y-91666424D01*
X132843656Y-91666424D01*
X132905913Y-91630480D01*
X132980480Y-91555913D01*
X133033207Y-91464587D01*
X133060500Y-91362727D01*
X133060500Y-91257273D01*
X133033207Y-91155413D01*
X132980480Y-91064087D01*
X132923666Y-91007273D01*
X142099500Y-91007273D01*
X142099500Y-91112727D01*
X142126793Y-91214587D01*
X142179520Y-91305913D01*
X142254087Y-91380480D01*
X142345413Y-91433207D01*
X142447273Y-91460500D01*
X142447275Y-91460500D01*
X142552725Y-91460500D01*
X142552727Y-91460500D01*
X142654587Y-91433207D01*
X142745913Y-91380480D01*
X142820480Y-91305913D01*
X142873207Y-91214587D01*
X142900500Y-91112727D01*
X142900500Y-91007273D01*
X142873207Y-90905413D01*
X142820480Y-90814087D01*
X142745913Y-90739520D01*
X142742021Y-90737273D01*
X143868759Y-90737273D01*
X143868759Y-90842727D01*
X143896052Y-90944587D01*
X143948779Y-91035913D01*
X144023346Y-91110480D01*
X144114672Y-91163207D01*
X144216532Y-91190500D01*
X144216534Y-91190500D01*
X144321981Y-91190500D01*
X144321986Y-91190500D01*
X144322452Y-91190375D01*
X144322859Y-91190384D01*
X144330042Y-91189439D01*
X144330189Y-91190558D01*
X144392297Y-91192029D01*
X144450165Y-91231185D01*
X144461940Y-91248143D01*
X144489520Y-91295913D01*
X144564087Y-91370480D01*
X144655413Y-91423207D01*
X144757273Y-91450500D01*
X144757275Y-91450500D01*
X144862725Y-91450500D01*
X144862727Y-91450500D01*
X144964587Y-91423207D01*
X144964595Y-91423202D01*
X144972097Y-91420096D01*
X144972916Y-91422075D01*
X145029818Y-91408259D01*
X145095850Y-91431099D01*
X145139051Y-91486012D01*
X145145706Y-91555564D01*
X145143717Y-91564212D01*
X145129500Y-91617271D01*
X145129500Y-91617273D01*
X145129500Y-91722727D01*
X145156793Y-91824587D01*
X145209520Y-91915913D01*
X145284087Y-91990480D01*
X145375413Y-92043207D01*
X145477273Y-92070500D01*
X145477275Y-92070500D01*
X145582725Y-92070500D01*
X145582727Y-92070500D01*
X145684587Y-92043207D01*
X145775913Y-91990480D01*
X145850480Y-91915913D01*
X145903207Y-91824587D01*
X145930500Y-91722727D01*
X145930500Y-91617273D01*
X145914423Y-91557273D01*
X156989500Y-91557273D01*
X156989500Y-91662727D01*
X157016793Y-91764587D01*
X157069520Y-91855913D01*
X157144087Y-91930480D01*
X157235413Y-91983207D01*
X157337273Y-92010500D01*
X157337275Y-92010500D01*
X157431653Y-92010500D01*
X157442727Y-92010500D01*
X157544587Y-91983207D01*
X157635913Y-91930480D01*
X157710480Y-91855913D01*
X157763207Y-91764587D01*
X157790500Y-91662727D01*
X157790500Y-91557273D01*
X157763207Y-91455413D01*
X157710480Y-91364087D01*
X157635913Y-91289520D01*
X157544587Y-91236793D01*
X157442727Y-91209500D01*
X157337273Y-91209500D01*
X157235413Y-91236793D01*
X157235410Y-91236794D01*
X157144085Y-91289521D01*
X157069521Y-91364085D01*
X157016794Y-91455410D01*
X157016793Y-91455413D01*
X156989500Y-91557273D01*
X145914423Y-91557273D01*
X145903207Y-91515413D01*
X145850480Y-91424087D01*
X145775913Y-91349520D01*
X145701440Y-91306523D01*
X145684589Y-91296794D01*
X145684588Y-91296793D01*
X145684587Y-91296793D01*
X145582727Y-91269500D01*
X145477273Y-91269500D01*
X145375413Y-91296793D01*
X145367903Y-91299904D01*
X145367085Y-91297929D01*
X145364703Y-91298507D01*
X145353297Y-91306155D01*
X145331415Y-91306580D01*
X145310147Y-91311738D01*
X145297169Y-91307245D01*
X145283440Y-91307512D01*
X145264803Y-91296040D01*
X145244122Y-91288881D01*
X145235633Y-91278085D01*
X145223939Y-91270887D01*
X145214462Y-91251158D01*
X145200936Y-91233956D01*
X145198995Y-91218962D01*
X145193685Y-91207907D01*
X145194763Y-91186257D01*
X145192999Y-91172620D01*
X145194055Y-91164099D01*
X145210500Y-91102727D01*
X145210500Y-91047273D01*
X153199500Y-91047273D01*
X153199500Y-91152727D01*
X153226793Y-91254587D01*
X153279520Y-91345913D01*
X153354087Y-91420480D01*
X153445413Y-91473207D01*
X153547273Y-91500500D01*
X153547275Y-91500500D01*
X153652725Y-91500500D01*
X153652727Y-91500500D01*
X153754587Y-91473207D01*
X153845913Y-91420480D01*
X153920480Y-91345913D01*
X153973207Y-91254587D01*
X154000500Y-91152727D01*
X154000500Y-91047273D01*
X153973207Y-90945413D01*
X153920480Y-90854087D01*
X153845913Y-90779520D01*
X153759312Y-90729521D01*
X153754589Y-90726794D01*
X153754588Y-90726793D01*
X153754587Y-90726793D01*
X153652727Y-90699500D01*
X153547273Y-90699500D01*
X153445413Y-90726793D01*
X153445410Y-90726794D01*
X153354085Y-90779521D01*
X153279521Y-90854085D01*
X153226794Y-90945410D01*
X153226793Y-90945413D01*
X153199500Y-91047273D01*
X145210500Y-91047273D01*
X145210500Y-90997273D01*
X145183207Y-90895413D01*
X145130480Y-90804087D01*
X145055913Y-90729520D01*
X144964587Y-90676793D01*
X144862727Y-90649500D01*
X144757273Y-90649500D01*
X144756791Y-90649628D01*
X144756371Y-90649618D01*
X144749217Y-90650561D01*
X144749070Y-90649444D01*
X144686944Y-90647964D01*
X144629082Y-90608800D01*
X144617319Y-90591858D01*
X144589739Y-90544087D01*
X144515172Y-90469520D01*
X144423846Y-90416793D01*
X144321986Y-90389500D01*
X144216532Y-90389500D01*
X144114672Y-90416793D01*
X144114669Y-90416794D01*
X144023344Y-90469521D01*
X143948780Y-90544085D01*
X143896053Y-90635410D01*
X143896052Y-90635413D01*
X143868759Y-90737273D01*
X142742021Y-90737273D01*
X142654587Y-90686793D01*
X142552727Y-90659500D01*
X142447273Y-90659500D01*
X142345413Y-90686793D01*
X142345410Y-90686794D01*
X142254085Y-90739521D01*
X142179521Y-90814085D01*
X142126794Y-90905410D01*
X142126793Y-90905413D01*
X142099500Y-91007273D01*
X132923666Y-91007273D01*
X132905913Y-90989520D01*
X132821858Y-90940991D01*
X132814589Y-90936794D01*
X132814588Y-90936793D01*
X132814587Y-90936793D01*
X132712727Y-90909500D01*
X132607273Y-90909500D01*
X132505413Y-90936793D01*
X132505410Y-90936794D01*
X132414085Y-90989521D01*
X132339521Y-91064085D01*
X132286794Y-91155410D01*
X132286793Y-91155413D01*
X132259500Y-91257273D01*
X118844419Y-91257273D01*
X118941444Y-91225748D01*
X118941447Y-91225747D01*
X119102734Y-91143565D01*
X119249169Y-91037176D01*
X119377176Y-90909169D01*
X119483565Y-90762734D01*
X119565747Y-90601447D01*
X119565748Y-90601444D01*
X119593816Y-90515058D01*
X138531716Y-90515058D01*
X138531716Y-90620512D01*
X138559009Y-90722372D01*
X138611736Y-90813698D01*
X138686303Y-90888265D01*
X138777629Y-90940992D01*
X138879489Y-90968285D01*
X138879491Y-90968285D01*
X138984941Y-90968285D01*
X138984943Y-90968285D01*
X139086803Y-90940992D01*
X139178129Y-90888265D01*
X139252696Y-90813698D01*
X139305423Y-90722372D01*
X139332716Y-90620512D01*
X139332716Y-90515058D01*
X139306431Y-90416959D01*
X140049500Y-90416959D01*
X140049500Y-90522413D01*
X140076793Y-90624273D01*
X140129520Y-90715599D01*
X140204087Y-90790166D01*
X140295413Y-90842893D01*
X140397273Y-90870186D01*
X140397275Y-90870186D01*
X140502725Y-90870186D01*
X140502727Y-90870186D01*
X140604587Y-90842893D01*
X140695913Y-90790166D01*
X140770480Y-90715599D01*
X140823207Y-90624273D01*
X140850500Y-90522413D01*
X140850500Y-90416959D01*
X140823207Y-90315099D01*
X140770480Y-90223773D01*
X140695913Y-90149206D01*
X140623283Y-90107273D01*
X141339500Y-90107273D01*
X141339500Y-90212727D01*
X141358192Y-90282485D01*
X141366793Y-90314586D01*
X141366794Y-90314589D01*
X141370998Y-90321870D01*
X141419520Y-90405913D01*
X141494087Y-90480480D01*
X141585413Y-90533207D01*
X141687273Y-90560500D01*
X141687275Y-90560500D01*
X141792725Y-90560500D01*
X141792727Y-90560500D01*
X141894587Y-90533207D01*
X141985913Y-90480480D01*
X142060480Y-90405913D01*
X142113207Y-90314587D01*
X142138210Y-90221273D01*
X146343500Y-90221273D01*
X146343500Y-90326727D01*
X146367678Y-90416959D01*
X146370793Y-90428586D01*
X146370794Y-90428589D01*
X146376676Y-90438776D01*
X146423520Y-90519913D01*
X146498087Y-90594480D01*
X146589413Y-90647207D01*
X146691273Y-90674500D01*
X146691275Y-90674500D01*
X146796725Y-90674500D01*
X146796727Y-90674500D01*
X146898587Y-90647207D01*
X146989913Y-90594480D01*
X147064480Y-90519913D01*
X147117207Y-90428587D01*
X147144500Y-90326727D01*
X147144500Y-90221273D01*
X147117207Y-90119413D01*
X147064480Y-90028087D01*
X146989913Y-89953520D01*
X146898587Y-89900793D01*
X146796727Y-89873500D01*
X146691273Y-89873500D01*
X146589413Y-89900793D01*
X146589410Y-89900794D01*
X146498085Y-89953521D01*
X146423521Y-90028085D01*
X146370794Y-90119410D01*
X146370793Y-90119413D01*
X146343500Y-90221273D01*
X142138210Y-90221273D01*
X142140500Y-90212727D01*
X142140500Y-90107273D01*
X142113207Y-90005413D01*
X142060480Y-89914087D01*
X141985913Y-89839520D01*
X141918659Y-89800691D01*
X141894589Y-89786794D01*
X141894588Y-89786793D01*
X141894587Y-89786793D01*
X141792727Y-89759500D01*
X141687273Y-89759500D01*
X141585413Y-89786793D01*
X141585410Y-89786794D01*
X141494085Y-89839521D01*
X141419521Y-89914085D01*
X141366794Y-90005410D01*
X141366793Y-90005413D01*
X141339500Y-90107273D01*
X140623283Y-90107273D01*
X140604819Y-90096613D01*
X140604589Y-90096480D01*
X140604588Y-90096479D01*
X140604587Y-90096479D01*
X140502727Y-90069186D01*
X140397273Y-90069186D01*
X140295413Y-90096479D01*
X140295410Y-90096480D01*
X140204085Y-90149207D01*
X140129521Y-90223771D01*
X140076794Y-90315096D01*
X140076793Y-90315099D01*
X140049500Y-90416959D01*
X139306431Y-90416959D01*
X139305423Y-90413198D01*
X139252696Y-90321872D01*
X139178129Y-90247305D01*
X139086803Y-90194578D01*
X138984943Y-90167285D01*
X138879489Y-90167285D01*
X138777629Y-90194578D01*
X138777626Y-90194579D01*
X138686301Y-90247306D01*
X138611737Y-90321870D01*
X138559010Y-90413195D01*
X138559009Y-90413198D01*
X138531716Y-90515058D01*
X119593816Y-90515058D01*
X119608907Y-90468613D01*
X119621683Y-90429292D01*
X119640577Y-90310000D01*
X118977445Y-90310000D01*
X119000000Y-90225826D01*
X119000000Y-90094174D01*
X118977445Y-90010000D01*
X119640577Y-90010000D01*
X119621682Y-89890706D01*
X119565748Y-89718555D01*
X119565745Y-89718547D01*
X119534663Y-89657547D01*
X119534662Y-89657546D01*
X119510119Y-89609378D01*
X120849500Y-89609378D01*
X120849500Y-89714832D01*
X120876793Y-89816692D01*
X120929520Y-89908018D01*
X121004087Y-89982585D01*
X121095413Y-90035312D01*
X121197273Y-90062605D01*
X121197275Y-90062605D01*
X121302725Y-90062605D01*
X121302727Y-90062605D01*
X121404587Y-90035312D01*
X121495913Y-89982585D01*
X121570480Y-89908018D01*
X121623207Y-89816692D01*
X121650500Y-89714832D01*
X121650500Y-89609378D01*
X121640558Y-89572273D01*
X124424500Y-89572273D01*
X124424500Y-89677727D01*
X124446731Y-89760693D01*
X124451793Y-89779586D01*
X124451794Y-89779589D01*
X124463977Y-89800691D01*
X124504520Y-89870913D01*
X124579087Y-89945480D01*
X124670413Y-89998207D01*
X124772273Y-90025500D01*
X124772275Y-90025500D01*
X124877725Y-90025500D01*
X124877727Y-90025500D01*
X124979587Y-89998207D01*
X125070913Y-89945480D01*
X125145480Y-89870913D01*
X125198207Y-89779587D01*
X125225500Y-89677727D01*
X125225500Y-89579647D01*
X147284227Y-89579647D01*
X147284227Y-89685101D01*
X147311520Y-89786961D01*
X147364247Y-89878287D01*
X147438814Y-89952854D01*
X147530140Y-90005581D01*
X147632000Y-90032874D01*
X147632002Y-90032874D01*
X147737452Y-90032874D01*
X147737454Y-90032874D01*
X147839314Y-90005581D01*
X147894446Y-89973750D01*
X147962343Y-89957278D01*
X148028370Y-89980130D01*
X148063829Y-90019135D01*
X148079520Y-90046312D01*
X148154087Y-90120879D01*
X148245413Y-90173606D01*
X148347273Y-90200899D01*
X148347275Y-90200899D01*
X148452725Y-90200899D01*
X148452727Y-90200899D01*
X148554587Y-90173606D01*
X148645913Y-90120879D01*
X148720480Y-90046312D01*
X148773207Y-89954986D01*
X148800500Y-89853126D01*
X148800500Y-89747672D01*
X148773207Y-89645812D01*
X148720480Y-89554486D01*
X148720477Y-89554483D01*
X148717737Y-89549737D01*
X148701263Y-89481837D01*
X148724115Y-89415810D01*
X148737432Y-89400065D01*
X148760489Y-89377009D01*
X148819799Y-89274282D01*
X148850500Y-89159705D01*
X148850500Y-89041087D01*
X148819799Y-88926510D01*
X148760489Y-88823783D01*
X148676613Y-88739907D01*
X148573886Y-88680597D01*
X148459309Y-88649896D01*
X148340691Y-88649896D01*
X148226114Y-88680597D01*
X148226112Y-88680597D01*
X148226112Y-88680598D01*
X148123387Y-88739907D01*
X148123384Y-88739909D01*
X148039513Y-88823780D01*
X148039511Y-88823783D01*
X147981948Y-88923485D01*
X147980201Y-88926510D01*
X147949500Y-89041087D01*
X147949500Y-89041089D01*
X147949500Y-89127091D01*
X147929815Y-89194130D01*
X147877011Y-89239885D01*
X147807853Y-89249829D01*
X147793408Y-89246866D01*
X147737455Y-89231874D01*
X147737454Y-89231874D01*
X147632000Y-89231874D01*
X147530140Y-89259167D01*
X147530137Y-89259168D01*
X147438812Y-89311895D01*
X147364248Y-89386459D01*
X147311521Y-89477784D01*
X147311520Y-89477787D01*
X147284227Y-89579647D01*
X125225500Y-89579647D01*
X125225500Y-89572273D01*
X125198207Y-89470413D01*
X125145480Y-89379087D01*
X125070913Y-89304520D01*
X124979587Y-89251793D01*
X124877727Y-89224500D01*
X124772273Y-89224500D01*
X124670413Y-89251793D01*
X124670410Y-89251794D01*
X124579085Y-89304521D01*
X124504521Y-89379085D01*
X124451794Y-89470410D01*
X124451793Y-89470413D01*
X124424500Y-89572273D01*
X121640558Y-89572273D01*
X121623207Y-89507518D01*
X121570480Y-89416192D01*
X121495913Y-89341625D01*
X121411671Y-89292988D01*
X121404589Y-89288899D01*
X121404588Y-89288898D01*
X121404587Y-89288898D01*
X121302727Y-89261605D01*
X121197273Y-89261605D01*
X121095413Y-89288898D01*
X121095410Y-89288899D01*
X121004085Y-89341626D01*
X120929521Y-89416190D01*
X120876794Y-89507515D01*
X120876793Y-89507518D01*
X120849500Y-89609378D01*
X119510119Y-89609378D01*
X119483565Y-89557265D01*
X119377176Y-89410830D01*
X119249169Y-89282823D01*
X119102734Y-89176434D01*
X118941447Y-89094252D01*
X118941444Y-89094251D01*
X118840411Y-89061424D01*
X136474500Y-89061424D01*
X136474500Y-89166878D01*
X136501793Y-89268738D01*
X136554520Y-89360064D01*
X136629087Y-89434631D01*
X136720413Y-89487358D01*
X136822273Y-89514651D01*
X136822275Y-89514651D01*
X136927725Y-89514651D01*
X136927727Y-89514651D01*
X137029587Y-89487358D01*
X137120913Y-89434631D01*
X137195480Y-89360064D01*
X137248207Y-89268738D01*
X137275500Y-89166878D01*
X137275500Y-89061424D01*
X137248207Y-88959564D01*
X137195480Y-88868238D01*
X137120913Y-88793671D01*
X137031712Y-88742171D01*
X137029589Y-88740945D01*
X137029588Y-88740944D01*
X137029587Y-88740944D01*
X136927727Y-88713651D01*
X136822273Y-88713651D01*
X136720413Y-88740944D01*
X136720410Y-88740945D01*
X136629085Y-88793672D01*
X136554521Y-88868236D01*
X136501794Y-88959561D01*
X136501793Y-88959564D01*
X136474500Y-89061424D01*
X118840411Y-89061424D01*
X118769293Y-89038317D01*
X118607720Y-89012726D01*
X118544585Y-88982797D01*
X118507654Y-88923485D01*
X118508652Y-88853623D01*
X118547262Y-88795390D01*
X118607720Y-88767780D01*
X118624066Y-88765191D01*
X118769409Y-88742171D01*
X118941639Y-88686211D01*
X119102994Y-88603996D01*
X119249501Y-88497553D01*
X119300679Y-88446375D01*
X133699731Y-88446375D01*
X133699731Y-88551829D01*
X133727024Y-88653689D01*
X133779751Y-88745015D01*
X133854318Y-88819582D01*
X133945644Y-88872309D01*
X134047504Y-88899602D01*
X134047506Y-88899602D01*
X134152956Y-88899602D01*
X134152958Y-88899602D01*
X134254818Y-88872309D01*
X134323710Y-88832533D01*
X134391606Y-88816062D01*
X134447708Y-88832535D01*
X134454082Y-88836215D01*
X134454087Y-88836220D01*
X134545413Y-88888947D01*
X134647273Y-88916240D01*
X134647275Y-88916240D01*
X134752725Y-88916240D01*
X134752727Y-88916240D01*
X134854587Y-88888947D01*
X134945913Y-88836220D01*
X135009797Y-88772335D01*
X135071116Y-88738853D01*
X135140808Y-88743837D01*
X135196742Y-88785708D01*
X135204856Y-88798011D01*
X135231935Y-88844912D01*
X135306502Y-88919479D01*
X135397828Y-88972206D01*
X135499688Y-88999499D01*
X135499690Y-88999499D01*
X135605140Y-88999499D01*
X135605142Y-88999499D01*
X135707002Y-88972206D01*
X135798328Y-88919479D01*
X135872895Y-88844912D01*
X135925622Y-88753586D01*
X135952915Y-88651726D01*
X135952915Y-88546272D01*
X135946485Y-88522273D01*
X141274500Y-88522273D01*
X141274500Y-88627727D01*
X141288667Y-88680597D01*
X141301793Y-88729586D01*
X141301794Y-88729589D01*
X141309058Y-88742170D01*
X141354520Y-88820913D01*
X141429087Y-88895480D01*
X141520413Y-88948207D01*
X141622273Y-88975500D01*
X141622275Y-88975500D01*
X141727725Y-88975500D01*
X141727727Y-88975500D01*
X141829587Y-88948207D01*
X141920913Y-88895480D01*
X141995480Y-88820913D01*
X142048207Y-88729587D01*
X142075500Y-88627727D01*
X142075500Y-88522273D01*
X142048207Y-88420413D01*
X141995480Y-88329087D01*
X141920913Y-88254520D01*
X141829587Y-88201793D01*
X141727727Y-88174500D01*
X141622273Y-88174500D01*
X141520413Y-88201793D01*
X141520410Y-88201794D01*
X141429085Y-88254521D01*
X141354521Y-88329085D01*
X141301794Y-88420410D01*
X141301793Y-88420413D01*
X141274500Y-88522273D01*
X135946485Y-88522273D01*
X135925622Y-88444412D01*
X135872895Y-88353086D01*
X135798328Y-88278519D01*
X135707002Y-88225792D01*
X135605142Y-88198499D01*
X135499688Y-88198499D01*
X135397828Y-88225792D01*
X135397825Y-88225793D01*
X135306502Y-88278519D01*
X135242620Y-88342401D01*
X135181296Y-88375885D01*
X135111605Y-88370900D01*
X135055671Y-88329029D01*
X135047562Y-88316736D01*
X135020480Y-88269827D01*
X134945913Y-88195260D01*
X134879059Y-88156662D01*
X134854589Y-88142534D01*
X134854588Y-88142533D01*
X134854587Y-88142533D01*
X134752727Y-88115240D01*
X134647273Y-88115240D01*
X134545413Y-88142533D01*
X134545408Y-88142535D01*
X134476521Y-88182306D01*
X134408621Y-88198777D01*
X134352523Y-88182305D01*
X134254820Y-88125896D01*
X134254819Y-88125895D01*
X134254818Y-88125895D01*
X134152958Y-88098602D01*
X134047504Y-88098602D01*
X133945644Y-88125895D01*
X133945641Y-88125896D01*
X133854316Y-88178623D01*
X133779752Y-88253187D01*
X133727025Y-88344512D01*
X133727024Y-88344515D01*
X133699731Y-88446375D01*
X119300679Y-88446375D01*
X119377553Y-88369501D01*
X119380559Y-88365363D01*
X119380560Y-88365363D01*
X119462058Y-88253189D01*
X119483996Y-88222994D01*
X119566211Y-88061639D01*
X119622171Y-87889409D01*
X119637669Y-87791557D01*
X119650500Y-87710551D01*
X119650500Y-87695891D01*
X124949500Y-87695891D01*
X124949500Y-87814509D01*
X124980201Y-87929086D01*
X125039511Y-88031813D01*
X125123387Y-88115689D01*
X125226114Y-88174999D01*
X125340691Y-88205700D01*
X125340694Y-88205700D01*
X125459306Y-88205700D01*
X125459309Y-88205700D01*
X125573886Y-88174999D01*
X125676613Y-88115689D01*
X125760489Y-88031813D01*
X125791832Y-87977525D01*
X149624500Y-87977525D01*
X149624500Y-88122475D01*
X149662016Y-88262485D01*
X149662017Y-88262488D01*
X149734488Y-88388011D01*
X149734490Y-88388013D01*
X149734491Y-88388015D01*
X149836985Y-88490509D01*
X149836986Y-88490510D01*
X149836988Y-88490511D01*
X149962511Y-88562982D01*
X149962512Y-88562982D01*
X149962515Y-88562984D01*
X150102525Y-88600500D01*
X150102528Y-88600500D01*
X150247472Y-88600500D01*
X150247475Y-88600500D01*
X150387485Y-88562984D01*
X150513015Y-88490509D01*
X150525999Y-88477525D01*
X152824500Y-88477525D01*
X152824500Y-88622475D01*
X152859632Y-88753588D01*
X152862017Y-88762488D01*
X152934488Y-88888011D01*
X152934490Y-88888013D01*
X152934491Y-88888015D01*
X153036985Y-88990509D01*
X153036986Y-88990510D01*
X153036988Y-88990511D01*
X153162511Y-89062982D01*
X153162512Y-89062982D01*
X153162515Y-89062984D01*
X153302525Y-89100500D01*
X153302528Y-89100500D01*
X153447472Y-89100500D01*
X153447475Y-89100500D01*
X153587485Y-89062984D01*
X153713015Y-88990509D01*
X153815509Y-88888015D01*
X153887984Y-88762485D01*
X153925500Y-88622475D01*
X153925500Y-88477525D01*
X153887984Y-88337515D01*
X153848902Y-88269824D01*
X153815511Y-88211988D01*
X153815506Y-88211982D01*
X153713017Y-88109493D01*
X153713011Y-88109488D01*
X153587488Y-88037017D01*
X153587489Y-88037017D01*
X153568067Y-88031813D01*
X153447475Y-87999500D01*
X153302525Y-87999500D01*
X153181933Y-88031813D01*
X153162511Y-88037017D01*
X153036988Y-88109488D01*
X153036982Y-88109493D01*
X152934493Y-88211982D01*
X152934488Y-88211988D01*
X152862017Y-88337511D01*
X152862016Y-88337515D01*
X152824500Y-88477525D01*
X150525999Y-88477525D01*
X150615509Y-88388015D01*
X150687984Y-88262485D01*
X150725500Y-88122475D01*
X150725500Y-87977525D01*
X150687984Y-87837515D01*
X150677615Y-87819556D01*
X150615511Y-87711988D01*
X150615506Y-87711982D01*
X150513017Y-87609493D01*
X150513011Y-87609488D01*
X150387488Y-87537017D01*
X150387489Y-87537017D01*
X150376006Y-87533940D01*
X150247475Y-87499500D01*
X150102525Y-87499500D01*
X149973993Y-87533940D01*
X149962511Y-87537017D01*
X149836988Y-87609488D01*
X149836982Y-87609493D01*
X149734493Y-87711982D01*
X149734488Y-87711988D01*
X149662017Y-87837511D01*
X149662016Y-87837515D01*
X149624500Y-87977525D01*
X125791832Y-87977525D01*
X125819799Y-87929086D01*
X125850500Y-87814509D01*
X125850500Y-87695891D01*
X125819799Y-87581314D01*
X125760489Y-87478587D01*
X125676613Y-87394711D01*
X125573886Y-87335401D01*
X125459309Y-87304700D01*
X125340691Y-87304700D01*
X125226114Y-87335401D01*
X125226112Y-87335401D01*
X125226112Y-87335402D01*
X125123387Y-87394711D01*
X125123384Y-87394713D01*
X125039513Y-87478584D01*
X125039511Y-87478587D01*
X124981251Y-87579496D01*
X124980201Y-87581314D01*
X124949500Y-87695891D01*
X119650500Y-87695891D01*
X119650500Y-87529448D01*
X119633130Y-87419786D01*
X119622171Y-87350591D01*
X119574505Y-87203887D01*
X119566212Y-87178363D01*
X119566211Y-87178360D01*
X119518170Y-87084075D01*
X119483996Y-87017006D01*
X119481091Y-87013007D01*
X119468334Y-86995448D01*
X119468333Y-86995447D01*
X119421285Y-86930691D01*
X121899500Y-86930691D01*
X121899500Y-87049309D01*
X121930201Y-87163886D01*
X121989511Y-87266613D01*
X122073387Y-87350489D01*
X122176114Y-87409799D01*
X122290691Y-87440500D01*
X122290694Y-87440500D01*
X122409306Y-87440500D01*
X122409309Y-87440500D01*
X122523886Y-87409799D01*
X122580336Y-87377207D01*
X122648233Y-87360734D01*
X122714260Y-87383585D01*
X122717822Y-87386219D01*
X122723383Y-87390486D01*
X122723385Y-87390487D01*
X122723387Y-87390489D01*
X122826114Y-87449799D01*
X122940691Y-87480500D01*
X122940694Y-87480500D01*
X123059306Y-87480500D01*
X123059309Y-87480500D01*
X123173886Y-87449799D01*
X123276613Y-87390489D01*
X123360489Y-87306613D01*
X123419799Y-87203886D01*
X123450500Y-87089309D01*
X123450500Y-86970691D01*
X123419799Y-86856114D01*
X123360489Y-86753387D01*
X123276613Y-86669511D01*
X123173886Y-86610201D01*
X123059309Y-86579500D01*
X122940691Y-86579500D01*
X122863431Y-86600202D01*
X122826110Y-86610202D01*
X122769664Y-86642792D01*
X122701764Y-86659265D01*
X122635737Y-86636413D01*
X122632178Y-86633781D01*
X122626616Y-86629513D01*
X122624926Y-86628537D01*
X122523886Y-86570201D01*
X122409309Y-86539500D01*
X122290691Y-86539500D01*
X122176114Y-86570201D01*
X122176112Y-86570201D01*
X122176112Y-86570202D01*
X122073387Y-86629511D01*
X122073384Y-86629513D01*
X121989513Y-86713384D01*
X121989511Y-86713387D01*
X121966419Y-86753384D01*
X121930201Y-86816114D01*
X121899500Y-86930691D01*
X119421285Y-86930691D01*
X119377558Y-86870505D01*
X119377554Y-86870500D01*
X119249499Y-86742445D01*
X119249494Y-86742441D01*
X119102997Y-86636006D01*
X119102996Y-86636005D01*
X119102994Y-86636004D01*
X119051300Y-86609664D01*
X118941639Y-86553788D01*
X118941636Y-86553787D01*
X118769410Y-86497829D01*
X118609321Y-86472473D01*
X118546186Y-86442544D01*
X118543061Y-86437525D01*
X132729500Y-86437525D01*
X132729500Y-86582475D01*
X132765290Y-86716042D01*
X132767017Y-86722488D01*
X132839488Y-86848011D01*
X132839490Y-86848013D01*
X132839491Y-86848015D01*
X132941985Y-86950509D01*
X132941986Y-86950510D01*
X132941988Y-86950511D01*
X133067511Y-87022982D01*
X133067512Y-87022982D01*
X133067515Y-87022984D01*
X133207525Y-87060500D01*
X133207528Y-87060500D01*
X133352472Y-87060500D01*
X133352475Y-87060500D01*
X133492485Y-87022984D01*
X133618015Y-86950509D01*
X133720509Y-86848015D01*
X133792984Y-86722485D01*
X133830500Y-86582475D01*
X133830500Y-86487525D01*
X134489500Y-86487525D01*
X134489500Y-86632475D01*
X134520759Y-86749134D01*
X134527017Y-86772488D01*
X134599488Y-86898011D01*
X134599490Y-86898013D01*
X134599491Y-86898015D01*
X134701985Y-87000509D01*
X134701986Y-87000510D01*
X134701988Y-87000511D01*
X134827511Y-87072982D01*
X134827512Y-87072982D01*
X134827515Y-87072984D01*
X134967525Y-87110500D01*
X134967528Y-87110500D01*
X135112472Y-87110500D01*
X135112475Y-87110500D01*
X135252485Y-87072984D01*
X135378015Y-87000509D01*
X135417833Y-86960691D01*
X152219500Y-86960691D01*
X152219500Y-87079309D01*
X152250201Y-87193886D01*
X152309511Y-87296613D01*
X152393387Y-87380489D01*
X152496114Y-87439799D01*
X152610691Y-87470500D01*
X152610694Y-87470500D01*
X152729306Y-87470500D01*
X152729309Y-87470500D01*
X152843886Y-87439799D01*
X152843888Y-87439797D01*
X152843890Y-87439797D01*
X152843891Y-87439796D01*
X152895847Y-87409799D01*
X152946500Y-87380553D01*
X153014400Y-87364080D01*
X153080427Y-87386932D01*
X153115887Y-87425938D01*
X153155508Y-87494563D01*
X153258002Y-87597057D01*
X153258003Y-87597058D01*
X153258005Y-87597059D01*
X153383528Y-87669530D01*
X153383529Y-87669530D01*
X153383532Y-87669532D01*
X153523542Y-87707048D01*
X153523545Y-87707048D01*
X153668489Y-87707048D01*
X153668492Y-87707048D01*
X153808502Y-87669532D01*
X153934032Y-87597057D01*
X154036526Y-87494563D01*
X154096896Y-87389999D01*
X155029163Y-87389999D01*
X155029164Y-87390000D01*
X155555192Y-87390000D01*
X155535444Y-87424204D01*
X155515000Y-87500504D01*
X155515000Y-87579496D01*
X155535444Y-87655796D01*
X155555192Y-87690000D01*
X155029163Y-87690000D01*
X155045741Y-87773343D01*
X155045744Y-87773353D01*
X155106047Y-87918939D01*
X155106052Y-87918948D01*
X155193598Y-88049969D01*
X155193601Y-88049973D01*
X155305026Y-88161398D01*
X155305030Y-88161401D01*
X155436051Y-88248947D01*
X155436060Y-88248952D01*
X155581648Y-88309256D01*
X155581656Y-88309258D01*
X155736202Y-88339999D01*
X155736206Y-88340000D01*
X156215000Y-88340000D01*
X156215000Y-87840000D01*
X156515000Y-87840000D01*
X156515000Y-88385499D01*
X156495315Y-88452538D01*
X156469670Y-88481348D01*
X156466266Y-88484141D01*
X156379144Y-88571263D01*
X156379141Y-88571267D01*
X156310692Y-88673707D01*
X156310687Y-88673716D01*
X156263538Y-88787545D01*
X156263535Y-88787555D01*
X156239500Y-88908389D01*
X156239500Y-89031610D01*
X156262589Y-89147688D01*
X156263537Y-89152452D01*
X156271694Y-89172144D01*
X156310687Y-89266283D01*
X156310692Y-89266292D01*
X156379141Y-89368732D01*
X156379144Y-89368736D01*
X156466263Y-89455855D01*
X156466267Y-89455858D01*
X156568707Y-89524307D01*
X156568716Y-89524312D01*
X156582192Y-89529894D01*
X156682548Y-89571463D01*
X156803389Y-89595499D01*
X156803393Y-89595500D01*
X156803394Y-89595500D01*
X156926607Y-89595500D01*
X156926608Y-89595499D01*
X157047452Y-89571463D01*
X157161286Y-89524311D01*
X157263733Y-89455858D01*
X157350858Y-89368733D01*
X157419311Y-89266286D01*
X157465101Y-89155739D01*
X157508940Y-89101337D01*
X157575234Y-89079272D01*
X157642934Y-89096551D01*
X157690545Y-89147688D01*
X157694223Y-89155742D01*
X157697017Y-89162488D01*
X157769488Y-89288011D01*
X157769490Y-89288013D01*
X157769491Y-89288015D01*
X157871985Y-89390509D01*
X157888774Y-89400202D01*
X157902949Y-89408386D01*
X157951165Y-89458953D01*
X157964388Y-89527560D01*
X157938420Y-89592425D01*
X157902953Y-89623158D01*
X157891988Y-89629488D01*
X157891982Y-89629493D01*
X157789493Y-89731982D01*
X157789488Y-89731988D01*
X157717017Y-89857511D01*
X157717016Y-89857515D01*
X157679500Y-89997525D01*
X157679500Y-90142475D01*
X157707590Y-90247306D01*
X157717017Y-90282488D01*
X157789488Y-90408011D01*
X157789490Y-90408013D01*
X157789491Y-90408015D01*
X157891985Y-90510509D01*
X157891986Y-90510510D01*
X157891988Y-90510511D01*
X158017511Y-90582982D01*
X158017512Y-90582982D01*
X158017515Y-90582984D01*
X158157525Y-90620500D01*
X158157528Y-90620500D01*
X158302472Y-90620500D01*
X158302475Y-90620500D01*
X158442485Y-90582984D01*
X158568015Y-90510509D01*
X158670509Y-90408015D01*
X158742984Y-90282485D01*
X158780500Y-90142475D01*
X158780500Y-89997525D01*
X158742984Y-89857515D01*
X158740449Y-89853125D01*
X158670511Y-89731988D01*
X158670506Y-89731982D01*
X158568017Y-89629493D01*
X158568015Y-89629491D01*
X158537048Y-89611612D01*
X158488834Y-89561045D01*
X158475612Y-89492438D01*
X158501580Y-89427574D01*
X158537049Y-89396839D01*
X158548015Y-89390509D01*
X158650509Y-89288015D01*
X158722984Y-89162485D01*
X158760500Y-89022475D01*
X158760500Y-88877525D01*
X158722984Y-88737515D01*
X158690122Y-88680597D01*
X158650511Y-88611988D01*
X158650506Y-88611982D01*
X158548017Y-88509493D01*
X158548011Y-88509488D01*
X158422488Y-88437017D01*
X158422489Y-88437017D01*
X158411006Y-88433940D01*
X158282475Y-88399500D01*
X158137525Y-88399500D01*
X158008993Y-88433940D01*
X157997511Y-88437017D01*
X157871988Y-88509488D01*
X157871982Y-88509493D01*
X157769493Y-88611982D01*
X157769488Y-88611988D01*
X157697017Y-88737511D01*
X157697017Y-88737512D01*
X157697016Y-88737514D01*
X157697016Y-88737515D01*
X157696375Y-88739907D01*
X157692859Y-88753028D01*
X157656491Y-88812687D01*
X157593643Y-88843214D01*
X157524268Y-88834916D01*
X157470392Y-88790429D01*
X157458524Y-88768382D01*
X157457203Y-88765194D01*
X157446293Y-88738853D01*
X157419314Y-88673720D01*
X157419307Y-88673707D01*
X157350858Y-88571267D01*
X157350855Y-88571263D01*
X157263736Y-88484144D01*
X157250895Y-88475564D01*
X157206091Y-88421951D01*
X157197384Y-88352626D01*
X157227539Y-88289599D01*
X157272336Y-88257900D01*
X157293941Y-88248951D01*
X157293948Y-88248947D01*
X157424969Y-88161401D01*
X157424973Y-88161398D01*
X157536398Y-88049973D01*
X157536401Y-88049969D01*
X157623947Y-87918948D01*
X157623952Y-87918939D01*
X157684255Y-87773353D01*
X157684258Y-87773343D01*
X157700836Y-87690000D01*
X157174808Y-87690000D01*
X157194556Y-87655796D01*
X157215000Y-87579496D01*
X157215000Y-87500504D01*
X157194556Y-87424204D01*
X157174808Y-87390000D01*
X157700836Y-87390000D01*
X157700836Y-87389999D01*
X159459163Y-87389999D01*
X159459164Y-87390000D01*
X159985192Y-87390000D01*
X159965444Y-87424204D01*
X159945000Y-87500504D01*
X159945000Y-87579496D01*
X159965444Y-87655796D01*
X159985192Y-87690000D01*
X159459163Y-87690000D01*
X159475741Y-87773343D01*
X159475744Y-87773353D01*
X159536047Y-87918939D01*
X159536052Y-87918948D01*
X159623598Y-88049969D01*
X159623601Y-88049973D01*
X159735026Y-88161398D01*
X159735030Y-88161401D01*
X159866051Y-88248947D01*
X159866060Y-88248952D01*
X160011648Y-88309256D01*
X160011656Y-88309258D01*
X160166202Y-88339999D01*
X160166206Y-88340000D01*
X160395000Y-88340000D01*
X160395000Y-87840000D01*
X160695000Y-87840000D01*
X160695000Y-88340000D01*
X160923794Y-88340000D01*
X160923797Y-88339999D01*
X161078343Y-88309258D01*
X161078351Y-88309256D01*
X161223939Y-88248952D01*
X161223948Y-88248947D01*
X161354969Y-88161401D01*
X161354973Y-88161398D01*
X161466398Y-88049973D01*
X161466401Y-88049969D01*
X161553947Y-87918948D01*
X161553952Y-87918939D01*
X161614255Y-87773353D01*
X161614258Y-87773343D01*
X161630836Y-87690000D01*
X161104808Y-87690000D01*
X161124556Y-87655796D01*
X161145000Y-87579496D01*
X161145000Y-87500504D01*
X161124556Y-87424204D01*
X161104808Y-87390000D01*
X161630836Y-87390000D01*
X161630836Y-87389999D01*
X161614258Y-87306656D01*
X161614255Y-87306646D01*
X161553952Y-87161060D01*
X161553947Y-87161051D01*
X161466401Y-87030030D01*
X161466398Y-87030026D01*
X161354973Y-86918601D01*
X161354969Y-86918598D01*
X161223948Y-86831052D01*
X161223939Y-86831047D01*
X161078351Y-86770743D01*
X161078343Y-86770741D01*
X160923797Y-86740000D01*
X160695000Y-86740000D01*
X160695000Y-87240000D01*
X160395000Y-87240000D01*
X160395000Y-86740000D01*
X160166202Y-86740000D01*
X160011656Y-86770741D01*
X160011648Y-86770743D01*
X159866060Y-86831047D01*
X159866051Y-86831052D01*
X159735030Y-86918598D01*
X159735026Y-86918601D01*
X159623601Y-87030026D01*
X159623598Y-87030030D01*
X159536052Y-87161051D01*
X159536047Y-87161060D01*
X159475744Y-87306646D01*
X159475741Y-87306656D01*
X159459163Y-87389999D01*
X157700836Y-87389999D01*
X157684258Y-87306656D01*
X157684255Y-87306646D01*
X157623952Y-87161060D01*
X157623947Y-87161051D01*
X157536401Y-87030030D01*
X157536398Y-87030026D01*
X157424973Y-86918601D01*
X157424969Y-86918598D01*
X157293948Y-86831052D01*
X157293939Y-86831047D01*
X157148351Y-86770743D01*
X157148343Y-86770741D01*
X156993797Y-86740000D01*
X156515000Y-86740000D01*
X156515000Y-87240000D01*
X156215000Y-87240000D01*
X156215000Y-86740000D01*
X155736202Y-86740000D01*
X155581656Y-86770741D01*
X155581648Y-86770743D01*
X155436060Y-86831047D01*
X155436051Y-86831052D01*
X155305030Y-86918598D01*
X155305026Y-86918601D01*
X155193601Y-87030026D01*
X155193598Y-87030030D01*
X155106052Y-87161051D01*
X155106047Y-87161060D01*
X155045744Y-87306646D01*
X155045741Y-87306656D01*
X155029163Y-87389999D01*
X154096896Y-87389999D01*
X154109001Y-87369033D01*
X154146517Y-87229023D01*
X154146517Y-87084073D01*
X154109001Y-86944063D01*
X154094300Y-86918601D01*
X154036528Y-86818536D01*
X154036523Y-86818530D01*
X153934034Y-86716041D01*
X153934028Y-86716036D01*
X153808505Y-86643565D01*
X153808506Y-86643565D01*
X153780288Y-86636004D01*
X153668492Y-86606048D01*
X153523542Y-86606048D01*
X153411746Y-86636004D01*
X153383528Y-86643565D01*
X153258005Y-86716036D01*
X153257998Y-86716042D01*
X153217375Y-86756665D01*
X153156052Y-86790149D01*
X153086360Y-86785164D01*
X153036827Y-86748542D01*
X153036236Y-86749134D01*
X153032289Y-86745187D01*
X153031319Y-86744470D01*
X153030492Y-86743393D01*
X153030489Y-86743387D01*
X152946613Y-86659511D01*
X152843886Y-86600201D01*
X152729309Y-86569500D01*
X152610691Y-86569500D01*
X152496114Y-86600201D01*
X152496112Y-86600201D01*
X152496112Y-86600202D01*
X152393387Y-86659511D01*
X152393384Y-86659513D01*
X152309513Y-86743384D01*
X152309511Y-86743387D01*
X152250201Y-86846114D01*
X152219500Y-86960691D01*
X135417833Y-86960691D01*
X135480509Y-86898015D01*
X135552984Y-86772485D01*
X135590500Y-86632475D01*
X135590500Y-86487525D01*
X135552984Y-86347515D01*
X135538260Y-86322013D01*
X135480511Y-86221988D01*
X135480506Y-86221982D01*
X135378017Y-86119493D01*
X135378011Y-86119488D01*
X135252488Y-86047017D01*
X135252489Y-86047017D01*
X135241006Y-86043940D01*
X135112475Y-86009500D01*
X134967525Y-86009500D01*
X134838993Y-86043940D01*
X134827511Y-86047017D01*
X134701988Y-86119488D01*
X134701982Y-86119493D01*
X134599493Y-86221982D01*
X134599488Y-86221988D01*
X134527017Y-86347511D01*
X134527016Y-86347515D01*
X134489500Y-86487525D01*
X133830500Y-86487525D01*
X133830500Y-86437525D01*
X133792984Y-86297515D01*
X133781559Y-86277727D01*
X133720511Y-86171988D01*
X133720506Y-86171982D01*
X133618017Y-86069493D01*
X133618011Y-86069488D01*
X133492488Y-85997017D01*
X133492489Y-85997017D01*
X133487503Y-85995681D01*
X133352475Y-85959500D01*
X133207525Y-85959500D01*
X133078993Y-85993940D01*
X133067511Y-85997017D01*
X132941988Y-86069488D01*
X132941982Y-86069493D01*
X132839493Y-86171982D01*
X132839488Y-86171988D01*
X132767017Y-86297511D01*
X132767016Y-86297515D01*
X132729500Y-86437525D01*
X118543061Y-86437525D01*
X118509255Y-86383232D01*
X118510253Y-86313370D01*
X118548863Y-86255137D01*
X118609321Y-86227527D01*
X118679425Y-86216422D01*
X118769409Y-86202171D01*
X118941639Y-86146211D01*
X119102994Y-86063996D01*
X119249501Y-85957553D01*
X119309781Y-85897273D01*
X123889500Y-85897273D01*
X123889500Y-86002727D01*
X123916793Y-86104587D01*
X123969520Y-86195913D01*
X124044087Y-86270480D01*
X124135413Y-86323207D01*
X124237273Y-86350500D01*
X124237275Y-86350500D01*
X124342725Y-86350500D01*
X124342727Y-86350500D01*
X124444587Y-86323207D01*
X124535913Y-86270480D01*
X124610480Y-86195913D01*
X124663207Y-86104587D01*
X124690500Y-86002727D01*
X124690500Y-85897273D01*
X124683801Y-85872273D01*
X142424500Y-85872273D01*
X142424500Y-85977727D01*
X142451793Y-86079587D01*
X142504520Y-86170913D01*
X142579087Y-86245480D01*
X142670413Y-86298207D01*
X142772273Y-86325500D01*
X142772275Y-86325500D01*
X142877725Y-86325500D01*
X142877727Y-86325500D01*
X142979587Y-86298207D01*
X143070913Y-86245480D01*
X143144120Y-86172273D01*
X145474500Y-86172273D01*
X145474500Y-86277727D01*
X145501793Y-86379587D01*
X145554520Y-86470913D01*
X145629087Y-86545480D01*
X145720413Y-86598207D01*
X145822273Y-86625500D01*
X145822275Y-86625500D01*
X145927725Y-86625500D01*
X145927727Y-86625500D01*
X146029587Y-86598207D01*
X146120913Y-86545480D01*
X146195480Y-86470913D01*
X146248207Y-86379587D01*
X146275500Y-86277727D01*
X146275500Y-86172273D01*
X146248207Y-86070413D01*
X146195480Y-85979087D01*
X146120913Y-85904520D01*
X146029587Y-85851793D01*
X145927727Y-85824500D01*
X145822273Y-85824500D01*
X145720413Y-85851793D01*
X145720410Y-85851794D01*
X145629085Y-85904521D01*
X145554521Y-85979085D01*
X145501794Y-86070410D01*
X145501793Y-86070413D01*
X145474500Y-86172273D01*
X143144120Y-86172273D01*
X143145480Y-86170913D01*
X143198207Y-86079587D01*
X143225500Y-85977727D01*
X143225500Y-85872273D01*
X143198207Y-85770413D01*
X143145480Y-85679087D01*
X143070913Y-85604520D01*
X142979587Y-85551793D01*
X142877727Y-85524500D01*
X142772273Y-85524500D01*
X142670413Y-85551793D01*
X142670410Y-85551794D01*
X142579085Y-85604521D01*
X142504521Y-85679085D01*
X142451794Y-85770410D01*
X142451793Y-85770413D01*
X142424500Y-85872273D01*
X124683801Y-85872273D01*
X124663207Y-85795413D01*
X124610480Y-85704087D01*
X124535913Y-85629520D01*
X124449312Y-85579521D01*
X124444589Y-85576794D01*
X124444588Y-85576793D01*
X124444587Y-85576793D01*
X124342727Y-85549500D01*
X124237273Y-85549500D01*
X124135413Y-85576793D01*
X124135410Y-85576794D01*
X124044085Y-85629521D01*
X123969521Y-85704085D01*
X123916794Y-85795410D01*
X123916793Y-85795413D01*
X123889500Y-85897273D01*
X119309781Y-85897273D01*
X119377553Y-85829501D01*
X119377558Y-85829494D01*
X119387172Y-85816262D01*
X119387172Y-85816261D01*
X119402321Y-85795410D01*
X119483996Y-85682994D01*
X119566211Y-85521639D01*
X119622171Y-85349409D01*
X119647013Y-85192564D01*
X119650500Y-85170551D01*
X119650500Y-84989448D01*
X119623629Y-84819799D01*
X119622171Y-84810591D01*
X119566211Y-84638361D01*
X119566211Y-84638360D01*
X119526531Y-84560486D01*
X119483996Y-84477006D01*
X119435685Y-84410511D01*
X119377558Y-84330505D01*
X119377554Y-84330500D01*
X119249499Y-84202445D01*
X119249494Y-84202441D01*
X119102997Y-84096006D01*
X119102996Y-84096005D01*
X119102994Y-84096004D01*
X119007355Y-84047273D01*
X118941639Y-84013788D01*
X118941636Y-84013787D01*
X118769410Y-83957829D01*
X118590551Y-83929500D01*
X118590546Y-83929500D01*
X118409454Y-83929500D01*
X118409449Y-83929500D01*
X118230589Y-83957829D01*
X118058363Y-84013787D01*
X118058360Y-84013788D01*
X117897002Y-84096006D01*
X117750505Y-84202441D01*
X117750500Y-84202445D01*
X117622445Y-84330500D01*
X117622441Y-84330505D01*
X117516006Y-84477002D01*
X117433788Y-84638360D01*
X117433787Y-84638363D01*
X117377829Y-84810589D01*
X117349500Y-84989448D01*
X117349500Y-85170551D01*
X117377829Y-85349410D01*
X117433787Y-85521636D01*
X117433788Y-85521639D01*
X117476019Y-85604520D01*
X117514013Y-85679087D01*
X117516006Y-85682997D01*
X117622441Y-85829494D01*
X117622445Y-85829499D01*
X117750500Y-85957554D01*
X117750505Y-85957558D01*
X117812676Y-86002727D01*
X117897006Y-86063996D01*
X117976668Y-86104586D01*
X118058360Y-86146211D01*
X118058363Y-86146212D01*
X118137696Y-86171988D01*
X118230591Y-86202171D01*
X118303639Y-86213740D01*
X118390678Y-86227527D01*
X118453813Y-86257456D01*
X118490744Y-86316768D01*
X118489746Y-86386631D01*
X118451136Y-86444863D01*
X118390678Y-86472473D01*
X118230589Y-86497829D01*
X118058363Y-86553787D01*
X118058360Y-86553788D01*
X117897002Y-86636006D01*
X117750505Y-86742441D01*
X117750500Y-86742445D01*
X117622445Y-86870500D01*
X117622441Y-86870505D01*
X117516006Y-87017002D01*
X117433788Y-87178360D01*
X117433787Y-87178363D01*
X117377829Y-87350589D01*
X117349500Y-87529448D01*
X117349500Y-87710551D01*
X117377829Y-87889410D01*
X117433787Y-88061636D01*
X117433788Y-88061639D01*
X117475007Y-88142533D01*
X117510649Y-88212485D01*
X117516006Y-88222997D01*
X117622441Y-88369494D01*
X117622445Y-88369499D01*
X117750500Y-88497554D01*
X117750505Y-88497558D01*
X117851958Y-88571267D01*
X117897006Y-88603996D01*
X117994537Y-88653691D01*
X118058360Y-88686211D01*
X118058363Y-88686212D01*
X118142814Y-88713651D01*
X118230591Y-88742171D01*
X118350038Y-88761089D01*
X118392279Y-88767780D01*
X118455414Y-88797709D01*
X118492345Y-88857021D01*
X118491347Y-88926883D01*
X118452737Y-88985116D01*
X118392279Y-89012726D01*
X118230706Y-89038317D01*
X118058555Y-89094251D01*
X118058552Y-89094252D01*
X117897265Y-89176434D01*
X117750830Y-89282823D01*
X117622823Y-89410830D01*
X117516432Y-89557267D01*
X117439503Y-89708247D01*
X117391529Y-89759042D01*
X117323708Y-89775837D01*
X117257573Y-89753299D01*
X117214122Y-89698584D01*
X117210532Y-89687885D01*
X117209799Y-89686114D01*
X117204956Y-89677726D01*
X117150489Y-89583387D01*
X117066613Y-89499511D01*
X116963886Y-89440201D01*
X116849309Y-89409500D01*
X116730691Y-89409500D01*
X116616114Y-89440201D01*
X116616112Y-89440201D01*
X116616112Y-89440202D01*
X116513387Y-89499511D01*
X116513384Y-89499513D01*
X116429513Y-89583384D01*
X116429504Y-89583396D01*
X116428929Y-89584393D01*
X116428223Y-89585065D01*
X116424563Y-89589836D01*
X116423818Y-89589264D01*
X116378358Y-89632605D01*
X116309750Y-89645823D01*
X116244888Y-89619850D01*
X116214161Y-89584386D01*
X116190493Y-89543393D01*
X116190490Y-89543390D01*
X116190489Y-89543387D01*
X116106613Y-89459511D01*
X116003886Y-89400201D01*
X115889309Y-89369500D01*
X115770691Y-89369500D01*
X115770689Y-89369500D01*
X115759748Y-89372432D01*
X115689898Y-89370769D01*
X115632036Y-89331605D01*
X115604533Y-89267376D01*
X115616120Y-89198474D01*
X115634672Y-89172423D01*
X115634309Y-89172144D01*
X115639255Y-89165697D01*
X115639258Y-89165694D01*
X115691985Y-89074368D01*
X115719278Y-88972508D01*
X115719278Y-88867054D01*
X115691985Y-88765194D01*
X115639258Y-88673868D01*
X115564691Y-88599301D01*
X115473365Y-88546574D01*
X115371505Y-88519281D01*
X115266051Y-88519281D01*
X115164191Y-88546574D01*
X115164188Y-88546575D01*
X115072863Y-88599302D01*
X114998299Y-88673866D01*
X114945572Y-88765191D01*
X114945571Y-88765194D01*
X114918278Y-88867054D01*
X99100500Y-88867054D01*
X99100500Y-87927525D01*
X105759500Y-87927525D01*
X105759500Y-88072475D01*
X105795198Y-88205700D01*
X105797017Y-88212488D01*
X105869488Y-88338011D01*
X105869490Y-88338013D01*
X105869491Y-88338015D01*
X105971985Y-88440509D01*
X105971986Y-88440510D01*
X105971988Y-88440511D01*
X106097511Y-88512982D01*
X106097512Y-88512982D01*
X106097515Y-88512984D01*
X106237525Y-88550500D01*
X106237528Y-88550500D01*
X106382472Y-88550500D01*
X106382475Y-88550500D01*
X106522485Y-88512984D01*
X106648015Y-88440509D01*
X106750509Y-88338015D01*
X106822984Y-88212485D01*
X106860500Y-88072475D01*
X106860500Y-87927525D01*
X106822984Y-87787515D01*
X106805244Y-87756789D01*
X106750511Y-87661988D01*
X106750506Y-87661982D01*
X106648017Y-87559493D01*
X106648011Y-87559488D01*
X106522488Y-87487017D01*
X106522489Y-87487017D01*
X106498167Y-87480500D01*
X106382475Y-87449500D01*
X106237525Y-87449500D01*
X106121833Y-87480500D01*
X106097511Y-87487017D01*
X105971988Y-87559488D01*
X105971982Y-87559493D01*
X105869493Y-87661982D01*
X105869488Y-87661988D01*
X105797017Y-87787511D01*
X105797016Y-87787515D01*
X105759500Y-87927525D01*
X99100500Y-87927525D01*
X99100500Y-86433713D01*
X101649500Y-86433713D01*
X101649500Y-86646287D01*
X101651595Y-86659513D01*
X101682733Y-86856114D01*
X101682754Y-86856243D01*
X101745485Y-87049309D01*
X101748444Y-87058414D01*
X101844951Y-87247820D01*
X101969890Y-87419786D01*
X102120213Y-87570109D01*
X102292179Y-87695048D01*
X102292181Y-87695049D01*
X102292184Y-87695051D01*
X102481588Y-87791557D01*
X102683757Y-87857246D01*
X102893713Y-87890500D01*
X102893714Y-87890500D01*
X103106286Y-87890500D01*
X103106287Y-87890500D01*
X103316243Y-87857246D01*
X103518412Y-87791557D01*
X103707816Y-87695051D01*
X103803295Y-87625682D01*
X103879786Y-87570109D01*
X103879788Y-87570106D01*
X103879792Y-87570104D01*
X104030104Y-87419792D01*
X104030106Y-87419788D01*
X104030109Y-87419786D01*
X104098726Y-87325341D01*
X104155051Y-87247816D01*
X104195898Y-87167650D01*
X111503003Y-87167650D01*
X111503003Y-87325343D01*
X111533764Y-87479986D01*
X111533767Y-87479998D01*
X111594105Y-87625669D01*
X111594112Y-87625682D01*
X111681713Y-87756785D01*
X111681716Y-87756789D01*
X111793210Y-87868283D01*
X111793214Y-87868286D01*
X111924317Y-87955887D01*
X111924330Y-87955894D01*
X112029606Y-87999500D01*
X112070006Y-88016234D01*
X112224656Y-88046996D01*
X112224659Y-88046997D01*
X112224661Y-88046997D01*
X112382347Y-88046997D01*
X112382348Y-88046996D01*
X112537000Y-88016234D01*
X112682682Y-87955891D01*
X112813792Y-87868286D01*
X112925292Y-87756786D01*
X113012897Y-87625676D01*
X113073240Y-87479994D01*
X113104003Y-87325339D01*
X113104003Y-87310313D01*
X113123688Y-87243274D01*
X113176492Y-87197519D01*
X113245650Y-87187575D01*
X113260083Y-87190535D01*
X113297273Y-87200500D01*
X113297276Y-87200500D01*
X113402725Y-87200500D01*
X113402727Y-87200500D01*
X113504587Y-87173207D01*
X113595913Y-87120480D01*
X113670480Y-87045913D01*
X113723207Y-86954587D01*
X113750500Y-86852727D01*
X113750500Y-86747273D01*
X113723207Y-86645413D01*
X113670480Y-86554087D01*
X113595913Y-86479520D01*
X113504587Y-86426793D01*
X113402727Y-86399500D01*
X113297273Y-86399500D01*
X113195413Y-86426793D01*
X113195410Y-86426794D01*
X113104085Y-86479521D01*
X113029520Y-86554086D01*
X113005508Y-86595676D01*
X112954941Y-86643891D01*
X112886334Y-86657113D01*
X112821469Y-86631145D01*
X112818531Y-86628537D01*
X112818502Y-86628573D01*
X112813791Y-86624707D01*
X112682688Y-86537106D01*
X112682675Y-86537099D01*
X112537004Y-86476761D01*
X112536992Y-86476758D01*
X112382348Y-86445997D01*
X112382345Y-86445997D01*
X112224661Y-86445997D01*
X112224658Y-86445997D01*
X112070013Y-86476758D01*
X112070001Y-86476761D01*
X111924330Y-86537099D01*
X111924317Y-86537106D01*
X111793214Y-86624707D01*
X111793210Y-86624710D01*
X111681716Y-86736204D01*
X111681713Y-86736208D01*
X111594112Y-86867311D01*
X111594105Y-86867324D01*
X111533767Y-87012995D01*
X111533764Y-87013007D01*
X111503003Y-87167650D01*
X104195898Y-87167650D01*
X104251557Y-87058412D01*
X104317246Y-86856243D01*
X104350500Y-86646287D01*
X104350500Y-86433713D01*
X104317246Y-86223757D01*
X104251557Y-86021588D01*
X104155051Y-85832184D01*
X104155049Y-85832181D01*
X104155048Y-85832179D01*
X104030109Y-85660213D01*
X103905794Y-85535898D01*
X103891182Y-85509138D01*
X103874612Y-85483538D01*
X103874596Y-85478764D01*
X103872309Y-85474575D01*
X103874484Y-85444160D01*
X103874385Y-85413669D01*
X103876952Y-85409645D01*
X103877293Y-85404883D01*
X103895565Y-85380474D01*
X103897447Y-85377525D01*
X105729500Y-85377525D01*
X105729500Y-85522475D01*
X105764765Y-85654085D01*
X105767017Y-85662488D01*
X105839488Y-85788011D01*
X105839490Y-85788013D01*
X105839491Y-85788015D01*
X105941985Y-85890509D01*
X105941986Y-85890510D01*
X105941988Y-85890511D01*
X106067511Y-85962982D01*
X106067512Y-85962982D01*
X106067515Y-85962984D01*
X106207525Y-86000500D01*
X106207528Y-86000500D01*
X106352472Y-86000500D01*
X106352475Y-86000500D01*
X106492485Y-85962984D01*
X106618015Y-85890509D01*
X106661251Y-85847273D01*
X115649500Y-85847273D01*
X115649500Y-85952727D01*
X115674765Y-86047016D01*
X115676793Y-86054586D01*
X115676794Y-86054589D01*
X115682225Y-86063996D01*
X115729520Y-86145913D01*
X115804087Y-86220480D01*
X115895413Y-86273207D01*
X115997273Y-86300500D01*
X115997275Y-86300500D01*
X116102725Y-86300500D01*
X116102727Y-86300500D01*
X116204587Y-86273207D01*
X116295913Y-86220480D01*
X116370480Y-86145913D01*
X116423207Y-86054587D01*
X116450500Y-85952727D01*
X116450500Y-85847273D01*
X116423207Y-85745413D01*
X116370480Y-85654087D01*
X116295913Y-85579520D01*
X116204587Y-85526793D01*
X116102727Y-85499500D01*
X115997273Y-85499500D01*
X115895413Y-85526793D01*
X115895410Y-85526794D01*
X115804085Y-85579521D01*
X115729521Y-85654085D01*
X115676794Y-85745410D01*
X115676793Y-85745413D01*
X115649500Y-85847273D01*
X106661251Y-85847273D01*
X106720509Y-85788015D01*
X106792984Y-85662485D01*
X106830500Y-85522475D01*
X106830500Y-85377525D01*
X106792984Y-85237515D01*
X106767031Y-85192564D01*
X106720511Y-85111988D01*
X106720506Y-85111982D01*
X106618017Y-85009493D01*
X106618011Y-85009488D01*
X106492488Y-84937017D01*
X106492489Y-84937017D01*
X106471694Y-84931445D01*
X106352475Y-84899500D01*
X106207525Y-84899500D01*
X106088306Y-84931445D01*
X106067511Y-84937017D01*
X105941988Y-85009488D01*
X105941982Y-85009493D01*
X105839493Y-85111982D01*
X105839488Y-85111988D01*
X105767017Y-85237511D01*
X105767016Y-85237515D01*
X105729500Y-85377525D01*
X103897447Y-85377525D01*
X103911968Y-85354768D01*
X103917184Y-85351594D01*
X103919165Y-85348950D01*
X103941598Y-85335590D01*
X104100438Y-85262425D01*
X104192564Y-85192564D01*
X104283920Y-85072093D01*
X104283921Y-85072091D01*
X104339385Y-84931445D01*
X104350000Y-84843052D01*
X104350000Y-84340691D01*
X107574500Y-84340691D01*
X107574500Y-84459309D01*
X107605201Y-84573886D01*
X107664511Y-84676613D01*
X107748387Y-84760489D01*
X107851114Y-84819799D01*
X107965691Y-84850500D01*
X107965694Y-84850500D01*
X108084306Y-84850500D01*
X108084309Y-84850500D01*
X108198886Y-84819799D01*
X108301613Y-84760489D01*
X108385489Y-84676613D01*
X108444799Y-84573886D01*
X108475500Y-84459309D01*
X108475500Y-84340691D01*
X108444799Y-84226114D01*
X108385489Y-84123387D01*
X108309375Y-84047273D01*
X113324500Y-84047273D01*
X113324500Y-84152727D01*
X113337823Y-84202447D01*
X113351793Y-84254586D01*
X113351794Y-84254589D01*
X113354519Y-84259309D01*
X113404520Y-84345913D01*
X113479087Y-84420480D01*
X113570413Y-84473207D01*
X113672273Y-84500500D01*
X113672275Y-84500500D01*
X113777725Y-84500500D01*
X113777727Y-84500500D01*
X113879587Y-84473207D01*
X113970913Y-84420480D01*
X114045480Y-84345913D01*
X114098207Y-84254587D01*
X114125500Y-84152727D01*
X114125500Y-84047273D01*
X114098207Y-83945413D01*
X114045480Y-83854087D01*
X113970913Y-83779520D01*
X113879587Y-83726793D01*
X113777727Y-83699500D01*
X113672273Y-83699500D01*
X113570413Y-83726793D01*
X113570410Y-83726794D01*
X113479085Y-83779521D01*
X113404521Y-83854085D01*
X113351794Y-83945410D01*
X113351793Y-83945413D01*
X113324500Y-84047273D01*
X108309375Y-84047273D01*
X108301613Y-84039511D01*
X108198886Y-83980201D01*
X108084309Y-83949500D01*
X107965691Y-83949500D01*
X107851114Y-83980201D01*
X107851112Y-83980201D01*
X107851112Y-83980202D01*
X107748387Y-84039511D01*
X107748384Y-84039513D01*
X107664513Y-84123384D01*
X107664511Y-84123387D01*
X107625652Y-84190693D01*
X107605201Y-84226114D01*
X107574500Y-84340691D01*
X104350000Y-84340691D01*
X104350000Y-84150000D01*
X103529209Y-84150000D01*
X103550000Y-84072409D01*
X103550000Y-83927591D01*
X103529209Y-83850000D01*
X104349999Y-83850000D01*
X104349999Y-83156947D01*
X104339386Y-83068556D01*
X104339384Y-83068552D01*
X104283923Y-82927911D01*
X104283918Y-82927904D01*
X104245715Y-82877525D01*
X105149500Y-82877525D01*
X105149500Y-83022475D01*
X105185532Y-83156947D01*
X105187017Y-83162488D01*
X105259488Y-83288011D01*
X105259490Y-83288013D01*
X105259491Y-83288015D01*
X105361985Y-83390509D01*
X105361986Y-83390510D01*
X105361988Y-83390511D01*
X105487511Y-83462982D01*
X105487512Y-83462982D01*
X105487515Y-83462984D01*
X105627525Y-83500500D01*
X105627528Y-83500500D01*
X105772472Y-83500500D01*
X105772475Y-83500500D01*
X105912485Y-83462984D01*
X106038015Y-83390509D01*
X106041251Y-83387273D01*
X119979500Y-83387273D01*
X119979500Y-83492727D01*
X120006793Y-83594587D01*
X120059520Y-83685913D01*
X120134087Y-83760480D01*
X120225413Y-83813207D01*
X120327273Y-83840500D01*
X120327275Y-83840500D01*
X120432725Y-83840500D01*
X120432727Y-83840500D01*
X120534587Y-83813207D01*
X120625913Y-83760480D01*
X120700480Y-83685913D01*
X120753207Y-83594587D01*
X120780500Y-83492727D01*
X120780500Y-83387273D01*
X120999500Y-83387273D01*
X120999500Y-83492727D01*
X121026793Y-83594587D01*
X121079520Y-83685913D01*
X121154087Y-83760480D01*
X121245413Y-83813207D01*
X121347273Y-83840500D01*
X121347275Y-83840500D01*
X121452725Y-83840500D01*
X121452727Y-83840500D01*
X121554587Y-83813207D01*
X121645913Y-83760480D01*
X121705702Y-83700691D01*
X123929500Y-83700691D01*
X123929500Y-83819309D01*
X123960201Y-83933886D01*
X124019511Y-84036613D01*
X124103387Y-84120489D01*
X124206114Y-84179799D01*
X124320691Y-84210500D01*
X124320694Y-84210500D01*
X124439306Y-84210500D01*
X124439309Y-84210500D01*
X124513237Y-84190691D01*
X127949500Y-84190691D01*
X127949500Y-84309309D01*
X127980201Y-84423886D01*
X128039511Y-84526613D01*
X128123387Y-84610489D01*
X128226114Y-84669799D01*
X128340691Y-84700500D01*
X128340694Y-84700500D01*
X128459306Y-84700500D01*
X128459309Y-84700500D01*
X128573886Y-84669799D01*
X128676613Y-84610489D01*
X128760489Y-84526613D01*
X128819799Y-84423886D01*
X128850500Y-84309309D01*
X128850500Y-84190691D01*
X128837102Y-84140691D01*
X129524500Y-84140691D01*
X129524500Y-84259309D01*
X129555201Y-84373886D01*
X129614511Y-84476613D01*
X129698387Y-84560489D01*
X129801114Y-84619799D01*
X129915691Y-84650500D01*
X129915694Y-84650500D01*
X130034306Y-84650500D01*
X130034309Y-84650500D01*
X130148886Y-84619799D01*
X130251613Y-84560489D01*
X130335489Y-84476613D01*
X130394799Y-84373886D01*
X130425500Y-84259309D01*
X130425500Y-84140691D01*
X130394799Y-84026114D01*
X130394797Y-84026111D01*
X130394797Y-84026109D01*
X130394796Y-84026108D01*
X130351662Y-83951399D01*
X130351661Y-83951398D01*
X130350565Y-83949500D01*
X130335489Y-83923387D01*
X130309627Y-83897525D01*
X153829500Y-83897525D01*
X153829500Y-84042475D01*
X153862239Y-84164657D01*
X153867017Y-84182488D01*
X153939488Y-84308011D01*
X153939490Y-84308013D01*
X153939491Y-84308015D01*
X154041985Y-84410509D01*
X154041986Y-84410510D01*
X154041988Y-84410511D01*
X154167511Y-84482982D01*
X154167512Y-84482982D01*
X154167515Y-84482984D01*
X154307525Y-84520500D01*
X154307528Y-84520500D01*
X154452472Y-84520500D01*
X154452475Y-84520500D01*
X154592485Y-84482984D01*
X154718015Y-84410509D01*
X154820509Y-84308015D01*
X154892984Y-84182485D01*
X154930500Y-84042475D01*
X154930500Y-83897525D01*
X156319500Y-83897525D01*
X156319500Y-84042475D01*
X156352239Y-84164657D01*
X156357017Y-84182488D01*
X156429488Y-84308011D01*
X156429490Y-84308013D01*
X156429491Y-84308015D01*
X156531985Y-84410509D01*
X156531986Y-84410510D01*
X156531988Y-84410511D01*
X156657511Y-84482982D01*
X156657512Y-84482982D01*
X156657515Y-84482984D01*
X156797525Y-84520500D01*
X156797528Y-84520500D01*
X156942472Y-84520500D01*
X156942475Y-84520500D01*
X157082485Y-84482984D01*
X157208015Y-84410509D01*
X157310509Y-84308015D01*
X157382984Y-84182485D01*
X157420500Y-84042475D01*
X157420500Y-83897525D01*
X157382984Y-83757515D01*
X157341644Y-83685913D01*
X157310511Y-83631988D01*
X157310506Y-83631982D01*
X157208017Y-83529493D01*
X157208011Y-83529488D01*
X157082488Y-83457017D01*
X157082489Y-83457017D01*
X157056301Y-83450000D01*
X156942475Y-83419500D01*
X156797525Y-83419500D01*
X156683699Y-83450000D01*
X156657511Y-83457017D01*
X156531988Y-83529488D01*
X156531982Y-83529493D01*
X156429493Y-83631982D01*
X156429488Y-83631988D01*
X156357017Y-83757511D01*
X156352583Y-83774055D01*
X156319500Y-83897525D01*
X154930500Y-83897525D01*
X154892984Y-83757515D01*
X154851644Y-83685913D01*
X154820511Y-83631988D01*
X154820506Y-83631982D01*
X154718017Y-83529493D01*
X154718011Y-83529488D01*
X154592488Y-83457017D01*
X154592489Y-83457017D01*
X154566301Y-83450000D01*
X154452475Y-83419500D01*
X154307525Y-83419500D01*
X154193699Y-83450000D01*
X154167511Y-83457017D01*
X154041988Y-83529488D01*
X154041982Y-83529493D01*
X153939493Y-83631982D01*
X153939488Y-83631988D01*
X153867017Y-83757511D01*
X153862583Y-83774055D01*
X153829500Y-83897525D01*
X130309627Y-83897525D01*
X130251613Y-83839511D01*
X130148886Y-83780201D01*
X130034309Y-83749500D01*
X129915691Y-83749500D01*
X129801114Y-83780201D01*
X129801112Y-83780201D01*
X129801112Y-83780202D01*
X129698387Y-83839511D01*
X129698384Y-83839513D01*
X129614513Y-83923384D01*
X129614511Y-83923387D01*
X129581709Y-83980202D01*
X129555201Y-84026114D01*
X129524500Y-84140691D01*
X128837102Y-84140691D01*
X128819799Y-84076114D01*
X128760489Y-83973387D01*
X128676613Y-83889511D01*
X128573886Y-83830201D01*
X128459309Y-83799500D01*
X128340691Y-83799500D01*
X128226114Y-83830201D01*
X128226112Y-83830201D01*
X128226112Y-83830202D01*
X128123387Y-83889511D01*
X128123384Y-83889513D01*
X128039513Y-83973384D01*
X128039511Y-83973387D01*
X127996853Y-84047273D01*
X127980201Y-84076114D01*
X127949500Y-84190691D01*
X124513237Y-84190691D01*
X124553886Y-84179799D01*
X124656613Y-84120489D01*
X124740489Y-84036613D01*
X124799799Y-83933886D01*
X124830500Y-83819309D01*
X124830500Y-83700691D01*
X124799799Y-83586114D01*
X124740489Y-83483387D01*
X124656613Y-83399511D01*
X124553886Y-83340201D01*
X124439309Y-83309500D01*
X124320691Y-83309500D01*
X124206114Y-83340201D01*
X124206112Y-83340201D01*
X124206112Y-83340202D01*
X124103387Y-83399511D01*
X124103384Y-83399513D01*
X124019513Y-83483384D01*
X124019511Y-83483387D01*
X123975342Y-83559890D01*
X123960201Y-83586114D01*
X123929500Y-83700691D01*
X121705702Y-83700691D01*
X121720480Y-83685913D01*
X121773207Y-83594587D01*
X121800500Y-83492727D01*
X121800500Y-83387273D01*
X121773207Y-83285413D01*
X121720480Y-83194087D01*
X121645913Y-83119520D01*
X121554587Y-83066793D01*
X121452727Y-83039500D01*
X121347273Y-83039500D01*
X121245413Y-83066793D01*
X121245410Y-83066794D01*
X121154085Y-83119521D01*
X121079521Y-83194085D01*
X121026794Y-83285410D01*
X121026793Y-83285413D01*
X120999500Y-83387273D01*
X120780500Y-83387273D01*
X120753207Y-83285413D01*
X120700480Y-83194087D01*
X120625913Y-83119520D01*
X120534587Y-83066793D01*
X120432727Y-83039500D01*
X120327273Y-83039500D01*
X120225413Y-83066793D01*
X120225410Y-83066794D01*
X120134085Y-83119521D01*
X120059521Y-83194085D01*
X120006794Y-83285410D01*
X120006793Y-83285413D01*
X119979500Y-83387273D01*
X106041251Y-83387273D01*
X106140509Y-83288015D01*
X106212984Y-83162485D01*
X106250500Y-83022475D01*
X106250500Y-82877525D01*
X106212984Y-82737515D01*
X106200607Y-82716078D01*
X106140511Y-82611988D01*
X106140506Y-82611982D01*
X106038017Y-82509493D01*
X106038011Y-82509488D01*
X105912488Y-82437017D01*
X105912489Y-82437017D01*
X105901006Y-82433940D01*
X105772475Y-82399500D01*
X105627525Y-82399500D01*
X105498993Y-82433940D01*
X105487511Y-82437017D01*
X105361988Y-82509488D01*
X105361982Y-82509493D01*
X105259493Y-82611982D01*
X105259488Y-82611988D01*
X105187017Y-82737511D01*
X105187016Y-82737515D01*
X105149500Y-82877525D01*
X104245715Y-82877525D01*
X104192564Y-82807435D01*
X104072093Y-82716079D01*
X104072091Y-82716078D01*
X103931445Y-82660614D01*
X103843053Y-82650000D01*
X103150000Y-82650000D01*
X103150000Y-83470790D01*
X103072409Y-83450000D01*
X102927591Y-83450000D01*
X102850000Y-83470790D01*
X102850000Y-82650000D01*
X102156947Y-82650000D01*
X102068556Y-82660613D01*
X102068552Y-82660615D01*
X101927908Y-82716078D01*
X101927906Y-82716079D01*
X101807435Y-82807435D01*
X101716079Y-82927906D01*
X101716078Y-82927908D01*
X101660614Y-83068554D01*
X101650000Y-83156947D01*
X101650000Y-83850000D01*
X102470791Y-83850000D01*
X102450000Y-83927591D01*
X102450000Y-84072409D01*
X102470791Y-84150000D01*
X101650001Y-84150000D01*
X101650001Y-84843052D01*
X101660613Y-84931443D01*
X101660615Y-84931447D01*
X101716078Y-85072091D01*
X101716079Y-85072093D01*
X101807435Y-85192564D01*
X101927906Y-85283920D01*
X101927908Y-85283921D01*
X102052014Y-85332863D01*
X102107158Y-85375769D01*
X102130351Y-85441676D01*
X102114230Y-85509661D01*
X102094206Y-85535898D01*
X101969889Y-85660215D01*
X101844951Y-85832179D01*
X101748444Y-86021585D01*
X101682753Y-86223760D01*
X101662680Y-86350499D01*
X101649500Y-86433713D01*
X99100500Y-86433713D01*
X99100499Y-81004652D01*
X99100605Y-80999527D01*
X99101289Y-80982993D01*
X99104868Y-80896479D01*
X99105799Y-80885611D01*
X99106610Y-80879378D01*
X99117207Y-80797946D01*
X99119247Y-80786501D01*
X99137066Y-80708120D01*
X99140374Y-80696312D01*
X99153512Y-80657006D01*
X99161611Y-80632776D01*
X99169068Y-80615136D01*
X99232867Y-80491805D01*
X99247398Y-80469816D01*
X99328061Y-80372176D01*
X99346366Y-80354190D01*
X99347455Y-80353322D01*
X99449693Y-80271827D01*
X99469531Y-80258907D01*
X99598826Y-80191332D01*
X99618270Y-80183193D01*
X99770797Y-80134124D01*
X99788673Y-80129808D01*
X99942243Y-80104615D01*
X99955333Y-80103176D01*
X99999353Y-80100696D01*
X100006329Y-80100500D01*
X106701114Y-80100500D01*
X106768153Y-80120185D01*
G37*
%TD.AperFunction*%
%TD*%
M02*
