%TF.GenerationSoftware,KiCad,Pcbnew,9.0.0*%
%TF.CreationDate,2025-05-20T00:09:53+02:00*%
%TF.ProjectId,CYPD3177_3.3V_V2_+_OLED,43595044-3331-4373-975f-332e33565f56,rev?*%
%TF.SameCoordinates,Original*%
%TF.FileFunction,Profile,NP*%
%FSLAX46Y46*%
G04 Gerber Fmt 4.6, Leading zero omitted, Abs format (unit mm)*
G04 Created by KiCad (PCBNEW 9.0.0) date 2025-05-20 00:09:53*
%MOMM*%
%LPD*%
G01*
G04 APERTURE LIST*
%TA.AperFunction,Profile*%
%ADD10C,0.100000*%
%TD*%
%ADD11C,0.100000*%
G04 APERTURE END LIST*
D10*
X162000100Y-97000000D02*
X100000000Y-97000000D01*
X99000002Y-96000000D02*
X98999999Y-81000000D01*
X163000000Y-81000000D02*
X163000000Y-96000000D01*
D11*
X163000000Y-81000000D02*
X162999990Y-80994238D01*
X162999960Y-80988497D01*
X162999910Y-80982780D01*
X162999841Y-80977086D01*
X162999752Y-80971414D01*
X162999643Y-80965764D01*
X162999514Y-80960137D01*
X162999367Y-80954532D01*
X162999199Y-80948950D01*
X162999013Y-80943389D01*
X162998807Y-80937851D01*
X162998582Y-80932334D01*
X162998338Y-80926839D01*
X162998075Y-80921367D01*
X162997793Y-80915916D01*
X162997492Y-80910486D01*
X162997173Y-80905079D01*
X162996834Y-80899692D01*
X162996477Y-80894327D01*
X162996102Y-80888984D01*
X162995708Y-80883662D01*
X162995295Y-80878360D01*
X162994864Y-80873080D01*
X162994415Y-80867822D01*
X162993947Y-80862583D01*
X162993462Y-80857366D01*
X162992958Y-80852170D01*
X162992436Y-80846994D01*
X162991896Y-80841839D01*
X162991338Y-80836705D01*
X162990763Y-80831591D01*
X162990170Y-80826497D01*
X162989558Y-80821424D01*
X162988930Y-80816371D01*
X162988283Y-80811338D01*
X162987619Y-80806325D01*
X162986938Y-80801332D01*
X162986239Y-80796360D01*
X162985523Y-80791406D01*
X162984789Y-80786474D01*
X162984039Y-80781560D01*
X162983271Y-80776666D01*
X162982486Y-80771791D01*
X162981683Y-80766937D01*
X162980864Y-80762101D01*
X162980028Y-80757286D01*
X162979175Y-80752488D01*
X162978305Y-80747711D01*
X162977418Y-80742952D01*
X162976515Y-80738214D01*
X162975595Y-80733493D01*
X162974658Y-80728792D01*
X162973705Y-80724108D01*
X162972735Y-80719445D01*
X162971748Y-80714799D01*
X162970745Y-80710173D01*
X162969726Y-80705564D01*
X162968690Y-80700975D01*
X162967638Y-80696403D01*
X162966570Y-80691851D01*
X162965486Y-80687316D01*
X162964385Y-80682800D01*
X162963268Y-80678301D01*
X162962136Y-80673821D01*
X162960986Y-80669358D01*
X162959822Y-80664914D01*
X162958641Y-80660487D01*
X162957444Y-80656079D01*
X162956231Y-80651687D01*
X162955003Y-80647314D01*
X162953759Y-80642957D01*
X162952499Y-80638620D01*
X162951223Y-80634298D01*
X162949932Y-80629995D01*
X162948625Y-80625708D01*
X162947303Y-80621440D01*
X162945964Y-80617187D01*
X162944611Y-80612953D01*
X162943241Y-80608734D01*
X162941857Y-80604534D01*
X162940456Y-80600349D01*
X162939041Y-80596183D01*
X162937610Y-80592032D01*
X162936164Y-80587900D01*
X162934702Y-80583781D01*
X162933226Y-80579682D01*
X162931733Y-80575597D01*
X162930227Y-80571531D01*
X162928704Y-80567479D01*
X162927167Y-80563446D01*
X162925613Y-80559426D01*
X162924046Y-80555426D01*
X162920865Y-80547470D01*
X162917624Y-80539578D01*
X162914323Y-80531751D01*
X162910962Y-80523986D01*
X162907541Y-80516285D01*
X162904061Y-80508646D01*
X162900522Y-80501068D01*
X162896923Y-80493553D01*
X162893265Y-80486098D01*
X162889548Y-80478704D01*
X162885772Y-80471370D01*
X162881938Y-80464096D01*
X162878044Y-80456882D01*
X162874092Y-80449726D01*
X162870082Y-80442630D01*
X162866012Y-80435591D01*
X162861885Y-80428611D01*
X162857698Y-80421688D01*
X162853453Y-80414822D01*
X162849150Y-80408014D01*
X162844788Y-80401262D01*
X162840367Y-80394566D01*
X162835888Y-80387926D01*
X162831351Y-80381342D01*
X162826754Y-80374813D01*
X162822100Y-80368339D01*
X162817386Y-80361920D01*
X162812613Y-80355555D01*
X162807782Y-80349245D01*
X162802891Y-80342989D01*
X162797942Y-80336787D01*
X162792933Y-80330638D01*
X162787865Y-80324543D01*
X162782738Y-80318501D01*
X162777551Y-80312512D01*
X162772304Y-80306575D01*
X162766998Y-80300691D01*
X162761631Y-80294860D01*
X162756205Y-80289081D01*
X162750718Y-80283354D01*
X162745170Y-80277680D01*
X162739562Y-80272057D01*
X162733894Y-80266486D01*
X162728164Y-80260967D01*
X162722373Y-80255500D01*
X162716520Y-80250084D01*
X162710606Y-80244719D01*
X162704630Y-80239407D01*
X162698593Y-80234145D01*
X162692493Y-80228935D01*
X162686330Y-80223777D01*
X162680105Y-80218670D01*
X162673817Y-80213614D01*
X162667466Y-80208610D01*
X162661052Y-80203658D01*
X162654574Y-80198757D01*
X162648032Y-80193908D01*
X162641427Y-80189110D01*
X162634757Y-80184364D01*
X162628023Y-80179671D01*
X162621225Y-80175029D01*
X162614362Y-80170439D01*
X162607433Y-80165902D01*
X162600440Y-80161417D01*
X162593381Y-80156985D01*
X162586256Y-80152606D01*
X162579066Y-80148279D01*
X162571810Y-80144006D01*
X162564488Y-80139786D01*
X162557100Y-80135620D01*
X162549645Y-80131508D01*
X162542124Y-80127450D01*
X162534536Y-80123447D01*
X162526882Y-80119498D01*
X162519160Y-80115604D01*
X162511372Y-80111766D01*
X162503517Y-80107983D01*
X162495595Y-80104257D01*
X162487606Y-80100587D01*
X162479551Y-80096973D01*
X162471428Y-80093417D01*
X162463239Y-80089918D01*
X162454983Y-80086477D01*
X162446660Y-80083094D01*
X162438272Y-80079770D01*
X162429817Y-80076506D01*
X162421296Y-80073301D01*
X162412709Y-80070156D01*
X162404058Y-80067071D01*
X162395341Y-80064048D01*
X162386560Y-80061087D01*
X162377716Y-80058188D01*
X162368808Y-80055351D01*
X162359837Y-80052578D01*
X162350804Y-80049868D01*
X162341711Y-80047223D01*
X162332557Y-80044642D01*
X162323343Y-80042128D01*
X162314072Y-80039679D01*
X162304743Y-80037297D01*
X162295359Y-80034983D01*
X162285921Y-80032737D01*
X162276429Y-80030559D01*
X162266887Y-80028451D01*
X162257296Y-80026412D01*
X162247658Y-80024445D01*
X162237975Y-80022549D01*
X162228250Y-80020724D01*
X162218486Y-80018973D01*
X162208685Y-80017295D01*
X162198852Y-80015691D01*
X162188989Y-80014162D01*
X162179101Y-80012708D01*
X162169192Y-80011331D01*
X162159268Y-80010030D01*
X162149333Y-80008807D01*
X162139394Y-80007662D01*
X162129458Y-80006596D01*
X162119532Y-80005609D01*
X162109625Y-80004702D01*
X162099746Y-80003875D01*
X162089907Y-80003129D01*
X162080119Y-80002464D01*
X162070396Y-80001880D01*
X162060753Y-80001378D01*
X162051210Y-80000956D01*
X162041784Y-80000614D01*
X162032498Y-80000351D01*
X162023370Y-80000165D01*
X162014408Y-80000052D01*
X162005559Y-80000004D01*
X162000000Y-80000000D01*
X99000002Y-96000000D02*
X99000012Y-96005740D01*
X99000042Y-96011458D01*
X99000092Y-96017154D01*
X99000161Y-96022827D01*
X99000250Y-96028478D01*
X99000359Y-96034107D01*
X99000488Y-96039713D01*
X99000635Y-96045298D01*
X99000803Y-96050861D01*
X99000989Y-96056403D01*
X99001195Y-96061922D01*
X99001420Y-96067420D01*
X99001664Y-96072896D01*
X99001927Y-96078350D01*
X99002209Y-96083784D01*
X99002510Y-96089196D01*
X99002830Y-96094586D01*
X99003168Y-96099956D01*
X99003525Y-96105304D01*
X99003901Y-96110631D01*
X99004295Y-96115938D01*
X99004708Y-96121223D01*
X99005139Y-96126488D01*
X99005589Y-96131732D01*
X99006056Y-96136955D01*
X99006542Y-96142158D01*
X99007046Y-96147340D01*
X99007569Y-96152502D01*
X99008109Y-96157643D01*
X99008667Y-96162764D01*
X99009243Y-96167866D01*
X99009836Y-96172946D01*
X99010448Y-96178008D01*
X99011077Y-96183048D01*
X99011724Y-96188070D01*
X99012388Y-96193071D01*
X99013070Y-96198052D01*
X99013770Y-96203014D01*
X99014487Y-96207957D01*
X99015221Y-96212879D01*
X99015972Y-96217783D01*
X99016741Y-96222666D01*
X99017527Y-96227531D01*
X99018329Y-96232376D01*
X99019150Y-96237203D01*
X99019986Y-96242010D01*
X99020840Y-96246798D01*
X99021711Y-96251567D01*
X99022599Y-96256318D01*
X99023503Y-96261049D01*
X99024425Y-96265763D01*
X99025362Y-96270456D01*
X99026317Y-96275133D01*
X99027288Y-96279789D01*
X99028276Y-96284429D01*
X99029280Y-96289048D01*
X99030301Y-96293651D01*
X99031337Y-96298234D01*
X99032391Y-96302801D01*
X99033460Y-96307348D01*
X99034546Y-96311878D01*
X99035648Y-96316389D01*
X99036767Y-96320884D01*
X99037901Y-96325359D01*
X99039052Y-96329818D01*
X99040218Y-96334258D01*
X99041401Y-96338682D01*
X99042599Y-96343086D01*
X99043814Y-96347475D01*
X99045044Y-96351844D01*
X99046291Y-96356199D01*
X99047552Y-96360534D01*
X99048830Y-96364853D01*
X99050124Y-96369154D01*
X99051433Y-96373439D01*
X99052758Y-96377706D01*
X99054099Y-96381957D01*
X99055454Y-96386190D01*
X99056826Y-96390408D01*
X99058213Y-96394607D01*
X99059616Y-96398791D01*
X99061034Y-96402957D01*
X99062468Y-96407108D01*
X99063916Y-96411240D01*
X99065381Y-96415359D01*
X99066860Y-96419458D01*
X99068356Y-96423544D01*
X99069866Y-96427611D01*
X99071392Y-96431664D01*
X99072932Y-96435698D01*
X99076059Y-96443721D01*
X99079247Y-96451681D01*
X99082495Y-96459577D01*
X99085803Y-96467410D01*
X99089172Y-96475180D01*
X99092600Y-96482888D01*
X99096089Y-96490535D01*
X99099637Y-96498120D01*
X99103244Y-96505644D01*
X99106911Y-96513108D01*
X99110637Y-96520512D01*
X99114423Y-96527857D01*
X99118267Y-96535142D01*
X99122171Y-96542368D01*
X99126133Y-96549536D01*
X99130155Y-96556646D01*
X99134236Y-96563698D01*
X99138375Y-96570692D01*
X99142573Y-96577630D01*
X99146830Y-96584511D01*
X99151146Y-96591335D01*
X99155521Y-96598103D01*
X99159954Y-96604816D01*
X99164447Y-96611473D01*
X99168998Y-96618075D01*
X99173608Y-96624622D01*
X99178278Y-96631114D01*
X99183006Y-96637552D01*
X99187793Y-96643936D01*
X99192640Y-96650266D01*
X99197546Y-96656543D01*
X99202511Y-96662765D01*
X99207536Y-96668935D01*
X99212621Y-96675052D01*
X99217765Y-96681116D01*
X99222969Y-96687127D01*
X99228233Y-96693086D01*
X99233557Y-96698992D01*
X99238941Y-96704846D01*
X99244386Y-96710648D01*
X99249891Y-96716399D01*
X99255457Y-96722097D01*
X99261083Y-96727744D01*
X99266771Y-96733339D01*
X99272520Y-96738882D01*
X99278331Y-96744374D01*
X99284203Y-96749815D01*
X99290137Y-96755204D01*
X99296132Y-96760542D01*
X99302190Y-96765829D01*
X99308310Y-96771064D01*
X99314493Y-96776248D01*
X99320739Y-96781381D01*
X99327047Y-96786463D01*
X99333419Y-96791492D01*
X99339854Y-96796471D01*
X99346352Y-96801398D01*
X99352914Y-96806273D01*
X99359541Y-96811097D01*
X99366231Y-96815868D01*
X99372985Y-96820588D01*
X99379804Y-96825256D01*
X99386688Y-96829872D01*
X99393637Y-96834435D01*
X99400650Y-96838946D01*
X99407729Y-96843404D01*
X99414873Y-96847809D01*
X99422082Y-96852161D01*
X99429357Y-96856459D01*
X99436698Y-96860704D01*
X99444105Y-96864895D01*
X99451577Y-96869032D01*
X99459116Y-96873115D01*
X99466720Y-96877143D01*
X99474391Y-96881116D01*
X99482128Y-96885033D01*
X99489931Y-96888895D01*
X99497800Y-96892701D01*
X99505735Y-96896451D01*
X99513736Y-96900144D01*
X99521803Y-96903780D01*
X99529935Y-96907358D01*
X99538134Y-96910878D01*
X99546397Y-96914340D01*
X99554726Y-96917743D01*
X99563120Y-96921087D01*
X99571578Y-96924371D01*
X99580101Y-96927595D01*
X99588687Y-96930758D01*
X99597336Y-96933860D01*
X99606049Y-96936900D01*
X99614823Y-96939878D01*
X99623659Y-96942793D01*
X99632555Y-96945645D01*
X99641511Y-96948432D01*
X99650527Y-96951155D01*
X99659600Y-96953812D01*
X99668730Y-96956404D01*
X99677915Y-96958929D01*
X99687155Y-96961387D01*
X99696447Y-96963777D01*
X99705790Y-96966098D01*
X99715183Y-96968351D01*
X99724622Y-96970533D01*
X99734107Y-96972645D01*
X99743634Y-96974685D01*
X99753202Y-96976654D01*
X99762806Y-96978549D01*
X99772444Y-96980371D01*
X99782113Y-96982118D01*
X99791808Y-96983791D01*
X99801525Y-96985387D01*
X99811260Y-96986907D01*
X99821007Y-96988349D01*
X99830760Y-96989713D01*
X99840513Y-96990997D01*
X99850259Y-96992202D01*
X99859989Y-96993327D01*
X99869694Y-96994370D01*
X99879364Y-96995331D01*
X99888986Y-96996209D01*
X99898547Y-96997004D01*
X99908031Y-96997715D01*
X99917420Y-96998342D01*
X99926691Y-96998884D01*
X99935818Y-96999342D01*
X99944770Y-96999715D01*
X99953508Y-97000003D01*
X99961981Y-97000208D01*
X99970124Y-97000332D01*
X99977849Y-97000378D01*
X99985026Y-97000350D01*
X99991450Y-97000259D01*
X99996735Y-97000124D01*
X100000000Y-97000000D01*
X162000100Y-97000000D02*
X162005708Y-96999990D01*
X162011296Y-96999960D01*
X162016862Y-96999910D01*
X162022407Y-96999841D01*
X162027931Y-96999752D01*
X162033434Y-96999643D01*
X162038916Y-96999514D01*
X162044377Y-96999366D01*
X162049817Y-96999199D01*
X162055237Y-96999012D01*
X162060636Y-96998806D01*
X162066015Y-96998581D01*
X162071373Y-96998337D01*
X162076711Y-96998074D01*
X162082028Y-96997792D01*
X162087326Y-96997490D01*
X162092603Y-96997170D01*
X162097860Y-96996832D01*
X162103097Y-96996474D01*
X162108314Y-96996098D01*
X162113511Y-96995703D01*
X162118689Y-96995290D01*
X162123847Y-96994858D01*
X162128985Y-96994408D01*
X162134104Y-96993939D01*
X162139202Y-96993453D01*
X162144283Y-96992948D01*
X162149343Y-96992425D01*
X162154384Y-96991884D01*
X162159406Y-96991325D01*
X162164409Y-96990748D01*
X162169392Y-96990153D01*
X162174357Y-96989540D01*
X162179303Y-96988909D01*
X162184230Y-96988261D01*
X162189138Y-96987595D01*
X162194028Y-96986911D01*
X162198899Y-96986210D01*
X162203752Y-96985491D01*
X162208585Y-96984756D01*
X162213401Y-96984002D01*
X162218198Y-96983231D01*
X162222978Y-96982443D01*
X162227738Y-96981638D01*
X162232481Y-96980815D01*
X162237205Y-96979976D01*
X162241912Y-96979119D01*
X162246600Y-96978246D01*
X162251272Y-96977355D01*
X162255924Y-96976447D01*
X162260560Y-96975523D01*
X162265177Y-96974582D01*
X162269778Y-96973623D01*
X162274360Y-96972649D01*
X162278926Y-96971657D01*
X162283473Y-96970649D01*
X162288004Y-96969624D01*
X162292516Y-96968583D01*
X162297013Y-96967525D01*
X162301491Y-96966451D01*
X162305954Y-96965360D01*
X162310398Y-96964253D01*
X162314827Y-96963130D01*
X162319237Y-96961990D01*
X162323632Y-96960834D01*
X162328008Y-96959662D01*
X162332370Y-96958473D01*
X162336713Y-96957269D01*
X162341042Y-96956048D01*
X162345352Y-96954811D01*
X162349648Y-96953558D01*
X162353926Y-96952290D01*
X162358189Y-96951004D01*
X162362434Y-96949704D01*
X162366665Y-96948387D01*
X162370877Y-96947055D01*
X162375076Y-96945706D01*
X162379256Y-96944342D01*
X162383424Y-96942961D01*
X162387572Y-96941566D01*
X162391707Y-96940154D01*
X162395824Y-96938727D01*
X162404014Y-96935826D01*
X162412141Y-96932862D01*
X162420206Y-96929836D01*
X162428210Y-96926747D01*
X162436153Y-96923597D01*
X162444036Y-96920385D01*
X162451858Y-96917112D01*
X162459621Y-96913777D01*
X162467324Y-96910380D01*
X162474969Y-96906923D01*
X162482555Y-96903405D01*
X162490083Y-96899825D01*
X162497554Y-96896185D01*
X162504967Y-96892484D01*
X162512323Y-96888722D01*
X162519623Y-96884900D01*
X162526867Y-96881017D01*
X162534055Y-96877073D01*
X162541187Y-96873069D01*
X162548265Y-96869005D01*
X162555287Y-96864880D01*
X162562255Y-96860695D01*
X162569169Y-96856449D01*
X162576029Y-96852143D01*
X162582836Y-96847776D01*
X162589589Y-96843349D01*
X162596289Y-96838861D01*
X162602937Y-96834312D01*
X162609532Y-96829703D01*
X162616075Y-96825034D01*
X162622566Y-96820303D01*
X162629005Y-96815511D01*
X162635392Y-96810659D01*
X162641729Y-96805745D01*
X162648014Y-96800770D01*
X162654248Y-96795734D01*
X162660432Y-96790637D01*
X162666565Y-96785477D01*
X162672647Y-96780256D01*
X162678679Y-96774974D01*
X162684661Y-96769629D01*
X162690593Y-96764222D01*
X162696476Y-96758752D01*
X162702308Y-96753220D01*
X162708091Y-96747626D01*
X162713824Y-96741968D01*
X162719508Y-96736248D01*
X162725142Y-96730464D01*
X162730727Y-96724617D01*
X162736262Y-96718706D01*
X162741748Y-96712731D01*
X162747185Y-96706693D01*
X162752572Y-96700590D01*
X162757910Y-96694422D01*
X162763198Y-96688190D01*
X162768438Y-96681893D01*
X162773627Y-96675531D01*
X162778768Y-96669103D01*
X162783858Y-96662611D01*
X162788899Y-96656052D01*
X162793890Y-96649427D01*
X162798832Y-96642737D01*
X162803723Y-96635980D01*
X162808564Y-96629156D01*
X162813355Y-96622266D01*
X162818096Y-96615309D01*
X162822785Y-96608285D01*
X162827424Y-96601193D01*
X162832012Y-96594034D01*
X162836549Y-96586808D01*
X162841035Y-96579513D01*
X162845468Y-96572151D01*
X162849850Y-96564721D01*
X162854180Y-96557223D01*
X162858457Y-96549657D01*
X162862681Y-96542022D01*
X162866852Y-96534319D01*
X162870970Y-96526548D01*
X162875034Y-96518708D01*
X162879044Y-96510800D01*
X162882999Y-96502824D01*
X162886900Y-96494779D01*
X162890745Y-96486666D01*
X162894535Y-96478484D01*
X162898269Y-96470235D01*
X162901946Y-96461918D01*
X162905566Y-96453533D01*
X162909129Y-96445081D01*
X162912634Y-96436562D01*
X162916081Y-96427976D01*
X162919468Y-96419324D01*
X162922796Y-96410605D01*
X162926065Y-96401822D01*
X162929273Y-96392973D01*
X162932419Y-96384060D01*
X162935504Y-96375084D01*
X162938527Y-96366045D01*
X162941487Y-96356944D01*
X162944384Y-96347783D01*
X162947216Y-96338561D01*
X162949983Y-96329281D01*
X162952685Y-96319943D01*
X162955321Y-96310550D01*
X162957890Y-96301102D01*
X162960392Y-96291601D01*
X162962825Y-96282049D01*
X162965188Y-96272449D01*
X162967483Y-96262803D01*
X162969706Y-96253112D01*
X162971858Y-96243380D01*
X162973938Y-96233610D01*
X162975945Y-96223805D01*
X162977877Y-96213969D01*
X162979735Y-96204106D01*
X162981518Y-96194220D01*
X162983223Y-96184316D01*
X162984852Y-96174399D01*
X162986402Y-96164477D01*
X162987873Y-96154555D01*
X162989263Y-96144641D01*
X162990573Y-96134744D01*
X162991800Y-96124874D01*
X162992945Y-96115041D01*
X162994006Y-96105258D01*
X162994982Y-96095539D01*
X162995873Y-96085902D01*
X162996677Y-96076366D01*
X162997394Y-96066954D01*
X162998024Y-96057694D01*
X162998565Y-96048621D01*
X162999018Y-96039778D01*
X162999382Y-96031218D01*
X162999659Y-96023017D01*
X162999851Y-96015279D01*
X162999961Y-96008165D01*
X162999999Y-96001980D01*
X163000000Y-96000000D01*
D10*
X100000000Y-80000000D02*
X162000000Y-80000000D01*
D11*
X98999999Y-81000000D02*
X99000009Y-80994533D01*
X99000039Y-80989086D01*
X99000089Y-80983658D01*
X99000158Y-80978251D01*
X99000248Y-80972863D01*
X99000356Y-80967495D01*
X99000485Y-80962146D01*
X99000633Y-80956817D01*
X99000800Y-80951507D01*
X99000987Y-80946217D01*
X99001193Y-80940946D01*
X99001418Y-80935695D01*
X99001663Y-80930462D01*
X99001926Y-80925249D01*
X99002209Y-80920054D01*
X99002510Y-80914879D01*
X99002831Y-80909723D01*
X99003170Y-80904585D01*
X99003528Y-80899466D01*
X99003905Y-80894366D01*
X99004300Y-80889284D01*
X99004714Y-80884221D01*
X99005147Y-80879176D01*
X99005597Y-80874150D01*
X99006067Y-80869142D01*
X99006554Y-80864153D01*
X99007060Y-80859181D01*
X99007584Y-80854228D01*
X99008127Y-80849292D01*
X99008687Y-80844375D01*
X99009266Y-80839476D01*
X99009862Y-80834595D01*
X99010476Y-80829730D01*
X99011109Y-80824885D01*
X99011759Y-80820056D01*
X99012427Y-80815245D01*
X99013112Y-80810451D01*
X99013815Y-80805676D01*
X99014536Y-80800917D01*
X99015275Y-80796176D01*
X99016031Y-80791452D01*
X99016804Y-80786746D01*
X99017595Y-80782055D01*
X99018403Y-80777383D01*
X99019229Y-80772727D01*
X99020071Y-80768089D01*
X99020931Y-80763466D01*
X99021808Y-80758862D01*
X99022703Y-80754273D01*
X99023614Y-80749702D01*
X99024542Y-80745146D01*
X99025488Y-80740608D01*
X99026450Y-80736085D01*
X99027429Y-80731580D01*
X99028426Y-80727090D01*
X99029438Y-80722618D01*
X99030468Y-80718160D01*
X99031515Y-80713720D01*
X99032578Y-80709294D01*
X99033658Y-80704887D01*
X99034754Y-80700493D01*
X99035867Y-80696117D01*
X99036997Y-80691755D01*
X99038143Y-80687411D01*
X99039306Y-80683081D01*
X99040485Y-80678768D01*
X99041681Y-80674469D01*
X99042892Y-80670187D01*
X99044121Y-80665919D01*
X99045365Y-80661669D01*
X99046626Y-80657431D01*
X99047903Y-80653211D01*
X99049197Y-80649004D01*
X99050506Y-80644815D01*
X99053174Y-80636480D01*
X99055906Y-80628204D01*
X99058702Y-80619988D01*
X99061562Y-80611832D01*
X99064486Y-80603734D01*
X99067474Y-80595694D01*
X99070525Y-80587713D01*
X99073640Y-80579789D01*
X99076818Y-80571922D01*
X99080059Y-80564112D01*
X99083363Y-80556358D01*
X99086730Y-80548661D01*
X99090159Y-80541018D01*
X99093651Y-80533431D01*
X99097205Y-80525899D01*
X99100822Y-80518421D01*
X99104502Y-80510997D01*
X99108243Y-80503627D01*
X99112047Y-80496310D01*
X99115914Y-80489047D01*
X99119842Y-80481836D01*
X99123833Y-80474677D01*
X99127886Y-80467571D01*
X99132001Y-80460516D01*
X99136178Y-80453513D01*
X99140418Y-80446561D01*
X99144720Y-80439660D01*
X99149084Y-80432810D01*
X99153511Y-80426010D01*
X99158000Y-80419260D01*
X99162552Y-80412560D01*
X99167166Y-80405910D01*
X99171843Y-80399309D01*
X99176583Y-80392758D01*
X99181385Y-80386255D01*
X99186251Y-80379802D01*
X99191180Y-80373397D01*
X99196172Y-80367040D01*
X99201227Y-80360732D01*
X99206346Y-80354472D01*
X99211529Y-80348260D01*
X99216776Y-80342096D01*
X99222086Y-80335980D01*
X99227461Y-80329911D01*
X99232900Y-80323890D01*
X99238403Y-80317916D01*
X99243972Y-80311990D01*
X99249605Y-80306111D01*
X99255303Y-80300279D01*
X99261066Y-80294494D01*
X99266895Y-80288757D01*
X99272790Y-80283066D01*
X99278751Y-80277423D01*
X99284777Y-80271827D01*
X99290871Y-80266278D01*
X99297030Y-80260776D01*
X99303256Y-80255322D01*
X99309550Y-80249914D01*
X99315910Y-80244554D01*
X99322338Y-80239241D01*
X99328834Y-80233976D01*
X99335397Y-80228758D01*
X99342028Y-80223588D01*
X99348728Y-80218465D01*
X99355496Y-80213391D01*
X99362333Y-80208364D01*
X99369239Y-80203386D01*
X99376213Y-80198456D01*
X99383257Y-80193575D01*
X99390370Y-80188742D01*
X99397553Y-80183958D01*
X99404806Y-80179224D01*
X99412128Y-80174539D01*
X99419521Y-80169904D01*
X99426983Y-80165318D01*
X99434516Y-80160783D01*
X99442119Y-80156298D01*
X99449793Y-80151864D01*
X99457537Y-80147482D01*
X99465351Y-80143150D01*
X99473236Y-80138871D01*
X99481192Y-80134644D01*
X99489218Y-80130469D01*
X99497315Y-80126347D01*
X99505481Y-80122279D01*
X99513718Y-80118265D01*
X99522026Y-80114304D01*
X99530403Y-80110399D01*
X99538850Y-80106548D01*
X99547366Y-80102754D01*
X99555951Y-80099015D01*
X99564605Y-80095333D01*
X99573328Y-80091708D01*
X99582118Y-80088141D01*
X99590976Y-80084632D01*
X99599900Y-80081182D01*
X99608890Y-80077792D01*
X99617946Y-80074461D01*
X99627067Y-80071192D01*
X99636251Y-80067983D01*
X99645498Y-80064837D01*
X99654806Y-80061754D01*
X99664174Y-80058734D01*
X99673602Y-80055778D01*
X99683087Y-80052887D01*
X99692628Y-80050061D01*
X99702222Y-80047302D01*
X99711869Y-80044611D01*
X99721566Y-80041987D01*
X99731311Y-80039432D01*
X99741100Y-80036947D01*
X99750932Y-80034533D01*
X99760803Y-80032190D01*
X99770709Y-80029920D01*
X99780647Y-80027723D01*
X99790613Y-80025601D01*
X99800601Y-80023554D01*
X99810607Y-80021583D01*
X99820626Y-80019690D01*
X99830650Y-80017876D01*
X99840672Y-80016142D01*
X99850685Y-80014488D01*
X99860680Y-80012917D01*
X99870646Y-80011428D01*
X99880572Y-80010025D01*
X99890444Y-80008707D01*
X99900248Y-80007476D01*
X99909966Y-80006334D01*
X99919577Y-80005282D01*
X99929056Y-80004321D01*
X99938374Y-80003453D01*
X99947495Y-80002679D01*
X99956373Y-80002000D01*
X99964950Y-80001419D01*
X99973148Y-80000937D01*
X99980857Y-80000555D01*
X99987913Y-80000273D01*
X99994033Y-80000093D01*
X99998624Y-80000010D01*
X100000000Y-80000000D01*
M02*
