%TF.GenerationSoftware,KiCad,Pcbnew,9.0.0*%
%TF.CreationDate,2025-05-19T18:24:25+02:00*%
%TF.ProjectId,CYPD3177_3.3V_V2_+_OLED,43595044-3331-4373-975f-332e33565f56,rev?*%
%TF.SameCoordinates,Original*%
%TF.FileFunction,Soldermask,Top*%
%TF.FilePolarity,Negative*%
%FSLAX46Y46*%
G04 Gerber Fmt 4.6, Leading zero omitted, Abs format (unit mm)*
G04 Created by KiCad (PCBNEW 9.0.0) date 2025-05-19 18:24:25*
%MOMM*%
%LPD*%
G01*
G04 APERTURE LIST*
G04 Aperture macros list*
%AMRoundRect*
0 Rectangle with rounded corners*
0 $1 Rounding radius*
0 $2 $3 $4 $5 $6 $7 $8 $9 X,Y pos of 4 corners*
0 Add a 4 corners polygon primitive as box body*
4,1,4,$2,$3,$4,$5,$6,$7,$8,$9,$2,$3,0*
0 Add four circle primitives for the rounded corners*
1,1,$1+$1,$2,$3*
1,1,$1+$1,$4,$5*
1,1,$1+$1,$6,$7*
1,1,$1+$1,$8,$9*
0 Add four rect primitives between the rounded corners*
20,1,$1+$1,$2,$3,$4,$5,0*
20,1,$1+$1,$4,$5,$6,$7,0*
20,1,$1+$1,$6,$7,$8,$9,0*
20,1,$1+$1,$8,$9,$2,$3,0*%
%AMRotRect*
0 Rectangle, with rotation*
0 The origin of the aperture is its center*
0 $1 length*
0 $2 width*
0 $3 Rotation angle, in degrees counterclockwise*
0 Add horizontal line*
21,1,$1,$2,0,0,$3*%
%AMFreePoly0*
4,1,45,0.915337,4.272534,0.924317,4.268814,0.972251,4.227872,0.979514,4.213617,0.983234,4.204637,0.991000,4.165600,0.991000,1.397000,0.983234,1.357963,0.979514,1.348983,0.955942,1.314462,0.955561,1.314096,0.953959,1.312589,0.356000,0.762465,0.356000,0.508000,0.348234,0.468963,0.344514,0.459983,0.343300,0.458561,0.343300,-0.508000,0.323820,-0.567954,0.272820,-0.605008,
0.241300,-0.610000,-0.241300,-0.610000,-0.301254,-0.590520,-0.338308,-0.539520,-0.343300,-0.508000,-0.343300,0.457600,-0.344514,0.459983,-0.348234,0.468963,-0.356000,0.508000,-0.356000,0.762465,-0.953959,1.312589,-0.977428,1.344732,-0.981518,1.353549,-0.990967,1.394350,-0.990978,1.394879,-0.991000,1.397000,-0.991000,4.165600,-0.983234,4.204637,-0.979514,4.213617,-0.938572,4.261551,
-0.924317,4.268814,-0.915337,4.272534,-0.876300,4.280300,0.876300,4.280300,0.915337,4.272534,0.915337,4.272534,$1*%
G04 Aperture macros list end*
%ADD10C,0.010000*%
%ADD11C,0.025400*%
%ADD12RotRect,2.000000X1.000000X315.000000*%
%ADD13C,0.800000*%
%ADD14C,1.100000*%
%ADD15RotRect,1.500000X1.500000X315.000000*%
%ADD16RoundRect,0.135000X0.135000X0.185000X-0.135000X0.185000X-0.135000X-0.185000X0.135000X-0.185000X0*%
%ADD17RoundRect,0.140000X-0.170000X0.140000X-0.170000X-0.140000X0.170000X-0.140000X0.170000X0.140000X0*%
%ADD18R,1.700000X1.700000*%
%ADD19O,1.700000X1.700000*%
%ADD20RoundRect,0.135000X-0.185000X0.135000X-0.185000X-0.135000X0.185000X-0.135000X0.185000X0.135000X0*%
%ADD21RoundRect,0.250000X0.300000X-0.300000X0.300000X0.300000X-0.300000X0.300000X-0.300000X-0.300000X0*%
%ADD22RoundRect,0.237500X-0.287500X-0.237500X0.287500X-0.237500X0.287500X0.237500X-0.287500X0.237500X0*%
%ADD23RoundRect,0.050000X0.100000X-0.285000X0.100000X0.285000X-0.100000X0.285000X-0.100000X-0.285000X0*%
%ADD24RoundRect,0.250000X-0.650000X0.325000X-0.650000X-0.325000X0.650000X-0.325000X0.650000X0.325000X0*%
%ADD25RoundRect,0.250001X-0.799999X0.799999X-0.799999X-0.799999X0.799999X-0.799999X0.799999X0.799999X0*%
%ADD26C,2.100000*%
%ADD27RoundRect,0.140000X0.170000X-0.140000X0.170000X0.140000X-0.170000X0.140000X-0.170000X-0.140000X0*%
%ADD28RoundRect,0.140000X-0.140000X-0.170000X0.140000X-0.170000X0.140000X0.170000X-0.140000X0.170000X0*%
%ADD29RoundRect,0.250000X0.300000X0.300000X-0.300000X0.300000X-0.300000X-0.300000X0.300000X-0.300000X0*%
%ADD30RoundRect,0.250001X0.499999X0.999999X-0.499999X0.999999X-0.499999X-0.999999X0.499999X-0.999999X0*%
%ADD31R,1.150000X0.300000*%
%ADD32C,0.650000*%
%ADD33O,2.100000X1.000000*%
%ADD34O,1.600000X1.000000*%
%ADD35RoundRect,0.250000X0.650000X-0.325000X0.650000X0.325000X-0.650000X0.325000X-0.650000X-0.325000X0*%
%ADD36RoundRect,0.135000X-0.135000X-0.185000X0.135000X-0.185000X0.135000X0.185000X-0.135000X0.185000X0*%
%ADD37RoundRect,0.225000X0.250000X-0.225000X0.250000X0.225000X-0.250000X0.225000X-0.250000X-0.225000X0*%
%ADD38RoundRect,0.102000X0.250000X0.175000X-0.250000X0.175000X-0.250000X-0.175000X0.250000X-0.175000X0*%
%ADD39RoundRect,0.150000X-0.625000X0.150000X-0.625000X-0.150000X0.625000X-0.150000X0.625000X0.150000X0*%
%ADD40RoundRect,0.250000X-0.650000X0.350000X-0.650000X-0.350000X0.650000X-0.350000X0.650000X0.350000X0*%
%ADD41RoundRect,0.075000X-0.350000X-0.075000X0.350000X-0.075000X0.350000X0.075000X-0.350000X0.075000X0*%
%ADD42RoundRect,0.075000X-0.075000X-0.350000X0.075000X-0.350000X0.075000X0.350000X-0.075000X0.350000X0*%
%ADD43R,2.650000X2.650000*%
%ADD44RoundRect,0.135000X0.185000X-0.135000X0.185000X0.135000X-0.185000X0.135000X-0.185000X-0.135000X0*%
%ADD45C,0.365000*%
%ADD46RoundRect,0.250001X-0.624999X0.462499X-0.624999X-0.462499X0.624999X-0.462499X0.624999X0.462499X0*%
%ADD47RoundRect,0.102000X-0.215900X-0.508000X0.215900X-0.508000X0.215900X0.508000X-0.215900X0.508000X0*%
%ADD48FreePoly0,0.000000*%
%ADD49RoundRect,0.225000X0.225000X0.250000X-0.225000X0.250000X-0.225000X-0.250000X0.225000X-0.250000X0*%
%ADD50RoundRect,0.250000X0.312500X0.625000X-0.312500X0.625000X-0.312500X-0.625000X0.312500X-0.625000X0*%
%ADD51RoundRect,0.218750X0.218750X0.256250X-0.218750X0.256250X-0.218750X-0.256250X0.218750X-0.256250X0*%
%ADD52R,0.800000X1.700000*%
%ADD53R,0.450000X0.200000*%
%ADD54R,0.250000X0.700000*%
%ADD55RoundRect,0.102000X-0.250000X-0.175000X0.250000X-0.175000X0.250000X0.175000X-0.250000X0.175000X0*%
%ADD56RoundRect,0.100000X-0.100000X0.225000X-0.100000X-0.225000X0.100000X-0.225000X0.100000X0.225000X0*%
%ADD57R,0.300000X0.800000*%
%ADD58R,0.800000X0.300000*%
%ADD59R,2.800000X2.800000*%
%ADD60RoundRect,0.140000X0.140000X0.170000X-0.140000X0.170000X-0.140000X-0.170000X0.140000X-0.170000X0*%
%ADD61RoundRect,0.062500X-0.350000X-0.062500X0.350000X-0.062500X0.350000X0.062500X-0.350000X0.062500X0*%
%ADD62RoundRect,0.062500X-0.062500X-0.350000X0.062500X-0.350000X0.062500X0.350000X-0.062500X0.350000X0*%
%ADD63R,2.600000X2.600000*%
%ADD64RoundRect,0.250000X0.325000X0.650000X-0.325000X0.650000X-0.325000X-0.650000X0.325000X-0.650000X0*%
%ADD65RoundRect,0.225000X-0.250000X0.225000X-0.250000X-0.225000X0.250000X-0.225000X0.250000X0.225000X0*%
%ADD66RoundRect,0.075000X-0.650000X-0.075000X0.650000X-0.075000X0.650000X0.075000X-0.650000X0.075000X0*%
%ADD67RoundRect,0.250000X-1.500000X-0.550000X1.500000X-0.550000X1.500000X0.550000X-1.500000X0.550000X0*%
G04 APERTURE END LIST*
D10*
%TO.C,U4*%
X149188494Y-82580000D02*
X148768494Y-82580000D01*
X148768494Y-81820000D01*
X149188494Y-81820000D01*
X149188494Y-82580000D01*
G36*
X149188494Y-82580000D02*
G01*
X148768494Y-82580000D01*
X148768494Y-81820000D01*
X149188494Y-81820000D01*
X149188494Y-82580000D01*
G37*
X149188494Y-84050000D02*
X148768494Y-84050000D01*
X148768494Y-83290000D01*
X149188494Y-83290000D01*
X149188494Y-84050000D01*
G36*
X149188494Y-84050000D02*
G01*
X148768494Y-84050000D01*
X148768494Y-83290000D01*
X149188494Y-83290000D01*
X149188494Y-84050000D01*
G37*
X149688494Y-82580000D02*
X149268494Y-82580000D01*
X149268494Y-81820000D01*
X149688494Y-81820000D01*
X149688494Y-82580000D01*
G36*
X149688494Y-82580000D02*
G01*
X149268494Y-82580000D01*
X149268494Y-81820000D01*
X149688494Y-81820000D01*
X149688494Y-82580000D01*
G37*
X149688494Y-84050000D02*
X149268494Y-84050000D01*
X149268494Y-83290000D01*
X149688494Y-83290000D01*
X149688494Y-84050000D01*
G36*
X149688494Y-84050000D02*
G01*
X149268494Y-84050000D01*
X149268494Y-83290000D01*
X149688494Y-83290000D01*
X149688494Y-84050000D01*
G37*
X150188494Y-82580000D02*
X149768494Y-82580000D01*
X149768494Y-81820000D01*
X150188494Y-81820000D01*
X150188494Y-82580000D01*
G36*
X150188494Y-82580000D02*
G01*
X149768494Y-82580000D01*
X149768494Y-81820000D01*
X150188494Y-81820000D01*
X150188494Y-82580000D01*
G37*
X150188494Y-84050000D02*
X149768494Y-84050000D01*
X149768494Y-83290000D01*
X150188494Y-83290000D01*
X150188494Y-84050000D01*
G36*
X150188494Y-84050000D02*
G01*
X149768494Y-84050000D01*
X149768494Y-83290000D01*
X150188494Y-83290000D01*
X150188494Y-84050000D01*
G37*
X150688494Y-82580000D02*
X150268494Y-82580000D01*
X150268494Y-81820000D01*
X150688494Y-81820000D01*
X150688494Y-82580000D01*
G36*
X150688494Y-82580000D02*
G01*
X150268494Y-82580000D01*
X150268494Y-81820000D01*
X150688494Y-81820000D01*
X150688494Y-82580000D01*
G37*
X150688494Y-84050000D02*
X150268494Y-84050000D01*
X150268494Y-83290000D01*
X150688494Y-83290000D01*
X150688494Y-84050000D01*
G36*
X150688494Y-84050000D02*
G01*
X150268494Y-84050000D01*
X150268494Y-83290000D01*
X150688494Y-83290000D01*
X150688494Y-84050000D01*
G37*
%TO.C,U5*%
X145410000Y-86900000D02*
X145810000Y-86900000D01*
X145810000Y-89550000D01*
X145410000Y-89550000D01*
X145410000Y-89925000D01*
X144785000Y-89925000D01*
X144785000Y-89550000D01*
X143635000Y-89550000D01*
X143635000Y-89500000D01*
X143335000Y-89500000D01*
X143335000Y-88900000D01*
X143635000Y-88900000D01*
X143635000Y-88850000D01*
X143335000Y-88850000D01*
X143335000Y-88250000D01*
X143635000Y-88250000D01*
X143635000Y-88200000D01*
X143335000Y-88200000D01*
X143335000Y-87600000D01*
X143635000Y-87600000D01*
X143635000Y-87550000D01*
X143335000Y-87550000D01*
X143335000Y-86975000D01*
X143635000Y-86975000D01*
X143635000Y-86900000D01*
X144760000Y-86900000D01*
X144760000Y-86525000D01*
X145410000Y-86525000D01*
X145410000Y-86900000D01*
G36*
X145410000Y-86900000D02*
G01*
X145810000Y-86900000D01*
X145810000Y-89550000D01*
X145410000Y-89550000D01*
X145410000Y-89925000D01*
X144785000Y-89925000D01*
X144785000Y-89550000D01*
X143635000Y-89550000D01*
X143635000Y-89500000D01*
X143335000Y-89500000D01*
X143335000Y-88900000D01*
X143635000Y-88900000D01*
X143635000Y-88850000D01*
X143335000Y-88850000D01*
X143335000Y-88250000D01*
X143635000Y-88250000D01*
X143635000Y-88200000D01*
X143335000Y-88200000D01*
X143335000Y-87600000D01*
X143635000Y-87600000D01*
X143635000Y-87550000D01*
X143335000Y-87550000D01*
X143335000Y-86975000D01*
X143635000Y-86975000D01*
X143635000Y-86900000D01*
X144760000Y-86900000D01*
X144760000Y-86525000D01*
X145410000Y-86525000D01*
X145410000Y-86900000D01*
G37*
D11*
%TO.C,U3*%
X127776300Y-86358200D02*
X127141300Y-86942400D01*
X127141300Y-87247200D01*
X126658700Y-87247200D01*
X126658700Y-86942400D01*
X126023700Y-86358200D01*
X126023700Y-83589600D01*
X126658700Y-83589600D01*
X127141300Y-83589600D01*
X127776300Y-83589600D01*
X127776300Y-86358200D01*
G36*
X127776300Y-86358200D02*
G01*
X127141300Y-86942400D01*
X127141300Y-87247200D01*
X126658700Y-87247200D01*
X126658700Y-86942400D01*
X126023700Y-86358200D01*
X126023700Y-83589600D01*
X126658700Y-83589600D01*
X127141300Y-83589600D01*
X127776300Y-83589600D01*
X127776300Y-86358200D01*
G37*
D10*
%TO.C,D3*%
X153075500Y-91206000D02*
X153077500Y-91206000D01*
X153080500Y-91207000D01*
X153082500Y-91207000D01*
X153085500Y-91208000D01*
X153087500Y-91209000D01*
X153090500Y-91210000D01*
X153092500Y-91212000D01*
X153094500Y-91213000D01*
X153096500Y-91215000D01*
X153098500Y-91216000D01*
X153100500Y-91218000D01*
X153102500Y-91220000D01*
X153104500Y-91222000D01*
X153106500Y-91224000D01*
X153107500Y-91226000D01*
X153109500Y-91228000D01*
X153110500Y-91230000D01*
X153112500Y-91232000D01*
X153113500Y-91235000D01*
X153114500Y-91237000D01*
X153115500Y-91240000D01*
X153115500Y-91242000D01*
X153116500Y-91245000D01*
X153116500Y-91247000D01*
X153117500Y-91250000D01*
X153117500Y-91252000D01*
X153117500Y-91255000D01*
X153117500Y-91495000D01*
X153117500Y-91498000D01*
X153117500Y-91500000D01*
X153116500Y-91503000D01*
X153116500Y-91505000D01*
X153115500Y-91508000D01*
X153115500Y-91510000D01*
X153114500Y-91513000D01*
X153113500Y-91515000D01*
X153112500Y-91518000D01*
X153110500Y-91520000D01*
X153109500Y-91522000D01*
X153107500Y-91524000D01*
X153106500Y-91526000D01*
X153104500Y-91528000D01*
X153102500Y-91530000D01*
X153100500Y-91532000D01*
X153098500Y-91534000D01*
X153096500Y-91535000D01*
X153094500Y-91537000D01*
X153092500Y-91538000D01*
X153090500Y-91540000D01*
X153087500Y-91541000D01*
X153085500Y-91542000D01*
X153082500Y-91543000D01*
X153080500Y-91543000D01*
X153077500Y-91544000D01*
X153075500Y-91544000D01*
X153072500Y-91545000D01*
X153070500Y-91545000D01*
X153067500Y-91545000D01*
X152462500Y-91545000D01*
X152459500Y-91545000D01*
X152457500Y-91545000D01*
X152454500Y-91544000D01*
X152452500Y-91544000D01*
X152449500Y-91543000D01*
X152447500Y-91543000D01*
X152444500Y-91542000D01*
X152442500Y-91541000D01*
X152439500Y-91540000D01*
X152437500Y-91538000D01*
X152435500Y-91537000D01*
X152433500Y-91535000D01*
X152431500Y-91534000D01*
X152429500Y-91532000D01*
X152427500Y-91530000D01*
X152425500Y-91528000D01*
X152423500Y-91526000D01*
X152422500Y-91524000D01*
X152420500Y-91522000D01*
X152419500Y-91520000D01*
X152417500Y-91518000D01*
X152416500Y-91515000D01*
X152415500Y-91513000D01*
X152414500Y-91510000D01*
X152414500Y-91508000D01*
X152413500Y-91505000D01*
X152413500Y-91503000D01*
X152412500Y-91500000D01*
X152412500Y-91498000D01*
X152412500Y-91495000D01*
X152412500Y-91255000D01*
X152412500Y-91252000D01*
X152412500Y-91250000D01*
X152413500Y-91247000D01*
X152413500Y-91245000D01*
X152414500Y-91242000D01*
X152414500Y-91240000D01*
X152415500Y-91237000D01*
X152416500Y-91235000D01*
X152417500Y-91232000D01*
X152419500Y-91230000D01*
X152420500Y-91228000D01*
X152422500Y-91226000D01*
X152423500Y-91224000D01*
X152425500Y-91222000D01*
X152427500Y-91220000D01*
X152429500Y-91218000D01*
X152431500Y-91216000D01*
X152433500Y-91215000D01*
X152435500Y-91213000D01*
X152437500Y-91212000D01*
X152439500Y-91210000D01*
X152442500Y-91209000D01*
X152444500Y-91208000D01*
X152447500Y-91207000D01*
X152449500Y-91207000D01*
X152452500Y-91206000D01*
X152454500Y-91206000D01*
X152457500Y-91205000D01*
X152459500Y-91205000D01*
X152462500Y-91205000D01*
X153067500Y-91205000D01*
X153070500Y-91205000D01*
X153072500Y-91205000D01*
X153075500Y-91206000D01*
G36*
X153075500Y-91206000D02*
G01*
X153077500Y-91206000D01*
X153080500Y-91207000D01*
X153082500Y-91207000D01*
X153085500Y-91208000D01*
X153087500Y-91209000D01*
X153090500Y-91210000D01*
X153092500Y-91212000D01*
X153094500Y-91213000D01*
X153096500Y-91215000D01*
X153098500Y-91216000D01*
X153100500Y-91218000D01*
X153102500Y-91220000D01*
X153104500Y-91222000D01*
X153106500Y-91224000D01*
X153107500Y-91226000D01*
X153109500Y-91228000D01*
X153110500Y-91230000D01*
X153112500Y-91232000D01*
X153113500Y-91235000D01*
X153114500Y-91237000D01*
X153115500Y-91240000D01*
X153115500Y-91242000D01*
X153116500Y-91245000D01*
X153116500Y-91247000D01*
X153117500Y-91250000D01*
X153117500Y-91252000D01*
X153117500Y-91255000D01*
X153117500Y-91495000D01*
X153117500Y-91498000D01*
X153117500Y-91500000D01*
X153116500Y-91503000D01*
X153116500Y-91505000D01*
X153115500Y-91508000D01*
X153115500Y-91510000D01*
X153114500Y-91513000D01*
X153113500Y-91515000D01*
X153112500Y-91518000D01*
X153110500Y-91520000D01*
X153109500Y-91522000D01*
X153107500Y-91524000D01*
X153106500Y-91526000D01*
X153104500Y-91528000D01*
X153102500Y-91530000D01*
X153100500Y-91532000D01*
X153098500Y-91534000D01*
X153096500Y-91535000D01*
X153094500Y-91537000D01*
X153092500Y-91538000D01*
X153090500Y-91540000D01*
X153087500Y-91541000D01*
X153085500Y-91542000D01*
X153082500Y-91543000D01*
X153080500Y-91543000D01*
X153077500Y-91544000D01*
X153075500Y-91544000D01*
X153072500Y-91545000D01*
X153070500Y-91545000D01*
X153067500Y-91545000D01*
X152462500Y-91545000D01*
X152459500Y-91545000D01*
X152457500Y-91545000D01*
X152454500Y-91544000D01*
X152452500Y-91544000D01*
X152449500Y-91543000D01*
X152447500Y-91543000D01*
X152444500Y-91542000D01*
X152442500Y-91541000D01*
X152439500Y-91540000D01*
X152437500Y-91538000D01*
X152435500Y-91537000D01*
X152433500Y-91535000D01*
X152431500Y-91534000D01*
X152429500Y-91532000D01*
X152427500Y-91530000D01*
X152425500Y-91528000D01*
X152423500Y-91526000D01*
X152422500Y-91524000D01*
X152420500Y-91522000D01*
X152419500Y-91520000D01*
X152417500Y-91518000D01*
X152416500Y-91515000D01*
X152415500Y-91513000D01*
X152414500Y-91510000D01*
X152414500Y-91508000D01*
X152413500Y-91505000D01*
X152413500Y-91503000D01*
X152412500Y-91500000D01*
X152412500Y-91498000D01*
X152412500Y-91495000D01*
X152412500Y-91255000D01*
X152412500Y-91252000D01*
X152412500Y-91250000D01*
X152413500Y-91247000D01*
X152413500Y-91245000D01*
X152414500Y-91242000D01*
X152414500Y-91240000D01*
X152415500Y-91237000D01*
X152416500Y-91235000D01*
X152417500Y-91232000D01*
X152419500Y-91230000D01*
X152420500Y-91228000D01*
X152422500Y-91226000D01*
X152423500Y-91224000D01*
X152425500Y-91222000D01*
X152427500Y-91220000D01*
X152429500Y-91218000D01*
X152431500Y-91216000D01*
X152433500Y-91215000D01*
X152435500Y-91213000D01*
X152437500Y-91212000D01*
X152439500Y-91210000D01*
X152442500Y-91209000D01*
X152444500Y-91208000D01*
X152447500Y-91207000D01*
X152449500Y-91207000D01*
X152452500Y-91206000D01*
X152454500Y-91206000D01*
X152457500Y-91205000D01*
X152459500Y-91205000D01*
X152462500Y-91205000D01*
X153067500Y-91205000D01*
X153070500Y-91205000D01*
X153072500Y-91205000D01*
X153075500Y-91206000D01*
G37*
X153075500Y-92106000D02*
X153077500Y-92106000D01*
X153080500Y-92107000D01*
X153082500Y-92107000D01*
X153085500Y-92108000D01*
X153087500Y-92109000D01*
X153090500Y-92110000D01*
X153092500Y-92112000D01*
X153094500Y-92113000D01*
X153096500Y-92115000D01*
X153098500Y-92116000D01*
X153100500Y-92118000D01*
X153102500Y-92120000D01*
X153104500Y-92122000D01*
X153106500Y-92124000D01*
X153107500Y-92126000D01*
X153109500Y-92128000D01*
X153110500Y-92130000D01*
X153112500Y-92132000D01*
X153113500Y-92135000D01*
X153114500Y-92137000D01*
X153115500Y-92140000D01*
X153115500Y-92142000D01*
X153116500Y-92145000D01*
X153116500Y-92147000D01*
X153117500Y-92150000D01*
X153117500Y-92152000D01*
X153117500Y-92155000D01*
X153117500Y-92595000D01*
X153117500Y-92598000D01*
X153117500Y-92600000D01*
X153116500Y-92603000D01*
X153116500Y-92605000D01*
X153115500Y-92608000D01*
X153115500Y-92610000D01*
X153114500Y-92613000D01*
X153113500Y-92615000D01*
X153112500Y-92618000D01*
X153110500Y-92620000D01*
X153109500Y-92622000D01*
X153107500Y-92624000D01*
X153106500Y-92626000D01*
X153104500Y-92628000D01*
X153102500Y-92630000D01*
X153100500Y-92632000D01*
X153098500Y-92634000D01*
X153096500Y-92635000D01*
X153094500Y-92637000D01*
X153092500Y-92638000D01*
X153090500Y-92640000D01*
X153087500Y-92641000D01*
X153085500Y-92642000D01*
X153082500Y-92643000D01*
X153080500Y-92643000D01*
X153077500Y-92644000D01*
X153075500Y-92644000D01*
X153072500Y-92645000D01*
X153070500Y-92645000D01*
X153067500Y-92645000D01*
X152462500Y-92645000D01*
X152459500Y-92645000D01*
X152457500Y-92645000D01*
X152454500Y-92644000D01*
X152452500Y-92644000D01*
X152449500Y-92643000D01*
X152447500Y-92643000D01*
X152444500Y-92642000D01*
X152442500Y-92641000D01*
X152439500Y-92640000D01*
X152437500Y-92638000D01*
X152435500Y-92637000D01*
X152433500Y-92635000D01*
X152431500Y-92634000D01*
X152429500Y-92632000D01*
X152427500Y-92630000D01*
X152425500Y-92628000D01*
X152423500Y-92626000D01*
X152422500Y-92624000D01*
X152420500Y-92622000D01*
X152419500Y-92620000D01*
X152417500Y-92618000D01*
X152416500Y-92615000D01*
X152415500Y-92613000D01*
X152414500Y-92610000D01*
X152414500Y-92608000D01*
X152413500Y-92605000D01*
X152413500Y-92603000D01*
X152412500Y-92600000D01*
X152412500Y-92598000D01*
X152412500Y-92595000D01*
X152412500Y-92155000D01*
X152412500Y-92152000D01*
X152412500Y-92150000D01*
X152413500Y-92147000D01*
X152413500Y-92145000D01*
X152414500Y-92142000D01*
X152414500Y-92140000D01*
X152415500Y-92137000D01*
X152416500Y-92135000D01*
X152417500Y-92132000D01*
X152419500Y-92130000D01*
X152420500Y-92128000D01*
X152422500Y-92126000D01*
X152423500Y-92124000D01*
X152425500Y-92122000D01*
X152427500Y-92120000D01*
X152429500Y-92118000D01*
X152431500Y-92116000D01*
X152433500Y-92115000D01*
X152435500Y-92113000D01*
X152437500Y-92112000D01*
X152439500Y-92110000D01*
X152442500Y-92109000D01*
X152444500Y-92108000D01*
X152447500Y-92107000D01*
X152449500Y-92107000D01*
X152452500Y-92106000D01*
X152454500Y-92106000D01*
X152457500Y-92105000D01*
X152459500Y-92105000D01*
X152462500Y-92105000D01*
X153067500Y-92105000D01*
X153070500Y-92105000D01*
X153072500Y-92105000D01*
X153075500Y-92106000D01*
G36*
X153075500Y-92106000D02*
G01*
X153077500Y-92106000D01*
X153080500Y-92107000D01*
X153082500Y-92107000D01*
X153085500Y-92108000D01*
X153087500Y-92109000D01*
X153090500Y-92110000D01*
X153092500Y-92112000D01*
X153094500Y-92113000D01*
X153096500Y-92115000D01*
X153098500Y-92116000D01*
X153100500Y-92118000D01*
X153102500Y-92120000D01*
X153104500Y-92122000D01*
X153106500Y-92124000D01*
X153107500Y-92126000D01*
X153109500Y-92128000D01*
X153110500Y-92130000D01*
X153112500Y-92132000D01*
X153113500Y-92135000D01*
X153114500Y-92137000D01*
X153115500Y-92140000D01*
X153115500Y-92142000D01*
X153116500Y-92145000D01*
X153116500Y-92147000D01*
X153117500Y-92150000D01*
X153117500Y-92152000D01*
X153117500Y-92155000D01*
X153117500Y-92595000D01*
X153117500Y-92598000D01*
X153117500Y-92600000D01*
X153116500Y-92603000D01*
X153116500Y-92605000D01*
X153115500Y-92608000D01*
X153115500Y-92610000D01*
X153114500Y-92613000D01*
X153113500Y-92615000D01*
X153112500Y-92618000D01*
X153110500Y-92620000D01*
X153109500Y-92622000D01*
X153107500Y-92624000D01*
X153106500Y-92626000D01*
X153104500Y-92628000D01*
X153102500Y-92630000D01*
X153100500Y-92632000D01*
X153098500Y-92634000D01*
X153096500Y-92635000D01*
X153094500Y-92637000D01*
X153092500Y-92638000D01*
X153090500Y-92640000D01*
X153087500Y-92641000D01*
X153085500Y-92642000D01*
X153082500Y-92643000D01*
X153080500Y-92643000D01*
X153077500Y-92644000D01*
X153075500Y-92644000D01*
X153072500Y-92645000D01*
X153070500Y-92645000D01*
X153067500Y-92645000D01*
X152462500Y-92645000D01*
X152459500Y-92645000D01*
X152457500Y-92645000D01*
X152454500Y-92644000D01*
X152452500Y-92644000D01*
X152449500Y-92643000D01*
X152447500Y-92643000D01*
X152444500Y-92642000D01*
X152442500Y-92641000D01*
X152439500Y-92640000D01*
X152437500Y-92638000D01*
X152435500Y-92637000D01*
X152433500Y-92635000D01*
X152431500Y-92634000D01*
X152429500Y-92632000D01*
X152427500Y-92630000D01*
X152425500Y-92628000D01*
X152423500Y-92626000D01*
X152422500Y-92624000D01*
X152420500Y-92622000D01*
X152419500Y-92620000D01*
X152417500Y-92618000D01*
X152416500Y-92615000D01*
X152415500Y-92613000D01*
X152414500Y-92610000D01*
X152414500Y-92608000D01*
X152413500Y-92605000D01*
X152413500Y-92603000D01*
X152412500Y-92600000D01*
X152412500Y-92598000D01*
X152412500Y-92595000D01*
X152412500Y-92155000D01*
X152412500Y-92152000D01*
X152412500Y-92150000D01*
X152413500Y-92147000D01*
X152413500Y-92145000D01*
X152414500Y-92142000D01*
X152414500Y-92140000D01*
X152415500Y-92137000D01*
X152416500Y-92135000D01*
X152417500Y-92132000D01*
X152419500Y-92130000D01*
X152420500Y-92128000D01*
X152422500Y-92126000D01*
X152423500Y-92124000D01*
X152425500Y-92122000D01*
X152427500Y-92120000D01*
X152429500Y-92118000D01*
X152431500Y-92116000D01*
X152433500Y-92115000D01*
X152435500Y-92113000D01*
X152437500Y-92112000D01*
X152439500Y-92110000D01*
X152442500Y-92109000D01*
X152444500Y-92108000D01*
X152447500Y-92107000D01*
X152449500Y-92107000D01*
X152452500Y-92106000D01*
X152454500Y-92106000D01*
X152457500Y-92105000D01*
X152459500Y-92105000D01*
X152462500Y-92105000D01*
X153067500Y-92105000D01*
X153070500Y-92105000D01*
X153072500Y-92105000D01*
X153075500Y-92106000D01*
G37*
X153075500Y-93206000D02*
X153077500Y-93206000D01*
X153080500Y-93207000D01*
X153082500Y-93207000D01*
X153085500Y-93208000D01*
X153087500Y-93209000D01*
X153090500Y-93210000D01*
X153092500Y-93212000D01*
X153094500Y-93213000D01*
X153096500Y-93215000D01*
X153098500Y-93216000D01*
X153100500Y-93218000D01*
X153102500Y-93220000D01*
X153104500Y-93222000D01*
X153106500Y-93224000D01*
X153107500Y-93226000D01*
X153109500Y-93228000D01*
X153110500Y-93230000D01*
X153112500Y-93232000D01*
X153113500Y-93235000D01*
X153114500Y-93237000D01*
X153115500Y-93240000D01*
X153115500Y-93242000D01*
X153116500Y-93245000D01*
X153116500Y-93247000D01*
X153117500Y-93250000D01*
X153117500Y-93252000D01*
X153117500Y-93255000D01*
X153117500Y-93495000D01*
X153117500Y-93498000D01*
X153117500Y-93500000D01*
X153116500Y-93503000D01*
X153116500Y-93505000D01*
X153115500Y-93508000D01*
X153115500Y-93510000D01*
X153114500Y-93513000D01*
X153113500Y-93515000D01*
X153112500Y-93518000D01*
X153110500Y-93520000D01*
X153109500Y-93522000D01*
X153107500Y-93524000D01*
X153106500Y-93526000D01*
X153104500Y-93528000D01*
X153102500Y-93530000D01*
X153100500Y-93532000D01*
X153098500Y-93534000D01*
X153096500Y-93535000D01*
X153094500Y-93537000D01*
X153092500Y-93538000D01*
X153090500Y-93540000D01*
X153087500Y-93541000D01*
X153085500Y-93542000D01*
X153082500Y-93543000D01*
X153080500Y-93543000D01*
X153077500Y-93544000D01*
X153075500Y-93544000D01*
X153072500Y-93545000D01*
X153070500Y-93545000D01*
X153067500Y-93545000D01*
X152462500Y-93545000D01*
X152459500Y-93545000D01*
X152457500Y-93545000D01*
X152454500Y-93544000D01*
X152452500Y-93544000D01*
X152449500Y-93543000D01*
X152447500Y-93543000D01*
X152444500Y-93542000D01*
X152442500Y-93541000D01*
X152439500Y-93540000D01*
X152437500Y-93538000D01*
X152435500Y-93537000D01*
X152433500Y-93535000D01*
X152431500Y-93534000D01*
X152429500Y-93532000D01*
X152427500Y-93530000D01*
X152425500Y-93528000D01*
X152423500Y-93526000D01*
X152422500Y-93524000D01*
X152420500Y-93522000D01*
X152419500Y-93520000D01*
X152417500Y-93518000D01*
X152416500Y-93515000D01*
X152415500Y-93513000D01*
X152414500Y-93510000D01*
X152414500Y-93508000D01*
X152413500Y-93505000D01*
X152413500Y-93503000D01*
X152412500Y-93500000D01*
X152412500Y-93498000D01*
X152412500Y-93495000D01*
X152412500Y-93255000D01*
X152412500Y-93252000D01*
X152412500Y-93250000D01*
X152413500Y-93247000D01*
X152413500Y-93245000D01*
X152414500Y-93242000D01*
X152414500Y-93240000D01*
X152415500Y-93237000D01*
X152416500Y-93235000D01*
X152417500Y-93232000D01*
X152419500Y-93230000D01*
X152420500Y-93228000D01*
X152422500Y-93226000D01*
X152423500Y-93224000D01*
X152425500Y-93222000D01*
X152427500Y-93220000D01*
X152429500Y-93218000D01*
X152431500Y-93216000D01*
X152433500Y-93215000D01*
X152435500Y-93213000D01*
X152437500Y-93212000D01*
X152439500Y-93210000D01*
X152442500Y-93209000D01*
X152444500Y-93208000D01*
X152447500Y-93207000D01*
X152449500Y-93207000D01*
X152452500Y-93206000D01*
X152454500Y-93206000D01*
X152457500Y-93205000D01*
X152459500Y-93205000D01*
X152462500Y-93205000D01*
X153067500Y-93205000D01*
X153070500Y-93205000D01*
X153072500Y-93205000D01*
X153075500Y-93206000D01*
G36*
X153075500Y-93206000D02*
G01*
X153077500Y-93206000D01*
X153080500Y-93207000D01*
X153082500Y-93207000D01*
X153085500Y-93208000D01*
X153087500Y-93209000D01*
X153090500Y-93210000D01*
X153092500Y-93212000D01*
X153094500Y-93213000D01*
X153096500Y-93215000D01*
X153098500Y-93216000D01*
X153100500Y-93218000D01*
X153102500Y-93220000D01*
X153104500Y-93222000D01*
X153106500Y-93224000D01*
X153107500Y-93226000D01*
X153109500Y-93228000D01*
X153110500Y-93230000D01*
X153112500Y-93232000D01*
X153113500Y-93235000D01*
X153114500Y-93237000D01*
X153115500Y-93240000D01*
X153115500Y-93242000D01*
X153116500Y-93245000D01*
X153116500Y-93247000D01*
X153117500Y-93250000D01*
X153117500Y-93252000D01*
X153117500Y-93255000D01*
X153117500Y-93495000D01*
X153117500Y-93498000D01*
X153117500Y-93500000D01*
X153116500Y-93503000D01*
X153116500Y-93505000D01*
X153115500Y-93508000D01*
X153115500Y-93510000D01*
X153114500Y-93513000D01*
X153113500Y-93515000D01*
X153112500Y-93518000D01*
X153110500Y-93520000D01*
X153109500Y-93522000D01*
X153107500Y-93524000D01*
X153106500Y-93526000D01*
X153104500Y-93528000D01*
X153102500Y-93530000D01*
X153100500Y-93532000D01*
X153098500Y-93534000D01*
X153096500Y-93535000D01*
X153094500Y-93537000D01*
X153092500Y-93538000D01*
X153090500Y-93540000D01*
X153087500Y-93541000D01*
X153085500Y-93542000D01*
X153082500Y-93543000D01*
X153080500Y-93543000D01*
X153077500Y-93544000D01*
X153075500Y-93544000D01*
X153072500Y-93545000D01*
X153070500Y-93545000D01*
X153067500Y-93545000D01*
X152462500Y-93545000D01*
X152459500Y-93545000D01*
X152457500Y-93545000D01*
X152454500Y-93544000D01*
X152452500Y-93544000D01*
X152449500Y-93543000D01*
X152447500Y-93543000D01*
X152444500Y-93542000D01*
X152442500Y-93541000D01*
X152439500Y-93540000D01*
X152437500Y-93538000D01*
X152435500Y-93537000D01*
X152433500Y-93535000D01*
X152431500Y-93534000D01*
X152429500Y-93532000D01*
X152427500Y-93530000D01*
X152425500Y-93528000D01*
X152423500Y-93526000D01*
X152422500Y-93524000D01*
X152420500Y-93522000D01*
X152419500Y-93520000D01*
X152417500Y-93518000D01*
X152416500Y-93515000D01*
X152415500Y-93513000D01*
X152414500Y-93510000D01*
X152414500Y-93508000D01*
X152413500Y-93505000D01*
X152413500Y-93503000D01*
X152412500Y-93500000D01*
X152412500Y-93498000D01*
X152412500Y-93495000D01*
X152412500Y-93255000D01*
X152412500Y-93252000D01*
X152412500Y-93250000D01*
X152413500Y-93247000D01*
X152413500Y-93245000D01*
X152414500Y-93242000D01*
X152414500Y-93240000D01*
X152415500Y-93237000D01*
X152416500Y-93235000D01*
X152417500Y-93232000D01*
X152419500Y-93230000D01*
X152420500Y-93228000D01*
X152422500Y-93226000D01*
X152423500Y-93224000D01*
X152425500Y-93222000D01*
X152427500Y-93220000D01*
X152429500Y-93218000D01*
X152431500Y-93216000D01*
X152433500Y-93215000D01*
X152435500Y-93213000D01*
X152437500Y-93212000D01*
X152439500Y-93210000D01*
X152442500Y-93209000D01*
X152444500Y-93208000D01*
X152447500Y-93207000D01*
X152449500Y-93207000D01*
X152452500Y-93206000D01*
X152454500Y-93206000D01*
X152457500Y-93205000D01*
X152459500Y-93205000D01*
X152462500Y-93205000D01*
X153067500Y-93205000D01*
X153070500Y-93205000D01*
X153072500Y-93205000D01*
X153075500Y-93206000D01*
G37*
X153075500Y-91706000D02*
X153077500Y-91706000D01*
X153080500Y-91707000D01*
X153082500Y-91707000D01*
X153085500Y-91708000D01*
X153087500Y-91709000D01*
X153090500Y-91710000D01*
X153092500Y-91712000D01*
X153094500Y-91713000D01*
X153096500Y-91715000D01*
X153098500Y-91716000D01*
X153100500Y-91718000D01*
X153102500Y-91720000D01*
X153104500Y-91722000D01*
X153106500Y-91724000D01*
X153107500Y-91726000D01*
X153109500Y-91728000D01*
X153110500Y-91730000D01*
X153112500Y-91732000D01*
X153113500Y-91735000D01*
X153114500Y-91737000D01*
X153115500Y-91740000D01*
X153115500Y-91742000D01*
X153116500Y-91745000D01*
X153116500Y-91747000D01*
X153117500Y-91750000D01*
X153117500Y-91752000D01*
X153117500Y-91755000D01*
X153117500Y-91995000D01*
X153117500Y-91998000D01*
X153117500Y-92000000D01*
X153116500Y-92003000D01*
X153116500Y-92005000D01*
X153115500Y-92008000D01*
X153115500Y-92010000D01*
X153114500Y-92013000D01*
X153113500Y-92015000D01*
X153112500Y-92018000D01*
X153110500Y-92020000D01*
X153109500Y-92022000D01*
X153107500Y-92024000D01*
X153106500Y-92026000D01*
X153104500Y-92028000D01*
X153102500Y-92030000D01*
X153100500Y-92032000D01*
X153098500Y-92034000D01*
X153096500Y-92035000D01*
X153094500Y-92037000D01*
X153092500Y-92038000D01*
X153090500Y-92040000D01*
X153087500Y-92041000D01*
X153085500Y-92042000D01*
X153082500Y-92043000D01*
X153080500Y-92043000D01*
X153077500Y-92044000D01*
X153075500Y-92044000D01*
X153072500Y-92045000D01*
X153070500Y-92045000D01*
X153067500Y-92045000D01*
X152462500Y-92045000D01*
X152459500Y-92045000D01*
X152457500Y-92045000D01*
X152454500Y-92044000D01*
X152452500Y-92044000D01*
X152449500Y-92043000D01*
X152447500Y-92043000D01*
X152444500Y-92042000D01*
X152442500Y-92041000D01*
X152439500Y-92040000D01*
X152437500Y-92038000D01*
X152435500Y-92037000D01*
X152433500Y-92035000D01*
X152431500Y-92034000D01*
X152429500Y-92032000D01*
X152427500Y-92030000D01*
X152425500Y-92028000D01*
X152423500Y-92026000D01*
X152422500Y-92024000D01*
X152420500Y-92022000D01*
X152419500Y-92020000D01*
X152417500Y-92018000D01*
X152416500Y-92015000D01*
X152415500Y-92013000D01*
X152414500Y-92010000D01*
X152414500Y-92008000D01*
X152413500Y-92005000D01*
X152413500Y-92003000D01*
X152412500Y-92000000D01*
X152412500Y-91998000D01*
X152412500Y-91995000D01*
X152412500Y-91755000D01*
X152412500Y-91752000D01*
X152412500Y-91750000D01*
X152413500Y-91747000D01*
X152413500Y-91745000D01*
X152414500Y-91742000D01*
X152414500Y-91740000D01*
X152415500Y-91737000D01*
X152416500Y-91735000D01*
X152417500Y-91732000D01*
X152419500Y-91730000D01*
X152420500Y-91728000D01*
X152422500Y-91726000D01*
X152423500Y-91724000D01*
X152425500Y-91722000D01*
X152427500Y-91720000D01*
X152429500Y-91718000D01*
X152431500Y-91716000D01*
X152433500Y-91715000D01*
X152435500Y-91713000D01*
X152437500Y-91712000D01*
X152439500Y-91710000D01*
X152442500Y-91709000D01*
X152444500Y-91708000D01*
X152447500Y-91707000D01*
X152449500Y-91707000D01*
X152452500Y-91706000D01*
X152454500Y-91706000D01*
X152457500Y-91705000D01*
X152459500Y-91705000D01*
X152462500Y-91705000D01*
X153067500Y-91705000D01*
X153070500Y-91705000D01*
X153072500Y-91705000D01*
X153075500Y-91706000D01*
G36*
X153075500Y-91706000D02*
G01*
X153077500Y-91706000D01*
X153080500Y-91707000D01*
X153082500Y-91707000D01*
X153085500Y-91708000D01*
X153087500Y-91709000D01*
X153090500Y-91710000D01*
X153092500Y-91712000D01*
X153094500Y-91713000D01*
X153096500Y-91715000D01*
X153098500Y-91716000D01*
X153100500Y-91718000D01*
X153102500Y-91720000D01*
X153104500Y-91722000D01*
X153106500Y-91724000D01*
X153107500Y-91726000D01*
X153109500Y-91728000D01*
X153110500Y-91730000D01*
X153112500Y-91732000D01*
X153113500Y-91735000D01*
X153114500Y-91737000D01*
X153115500Y-91740000D01*
X153115500Y-91742000D01*
X153116500Y-91745000D01*
X153116500Y-91747000D01*
X153117500Y-91750000D01*
X153117500Y-91752000D01*
X153117500Y-91755000D01*
X153117500Y-91995000D01*
X153117500Y-91998000D01*
X153117500Y-92000000D01*
X153116500Y-92003000D01*
X153116500Y-92005000D01*
X153115500Y-92008000D01*
X153115500Y-92010000D01*
X153114500Y-92013000D01*
X153113500Y-92015000D01*
X153112500Y-92018000D01*
X153110500Y-92020000D01*
X153109500Y-92022000D01*
X153107500Y-92024000D01*
X153106500Y-92026000D01*
X153104500Y-92028000D01*
X153102500Y-92030000D01*
X153100500Y-92032000D01*
X153098500Y-92034000D01*
X153096500Y-92035000D01*
X153094500Y-92037000D01*
X153092500Y-92038000D01*
X153090500Y-92040000D01*
X153087500Y-92041000D01*
X153085500Y-92042000D01*
X153082500Y-92043000D01*
X153080500Y-92043000D01*
X153077500Y-92044000D01*
X153075500Y-92044000D01*
X153072500Y-92045000D01*
X153070500Y-92045000D01*
X153067500Y-92045000D01*
X152462500Y-92045000D01*
X152459500Y-92045000D01*
X152457500Y-92045000D01*
X152454500Y-92044000D01*
X152452500Y-92044000D01*
X152449500Y-92043000D01*
X152447500Y-92043000D01*
X152444500Y-92042000D01*
X152442500Y-92041000D01*
X152439500Y-92040000D01*
X152437500Y-92038000D01*
X152435500Y-92037000D01*
X152433500Y-92035000D01*
X152431500Y-92034000D01*
X152429500Y-92032000D01*
X152427500Y-92030000D01*
X152425500Y-92028000D01*
X152423500Y-92026000D01*
X152422500Y-92024000D01*
X152420500Y-92022000D01*
X152419500Y-92020000D01*
X152417500Y-92018000D01*
X152416500Y-92015000D01*
X152415500Y-92013000D01*
X152414500Y-92010000D01*
X152414500Y-92008000D01*
X152413500Y-92005000D01*
X152413500Y-92003000D01*
X152412500Y-92000000D01*
X152412500Y-91998000D01*
X152412500Y-91995000D01*
X152412500Y-91755000D01*
X152412500Y-91752000D01*
X152412500Y-91750000D01*
X152413500Y-91747000D01*
X152413500Y-91745000D01*
X152414500Y-91742000D01*
X152414500Y-91740000D01*
X152415500Y-91737000D01*
X152416500Y-91735000D01*
X152417500Y-91732000D01*
X152419500Y-91730000D01*
X152420500Y-91728000D01*
X152422500Y-91726000D01*
X152423500Y-91724000D01*
X152425500Y-91722000D01*
X152427500Y-91720000D01*
X152429500Y-91718000D01*
X152431500Y-91716000D01*
X152433500Y-91715000D01*
X152435500Y-91713000D01*
X152437500Y-91712000D01*
X152439500Y-91710000D01*
X152442500Y-91709000D01*
X152444500Y-91708000D01*
X152447500Y-91707000D01*
X152449500Y-91707000D01*
X152452500Y-91706000D01*
X152454500Y-91706000D01*
X152457500Y-91705000D01*
X152459500Y-91705000D01*
X152462500Y-91705000D01*
X153067500Y-91705000D01*
X153070500Y-91705000D01*
X153072500Y-91705000D01*
X153075500Y-91706000D01*
G37*
X153075500Y-92706000D02*
X153077500Y-92706000D01*
X153080500Y-92707000D01*
X153082500Y-92707000D01*
X153085500Y-92708000D01*
X153087500Y-92709000D01*
X153090500Y-92710000D01*
X153092500Y-92712000D01*
X153094500Y-92713000D01*
X153096500Y-92715000D01*
X153098500Y-92716000D01*
X153100500Y-92718000D01*
X153102500Y-92720000D01*
X153104500Y-92722000D01*
X153106500Y-92724000D01*
X153107500Y-92726000D01*
X153109500Y-92728000D01*
X153110500Y-92730000D01*
X153112500Y-92732000D01*
X153113500Y-92735000D01*
X153114500Y-92737000D01*
X153115500Y-92740000D01*
X153115500Y-92742000D01*
X153116500Y-92745000D01*
X153116500Y-92747000D01*
X153117500Y-92750000D01*
X153117500Y-92752000D01*
X153117500Y-92755000D01*
X153117500Y-92995000D01*
X153117500Y-92998000D01*
X153117500Y-93000000D01*
X153116500Y-93003000D01*
X153116500Y-93005000D01*
X153115500Y-93008000D01*
X153115500Y-93010000D01*
X153114500Y-93013000D01*
X153113500Y-93015000D01*
X153112500Y-93018000D01*
X153110500Y-93020000D01*
X153109500Y-93022000D01*
X153107500Y-93024000D01*
X153106500Y-93026000D01*
X153104500Y-93028000D01*
X153102500Y-93030000D01*
X153100500Y-93032000D01*
X153098500Y-93034000D01*
X153096500Y-93035000D01*
X153094500Y-93037000D01*
X153092500Y-93038000D01*
X153090500Y-93040000D01*
X153087500Y-93041000D01*
X153085500Y-93042000D01*
X153082500Y-93043000D01*
X153080500Y-93043000D01*
X153077500Y-93044000D01*
X153075500Y-93044000D01*
X153072500Y-93045000D01*
X153070500Y-93045000D01*
X153067500Y-93045000D01*
X152462500Y-93045000D01*
X152459500Y-93045000D01*
X152457500Y-93045000D01*
X152454500Y-93044000D01*
X152452500Y-93044000D01*
X152449500Y-93043000D01*
X152447500Y-93043000D01*
X152444500Y-93042000D01*
X152442500Y-93041000D01*
X152439500Y-93040000D01*
X152437500Y-93038000D01*
X152435500Y-93037000D01*
X152433500Y-93035000D01*
X152431500Y-93034000D01*
X152429500Y-93032000D01*
X152427500Y-93030000D01*
X152425500Y-93028000D01*
X152423500Y-93026000D01*
X152422500Y-93024000D01*
X152420500Y-93022000D01*
X152419500Y-93020000D01*
X152417500Y-93018000D01*
X152416500Y-93015000D01*
X152415500Y-93013000D01*
X152414500Y-93010000D01*
X152414500Y-93008000D01*
X152413500Y-93005000D01*
X152413500Y-93003000D01*
X152412500Y-93000000D01*
X152412500Y-92998000D01*
X152412500Y-92995000D01*
X152412500Y-92755000D01*
X152412500Y-92752000D01*
X152412500Y-92750000D01*
X152413500Y-92747000D01*
X152413500Y-92745000D01*
X152414500Y-92742000D01*
X152414500Y-92740000D01*
X152415500Y-92737000D01*
X152416500Y-92735000D01*
X152417500Y-92732000D01*
X152419500Y-92730000D01*
X152420500Y-92728000D01*
X152422500Y-92726000D01*
X152423500Y-92724000D01*
X152425500Y-92722000D01*
X152427500Y-92720000D01*
X152429500Y-92718000D01*
X152431500Y-92716000D01*
X152433500Y-92715000D01*
X152435500Y-92713000D01*
X152437500Y-92712000D01*
X152439500Y-92710000D01*
X152442500Y-92709000D01*
X152444500Y-92708000D01*
X152447500Y-92707000D01*
X152449500Y-92707000D01*
X152452500Y-92706000D01*
X152454500Y-92706000D01*
X152457500Y-92705000D01*
X152459500Y-92705000D01*
X152462500Y-92705000D01*
X153067500Y-92705000D01*
X153070500Y-92705000D01*
X153072500Y-92705000D01*
X153075500Y-92706000D01*
G36*
X153075500Y-92706000D02*
G01*
X153077500Y-92706000D01*
X153080500Y-92707000D01*
X153082500Y-92707000D01*
X153085500Y-92708000D01*
X153087500Y-92709000D01*
X153090500Y-92710000D01*
X153092500Y-92712000D01*
X153094500Y-92713000D01*
X153096500Y-92715000D01*
X153098500Y-92716000D01*
X153100500Y-92718000D01*
X153102500Y-92720000D01*
X153104500Y-92722000D01*
X153106500Y-92724000D01*
X153107500Y-92726000D01*
X153109500Y-92728000D01*
X153110500Y-92730000D01*
X153112500Y-92732000D01*
X153113500Y-92735000D01*
X153114500Y-92737000D01*
X153115500Y-92740000D01*
X153115500Y-92742000D01*
X153116500Y-92745000D01*
X153116500Y-92747000D01*
X153117500Y-92750000D01*
X153117500Y-92752000D01*
X153117500Y-92755000D01*
X153117500Y-92995000D01*
X153117500Y-92998000D01*
X153117500Y-93000000D01*
X153116500Y-93003000D01*
X153116500Y-93005000D01*
X153115500Y-93008000D01*
X153115500Y-93010000D01*
X153114500Y-93013000D01*
X153113500Y-93015000D01*
X153112500Y-93018000D01*
X153110500Y-93020000D01*
X153109500Y-93022000D01*
X153107500Y-93024000D01*
X153106500Y-93026000D01*
X153104500Y-93028000D01*
X153102500Y-93030000D01*
X153100500Y-93032000D01*
X153098500Y-93034000D01*
X153096500Y-93035000D01*
X153094500Y-93037000D01*
X153092500Y-93038000D01*
X153090500Y-93040000D01*
X153087500Y-93041000D01*
X153085500Y-93042000D01*
X153082500Y-93043000D01*
X153080500Y-93043000D01*
X153077500Y-93044000D01*
X153075500Y-93044000D01*
X153072500Y-93045000D01*
X153070500Y-93045000D01*
X153067500Y-93045000D01*
X152462500Y-93045000D01*
X152459500Y-93045000D01*
X152457500Y-93045000D01*
X152454500Y-93044000D01*
X152452500Y-93044000D01*
X152449500Y-93043000D01*
X152447500Y-93043000D01*
X152444500Y-93042000D01*
X152442500Y-93041000D01*
X152439500Y-93040000D01*
X152437500Y-93038000D01*
X152435500Y-93037000D01*
X152433500Y-93035000D01*
X152431500Y-93034000D01*
X152429500Y-93032000D01*
X152427500Y-93030000D01*
X152425500Y-93028000D01*
X152423500Y-93026000D01*
X152422500Y-93024000D01*
X152420500Y-93022000D01*
X152419500Y-93020000D01*
X152417500Y-93018000D01*
X152416500Y-93015000D01*
X152415500Y-93013000D01*
X152414500Y-93010000D01*
X152414500Y-93008000D01*
X152413500Y-93005000D01*
X152413500Y-93003000D01*
X152412500Y-93000000D01*
X152412500Y-92998000D01*
X152412500Y-92995000D01*
X152412500Y-92755000D01*
X152412500Y-92752000D01*
X152412500Y-92750000D01*
X152413500Y-92747000D01*
X152413500Y-92745000D01*
X152414500Y-92742000D01*
X152414500Y-92740000D01*
X152415500Y-92737000D01*
X152416500Y-92735000D01*
X152417500Y-92732000D01*
X152419500Y-92730000D01*
X152420500Y-92728000D01*
X152422500Y-92726000D01*
X152423500Y-92724000D01*
X152425500Y-92722000D01*
X152427500Y-92720000D01*
X152429500Y-92718000D01*
X152431500Y-92716000D01*
X152433500Y-92715000D01*
X152435500Y-92713000D01*
X152437500Y-92712000D01*
X152439500Y-92710000D01*
X152442500Y-92709000D01*
X152444500Y-92708000D01*
X152447500Y-92707000D01*
X152449500Y-92707000D01*
X152452500Y-92706000D01*
X152454500Y-92706000D01*
X152457500Y-92705000D01*
X152459500Y-92705000D01*
X152462500Y-92705000D01*
X153067500Y-92705000D01*
X153070500Y-92705000D01*
X153072500Y-92705000D01*
X153075500Y-92706000D01*
G37*
X153910500Y-91706000D02*
X153912500Y-91706000D01*
X153915500Y-91707000D01*
X153917500Y-91707000D01*
X153920500Y-91708000D01*
X153922500Y-91709000D01*
X153925500Y-91710000D01*
X153927500Y-91712000D01*
X153929500Y-91713000D01*
X153931500Y-91715000D01*
X153933500Y-91716000D01*
X153935500Y-91718000D01*
X153937500Y-91720000D01*
X153939500Y-91722000D01*
X153941500Y-91724000D01*
X153942500Y-91726000D01*
X153944500Y-91728000D01*
X153945500Y-91730000D01*
X153947500Y-91732000D01*
X153948500Y-91735000D01*
X153949500Y-91737000D01*
X153950500Y-91740000D01*
X153950500Y-91742000D01*
X153951500Y-91745000D01*
X153951500Y-91747000D01*
X153952500Y-91750000D01*
X153952500Y-91752000D01*
X153952500Y-91755000D01*
X153952500Y-91995000D01*
X153952500Y-91998000D01*
X153952500Y-92000000D01*
X153951500Y-92003000D01*
X153951500Y-92005000D01*
X153950500Y-92008000D01*
X153950500Y-92010000D01*
X153949500Y-92013000D01*
X153948500Y-92015000D01*
X153947500Y-92018000D01*
X153945500Y-92020000D01*
X153944500Y-92022000D01*
X153942500Y-92024000D01*
X153941500Y-92026000D01*
X153939500Y-92028000D01*
X153937500Y-92030000D01*
X153935500Y-92032000D01*
X153933500Y-92034000D01*
X153931500Y-92035000D01*
X153929500Y-92037000D01*
X153927500Y-92038000D01*
X153925500Y-92040000D01*
X153922500Y-92041000D01*
X153920500Y-92042000D01*
X153917500Y-92043000D01*
X153915500Y-92043000D01*
X153912500Y-92044000D01*
X153910500Y-92044000D01*
X153907500Y-92045000D01*
X153905500Y-92045000D01*
X153902500Y-92045000D01*
X153297500Y-92045000D01*
X153294500Y-92045000D01*
X153292500Y-92045000D01*
X153289500Y-92044000D01*
X153287500Y-92044000D01*
X153284500Y-92043000D01*
X153282500Y-92043000D01*
X153279500Y-92042000D01*
X153277500Y-92041000D01*
X153274500Y-92040000D01*
X153272500Y-92038000D01*
X153270500Y-92037000D01*
X153268500Y-92035000D01*
X153266500Y-92034000D01*
X153264500Y-92032000D01*
X153262500Y-92030000D01*
X153260500Y-92028000D01*
X153258500Y-92026000D01*
X153257500Y-92024000D01*
X153255500Y-92022000D01*
X153254500Y-92020000D01*
X153252500Y-92018000D01*
X153251500Y-92015000D01*
X153250500Y-92013000D01*
X153249500Y-92010000D01*
X153249500Y-92008000D01*
X153248500Y-92005000D01*
X153248500Y-92003000D01*
X153247500Y-92000000D01*
X153247500Y-91998000D01*
X153247500Y-91995000D01*
X153247500Y-91755000D01*
X153247500Y-91752000D01*
X153247500Y-91750000D01*
X153248500Y-91747000D01*
X153248500Y-91745000D01*
X153249500Y-91742000D01*
X153249500Y-91740000D01*
X153250500Y-91737000D01*
X153251500Y-91735000D01*
X153252500Y-91732000D01*
X153254500Y-91730000D01*
X153255500Y-91728000D01*
X153257500Y-91726000D01*
X153258500Y-91724000D01*
X153260500Y-91722000D01*
X153262500Y-91720000D01*
X153264500Y-91718000D01*
X153266500Y-91716000D01*
X153268500Y-91715000D01*
X153270500Y-91713000D01*
X153272500Y-91712000D01*
X153274500Y-91710000D01*
X153277500Y-91709000D01*
X153279500Y-91708000D01*
X153282500Y-91707000D01*
X153284500Y-91707000D01*
X153287500Y-91706000D01*
X153289500Y-91706000D01*
X153292500Y-91705000D01*
X153294500Y-91705000D01*
X153297500Y-91705000D01*
X153902500Y-91705000D01*
X153905500Y-91705000D01*
X153907500Y-91705000D01*
X153910500Y-91706000D01*
G36*
X153910500Y-91706000D02*
G01*
X153912500Y-91706000D01*
X153915500Y-91707000D01*
X153917500Y-91707000D01*
X153920500Y-91708000D01*
X153922500Y-91709000D01*
X153925500Y-91710000D01*
X153927500Y-91712000D01*
X153929500Y-91713000D01*
X153931500Y-91715000D01*
X153933500Y-91716000D01*
X153935500Y-91718000D01*
X153937500Y-91720000D01*
X153939500Y-91722000D01*
X153941500Y-91724000D01*
X153942500Y-91726000D01*
X153944500Y-91728000D01*
X153945500Y-91730000D01*
X153947500Y-91732000D01*
X153948500Y-91735000D01*
X153949500Y-91737000D01*
X153950500Y-91740000D01*
X153950500Y-91742000D01*
X153951500Y-91745000D01*
X153951500Y-91747000D01*
X153952500Y-91750000D01*
X153952500Y-91752000D01*
X153952500Y-91755000D01*
X153952500Y-91995000D01*
X153952500Y-91998000D01*
X153952500Y-92000000D01*
X153951500Y-92003000D01*
X153951500Y-92005000D01*
X153950500Y-92008000D01*
X153950500Y-92010000D01*
X153949500Y-92013000D01*
X153948500Y-92015000D01*
X153947500Y-92018000D01*
X153945500Y-92020000D01*
X153944500Y-92022000D01*
X153942500Y-92024000D01*
X153941500Y-92026000D01*
X153939500Y-92028000D01*
X153937500Y-92030000D01*
X153935500Y-92032000D01*
X153933500Y-92034000D01*
X153931500Y-92035000D01*
X153929500Y-92037000D01*
X153927500Y-92038000D01*
X153925500Y-92040000D01*
X153922500Y-92041000D01*
X153920500Y-92042000D01*
X153917500Y-92043000D01*
X153915500Y-92043000D01*
X153912500Y-92044000D01*
X153910500Y-92044000D01*
X153907500Y-92045000D01*
X153905500Y-92045000D01*
X153902500Y-92045000D01*
X153297500Y-92045000D01*
X153294500Y-92045000D01*
X153292500Y-92045000D01*
X153289500Y-92044000D01*
X153287500Y-92044000D01*
X153284500Y-92043000D01*
X153282500Y-92043000D01*
X153279500Y-92042000D01*
X153277500Y-92041000D01*
X153274500Y-92040000D01*
X153272500Y-92038000D01*
X153270500Y-92037000D01*
X153268500Y-92035000D01*
X153266500Y-92034000D01*
X153264500Y-92032000D01*
X153262500Y-92030000D01*
X153260500Y-92028000D01*
X153258500Y-92026000D01*
X153257500Y-92024000D01*
X153255500Y-92022000D01*
X153254500Y-92020000D01*
X153252500Y-92018000D01*
X153251500Y-92015000D01*
X153250500Y-92013000D01*
X153249500Y-92010000D01*
X153249500Y-92008000D01*
X153248500Y-92005000D01*
X153248500Y-92003000D01*
X153247500Y-92000000D01*
X153247500Y-91998000D01*
X153247500Y-91995000D01*
X153247500Y-91755000D01*
X153247500Y-91752000D01*
X153247500Y-91750000D01*
X153248500Y-91747000D01*
X153248500Y-91745000D01*
X153249500Y-91742000D01*
X153249500Y-91740000D01*
X153250500Y-91737000D01*
X153251500Y-91735000D01*
X153252500Y-91732000D01*
X153254500Y-91730000D01*
X153255500Y-91728000D01*
X153257500Y-91726000D01*
X153258500Y-91724000D01*
X153260500Y-91722000D01*
X153262500Y-91720000D01*
X153264500Y-91718000D01*
X153266500Y-91716000D01*
X153268500Y-91715000D01*
X153270500Y-91713000D01*
X153272500Y-91712000D01*
X153274500Y-91710000D01*
X153277500Y-91709000D01*
X153279500Y-91708000D01*
X153282500Y-91707000D01*
X153284500Y-91707000D01*
X153287500Y-91706000D01*
X153289500Y-91706000D01*
X153292500Y-91705000D01*
X153294500Y-91705000D01*
X153297500Y-91705000D01*
X153902500Y-91705000D01*
X153905500Y-91705000D01*
X153907500Y-91705000D01*
X153910500Y-91706000D01*
G37*
X153910500Y-92706000D02*
X153912500Y-92706000D01*
X153915500Y-92707000D01*
X153917500Y-92707000D01*
X153920500Y-92708000D01*
X153922500Y-92709000D01*
X153925500Y-92710000D01*
X153927500Y-92712000D01*
X153929500Y-92713000D01*
X153931500Y-92715000D01*
X153933500Y-92716000D01*
X153935500Y-92718000D01*
X153937500Y-92720000D01*
X153939500Y-92722000D01*
X153941500Y-92724000D01*
X153942500Y-92726000D01*
X153944500Y-92728000D01*
X153945500Y-92730000D01*
X153947500Y-92732000D01*
X153948500Y-92735000D01*
X153949500Y-92737000D01*
X153950500Y-92740000D01*
X153950500Y-92742000D01*
X153951500Y-92745000D01*
X153951500Y-92747000D01*
X153952500Y-92750000D01*
X153952500Y-92752000D01*
X153952500Y-92755000D01*
X153952500Y-92995000D01*
X153952500Y-92998000D01*
X153952500Y-93000000D01*
X153951500Y-93003000D01*
X153951500Y-93005000D01*
X153950500Y-93008000D01*
X153950500Y-93010000D01*
X153949500Y-93013000D01*
X153948500Y-93015000D01*
X153947500Y-93018000D01*
X153945500Y-93020000D01*
X153944500Y-93022000D01*
X153942500Y-93024000D01*
X153941500Y-93026000D01*
X153939500Y-93028000D01*
X153937500Y-93030000D01*
X153935500Y-93032000D01*
X153933500Y-93034000D01*
X153931500Y-93035000D01*
X153929500Y-93037000D01*
X153927500Y-93038000D01*
X153925500Y-93040000D01*
X153922500Y-93041000D01*
X153920500Y-93042000D01*
X153917500Y-93043000D01*
X153915500Y-93043000D01*
X153912500Y-93044000D01*
X153910500Y-93044000D01*
X153907500Y-93045000D01*
X153905500Y-93045000D01*
X153902500Y-93045000D01*
X153297500Y-93045000D01*
X153294500Y-93045000D01*
X153292500Y-93045000D01*
X153289500Y-93044000D01*
X153287500Y-93044000D01*
X153284500Y-93043000D01*
X153282500Y-93043000D01*
X153279500Y-93042000D01*
X153277500Y-93041000D01*
X153274500Y-93040000D01*
X153272500Y-93038000D01*
X153270500Y-93037000D01*
X153268500Y-93035000D01*
X153266500Y-93034000D01*
X153264500Y-93032000D01*
X153262500Y-93030000D01*
X153260500Y-93028000D01*
X153258500Y-93026000D01*
X153257500Y-93024000D01*
X153255500Y-93022000D01*
X153254500Y-93020000D01*
X153252500Y-93018000D01*
X153251500Y-93015000D01*
X153250500Y-93013000D01*
X153249500Y-93010000D01*
X153249500Y-93008000D01*
X153248500Y-93005000D01*
X153248500Y-93003000D01*
X153247500Y-93000000D01*
X153247500Y-92998000D01*
X153247500Y-92995000D01*
X153247500Y-92755000D01*
X153247500Y-92752000D01*
X153247500Y-92750000D01*
X153248500Y-92747000D01*
X153248500Y-92745000D01*
X153249500Y-92742000D01*
X153249500Y-92740000D01*
X153250500Y-92737000D01*
X153251500Y-92735000D01*
X153252500Y-92732000D01*
X153254500Y-92730000D01*
X153255500Y-92728000D01*
X153257500Y-92726000D01*
X153258500Y-92724000D01*
X153260500Y-92722000D01*
X153262500Y-92720000D01*
X153264500Y-92718000D01*
X153266500Y-92716000D01*
X153268500Y-92715000D01*
X153270500Y-92713000D01*
X153272500Y-92712000D01*
X153274500Y-92710000D01*
X153277500Y-92709000D01*
X153279500Y-92708000D01*
X153282500Y-92707000D01*
X153284500Y-92707000D01*
X153287500Y-92706000D01*
X153289500Y-92706000D01*
X153292500Y-92705000D01*
X153294500Y-92705000D01*
X153297500Y-92705000D01*
X153902500Y-92705000D01*
X153905500Y-92705000D01*
X153907500Y-92705000D01*
X153910500Y-92706000D01*
G36*
X153910500Y-92706000D02*
G01*
X153912500Y-92706000D01*
X153915500Y-92707000D01*
X153917500Y-92707000D01*
X153920500Y-92708000D01*
X153922500Y-92709000D01*
X153925500Y-92710000D01*
X153927500Y-92712000D01*
X153929500Y-92713000D01*
X153931500Y-92715000D01*
X153933500Y-92716000D01*
X153935500Y-92718000D01*
X153937500Y-92720000D01*
X153939500Y-92722000D01*
X153941500Y-92724000D01*
X153942500Y-92726000D01*
X153944500Y-92728000D01*
X153945500Y-92730000D01*
X153947500Y-92732000D01*
X153948500Y-92735000D01*
X153949500Y-92737000D01*
X153950500Y-92740000D01*
X153950500Y-92742000D01*
X153951500Y-92745000D01*
X153951500Y-92747000D01*
X153952500Y-92750000D01*
X153952500Y-92752000D01*
X153952500Y-92755000D01*
X153952500Y-92995000D01*
X153952500Y-92998000D01*
X153952500Y-93000000D01*
X153951500Y-93003000D01*
X153951500Y-93005000D01*
X153950500Y-93008000D01*
X153950500Y-93010000D01*
X153949500Y-93013000D01*
X153948500Y-93015000D01*
X153947500Y-93018000D01*
X153945500Y-93020000D01*
X153944500Y-93022000D01*
X153942500Y-93024000D01*
X153941500Y-93026000D01*
X153939500Y-93028000D01*
X153937500Y-93030000D01*
X153935500Y-93032000D01*
X153933500Y-93034000D01*
X153931500Y-93035000D01*
X153929500Y-93037000D01*
X153927500Y-93038000D01*
X153925500Y-93040000D01*
X153922500Y-93041000D01*
X153920500Y-93042000D01*
X153917500Y-93043000D01*
X153915500Y-93043000D01*
X153912500Y-93044000D01*
X153910500Y-93044000D01*
X153907500Y-93045000D01*
X153905500Y-93045000D01*
X153902500Y-93045000D01*
X153297500Y-93045000D01*
X153294500Y-93045000D01*
X153292500Y-93045000D01*
X153289500Y-93044000D01*
X153287500Y-93044000D01*
X153284500Y-93043000D01*
X153282500Y-93043000D01*
X153279500Y-93042000D01*
X153277500Y-93041000D01*
X153274500Y-93040000D01*
X153272500Y-93038000D01*
X153270500Y-93037000D01*
X153268500Y-93035000D01*
X153266500Y-93034000D01*
X153264500Y-93032000D01*
X153262500Y-93030000D01*
X153260500Y-93028000D01*
X153258500Y-93026000D01*
X153257500Y-93024000D01*
X153255500Y-93022000D01*
X153254500Y-93020000D01*
X153252500Y-93018000D01*
X153251500Y-93015000D01*
X153250500Y-93013000D01*
X153249500Y-93010000D01*
X153249500Y-93008000D01*
X153248500Y-93005000D01*
X153248500Y-93003000D01*
X153247500Y-93000000D01*
X153247500Y-92998000D01*
X153247500Y-92995000D01*
X153247500Y-92755000D01*
X153247500Y-92752000D01*
X153247500Y-92750000D01*
X153248500Y-92747000D01*
X153248500Y-92745000D01*
X153249500Y-92742000D01*
X153249500Y-92740000D01*
X153250500Y-92737000D01*
X153251500Y-92735000D01*
X153252500Y-92732000D01*
X153254500Y-92730000D01*
X153255500Y-92728000D01*
X153257500Y-92726000D01*
X153258500Y-92724000D01*
X153260500Y-92722000D01*
X153262500Y-92720000D01*
X153264500Y-92718000D01*
X153266500Y-92716000D01*
X153268500Y-92715000D01*
X153270500Y-92713000D01*
X153272500Y-92712000D01*
X153274500Y-92710000D01*
X153277500Y-92709000D01*
X153279500Y-92708000D01*
X153282500Y-92707000D01*
X153284500Y-92707000D01*
X153287500Y-92706000D01*
X153289500Y-92706000D01*
X153292500Y-92705000D01*
X153294500Y-92705000D01*
X153297500Y-92705000D01*
X153902500Y-92705000D01*
X153905500Y-92705000D01*
X153907500Y-92705000D01*
X153910500Y-92706000D01*
G37*
X153910500Y-92106000D02*
X153912500Y-92106000D01*
X153915500Y-92107000D01*
X153917500Y-92107000D01*
X153920500Y-92108000D01*
X153922500Y-92109000D01*
X153925500Y-92110000D01*
X153927500Y-92112000D01*
X153929500Y-92113000D01*
X153931500Y-92115000D01*
X153933500Y-92116000D01*
X153935500Y-92118000D01*
X153937500Y-92120000D01*
X153939500Y-92122000D01*
X153941500Y-92124000D01*
X153942500Y-92126000D01*
X153944500Y-92128000D01*
X153945500Y-92130000D01*
X153947500Y-92132000D01*
X153948500Y-92135000D01*
X153949500Y-92137000D01*
X153950500Y-92140000D01*
X153950500Y-92142000D01*
X153951500Y-92145000D01*
X153951500Y-92147000D01*
X153952500Y-92150000D01*
X153952500Y-92152000D01*
X153952500Y-92155000D01*
X153952500Y-92595000D01*
X153952500Y-92598000D01*
X153952500Y-92600000D01*
X153951500Y-92603000D01*
X153951500Y-92605000D01*
X153950500Y-92608000D01*
X153950500Y-92610000D01*
X153949500Y-92613000D01*
X153948500Y-92615000D01*
X153947500Y-92618000D01*
X153945500Y-92620000D01*
X153944500Y-92622000D01*
X153942500Y-92624000D01*
X153941500Y-92626000D01*
X153939500Y-92628000D01*
X153937500Y-92630000D01*
X153935500Y-92632000D01*
X153933500Y-92634000D01*
X153931500Y-92635000D01*
X153929500Y-92637000D01*
X153927500Y-92638000D01*
X153925500Y-92640000D01*
X153922500Y-92641000D01*
X153920500Y-92642000D01*
X153917500Y-92643000D01*
X153915500Y-92643000D01*
X153912500Y-92644000D01*
X153910500Y-92644000D01*
X153907500Y-92645000D01*
X153905500Y-92645000D01*
X153902500Y-92645000D01*
X153297500Y-92645000D01*
X153294500Y-92645000D01*
X153292500Y-92645000D01*
X153289500Y-92644000D01*
X153287500Y-92644000D01*
X153284500Y-92643000D01*
X153282500Y-92643000D01*
X153279500Y-92642000D01*
X153277500Y-92641000D01*
X153274500Y-92640000D01*
X153272500Y-92638000D01*
X153270500Y-92637000D01*
X153268500Y-92635000D01*
X153266500Y-92634000D01*
X153264500Y-92632000D01*
X153262500Y-92630000D01*
X153260500Y-92628000D01*
X153258500Y-92626000D01*
X153257500Y-92624000D01*
X153255500Y-92622000D01*
X153254500Y-92620000D01*
X153252500Y-92618000D01*
X153251500Y-92615000D01*
X153250500Y-92613000D01*
X153249500Y-92610000D01*
X153249500Y-92608000D01*
X153248500Y-92605000D01*
X153248500Y-92603000D01*
X153247500Y-92600000D01*
X153247500Y-92598000D01*
X153247500Y-92595000D01*
X153247500Y-92155000D01*
X153247500Y-92152000D01*
X153247500Y-92150000D01*
X153248500Y-92147000D01*
X153248500Y-92145000D01*
X153249500Y-92142000D01*
X153249500Y-92140000D01*
X153250500Y-92137000D01*
X153251500Y-92135000D01*
X153252500Y-92132000D01*
X153254500Y-92130000D01*
X153255500Y-92128000D01*
X153257500Y-92126000D01*
X153258500Y-92124000D01*
X153260500Y-92122000D01*
X153262500Y-92120000D01*
X153264500Y-92118000D01*
X153266500Y-92116000D01*
X153268500Y-92115000D01*
X153270500Y-92113000D01*
X153272500Y-92112000D01*
X153274500Y-92110000D01*
X153277500Y-92109000D01*
X153279500Y-92108000D01*
X153282500Y-92107000D01*
X153284500Y-92107000D01*
X153287500Y-92106000D01*
X153289500Y-92106000D01*
X153292500Y-92105000D01*
X153294500Y-92105000D01*
X153297500Y-92105000D01*
X153902500Y-92105000D01*
X153905500Y-92105000D01*
X153907500Y-92105000D01*
X153910500Y-92106000D01*
G36*
X153910500Y-92106000D02*
G01*
X153912500Y-92106000D01*
X153915500Y-92107000D01*
X153917500Y-92107000D01*
X153920500Y-92108000D01*
X153922500Y-92109000D01*
X153925500Y-92110000D01*
X153927500Y-92112000D01*
X153929500Y-92113000D01*
X153931500Y-92115000D01*
X153933500Y-92116000D01*
X153935500Y-92118000D01*
X153937500Y-92120000D01*
X153939500Y-92122000D01*
X153941500Y-92124000D01*
X153942500Y-92126000D01*
X153944500Y-92128000D01*
X153945500Y-92130000D01*
X153947500Y-92132000D01*
X153948500Y-92135000D01*
X153949500Y-92137000D01*
X153950500Y-92140000D01*
X153950500Y-92142000D01*
X153951500Y-92145000D01*
X153951500Y-92147000D01*
X153952500Y-92150000D01*
X153952500Y-92152000D01*
X153952500Y-92155000D01*
X153952500Y-92595000D01*
X153952500Y-92598000D01*
X153952500Y-92600000D01*
X153951500Y-92603000D01*
X153951500Y-92605000D01*
X153950500Y-92608000D01*
X153950500Y-92610000D01*
X153949500Y-92613000D01*
X153948500Y-92615000D01*
X153947500Y-92618000D01*
X153945500Y-92620000D01*
X153944500Y-92622000D01*
X153942500Y-92624000D01*
X153941500Y-92626000D01*
X153939500Y-92628000D01*
X153937500Y-92630000D01*
X153935500Y-92632000D01*
X153933500Y-92634000D01*
X153931500Y-92635000D01*
X153929500Y-92637000D01*
X153927500Y-92638000D01*
X153925500Y-92640000D01*
X153922500Y-92641000D01*
X153920500Y-92642000D01*
X153917500Y-92643000D01*
X153915500Y-92643000D01*
X153912500Y-92644000D01*
X153910500Y-92644000D01*
X153907500Y-92645000D01*
X153905500Y-92645000D01*
X153902500Y-92645000D01*
X153297500Y-92645000D01*
X153294500Y-92645000D01*
X153292500Y-92645000D01*
X153289500Y-92644000D01*
X153287500Y-92644000D01*
X153284500Y-92643000D01*
X153282500Y-92643000D01*
X153279500Y-92642000D01*
X153277500Y-92641000D01*
X153274500Y-92640000D01*
X153272500Y-92638000D01*
X153270500Y-92637000D01*
X153268500Y-92635000D01*
X153266500Y-92634000D01*
X153264500Y-92632000D01*
X153262500Y-92630000D01*
X153260500Y-92628000D01*
X153258500Y-92626000D01*
X153257500Y-92624000D01*
X153255500Y-92622000D01*
X153254500Y-92620000D01*
X153252500Y-92618000D01*
X153251500Y-92615000D01*
X153250500Y-92613000D01*
X153249500Y-92610000D01*
X153249500Y-92608000D01*
X153248500Y-92605000D01*
X153248500Y-92603000D01*
X153247500Y-92600000D01*
X153247500Y-92598000D01*
X153247500Y-92595000D01*
X153247500Y-92155000D01*
X153247500Y-92152000D01*
X153247500Y-92150000D01*
X153248500Y-92147000D01*
X153248500Y-92145000D01*
X153249500Y-92142000D01*
X153249500Y-92140000D01*
X153250500Y-92137000D01*
X153251500Y-92135000D01*
X153252500Y-92132000D01*
X153254500Y-92130000D01*
X153255500Y-92128000D01*
X153257500Y-92126000D01*
X153258500Y-92124000D01*
X153260500Y-92122000D01*
X153262500Y-92120000D01*
X153264500Y-92118000D01*
X153266500Y-92116000D01*
X153268500Y-92115000D01*
X153270500Y-92113000D01*
X153272500Y-92112000D01*
X153274500Y-92110000D01*
X153277500Y-92109000D01*
X153279500Y-92108000D01*
X153282500Y-92107000D01*
X153284500Y-92107000D01*
X153287500Y-92106000D01*
X153289500Y-92106000D01*
X153292500Y-92105000D01*
X153294500Y-92105000D01*
X153297500Y-92105000D01*
X153902500Y-92105000D01*
X153905500Y-92105000D01*
X153907500Y-92105000D01*
X153910500Y-92106000D01*
G37*
X153910500Y-93206000D02*
X153912500Y-93206000D01*
X153915500Y-93207000D01*
X153917500Y-93207000D01*
X153920500Y-93208000D01*
X153922500Y-93209000D01*
X153925500Y-93210000D01*
X153927500Y-93212000D01*
X153929500Y-93213000D01*
X153931500Y-93215000D01*
X153933500Y-93216000D01*
X153935500Y-93218000D01*
X153937500Y-93220000D01*
X153939500Y-93222000D01*
X153941500Y-93224000D01*
X153942500Y-93226000D01*
X153944500Y-93228000D01*
X153945500Y-93230000D01*
X153947500Y-93232000D01*
X153948500Y-93235000D01*
X153949500Y-93237000D01*
X153950500Y-93240000D01*
X153950500Y-93242000D01*
X153951500Y-93245000D01*
X153951500Y-93247000D01*
X153952500Y-93250000D01*
X153952500Y-93252000D01*
X153952500Y-93255000D01*
X153952500Y-93495000D01*
X153952500Y-93498000D01*
X153952500Y-93500000D01*
X153951500Y-93503000D01*
X153951500Y-93505000D01*
X153950500Y-93508000D01*
X153950500Y-93510000D01*
X153949500Y-93513000D01*
X153948500Y-93515000D01*
X153947500Y-93518000D01*
X153945500Y-93520000D01*
X153944500Y-93522000D01*
X153942500Y-93524000D01*
X153941500Y-93526000D01*
X153939500Y-93528000D01*
X153937500Y-93530000D01*
X153935500Y-93532000D01*
X153933500Y-93534000D01*
X153931500Y-93535000D01*
X153929500Y-93537000D01*
X153927500Y-93538000D01*
X153925500Y-93540000D01*
X153922500Y-93541000D01*
X153920500Y-93542000D01*
X153917500Y-93543000D01*
X153915500Y-93543000D01*
X153912500Y-93544000D01*
X153910500Y-93544000D01*
X153907500Y-93545000D01*
X153905500Y-93545000D01*
X153902500Y-93545000D01*
X153297500Y-93545000D01*
X153294500Y-93545000D01*
X153292500Y-93545000D01*
X153289500Y-93544000D01*
X153287500Y-93544000D01*
X153284500Y-93543000D01*
X153282500Y-93543000D01*
X153279500Y-93542000D01*
X153277500Y-93541000D01*
X153274500Y-93540000D01*
X153272500Y-93538000D01*
X153270500Y-93537000D01*
X153268500Y-93535000D01*
X153266500Y-93534000D01*
X153264500Y-93532000D01*
X153262500Y-93530000D01*
X153260500Y-93528000D01*
X153258500Y-93526000D01*
X153257500Y-93524000D01*
X153255500Y-93522000D01*
X153254500Y-93520000D01*
X153252500Y-93518000D01*
X153251500Y-93515000D01*
X153250500Y-93513000D01*
X153249500Y-93510000D01*
X153249500Y-93508000D01*
X153248500Y-93505000D01*
X153248500Y-93503000D01*
X153247500Y-93500000D01*
X153247500Y-93498000D01*
X153247500Y-93495000D01*
X153247500Y-93255000D01*
X153247500Y-93252000D01*
X153247500Y-93250000D01*
X153248500Y-93247000D01*
X153248500Y-93245000D01*
X153249500Y-93242000D01*
X153249500Y-93240000D01*
X153250500Y-93237000D01*
X153251500Y-93235000D01*
X153252500Y-93232000D01*
X153254500Y-93230000D01*
X153255500Y-93228000D01*
X153257500Y-93226000D01*
X153258500Y-93224000D01*
X153260500Y-93222000D01*
X153262500Y-93220000D01*
X153264500Y-93218000D01*
X153266500Y-93216000D01*
X153268500Y-93215000D01*
X153270500Y-93213000D01*
X153272500Y-93212000D01*
X153274500Y-93210000D01*
X153277500Y-93209000D01*
X153279500Y-93208000D01*
X153282500Y-93207000D01*
X153284500Y-93207000D01*
X153287500Y-93206000D01*
X153289500Y-93206000D01*
X153292500Y-93205000D01*
X153294500Y-93205000D01*
X153297500Y-93205000D01*
X153902500Y-93205000D01*
X153905500Y-93205000D01*
X153907500Y-93205000D01*
X153910500Y-93206000D01*
G36*
X153910500Y-93206000D02*
G01*
X153912500Y-93206000D01*
X153915500Y-93207000D01*
X153917500Y-93207000D01*
X153920500Y-93208000D01*
X153922500Y-93209000D01*
X153925500Y-93210000D01*
X153927500Y-93212000D01*
X153929500Y-93213000D01*
X153931500Y-93215000D01*
X153933500Y-93216000D01*
X153935500Y-93218000D01*
X153937500Y-93220000D01*
X153939500Y-93222000D01*
X153941500Y-93224000D01*
X153942500Y-93226000D01*
X153944500Y-93228000D01*
X153945500Y-93230000D01*
X153947500Y-93232000D01*
X153948500Y-93235000D01*
X153949500Y-93237000D01*
X153950500Y-93240000D01*
X153950500Y-93242000D01*
X153951500Y-93245000D01*
X153951500Y-93247000D01*
X153952500Y-93250000D01*
X153952500Y-93252000D01*
X153952500Y-93255000D01*
X153952500Y-93495000D01*
X153952500Y-93498000D01*
X153952500Y-93500000D01*
X153951500Y-93503000D01*
X153951500Y-93505000D01*
X153950500Y-93508000D01*
X153950500Y-93510000D01*
X153949500Y-93513000D01*
X153948500Y-93515000D01*
X153947500Y-93518000D01*
X153945500Y-93520000D01*
X153944500Y-93522000D01*
X153942500Y-93524000D01*
X153941500Y-93526000D01*
X153939500Y-93528000D01*
X153937500Y-93530000D01*
X153935500Y-93532000D01*
X153933500Y-93534000D01*
X153931500Y-93535000D01*
X153929500Y-93537000D01*
X153927500Y-93538000D01*
X153925500Y-93540000D01*
X153922500Y-93541000D01*
X153920500Y-93542000D01*
X153917500Y-93543000D01*
X153915500Y-93543000D01*
X153912500Y-93544000D01*
X153910500Y-93544000D01*
X153907500Y-93545000D01*
X153905500Y-93545000D01*
X153902500Y-93545000D01*
X153297500Y-93545000D01*
X153294500Y-93545000D01*
X153292500Y-93545000D01*
X153289500Y-93544000D01*
X153287500Y-93544000D01*
X153284500Y-93543000D01*
X153282500Y-93543000D01*
X153279500Y-93542000D01*
X153277500Y-93541000D01*
X153274500Y-93540000D01*
X153272500Y-93538000D01*
X153270500Y-93537000D01*
X153268500Y-93535000D01*
X153266500Y-93534000D01*
X153264500Y-93532000D01*
X153262500Y-93530000D01*
X153260500Y-93528000D01*
X153258500Y-93526000D01*
X153257500Y-93524000D01*
X153255500Y-93522000D01*
X153254500Y-93520000D01*
X153252500Y-93518000D01*
X153251500Y-93515000D01*
X153250500Y-93513000D01*
X153249500Y-93510000D01*
X153249500Y-93508000D01*
X153248500Y-93505000D01*
X153248500Y-93503000D01*
X153247500Y-93500000D01*
X153247500Y-93498000D01*
X153247500Y-93495000D01*
X153247500Y-93255000D01*
X153247500Y-93252000D01*
X153247500Y-93250000D01*
X153248500Y-93247000D01*
X153248500Y-93245000D01*
X153249500Y-93242000D01*
X153249500Y-93240000D01*
X153250500Y-93237000D01*
X153251500Y-93235000D01*
X153252500Y-93232000D01*
X153254500Y-93230000D01*
X153255500Y-93228000D01*
X153257500Y-93226000D01*
X153258500Y-93224000D01*
X153260500Y-93222000D01*
X153262500Y-93220000D01*
X153264500Y-93218000D01*
X153266500Y-93216000D01*
X153268500Y-93215000D01*
X153270500Y-93213000D01*
X153272500Y-93212000D01*
X153274500Y-93210000D01*
X153277500Y-93209000D01*
X153279500Y-93208000D01*
X153282500Y-93207000D01*
X153284500Y-93207000D01*
X153287500Y-93206000D01*
X153289500Y-93206000D01*
X153292500Y-93205000D01*
X153294500Y-93205000D01*
X153297500Y-93205000D01*
X153902500Y-93205000D01*
X153905500Y-93205000D01*
X153907500Y-93205000D01*
X153910500Y-93206000D01*
G37*
X153910500Y-91206000D02*
X153912500Y-91206000D01*
X153915500Y-91207000D01*
X153917500Y-91207000D01*
X153920500Y-91208000D01*
X153922500Y-91209000D01*
X153925500Y-91210000D01*
X153927500Y-91212000D01*
X153929500Y-91213000D01*
X153931500Y-91215000D01*
X153933500Y-91216000D01*
X153935500Y-91218000D01*
X153937500Y-91220000D01*
X153939500Y-91222000D01*
X153941500Y-91224000D01*
X153942500Y-91226000D01*
X153944500Y-91228000D01*
X153945500Y-91230000D01*
X153947500Y-91232000D01*
X153948500Y-91235000D01*
X153949500Y-91237000D01*
X153950500Y-91240000D01*
X153950500Y-91242000D01*
X153951500Y-91245000D01*
X153951500Y-91247000D01*
X153952500Y-91250000D01*
X153952500Y-91252000D01*
X153952500Y-91255000D01*
X153952500Y-91495000D01*
X153952500Y-91498000D01*
X153952500Y-91500000D01*
X153951500Y-91503000D01*
X153951500Y-91505000D01*
X153950500Y-91508000D01*
X153950500Y-91510000D01*
X153949500Y-91513000D01*
X153948500Y-91515000D01*
X153947500Y-91518000D01*
X153945500Y-91520000D01*
X153944500Y-91522000D01*
X153942500Y-91524000D01*
X153941500Y-91526000D01*
X153939500Y-91528000D01*
X153937500Y-91530000D01*
X153935500Y-91532000D01*
X153933500Y-91534000D01*
X153931500Y-91535000D01*
X153929500Y-91537000D01*
X153927500Y-91538000D01*
X153925500Y-91540000D01*
X153922500Y-91541000D01*
X153920500Y-91542000D01*
X153917500Y-91543000D01*
X153915500Y-91543000D01*
X153912500Y-91544000D01*
X153910500Y-91544000D01*
X153907500Y-91545000D01*
X153905500Y-91545000D01*
X153902500Y-91545000D01*
X153297500Y-91545000D01*
X153294500Y-91545000D01*
X153292500Y-91545000D01*
X153289500Y-91544000D01*
X153287500Y-91544000D01*
X153284500Y-91543000D01*
X153282500Y-91543000D01*
X153279500Y-91542000D01*
X153277500Y-91541000D01*
X153274500Y-91540000D01*
X153272500Y-91538000D01*
X153270500Y-91537000D01*
X153268500Y-91535000D01*
X153266500Y-91534000D01*
X153264500Y-91532000D01*
X153262500Y-91530000D01*
X153260500Y-91528000D01*
X153258500Y-91526000D01*
X153257500Y-91524000D01*
X153255500Y-91522000D01*
X153254500Y-91520000D01*
X153252500Y-91518000D01*
X153251500Y-91515000D01*
X153250500Y-91513000D01*
X153249500Y-91510000D01*
X153249500Y-91508000D01*
X153248500Y-91505000D01*
X153248500Y-91503000D01*
X153247500Y-91500000D01*
X153247500Y-91498000D01*
X153247500Y-91495000D01*
X153247500Y-91255000D01*
X153247500Y-91252000D01*
X153247500Y-91250000D01*
X153248500Y-91247000D01*
X153248500Y-91245000D01*
X153249500Y-91242000D01*
X153249500Y-91240000D01*
X153250500Y-91237000D01*
X153251500Y-91235000D01*
X153252500Y-91232000D01*
X153254500Y-91230000D01*
X153255500Y-91228000D01*
X153257500Y-91226000D01*
X153258500Y-91224000D01*
X153260500Y-91222000D01*
X153262500Y-91220000D01*
X153264500Y-91218000D01*
X153266500Y-91216000D01*
X153268500Y-91215000D01*
X153270500Y-91213000D01*
X153272500Y-91212000D01*
X153274500Y-91210000D01*
X153277500Y-91209000D01*
X153279500Y-91208000D01*
X153282500Y-91207000D01*
X153284500Y-91207000D01*
X153287500Y-91206000D01*
X153289500Y-91206000D01*
X153292500Y-91205000D01*
X153294500Y-91205000D01*
X153297500Y-91205000D01*
X153902500Y-91205000D01*
X153905500Y-91205000D01*
X153907500Y-91205000D01*
X153910500Y-91206000D01*
G36*
X153910500Y-91206000D02*
G01*
X153912500Y-91206000D01*
X153915500Y-91207000D01*
X153917500Y-91207000D01*
X153920500Y-91208000D01*
X153922500Y-91209000D01*
X153925500Y-91210000D01*
X153927500Y-91212000D01*
X153929500Y-91213000D01*
X153931500Y-91215000D01*
X153933500Y-91216000D01*
X153935500Y-91218000D01*
X153937500Y-91220000D01*
X153939500Y-91222000D01*
X153941500Y-91224000D01*
X153942500Y-91226000D01*
X153944500Y-91228000D01*
X153945500Y-91230000D01*
X153947500Y-91232000D01*
X153948500Y-91235000D01*
X153949500Y-91237000D01*
X153950500Y-91240000D01*
X153950500Y-91242000D01*
X153951500Y-91245000D01*
X153951500Y-91247000D01*
X153952500Y-91250000D01*
X153952500Y-91252000D01*
X153952500Y-91255000D01*
X153952500Y-91495000D01*
X153952500Y-91498000D01*
X153952500Y-91500000D01*
X153951500Y-91503000D01*
X153951500Y-91505000D01*
X153950500Y-91508000D01*
X153950500Y-91510000D01*
X153949500Y-91513000D01*
X153948500Y-91515000D01*
X153947500Y-91518000D01*
X153945500Y-91520000D01*
X153944500Y-91522000D01*
X153942500Y-91524000D01*
X153941500Y-91526000D01*
X153939500Y-91528000D01*
X153937500Y-91530000D01*
X153935500Y-91532000D01*
X153933500Y-91534000D01*
X153931500Y-91535000D01*
X153929500Y-91537000D01*
X153927500Y-91538000D01*
X153925500Y-91540000D01*
X153922500Y-91541000D01*
X153920500Y-91542000D01*
X153917500Y-91543000D01*
X153915500Y-91543000D01*
X153912500Y-91544000D01*
X153910500Y-91544000D01*
X153907500Y-91545000D01*
X153905500Y-91545000D01*
X153902500Y-91545000D01*
X153297500Y-91545000D01*
X153294500Y-91545000D01*
X153292500Y-91545000D01*
X153289500Y-91544000D01*
X153287500Y-91544000D01*
X153284500Y-91543000D01*
X153282500Y-91543000D01*
X153279500Y-91542000D01*
X153277500Y-91541000D01*
X153274500Y-91540000D01*
X153272500Y-91538000D01*
X153270500Y-91537000D01*
X153268500Y-91535000D01*
X153266500Y-91534000D01*
X153264500Y-91532000D01*
X153262500Y-91530000D01*
X153260500Y-91528000D01*
X153258500Y-91526000D01*
X153257500Y-91524000D01*
X153255500Y-91522000D01*
X153254500Y-91520000D01*
X153252500Y-91518000D01*
X153251500Y-91515000D01*
X153250500Y-91513000D01*
X153249500Y-91510000D01*
X153249500Y-91508000D01*
X153248500Y-91505000D01*
X153248500Y-91503000D01*
X153247500Y-91500000D01*
X153247500Y-91498000D01*
X153247500Y-91495000D01*
X153247500Y-91255000D01*
X153247500Y-91252000D01*
X153247500Y-91250000D01*
X153248500Y-91247000D01*
X153248500Y-91245000D01*
X153249500Y-91242000D01*
X153249500Y-91240000D01*
X153250500Y-91237000D01*
X153251500Y-91235000D01*
X153252500Y-91232000D01*
X153254500Y-91230000D01*
X153255500Y-91228000D01*
X153257500Y-91226000D01*
X153258500Y-91224000D01*
X153260500Y-91222000D01*
X153262500Y-91220000D01*
X153264500Y-91218000D01*
X153266500Y-91216000D01*
X153268500Y-91215000D01*
X153270500Y-91213000D01*
X153272500Y-91212000D01*
X153274500Y-91210000D01*
X153277500Y-91209000D01*
X153279500Y-91208000D01*
X153282500Y-91207000D01*
X153284500Y-91207000D01*
X153287500Y-91206000D01*
X153289500Y-91206000D01*
X153292500Y-91205000D01*
X153294500Y-91205000D01*
X153297500Y-91205000D01*
X153902500Y-91205000D01*
X153905500Y-91205000D01*
X153907500Y-91205000D01*
X153910500Y-91206000D01*
G37*
%TO.C,U7*%
X140750000Y-85500000D02*
X141900000Y-85500000D01*
X141900000Y-85550000D01*
X142200000Y-85550000D01*
X142200000Y-86150000D01*
X141900000Y-86150000D01*
X141900000Y-86200000D01*
X142200000Y-86200000D01*
X142200000Y-86800000D01*
X141900000Y-86800000D01*
X141900000Y-86850000D01*
X142200000Y-86850000D01*
X142200000Y-87450000D01*
X141900000Y-87450000D01*
X141900000Y-87500000D01*
X142200000Y-87500000D01*
X142200000Y-88075000D01*
X141900000Y-88075000D01*
X141900000Y-88150000D01*
X140775000Y-88150000D01*
X140775000Y-88525000D01*
X140125000Y-88525000D01*
X140125000Y-88150000D01*
X139725000Y-88150000D01*
X139725000Y-85500000D01*
X140125000Y-85500000D01*
X140125000Y-85125000D01*
X140750000Y-85125000D01*
X140750000Y-85500000D01*
G36*
X140750000Y-85500000D02*
G01*
X141900000Y-85500000D01*
X141900000Y-85550000D01*
X142200000Y-85550000D01*
X142200000Y-86150000D01*
X141900000Y-86150000D01*
X141900000Y-86200000D01*
X142200000Y-86200000D01*
X142200000Y-86800000D01*
X141900000Y-86800000D01*
X141900000Y-86850000D01*
X142200000Y-86850000D01*
X142200000Y-87450000D01*
X141900000Y-87450000D01*
X141900000Y-87500000D01*
X142200000Y-87500000D01*
X142200000Y-88075000D01*
X141900000Y-88075000D01*
X141900000Y-88150000D01*
X140775000Y-88150000D01*
X140775000Y-88525000D01*
X140125000Y-88525000D01*
X140125000Y-88150000D01*
X139725000Y-88150000D01*
X139725000Y-85500000D01*
X140125000Y-85500000D01*
X140125000Y-85125000D01*
X140750000Y-85125000D01*
X140750000Y-85500000D01*
G37*
%TD*%
D12*
%TO.C,SW1*%
X114248047Y-89898148D03*
X109651852Y-85301953D03*
X108661903Y-86291903D03*
X107671953Y-87281852D03*
X112268148Y-91878047D03*
X113258097Y-90888097D03*
D13*
X109616497Y-89933503D03*
D14*
X112303503Y-87246497D03*
D15*
X113795498Y-85754502D03*
X108145715Y-91390143D03*
%TD*%
D16*
%TO.C,R12*%
X110520000Y-94550000D03*
X109500000Y-94550000D03*
%TD*%
%TO.C,R4*%
X126700000Y-92850000D03*
X125680000Y-92850000D03*
%TD*%
D17*
%TO.C,C20*%
X122320000Y-82530000D03*
X122320000Y-83490000D03*
%TD*%
D18*
%TO.C,J7*%
X125215000Y-81260000D03*
D19*
X127755000Y-81260000D03*
X130295000Y-81260000D03*
X132835000Y-81260000D03*
X135375000Y-81260000D03*
%TD*%
D20*
%TO.C,R27*%
X142700000Y-95290000D03*
X142700000Y-96310000D03*
%TD*%
D21*
%TO.C,D6*%
X116075000Y-90950000D03*
X116075000Y-88150000D03*
%TD*%
%TO.C,D5*%
X131800000Y-86975000D03*
X131800000Y-84175000D03*
%TD*%
D22*
%TO.C,D2*%
X134425000Y-96100000D03*
X136175000Y-96100000D03*
%TD*%
D23*
%TO.C,U8*%
X121850000Y-85980000D03*
X122350000Y-85980000D03*
X122850000Y-85980000D03*
X123350000Y-85980000D03*
X123350000Y-84500000D03*
X122850000Y-84500000D03*
X122350000Y-84500000D03*
X121850000Y-84500000D03*
%TD*%
D24*
%TO.C,C10*%
X139700000Y-81225000D03*
X139700000Y-84175000D03*
%TD*%
D25*
%TO.C,J2*%
X103000000Y-84000000D03*
D26*
X103000000Y-86540000D03*
%TD*%
D27*
%TO.C,C19*%
X123000000Y-87990000D03*
X123000000Y-87030000D03*
%TD*%
D28*
%TO.C,C1*%
X106440000Y-92100000D03*
X107400000Y-92100000D03*
%TD*%
D16*
%TO.C,R20*%
X142610000Y-89325000D03*
X141590000Y-89325000D03*
%TD*%
D29*
%TO.C,D7*%
X147050000Y-85500000D03*
X144250000Y-85500000D03*
%TD*%
D30*
%TO.C,L1*%
X145550000Y-82150000D03*
X141850000Y-82150000D03*
%TD*%
D31*
%TO.C,J1*%
X155800000Y-95210000D03*
D32*
X156865000Y-94750000D03*
D31*
X155800000Y-94410000D03*
X155800000Y-93110000D03*
X155800000Y-92110000D03*
X155800000Y-91610000D03*
X155800000Y-90610000D03*
X155800000Y-89310000D03*
D32*
X156865000Y-88970000D03*
D31*
X155800000Y-88510000D03*
X155800000Y-88810000D03*
X155800000Y-89610000D03*
X155800000Y-90110000D03*
X155800000Y-91110000D03*
X155800000Y-92610000D03*
X155800000Y-93610000D03*
X155800000Y-94110000D03*
X155800000Y-94910000D03*
D33*
X156365000Y-96180000D03*
D34*
X160545000Y-96180000D03*
D33*
X156365000Y-87540000D03*
D34*
X160545000Y-87540000D03*
%TD*%
D35*
%TO.C,C24*%
X137360000Y-87135000D03*
X137360000Y-84185000D03*
%TD*%
D36*
%TO.C,R25*%
X137170000Y-94890000D03*
X138190000Y-94890000D03*
%TD*%
D37*
%TO.C,C18*%
X132900000Y-96050000D03*
X132900000Y-94500000D03*
%TD*%
D20*
%TO.C,R34*%
X153800000Y-80680000D03*
X153800000Y-81700000D03*
%TD*%
D17*
%TO.C,C22*%
X124375000Y-90820000D03*
X124375000Y-91780000D03*
%TD*%
D38*
%TO.C,U5*%
X146485000Y-89200000D03*
X146485000Y-88550000D03*
X146485000Y-87900000D03*
X146485000Y-87250000D03*
%TD*%
D39*
%TO.C,J6*%
X105000000Y-91500000D03*
X105000000Y-92500000D03*
X105000000Y-93500000D03*
X105000000Y-94500000D03*
D40*
X101125000Y-90200000D03*
X101125000Y-95800000D03*
%TD*%
D28*
%TO.C,C2*%
X109520000Y-93600000D03*
X110480000Y-93600000D03*
%TD*%
D41*
%TO.C,U6*%
X146700000Y-91110000D03*
X146700000Y-91610000D03*
X146700000Y-92110000D03*
X146700000Y-92610000D03*
X146700000Y-93110000D03*
X146700000Y-93610000D03*
D42*
X147400000Y-94310000D03*
X147900000Y-94310000D03*
X148400000Y-94310000D03*
X148900000Y-94310000D03*
X149400000Y-94310000D03*
X149900000Y-94310000D03*
D41*
X150600000Y-93610000D03*
X150600000Y-93110000D03*
X150600000Y-92610000D03*
X150600000Y-92110000D03*
X150600000Y-91610000D03*
X150600000Y-91110000D03*
D42*
X149900000Y-90410000D03*
X149400000Y-90410000D03*
X148900000Y-90410000D03*
X148400000Y-90410000D03*
X147900000Y-90410000D03*
X147400000Y-90410000D03*
D43*
X148650000Y-92360000D03*
%TD*%
D44*
%TO.C,R18*%
X146978494Y-83620000D03*
X146978494Y-82600000D03*
%TD*%
D36*
%TO.C,R11*%
X113440000Y-96050000D03*
X114460000Y-96050000D03*
%TD*%
D45*
%TO.C,U1*%
X108020000Y-93240000D03*
X108020000Y-93740000D03*
X108020000Y-94240000D03*
X108020000Y-94740000D03*
X108520000Y-94740000D03*
X108520000Y-94240000D03*
X108520000Y-93740000D03*
X108520000Y-93240000D03*
%TD*%
D28*
%TO.C,C21*%
X120760000Y-88965000D03*
X121720000Y-88965000D03*
%TD*%
D20*
%TO.C,R23*%
X125690000Y-90010000D03*
X125690000Y-91030000D03*
%TD*%
D44*
%TO.C,TH1*%
X142825000Y-85925000D03*
X142825000Y-84905000D03*
%TD*%
D18*
%TO.C,J5*%
X118500000Y-92700000D03*
D19*
X118500000Y-90160000D03*
X118500000Y-87620000D03*
X118500000Y-85080000D03*
%TD*%
D36*
%TO.C,R32*%
X113455000Y-95025000D03*
X114475000Y-95025000D03*
%TD*%
D46*
%TO.C,R33*%
X123820000Y-93112500D03*
X123820000Y-96087500D03*
%TD*%
D36*
%TO.C,R21*%
X127590000Y-89600000D03*
X128610000Y-89600000D03*
%TD*%
D35*
%TO.C,C12*%
X135050000Y-87135000D03*
X135050000Y-84185000D03*
%TD*%
D20*
%TO.C,R15*%
X154240000Y-95025000D03*
X154240000Y-96045000D03*
%TD*%
D16*
%TO.C,R24*%
X127560000Y-94890000D03*
X126540000Y-94890000D03*
%TD*%
D44*
%TO.C,R30*%
X124330000Y-90020000D03*
X124330000Y-89000000D03*
%TD*%
D16*
%TO.C,R14*%
X154125000Y-90375000D03*
X153105000Y-90375000D03*
%TD*%
D44*
%TO.C,R22*%
X126660000Y-91030000D03*
X126660000Y-90010000D03*
%TD*%
D16*
%TO.C,R13*%
X137700000Y-90825000D03*
X136680000Y-90825000D03*
%TD*%
D36*
%TO.C,R5*%
X135330000Y-94900000D03*
X136350000Y-94900000D03*
%TD*%
D44*
%TO.C,R26*%
X112425000Y-94635000D03*
X112425000Y-93615000D03*
%TD*%
D47*
%TO.C,U3*%
X125400000Y-87755200D03*
D48*
X126900000Y-87755200D03*
D47*
X128400000Y-87755200D03*
X128400000Y-84250000D03*
X125400000Y-84250000D03*
%TD*%
D18*
%TO.C,J8*%
X107920000Y-81290000D03*
D19*
X110460000Y-81290000D03*
X113000000Y-81290000D03*
X115540000Y-81290000D03*
%TD*%
D49*
%TO.C,C16*%
X131125000Y-88500000D03*
X129575000Y-88500000D03*
%TD*%
D50*
%TO.C,R17*%
X151500000Y-87725000D03*
X148575000Y-87725000D03*
%TD*%
D20*
%TO.C,R35*%
X145530000Y-91670000D03*
X145530000Y-92690000D03*
%TD*%
%TO.C,R6*%
X134110000Y-93990000D03*
X134110000Y-95010000D03*
%TD*%
D51*
%TO.C,D4*%
X146087500Y-96100000D03*
X144512500Y-96100000D03*
%TD*%
D28*
%TO.C,C14*%
X151295000Y-90375000D03*
X152255000Y-90375000D03*
%TD*%
D44*
%TO.C,R31*%
X121100000Y-91110000D03*
X121100000Y-90090000D03*
%TD*%
D35*
%TO.C,C7*%
X153750000Y-88525000D03*
X153750000Y-85575000D03*
%TD*%
D20*
%TO.C,R36*%
X145510000Y-93560000D03*
X145510000Y-94580000D03*
%TD*%
D52*
%TO.C,SW2*%
X121330000Y-81350000D03*
X117930000Y-81350000D03*
%TD*%
D20*
%TO.C,R19*%
X144240000Y-93890000D03*
X144240000Y-94910000D03*
%TD*%
D17*
%TO.C,C13*%
X151760000Y-93390000D03*
X151760000Y-94350000D03*
%TD*%
D20*
%TO.C,R9*%
X135680000Y-89880000D03*
X135680000Y-90900000D03*
%TD*%
D27*
%TO.C,C25*%
X133425000Y-85130000D03*
X133425000Y-84170000D03*
%TD*%
D17*
%TO.C,C11*%
X137900000Y-81240000D03*
X137900000Y-82200000D03*
%TD*%
D53*
%TO.C,IC2*%
X123300000Y-90175000D03*
D54*
X122700000Y-90100000D03*
D53*
X122100000Y-90175000D03*
X122100000Y-90575000D03*
X122100000Y-90975000D03*
D54*
X122700000Y-91050000D03*
D53*
X123300000Y-90975000D03*
X123300000Y-90575000D03*
%TD*%
D16*
%TO.C,R29*%
X121400000Y-83440000D03*
X120380000Y-83440000D03*
%TD*%
D44*
%TO.C,R28*%
X124000000Y-88010000D03*
X124000000Y-86990000D03*
%TD*%
D27*
%TO.C,C6*%
X123390000Y-83480000D03*
X123390000Y-82520000D03*
%TD*%
D55*
%TO.C,U7*%
X139050000Y-85850000D03*
X139050000Y-86500000D03*
X139050000Y-87150000D03*
X139050000Y-87800000D03*
%TD*%
D22*
%TO.C,D1*%
X110500000Y-95925000D03*
X112250000Y-95925000D03*
%TD*%
D36*
%TO.C,R8*%
X135660000Y-92880000D03*
X136680000Y-92880000D03*
%TD*%
D56*
%TO.C,Q1*%
X134410000Y-91030000D03*
X133760000Y-91030000D03*
X133110000Y-91030000D03*
X133110000Y-92930000D03*
X133760000Y-92930000D03*
X134410000Y-92930000D03*
%TD*%
D57*
%TO.C,IC1*%
X131000000Y-90700000D03*
X130500000Y-90700000D03*
X130000000Y-90700000D03*
X129500000Y-90700000D03*
X129000000Y-90700000D03*
X128500000Y-90700000D03*
D58*
X127750000Y-91450000D03*
X127750000Y-91950000D03*
X127750000Y-92450000D03*
X127750000Y-92950000D03*
X127750000Y-93450000D03*
X127750000Y-93950000D03*
D57*
X128500000Y-94700000D03*
X129000000Y-94700000D03*
X129500000Y-94700000D03*
X130000000Y-94700000D03*
X130500000Y-94700000D03*
X131000000Y-94700000D03*
D58*
X131750000Y-93950000D03*
X131750000Y-93450000D03*
X131750000Y-92950000D03*
X131750000Y-92450000D03*
X131750000Y-91950000D03*
X131750000Y-91450000D03*
D59*
X129750000Y-92700000D03*
%TD*%
D35*
%TO.C,C28*%
X152100000Y-83675000D03*
X152100000Y-80725000D03*
%TD*%
D60*
%TO.C,C3*%
X136640000Y-91850000D03*
X135680000Y-91850000D03*
%TD*%
D20*
%TO.C,R16*%
X147978494Y-81900000D03*
X147978494Y-82920000D03*
%TD*%
D44*
%TO.C,R10*%
X113725000Y-93925000D03*
X113725000Y-92905000D03*
%TD*%
D36*
%TO.C,R1*%
X108170000Y-83630000D03*
X109190000Y-83630000D03*
%TD*%
%TO.C,R7*%
X135650000Y-93890000D03*
X136670000Y-93890000D03*
%TD*%
D61*
%TO.C,U9*%
X138762500Y-91687500D03*
X138762500Y-92187500D03*
X138762500Y-92687500D03*
X138762500Y-93187500D03*
X138762500Y-93687500D03*
X138762500Y-94187500D03*
D62*
X139450000Y-94875000D03*
X139950000Y-94875000D03*
X140450000Y-94875000D03*
X140950000Y-94875000D03*
X141450000Y-94875000D03*
X141950000Y-94875000D03*
D61*
X142637500Y-94187500D03*
X142637500Y-93687500D03*
X142637500Y-93187500D03*
X142637500Y-92687500D03*
X142637500Y-92187500D03*
X142637500Y-91687500D03*
D62*
X141950000Y-91000000D03*
X141450000Y-91000000D03*
X140950000Y-91000000D03*
X140450000Y-91000000D03*
X139950000Y-91000000D03*
X139450000Y-91000000D03*
D63*
X140700000Y-92937500D03*
%TD*%
D64*
%TO.C,C27*%
X151535000Y-85400000D03*
X148585000Y-85400000D03*
%TD*%
D20*
%TO.C,R2*%
X107250000Y-84330000D03*
X107250000Y-85350000D03*
%TD*%
D16*
%TO.C,R3*%
X116620000Y-92275000D03*
X115600000Y-92275000D03*
%TD*%
D65*
%TO.C,C4*%
X129975000Y-84200000D03*
X129975000Y-85750000D03*
%TD*%
D27*
%TO.C,C23*%
X120875000Y-93255000D03*
X120875000Y-92295000D03*
%TD*%
%TO.C,C15*%
X152690000Y-95275000D03*
X152690000Y-94315000D03*
%TD*%
D66*
%TO.C,U2*%
X117350000Y-94475000D03*
X117350000Y-94975000D03*
X117350000Y-95475000D03*
X117350000Y-95975000D03*
X117350000Y-96475000D03*
X121750000Y-96475000D03*
X121750000Y-95975000D03*
X121750000Y-95475000D03*
X121750000Y-94975000D03*
X121750000Y-94475000D03*
%TD*%
D28*
%TO.C,C8*%
X125720000Y-91920000D03*
X126680000Y-91920000D03*
%TD*%
D67*
%TO.C,C26*%
X155625000Y-83675000D03*
X161025000Y-83675000D03*
%TD*%
D28*
%TO.C,C17*%
X149498494Y-81200000D03*
X150458494Y-81200000D03*
%TD*%
M02*
