%TF.GenerationSoftware,KiCad,Pcbnew,9.0.0*%
%TF.CreationDate,2025-05-20T00:09:53+02:00*%
%TF.ProjectId,CYPD3177_3.3V_V2_+_OLED,43595044-3331-4373-975f-332e33565f56,rev?*%
%TF.SameCoordinates,Original*%
%TF.FileFunction,Legend,Bot*%
%TF.FilePolarity,Positive*%
%FSLAX46Y46*%
G04 Gerber Fmt 4.6, Leading zero omitted, Abs format (unit mm)*
G04 Created by KiCad (PCBNEW 9.0.0) date 2025-05-20 00:09:53*
%MOMM*%
%LPD*%
G01*
G04 APERTURE LIST*
G04 Aperture macros list*
%AMRoundRect*
0 Rectangle with rounded corners*
0 $1 Rounding radius*
0 $2 $3 $4 $5 $6 $7 $8 $9 X,Y pos of 4 corners*
0 Add a 4 corners polygon primitive as box body*
4,1,4,$2,$3,$4,$5,$6,$7,$8,$9,$2,$3,0*
0 Add four circle primitives for the rounded corners*
1,1,$1+$1,$2,$3*
1,1,$1+$1,$4,$5*
1,1,$1+$1,$6,$7*
1,1,$1+$1,$8,$9*
0 Add four rect primitives between the rounded corners*
20,1,$1+$1,$2,$3,$4,$5,0*
20,1,$1+$1,$4,$5,$6,$7,0*
20,1,$1+$1,$6,$7,$8,$9,0*
20,1,$1+$1,$8,$9,$2,$3,0*%
G04 Aperture macros list end*
%ADD10C,0.130000*%
%ADD11C,0.150000*%
%ADD12C,0.120000*%
%ADD13R,1.700000X1.700000*%
%ADD14O,1.700000X1.700000*%
%ADD15C,0.650000*%
%ADD16O,2.100000X1.000000*%
%ADD17O,1.600000X1.000000*%
%ADD18RoundRect,0.250001X-0.799999X0.799999X-0.799999X-0.799999X0.799999X-0.799999X0.799999X0.799999X0*%
%ADD19C,2.100000*%
%ADD20C,1.100000*%
%ADD21C,0.800000*%
%ADD22R,3.150000X1.000000*%
G04 APERTURE END LIST*
D10*
X148078759Y-88434147D02*
X147564474Y-88434147D01*
X147821616Y-89334147D02*
X147821616Y-88434147D01*
X147264474Y-89334147D02*
X147264474Y-88434147D01*
X146878760Y-89334147D02*
X146878760Y-88862718D01*
X146878760Y-88862718D02*
X146921617Y-88777004D01*
X146921617Y-88777004D02*
X147007331Y-88734147D01*
X147007331Y-88734147D02*
X147135902Y-88734147D01*
X147135902Y-88734147D02*
X147221617Y-88777004D01*
X147221617Y-88777004D02*
X147264474Y-88819861D01*
X146107331Y-89291290D02*
X146193045Y-89334147D01*
X146193045Y-89334147D02*
X146364474Y-89334147D01*
X146364474Y-89334147D02*
X146450188Y-89291290D01*
X146450188Y-89291290D02*
X146493045Y-89205575D01*
X146493045Y-89205575D02*
X146493045Y-88862718D01*
X146493045Y-88862718D02*
X146450188Y-88777004D01*
X146450188Y-88777004D02*
X146364474Y-88734147D01*
X146364474Y-88734147D02*
X146193045Y-88734147D01*
X146193045Y-88734147D02*
X146107331Y-88777004D01*
X146107331Y-88777004D02*
X146064474Y-88862718D01*
X146064474Y-88862718D02*
X146064474Y-88948432D01*
X146064474Y-88948432D02*
X146493045Y-89034147D01*
X145678759Y-89334147D02*
X145678759Y-88734147D01*
X145678759Y-88905575D02*
X145635902Y-88819861D01*
X145635902Y-88819861D02*
X145593045Y-88777004D01*
X145593045Y-88777004D02*
X145507330Y-88734147D01*
X145507330Y-88734147D02*
X145421616Y-88734147D01*
X144778759Y-89291290D02*
X144864473Y-89334147D01*
X144864473Y-89334147D02*
X145035902Y-89334147D01*
X145035902Y-89334147D02*
X145121616Y-89291290D01*
X145121616Y-89291290D02*
X145164473Y-89205575D01*
X145164473Y-89205575D02*
X145164473Y-88862718D01*
X145164473Y-88862718D02*
X145121616Y-88777004D01*
X145121616Y-88777004D02*
X145035902Y-88734147D01*
X145035902Y-88734147D02*
X144864473Y-88734147D01*
X144864473Y-88734147D02*
X144778759Y-88777004D01*
X144778759Y-88777004D02*
X144735902Y-88862718D01*
X144735902Y-88862718D02*
X144735902Y-88948432D01*
X144735902Y-88948432D02*
X145164473Y-89034147D01*
X143664473Y-89334147D02*
X143664473Y-88734147D01*
X143664473Y-88434147D02*
X143707330Y-88477004D01*
X143707330Y-88477004D02*
X143664473Y-88519861D01*
X143664473Y-88519861D02*
X143621616Y-88477004D01*
X143621616Y-88477004D02*
X143664473Y-88434147D01*
X143664473Y-88434147D02*
X143664473Y-88519861D01*
X143278759Y-89291290D02*
X143193045Y-89334147D01*
X143193045Y-89334147D02*
X143021616Y-89334147D01*
X143021616Y-89334147D02*
X142935902Y-89291290D01*
X142935902Y-89291290D02*
X142893045Y-89205575D01*
X142893045Y-89205575D02*
X142893045Y-89162718D01*
X142893045Y-89162718D02*
X142935902Y-89077004D01*
X142935902Y-89077004D02*
X143021616Y-89034147D01*
X143021616Y-89034147D02*
X143150188Y-89034147D01*
X143150188Y-89034147D02*
X143235902Y-88991290D01*
X143235902Y-88991290D02*
X143278759Y-88905575D01*
X143278759Y-88905575D02*
X143278759Y-88862718D01*
X143278759Y-88862718D02*
X143235902Y-88777004D01*
X143235902Y-88777004D02*
X143150188Y-88734147D01*
X143150188Y-88734147D02*
X143021616Y-88734147D01*
X143021616Y-88734147D02*
X142935902Y-88777004D01*
X141435903Y-89334147D02*
X141435903Y-88862718D01*
X141435903Y-88862718D02*
X141478760Y-88777004D01*
X141478760Y-88777004D02*
X141564474Y-88734147D01*
X141564474Y-88734147D02*
X141735903Y-88734147D01*
X141735903Y-88734147D02*
X141821617Y-88777004D01*
X141435903Y-89291290D02*
X141521617Y-89334147D01*
X141521617Y-89334147D02*
X141735903Y-89334147D01*
X141735903Y-89334147D02*
X141821617Y-89291290D01*
X141821617Y-89291290D02*
X141864474Y-89205575D01*
X141864474Y-89205575D02*
X141864474Y-89119861D01*
X141864474Y-89119861D02*
X141821617Y-89034147D01*
X141821617Y-89034147D02*
X141735903Y-88991290D01*
X141735903Y-88991290D02*
X141521617Y-88991290D01*
X141521617Y-88991290D02*
X141435903Y-88948432D01*
X140321617Y-89334147D02*
X140321617Y-88734147D01*
X140321617Y-88434147D02*
X140364474Y-88477004D01*
X140364474Y-88477004D02*
X140321617Y-88519861D01*
X140321617Y-88519861D02*
X140278760Y-88477004D01*
X140278760Y-88477004D02*
X140321617Y-88434147D01*
X140321617Y-88434147D02*
X140321617Y-88519861D01*
X139893046Y-88734147D02*
X139893046Y-89334147D01*
X139893046Y-88819861D02*
X139850189Y-88777004D01*
X139850189Y-88777004D02*
X139764474Y-88734147D01*
X139764474Y-88734147D02*
X139635903Y-88734147D01*
X139635903Y-88734147D02*
X139550189Y-88777004D01*
X139550189Y-88777004D02*
X139507332Y-88862718D01*
X139507332Y-88862718D02*
X139507332Y-89334147D01*
X139121617Y-89291290D02*
X139035903Y-89334147D01*
X139035903Y-89334147D02*
X138864474Y-89334147D01*
X138864474Y-89334147D02*
X138778760Y-89291290D01*
X138778760Y-89291290D02*
X138735903Y-89205575D01*
X138735903Y-89205575D02*
X138735903Y-89162718D01*
X138735903Y-89162718D02*
X138778760Y-89077004D01*
X138778760Y-89077004D02*
X138864474Y-89034147D01*
X138864474Y-89034147D02*
X138993046Y-89034147D01*
X138993046Y-89034147D02*
X139078760Y-88991290D01*
X139078760Y-88991290D02*
X139121617Y-88905575D01*
X139121617Y-88905575D02*
X139121617Y-88862718D01*
X139121617Y-88862718D02*
X139078760Y-88777004D01*
X139078760Y-88777004D02*
X138993046Y-88734147D01*
X138993046Y-88734147D02*
X138864474Y-88734147D01*
X138864474Y-88734147D02*
X138778760Y-88777004D01*
X138478760Y-88734147D02*
X138135903Y-88734147D01*
X138350189Y-88434147D02*
X138350189Y-89205575D01*
X138350189Y-89205575D02*
X138307332Y-89291290D01*
X138307332Y-89291290D02*
X138221617Y-89334147D01*
X138221617Y-89334147D02*
X138135903Y-89334147D01*
X137835903Y-89334147D02*
X137835903Y-88734147D01*
X137835903Y-88905575D02*
X137793046Y-88819861D01*
X137793046Y-88819861D02*
X137750189Y-88777004D01*
X137750189Y-88777004D02*
X137664474Y-88734147D01*
X137664474Y-88734147D02*
X137578760Y-88734147D01*
X136893046Y-88734147D02*
X136893046Y-89334147D01*
X137278760Y-88734147D02*
X137278760Y-89205575D01*
X137278760Y-89205575D02*
X137235903Y-89291290D01*
X137235903Y-89291290D02*
X137150188Y-89334147D01*
X137150188Y-89334147D02*
X137021617Y-89334147D01*
X137021617Y-89334147D02*
X136935903Y-89291290D01*
X136935903Y-89291290D02*
X136893046Y-89248432D01*
X136078760Y-89291290D02*
X136164474Y-89334147D01*
X136164474Y-89334147D02*
X136335902Y-89334147D01*
X136335902Y-89334147D02*
X136421617Y-89291290D01*
X136421617Y-89291290D02*
X136464474Y-89248432D01*
X136464474Y-89248432D02*
X136507331Y-89162718D01*
X136507331Y-89162718D02*
X136507331Y-88905575D01*
X136507331Y-88905575D02*
X136464474Y-88819861D01*
X136464474Y-88819861D02*
X136421617Y-88777004D01*
X136421617Y-88777004D02*
X136335902Y-88734147D01*
X136335902Y-88734147D02*
X136164474Y-88734147D01*
X136164474Y-88734147D02*
X136078760Y-88777004D01*
X135821616Y-88734147D02*
X135478759Y-88734147D01*
X135693045Y-88434147D02*
X135693045Y-89205575D01*
X135693045Y-89205575D02*
X135650188Y-89291290D01*
X135650188Y-89291290D02*
X135564473Y-89334147D01*
X135564473Y-89334147D02*
X135478759Y-89334147D01*
X135178759Y-89334147D02*
X135178759Y-88734147D01*
X135178759Y-88434147D02*
X135221616Y-88477004D01*
X135221616Y-88477004D02*
X135178759Y-88519861D01*
X135178759Y-88519861D02*
X135135902Y-88477004D01*
X135135902Y-88477004D02*
X135178759Y-88434147D01*
X135178759Y-88434147D02*
X135178759Y-88519861D01*
X134621616Y-89334147D02*
X134707331Y-89291290D01*
X134707331Y-89291290D02*
X134750188Y-89248432D01*
X134750188Y-89248432D02*
X134793045Y-89162718D01*
X134793045Y-89162718D02*
X134793045Y-88905575D01*
X134793045Y-88905575D02*
X134750188Y-88819861D01*
X134750188Y-88819861D02*
X134707331Y-88777004D01*
X134707331Y-88777004D02*
X134621616Y-88734147D01*
X134621616Y-88734147D02*
X134493045Y-88734147D01*
X134493045Y-88734147D02*
X134407331Y-88777004D01*
X134407331Y-88777004D02*
X134364474Y-88819861D01*
X134364474Y-88819861D02*
X134321616Y-88905575D01*
X134321616Y-88905575D02*
X134321616Y-89162718D01*
X134321616Y-89162718D02*
X134364474Y-89248432D01*
X134364474Y-89248432D02*
X134407331Y-89291290D01*
X134407331Y-89291290D02*
X134493045Y-89334147D01*
X134493045Y-89334147D02*
X134621616Y-89334147D01*
X133935902Y-88734147D02*
X133935902Y-89334147D01*
X133935902Y-88819861D02*
X133893045Y-88777004D01*
X133893045Y-88777004D02*
X133807330Y-88734147D01*
X133807330Y-88734147D02*
X133678759Y-88734147D01*
X133678759Y-88734147D02*
X133593045Y-88777004D01*
X133593045Y-88777004D02*
X133550188Y-88862718D01*
X133550188Y-88862718D02*
X133550188Y-89334147D01*
X132435902Y-88734147D02*
X132435902Y-89634147D01*
X132435902Y-88777004D02*
X132350188Y-88734147D01*
X132350188Y-88734147D02*
X132178759Y-88734147D01*
X132178759Y-88734147D02*
X132093045Y-88777004D01*
X132093045Y-88777004D02*
X132050188Y-88819861D01*
X132050188Y-88819861D02*
X132007330Y-88905575D01*
X132007330Y-88905575D02*
X132007330Y-89162718D01*
X132007330Y-89162718D02*
X132050188Y-89248432D01*
X132050188Y-89248432D02*
X132093045Y-89291290D01*
X132093045Y-89291290D02*
X132178759Y-89334147D01*
X132178759Y-89334147D02*
X132350188Y-89334147D01*
X132350188Y-89334147D02*
X132435902Y-89291290D01*
X131235902Y-89334147D02*
X131235902Y-88862718D01*
X131235902Y-88862718D02*
X131278759Y-88777004D01*
X131278759Y-88777004D02*
X131364473Y-88734147D01*
X131364473Y-88734147D02*
X131535902Y-88734147D01*
X131535902Y-88734147D02*
X131621616Y-88777004D01*
X131235902Y-89291290D02*
X131321616Y-89334147D01*
X131321616Y-89334147D02*
X131535902Y-89334147D01*
X131535902Y-89334147D02*
X131621616Y-89291290D01*
X131621616Y-89291290D02*
X131664473Y-89205575D01*
X131664473Y-89205575D02*
X131664473Y-89119861D01*
X131664473Y-89119861D02*
X131621616Y-89034147D01*
X131621616Y-89034147D02*
X131535902Y-88991290D01*
X131535902Y-88991290D02*
X131321616Y-88991290D01*
X131321616Y-88991290D02*
X131235902Y-88948432D01*
X130421616Y-88734147D02*
X130421616Y-89462718D01*
X130421616Y-89462718D02*
X130464473Y-89548432D01*
X130464473Y-89548432D02*
X130507330Y-89591290D01*
X130507330Y-89591290D02*
X130593044Y-89634147D01*
X130593044Y-89634147D02*
X130721616Y-89634147D01*
X130721616Y-89634147D02*
X130807330Y-89591290D01*
X130421616Y-89291290D02*
X130507330Y-89334147D01*
X130507330Y-89334147D02*
X130678758Y-89334147D01*
X130678758Y-89334147D02*
X130764473Y-89291290D01*
X130764473Y-89291290D02*
X130807330Y-89248432D01*
X130807330Y-89248432D02*
X130850187Y-89162718D01*
X130850187Y-89162718D02*
X130850187Y-88905575D01*
X130850187Y-88905575D02*
X130807330Y-88819861D01*
X130807330Y-88819861D02*
X130764473Y-88777004D01*
X130764473Y-88777004D02*
X130678758Y-88734147D01*
X130678758Y-88734147D02*
X130507330Y-88734147D01*
X130507330Y-88734147D02*
X130421616Y-88777004D01*
X129650187Y-89291290D02*
X129735901Y-89334147D01*
X129735901Y-89334147D02*
X129907330Y-89334147D01*
X129907330Y-89334147D02*
X129993044Y-89291290D01*
X129993044Y-89291290D02*
X130035901Y-89205575D01*
X130035901Y-89205575D02*
X130035901Y-88862718D01*
X130035901Y-88862718D02*
X129993044Y-88777004D01*
X129993044Y-88777004D02*
X129907330Y-88734147D01*
X129907330Y-88734147D02*
X129735901Y-88734147D01*
X129735901Y-88734147D02*
X129650187Y-88777004D01*
X129650187Y-88777004D02*
X129607330Y-88862718D01*
X129607330Y-88862718D02*
X129607330Y-88948432D01*
X129607330Y-88948432D02*
X130035901Y-89034147D01*
X128535901Y-89334147D02*
X128535901Y-88734147D01*
X128535901Y-88434147D02*
X128578758Y-88477004D01*
X128578758Y-88477004D02*
X128535901Y-88519861D01*
X128535901Y-88519861D02*
X128493044Y-88477004D01*
X128493044Y-88477004D02*
X128535901Y-88434147D01*
X128535901Y-88434147D02*
X128535901Y-88519861D01*
X128107330Y-88734147D02*
X128107330Y-89334147D01*
X128107330Y-88819861D02*
X128064473Y-88777004D01*
X128064473Y-88777004D02*
X127978758Y-88734147D01*
X127978758Y-88734147D02*
X127850187Y-88734147D01*
X127850187Y-88734147D02*
X127764473Y-88777004D01*
X127764473Y-88777004D02*
X127721616Y-88862718D01*
X127721616Y-88862718D02*
X127721616Y-89334147D01*
X126607330Y-89334147D02*
X126607330Y-88734147D01*
X126607330Y-88819861D02*
X126564473Y-88777004D01*
X126564473Y-88777004D02*
X126478758Y-88734147D01*
X126478758Y-88734147D02*
X126350187Y-88734147D01*
X126350187Y-88734147D02*
X126264473Y-88777004D01*
X126264473Y-88777004D02*
X126221616Y-88862718D01*
X126221616Y-88862718D02*
X126221616Y-89334147D01*
X126221616Y-88862718D02*
X126178758Y-88777004D01*
X126178758Y-88777004D02*
X126093044Y-88734147D01*
X126093044Y-88734147D02*
X125964473Y-88734147D01*
X125964473Y-88734147D02*
X125878758Y-88777004D01*
X125878758Y-88777004D02*
X125835901Y-88862718D01*
X125835901Y-88862718D02*
X125835901Y-89334147D01*
X125064473Y-89291290D02*
X125150187Y-89334147D01*
X125150187Y-89334147D02*
X125321616Y-89334147D01*
X125321616Y-89334147D02*
X125407330Y-89291290D01*
X125407330Y-89291290D02*
X125450187Y-89205575D01*
X125450187Y-89205575D02*
X125450187Y-88862718D01*
X125450187Y-88862718D02*
X125407330Y-88777004D01*
X125407330Y-88777004D02*
X125321616Y-88734147D01*
X125321616Y-88734147D02*
X125150187Y-88734147D01*
X125150187Y-88734147D02*
X125064473Y-88777004D01*
X125064473Y-88777004D02*
X125021616Y-88862718D01*
X125021616Y-88862718D02*
X125021616Y-88948432D01*
X125021616Y-88948432D02*
X125450187Y-89034147D01*
X124635901Y-88734147D02*
X124635901Y-89334147D01*
X124635901Y-88819861D02*
X124593044Y-88777004D01*
X124593044Y-88777004D02*
X124507329Y-88734147D01*
X124507329Y-88734147D02*
X124378758Y-88734147D01*
X124378758Y-88734147D02*
X124293044Y-88777004D01*
X124293044Y-88777004D02*
X124250187Y-88862718D01*
X124250187Y-88862718D02*
X124250187Y-89334147D01*
X123435901Y-88734147D02*
X123435901Y-89334147D01*
X123821615Y-88734147D02*
X123821615Y-89205575D01*
X123821615Y-89205575D02*
X123778758Y-89291290D01*
X123778758Y-89291290D02*
X123693043Y-89334147D01*
X123693043Y-89334147D02*
X123564472Y-89334147D01*
X123564472Y-89334147D02*
X123478758Y-89291290D01*
X123478758Y-89291290D02*
X123435901Y-89248432D01*
X123007329Y-89248432D02*
X122964472Y-89291290D01*
X122964472Y-89291290D02*
X123007329Y-89334147D01*
X123007329Y-89334147D02*
X123050186Y-89291290D01*
X123050186Y-89291290D02*
X123007329Y-89248432D01*
X123007329Y-89248432D02*
X123007329Y-89334147D01*
X147778759Y-89883097D02*
X147607331Y-89883097D01*
X147607331Y-89883097D02*
X147521616Y-89925954D01*
X147521616Y-89925954D02*
X147435902Y-90011668D01*
X147435902Y-90011668D02*
X147393045Y-90183097D01*
X147393045Y-90183097D02*
X147393045Y-90483097D01*
X147393045Y-90483097D02*
X147435902Y-90654525D01*
X147435902Y-90654525D02*
X147521616Y-90740240D01*
X147521616Y-90740240D02*
X147607331Y-90783097D01*
X147607331Y-90783097D02*
X147778759Y-90783097D01*
X147778759Y-90783097D02*
X147864474Y-90740240D01*
X147864474Y-90740240D02*
X147950188Y-90654525D01*
X147950188Y-90654525D02*
X147993045Y-90483097D01*
X147993045Y-90483097D02*
X147993045Y-90183097D01*
X147993045Y-90183097D02*
X147950188Y-90011668D01*
X147950188Y-90011668D02*
X147864474Y-89925954D01*
X147864474Y-89925954D02*
X147778759Y-89883097D01*
X147007331Y-90783097D02*
X147007331Y-90183097D01*
X147007331Y-90354525D02*
X146964474Y-90268811D01*
X146964474Y-90268811D02*
X146921617Y-90225954D01*
X146921617Y-90225954D02*
X146835902Y-90183097D01*
X146835902Y-90183097D02*
X146750188Y-90183097D01*
X145850188Y-90183097D02*
X145635902Y-90783097D01*
X145635902Y-90783097D02*
X145421617Y-90183097D01*
X145078760Y-90783097D02*
X145078760Y-90183097D01*
X145078760Y-89883097D02*
X145121617Y-89925954D01*
X145121617Y-89925954D02*
X145078760Y-89968811D01*
X145078760Y-89968811D02*
X145035903Y-89925954D01*
X145035903Y-89925954D02*
X145078760Y-89883097D01*
X145078760Y-89883097D02*
X145078760Y-89968811D01*
X144693046Y-90740240D02*
X144607332Y-90783097D01*
X144607332Y-90783097D02*
X144435903Y-90783097D01*
X144435903Y-90783097D02*
X144350189Y-90740240D01*
X144350189Y-90740240D02*
X144307332Y-90654525D01*
X144307332Y-90654525D02*
X144307332Y-90611668D01*
X144307332Y-90611668D02*
X144350189Y-90525954D01*
X144350189Y-90525954D02*
X144435903Y-90483097D01*
X144435903Y-90483097D02*
X144564475Y-90483097D01*
X144564475Y-90483097D02*
X144650189Y-90440240D01*
X144650189Y-90440240D02*
X144693046Y-90354525D01*
X144693046Y-90354525D02*
X144693046Y-90311668D01*
X144693046Y-90311668D02*
X144650189Y-90225954D01*
X144650189Y-90225954D02*
X144564475Y-90183097D01*
X144564475Y-90183097D02*
X144435903Y-90183097D01*
X144435903Y-90183097D02*
X144350189Y-90225954D01*
X143921618Y-90783097D02*
X143921618Y-90183097D01*
X143921618Y-89883097D02*
X143964475Y-89925954D01*
X143964475Y-89925954D02*
X143921618Y-89968811D01*
X143921618Y-89968811D02*
X143878761Y-89925954D01*
X143878761Y-89925954D02*
X143921618Y-89883097D01*
X143921618Y-89883097D02*
X143921618Y-89968811D01*
X143621618Y-90183097D02*
X143278761Y-90183097D01*
X143493047Y-89883097D02*
X143493047Y-90654525D01*
X143493047Y-90654525D02*
X143450190Y-90740240D01*
X143450190Y-90740240D02*
X143364475Y-90783097D01*
X143364475Y-90783097D02*
X143278761Y-90783097D01*
X141907333Y-90183097D02*
X141907333Y-90911668D01*
X141907333Y-90911668D02*
X141950190Y-90997382D01*
X141950190Y-90997382D02*
X141993047Y-91040240D01*
X141993047Y-91040240D02*
X142078761Y-91083097D01*
X142078761Y-91083097D02*
X142207333Y-91083097D01*
X142207333Y-91083097D02*
X142293047Y-91040240D01*
X141907333Y-90740240D02*
X141993047Y-90783097D01*
X141993047Y-90783097D02*
X142164475Y-90783097D01*
X142164475Y-90783097D02*
X142250190Y-90740240D01*
X142250190Y-90740240D02*
X142293047Y-90697382D01*
X142293047Y-90697382D02*
X142335904Y-90611668D01*
X142335904Y-90611668D02*
X142335904Y-90354525D01*
X142335904Y-90354525D02*
X142293047Y-90268811D01*
X142293047Y-90268811D02*
X142250190Y-90225954D01*
X142250190Y-90225954D02*
X142164475Y-90183097D01*
X142164475Y-90183097D02*
X141993047Y-90183097D01*
X141993047Y-90183097D02*
X141907333Y-90225954D01*
X141478761Y-90783097D02*
X141478761Y-90183097D01*
X141478761Y-89883097D02*
X141521618Y-89925954D01*
X141521618Y-89925954D02*
X141478761Y-89968811D01*
X141478761Y-89968811D02*
X141435904Y-89925954D01*
X141435904Y-89925954D02*
X141478761Y-89883097D01*
X141478761Y-89883097D02*
X141478761Y-89968811D01*
X141178761Y-90183097D02*
X140835904Y-90183097D01*
X141050190Y-89883097D02*
X141050190Y-90654525D01*
X141050190Y-90654525D02*
X141007333Y-90740240D01*
X141007333Y-90740240D02*
X140921618Y-90783097D01*
X140921618Y-90783097D02*
X140835904Y-90783097D01*
X140535904Y-90783097D02*
X140535904Y-89883097D01*
X140150190Y-90783097D02*
X140150190Y-90311668D01*
X140150190Y-90311668D02*
X140193047Y-90225954D01*
X140193047Y-90225954D02*
X140278761Y-90183097D01*
X140278761Y-90183097D02*
X140407332Y-90183097D01*
X140407332Y-90183097D02*
X140493047Y-90225954D01*
X140493047Y-90225954D02*
X140535904Y-90268811D01*
X139335904Y-90183097D02*
X139335904Y-90783097D01*
X139721618Y-90183097D02*
X139721618Y-90654525D01*
X139721618Y-90654525D02*
X139678761Y-90740240D01*
X139678761Y-90740240D02*
X139593046Y-90783097D01*
X139593046Y-90783097D02*
X139464475Y-90783097D01*
X139464475Y-90783097D02*
X139378761Y-90740240D01*
X139378761Y-90740240D02*
X139335904Y-90697382D01*
X138907332Y-90783097D02*
X138907332Y-89883097D01*
X138907332Y-90225954D02*
X138821618Y-90183097D01*
X138821618Y-90183097D02*
X138650189Y-90183097D01*
X138650189Y-90183097D02*
X138564475Y-90225954D01*
X138564475Y-90225954D02*
X138521618Y-90268811D01*
X138521618Y-90268811D02*
X138478760Y-90354525D01*
X138478760Y-90354525D02*
X138478760Y-90611668D01*
X138478760Y-90611668D02*
X138521618Y-90697382D01*
X138521618Y-90697382D02*
X138564475Y-90740240D01*
X138564475Y-90740240D02*
X138650189Y-90783097D01*
X138650189Y-90783097D02*
X138821618Y-90783097D01*
X138821618Y-90783097D02*
X138907332Y-90740240D01*
X138093046Y-90697382D02*
X138050189Y-90740240D01*
X138050189Y-90740240D02*
X138093046Y-90783097D01*
X138093046Y-90783097D02*
X138135903Y-90740240D01*
X138135903Y-90740240D02*
X138093046Y-90697382D01*
X138093046Y-90697382D02*
X138093046Y-90783097D01*
X137278761Y-90740240D02*
X137364475Y-90783097D01*
X137364475Y-90783097D02*
X137535903Y-90783097D01*
X137535903Y-90783097D02*
X137621618Y-90740240D01*
X137621618Y-90740240D02*
X137664475Y-90697382D01*
X137664475Y-90697382D02*
X137707332Y-90611668D01*
X137707332Y-90611668D02*
X137707332Y-90354525D01*
X137707332Y-90354525D02*
X137664475Y-90268811D01*
X137664475Y-90268811D02*
X137621618Y-90225954D01*
X137621618Y-90225954D02*
X137535903Y-90183097D01*
X137535903Y-90183097D02*
X137364475Y-90183097D01*
X137364475Y-90183097D02*
X137278761Y-90225954D01*
X136764474Y-90783097D02*
X136850189Y-90740240D01*
X136850189Y-90740240D02*
X136893046Y-90697382D01*
X136893046Y-90697382D02*
X136935903Y-90611668D01*
X136935903Y-90611668D02*
X136935903Y-90354525D01*
X136935903Y-90354525D02*
X136893046Y-90268811D01*
X136893046Y-90268811D02*
X136850189Y-90225954D01*
X136850189Y-90225954D02*
X136764474Y-90183097D01*
X136764474Y-90183097D02*
X136635903Y-90183097D01*
X136635903Y-90183097D02*
X136550189Y-90225954D01*
X136550189Y-90225954D02*
X136507332Y-90268811D01*
X136507332Y-90268811D02*
X136464474Y-90354525D01*
X136464474Y-90354525D02*
X136464474Y-90611668D01*
X136464474Y-90611668D02*
X136507332Y-90697382D01*
X136507332Y-90697382D02*
X136550189Y-90740240D01*
X136550189Y-90740240D02*
X136635903Y-90783097D01*
X136635903Y-90783097D02*
X136764474Y-90783097D01*
X136078760Y-90783097D02*
X136078760Y-90183097D01*
X136078760Y-90268811D02*
X136035903Y-90225954D01*
X136035903Y-90225954D02*
X135950188Y-90183097D01*
X135950188Y-90183097D02*
X135821617Y-90183097D01*
X135821617Y-90183097D02*
X135735903Y-90225954D01*
X135735903Y-90225954D02*
X135693046Y-90311668D01*
X135693046Y-90311668D02*
X135693046Y-90783097D01*
X135693046Y-90311668D02*
X135650188Y-90225954D01*
X135650188Y-90225954D02*
X135564474Y-90183097D01*
X135564474Y-90183097D02*
X135435903Y-90183097D01*
X135435903Y-90183097D02*
X135350188Y-90225954D01*
X135350188Y-90225954D02*
X135307331Y-90311668D01*
X135307331Y-90311668D02*
X135307331Y-90783097D01*
X134235903Y-89840240D02*
X135007331Y-90997382D01*
X133935903Y-90783097D02*
X133935903Y-89883097D01*
X133550189Y-90783097D02*
X133550189Y-90311668D01*
X133550189Y-90311668D02*
X133593046Y-90225954D01*
X133593046Y-90225954D02*
X133678760Y-90183097D01*
X133678760Y-90183097D02*
X133807331Y-90183097D01*
X133807331Y-90183097D02*
X133893046Y-90225954D01*
X133893046Y-90225954D02*
X133935903Y-90268811D01*
X132735903Y-90783097D02*
X132735903Y-90311668D01*
X132735903Y-90311668D02*
X132778760Y-90225954D01*
X132778760Y-90225954D02*
X132864474Y-90183097D01*
X132864474Y-90183097D02*
X133035903Y-90183097D01*
X133035903Y-90183097D02*
X133121617Y-90225954D01*
X132735903Y-90740240D02*
X132821617Y-90783097D01*
X132821617Y-90783097D02*
X133035903Y-90783097D01*
X133035903Y-90783097D02*
X133121617Y-90740240D01*
X133121617Y-90740240D02*
X133164474Y-90654525D01*
X133164474Y-90654525D02*
X133164474Y-90568811D01*
X133164474Y-90568811D02*
X133121617Y-90483097D01*
X133121617Y-90483097D02*
X133035903Y-90440240D01*
X133035903Y-90440240D02*
X132821617Y-90440240D01*
X132821617Y-90440240D02*
X132735903Y-90397382D01*
X132350188Y-90740240D02*
X132221617Y-90783097D01*
X132221617Y-90783097D02*
X132007331Y-90783097D01*
X132007331Y-90783097D02*
X131921617Y-90740240D01*
X131921617Y-90740240D02*
X131878759Y-90697382D01*
X131878759Y-90697382D02*
X131835902Y-90611668D01*
X131835902Y-90611668D02*
X131835902Y-90525954D01*
X131835902Y-90525954D02*
X131878759Y-90440240D01*
X131878759Y-90440240D02*
X131921617Y-90397382D01*
X131921617Y-90397382D02*
X132007331Y-90354525D01*
X132007331Y-90354525D02*
X132178759Y-90311668D01*
X132178759Y-90311668D02*
X132264474Y-90268811D01*
X132264474Y-90268811D02*
X132307331Y-90225954D01*
X132307331Y-90225954D02*
X132350188Y-90140240D01*
X132350188Y-90140240D02*
X132350188Y-90054525D01*
X132350188Y-90054525D02*
X132307331Y-89968811D01*
X132307331Y-89968811D02*
X132264474Y-89925954D01*
X132264474Y-89925954D02*
X132178759Y-89883097D01*
X132178759Y-89883097D02*
X131964474Y-89883097D01*
X131964474Y-89883097D02*
X131835902Y-89925954D01*
X131450188Y-90783097D02*
X131450188Y-89883097D01*
X131064474Y-90783097D02*
X131064474Y-90311668D01*
X131064474Y-90311668D02*
X131107331Y-90225954D01*
X131107331Y-90225954D02*
X131193045Y-90183097D01*
X131193045Y-90183097D02*
X131321616Y-90183097D01*
X131321616Y-90183097D02*
X131407331Y-90225954D01*
X131407331Y-90225954D02*
X131450188Y-90268811D01*
X130635902Y-90783097D02*
X130635902Y-90183097D01*
X130635902Y-89883097D02*
X130678759Y-89925954D01*
X130678759Y-89925954D02*
X130635902Y-89968811D01*
X130635902Y-89968811D02*
X130593045Y-89925954D01*
X130593045Y-89925954D02*
X130635902Y-89883097D01*
X130635902Y-89883097D02*
X130635902Y-89968811D01*
X130207331Y-90183097D02*
X130207331Y-90783097D01*
X130207331Y-90268811D02*
X130164474Y-90225954D01*
X130164474Y-90225954D02*
X130078759Y-90183097D01*
X130078759Y-90183097D02*
X129950188Y-90183097D01*
X129950188Y-90183097D02*
X129864474Y-90225954D01*
X129864474Y-90225954D02*
X129821617Y-90311668D01*
X129821617Y-90311668D02*
X129821617Y-90783097D01*
X129007331Y-90183097D02*
X129007331Y-90783097D01*
X129393045Y-90183097D02*
X129393045Y-90654525D01*
X129393045Y-90654525D02*
X129350188Y-90740240D01*
X129350188Y-90740240D02*
X129264473Y-90783097D01*
X129264473Y-90783097D02*
X129135902Y-90783097D01*
X129135902Y-90783097D02*
X129050188Y-90740240D01*
X129050188Y-90740240D02*
X129007331Y-90697382D01*
X128578759Y-90783097D02*
X128578759Y-90183097D01*
X128578759Y-89883097D02*
X128621616Y-89925954D01*
X128621616Y-89925954D02*
X128578759Y-89968811D01*
X128578759Y-89968811D02*
X128535902Y-89925954D01*
X128535902Y-89925954D02*
X128578759Y-89883097D01*
X128578759Y-89883097D02*
X128578759Y-89968811D01*
X127507331Y-89840240D02*
X128278759Y-90997382D01*
X126821617Y-90183097D02*
X126821617Y-90783097D01*
X127207331Y-90183097D02*
X127207331Y-90654525D01*
X127207331Y-90654525D02*
X127164474Y-90740240D01*
X127164474Y-90740240D02*
X127078759Y-90783097D01*
X127078759Y-90783097D02*
X126950188Y-90783097D01*
X126950188Y-90783097D02*
X126864474Y-90740240D01*
X126864474Y-90740240D02*
X126821617Y-90697382D01*
X126435902Y-90740240D02*
X126350188Y-90783097D01*
X126350188Y-90783097D02*
X126178759Y-90783097D01*
X126178759Y-90783097D02*
X126093045Y-90740240D01*
X126093045Y-90740240D02*
X126050188Y-90654525D01*
X126050188Y-90654525D02*
X126050188Y-90611668D01*
X126050188Y-90611668D02*
X126093045Y-90525954D01*
X126093045Y-90525954D02*
X126178759Y-90483097D01*
X126178759Y-90483097D02*
X126307331Y-90483097D01*
X126307331Y-90483097D02*
X126393045Y-90440240D01*
X126393045Y-90440240D02*
X126435902Y-90354525D01*
X126435902Y-90354525D02*
X126435902Y-90311668D01*
X126435902Y-90311668D02*
X126393045Y-90225954D01*
X126393045Y-90225954D02*
X126307331Y-90183097D01*
X126307331Y-90183097D02*
X126178759Y-90183097D01*
X126178759Y-90183097D02*
X126093045Y-90225954D01*
X125664474Y-90783097D02*
X125664474Y-89883097D01*
X125664474Y-90225954D02*
X125578760Y-90183097D01*
X125578760Y-90183097D02*
X125407331Y-90183097D01*
X125407331Y-90183097D02*
X125321617Y-90225954D01*
X125321617Y-90225954D02*
X125278760Y-90268811D01*
X125278760Y-90268811D02*
X125235902Y-90354525D01*
X125235902Y-90354525D02*
X125235902Y-90611668D01*
X125235902Y-90611668D02*
X125278760Y-90697382D01*
X125278760Y-90697382D02*
X125321617Y-90740240D01*
X125321617Y-90740240D02*
X125407331Y-90783097D01*
X125407331Y-90783097D02*
X125578760Y-90783097D01*
X125578760Y-90783097D02*
X125664474Y-90740240D01*
X125064474Y-90868811D02*
X124378759Y-90868811D01*
X124164474Y-90183097D02*
X124164474Y-91083097D01*
X124164474Y-90225954D02*
X124078760Y-90183097D01*
X124078760Y-90183097D02*
X123907331Y-90183097D01*
X123907331Y-90183097D02*
X123821617Y-90225954D01*
X123821617Y-90225954D02*
X123778760Y-90268811D01*
X123778760Y-90268811D02*
X123735902Y-90354525D01*
X123735902Y-90354525D02*
X123735902Y-90611668D01*
X123735902Y-90611668D02*
X123778760Y-90697382D01*
X123778760Y-90697382D02*
X123821617Y-90740240D01*
X123821617Y-90740240D02*
X123907331Y-90783097D01*
X123907331Y-90783097D02*
X124078760Y-90783097D01*
X124078760Y-90783097D02*
X124164474Y-90740240D01*
X122964474Y-90783097D02*
X122964474Y-89883097D01*
X122964474Y-90740240D02*
X123050188Y-90783097D01*
X123050188Y-90783097D02*
X123221616Y-90783097D01*
X123221616Y-90783097D02*
X123307331Y-90740240D01*
X123307331Y-90740240D02*
X123350188Y-90697382D01*
X123350188Y-90697382D02*
X123393045Y-90611668D01*
X123393045Y-90611668D02*
X123393045Y-90354525D01*
X123393045Y-90354525D02*
X123350188Y-90268811D01*
X123350188Y-90268811D02*
X123307331Y-90225954D01*
X123307331Y-90225954D02*
X123221616Y-90183097D01*
X123221616Y-90183097D02*
X123050188Y-90183097D01*
X123050188Y-90183097D02*
X122964474Y-90225954D01*
X147571616Y-93984147D02*
X148000188Y-93984147D01*
X148000188Y-93984147D02*
X148000188Y-93084147D01*
X147271617Y-93984147D02*
X147271617Y-93384147D01*
X147271617Y-93084147D02*
X147314474Y-93127004D01*
X147314474Y-93127004D02*
X147271617Y-93169861D01*
X147271617Y-93169861D02*
X147228760Y-93127004D01*
X147228760Y-93127004D02*
X147271617Y-93084147D01*
X147271617Y-93084147D02*
X147271617Y-93169861D01*
X146457332Y-93941290D02*
X146543046Y-93984147D01*
X146543046Y-93984147D02*
X146714474Y-93984147D01*
X146714474Y-93984147D02*
X146800189Y-93941290D01*
X146800189Y-93941290D02*
X146843046Y-93898432D01*
X146843046Y-93898432D02*
X146885903Y-93812718D01*
X146885903Y-93812718D02*
X146885903Y-93555575D01*
X146885903Y-93555575D02*
X146843046Y-93469861D01*
X146843046Y-93469861D02*
X146800189Y-93427004D01*
X146800189Y-93427004D02*
X146714474Y-93384147D01*
X146714474Y-93384147D02*
X146543046Y-93384147D01*
X146543046Y-93384147D02*
X146457332Y-93427004D01*
X145728760Y-93941290D02*
X145814474Y-93984147D01*
X145814474Y-93984147D02*
X145985903Y-93984147D01*
X145985903Y-93984147D02*
X146071617Y-93941290D01*
X146071617Y-93941290D02*
X146114474Y-93855575D01*
X146114474Y-93855575D02*
X146114474Y-93512718D01*
X146114474Y-93512718D02*
X146071617Y-93427004D01*
X146071617Y-93427004D02*
X145985903Y-93384147D01*
X145985903Y-93384147D02*
X145814474Y-93384147D01*
X145814474Y-93384147D02*
X145728760Y-93427004D01*
X145728760Y-93427004D02*
X145685903Y-93512718D01*
X145685903Y-93512718D02*
X145685903Y-93598432D01*
X145685903Y-93598432D02*
X146114474Y-93684147D01*
X145300188Y-93384147D02*
X145300188Y-93984147D01*
X145300188Y-93469861D02*
X145257331Y-93427004D01*
X145257331Y-93427004D02*
X145171616Y-93384147D01*
X145171616Y-93384147D02*
X145043045Y-93384147D01*
X145043045Y-93384147D02*
X144957331Y-93427004D01*
X144957331Y-93427004D02*
X144914474Y-93512718D01*
X144914474Y-93512718D02*
X144914474Y-93984147D01*
X144528759Y-93941290D02*
X144443045Y-93984147D01*
X144443045Y-93984147D02*
X144271616Y-93984147D01*
X144271616Y-93984147D02*
X144185902Y-93941290D01*
X144185902Y-93941290D02*
X144143045Y-93855575D01*
X144143045Y-93855575D02*
X144143045Y-93812718D01*
X144143045Y-93812718D02*
X144185902Y-93727004D01*
X144185902Y-93727004D02*
X144271616Y-93684147D01*
X144271616Y-93684147D02*
X144400188Y-93684147D01*
X144400188Y-93684147D02*
X144485902Y-93641290D01*
X144485902Y-93641290D02*
X144528759Y-93555575D01*
X144528759Y-93555575D02*
X144528759Y-93512718D01*
X144528759Y-93512718D02*
X144485902Y-93427004D01*
X144485902Y-93427004D02*
X144400188Y-93384147D01*
X144400188Y-93384147D02*
X144271616Y-93384147D01*
X144271616Y-93384147D02*
X144185902Y-93427004D01*
X143414474Y-93941290D02*
X143500188Y-93984147D01*
X143500188Y-93984147D02*
X143671617Y-93984147D01*
X143671617Y-93984147D02*
X143757331Y-93941290D01*
X143757331Y-93941290D02*
X143800188Y-93855575D01*
X143800188Y-93855575D02*
X143800188Y-93512718D01*
X143800188Y-93512718D02*
X143757331Y-93427004D01*
X143757331Y-93427004D02*
X143671617Y-93384147D01*
X143671617Y-93384147D02*
X143500188Y-93384147D01*
X143500188Y-93384147D02*
X143414474Y-93427004D01*
X143414474Y-93427004D02*
X143371617Y-93512718D01*
X143371617Y-93512718D02*
X143371617Y-93598432D01*
X143371617Y-93598432D02*
X143800188Y-93684147D01*
X142600188Y-93984147D02*
X142600188Y-93084147D01*
X142600188Y-93941290D02*
X142685902Y-93984147D01*
X142685902Y-93984147D02*
X142857330Y-93984147D01*
X142857330Y-93984147D02*
X142943045Y-93941290D01*
X142943045Y-93941290D02*
X142985902Y-93898432D01*
X142985902Y-93898432D02*
X143028759Y-93812718D01*
X143028759Y-93812718D02*
X143028759Y-93555575D01*
X143028759Y-93555575D02*
X142985902Y-93469861D01*
X142985902Y-93469861D02*
X142943045Y-93427004D01*
X142943045Y-93427004D02*
X142857330Y-93384147D01*
X142857330Y-93384147D02*
X142685902Y-93384147D01*
X142685902Y-93384147D02*
X142600188Y-93427004D01*
X141100188Y-93384147D02*
X141100188Y-93984147D01*
X141485902Y-93384147D02*
X141485902Y-93855575D01*
X141485902Y-93855575D02*
X141443045Y-93941290D01*
X141443045Y-93941290D02*
X141357330Y-93984147D01*
X141357330Y-93984147D02*
X141228759Y-93984147D01*
X141228759Y-93984147D02*
X141143045Y-93941290D01*
X141143045Y-93941290D02*
X141100188Y-93898432D01*
X140671616Y-93384147D02*
X140671616Y-93984147D01*
X140671616Y-93469861D02*
X140628759Y-93427004D01*
X140628759Y-93427004D02*
X140543044Y-93384147D01*
X140543044Y-93384147D02*
X140414473Y-93384147D01*
X140414473Y-93384147D02*
X140328759Y-93427004D01*
X140328759Y-93427004D02*
X140285902Y-93512718D01*
X140285902Y-93512718D02*
X140285902Y-93984147D01*
X139471616Y-93984147D02*
X139471616Y-93084147D01*
X139471616Y-93941290D02*
X139557330Y-93984147D01*
X139557330Y-93984147D02*
X139728758Y-93984147D01*
X139728758Y-93984147D02*
X139814473Y-93941290D01*
X139814473Y-93941290D02*
X139857330Y-93898432D01*
X139857330Y-93898432D02*
X139900187Y-93812718D01*
X139900187Y-93812718D02*
X139900187Y-93555575D01*
X139900187Y-93555575D02*
X139857330Y-93469861D01*
X139857330Y-93469861D02*
X139814473Y-93427004D01*
X139814473Y-93427004D02*
X139728758Y-93384147D01*
X139728758Y-93384147D02*
X139557330Y-93384147D01*
X139557330Y-93384147D02*
X139471616Y-93427004D01*
X138700187Y-93941290D02*
X138785901Y-93984147D01*
X138785901Y-93984147D02*
X138957330Y-93984147D01*
X138957330Y-93984147D02*
X139043044Y-93941290D01*
X139043044Y-93941290D02*
X139085901Y-93855575D01*
X139085901Y-93855575D02*
X139085901Y-93512718D01*
X139085901Y-93512718D02*
X139043044Y-93427004D01*
X139043044Y-93427004D02*
X138957330Y-93384147D01*
X138957330Y-93384147D02*
X138785901Y-93384147D01*
X138785901Y-93384147D02*
X138700187Y-93427004D01*
X138700187Y-93427004D02*
X138657330Y-93512718D01*
X138657330Y-93512718D02*
X138657330Y-93598432D01*
X138657330Y-93598432D02*
X139085901Y-93684147D01*
X138271615Y-93984147D02*
X138271615Y-93384147D01*
X138271615Y-93555575D02*
X138228758Y-93469861D01*
X138228758Y-93469861D02*
X138185901Y-93427004D01*
X138185901Y-93427004D02*
X138100186Y-93384147D01*
X138100186Y-93384147D02*
X138014472Y-93384147D01*
X136514472Y-93898432D02*
X136557329Y-93941290D01*
X136557329Y-93941290D02*
X136685901Y-93984147D01*
X136685901Y-93984147D02*
X136771615Y-93984147D01*
X136771615Y-93984147D02*
X136900186Y-93941290D01*
X136900186Y-93941290D02*
X136985901Y-93855575D01*
X136985901Y-93855575D02*
X137028758Y-93769861D01*
X137028758Y-93769861D02*
X137071615Y-93598432D01*
X137071615Y-93598432D02*
X137071615Y-93469861D01*
X137071615Y-93469861D02*
X137028758Y-93298432D01*
X137028758Y-93298432D02*
X136985901Y-93212718D01*
X136985901Y-93212718D02*
X136900186Y-93127004D01*
X136900186Y-93127004D02*
X136771615Y-93084147D01*
X136771615Y-93084147D02*
X136685901Y-93084147D01*
X136685901Y-93084147D02*
X136557329Y-93127004D01*
X136557329Y-93127004D02*
X136514472Y-93169861D01*
X135614472Y-93898432D02*
X135657329Y-93941290D01*
X135657329Y-93941290D02*
X135785901Y-93984147D01*
X135785901Y-93984147D02*
X135871615Y-93984147D01*
X135871615Y-93984147D02*
X136000186Y-93941290D01*
X136000186Y-93941290D02*
X136085901Y-93855575D01*
X136085901Y-93855575D02*
X136128758Y-93769861D01*
X136128758Y-93769861D02*
X136171615Y-93598432D01*
X136171615Y-93598432D02*
X136171615Y-93469861D01*
X136171615Y-93469861D02*
X136128758Y-93298432D01*
X136128758Y-93298432D02*
X136085901Y-93212718D01*
X136085901Y-93212718D02*
X136000186Y-93127004D01*
X136000186Y-93127004D02*
X135871615Y-93084147D01*
X135871615Y-93084147D02*
X135785901Y-93084147D01*
X135785901Y-93084147D02*
X135657329Y-93127004D01*
X135657329Y-93127004D02*
X135614472Y-93169861D01*
X134243044Y-93512718D02*
X134114472Y-93555575D01*
X134114472Y-93555575D02*
X134071615Y-93598432D01*
X134071615Y-93598432D02*
X134028758Y-93684147D01*
X134028758Y-93684147D02*
X134028758Y-93812718D01*
X134028758Y-93812718D02*
X134071615Y-93898432D01*
X134071615Y-93898432D02*
X134114472Y-93941290D01*
X134114472Y-93941290D02*
X134200187Y-93984147D01*
X134200187Y-93984147D02*
X134543044Y-93984147D01*
X134543044Y-93984147D02*
X134543044Y-93084147D01*
X134543044Y-93084147D02*
X134243044Y-93084147D01*
X134243044Y-93084147D02*
X134157330Y-93127004D01*
X134157330Y-93127004D02*
X134114472Y-93169861D01*
X134114472Y-93169861D02*
X134071615Y-93255575D01*
X134071615Y-93255575D02*
X134071615Y-93341290D01*
X134071615Y-93341290D02*
X134114472Y-93427004D01*
X134114472Y-93427004D02*
X134157330Y-93469861D01*
X134157330Y-93469861D02*
X134243044Y-93512718D01*
X134243044Y-93512718D02*
X134543044Y-93512718D01*
X133471615Y-93555575D02*
X133471615Y-93984147D01*
X133771615Y-93084147D02*
X133471615Y-93555575D01*
X133471615Y-93555575D02*
X133171615Y-93084147D01*
X132871615Y-93641290D02*
X132185901Y-93641290D01*
X131757329Y-93984147D02*
X131757329Y-93084147D01*
X131757329Y-93084147D02*
X131243043Y-93984147D01*
X131243043Y-93984147D02*
X131243043Y-93084147D01*
X130300186Y-93898432D02*
X130343043Y-93941290D01*
X130343043Y-93941290D02*
X130471615Y-93984147D01*
X130471615Y-93984147D02*
X130557329Y-93984147D01*
X130557329Y-93984147D02*
X130685900Y-93941290D01*
X130685900Y-93941290D02*
X130771615Y-93855575D01*
X130771615Y-93855575D02*
X130814472Y-93769861D01*
X130814472Y-93769861D02*
X130857329Y-93598432D01*
X130857329Y-93598432D02*
X130857329Y-93469861D01*
X130857329Y-93469861D02*
X130814472Y-93298432D01*
X130814472Y-93298432D02*
X130771615Y-93212718D01*
X130771615Y-93212718D02*
X130685900Y-93127004D01*
X130685900Y-93127004D02*
X130557329Y-93084147D01*
X130557329Y-93084147D02*
X130471615Y-93084147D01*
X130471615Y-93084147D02*
X130343043Y-93127004D01*
X130343043Y-93127004D02*
X130300186Y-93169861D01*
X129914472Y-93641290D02*
X129228758Y-93641290D01*
X128843043Y-93941290D02*
X128714472Y-93984147D01*
X128714472Y-93984147D02*
X128500186Y-93984147D01*
X128500186Y-93984147D02*
X128414472Y-93941290D01*
X128414472Y-93941290D02*
X128371614Y-93898432D01*
X128371614Y-93898432D02*
X128328757Y-93812718D01*
X128328757Y-93812718D02*
X128328757Y-93727004D01*
X128328757Y-93727004D02*
X128371614Y-93641290D01*
X128371614Y-93641290D02*
X128414472Y-93598432D01*
X128414472Y-93598432D02*
X128500186Y-93555575D01*
X128500186Y-93555575D02*
X128671614Y-93512718D01*
X128671614Y-93512718D02*
X128757329Y-93469861D01*
X128757329Y-93469861D02*
X128800186Y-93427004D01*
X128800186Y-93427004D02*
X128843043Y-93341290D01*
X128843043Y-93341290D02*
X128843043Y-93255575D01*
X128843043Y-93255575D02*
X128800186Y-93169861D01*
X128800186Y-93169861D02*
X128757329Y-93127004D01*
X128757329Y-93127004D02*
X128671614Y-93084147D01*
X128671614Y-93084147D02*
X128457329Y-93084147D01*
X128457329Y-93084147D02*
X128328757Y-93127004D01*
X127985900Y-93727004D02*
X127557329Y-93727004D01*
X128071614Y-93984147D02*
X127771614Y-93084147D01*
X127771614Y-93084147D02*
X127471614Y-93984147D01*
X126100186Y-93384147D02*
X126100186Y-93984147D01*
X126314471Y-93041290D02*
X126528757Y-93684147D01*
X126528757Y-93684147D02*
X125971614Y-93684147D01*
X125628757Y-93898432D02*
X125585900Y-93941290D01*
X125585900Y-93941290D02*
X125628757Y-93984147D01*
X125628757Y-93984147D02*
X125671614Y-93941290D01*
X125671614Y-93941290D02*
X125628757Y-93898432D01*
X125628757Y-93898432D02*
X125628757Y-93984147D01*
X125028757Y-93084147D02*
X124943043Y-93084147D01*
X124943043Y-93084147D02*
X124857329Y-93127004D01*
X124857329Y-93127004D02*
X124814472Y-93169861D01*
X124814472Y-93169861D02*
X124771614Y-93255575D01*
X124771614Y-93255575D02*
X124728757Y-93427004D01*
X124728757Y-93427004D02*
X124728757Y-93641290D01*
X124728757Y-93641290D02*
X124771614Y-93812718D01*
X124771614Y-93812718D02*
X124814472Y-93898432D01*
X124814472Y-93898432D02*
X124857329Y-93941290D01*
X124857329Y-93941290D02*
X124943043Y-93984147D01*
X124943043Y-93984147D02*
X125028757Y-93984147D01*
X125028757Y-93984147D02*
X125114472Y-93941290D01*
X125114472Y-93941290D02*
X125157329Y-93898432D01*
X125157329Y-93898432D02*
X125200186Y-93812718D01*
X125200186Y-93812718D02*
X125243043Y-93641290D01*
X125243043Y-93641290D02*
X125243043Y-93427004D01*
X125243043Y-93427004D02*
X125200186Y-93255575D01*
X125200186Y-93255575D02*
X125157329Y-93169861D01*
X125157329Y-93169861D02*
X125114472Y-93127004D01*
X125114472Y-93127004D02*
X125028757Y-93084147D01*
X147743045Y-95775954D02*
X147785902Y-95733097D01*
X147785902Y-95733097D02*
X147871616Y-95604525D01*
X147871616Y-95604525D02*
X147914474Y-95518811D01*
X147914474Y-95518811D02*
X147957331Y-95390240D01*
X147957331Y-95390240D02*
X148000188Y-95175954D01*
X148000188Y-95175954D02*
X148000188Y-95004525D01*
X148000188Y-95004525D02*
X147957331Y-94790240D01*
X147957331Y-94790240D02*
X147914474Y-94661668D01*
X147914474Y-94661668D02*
X147871616Y-94575954D01*
X147871616Y-94575954D02*
X147785902Y-94447382D01*
X147785902Y-94447382D02*
X147743045Y-94404525D01*
X147014474Y-95390240D02*
X147100188Y-95433097D01*
X147100188Y-95433097D02*
X147271616Y-95433097D01*
X147271616Y-95433097D02*
X147357331Y-95390240D01*
X147357331Y-95390240D02*
X147400188Y-95347382D01*
X147400188Y-95347382D02*
X147443045Y-95261668D01*
X147443045Y-95261668D02*
X147443045Y-95004525D01*
X147443045Y-95004525D02*
X147400188Y-94918811D01*
X147400188Y-94918811D02*
X147357331Y-94875954D01*
X147357331Y-94875954D02*
X147271616Y-94833097D01*
X147271616Y-94833097D02*
X147100188Y-94833097D01*
X147100188Y-94833097D02*
X147014474Y-94875954D01*
X146714473Y-95775954D02*
X146671616Y-95733097D01*
X146671616Y-95733097D02*
X146585902Y-95604525D01*
X146585902Y-95604525D02*
X146543045Y-95518811D01*
X146543045Y-95518811D02*
X146500187Y-95390240D01*
X146500187Y-95390240D02*
X146457330Y-95175954D01*
X146457330Y-95175954D02*
X146457330Y-95004525D01*
X146457330Y-95004525D02*
X146500187Y-94790240D01*
X146500187Y-94790240D02*
X146543045Y-94661668D01*
X146543045Y-94661668D02*
X146585902Y-94575954D01*
X146585902Y-94575954D02*
X146671616Y-94447382D01*
X146671616Y-94447382D02*
X146714473Y-94404525D01*
X145385902Y-94618811D02*
X145343045Y-94575954D01*
X145343045Y-94575954D02*
X145257331Y-94533097D01*
X145257331Y-94533097D02*
X145043045Y-94533097D01*
X145043045Y-94533097D02*
X144957331Y-94575954D01*
X144957331Y-94575954D02*
X144914473Y-94618811D01*
X144914473Y-94618811D02*
X144871616Y-94704525D01*
X144871616Y-94704525D02*
X144871616Y-94790240D01*
X144871616Y-94790240D02*
X144914473Y-94918811D01*
X144914473Y-94918811D02*
X145428759Y-95433097D01*
X145428759Y-95433097D02*
X144871616Y-95433097D01*
X144314473Y-94533097D02*
X144228759Y-94533097D01*
X144228759Y-94533097D02*
X144143045Y-94575954D01*
X144143045Y-94575954D02*
X144100188Y-94618811D01*
X144100188Y-94618811D02*
X144057330Y-94704525D01*
X144057330Y-94704525D02*
X144014473Y-94875954D01*
X144014473Y-94875954D02*
X144014473Y-95090240D01*
X144014473Y-95090240D02*
X144057330Y-95261668D01*
X144057330Y-95261668D02*
X144100188Y-95347382D01*
X144100188Y-95347382D02*
X144143045Y-95390240D01*
X144143045Y-95390240D02*
X144228759Y-95433097D01*
X144228759Y-95433097D02*
X144314473Y-95433097D01*
X144314473Y-95433097D02*
X144400188Y-95390240D01*
X144400188Y-95390240D02*
X144443045Y-95347382D01*
X144443045Y-95347382D02*
X144485902Y-95261668D01*
X144485902Y-95261668D02*
X144528759Y-95090240D01*
X144528759Y-95090240D02*
X144528759Y-94875954D01*
X144528759Y-94875954D02*
X144485902Y-94704525D01*
X144485902Y-94704525D02*
X144443045Y-94618811D01*
X144443045Y-94618811D02*
X144400188Y-94575954D01*
X144400188Y-94575954D02*
X144314473Y-94533097D01*
X143671616Y-94618811D02*
X143628759Y-94575954D01*
X143628759Y-94575954D02*
X143543045Y-94533097D01*
X143543045Y-94533097D02*
X143328759Y-94533097D01*
X143328759Y-94533097D02*
X143243045Y-94575954D01*
X143243045Y-94575954D02*
X143200187Y-94618811D01*
X143200187Y-94618811D02*
X143157330Y-94704525D01*
X143157330Y-94704525D02*
X143157330Y-94790240D01*
X143157330Y-94790240D02*
X143200187Y-94918811D01*
X143200187Y-94918811D02*
X143714473Y-95433097D01*
X143714473Y-95433097D02*
X143157330Y-95433097D01*
X142343044Y-94533097D02*
X142771616Y-94533097D01*
X142771616Y-94533097D02*
X142814473Y-94961668D01*
X142814473Y-94961668D02*
X142771616Y-94918811D01*
X142771616Y-94918811D02*
X142685902Y-94875954D01*
X142685902Y-94875954D02*
X142471616Y-94875954D01*
X142471616Y-94875954D02*
X142385902Y-94918811D01*
X142385902Y-94918811D02*
X142343044Y-94961668D01*
X142343044Y-94961668D02*
X142300187Y-95047382D01*
X142300187Y-95047382D02*
X142300187Y-95261668D01*
X142300187Y-95261668D02*
X142343044Y-95347382D01*
X142343044Y-95347382D02*
X142385902Y-95390240D01*
X142385902Y-95390240D02*
X142471616Y-95433097D01*
X142471616Y-95433097D02*
X142685902Y-95433097D01*
X142685902Y-95433097D02*
X142771616Y-95390240D01*
X142771616Y-95390240D02*
X142814473Y-95347382D01*
X141271616Y-95390240D02*
X141143045Y-95433097D01*
X141143045Y-95433097D02*
X140928759Y-95433097D01*
X140928759Y-95433097D02*
X140843045Y-95390240D01*
X140843045Y-95390240D02*
X140800187Y-95347382D01*
X140800187Y-95347382D02*
X140757330Y-95261668D01*
X140757330Y-95261668D02*
X140757330Y-95175954D01*
X140757330Y-95175954D02*
X140800187Y-95090240D01*
X140800187Y-95090240D02*
X140843045Y-95047382D01*
X140843045Y-95047382D02*
X140928759Y-95004525D01*
X140928759Y-95004525D02*
X141100187Y-94961668D01*
X141100187Y-94961668D02*
X141185902Y-94918811D01*
X141185902Y-94918811D02*
X141228759Y-94875954D01*
X141228759Y-94875954D02*
X141271616Y-94790240D01*
X141271616Y-94790240D02*
X141271616Y-94704525D01*
X141271616Y-94704525D02*
X141228759Y-94618811D01*
X141228759Y-94618811D02*
X141185902Y-94575954D01*
X141185902Y-94575954D02*
X141100187Y-94533097D01*
X141100187Y-94533097D02*
X140885902Y-94533097D01*
X140885902Y-94533097D02*
X140757330Y-94575954D01*
X140371616Y-95433097D02*
X140371616Y-94533097D01*
X139985902Y-95433097D02*
X139985902Y-94961668D01*
X139985902Y-94961668D02*
X140028759Y-94875954D01*
X140028759Y-94875954D02*
X140114473Y-94833097D01*
X140114473Y-94833097D02*
X140243044Y-94833097D01*
X140243044Y-94833097D02*
X140328759Y-94875954D01*
X140328759Y-94875954D02*
X140371616Y-94918811D01*
X139557330Y-95433097D02*
X139557330Y-94833097D01*
X139557330Y-94533097D02*
X139600187Y-94575954D01*
X139600187Y-94575954D02*
X139557330Y-94618811D01*
X139557330Y-94618811D02*
X139514473Y-94575954D01*
X139514473Y-94575954D02*
X139557330Y-94533097D01*
X139557330Y-94533097D02*
X139557330Y-94618811D01*
X139128759Y-94833097D02*
X139128759Y-95433097D01*
X139128759Y-94918811D02*
X139085902Y-94875954D01*
X139085902Y-94875954D02*
X139000187Y-94833097D01*
X139000187Y-94833097D02*
X138871616Y-94833097D01*
X138871616Y-94833097D02*
X138785902Y-94875954D01*
X138785902Y-94875954D02*
X138743045Y-94961668D01*
X138743045Y-94961668D02*
X138743045Y-95433097D01*
X137928759Y-94833097D02*
X137928759Y-95433097D01*
X138314473Y-94833097D02*
X138314473Y-95304525D01*
X138314473Y-95304525D02*
X138271616Y-95390240D01*
X138271616Y-95390240D02*
X138185901Y-95433097D01*
X138185901Y-95433097D02*
X138057330Y-95433097D01*
X138057330Y-95433097D02*
X137971616Y-95390240D01*
X137971616Y-95390240D02*
X137928759Y-95347382D01*
X137500187Y-95433097D02*
X137500187Y-94833097D01*
X137500187Y-94533097D02*
X137543044Y-94575954D01*
X137543044Y-94575954D02*
X137500187Y-94618811D01*
X137500187Y-94618811D02*
X137457330Y-94575954D01*
X137457330Y-94575954D02*
X137500187Y-94533097D01*
X137500187Y-94533097D02*
X137500187Y-94618811D01*
D11*
X107382268Y-95194295D02*
X107382268Y-95765723D01*
X107382268Y-95765723D02*
X107420363Y-95880009D01*
X107420363Y-95880009D02*
X107496554Y-95956200D01*
X107496554Y-95956200D02*
X107610839Y-95994295D01*
X107610839Y-95994295D02*
X107687030Y-95994295D01*
X106620363Y-95994295D02*
X107001315Y-95994295D01*
X107001315Y-95994295D02*
X107001315Y-95194295D01*
X105896553Y-95918104D02*
X105934649Y-95956200D01*
X105934649Y-95956200D02*
X106048934Y-95994295D01*
X106048934Y-95994295D02*
X106125125Y-95994295D01*
X106125125Y-95994295D02*
X106239411Y-95956200D01*
X106239411Y-95956200D02*
X106315601Y-95880009D01*
X106315601Y-95880009D02*
X106353696Y-95803819D01*
X106353696Y-95803819D02*
X106391792Y-95651438D01*
X106391792Y-95651438D02*
X106391792Y-95537152D01*
X106391792Y-95537152D02*
X106353696Y-95384771D01*
X106353696Y-95384771D02*
X106315601Y-95308580D01*
X106315601Y-95308580D02*
X106239411Y-95232390D01*
X106239411Y-95232390D02*
X106125125Y-95194295D01*
X106125125Y-95194295D02*
X106048934Y-95194295D01*
X106048934Y-95194295D02*
X105934649Y-95232390D01*
X105934649Y-95232390D02*
X105896553Y-95270485D01*
X105325125Y-95194295D02*
X105325125Y-95765723D01*
X105325125Y-95765723D02*
X105363220Y-95880009D01*
X105363220Y-95880009D02*
X105439411Y-95956200D01*
X105439411Y-95956200D02*
X105553696Y-95994295D01*
X105553696Y-95994295D02*
X105629887Y-95994295D01*
X104563220Y-95994295D02*
X104944172Y-95994295D01*
X104944172Y-95994295D02*
X104944172Y-95194295D01*
X103839410Y-95918104D02*
X103877506Y-95956200D01*
X103877506Y-95956200D02*
X103991791Y-95994295D01*
X103991791Y-95994295D02*
X104067982Y-95994295D01*
X104067982Y-95994295D02*
X104182268Y-95956200D01*
X104182268Y-95956200D02*
X104258458Y-95880009D01*
X104258458Y-95880009D02*
X104296553Y-95803819D01*
X104296553Y-95803819D02*
X104334649Y-95651438D01*
X104334649Y-95651438D02*
X104334649Y-95537152D01*
X104334649Y-95537152D02*
X104296553Y-95384771D01*
X104296553Y-95384771D02*
X104258458Y-95308580D01*
X104258458Y-95308580D02*
X104182268Y-95232390D01*
X104182268Y-95232390D02*
X104067982Y-95194295D01*
X104067982Y-95194295D02*
X103991791Y-95194295D01*
X103991791Y-95194295D02*
X103877506Y-95232390D01*
X103877506Y-95232390D02*
X103839410Y-95270485D01*
X103267982Y-95194295D02*
X103267982Y-95765723D01*
X103267982Y-95765723D02*
X103306077Y-95880009D01*
X103306077Y-95880009D02*
X103382268Y-95956200D01*
X103382268Y-95956200D02*
X103496553Y-95994295D01*
X103496553Y-95994295D02*
X103572744Y-95994295D01*
X102506077Y-95994295D02*
X102887029Y-95994295D01*
X102887029Y-95994295D02*
X102887029Y-95194295D01*
X101782267Y-95918104D02*
X101820363Y-95956200D01*
X101820363Y-95956200D02*
X101934648Y-95994295D01*
X101934648Y-95994295D02*
X102010839Y-95994295D01*
X102010839Y-95994295D02*
X102125125Y-95956200D01*
X102125125Y-95956200D02*
X102201315Y-95880009D01*
X102201315Y-95880009D02*
X102239410Y-95803819D01*
X102239410Y-95803819D02*
X102277506Y-95651438D01*
X102277506Y-95651438D02*
X102277506Y-95537152D01*
X102277506Y-95537152D02*
X102239410Y-95384771D01*
X102239410Y-95384771D02*
X102201315Y-95308580D01*
X102201315Y-95308580D02*
X102125125Y-95232390D01*
X102125125Y-95232390D02*
X102010839Y-95194295D01*
X102010839Y-95194295D02*
X101934648Y-95194295D01*
X101934648Y-95194295D02*
X101820363Y-95232390D01*
X101820363Y-95232390D02*
X101782267Y-95270485D01*
X101210839Y-95194295D02*
X101210839Y-95765723D01*
X101210839Y-95765723D02*
X101248934Y-95880009D01*
X101248934Y-95880009D02*
X101325125Y-95956200D01*
X101325125Y-95956200D02*
X101439410Y-95994295D01*
X101439410Y-95994295D02*
X101515601Y-95994295D01*
X100448934Y-95994295D02*
X100829886Y-95994295D01*
X100829886Y-95994295D02*
X100829886Y-95194295D01*
X99725124Y-95918104D02*
X99763220Y-95956200D01*
X99763220Y-95956200D02*
X99877505Y-95994295D01*
X99877505Y-95994295D02*
X99953696Y-95994295D01*
X99953696Y-95994295D02*
X100067982Y-95956200D01*
X100067982Y-95956200D02*
X100144172Y-95880009D01*
X100144172Y-95880009D02*
X100182267Y-95803819D01*
X100182267Y-95803819D02*
X100220363Y-95651438D01*
X100220363Y-95651438D02*
X100220363Y-95537152D01*
X100220363Y-95537152D02*
X100182267Y-95384771D01*
X100182267Y-95384771D02*
X100144172Y-95308580D01*
X100144172Y-95308580D02*
X100067982Y-95232390D01*
X100067982Y-95232390D02*
X99953696Y-95194295D01*
X99953696Y-95194295D02*
X99877505Y-95194295D01*
X99877505Y-95194295D02*
X99763220Y-95232390D01*
X99763220Y-95232390D02*
X99725124Y-95270485D01*
X148013220Y-82909875D02*
X148013220Y-81909875D01*
X148013220Y-81909875D02*
X147679887Y-82624160D01*
X147679887Y-82624160D02*
X147346554Y-81909875D01*
X147346554Y-81909875D02*
X147346554Y-82909875D01*
X146441792Y-82909875D02*
X146441792Y-82386065D01*
X146441792Y-82386065D02*
X146489411Y-82290827D01*
X146489411Y-82290827D02*
X146584649Y-82243208D01*
X146584649Y-82243208D02*
X146775125Y-82243208D01*
X146775125Y-82243208D02*
X146870363Y-82290827D01*
X146441792Y-82862256D02*
X146537030Y-82909875D01*
X146537030Y-82909875D02*
X146775125Y-82909875D01*
X146775125Y-82909875D02*
X146870363Y-82862256D01*
X146870363Y-82862256D02*
X146917982Y-82767017D01*
X146917982Y-82767017D02*
X146917982Y-82671779D01*
X146917982Y-82671779D02*
X146870363Y-82576541D01*
X146870363Y-82576541D02*
X146775125Y-82528922D01*
X146775125Y-82528922D02*
X146537030Y-82528922D01*
X146537030Y-82528922D02*
X146441792Y-82481303D01*
X145965601Y-82909875D02*
X145965601Y-81909875D01*
X145870363Y-82528922D02*
X145584649Y-82909875D01*
X145584649Y-82243208D02*
X145965601Y-82624160D01*
X144775125Y-82862256D02*
X144870363Y-82909875D01*
X144870363Y-82909875D02*
X145060839Y-82909875D01*
X145060839Y-82909875D02*
X145156077Y-82862256D01*
X145156077Y-82862256D02*
X145203696Y-82767017D01*
X145203696Y-82767017D02*
X145203696Y-82386065D01*
X145203696Y-82386065D02*
X145156077Y-82290827D01*
X145156077Y-82290827D02*
X145060839Y-82243208D01*
X145060839Y-82243208D02*
X144870363Y-82243208D01*
X144870363Y-82243208D02*
X144775125Y-82290827D01*
X144775125Y-82290827D02*
X144727506Y-82386065D01*
X144727506Y-82386065D02*
X144727506Y-82481303D01*
X144727506Y-82481303D02*
X145203696Y-82576541D01*
X143584648Y-82862256D02*
X143489410Y-82909875D01*
X143489410Y-82909875D02*
X143298934Y-82909875D01*
X143298934Y-82909875D02*
X143203696Y-82862256D01*
X143203696Y-82862256D02*
X143156077Y-82767017D01*
X143156077Y-82767017D02*
X143156077Y-82719398D01*
X143156077Y-82719398D02*
X143203696Y-82624160D01*
X143203696Y-82624160D02*
X143298934Y-82576541D01*
X143298934Y-82576541D02*
X143441791Y-82576541D01*
X143441791Y-82576541D02*
X143537029Y-82528922D01*
X143537029Y-82528922D02*
X143584648Y-82433684D01*
X143584648Y-82433684D02*
X143584648Y-82386065D01*
X143584648Y-82386065D02*
X143537029Y-82290827D01*
X143537029Y-82290827D02*
X143441791Y-82243208D01*
X143441791Y-82243208D02*
X143298934Y-82243208D01*
X143298934Y-82243208D02*
X143203696Y-82290827D01*
X142298934Y-82243208D02*
X142298934Y-82909875D01*
X142727505Y-82243208D02*
X142727505Y-82767017D01*
X142727505Y-82767017D02*
X142679886Y-82862256D01*
X142679886Y-82862256D02*
X142584648Y-82909875D01*
X142584648Y-82909875D02*
X142441791Y-82909875D01*
X142441791Y-82909875D02*
X142346553Y-82862256D01*
X142346553Y-82862256D02*
X142298934Y-82814636D01*
X141822743Y-82909875D02*
X141822743Y-82243208D01*
X141822743Y-82433684D02*
X141775124Y-82338446D01*
X141775124Y-82338446D02*
X141727505Y-82290827D01*
X141727505Y-82290827D02*
X141632267Y-82243208D01*
X141632267Y-82243208D02*
X141537029Y-82243208D01*
X140822743Y-82862256D02*
X140917981Y-82909875D01*
X140917981Y-82909875D02*
X141108457Y-82909875D01*
X141108457Y-82909875D02*
X141203695Y-82862256D01*
X141203695Y-82862256D02*
X141251314Y-82767017D01*
X141251314Y-82767017D02*
X141251314Y-82386065D01*
X141251314Y-82386065D02*
X141203695Y-82290827D01*
X141203695Y-82290827D02*
X141108457Y-82243208D01*
X141108457Y-82243208D02*
X140917981Y-82243208D01*
X140917981Y-82243208D02*
X140822743Y-82290827D01*
X140822743Y-82290827D02*
X140775124Y-82386065D01*
X140775124Y-82386065D02*
X140775124Y-82481303D01*
X140775124Y-82481303D02*
X141251314Y-82576541D01*
X139727504Y-82243208D02*
X139346552Y-82243208D01*
X139584647Y-81909875D02*
X139584647Y-82767017D01*
X139584647Y-82767017D02*
X139537028Y-82862256D01*
X139537028Y-82862256D02*
X139441790Y-82909875D01*
X139441790Y-82909875D02*
X139346552Y-82909875D01*
X139013218Y-82909875D02*
X139013218Y-81909875D01*
X138584647Y-82909875D02*
X138584647Y-82386065D01*
X138584647Y-82386065D02*
X138632266Y-82290827D01*
X138632266Y-82290827D02*
X138727504Y-82243208D01*
X138727504Y-82243208D02*
X138870361Y-82243208D01*
X138870361Y-82243208D02*
X138965599Y-82290827D01*
X138965599Y-82290827D02*
X139013218Y-82338446D01*
X138108456Y-82909875D02*
X138108456Y-82243208D01*
X138108456Y-81909875D02*
X138156075Y-81957494D01*
X138156075Y-81957494D02*
X138108456Y-82005113D01*
X138108456Y-82005113D02*
X138060837Y-81957494D01*
X138060837Y-81957494D02*
X138108456Y-81909875D01*
X138108456Y-81909875D02*
X138108456Y-82005113D01*
X137679885Y-82862256D02*
X137584647Y-82909875D01*
X137584647Y-82909875D02*
X137394171Y-82909875D01*
X137394171Y-82909875D02*
X137298933Y-82862256D01*
X137298933Y-82862256D02*
X137251314Y-82767017D01*
X137251314Y-82767017D02*
X137251314Y-82719398D01*
X137251314Y-82719398D02*
X137298933Y-82624160D01*
X137298933Y-82624160D02*
X137394171Y-82576541D01*
X137394171Y-82576541D02*
X137537028Y-82576541D01*
X137537028Y-82576541D02*
X137632266Y-82528922D01*
X137632266Y-82528922D02*
X137679885Y-82433684D01*
X137679885Y-82433684D02*
X137679885Y-82386065D01*
X137679885Y-82386065D02*
X137632266Y-82290827D01*
X137632266Y-82290827D02*
X137537028Y-82243208D01*
X137537028Y-82243208D02*
X137394171Y-82243208D01*
X137394171Y-82243208D02*
X137298933Y-82290827D01*
X135632266Y-82243208D02*
X135632266Y-82909875D01*
X136060837Y-82243208D02*
X136060837Y-82767017D01*
X136060837Y-82767017D02*
X136013218Y-82862256D01*
X136013218Y-82862256D02*
X135917980Y-82909875D01*
X135917980Y-82909875D02*
X135775123Y-82909875D01*
X135775123Y-82909875D02*
X135679885Y-82862256D01*
X135679885Y-82862256D02*
X135632266Y-82814636D01*
X135156075Y-82243208D02*
X135156075Y-82909875D01*
X135156075Y-82338446D02*
X135108456Y-82290827D01*
X135108456Y-82290827D02*
X135013218Y-82243208D01*
X135013218Y-82243208D02*
X134870361Y-82243208D01*
X134870361Y-82243208D02*
X134775123Y-82290827D01*
X134775123Y-82290827D02*
X134727504Y-82386065D01*
X134727504Y-82386065D02*
X134727504Y-82909875D01*
X134251313Y-82909875D02*
X134251313Y-82243208D01*
X134251313Y-81909875D02*
X134298932Y-81957494D01*
X134298932Y-81957494D02*
X134251313Y-82005113D01*
X134251313Y-82005113D02*
X134203694Y-81957494D01*
X134203694Y-81957494D02*
X134251313Y-81909875D01*
X134251313Y-81909875D02*
X134251313Y-82005113D01*
X133917980Y-82243208D02*
X133537028Y-82243208D01*
X133775123Y-81909875D02*
X133775123Y-82767017D01*
X133775123Y-82767017D02*
X133727504Y-82862256D01*
X133727504Y-82862256D02*
X133632266Y-82909875D01*
X133632266Y-82909875D02*
X133537028Y-82909875D01*
X132441789Y-82909875D02*
X132441789Y-82243208D01*
X132441789Y-81909875D02*
X132489408Y-81957494D01*
X132489408Y-81957494D02*
X132441789Y-82005113D01*
X132441789Y-82005113D02*
X132394170Y-81957494D01*
X132394170Y-81957494D02*
X132441789Y-81909875D01*
X132441789Y-81909875D02*
X132441789Y-82005113D01*
X132013218Y-82862256D02*
X131917980Y-82909875D01*
X131917980Y-82909875D02*
X131727504Y-82909875D01*
X131727504Y-82909875D02*
X131632266Y-82862256D01*
X131632266Y-82862256D02*
X131584647Y-82767017D01*
X131584647Y-82767017D02*
X131584647Y-82719398D01*
X131584647Y-82719398D02*
X131632266Y-82624160D01*
X131632266Y-82624160D02*
X131727504Y-82576541D01*
X131727504Y-82576541D02*
X131870361Y-82576541D01*
X131870361Y-82576541D02*
X131965599Y-82528922D01*
X131965599Y-82528922D02*
X132013218Y-82433684D01*
X132013218Y-82433684D02*
X132013218Y-82386065D01*
X132013218Y-82386065D02*
X131965599Y-82290827D01*
X131965599Y-82290827D02*
X131870361Y-82243208D01*
X131870361Y-82243208D02*
X131727504Y-82243208D01*
X131727504Y-82243208D02*
X131632266Y-82290827D01*
X130394170Y-82243208D02*
X130394170Y-83243208D01*
X130394170Y-82290827D02*
X130298932Y-82243208D01*
X130298932Y-82243208D02*
X130108456Y-82243208D01*
X130108456Y-82243208D02*
X130013218Y-82290827D01*
X130013218Y-82290827D02*
X129965599Y-82338446D01*
X129965599Y-82338446D02*
X129917980Y-82433684D01*
X129917980Y-82433684D02*
X129917980Y-82719398D01*
X129917980Y-82719398D02*
X129965599Y-82814636D01*
X129965599Y-82814636D02*
X130013218Y-82862256D01*
X130013218Y-82862256D02*
X130108456Y-82909875D01*
X130108456Y-82909875D02*
X130298932Y-82909875D01*
X130298932Y-82909875D02*
X130394170Y-82862256D01*
X129346551Y-82909875D02*
X129441789Y-82862256D01*
X129441789Y-82862256D02*
X129489408Y-82767017D01*
X129489408Y-82767017D02*
X129489408Y-81909875D01*
X128537027Y-82243208D02*
X128537027Y-82909875D01*
X128965598Y-82243208D02*
X128965598Y-82767017D01*
X128965598Y-82767017D02*
X128917979Y-82862256D01*
X128917979Y-82862256D02*
X128822741Y-82909875D01*
X128822741Y-82909875D02*
X128679884Y-82909875D01*
X128679884Y-82909875D02*
X128584646Y-82862256D01*
X128584646Y-82862256D02*
X128537027Y-82814636D01*
X127632265Y-82243208D02*
X127632265Y-83052732D01*
X127632265Y-83052732D02*
X127679884Y-83147970D01*
X127679884Y-83147970D02*
X127727503Y-83195589D01*
X127727503Y-83195589D02*
X127822741Y-83243208D01*
X127822741Y-83243208D02*
X127965598Y-83243208D01*
X127965598Y-83243208D02*
X128060836Y-83195589D01*
X127632265Y-82862256D02*
X127727503Y-82909875D01*
X127727503Y-82909875D02*
X127917979Y-82909875D01*
X127917979Y-82909875D02*
X128013217Y-82862256D01*
X128013217Y-82862256D02*
X128060836Y-82814636D01*
X128060836Y-82814636D02*
X128108455Y-82719398D01*
X128108455Y-82719398D02*
X128108455Y-82433684D01*
X128108455Y-82433684D02*
X128060836Y-82338446D01*
X128060836Y-82338446D02*
X128013217Y-82290827D01*
X128013217Y-82290827D02*
X127917979Y-82243208D01*
X127917979Y-82243208D02*
X127727503Y-82243208D01*
X127727503Y-82243208D02*
X127632265Y-82290827D01*
X126727503Y-82243208D02*
X126727503Y-83052732D01*
X126727503Y-83052732D02*
X126775122Y-83147970D01*
X126775122Y-83147970D02*
X126822741Y-83195589D01*
X126822741Y-83195589D02*
X126917979Y-83243208D01*
X126917979Y-83243208D02*
X127060836Y-83243208D01*
X127060836Y-83243208D02*
X127156074Y-83195589D01*
X126727503Y-82862256D02*
X126822741Y-82909875D01*
X126822741Y-82909875D02*
X127013217Y-82909875D01*
X127013217Y-82909875D02*
X127108455Y-82862256D01*
X127108455Y-82862256D02*
X127156074Y-82814636D01*
X127156074Y-82814636D02*
X127203693Y-82719398D01*
X127203693Y-82719398D02*
X127203693Y-82433684D01*
X127203693Y-82433684D02*
X127156074Y-82338446D01*
X127156074Y-82338446D02*
X127108455Y-82290827D01*
X127108455Y-82290827D02*
X127013217Y-82243208D01*
X127013217Y-82243208D02*
X126822741Y-82243208D01*
X126822741Y-82243208D02*
X126727503Y-82290827D01*
X125870360Y-82862256D02*
X125965598Y-82909875D01*
X125965598Y-82909875D02*
X126156074Y-82909875D01*
X126156074Y-82909875D02*
X126251312Y-82862256D01*
X126251312Y-82862256D02*
X126298931Y-82767017D01*
X126298931Y-82767017D02*
X126298931Y-82386065D01*
X126298931Y-82386065D02*
X126251312Y-82290827D01*
X126251312Y-82290827D02*
X126156074Y-82243208D01*
X126156074Y-82243208D02*
X125965598Y-82243208D01*
X125965598Y-82243208D02*
X125870360Y-82290827D01*
X125870360Y-82290827D02*
X125822741Y-82386065D01*
X125822741Y-82386065D02*
X125822741Y-82481303D01*
X125822741Y-82481303D02*
X126298931Y-82576541D01*
X124965598Y-82909875D02*
X124965598Y-81909875D01*
X124965598Y-82862256D02*
X125060836Y-82909875D01*
X125060836Y-82909875D02*
X125251312Y-82909875D01*
X125251312Y-82909875D02*
X125346550Y-82862256D01*
X125346550Y-82862256D02*
X125394169Y-82814636D01*
X125394169Y-82814636D02*
X125441788Y-82719398D01*
X125441788Y-82719398D02*
X125441788Y-82433684D01*
X125441788Y-82433684D02*
X125394169Y-82338446D01*
X125394169Y-82338446D02*
X125346550Y-82290827D01*
X125346550Y-82290827D02*
X125251312Y-82243208D01*
X125251312Y-82243208D02*
X125060836Y-82243208D01*
X125060836Y-82243208D02*
X124965598Y-82290827D01*
X123727502Y-82909875D02*
X123727502Y-82243208D01*
X123727502Y-81909875D02*
X123775121Y-81957494D01*
X123775121Y-81957494D02*
X123727502Y-82005113D01*
X123727502Y-82005113D02*
X123679883Y-81957494D01*
X123679883Y-81957494D02*
X123727502Y-81909875D01*
X123727502Y-81909875D02*
X123727502Y-82005113D01*
X123251312Y-82243208D02*
X123251312Y-82909875D01*
X123251312Y-82338446D02*
X123203693Y-82290827D01*
X123203693Y-82290827D02*
X123108455Y-82243208D01*
X123108455Y-82243208D02*
X122965598Y-82243208D01*
X122965598Y-82243208D02*
X122870360Y-82290827D01*
X122870360Y-82290827D02*
X122822741Y-82386065D01*
X122822741Y-82386065D02*
X122822741Y-82909875D01*
X121584645Y-82909875D02*
X121584645Y-82243208D01*
X121584645Y-82433684D02*
X121537026Y-82338446D01*
X121537026Y-82338446D02*
X121489407Y-82290827D01*
X121489407Y-82290827D02*
X121394169Y-82243208D01*
X121394169Y-82243208D02*
X121298931Y-82243208D01*
X120965597Y-82909875D02*
X120965597Y-82243208D01*
X120965597Y-81909875D02*
X121013216Y-81957494D01*
X121013216Y-81957494D02*
X120965597Y-82005113D01*
X120965597Y-82005113D02*
X120917978Y-81957494D01*
X120917978Y-81957494D02*
X120965597Y-81909875D01*
X120965597Y-81909875D02*
X120965597Y-82005113D01*
X120060836Y-82243208D02*
X120060836Y-83052732D01*
X120060836Y-83052732D02*
X120108455Y-83147970D01*
X120108455Y-83147970D02*
X120156074Y-83195589D01*
X120156074Y-83195589D02*
X120251312Y-83243208D01*
X120251312Y-83243208D02*
X120394169Y-83243208D01*
X120394169Y-83243208D02*
X120489407Y-83195589D01*
X120060836Y-82862256D02*
X120156074Y-82909875D01*
X120156074Y-82909875D02*
X120346550Y-82909875D01*
X120346550Y-82909875D02*
X120441788Y-82862256D01*
X120441788Y-82862256D02*
X120489407Y-82814636D01*
X120489407Y-82814636D02*
X120537026Y-82719398D01*
X120537026Y-82719398D02*
X120537026Y-82433684D01*
X120537026Y-82433684D02*
X120489407Y-82338446D01*
X120489407Y-82338446D02*
X120441788Y-82290827D01*
X120441788Y-82290827D02*
X120346550Y-82243208D01*
X120346550Y-82243208D02*
X120156074Y-82243208D01*
X120156074Y-82243208D02*
X120060836Y-82290827D01*
X119584645Y-82909875D02*
X119584645Y-81909875D01*
X119156074Y-82909875D02*
X119156074Y-82386065D01*
X119156074Y-82386065D02*
X119203693Y-82290827D01*
X119203693Y-82290827D02*
X119298931Y-82243208D01*
X119298931Y-82243208D02*
X119441788Y-82243208D01*
X119441788Y-82243208D02*
X119537026Y-82290827D01*
X119537026Y-82290827D02*
X119584645Y-82338446D01*
X118822740Y-82243208D02*
X118441788Y-82243208D01*
X118679883Y-81909875D02*
X118679883Y-82767017D01*
X118679883Y-82767017D02*
X118632264Y-82862256D01*
X118632264Y-82862256D02*
X118537026Y-82909875D01*
X118537026Y-82909875D02*
X118441788Y-82909875D01*
X117441787Y-82243208D02*
X117251311Y-82909875D01*
X117251311Y-82909875D02*
X117060835Y-82433684D01*
X117060835Y-82433684D02*
X116870359Y-82909875D01*
X116870359Y-82909875D02*
X116679883Y-82243208D01*
X115870359Y-82909875D02*
X115870359Y-82386065D01*
X115870359Y-82386065D02*
X115917978Y-82290827D01*
X115917978Y-82290827D02*
X116013216Y-82243208D01*
X116013216Y-82243208D02*
X116203692Y-82243208D01*
X116203692Y-82243208D02*
X116298930Y-82290827D01*
X115870359Y-82862256D02*
X115965597Y-82909875D01*
X115965597Y-82909875D02*
X116203692Y-82909875D01*
X116203692Y-82909875D02*
X116298930Y-82862256D01*
X116298930Y-82862256D02*
X116346549Y-82767017D01*
X116346549Y-82767017D02*
X116346549Y-82671779D01*
X116346549Y-82671779D02*
X116298930Y-82576541D01*
X116298930Y-82576541D02*
X116203692Y-82528922D01*
X116203692Y-82528922D02*
X115965597Y-82528922D01*
X115965597Y-82528922D02*
X115870359Y-82481303D01*
X115489406Y-82243208D02*
X115251311Y-82909875D01*
X115013216Y-82243208D02*
X115251311Y-82909875D01*
X115251311Y-82909875D02*
X115346549Y-83147970D01*
X115346549Y-83147970D02*
X115394168Y-83195589D01*
X115394168Y-83195589D02*
X115489406Y-83243208D01*
X114632263Y-82814636D02*
X114584644Y-82862256D01*
X114584644Y-82862256D02*
X114632263Y-82909875D01*
X114632263Y-82909875D02*
X114679882Y-82862256D01*
X114679882Y-82862256D02*
X114632263Y-82814636D01*
X114632263Y-82814636D02*
X114632263Y-82909875D01*
X148013220Y-84519819D02*
X148013220Y-83519819D01*
X148013220Y-83519819D02*
X147632268Y-83519819D01*
X147632268Y-83519819D02*
X147537030Y-83567438D01*
X147537030Y-83567438D02*
X147489411Y-83615057D01*
X147489411Y-83615057D02*
X147441792Y-83710295D01*
X147441792Y-83710295D02*
X147441792Y-83853152D01*
X147441792Y-83853152D02*
X147489411Y-83948390D01*
X147489411Y-83948390D02*
X147537030Y-83996009D01*
X147537030Y-83996009D02*
X147632268Y-84043628D01*
X147632268Y-84043628D02*
X148013220Y-84043628D01*
X146870363Y-84519819D02*
X146965601Y-84472200D01*
X146965601Y-84472200D02*
X147013220Y-84424580D01*
X147013220Y-84424580D02*
X147060839Y-84329342D01*
X147060839Y-84329342D02*
X147060839Y-84043628D01*
X147060839Y-84043628D02*
X147013220Y-83948390D01*
X147013220Y-83948390D02*
X146965601Y-83900771D01*
X146965601Y-83900771D02*
X146870363Y-83853152D01*
X146870363Y-83853152D02*
X146727506Y-83853152D01*
X146727506Y-83853152D02*
X146632268Y-83900771D01*
X146632268Y-83900771D02*
X146584649Y-83948390D01*
X146584649Y-83948390D02*
X146537030Y-84043628D01*
X146537030Y-84043628D02*
X146537030Y-84329342D01*
X146537030Y-84329342D02*
X146584649Y-84424580D01*
X146584649Y-84424580D02*
X146632268Y-84472200D01*
X146632268Y-84472200D02*
X146727506Y-84519819D01*
X146727506Y-84519819D02*
X146870363Y-84519819D01*
X145965601Y-84519819D02*
X146060839Y-84472200D01*
X146060839Y-84472200D02*
X146108458Y-84376961D01*
X146108458Y-84376961D02*
X146108458Y-83519819D01*
X145156077Y-84519819D02*
X145156077Y-83996009D01*
X145156077Y-83996009D02*
X145203696Y-83900771D01*
X145203696Y-83900771D02*
X145298934Y-83853152D01*
X145298934Y-83853152D02*
X145489410Y-83853152D01*
X145489410Y-83853152D02*
X145584648Y-83900771D01*
X145156077Y-84472200D02*
X145251315Y-84519819D01*
X145251315Y-84519819D02*
X145489410Y-84519819D01*
X145489410Y-84519819D02*
X145584648Y-84472200D01*
X145584648Y-84472200D02*
X145632267Y-84376961D01*
X145632267Y-84376961D02*
X145632267Y-84281723D01*
X145632267Y-84281723D02*
X145584648Y-84186485D01*
X145584648Y-84186485D02*
X145489410Y-84138866D01*
X145489410Y-84138866D02*
X145251315Y-84138866D01*
X145251315Y-84138866D02*
X145156077Y-84091247D01*
X144679886Y-84519819D02*
X144679886Y-83853152D01*
X144679886Y-84043628D02*
X144632267Y-83948390D01*
X144632267Y-83948390D02*
X144584648Y-83900771D01*
X144584648Y-83900771D02*
X144489410Y-83853152D01*
X144489410Y-83853152D02*
X144394172Y-83853152D01*
X144060838Y-84519819D02*
X144060838Y-83853152D01*
X144060838Y-83519819D02*
X144108457Y-83567438D01*
X144108457Y-83567438D02*
X144060838Y-83615057D01*
X144060838Y-83615057D02*
X144013219Y-83567438D01*
X144013219Y-83567438D02*
X144060838Y-83519819D01*
X144060838Y-83519819D02*
X144060838Y-83615057D01*
X143727505Y-83853152D02*
X143346553Y-83853152D01*
X143584648Y-83519819D02*
X143584648Y-84376961D01*
X143584648Y-84376961D02*
X143537029Y-84472200D01*
X143537029Y-84472200D02*
X143441791Y-84519819D01*
X143441791Y-84519819D02*
X143346553Y-84519819D01*
X143108457Y-83853152D02*
X142870362Y-84519819D01*
X142632267Y-83853152D02*
X142870362Y-84519819D01*
X142870362Y-84519819D02*
X142965600Y-84757914D01*
X142965600Y-84757914D02*
X143013219Y-84805533D01*
X143013219Y-84805533D02*
X143108457Y-84853152D01*
X141632266Y-83853152D02*
X141251314Y-83853152D01*
X141489409Y-84519819D02*
X141489409Y-83662676D01*
X141489409Y-83662676D02*
X141441790Y-83567438D01*
X141441790Y-83567438D02*
X141346552Y-83519819D01*
X141346552Y-83519819D02*
X141251314Y-83519819D01*
X140775123Y-84519819D02*
X140870361Y-84472200D01*
X140870361Y-84472200D02*
X140917980Y-84424580D01*
X140917980Y-84424580D02*
X140965599Y-84329342D01*
X140965599Y-84329342D02*
X140965599Y-84043628D01*
X140965599Y-84043628D02*
X140917980Y-83948390D01*
X140917980Y-83948390D02*
X140870361Y-83900771D01*
X140870361Y-83900771D02*
X140775123Y-83853152D01*
X140775123Y-83853152D02*
X140632266Y-83853152D01*
X140632266Y-83853152D02*
X140537028Y-83900771D01*
X140537028Y-83900771D02*
X140489409Y-83948390D01*
X140489409Y-83948390D02*
X140441790Y-84043628D01*
X140441790Y-84043628D02*
X140441790Y-84329342D01*
X140441790Y-84329342D02*
X140489409Y-84424580D01*
X140489409Y-84424580D02*
X140537028Y-84472200D01*
X140537028Y-84472200D02*
X140632266Y-84519819D01*
X140632266Y-84519819D02*
X140775123Y-84519819D01*
X140013218Y-84519819D02*
X140013218Y-83853152D01*
X140013218Y-84043628D02*
X139965599Y-83948390D01*
X139965599Y-83948390D02*
X139917980Y-83900771D01*
X139917980Y-83900771D02*
X139822742Y-83853152D01*
X139822742Y-83853152D02*
X139727504Y-83853152D01*
X138632265Y-84519819D02*
X138632265Y-83519819D01*
X138632265Y-83900771D02*
X138537027Y-83853152D01*
X138537027Y-83853152D02*
X138346551Y-83853152D01*
X138346551Y-83853152D02*
X138251313Y-83900771D01*
X138251313Y-83900771D02*
X138203694Y-83948390D01*
X138203694Y-83948390D02*
X138156075Y-84043628D01*
X138156075Y-84043628D02*
X138156075Y-84329342D01*
X138156075Y-84329342D02*
X138203694Y-84424580D01*
X138203694Y-84424580D02*
X138251313Y-84472200D01*
X138251313Y-84472200D02*
X138346551Y-84519819D01*
X138346551Y-84519819D02*
X138537027Y-84519819D01*
X138537027Y-84519819D02*
X138632265Y-84472200D01*
X137727503Y-84519819D02*
X137727503Y-83853152D01*
X137727503Y-84043628D02*
X137679884Y-83948390D01*
X137679884Y-83948390D02*
X137632265Y-83900771D01*
X137632265Y-83900771D02*
X137537027Y-83853152D01*
X137537027Y-83853152D02*
X137441789Y-83853152D01*
X136727503Y-84472200D02*
X136822741Y-84519819D01*
X136822741Y-84519819D02*
X137013217Y-84519819D01*
X137013217Y-84519819D02*
X137108455Y-84472200D01*
X137108455Y-84472200D02*
X137156074Y-84376961D01*
X137156074Y-84376961D02*
X137156074Y-83996009D01*
X137156074Y-83996009D02*
X137108455Y-83900771D01*
X137108455Y-83900771D02*
X137013217Y-83853152D01*
X137013217Y-83853152D02*
X136822741Y-83853152D01*
X136822741Y-83853152D02*
X136727503Y-83900771D01*
X136727503Y-83900771D02*
X136679884Y-83996009D01*
X136679884Y-83996009D02*
X136679884Y-84091247D01*
X136679884Y-84091247D02*
X137156074Y-84186485D01*
X135822741Y-84519819D02*
X135822741Y-83996009D01*
X135822741Y-83996009D02*
X135870360Y-83900771D01*
X135870360Y-83900771D02*
X135965598Y-83853152D01*
X135965598Y-83853152D02*
X136156074Y-83853152D01*
X136156074Y-83853152D02*
X136251312Y-83900771D01*
X135822741Y-84472200D02*
X135917979Y-84519819D01*
X135917979Y-84519819D02*
X136156074Y-84519819D01*
X136156074Y-84519819D02*
X136251312Y-84472200D01*
X136251312Y-84472200D02*
X136298931Y-84376961D01*
X136298931Y-84376961D02*
X136298931Y-84281723D01*
X136298931Y-84281723D02*
X136251312Y-84186485D01*
X136251312Y-84186485D02*
X136156074Y-84138866D01*
X136156074Y-84138866D02*
X135917979Y-84138866D01*
X135917979Y-84138866D02*
X135822741Y-84091247D01*
X135346550Y-84519819D02*
X135346550Y-83519819D01*
X135346550Y-83900771D02*
X135251312Y-83853152D01*
X135251312Y-83853152D02*
X135060836Y-83853152D01*
X135060836Y-83853152D02*
X134965598Y-83900771D01*
X134965598Y-83900771D02*
X134917979Y-83948390D01*
X134917979Y-83948390D02*
X134870360Y-84043628D01*
X134870360Y-84043628D02*
X134870360Y-84329342D01*
X134870360Y-84329342D02*
X134917979Y-84424580D01*
X134917979Y-84424580D02*
X134965598Y-84472200D01*
X134965598Y-84472200D02*
X135060836Y-84519819D01*
X135060836Y-84519819D02*
X135251312Y-84519819D01*
X135251312Y-84519819D02*
X135346550Y-84472200D01*
X134298931Y-84519819D02*
X134394169Y-84472200D01*
X134394169Y-84472200D02*
X134441788Y-84424580D01*
X134441788Y-84424580D02*
X134489407Y-84329342D01*
X134489407Y-84329342D02*
X134489407Y-84043628D01*
X134489407Y-84043628D02*
X134441788Y-83948390D01*
X134441788Y-83948390D02*
X134394169Y-83900771D01*
X134394169Y-83900771D02*
X134298931Y-83853152D01*
X134298931Y-83853152D02*
X134156074Y-83853152D01*
X134156074Y-83853152D02*
X134060836Y-83900771D01*
X134060836Y-83900771D02*
X134013217Y-83948390D01*
X134013217Y-83948390D02*
X133965598Y-84043628D01*
X133965598Y-84043628D02*
X133965598Y-84329342D01*
X133965598Y-84329342D02*
X134013217Y-84424580D01*
X134013217Y-84424580D02*
X134060836Y-84472200D01*
X134060836Y-84472200D02*
X134156074Y-84519819D01*
X134156074Y-84519819D02*
X134298931Y-84519819D01*
X133108455Y-84519819D02*
X133108455Y-83996009D01*
X133108455Y-83996009D02*
X133156074Y-83900771D01*
X133156074Y-83900771D02*
X133251312Y-83853152D01*
X133251312Y-83853152D02*
X133441788Y-83853152D01*
X133441788Y-83853152D02*
X133537026Y-83900771D01*
X133108455Y-84472200D02*
X133203693Y-84519819D01*
X133203693Y-84519819D02*
X133441788Y-84519819D01*
X133441788Y-84519819D02*
X133537026Y-84472200D01*
X133537026Y-84472200D02*
X133584645Y-84376961D01*
X133584645Y-84376961D02*
X133584645Y-84281723D01*
X133584645Y-84281723D02*
X133537026Y-84186485D01*
X133537026Y-84186485D02*
X133441788Y-84138866D01*
X133441788Y-84138866D02*
X133203693Y-84138866D01*
X133203693Y-84138866D02*
X133108455Y-84091247D01*
X132632264Y-84519819D02*
X132632264Y-83853152D01*
X132632264Y-84043628D02*
X132584645Y-83948390D01*
X132584645Y-83948390D02*
X132537026Y-83900771D01*
X132537026Y-83900771D02*
X132441788Y-83853152D01*
X132441788Y-83853152D02*
X132346550Y-83853152D01*
X131584645Y-84519819D02*
X131584645Y-83519819D01*
X131584645Y-84472200D02*
X131679883Y-84519819D01*
X131679883Y-84519819D02*
X131870359Y-84519819D01*
X131870359Y-84519819D02*
X131965597Y-84472200D01*
X131965597Y-84472200D02*
X132013216Y-84424580D01*
X132013216Y-84424580D02*
X132060835Y-84329342D01*
X132060835Y-84329342D02*
X132060835Y-84043628D01*
X132060835Y-84043628D02*
X132013216Y-83948390D01*
X132013216Y-83948390D02*
X131965597Y-83900771D01*
X131965597Y-83900771D02*
X131870359Y-83853152D01*
X131870359Y-83853152D02*
X131679883Y-83853152D01*
X131679883Y-83853152D02*
X131584645Y-83900771D01*
X130346549Y-84519819D02*
X130346549Y-83853152D01*
X130346549Y-83519819D02*
X130394168Y-83567438D01*
X130394168Y-83567438D02*
X130346549Y-83615057D01*
X130346549Y-83615057D02*
X130298930Y-83567438D01*
X130298930Y-83567438D02*
X130346549Y-83519819D01*
X130346549Y-83519819D02*
X130346549Y-83615057D01*
X129917978Y-84472200D02*
X129822740Y-84519819D01*
X129822740Y-84519819D02*
X129632264Y-84519819D01*
X129632264Y-84519819D02*
X129537026Y-84472200D01*
X129537026Y-84472200D02*
X129489407Y-84376961D01*
X129489407Y-84376961D02*
X129489407Y-84329342D01*
X129489407Y-84329342D02*
X129537026Y-84234104D01*
X129537026Y-84234104D02*
X129632264Y-84186485D01*
X129632264Y-84186485D02*
X129775121Y-84186485D01*
X129775121Y-84186485D02*
X129870359Y-84138866D01*
X129870359Y-84138866D02*
X129917978Y-84043628D01*
X129917978Y-84043628D02*
X129917978Y-83996009D01*
X129917978Y-83996009D02*
X129870359Y-83900771D01*
X129870359Y-83900771D02*
X129775121Y-83853152D01*
X129775121Y-83853152D02*
X129632264Y-83853152D01*
X129632264Y-83853152D02*
X129537026Y-83900771D01*
X128298930Y-84519819D02*
X128298930Y-83853152D01*
X128298930Y-83948390D02*
X128251311Y-83900771D01*
X128251311Y-83900771D02*
X128156073Y-83853152D01*
X128156073Y-83853152D02*
X128013216Y-83853152D01*
X128013216Y-83853152D02*
X127917978Y-83900771D01*
X127917978Y-83900771D02*
X127870359Y-83996009D01*
X127870359Y-83996009D02*
X127870359Y-84519819D01*
X127870359Y-83996009D02*
X127822740Y-83900771D01*
X127822740Y-83900771D02*
X127727502Y-83853152D01*
X127727502Y-83853152D02*
X127584645Y-83853152D01*
X127584645Y-83853152D02*
X127489406Y-83900771D01*
X127489406Y-83900771D02*
X127441787Y-83996009D01*
X127441787Y-83996009D02*
X127441787Y-84519819D01*
X126537026Y-84519819D02*
X126537026Y-83996009D01*
X126537026Y-83996009D02*
X126584645Y-83900771D01*
X126584645Y-83900771D02*
X126679883Y-83853152D01*
X126679883Y-83853152D02*
X126870359Y-83853152D01*
X126870359Y-83853152D02*
X126965597Y-83900771D01*
X126537026Y-84472200D02*
X126632264Y-84519819D01*
X126632264Y-84519819D02*
X126870359Y-84519819D01*
X126870359Y-84519819D02*
X126965597Y-84472200D01*
X126965597Y-84472200D02*
X127013216Y-84376961D01*
X127013216Y-84376961D02*
X127013216Y-84281723D01*
X127013216Y-84281723D02*
X126965597Y-84186485D01*
X126965597Y-84186485D02*
X126870359Y-84138866D01*
X126870359Y-84138866D02*
X126632264Y-84138866D01*
X126632264Y-84138866D02*
X126537026Y-84091247D01*
X126060835Y-84519819D02*
X126060835Y-83853152D01*
X126060835Y-84043628D02*
X126013216Y-83948390D01*
X126013216Y-83948390D02*
X125965597Y-83900771D01*
X125965597Y-83900771D02*
X125870359Y-83853152D01*
X125870359Y-83853152D02*
X125775121Y-83853152D01*
X125441787Y-84519819D02*
X125441787Y-83519819D01*
X125346549Y-84138866D02*
X125060835Y-84519819D01*
X125060835Y-83853152D02*
X125441787Y-84234104D01*
X124251311Y-84472200D02*
X124346549Y-84519819D01*
X124346549Y-84519819D02*
X124537025Y-84519819D01*
X124537025Y-84519819D02*
X124632263Y-84472200D01*
X124632263Y-84472200D02*
X124679882Y-84376961D01*
X124679882Y-84376961D02*
X124679882Y-83996009D01*
X124679882Y-83996009D02*
X124632263Y-83900771D01*
X124632263Y-83900771D02*
X124537025Y-83853152D01*
X124537025Y-83853152D02*
X124346549Y-83853152D01*
X124346549Y-83853152D02*
X124251311Y-83900771D01*
X124251311Y-83900771D02*
X124203692Y-83996009D01*
X124203692Y-83996009D02*
X124203692Y-84091247D01*
X124203692Y-84091247D02*
X124679882Y-84186485D01*
X123346549Y-84519819D02*
X123346549Y-83519819D01*
X123346549Y-84472200D02*
X123441787Y-84519819D01*
X123441787Y-84519819D02*
X123632263Y-84519819D01*
X123632263Y-84519819D02*
X123727501Y-84472200D01*
X123727501Y-84472200D02*
X123775120Y-84424580D01*
X123775120Y-84424580D02*
X123822739Y-84329342D01*
X123822739Y-84329342D02*
X123822739Y-84043628D01*
X123822739Y-84043628D02*
X123775120Y-83948390D01*
X123775120Y-83948390D02*
X123727501Y-83900771D01*
X123727501Y-83900771D02*
X123632263Y-83853152D01*
X123632263Y-83853152D02*
X123441787Y-83853152D01*
X123441787Y-83853152D02*
X123346549Y-83900771D01*
X121679882Y-84519819D02*
X121679882Y-83996009D01*
X121679882Y-83996009D02*
X121727501Y-83900771D01*
X121727501Y-83900771D02*
X121822739Y-83853152D01*
X121822739Y-83853152D02*
X122013215Y-83853152D01*
X122013215Y-83853152D02*
X122108453Y-83900771D01*
X121679882Y-84472200D02*
X121775120Y-84519819D01*
X121775120Y-84519819D02*
X122013215Y-84519819D01*
X122013215Y-84519819D02*
X122108453Y-84472200D01*
X122108453Y-84472200D02*
X122156072Y-84376961D01*
X122156072Y-84376961D02*
X122156072Y-84281723D01*
X122156072Y-84281723D02*
X122108453Y-84186485D01*
X122108453Y-84186485D02*
X122013215Y-84138866D01*
X122013215Y-84138866D02*
X121775120Y-84138866D01*
X121775120Y-84138866D02*
X121679882Y-84091247D01*
X121346548Y-83853152D02*
X120965596Y-83853152D01*
X121203691Y-83519819D02*
X121203691Y-84376961D01*
X121203691Y-84376961D02*
X121156072Y-84472200D01*
X121156072Y-84472200D02*
X121060834Y-84519819D01*
X121060834Y-84519819D02*
X120965596Y-84519819D01*
X120013214Y-83853152D02*
X119632262Y-83853152D01*
X119870357Y-83519819D02*
X119870357Y-84376961D01*
X119870357Y-84376961D02*
X119822738Y-84472200D01*
X119822738Y-84472200D02*
X119727500Y-84519819D01*
X119727500Y-84519819D02*
X119632262Y-84519819D01*
X119156071Y-84519819D02*
X119251309Y-84472200D01*
X119251309Y-84472200D02*
X119298928Y-84424580D01*
X119298928Y-84424580D02*
X119346547Y-84329342D01*
X119346547Y-84329342D02*
X119346547Y-84043628D01*
X119346547Y-84043628D02*
X119298928Y-83948390D01*
X119298928Y-83948390D02*
X119251309Y-83900771D01*
X119251309Y-83900771D02*
X119156071Y-83853152D01*
X119156071Y-83853152D02*
X119013214Y-83853152D01*
X119013214Y-83853152D02*
X118917976Y-83900771D01*
X118917976Y-83900771D02*
X118870357Y-83948390D01*
X118870357Y-83948390D02*
X118822738Y-84043628D01*
X118822738Y-84043628D02*
X118822738Y-84329342D01*
X118822738Y-84329342D02*
X118870357Y-84424580D01*
X118870357Y-84424580D02*
X118917976Y-84472200D01*
X118917976Y-84472200D02*
X119013214Y-84519819D01*
X119013214Y-84519819D02*
X119156071Y-84519819D01*
X118394166Y-83853152D02*
X118394166Y-84853152D01*
X118394166Y-83900771D02*
X118298928Y-83853152D01*
X118298928Y-83853152D02*
X118108452Y-83853152D01*
X118108452Y-83853152D02*
X118013214Y-83900771D01*
X118013214Y-83900771D02*
X117965595Y-83948390D01*
X117965595Y-83948390D02*
X117917976Y-84043628D01*
X117917976Y-84043628D02*
X117917976Y-84329342D01*
X117917976Y-84329342D02*
X117965595Y-84424580D01*
X117965595Y-84424580D02*
X118013214Y-84472200D01*
X118013214Y-84472200D02*
X118108452Y-84519819D01*
X118108452Y-84519819D02*
X118298928Y-84519819D01*
X118298928Y-84519819D02*
X118394166Y-84472200D01*
X116584642Y-84519819D02*
X116679880Y-84472200D01*
X116679880Y-84472200D02*
X116727499Y-84376961D01*
X116727499Y-84376961D02*
X116727499Y-83519819D01*
X115822737Y-84472200D02*
X115917975Y-84519819D01*
X115917975Y-84519819D02*
X116108451Y-84519819D01*
X116108451Y-84519819D02*
X116203689Y-84472200D01*
X116203689Y-84472200D02*
X116251308Y-84376961D01*
X116251308Y-84376961D02*
X116251308Y-83996009D01*
X116251308Y-83996009D02*
X116203689Y-83900771D01*
X116203689Y-83900771D02*
X116108451Y-83853152D01*
X116108451Y-83853152D02*
X115917975Y-83853152D01*
X115917975Y-83853152D02*
X115822737Y-83900771D01*
X115822737Y-83900771D02*
X115775118Y-83996009D01*
X115775118Y-83996009D02*
X115775118Y-84091247D01*
X115775118Y-84091247D02*
X116251308Y-84186485D01*
X115489403Y-83853152D02*
X115108451Y-83853152D01*
X115346546Y-84519819D02*
X115346546Y-83662676D01*
X115346546Y-83662676D02*
X115298927Y-83567438D01*
X115298927Y-83567438D02*
X115203689Y-83519819D01*
X115203689Y-83519819D02*
X115108451Y-83519819D01*
X114917974Y-83853152D02*
X114537022Y-83853152D01*
X114775117Y-83519819D02*
X114775117Y-84376961D01*
X114775117Y-84376961D02*
X114727498Y-84472200D01*
X114727498Y-84472200D02*
X114632260Y-84519819D01*
X114632260Y-84519819D02*
X114537022Y-84519819D01*
X114203688Y-84424580D02*
X114156069Y-84472200D01*
X114156069Y-84472200D02*
X114203688Y-84519819D01*
X114203688Y-84519819D02*
X114251307Y-84472200D01*
X114251307Y-84472200D02*
X114203688Y-84424580D01*
X114203688Y-84424580D02*
X114203688Y-84519819D01*
X109083333Y-87504819D02*
X109083333Y-88219104D01*
X109083333Y-88219104D02*
X109130952Y-88361961D01*
X109130952Y-88361961D02*
X109226190Y-88457200D01*
X109226190Y-88457200D02*
X109369047Y-88504819D01*
X109369047Y-88504819D02*
X109464285Y-88504819D01*
X108178571Y-87838152D02*
X108178571Y-88504819D01*
X108416666Y-87457200D02*
X108654761Y-88171485D01*
X108654761Y-88171485D02*
X108035714Y-88171485D01*
X153483333Y-89004819D02*
X153483333Y-89719104D01*
X153483333Y-89719104D02*
X153530952Y-89861961D01*
X153530952Y-89861961D02*
X153626190Y-89957200D01*
X153626190Y-89957200D02*
X153769047Y-90004819D01*
X153769047Y-90004819D02*
X153864285Y-90004819D01*
X153102380Y-89004819D02*
X152483333Y-89004819D01*
X152483333Y-89004819D02*
X152816666Y-89385771D01*
X152816666Y-89385771D02*
X152673809Y-89385771D01*
X152673809Y-89385771D02*
X152578571Y-89433390D01*
X152578571Y-89433390D02*
X152530952Y-89481009D01*
X152530952Y-89481009D02*
X152483333Y-89576247D01*
X152483333Y-89576247D02*
X152483333Y-89814342D01*
X152483333Y-89814342D02*
X152530952Y-89909580D01*
X152530952Y-89909580D02*
X152578571Y-89957200D01*
X152578571Y-89957200D02*
X152673809Y-90004819D01*
X152673809Y-90004819D02*
X152959523Y-90004819D01*
X152959523Y-90004819D02*
X153054761Y-89957200D01*
X153054761Y-89957200D02*
X153102380Y-89909580D01*
D12*
%TO.C,J4*%
X104785000Y-93830000D02*
X106225000Y-93830000D01*
X106225000Y-81580000D02*
X111425000Y-81580000D01*
X106225000Y-82150000D02*
X106225000Y-81580000D01*
X106225000Y-84690000D02*
X106225000Y-83670000D01*
X106225000Y-87230000D02*
X106225000Y-86210000D01*
X106225000Y-89770000D02*
X106225000Y-88750000D01*
X106225000Y-92310000D02*
X106225000Y-91290000D01*
X106225000Y-94400000D02*
X106225000Y-93830000D01*
X106225000Y-94400000D02*
X111425000Y-94400000D01*
X111425000Y-82150000D02*
X111425000Y-81580000D01*
X111425000Y-84690000D02*
X111425000Y-83670000D01*
X111425000Y-87230000D02*
X111425000Y-86210000D01*
X111425000Y-89770000D02*
X111425000Y-88750000D01*
X111425000Y-92310000D02*
X111425000Y-91290000D01*
X111425000Y-94400000D02*
X111425000Y-93830000D01*
%TO.C,J3*%
X149135000Y-93830000D02*
X150575000Y-93830000D01*
X150575000Y-81580000D02*
X155775000Y-81580000D01*
X150575000Y-82150000D02*
X150575000Y-81580000D01*
X150575000Y-84690000D02*
X150575000Y-83670000D01*
X150575000Y-87230000D02*
X150575000Y-86210000D01*
X150575000Y-89770000D02*
X150575000Y-88750000D01*
X150575000Y-92310000D02*
X150575000Y-91290000D01*
X150575000Y-94400000D02*
X150575000Y-93830000D01*
X150575000Y-94400000D02*
X155775000Y-94400000D01*
X155775000Y-82150000D02*
X155775000Y-81580000D01*
X155775000Y-84690000D02*
X155775000Y-83670000D01*
X155775000Y-87230000D02*
X155775000Y-86210000D01*
X155775000Y-89770000D02*
X155775000Y-88750000D01*
X155775000Y-92310000D02*
X155775000Y-91290000D01*
X155775000Y-94400000D02*
X155775000Y-93830000D01*
%TD*%
%LPC*%
D13*
%TO.C,J8*%
X107920000Y-81290000D03*
D14*
X110460000Y-81290000D03*
X113000000Y-81290000D03*
X115540000Y-81290000D03*
%TD*%
D13*
%TO.C,J5*%
X118500000Y-92700000D03*
D14*
X118500000Y-90160000D03*
X118500000Y-87620000D03*
X118500000Y-85080000D03*
%TD*%
D15*
%TO.C,J1*%
X156865000Y-94750000D03*
X156865000Y-88970000D03*
D16*
X156365000Y-96180000D03*
D17*
X160545000Y-96180000D03*
D16*
X156365000Y-87540000D03*
D17*
X160545000Y-87540000D03*
%TD*%
D18*
%TO.C,J2*%
X103000000Y-84000000D03*
D19*
X103000000Y-86540000D03*
%TD*%
D13*
%TO.C,J7*%
X125215000Y-81260000D03*
D14*
X127755000Y-81260000D03*
X130295000Y-81260000D03*
X132835000Y-81260000D03*
X135375000Y-81260000D03*
%TD*%
D20*
%TO.C,SW1*%
X112303503Y-87246497D03*
D21*
X109616497Y-89933503D03*
%TD*%
D22*
%TO.C,J4*%
X106300000Y-93070000D03*
X111350000Y-93070000D03*
X106300000Y-90530000D03*
X111350000Y-90530000D03*
X106300000Y-87990000D03*
X111350000Y-87990000D03*
X106300000Y-85450000D03*
X111350000Y-85450000D03*
X106300000Y-82910000D03*
X111350000Y-82910000D03*
%TD*%
%TO.C,J3*%
X150650000Y-93070000D03*
X155700000Y-93070000D03*
X150650000Y-90530000D03*
X155700000Y-90530000D03*
X150650000Y-87990000D03*
X155700000Y-87990000D03*
X150650000Y-85450000D03*
X155700000Y-85450000D03*
X150650000Y-82910000D03*
X155700000Y-82910000D03*
%TD*%
%LPD*%
M02*
