M48
; DRILL file {KiCad 9.0.0} date 2025-05-15T18:29:12+0200
; FORMAT={-:-/ absolute / inch / decimal}
; #@! TF.CreationDate,2025-05-15T18:29:12+02:00
; #@! TF.GenerationSoftware,Kicad,Pcbnew,9.0.0
; #@! TF.FileFunction,Plated,1,4,PTH
FMAT,2
INCH
; #@! TA.AperFunction,Plated,PTH,ViaDrill
T1C0.0079
; #@! TA.AperFunction,Plated,PTH,ViaDrill
T2C0.0118
; #@! TA.AperFunction,Plated,PTH,ViaDrill
T3C0.0197
; #@! TA.AperFunction,Plated,PTH,ViaDrill
T4C0.0236
; #@! TA.AperFunction,Plated,PTH,ComponentDrill
T5C0.0236
; #@! TA.AperFunction,Plated,PTH,ComponentDrill
T6C0.0256
; #@! TA.AperFunction,Plated,PTH,ComponentDrill
T7C0.0315
; #@! TA.AperFunction,Plated,PTH,ComponentDrill
T8C0.0394
; #@! TA.AperFunction,Plated,PTH,ComponentDrill
T9C0.0433
%
G90
G05
T1
X4.0049Y-3.5955
X4.0728Y-3.6644
X4.0896Y-3.5591
X4.0984Y-3.7205
X4.1142Y-3.6024
X4.2982Y-3.6821
X4.3013Y-3.6478
X4.3071Y-3.6122
X4.3758Y-3.7
X4.4019Y-3.6996
X4.4626Y-3.4173
X4.4693Y-3.6457
X4.4752Y-3.6978
X4.4774Y-3.311
X4.515Y-3.7067
X4.5384Y-3.6947
X4.5401Y-3.5008
X4.5512Y-3.6329
X4.564Y-3.6949
X4.5689Y-3.3819
X4.5913Y-3.6329
X4.7394Y-3.285
X4.7736Y-3.53
X4.7795Y-3.285
X4.8425Y-3.4642
X4.8933Y-3.3839
X4.9023Y-3.6024
X4.9144Y-3.5285
X4.961Y-3.6082
X5.0149Y-3.7642
X5.022Y-3.7358
X5.0291Y-3.791
X5.0577Y-3.7809
X5.0898Y-3.7815
X5.2228Y-3.5949
X5.2386Y-3.6148
X5.2795Y-3.4842
X5.2799Y-3.7015
X5.3031Y-3.4849
X5.3366Y-3.4882
X5.3406Y-3.7015
X5.3417Y-3.613
X5.3888Y-3.5084
X5.4004Y-3.7362
X5.4113Y-3.611
X5.4205Y-3.6535
X5.4296Y-3.6259
X5.4435Y-3.7573
X5.4698Y-3.5657
X5.4717Y-3.7622
X5.524Y-3.7657
X5.5295Y-3.5618
X5.55Y-3.7598
X5.5766Y-3.7758
X5.5778Y-3.4872
X5.5803Y-3.5496
X5.6102Y-3.585
X5.6181Y-3.7516
X5.623Y-3.3829
X5.6358Y-3.6492
X5.6387Y-3.6256
X5.647Y-3.67
X5.6476Y-3.7992
X5.6502Y-3.7188
X5.6505Y-3.7439
X5.6799Y-3.5744
X5.7012Y-3.5846
X5.7287Y-3.7236
X5.7295Y-3.6091
X5.7431Y-3.3947
X5.7773Y-3.5541
X5.7992Y-3.7658
X5.8144Y-3.5288
X5.8425Y-3.5354
X5.9354Y-3.7209
X6.0276Y-3.5581
X6.0315Y-3.6368
X6.0472Y-3.5866
X6.0681Y-3.7157
X6.1965Y-3.6067
X6.2077Y-3.6461
T2
X4.0846Y-3.624
X4.253Y-3.3228
X4.2677Y-3.5925
X4.3839Y-3.6642
X4.479Y-3.3779
X4.5602Y-3.5362
X4.5699Y-3.4705
X4.598Y-3.5378
X4.6445Y-3.2043
X4.8169Y-3.4248
X4.8425Y-3.4264
X4.8594Y-3.6673
X4.8969Y-3.2976
X4.937Y-3.4549
X4.948Y-3.75
X5.0551Y-3.3169
X5.0724Y-3.611
X5.1171Y-3.315
X5.1339Y-3.6083
X5.1476Y-3.6327
X5.2323Y-3.7815
X5.5008Y-3.2335
X5.5059Y-3.6491
X5.5748Y-3.6693
X5.5846Y-3.2343
X5.752Y-3.787
X5.8228Y-3.6594
X5.8259Y-3.2913
X5.8425Y-3.5079
X5.8465Y-3.6024
X5.8514Y-3.6358
X6.0106Y-3.426
X6.0531Y-3.3691
T3
X4.1614Y-3.2657
X4.1843Y-3.3642
X4.185Y-3.5634
X4.185Y-3.6642
X4.1854Y-3.4646
X4.3551Y-3.4642
X4.3835Y-3.3638
X4.3835Y-3.5642
X4.5699Y-3.5807
X4.8189Y-3.6677
X4.8315Y-3.6268
X4.9319Y-3.7846
X4.9764Y-3.7843
X5.1083Y-3.6276
X5.1563Y-3.7695
X5.2035Y-3.7695
X5.2472Y-3.4059
X5.3165Y-3.4079
X5.5Y-3.1978
X5.5Y-3.314
X5.5394Y-3.659
X5.9124Y-3.4665
X5.9606Y-3.2362
X6.0384Y-3.4862
X6.0471Y-3.4314
X6.078Y-3.3059
X6.1299Y-3.2315
X6.1299Y-3.3642
X6.176Y-3.3059
X6.2287Y-3.502
X6.2295Y-3.5461
X6.2402Y-3.7362
X6.2598Y-3.6909
T4
X6.3366Y-3.2943
T6
X6.1758Y-3.5028
X6.1758Y-3.7303
T7
X4.3156Y-3.5407
T8
X4.2488Y-3.2004
X4.3488Y-3.2004
X4.4488Y-3.2004
X4.5488Y-3.2004
X4.6654Y-3.3496
X4.6654Y-3.4496
X4.6654Y-3.5496
X4.6654Y-3.6496
X4.9297Y-3.1992
X5.0297Y-3.1992
X5.1297Y-3.1992
X5.2297Y-3.1992
X5.3297Y-3.1992
T9
X4.0551Y-3.3071
X4.0551Y-3.4071
X4.4214Y-3.4349
T5
G00X6.1344Y-3.4465
M15
G01X6.1778Y-3.4465
M16
G05
G00X6.1344Y-3.7866
M15
G01X6.1778Y-3.7866
M16
G05
G00X6.3089Y-3.4465
M15
G01X6.3325Y-3.4465
M16
G05
G00X6.3089Y-3.7866
M15
G01X6.3325Y-3.7866
M16
G05
M30
