M48
; DRILL file {KiCad 9.0.0} date 2025-04-21T19:14:20+0200
; FORMAT={-:-/ absolute / inch / decimal}
; #@! TF.CreationDate,2025-04-21T19:14:20+02:00
; #@! TF.GenerationSoftware,Kicad,Pcbnew,9.0.0
; #@! TF.FileFunction,Plated,1,2,PTH
FMAT,2
INCH
; #@! TA.AperFunction,Plated,PTH,ViaDrill
T1C0.0079
; #@! TA.AperFunction,Plated,PTH,ComponentDrill
T2C0.0079
; #@! TA.AperFunction,Plated,PTH,ViaDrill
T3C0.0118
; #@! TA.AperFunction,Plated,PTH,ViaDrill
T4C0.0138
; #@! TA.AperFunction,Plated,PTH,ViaDrill
T5C0.0157
; #@! TA.AperFunction,Plated,PTH,ViaDrill
T6C0.0197
; #@! TA.AperFunction,Plated,PTH,ViaDrill
T7C0.0236
; #@! TA.AperFunction,Plated,PTH,ComponentDrill
T8C0.0236
; #@! TA.AperFunction,Plated,PTH,ComponentDrill
T9C0.0394
; #@! TA.AperFunction,Plated,PTH,ComponentDrill
T10C0.0433
%
G90
G05
T1
X4.4725Y-4.2461
X4.7417Y-4.6197
X4.892Y-4.3057
X5.0571Y-4.627
X5.1044Y-4.3031
X5.1118Y-4.3949
X5.1366Y-4.6612
X5.1461Y-4.4823
X5.174Y-4.6469
X5.2051Y-4.4823
X5.211Y-4.6612
X5.2265Y-4.5862
X5.3445Y-4.6256
X5.5335Y-4.2898
X5.7402Y-4.6646
X5.7502Y-4.6014
X5.762Y-4.463
X5.8929Y-4.403
X5.9303Y-4.4512
X5.9661Y-4.6328
X5.9882Y-4.6413
X6.2094Y-4.4157
X6.2114Y-4.4866
X6.2559Y-4.648
X6.2874Y-4.6571
T2
X5.1598Y-4.5138
X5.1598Y-4.5413
X5.1913Y-4.5138
X5.1913Y-4.5413
T3
X5.3622Y-4.4862
X5.4677Y-4.4571
X5.8423Y-4.6015
X6.2618Y-4.3512
X6.2878Y-4.5512
X6.2961Y-4.4512
T4
X5.1063Y-4.5
X5.1063Y-4.5551
X5.2421Y-4.5
X5.2421Y-4.5512
T5
X5.4705Y-4.276
T6
X5.9693Y-4.35
X6.0912Y-4.5978
T7
X4.6407Y-4.5128
X5.5828Y-4.6052
T9
X5.629Y-4.3474
X5.629Y-4.4474
T10
X4.315Y-4.4024
X4.315Y-4.5024
T8
G00X6.14Y-4.2789
M15
G01X6.1833Y-4.2789
M16
G05
G00X6.14Y-4.6191
M15
G01X6.1833Y-4.6191
M16
G05
G00X6.3144Y-4.2789
M15
G01X6.338Y-4.2789
M16
G05
G00X6.3144Y-4.6191
M15
G01X6.338Y-4.6191
M16
G05
M30
