%TF.GenerationSoftware,KiCad,Pcbnew,9.0.0*%
%TF.CreationDate,2025-04-21T19:14:20+02:00*%
%TF.ProjectId,HUSB238_3.3V_Version,48555342-3233-4385-9f33-2e33565f5665,rev?*%
%TF.SameCoordinates,Original*%
%TF.FileFunction,Copper,L2,Bot*%
%TF.FilePolarity,Positive*%
%FSLAX46Y46*%
G04 Gerber Fmt 4.6, Leading zero omitted, Abs format (unit mm)*
G04 Created by KiCad (PCBNEW 9.0.0) date 2025-04-21 19:14:20*
%MOMM*%
%LPD*%
G01*
G04 APERTURE LIST*
%TA.AperFunction,HeatsinkPad*%
%ADD10O,2.100000X1.000000*%
%TD*%
%TA.AperFunction,HeatsinkPad*%
%ADD11O,1.600000X1.000000*%
%TD*%
%TA.AperFunction,ComponentPad*%
%ADD12C,0.300000*%
%TD*%
%TA.AperFunction,ComponentPad*%
%ADD13R,2.500000X1.000000*%
%TD*%
%TA.AperFunction,ComponentPad*%
%ADD14R,1.700000X1.700000*%
%TD*%
%TA.AperFunction,ComponentPad*%
%ADD15O,1.700000X1.700000*%
%TD*%
%TA.AperFunction,SMDPad,CuDef*%
%ADD16R,3.150000X1.000000*%
%TD*%
%TA.AperFunction,ViaPad*%
%ADD17C,0.400000*%
%TD*%
%TA.AperFunction,ViaPad*%
%ADD18C,0.600000*%
%TD*%
%TA.AperFunction,ViaPad*%
%ADD19C,0.700000*%
%TD*%
%TA.AperFunction,ViaPad*%
%ADD20C,1.200000*%
%TD*%
%TA.AperFunction,ViaPad*%
%ADD21C,1.000000*%
%TD*%
%TA.AperFunction,ViaPad*%
%ADD22C,0.800000*%
%TD*%
%TA.AperFunction,Conductor*%
%ADD23C,0.200000*%
%TD*%
%TA.AperFunction,Conductor*%
%ADD24C,1.000000*%
%TD*%
G04 APERTURE END LIST*
D10*
%TO.P,J9,S1,SHIELD*%
%TO.N,GND*%
X156505750Y-117325000D03*
D11*
X160685750Y-117325000D03*
D10*
X156505750Y-108685000D03*
D11*
X160685750Y-108685000D03*
%TD*%
D12*
%TO.P,U1,1,OUT*%
%TO.N,VCC*%
X131060000Y-114650000D03*
%TO.P,U1,2,IN2*%
%TO.N,+3.3V*%
X131060000Y-115350000D03*
%TO.P,U1,7,IN1*%
%TO.N,VDD*%
X131860000Y-115350000D03*
%TO.P,U1,8,OUT*%
%TO.N,VCC*%
X131860000Y-114650000D03*
%TD*%
D13*
%TO.P,J4,1,Pin_1*%
%TO.N,GND*%
X109600000Y-111820000D03*
%TO.P,J4,2,Pin_2*%
%TO.N,VCC*%
X109600000Y-114360000D03*
%TD*%
D14*
%TO.P,N21,1,Pin_1*%
%TO.N,SDA 1*%
X142975750Y-110425000D03*
D15*
%TO.P,N21,2,Pin_2*%
%TO.N,SCL 1*%
X142975750Y-112965000D03*
%TD*%
D16*
%TO.P,J2,1,Pin_1*%
%TO.N,GND*%
X114550000Y-110550000D03*
%TO.P,J2,2,Pin_2*%
%TO.N,VCC*%
X109500000Y-110550000D03*
%TO.P,J2,3,Pin_3*%
%TO.N,GND*%
X114550000Y-113090000D03*
%TO.P,J2,4,Pin_4*%
%TO.N,VCC*%
X109500000Y-113090000D03*
%TO.P,J2,5,Pin_5*%
%TO.N,GND*%
X114550000Y-115630000D03*
%TO.P,J2,6,Pin_6*%
%TO.N,VCC*%
X109500000Y-115630000D03*
%TD*%
%TO.P,J3,1,Pin_1*%
%TO.N,GND*%
X159050000Y-110520000D03*
%TO.P,J3,2,Pin_2*%
%TO.N,VCC*%
X154000000Y-110520000D03*
%TO.P,J3,3,Pin_3*%
%TO.N,GND*%
X159050000Y-113060000D03*
%TO.P,J3,4,Pin_4*%
%TO.N,VCC*%
X154000000Y-113060000D03*
%TO.P,J3,5,Pin_5*%
%TO.N,GND*%
X159050000Y-115600000D03*
%TO.P,J3,6,Pin_6*%
%TO.N,VCC*%
X154000000Y-115600000D03*
%TD*%
D17*
%TO.N,GND*%
X140550000Y-108960000D03*
D18*
X159920000Y-113060000D03*
D17*
X132360000Y-118395000D03*
X130710000Y-113850000D03*
X149680000Y-111835000D03*
X113602500Y-107850000D03*
X130470000Y-118395000D03*
X146355000Y-113360000D03*
X150630000Y-113060000D03*
X129840000Y-111630000D03*
D18*
X159050000Y-110520000D03*
D17*
X132210000Y-113850000D03*
D18*
X138880000Y-113210000D03*
X136200000Y-113950000D03*
X159710000Y-115600000D03*
X148393250Y-116877500D03*
D17*
X135750000Y-117490000D03*
D19*
%TO.N,VDD*%
X133150000Y-115600000D03*
%TO.N,+3.3V*%
X129700000Y-115700000D03*
D17*
X132752645Y-116489807D03*
X131420000Y-118030000D03*
D20*
%TO.N,/VBUS*%
X141802875Y-116972125D03*
D17*
X120440000Y-117340000D03*
X128450000Y-117525000D03*
D21*
X154717043Y-116783290D03*
X151620000Y-110490000D03*
D20*
%TO.N,VCC*%
X117875000Y-114625000D03*
D19*
X133150000Y-114300000D03*
X129700000Y-114300000D03*
D22*
X138950000Y-108610000D03*
D17*
%TO.N,Net-(J9-D+-PadA6)*%
X157720000Y-112159998D03*
X157770000Y-113960002D03*
%TO.N,Net-(J9-CC1)*%
X159700000Y-118290000D03*
X151540000Y-117673727D03*
%TO.N,Net-(J9-CC2)*%
X152100382Y-117888144D03*
X158900000Y-118060000D03*
%TO.N,Net-(R15-Pad2)*%
X124255750Y-109365000D03*
X129652500Y-109300000D03*
%TO.N,Net-(U3-VSET)*%
X146055750Y-116875000D03*
X145800000Y-118480000D03*
%TD*%
D23*
%TO.N,GND*%
X150630000Y-113060000D02*
X150630000Y-112785000D01*
X142650000Y-111700000D02*
X143300000Y-111700000D01*
X143300000Y-111700000D02*
X143325000Y-111725000D01*
X150630000Y-112785000D02*
X149680000Y-111835000D01*
D24*
X114550000Y-115630000D02*
X114550000Y-110550000D01*
D23*
%TO.N,+3.3V*%
X131420000Y-118030000D02*
X131420000Y-117822452D01*
X131420000Y-117822452D02*
X132752645Y-116489807D01*
X132752645Y-116489807D02*
X132199807Y-116489807D01*
X132199807Y-116489807D02*
X131060000Y-115350000D01*
%TO.N,/VBUS*%
X121580000Y-118480000D02*
X127495000Y-118480000D01*
X120440000Y-117340000D02*
X121580000Y-118480000D01*
X127495000Y-118480000D02*
X128450000Y-117525000D01*
%TO.N,Net-(J9-D+-PadA6)*%
X160649998Y-113960002D02*
X157770000Y-113960002D01*
X157720002Y-112160000D02*
X160827000Y-112160000D01*
X157720000Y-112159998D02*
X157720002Y-112160000D01*
X160926000Y-113684000D02*
X160649998Y-113960002D01*
X160926000Y-112259000D02*
X160926000Y-113684000D01*
X160827000Y-112160000D02*
X160926000Y-112259000D01*
%TO.N,Net-(J9-CC1)*%
X151540000Y-117673727D02*
X151510541Y-117703186D01*
X159429000Y-118561000D02*
X159700000Y-118290000D01*
X151510541Y-117703186D02*
X151510541Y-118021600D01*
X151510541Y-118021600D02*
X152049941Y-118561000D01*
X152049941Y-118561000D02*
X159429000Y-118561000D01*
%TO.N,Net-(J9-CC2)*%
X153215271Y-118126000D02*
X158834000Y-118126000D01*
X152100382Y-117888144D02*
X152977415Y-117888144D01*
X158834000Y-118126000D02*
X158900000Y-118060000D01*
X152977415Y-117888144D02*
X153215271Y-118126000D01*
%TO.N,Net-(R15-Pad2)*%
X124320750Y-109300000D02*
X124255750Y-109365000D01*
X129652500Y-109300000D02*
X124320750Y-109300000D01*
%TO.N,Net-(U3-VSET)*%
X146055750Y-118224250D02*
X145800000Y-118480000D01*
X146055750Y-116875000D02*
X146055750Y-118224250D01*
%TD*%
%TA.AperFunction,Conductor*%
%TO.N,VCC*%
G36*
X132750000Y-114897489D02*
G01*
X132734952Y-114895793D01*
X132725468Y-114895260D01*
X132711931Y-114894500D01*
X131689500Y-114894500D01*
X131673113Y-114896262D01*
X131645822Y-114899196D01*
X131644755Y-114899369D01*
X131636916Y-114900000D01*
X131343475Y-114900000D01*
X131333915Y-114899058D01*
X131311003Y-114894500D01*
X131311000Y-114894500D01*
X130251565Y-114894500D01*
X130247578Y-114894611D01*
X130240783Y-114894802D01*
X130240775Y-114894802D01*
X130240046Y-114894823D01*
X130234560Y-114895131D01*
X130223321Y-114896072D01*
X130222971Y-114896111D01*
X130222858Y-114896136D01*
X130222720Y-114896146D01*
X130222720Y-114896140D01*
X130222545Y-114896159D01*
X130222487Y-114896164D01*
X130221738Y-114896247D01*
X130221634Y-114896262D01*
X130200048Y-114898694D01*
X130200000Y-114898699D01*
X130200000Y-114060869D01*
X130460000Y-114400000D01*
X132459999Y-114400000D01*
X132460000Y-114400000D01*
X132750000Y-114052221D01*
X132750000Y-114897489D01*
G37*
%TD.AperFunction*%
%TD*%
%TA.AperFunction,Conductor*%
%TO.N,+3.3V*%
G36*
X131345648Y-115114352D02*
G01*
X131360000Y-115149000D01*
X131360000Y-115551000D01*
X131345648Y-115585648D01*
X131311000Y-115600000D01*
X130460000Y-115600000D01*
X129889505Y-116148552D01*
X129798226Y-116236321D01*
X129764264Y-116250000D01*
X129309000Y-116250000D01*
X129274352Y-116235648D01*
X129260000Y-116201000D01*
X129260000Y-115174419D01*
X129265340Y-115161526D01*
X129267861Y-115147799D01*
X129272292Y-115144742D01*
X129274352Y-115139771D01*
X129298730Y-115126508D01*
X129391692Y-115106588D01*
X129401959Y-115105500D01*
X130200001Y-115105500D01*
X130209159Y-115104468D01*
X130245728Y-115100348D01*
X130245729Y-115100347D01*
X130246079Y-115100308D01*
X130251565Y-115100000D01*
X131311000Y-115100000D01*
X131345648Y-115114352D01*
G37*
%TD.AperFunction*%
%TD*%
%TA.AperFunction,Conductor*%
%TO.N,VDD*%
G36*
X132739526Y-115103110D02*
G01*
X132749992Y-115105499D01*
X132750000Y-115105500D01*
X133536000Y-115105500D01*
X133603039Y-115125185D01*
X133648794Y-115177989D01*
X133660000Y-115229500D01*
X133660000Y-116126000D01*
X133640315Y-116193039D01*
X133587511Y-116238794D01*
X133536000Y-116250000D01*
X133137792Y-116250000D01*
X133070753Y-116230315D01*
X133048409Y-116211945D01*
X132460001Y-115600000D01*
X132460000Y-115600000D01*
X131786333Y-115600000D01*
X131756892Y-115591355D01*
X131726906Y-115584832D01*
X131721890Y-115581077D01*
X131719294Y-115580315D01*
X131698652Y-115563681D01*
X131601819Y-115466848D01*
X131568334Y-115405525D01*
X131565500Y-115379167D01*
X131565500Y-115224000D01*
X131585185Y-115156961D01*
X131637989Y-115111206D01*
X131689500Y-115100000D01*
X132711931Y-115100000D01*
X132739526Y-115103110D01*
G37*
%TD.AperFunction*%
%TD*%
%TA.AperFunction,Conductor*%
%TO.N,GND*%
G36*
X137159654Y-106727292D02*
G01*
X137205409Y-106780096D01*
X137215353Y-106849254D01*
X137186328Y-106912810D01*
X137176108Y-106923285D01*
X134883500Y-109011194D01*
X134851358Y-109045333D01*
X134851354Y-109045336D01*
X134827530Y-109074891D01*
X134800993Y-109113544D01*
X134800988Y-109113552D01*
X133653913Y-111094868D01*
X133307048Y-111694000D01*
X133284684Y-111732628D01*
X133234059Y-111780783D01*
X133177371Y-111794500D01*
X129364468Y-111794500D01*
X129302580Y-111800834D01*
X129253384Y-111811011D01*
X129240476Y-111814500D01*
X129218025Y-111820568D01*
X129218024Y-111820568D01*
X129218022Y-111820569D01*
X129119973Y-111875254D01*
X129113226Y-111880863D01*
X129080824Y-111900307D01*
X125688775Y-113284817D01*
X125641199Y-113294010D01*
X120068884Y-113261799D01*
X120020837Y-113251810D01*
X119994834Y-113240688D01*
X119921974Y-113224443D01*
X119921820Y-113224417D01*
X119889452Y-113219014D01*
X119889445Y-113219013D01*
X119889438Y-113219012D01*
X119889440Y-113219012D01*
X119862909Y-113216044D01*
X119862888Y-113216042D01*
X119830035Y-113214152D01*
X119829995Y-113214151D01*
X119829990Y-113214151D01*
X119724241Y-113213783D01*
X117151519Y-113204849D01*
X117151494Y-113204850D01*
X117118051Y-113206571D01*
X117118039Y-113206572D01*
X117091078Y-113209448D01*
X117083261Y-113210384D01*
X116976571Y-113245357D01*
X116915320Y-113278943D01*
X116915307Y-113278951D01*
X116864650Y-113313782D01*
X116832105Y-113353794D01*
X116774531Y-113393380D01*
X116704695Y-113395555D01*
X116648229Y-113363229D01*
X116625000Y-113340000D01*
X114800000Y-113340000D01*
X114800000Y-114090000D01*
X116172828Y-114090000D01*
X116172844Y-114089999D01*
X116232372Y-114083598D01*
X116232379Y-114083596D01*
X116367086Y-114033354D01*
X116367090Y-114033352D01*
X116408744Y-114002169D01*
X116474208Y-113977750D01*
X116542481Y-113992600D01*
X116591888Y-114042004D01*
X116606741Y-114110277D01*
X116604270Y-114127578D01*
X116505231Y-114586760D01*
X116471854Y-114648142D01*
X116410590Y-114681735D01*
X116340890Y-114676874D01*
X116340685Y-114676798D01*
X116232380Y-114636403D01*
X116232372Y-114636401D01*
X116172844Y-114630000D01*
X114800000Y-114630000D01*
X114800000Y-115506000D01*
X114780315Y-115573039D01*
X114727511Y-115618794D01*
X114676000Y-115630000D01*
X114550000Y-115630000D01*
X114550000Y-115756000D01*
X114530315Y-115823039D01*
X114477511Y-115868794D01*
X114426000Y-115880000D01*
X112475000Y-115880000D01*
X112475000Y-116155051D01*
X112455315Y-116222090D01*
X112402511Y-116267845D01*
X112351447Y-116279050D01*
X111499946Y-116282119D01*
X111432836Y-116262676D01*
X111386891Y-116210038D01*
X111375499Y-116158124D01*
X111375499Y-115085136D01*
X111375499Y-115085130D01*
X111375154Y-115082155D01*
X112475000Y-115082155D01*
X112475000Y-115380000D01*
X114300000Y-115380000D01*
X114300000Y-114630000D01*
X112927155Y-114630000D01*
X112867627Y-114636401D01*
X112867620Y-114636403D01*
X112732913Y-114686645D01*
X112732906Y-114686649D01*
X112617812Y-114772809D01*
X112617809Y-114772812D01*
X112531649Y-114887906D01*
X112531645Y-114887913D01*
X112481403Y-115022620D01*
X112481401Y-115022627D01*
X112475000Y-115082155D01*
X111375154Y-115082155D01*
X111372586Y-115060012D01*
X111372585Y-115060010D01*
X111372585Y-115060009D01*
X111327206Y-114957235D01*
X111247765Y-114877794D01*
X111227781Y-114868970D01*
X111174405Y-114823884D01*
X111153878Y-114757098D01*
X111153869Y-114754971D01*
X111157483Y-113962300D01*
X111177473Y-113895353D01*
X111230485Y-113849839D01*
X111231084Y-113849570D01*
X111247765Y-113842206D01*
X111327206Y-113762765D01*
X111372585Y-113659991D01*
X111375154Y-113637844D01*
X112475000Y-113637844D01*
X112481401Y-113697372D01*
X112481403Y-113697379D01*
X112531645Y-113832086D01*
X112531649Y-113832093D01*
X112617809Y-113947187D01*
X112617812Y-113947190D01*
X112732906Y-114033350D01*
X112732913Y-114033354D01*
X112867620Y-114083596D01*
X112867627Y-114083598D01*
X112927155Y-114089999D01*
X112927172Y-114090000D01*
X114300000Y-114090000D01*
X114300000Y-113340000D01*
X112475000Y-113340000D01*
X112475000Y-113637844D01*
X111375154Y-113637844D01*
X111375500Y-113634865D01*
X111375499Y-113072506D01*
X111375499Y-112556739D01*
X111375499Y-112545136D01*
X111375153Y-112542155D01*
X112475000Y-112542155D01*
X112475000Y-112840000D01*
X114300000Y-112840000D01*
X114800000Y-112840000D01*
X116625000Y-112840000D01*
X116625000Y-112542172D01*
X116624999Y-112542155D01*
X116618598Y-112482627D01*
X116618596Y-112482620D01*
X116568354Y-112347913D01*
X116568350Y-112347906D01*
X116482190Y-112232812D01*
X116482187Y-112232809D01*
X116367093Y-112146649D01*
X116367086Y-112146645D01*
X116232379Y-112096403D01*
X116232372Y-112096401D01*
X116172844Y-112090000D01*
X114800000Y-112090000D01*
X114800000Y-112840000D01*
X114300000Y-112840000D01*
X114300000Y-112090000D01*
X112927155Y-112090000D01*
X112867627Y-112096401D01*
X112867620Y-112096403D01*
X112732913Y-112146645D01*
X112732906Y-112146649D01*
X112617812Y-112232809D01*
X112617809Y-112232812D01*
X112531649Y-112347906D01*
X112531645Y-112347913D01*
X112481403Y-112482620D01*
X112481401Y-112482627D01*
X112475000Y-112542155D01*
X111375153Y-112542155D01*
X111372585Y-112520009D01*
X111351207Y-112471594D01*
X111348859Y-112463361D01*
X111349014Y-112443098D01*
X111344812Y-112416086D01*
X111349999Y-112367844D01*
X111350000Y-112367827D01*
X111350000Y-112070000D01*
X110090748Y-112070000D01*
X110112518Y-112032292D01*
X110150000Y-111892409D01*
X110150000Y-111747591D01*
X110112518Y-111607708D01*
X110090748Y-111570000D01*
X111350000Y-111570000D01*
X111350000Y-111272172D01*
X111349999Y-111272155D01*
X111344812Y-111223914D01*
X111354667Y-111160571D01*
X111372585Y-111119991D01*
X111375154Y-111097844D01*
X112475000Y-111097844D01*
X112481401Y-111157372D01*
X112481403Y-111157379D01*
X112531645Y-111292086D01*
X112531649Y-111292093D01*
X112617809Y-111407187D01*
X112617812Y-111407190D01*
X112732906Y-111493350D01*
X112732913Y-111493354D01*
X112867620Y-111543596D01*
X112867627Y-111543598D01*
X112927155Y-111549999D01*
X112927172Y-111550000D01*
X114300000Y-111550000D01*
X114800000Y-111550000D01*
X116172828Y-111550000D01*
X116172844Y-111549999D01*
X116232372Y-111543598D01*
X116232379Y-111543596D01*
X116367086Y-111493354D01*
X116367093Y-111493350D01*
X116482187Y-111407190D01*
X116482190Y-111407187D01*
X116568350Y-111292093D01*
X116568354Y-111292086D01*
X116618596Y-111157379D01*
X116618598Y-111157372D01*
X116624999Y-111097844D01*
X116625000Y-111097827D01*
X116625000Y-110800000D01*
X114800000Y-110800000D01*
X114800000Y-111550000D01*
X114300000Y-111550000D01*
X114300000Y-110800000D01*
X112475000Y-110800000D01*
X112475000Y-111097844D01*
X111375154Y-111097844D01*
X111375500Y-111094865D01*
X111375499Y-110520000D01*
X111375499Y-110005130D01*
X111375154Y-110002155D01*
X112475000Y-110002155D01*
X112475000Y-110300000D01*
X114300000Y-110300000D01*
X114800000Y-110300000D01*
X116625000Y-110300000D01*
X116625000Y-110002172D01*
X116624999Y-110002155D01*
X116618598Y-109942627D01*
X116618596Y-109942620D01*
X116568354Y-109807913D01*
X116568350Y-109807906D01*
X116482190Y-109692812D01*
X116482187Y-109692809D01*
X116367093Y-109606649D01*
X116367086Y-109606645D01*
X116232379Y-109556403D01*
X116232372Y-109556401D01*
X116172844Y-109550000D01*
X114800000Y-109550000D01*
X114800000Y-110300000D01*
X114300000Y-110300000D01*
X114300000Y-109550000D01*
X112927155Y-109550000D01*
X112867627Y-109556401D01*
X112867620Y-109556403D01*
X112732913Y-109606645D01*
X112732906Y-109606649D01*
X112617812Y-109692809D01*
X112617809Y-109692812D01*
X112531649Y-109807906D01*
X112531645Y-109807913D01*
X112481403Y-109942620D01*
X112481401Y-109942627D01*
X112475000Y-110002155D01*
X111375154Y-110002155D01*
X111372586Y-109980012D01*
X111372585Y-109980010D01*
X111372585Y-109980009D01*
X111327206Y-109877235D01*
X111247765Y-109797794D01*
X111227441Y-109788820D01*
X111144992Y-109752415D01*
X111119868Y-109749500D01*
X111119865Y-109749500D01*
X110950381Y-109749500D01*
X110900320Y-109737755D01*
X110900081Y-109738377D01*
X110895603Y-109736648D01*
X110895234Y-109736562D01*
X110894730Y-109736312D01*
X110894726Y-109736310D01*
X110837427Y-109720079D01*
X110827499Y-109717267D01*
X110827495Y-109717266D01*
X110746798Y-109706451D01*
X110741318Y-109705717D01*
X110741317Y-109705717D01*
X110741310Y-109705716D01*
X106975261Y-109741756D01*
X106807875Y-109743358D01*
X106746896Y-109750102D01*
X106698446Y-109760465D01*
X106663965Y-109769982D01*
X106566135Y-109825048D01*
X106566124Y-109825055D01*
X106512577Y-109869926D01*
X106512572Y-109869931D01*
X106469666Y-109913956D01*
X106469663Y-109913960D01*
X106425713Y-109996970D01*
X106417131Y-110013179D01*
X106396341Y-110079882D01*
X106386764Y-110139486D01*
X106382545Y-110165740D01*
X106382544Y-110165744D01*
X106284599Y-116091394D01*
X106284578Y-116100124D01*
X106284660Y-116107072D01*
X106284890Y-116115868D01*
X106369945Y-118223317D01*
X106378049Y-118281950D01*
X106383116Y-118303170D01*
X106388738Y-118326717D01*
X106389154Y-118328457D01*
X106398742Y-118360659D01*
X106455416Y-118457563D01*
X106455421Y-118457571D01*
X106501177Y-118510376D01*
X106501187Y-118510387D01*
X106545903Y-118552548D01*
X106545905Y-118552549D01*
X106545909Y-118552553D01*
X106645985Y-118603439D01*
X106713024Y-118623124D01*
X106799096Y-118635500D01*
X111409083Y-118635500D01*
X111409611Y-118635501D01*
X116098003Y-118655451D01*
X116124259Y-118654433D01*
X116145500Y-118652692D01*
X116171575Y-118649421D01*
X118520012Y-118251545D01*
X118572348Y-118237818D01*
X118613515Y-118223016D01*
X118629805Y-118216285D01*
X118639848Y-118212136D01*
X118639849Y-118212135D01*
X118639852Y-118212134D01*
X118731013Y-118146601D01*
X118779285Y-118096088D01*
X118829803Y-118025313D01*
X119218137Y-117274108D01*
X119939500Y-117274108D01*
X119939500Y-117405892D01*
X119951587Y-117451000D01*
X119973608Y-117533187D01*
X119996697Y-117573178D01*
X120039500Y-117647314D01*
X120132686Y-117740500D01*
X120246814Y-117806392D01*
X120342014Y-117831900D01*
X120397600Y-117863993D01*
X121259519Y-118725912D01*
X121259520Y-118725913D01*
X121334087Y-118800480D01*
X121425413Y-118853207D01*
X121527273Y-118880500D01*
X121527275Y-118880500D01*
X127547725Y-118880500D01*
X127547727Y-118880500D01*
X127649588Y-118853207D01*
X127740913Y-118800480D01*
X128492399Y-118048992D01*
X128547986Y-118016900D01*
X128643183Y-117991393D01*
X128643183Y-117991392D01*
X128643186Y-117991392D01*
X128757314Y-117925500D01*
X128850500Y-117832314D01*
X128916392Y-117718186D01*
X128950500Y-117590892D01*
X128950500Y-117459108D01*
X128916392Y-117331814D01*
X128850500Y-117217686D01*
X128757314Y-117124500D01*
X128659776Y-117068186D01*
X128643187Y-117058608D01*
X128579539Y-117041554D01*
X128515892Y-117024500D01*
X128384108Y-117024500D01*
X128256812Y-117058608D01*
X128142686Y-117124500D01*
X128142683Y-117124502D01*
X128049502Y-117217683D01*
X128049500Y-117217686D01*
X127983607Y-117331814D01*
X127983607Y-117331815D01*
X127958098Y-117427014D01*
X127926005Y-117482600D01*
X127365426Y-118043181D01*
X127304103Y-118076666D01*
X127277745Y-118079500D01*
X121797255Y-118079500D01*
X121730216Y-118059815D01*
X121709574Y-118043181D01*
X120963993Y-117297600D01*
X120931900Y-117242014D01*
X120906392Y-117146814D01*
X120840500Y-117032686D01*
X120747314Y-116939500D01*
X120690250Y-116906554D01*
X120633187Y-116873608D01*
X120550035Y-116851328D01*
X120505892Y-116839500D01*
X120374108Y-116839500D01*
X120246812Y-116873608D01*
X120132686Y-116939500D01*
X120132683Y-116939502D01*
X120039502Y-117032683D01*
X120039500Y-117032686D01*
X119973608Y-117146812D01*
X119957480Y-117207005D01*
X119939500Y-117274108D01*
X119218137Y-117274108D01*
X119890924Y-115972650D01*
X119939195Y-115922139D01*
X120002126Y-115905599D01*
X125858738Y-115955372D01*
X125892227Y-115953817D01*
X125919263Y-115951069D01*
X125952381Y-115945854D01*
X128804518Y-115334681D01*
X128874194Y-115339881D01*
X128929997Y-115381926D01*
X128954211Y-115447466D01*
X128954500Y-115455928D01*
X128954500Y-116201000D01*
X128954582Y-116208059D01*
X128977756Y-116317912D01*
X128978561Y-116319855D01*
X128992111Y-116352567D01*
X128997805Y-116365465D01*
X129063377Y-116456600D01*
X129083219Y-116469528D01*
X129157440Y-116517892D01*
X129192088Y-116532244D01*
X129198641Y-116534870D01*
X129309000Y-116555500D01*
X129309003Y-116555500D01*
X129764307Y-116555500D01*
X129767902Y-116555475D01*
X129768326Y-116555473D01*
X129858807Y-116537311D01*
X129878397Y-116533379D01*
X129878398Y-116533378D01*
X129878401Y-116533378D01*
X129912363Y-116519699D01*
X129916121Y-116518156D01*
X130009971Y-116456536D01*
X130547048Y-115940115D01*
X130609014Y-115907840D01*
X130632992Y-115905500D01*
X130997745Y-115905500D01*
X131064784Y-115925185D01*
X131085426Y-115941819D01*
X131463462Y-116319855D01*
X131822152Y-116678544D01*
X131855637Y-116739867D01*
X131850653Y-116809558D01*
X131822152Y-116853906D01*
X131099522Y-117576536D01*
X131099518Y-117576542D01*
X131046791Y-117667866D01*
X131046791Y-117667868D01*
X131045247Y-117673630D01*
X131023855Y-117717009D01*
X131019499Y-117722685D01*
X130953609Y-117836810D01*
X130953609Y-117836811D01*
X130953608Y-117836813D01*
X130953608Y-117836814D01*
X130919500Y-117964108D01*
X130919500Y-118095892D01*
X130931230Y-118139670D01*
X130953608Y-118223187D01*
X130980278Y-118269380D01*
X131019500Y-118337314D01*
X131112686Y-118430500D01*
X131226814Y-118496392D01*
X131354108Y-118530500D01*
X131354110Y-118530500D01*
X131485890Y-118530500D01*
X131485892Y-118530500D01*
X131613186Y-118496392D01*
X131727314Y-118430500D01*
X131820500Y-118337314D01*
X131886392Y-118223186D01*
X131920500Y-118095892D01*
X131920500Y-117964108D01*
X131920500Y-117964107D01*
X131919668Y-117957790D01*
X131930430Y-117888754D01*
X131954922Y-117853921D01*
X132795044Y-117013799D01*
X132850627Y-116981708D01*
X132945831Y-116956199D01*
X133059959Y-116890307D01*
X133153145Y-116797121D01*
X133219037Y-116682993D01*
X133228572Y-116647404D01*
X133264937Y-116587746D01*
X133327784Y-116557217D01*
X133348347Y-116555500D01*
X133535990Y-116555500D01*
X133536000Y-116555500D01*
X133600941Y-116548518D01*
X133652452Y-116537312D01*
X133690658Y-116526354D01*
X133787571Y-116469675D01*
X133840375Y-116423920D01*
X133840382Y-116423912D01*
X133840387Y-116423908D01*
X133882548Y-116379192D01*
X133882553Y-116379187D01*
X133933439Y-116279111D01*
X133953124Y-116212072D01*
X133965500Y-116126000D01*
X133965500Y-115329500D01*
X133985185Y-115262461D01*
X134037989Y-115216706D01*
X134089500Y-115205500D01*
X135450990Y-115205500D01*
X135451000Y-115205500D01*
X135515941Y-115198518D01*
X135567452Y-115187312D01*
X135605658Y-115176354D01*
X135702571Y-115119675D01*
X135755375Y-115073920D01*
X135755382Y-115073912D01*
X135755387Y-115073908D01*
X135797548Y-115029192D01*
X135797553Y-115029187D01*
X135848439Y-114929111D01*
X135868124Y-114862072D01*
X135880500Y-114776000D01*
X135880500Y-113763675D01*
X135896736Y-113702332D01*
X137666766Y-110592819D01*
X137682947Y-110570567D01*
X138076545Y-110139485D01*
X138136283Y-110103252D01*
X138146926Y-110100920D01*
X139824188Y-109810196D01*
X139860898Y-109801468D01*
X139890151Y-109792572D01*
X139901662Y-109788820D01*
X139999112Y-109733069D01*
X140052351Y-109687820D01*
X140109918Y-109622654D01*
X140337916Y-109275229D01*
X140384601Y-109204090D01*
X140385500Y-109202711D01*
X140385576Y-109202592D01*
X140386089Y-109201803D01*
X140422939Y-109121580D01*
X140442624Y-109054541D01*
X140449564Y-109006269D01*
X140451362Y-109002334D01*
X140451037Y-108998019D01*
X140465747Y-108970834D01*
X140478590Y-108942715D01*
X140482230Y-108940375D01*
X140484290Y-108936570D01*
X140511364Y-108921652D01*
X140537368Y-108904942D01*
X140541694Y-108904942D01*
X140545486Y-108902853D01*
X140576332Y-108904942D01*
X140607238Y-108904942D01*
X140612099Y-108907364D01*
X140615196Y-108907574D01*
X140646237Y-108924372D01*
X140653676Y-108929897D01*
X140669206Y-108943583D01*
X140688160Y-108963337D01*
X140688169Y-108963345D01*
X140688180Y-108963356D01*
X140723953Y-108995208D01*
X140723954Y-108995209D01*
X140723955Y-108995209D01*
X140723957Y-108995211D01*
X140824349Y-109045473D01*
X140866911Y-109057683D01*
X140891502Y-109064738D01*
X140891510Y-109064740D01*
X140977656Y-109076579D01*
X141935530Y-109070613D01*
X142002690Y-109089880D01*
X142048772Y-109142398D01*
X142059146Y-109211493D01*
X142030518Y-109275229D01*
X141986388Y-109308045D01*
X141952984Y-109322794D01*
X141873544Y-109402234D01*
X141828165Y-109505006D01*
X141828165Y-109505008D01*
X141825250Y-109530131D01*
X141825250Y-111319856D01*
X141825252Y-111319882D01*
X141828163Y-111344987D01*
X141828165Y-111344991D01*
X141873543Y-111447764D01*
X141873544Y-111447765D01*
X141952985Y-111527206D01*
X142055759Y-111572585D01*
X142080885Y-111575500D01*
X142818623Y-111575499D01*
X142885660Y-111595183D01*
X142931415Y-111647987D01*
X142941359Y-111717146D01*
X142912334Y-111780702D01*
X142853556Y-111818476D01*
X142838020Y-111821972D01*
X142706339Y-111842829D01*
X142534113Y-111898787D01*
X142534110Y-111898788D01*
X142372752Y-111981006D01*
X142226255Y-112087441D01*
X142226250Y-112087445D01*
X142098195Y-112215500D01*
X142098191Y-112215505D01*
X141991756Y-112362002D01*
X141909538Y-112523360D01*
X141909537Y-112523363D01*
X141853579Y-112695589D01*
X141825250Y-112874448D01*
X141825250Y-113055551D01*
X141853579Y-113234410D01*
X141909537Y-113406636D01*
X141909538Y-113406639D01*
X141953853Y-113493610D01*
X141989732Y-113564026D01*
X141991756Y-113567997D01*
X142098191Y-113714494D01*
X142098195Y-113714499D01*
X142226250Y-113842554D01*
X142226255Y-113842558D01*
X142334097Y-113920909D01*
X142372756Y-113948996D01*
X142458333Y-113992600D01*
X142534110Y-114031211D01*
X142534113Y-114031212D01*
X142620226Y-114059191D01*
X142706341Y-114087171D01*
X142789179Y-114100291D01*
X142885199Y-114115500D01*
X142885204Y-114115500D01*
X143066301Y-114115500D01*
X143153009Y-114101765D01*
X143245159Y-114087171D01*
X143417389Y-114031211D01*
X143578744Y-113948996D01*
X143725251Y-113842553D01*
X143853303Y-113714501D01*
X143959746Y-113567994D01*
X144041961Y-113406639D01*
X144097921Y-113234409D01*
X144112515Y-113142259D01*
X144126250Y-113055551D01*
X144126250Y-112874448D01*
X144109769Y-112770397D01*
X144097921Y-112695591D01*
X144054028Y-112560500D01*
X144041962Y-112523363D01*
X144041961Y-112523360D01*
X144005916Y-112452620D01*
X143959746Y-112362006D01*
X143927706Y-112317906D01*
X143853308Y-112215505D01*
X143853304Y-112215500D01*
X143725249Y-112087445D01*
X143725244Y-112087441D01*
X143578747Y-111981006D01*
X143578746Y-111981005D01*
X143578744Y-111981004D01*
X143527050Y-111954664D01*
X143417389Y-111898788D01*
X143417386Y-111898787D01*
X143245160Y-111842829D01*
X143113478Y-111821972D01*
X143050344Y-111792042D01*
X143013413Y-111732731D01*
X143014411Y-111662868D01*
X143053021Y-111604636D01*
X143116985Y-111576522D01*
X143132870Y-111575499D01*
X143870614Y-111575499D01*
X143870629Y-111575497D01*
X143870632Y-111575497D01*
X143895737Y-111572586D01*
X143895738Y-111572585D01*
X143895741Y-111572585D01*
X143998515Y-111527206D01*
X144077956Y-111447765D01*
X144123335Y-111344991D01*
X144126250Y-111319865D01*
X144126249Y-109530136D01*
X144126247Y-109530117D01*
X144123336Y-109505012D01*
X144123335Y-109505010D01*
X144123335Y-109505009D01*
X144077956Y-109402235D01*
X143998515Y-109322794D01*
X143936197Y-109295278D01*
X143882821Y-109250192D01*
X143862294Y-109183406D01*
X143881132Y-109116124D01*
X143933356Y-109069707D01*
X143985508Y-109057846D01*
X151959728Y-109008185D01*
X152026889Y-109027452D01*
X152072971Y-109079970D01*
X152084500Y-109132183D01*
X152084500Y-109523175D01*
X152064815Y-109590214D01*
X152012011Y-109635969D01*
X151961454Y-109647171D01*
X151130702Y-109653561D01*
X151130692Y-109653562D01*
X151119741Y-109654803D01*
X151066952Y-109660788D01*
X151058379Y-109662687D01*
X151016400Y-109671989D01*
X151016383Y-109671993D01*
X150979345Y-109682693D01*
X150979337Y-109682697D01*
X150882432Y-109739372D01*
X150882428Y-109739374D01*
X150829623Y-109785130D01*
X150829612Y-109785140D01*
X150787451Y-109829856D01*
X150787445Y-109829865D01*
X150736560Y-109929939D01*
X150716877Y-109996970D01*
X150716876Y-109996977D01*
X150704956Y-110079882D01*
X150704500Y-110083051D01*
X150704500Y-111086516D01*
X150704484Y-111088509D01*
X150676510Y-112828477D01*
X150676510Y-112828478D01*
X150686252Y-112910072D01*
X150686256Y-112910091D01*
X150702845Y-112974058D01*
X150702847Y-112974064D01*
X150707027Y-112984272D01*
X150712051Y-112999169D01*
X150719751Y-113027905D01*
X150719749Y-113092101D01*
X150716775Y-113103197D01*
X150711373Y-113119003D01*
X150696697Y-113154038D01*
X150696692Y-113154051D01*
X150680098Y-113214043D01*
X150680098Y-113214044D01*
X150669079Y-113290589D01*
X150666085Y-113476799D01*
X150645325Y-113543513D01*
X150591792Y-113588413D01*
X150542996Y-113598802D01*
X145579670Y-113634641D01*
X145579658Y-113634642D01*
X145507979Y-113643706D01*
X145451449Y-113657801D01*
X145451444Y-113657803D01*
X145383891Y-113683454D01*
X145383875Y-113683461D01*
X143286888Y-114779096D01*
X143269190Y-114786658D01*
X140976392Y-115562023D01*
X140959708Y-115568213D01*
X140946351Y-115573614D01*
X140857597Y-115628791D01*
X140805439Y-115675289D01*
X140763903Y-115720603D01*
X140714430Y-115821382D01*
X140695688Y-115888699D01*
X140684527Y-115974925D01*
X140684527Y-115974930D01*
X140711519Y-117891422D01*
X140719203Y-117955332D01*
X140719206Y-117955345D01*
X140727464Y-117991392D01*
X140730813Y-118006006D01*
X140733546Y-118015206D01*
X140741866Y-118043212D01*
X140799307Y-118139660D01*
X140799311Y-118139666D01*
X140799314Y-118139670D01*
X140845488Y-118192109D01*
X140890560Y-118233933D01*
X140991039Y-118284020D01*
X141058233Y-118303170D01*
X141144396Y-118314859D01*
X144669617Y-118286807D01*
X144731512Y-118279968D01*
X144731520Y-118279966D01*
X144731522Y-118279966D01*
X144745408Y-118276975D01*
X144780674Y-118269379D01*
X144816025Y-118259509D01*
X144913614Y-118204001D01*
X144966965Y-118158885D01*
X145009677Y-118114664D01*
X145061765Y-118015208D01*
X145082256Y-117948411D01*
X145095668Y-117862496D01*
X145102279Y-117313714D01*
X145122770Y-117246919D01*
X145133367Y-117233082D01*
X145364301Y-116971906D01*
X145423455Y-116934724D01*
X145493321Y-116935424D01*
X145551717Y-116973786D01*
X145569909Y-117002359D01*
X145574265Y-117011859D01*
X145589358Y-117068186D01*
X145641541Y-117158570D01*
X145643964Y-117163853D01*
X145647003Y-117184762D01*
X145655250Y-117215539D01*
X145655250Y-117914051D01*
X145635565Y-117981090D01*
X145593251Y-118021438D01*
X145492686Y-118079500D01*
X145492683Y-118079502D01*
X145399502Y-118172683D01*
X145399500Y-118172686D01*
X145333608Y-118286812D01*
X145320076Y-118337316D01*
X145299500Y-118414108D01*
X145299500Y-118545892D01*
X145301285Y-118552553D01*
X145333608Y-118673187D01*
X145360113Y-118719094D01*
X145399500Y-118787314D01*
X145492686Y-118880500D01*
X145606814Y-118946392D01*
X145734108Y-118980500D01*
X145734110Y-118980500D01*
X145865890Y-118980500D01*
X145865892Y-118980500D01*
X145993186Y-118946392D01*
X146107314Y-118880500D01*
X146200500Y-118787314D01*
X146266392Y-118673186D01*
X146271884Y-118652691D01*
X146285080Y-118603439D01*
X146291899Y-118577986D01*
X146323992Y-118522400D01*
X146376230Y-118470163D01*
X146428957Y-118378838D01*
X146456250Y-118276977D01*
X146456250Y-118171523D01*
X146456250Y-117215539D01*
X146472862Y-117153540D01*
X146522142Y-117068186D01*
X146556250Y-116940892D01*
X146556250Y-116809108D01*
X146522142Y-116681814D01*
X146456250Y-116567686D01*
X146363064Y-116474500D01*
X146249397Y-116408874D01*
X146201182Y-116358306D01*
X146187960Y-116289699D01*
X146213928Y-116224835D01*
X146248267Y-116194761D01*
X146983039Y-115760169D01*
X147043034Y-115742940D01*
X148880135Y-115696674D01*
X148947649Y-115714665D01*
X148994719Y-115766300D01*
X149007241Y-115822656D01*
X148986551Y-117091709D01*
X148992309Y-117155934D01*
X148992311Y-117155945D01*
X149002403Y-117206995D01*
X149002405Y-117207005D01*
X149012365Y-117244613D01*
X149012366Y-117244615D01*
X149012367Y-117244618D01*
X149028762Y-117274106D01*
X149066923Y-117342744D01*
X149084958Y-117364496D01*
X149111517Y-117396530D01*
X149155321Y-117439672D01*
X149176356Y-117450951D01*
X149254265Y-117492725D01*
X149254271Y-117492727D01*
X149306181Y-117509205D01*
X149320861Y-117513865D01*
X149363752Y-117520988D01*
X149406636Y-117528111D01*
X149406637Y-117528111D01*
X149406643Y-117528112D01*
X150749879Y-117557361D01*
X150783317Y-117562715D01*
X150791971Y-117565351D01*
X150832804Y-117584644D01*
X150910838Y-117605118D01*
X150944118Y-117611898D01*
X150945333Y-117612075D01*
X150951639Y-117613997D01*
X150976120Y-117630083D01*
X151002012Y-117643779D01*
X151004978Y-117649045D01*
X151010031Y-117652365D01*
X151021928Y-117679132D01*
X151036306Y-117704653D01*
X151037355Y-117713839D01*
X151038410Y-117716212D01*
X151037959Y-117719132D01*
X151039500Y-117732614D01*
X151039500Y-117739619D01*
X151073581Y-117866814D01*
X151073609Y-117866915D01*
X151073610Y-117866918D01*
X151093427Y-117901241D01*
X151110041Y-117963242D01*
X151110041Y-118074326D01*
X151137334Y-118176189D01*
X151146523Y-118192104D01*
X151190061Y-118267513D01*
X151804028Y-118881480D01*
X151895353Y-118934207D01*
X151997214Y-118961500D01*
X151997216Y-118961500D01*
X159481725Y-118961500D01*
X159481727Y-118961500D01*
X159583588Y-118934207D01*
X159674913Y-118881480D01*
X159742398Y-118813993D01*
X159797986Y-118781899D01*
X159844156Y-118769528D01*
X159893184Y-118756393D01*
X159893184Y-118756392D01*
X159893186Y-118756392D01*
X160007314Y-118690500D01*
X160100500Y-118597314D01*
X160166392Y-118483186D01*
X160184151Y-118416906D01*
X160220516Y-118357246D01*
X160283363Y-118326717D01*
X160303926Y-118325000D01*
X160435750Y-118325000D01*
X160435750Y-117625000D01*
X160935750Y-117625000D01*
X160935750Y-118325000D01*
X161084242Y-118325000D01*
X161084245Y-118324999D01*
X161277431Y-118286572D01*
X161277443Y-118286569D01*
X161459421Y-118211192D01*
X161459434Y-118211185D01*
X161623212Y-118101751D01*
X161623216Y-118101748D01*
X161762498Y-117962466D01*
X161762501Y-117962462D01*
X161871935Y-117798684D01*
X161871942Y-117798671D01*
X161947319Y-117616692D01*
X161947319Y-117616690D01*
X161955612Y-117575000D01*
X161152738Y-117575000D01*
X161169955Y-117565060D01*
X161225810Y-117509205D01*
X161265306Y-117440796D01*
X161285750Y-117364496D01*
X161285750Y-117285504D01*
X161265306Y-117209204D01*
X161225810Y-117140795D01*
X161169955Y-117084940D01*
X161152738Y-117075000D01*
X161955612Y-117075000D01*
X161947319Y-117033309D01*
X161947319Y-117033307D01*
X161871942Y-116851328D01*
X161871935Y-116851315D01*
X161762501Y-116687537D01*
X161762498Y-116687533D01*
X161623216Y-116548251D01*
X161623212Y-116548248D01*
X161459434Y-116438814D01*
X161459421Y-116438807D01*
X161277443Y-116363430D01*
X161277431Y-116363427D01*
X161216546Y-116351316D01*
X161154635Y-116318931D01*
X161120061Y-116258215D01*
X161120069Y-116215334D01*
X161117769Y-116215087D01*
X161124999Y-116147844D01*
X161125000Y-116147827D01*
X161125000Y-115850000D01*
X159300000Y-115850000D01*
X159300000Y-116600000D01*
X159435501Y-116600000D01*
X159502540Y-116619685D01*
X159548295Y-116672489D01*
X159558239Y-116741647D01*
X159538603Y-116792891D01*
X159499564Y-116851315D01*
X159499557Y-116851328D01*
X159424180Y-117033307D01*
X159424180Y-117033309D01*
X159415888Y-117075000D01*
X160218762Y-117075000D01*
X160201545Y-117084940D01*
X160145690Y-117140795D01*
X160106194Y-117209204D01*
X160085750Y-117285504D01*
X160085750Y-117364496D01*
X160106194Y-117440796D01*
X160145690Y-117509205D01*
X160201545Y-117565060D01*
X160218762Y-117575000D01*
X159415886Y-117575000D01*
X159404705Y-117588623D01*
X159402787Y-117610057D01*
X159359922Y-117665233D01*
X159294032Y-117688475D01*
X159226035Y-117672405D01*
X159211912Y-117663028D01*
X159207318Y-117659502D01*
X159093187Y-117593608D01*
X158986642Y-117565060D01*
X158965892Y-117559500D01*
X158834108Y-117559500D01*
X158706812Y-117593608D01*
X158592686Y-117659500D01*
X158592683Y-117659502D01*
X158563005Y-117689181D01*
X158501682Y-117722666D01*
X158475324Y-117725500D01*
X158146771Y-117725500D01*
X158079732Y-117705815D01*
X158033977Y-117653011D01*
X158024033Y-117583853D01*
X158025154Y-117577309D01*
X158025613Y-117575000D01*
X157222738Y-117575000D01*
X157239955Y-117565060D01*
X157295810Y-117509205D01*
X157335306Y-117440796D01*
X157355750Y-117364496D01*
X157355750Y-117285504D01*
X157335306Y-117209204D01*
X157295810Y-117140795D01*
X157239955Y-117084940D01*
X157222738Y-117075000D01*
X158025612Y-117075000D01*
X158017319Y-117033309D01*
X158017319Y-117033307D01*
X157941942Y-116851328D01*
X157941935Y-116851315D01*
X157902897Y-116792891D01*
X157882019Y-116726214D01*
X157900503Y-116658834D01*
X157952482Y-116612143D01*
X158005999Y-116600000D01*
X158800000Y-116600000D01*
X158800000Y-115724000D01*
X158819685Y-115656961D01*
X158872489Y-115611206D01*
X158924000Y-115600000D01*
X159050000Y-115600000D01*
X159050000Y-115474000D01*
X159069685Y-115406961D01*
X159122489Y-115361206D01*
X159174000Y-115350000D01*
X161125000Y-115350000D01*
X161125000Y-115052172D01*
X161124999Y-115052155D01*
X161118598Y-114992627D01*
X161118596Y-114992620D01*
X161068354Y-114857913D01*
X161068350Y-114857906D01*
X160982190Y-114742812D01*
X160982187Y-114742809D01*
X160867093Y-114656649D01*
X160867086Y-114656645D01*
X160732379Y-114606403D01*
X160732374Y-114606402D01*
X160717099Y-114604759D01*
X160652549Y-114578018D01*
X160612704Y-114520624D01*
X160610213Y-114450798D01*
X160645868Y-114390711D01*
X160698268Y-114361695D01*
X160702720Y-114360502D01*
X160702725Y-114360502D01*
X160804586Y-114333209D01*
X160895911Y-114280482D01*
X161171911Y-114004481D01*
X161171913Y-114004480D01*
X161246480Y-113929913D01*
X161278188Y-113874993D01*
X161299207Y-113838588D01*
X161326500Y-113736727D01*
X161326500Y-113631273D01*
X161326500Y-112206273D01*
X161313335Y-112157140D01*
X161299207Y-112104412D01*
X161246480Y-112013087D01*
X161072913Y-111839520D01*
X161027250Y-111813156D01*
X160981589Y-111786793D01*
X160930657Y-111773146D01*
X160879727Y-111759500D01*
X160879726Y-111759500D01*
X160755705Y-111759500D01*
X160688666Y-111739815D01*
X160642911Y-111687011D01*
X160632967Y-111617853D01*
X160661992Y-111554297D01*
X160720770Y-111516523D01*
X160727194Y-111514822D01*
X160732379Y-111513596D01*
X160867086Y-111463354D01*
X160867093Y-111463350D01*
X160982187Y-111377190D01*
X160982190Y-111377187D01*
X161068350Y-111262093D01*
X161068354Y-111262086D01*
X161118596Y-111127379D01*
X161118598Y-111127372D01*
X161124999Y-111067844D01*
X161125000Y-111067827D01*
X161125000Y-110770000D01*
X159174000Y-110770000D01*
X159106961Y-110750315D01*
X159061206Y-110697511D01*
X159050000Y-110646000D01*
X159050000Y-110520000D01*
X158924000Y-110520000D01*
X158856961Y-110500315D01*
X158811206Y-110447511D01*
X158800000Y-110396000D01*
X158800000Y-109520000D01*
X159300000Y-109520000D01*
X159300000Y-110270000D01*
X161125000Y-110270000D01*
X161125000Y-109972172D01*
X161124999Y-109972155D01*
X161118598Y-109912627D01*
X161118597Y-109912623D01*
X161088110Y-109830883D01*
X161083126Y-109761191D01*
X161116611Y-109699868D01*
X161177934Y-109666383D01*
X161180102Y-109665931D01*
X161277440Y-109646570D01*
X161277443Y-109646569D01*
X161459421Y-109571192D01*
X161459434Y-109571185D01*
X161623212Y-109461751D01*
X161623216Y-109461748D01*
X161762498Y-109322466D01*
X161762501Y-109322462D01*
X161871935Y-109158684D01*
X161871942Y-109158671D01*
X161947319Y-108976692D01*
X161947319Y-108976690D01*
X161955612Y-108935000D01*
X161152738Y-108935000D01*
X161169955Y-108925060D01*
X161225810Y-108869205D01*
X161265306Y-108800796D01*
X161285750Y-108724496D01*
X161285750Y-108645504D01*
X161265306Y-108569204D01*
X161225810Y-108500795D01*
X161169955Y-108444940D01*
X161152738Y-108435000D01*
X161955612Y-108435000D01*
X161947319Y-108393309D01*
X161947319Y-108393307D01*
X161871942Y-108211328D01*
X161871935Y-108211315D01*
X161762501Y-108047537D01*
X161762498Y-108047533D01*
X161623216Y-107908251D01*
X161623212Y-107908248D01*
X161459434Y-107798814D01*
X161459421Y-107798807D01*
X161277443Y-107723430D01*
X161277431Y-107723427D01*
X161084245Y-107685000D01*
X160935750Y-107685000D01*
X160935750Y-108385000D01*
X160435750Y-108385000D01*
X160435750Y-107685000D01*
X160287254Y-107685000D01*
X160094068Y-107723427D01*
X160094056Y-107723430D01*
X159912078Y-107798807D01*
X159912065Y-107798814D01*
X159748287Y-107908248D01*
X159748283Y-107908251D01*
X159609001Y-108047533D01*
X159608998Y-108047537D01*
X159499564Y-108211315D01*
X159499557Y-108211328D01*
X159424180Y-108393307D01*
X159424180Y-108393309D01*
X159415888Y-108435000D01*
X160218762Y-108435000D01*
X160201545Y-108444940D01*
X160145690Y-108500795D01*
X160106194Y-108569204D01*
X160085750Y-108645504D01*
X160085750Y-108724496D01*
X160106194Y-108800796D01*
X160145690Y-108869205D01*
X160201545Y-108925060D01*
X160218762Y-108935000D01*
X159415888Y-108935000D01*
X159424180Y-108976690D01*
X159424180Y-108976692D01*
X159499557Y-109158671D01*
X159499564Y-109158684D01*
X159612103Y-109327109D01*
X159632981Y-109393786D01*
X159614497Y-109461167D01*
X159562518Y-109507857D01*
X159509001Y-109520000D01*
X159300000Y-109520000D01*
X158800000Y-109520000D01*
X157932499Y-109520000D01*
X157865460Y-109500315D01*
X157819705Y-109447511D01*
X157809761Y-109378353D01*
X157829397Y-109327109D01*
X157941935Y-109158684D01*
X157941942Y-109158671D01*
X158017319Y-108976692D01*
X158017319Y-108976690D01*
X158025612Y-108935000D01*
X157222738Y-108935000D01*
X157239955Y-108925060D01*
X157295810Y-108869205D01*
X157335306Y-108800796D01*
X157355750Y-108724496D01*
X157355750Y-108645504D01*
X157335306Y-108569204D01*
X157295810Y-108500795D01*
X157239955Y-108444940D01*
X157222738Y-108435000D01*
X158025612Y-108435000D01*
X158017319Y-108393309D01*
X158017319Y-108393307D01*
X157941942Y-108211328D01*
X157941935Y-108211315D01*
X157832501Y-108047537D01*
X157832498Y-108047533D01*
X157693216Y-107908251D01*
X157693212Y-107908248D01*
X157529434Y-107798814D01*
X157529421Y-107798807D01*
X157347443Y-107723430D01*
X157347431Y-107723427D01*
X157154245Y-107685000D01*
X156755750Y-107685000D01*
X156755750Y-108385000D01*
X156255750Y-108385000D01*
X156255750Y-107685000D01*
X156036529Y-107685000D01*
X155969490Y-107665315D01*
X155923735Y-107612511D01*
X155912533Y-107561976D01*
X155910336Y-107282996D01*
X155906790Y-106832581D01*
X155925946Y-106765391D01*
X155978388Y-106719222D01*
X156030786Y-106707607D01*
X161934108Y-106707607D01*
X161993040Y-106707607D01*
X162006922Y-106708387D01*
X162022910Y-106710188D01*
X162097266Y-106718565D01*
X162124331Y-106724743D01*
X162203540Y-106752460D01*
X162228547Y-106764502D01*
X162299603Y-106809151D01*
X162321308Y-106826460D01*
X162380639Y-106885791D01*
X162397952Y-106907500D01*
X162442596Y-106978550D01*
X162454644Y-107003569D01*
X162482356Y-107082769D01*
X162488534Y-107109840D01*
X162498719Y-107200245D01*
X162499499Y-107214127D01*
X162499499Y-107282983D01*
X162499500Y-107282996D01*
X162499500Y-118727037D01*
X162499494Y-118727060D01*
X162499499Y-118781899D01*
X162499499Y-118786005D01*
X162499498Y-118786008D01*
X162498720Y-118799878D01*
X162488549Y-118890207D01*
X162482372Y-118917280D01*
X162454665Y-118996477D01*
X162442616Y-119021499D01*
X162397984Y-119092534D01*
X162380670Y-119114245D01*
X162321346Y-119173569D01*
X162299634Y-119190884D01*
X162228593Y-119235519D01*
X162203572Y-119247567D01*
X162124382Y-119275272D01*
X162097307Y-119281450D01*
X162006923Y-119291626D01*
X161993037Y-119292404D01*
X161926064Y-119292397D01*
X161925942Y-119292405D01*
X106006962Y-119292405D01*
X105993078Y-119291625D01*
X105981355Y-119290304D01*
X105902734Y-119281445D01*
X105875665Y-119275267D01*
X105796461Y-119247553D01*
X105771442Y-119235504D01*
X105700394Y-119190861D01*
X105678686Y-119173550D01*
X105619349Y-119114214D01*
X105602037Y-119092505D01*
X105557420Y-119021499D01*
X105557396Y-119021459D01*
X105545348Y-118996443D01*
X105517632Y-118917234D01*
X105511454Y-118890164D01*
X105510475Y-118881479D01*
X105501280Y-118799868D01*
X105500500Y-118785984D01*
X105500500Y-109299108D01*
X123755250Y-109299108D01*
X123755250Y-109430891D01*
X123789358Y-109558187D01*
X123817722Y-109607314D01*
X123855250Y-109672314D01*
X123948436Y-109765500D01*
X124023780Y-109809000D01*
X124059903Y-109829856D01*
X124062564Y-109831392D01*
X124189858Y-109865500D01*
X124189860Y-109865500D01*
X124321640Y-109865500D01*
X124321642Y-109865500D01*
X124448936Y-109831392D01*
X124563064Y-109765500D01*
X124591745Y-109736819D01*
X124653068Y-109703334D01*
X124679426Y-109700500D01*
X129311960Y-109700500D01*
X129373960Y-109717113D01*
X129407214Y-109736312D01*
X129459314Y-109766392D01*
X129586608Y-109800500D01*
X129586610Y-109800500D01*
X129718390Y-109800500D01*
X129718392Y-109800500D01*
X129845686Y-109766392D01*
X129959814Y-109700500D01*
X130053000Y-109607314D01*
X130118892Y-109493186D01*
X130153000Y-109365892D01*
X130153000Y-109234108D01*
X130118892Y-109106814D01*
X130053000Y-108992686D01*
X129959814Y-108899500D01*
X129899192Y-108864500D01*
X129845687Y-108833608D01*
X129782039Y-108816554D01*
X129718392Y-108799500D01*
X129586608Y-108799500D01*
X129459314Y-108833608D01*
X129459313Y-108833608D01*
X129459311Y-108833609D01*
X129459310Y-108833609D01*
X129373960Y-108882887D01*
X129311960Y-108899500D01*
X124468589Y-108899500D01*
X124436497Y-108895275D01*
X124321642Y-108864500D01*
X124189858Y-108864500D01*
X124062562Y-108898608D01*
X123948436Y-108964500D01*
X123948433Y-108964502D01*
X123855252Y-109057683D01*
X123855250Y-109057686D01*
X123789358Y-109171812D01*
X123755250Y-109299108D01*
X105500500Y-109299108D01*
X105500500Y-107272972D01*
X105500507Y-107272946D01*
X105500501Y-107214003D01*
X105501277Y-107200149D01*
X105511449Y-107109786D01*
X105517623Y-107082730D01*
X105545335Y-107003519D01*
X105557378Y-106978511D01*
X105602017Y-106907463D01*
X105619325Y-106885758D01*
X105678656Y-106826427D01*
X105700358Y-106809120D01*
X105771409Y-106764478D01*
X105796420Y-106752434D01*
X105875623Y-106724725D01*
X105902683Y-106718550D01*
X105992984Y-106708384D01*
X106006830Y-106707607D01*
X106065842Y-106707614D01*
X106065868Y-106707607D01*
X137092615Y-106707607D01*
X137159654Y-106727292D01*
G37*
%TD.AperFunction*%
%TA.AperFunction,Conductor*%
G36*
X156755750Y-109523215D02*
G01*
X156736065Y-109590254D01*
X156693752Y-109630601D01*
X156652388Y-109654483D01*
X156652382Y-109654487D01*
X156545237Y-109761632D01*
X156545235Y-109761635D01*
X156469469Y-109892863D01*
X156430250Y-110039234D01*
X156430250Y-110190765D01*
X156469469Y-110337136D01*
X156503455Y-110396000D01*
X156545235Y-110468365D01*
X156652385Y-110575515D01*
X156783615Y-110651281D01*
X156883095Y-110677936D01*
X156942753Y-110714300D01*
X156973283Y-110777146D01*
X156975000Y-110797710D01*
X156975000Y-111067844D01*
X156981401Y-111127372D01*
X156981403Y-111127379D01*
X157031645Y-111262086D01*
X157031649Y-111262093D01*
X157117809Y-111377187D01*
X157117812Y-111377190D01*
X157232906Y-111463350D01*
X157232913Y-111463354D01*
X157367620Y-111513596D01*
X157367619Y-111513596D01*
X157386747Y-111515653D01*
X157451298Y-111542391D01*
X157491146Y-111599784D01*
X157493640Y-111669609D01*
X157457988Y-111729698D01*
X157435495Y-111746329D01*
X157412686Y-111759498D01*
X157412683Y-111759500D01*
X157319502Y-111852681D01*
X157319500Y-111852684D01*
X157253608Y-111966812D01*
X157241210Y-112013084D01*
X157219687Y-112093407D01*
X157183322Y-112153067D01*
X157174224Y-112160579D01*
X157117814Y-112202807D01*
X157117808Y-112202814D01*
X157031649Y-112317906D01*
X157031645Y-112317913D01*
X156981403Y-112452620D01*
X156981401Y-112452627D01*
X156975000Y-112512155D01*
X156975000Y-112810000D01*
X158926000Y-112810000D01*
X158993039Y-112829685D01*
X159038794Y-112882489D01*
X159050000Y-112934000D01*
X159050000Y-113186000D01*
X159030315Y-113253039D01*
X158977511Y-113298794D01*
X158926000Y-113310000D01*
X156975000Y-113310000D01*
X156975000Y-113607844D01*
X156981401Y-113667372D01*
X156981403Y-113667379D01*
X157031645Y-113802086D01*
X157031649Y-113802093D01*
X157117809Y-113917187D01*
X157117812Y-113917190D01*
X157236769Y-114006242D01*
X157278640Y-114062176D01*
X157282231Y-114073410D01*
X157303608Y-114153188D01*
X157369500Y-114267316D01*
X157462686Y-114360502D01*
X157477643Y-114369138D01*
X157525858Y-114419705D01*
X157539080Y-114488312D01*
X157513112Y-114553176D01*
X157456198Y-114593704D01*
X157428899Y-114599813D01*
X157367626Y-114606401D01*
X157367620Y-114606403D01*
X157232913Y-114656645D01*
X157232906Y-114656649D01*
X157117812Y-114742809D01*
X157117809Y-114742812D01*
X157031649Y-114857906D01*
X157031645Y-114857913D01*
X156981403Y-114992620D01*
X156981401Y-114992627D01*
X156975000Y-115052155D01*
X156975000Y-115212289D01*
X156955315Y-115279328D01*
X156902511Y-115325083D01*
X156883094Y-115332063D01*
X156783615Y-115358719D01*
X156783613Y-115358719D01*
X156783613Y-115358720D01*
X156652385Y-115434485D01*
X156652382Y-115434487D01*
X156545237Y-115541632D01*
X156545235Y-115541635D01*
X156469469Y-115672863D01*
X156444433Y-115766300D01*
X156430250Y-115819234D01*
X156430250Y-115970766D01*
X156431366Y-115974930D01*
X156469469Y-116117136D01*
X156502800Y-116174865D01*
X156545235Y-116248365D01*
X156652385Y-116355515D01*
X156669621Y-116365466D01*
X156693750Y-116379397D01*
X156741966Y-116429964D01*
X156755750Y-116486784D01*
X156755750Y-117025000D01*
X156255750Y-117025000D01*
X156255750Y-116325000D01*
X155992656Y-116325000D01*
X155975137Y-116319855D01*
X155956876Y-116319726D01*
X155942306Y-116310215D01*
X155925617Y-116305315D01*
X155913660Y-116291516D01*
X155898368Y-116281534D01*
X155891253Y-116265657D01*
X155879862Y-116252511D01*
X155877263Y-116234436D01*
X155869796Y-116217773D01*
X155871375Y-116193491D01*
X155869918Y-116183353D01*
X155870047Y-116182480D01*
X155871594Y-116172233D01*
X155872585Y-116169991D01*
X155874742Y-116151391D01*
X155875058Y-116149305D01*
X155876152Y-116146953D01*
X155882426Y-116122047D01*
X155883428Y-116119521D01*
X155883439Y-116119500D01*
X155903124Y-116052461D01*
X155915500Y-115966389D01*
X155915500Y-109809000D01*
X155935185Y-109741961D01*
X155987989Y-109696206D01*
X156039500Y-109685000D01*
X156255750Y-109685000D01*
X156255750Y-108985000D01*
X156755750Y-108985000D01*
X156755750Y-109523215D01*
G37*
%TD.AperFunction*%
%TA.AperFunction,Conductor*%
G36*
X132322931Y-113597184D02*
G01*
X132389572Y-113618179D01*
X132434283Y-113671870D01*
X132444500Y-113721160D01*
X132444500Y-113896644D01*
X132437374Y-113920909D01*
X132434250Y-113946009D01*
X132426140Y-113959169D01*
X132424815Y-113963683D01*
X132415734Y-113976057D01*
X132354148Y-114049913D01*
X132296097Y-114088794D01*
X132258914Y-114094500D01*
X130671917Y-114094500D01*
X130604878Y-114074815D01*
X130573511Y-114045947D01*
X130531091Y-113990616D01*
X130505926Y-113925438D01*
X130505500Y-113915173D01*
X130505500Y-113688002D01*
X130525185Y-113620963D01*
X130577989Y-113575208D01*
X130631930Y-113564026D01*
X132322931Y-113597184D01*
G37*
%TD.AperFunction*%
%TD*%
%TA.AperFunction,Conductor*%
%TO.N,VCC*%
G36*
X110811465Y-110030245D02*
G01*
X110857723Y-110082609D01*
X110869426Y-110135762D01*
X110865504Y-110996065D01*
X110845514Y-111063014D01*
X110792502Y-111108528D01*
X110741505Y-111119500D01*
X110025316Y-111119500D01*
X109977864Y-111110061D01*
X109833501Y-111050264D01*
X109833489Y-111050261D01*
X109678845Y-111019500D01*
X109678842Y-111019500D01*
X109521158Y-111019500D01*
X109521155Y-111019500D01*
X109366510Y-111050261D01*
X109366498Y-111050264D01*
X109222136Y-111110061D01*
X109174684Y-111119500D01*
X108330247Y-111119500D01*
X108271770Y-111131131D01*
X108271769Y-111131132D01*
X108205447Y-111175447D01*
X108161132Y-111241769D01*
X108161131Y-111241770D01*
X108149500Y-111300247D01*
X108149500Y-112339752D01*
X108161131Y-112398229D01*
X108161132Y-112398230D01*
X108205447Y-112464552D01*
X108271769Y-112508867D01*
X108271770Y-112508868D01*
X108330247Y-112520499D01*
X108330250Y-112520500D01*
X108330252Y-112520500D01*
X109174684Y-112520500D01*
X109222136Y-112529939D01*
X109366498Y-112589735D01*
X109366503Y-112589737D01*
X109521153Y-112620499D01*
X109521156Y-112620500D01*
X109521158Y-112620500D01*
X109678844Y-112620500D01*
X109678845Y-112620499D01*
X109833497Y-112589737D01*
X109908963Y-112558478D01*
X109977864Y-112529939D01*
X110025316Y-112520500D01*
X110733987Y-112520500D01*
X110801026Y-112540185D01*
X110846781Y-112592989D01*
X110857986Y-112645065D01*
X110840000Y-116589999D01*
X110840000Y-116590000D01*
X116390000Y-116570000D01*
X117028819Y-113608200D01*
X117062195Y-113546821D01*
X117123459Y-113513228D01*
X117150454Y-113510348D01*
X119828929Y-113519649D01*
X119855484Y-113522620D01*
X119928351Y-113538867D01*
X119925938Y-113566479D01*
X119925937Y-113566479D01*
X117075000Y-113550000D01*
X117050000Y-115575000D01*
X119740762Y-115597867D01*
X119740762Y-115597868D01*
X118558420Y-117885022D01*
X118510148Y-117935535D01*
X118468981Y-117950337D01*
X116120544Y-118348213D01*
X116099303Y-118349954D01*
X112367651Y-118334075D01*
X111410000Y-118330000D01*
X111409971Y-118330000D01*
X106799096Y-118330000D01*
X106732057Y-118310315D01*
X106686302Y-118257511D01*
X106675197Y-118211000D01*
X106608968Y-116570000D01*
X106590141Y-116103516D01*
X106590058Y-116096475D01*
X106688003Y-110170787D01*
X106708793Y-110104084D01*
X106762346Y-110059208D01*
X106810798Y-110048844D01*
X110744241Y-110011203D01*
X110811465Y-110030245D01*
G37*
%TD.AperFunction*%
%TD*%
%TA.AperFunction,Conductor*%
%TO.N,/VBUS*%
G36*
X151170000Y-116300000D02*
G01*
X152341779Y-116285533D01*
X152346769Y-116288867D01*
X152346772Y-116288867D01*
X152346773Y-116288868D01*
X152405247Y-116300499D01*
X152405250Y-116300500D01*
X152405252Y-116300500D01*
X152512800Y-116300500D01*
X152530060Y-116301707D01*
X152532618Y-116302066D01*
X152554269Y-116305110D01*
X154019712Y-116300500D01*
X154020102Y-116300500D01*
X155112999Y-116300500D01*
X155180038Y-116320185D01*
X155224414Y-116371398D01*
X155233604Y-116624115D01*
X155233604Y-116624129D01*
X155255919Y-117237783D01*
X155255924Y-117246649D01*
X155255668Y-117253901D01*
X155255250Y-117256007D01*
X155255250Y-117265805D01*
X155255173Y-117267994D01*
X155244815Y-117299168D01*
X155235565Y-117330673D01*
X155233524Y-117333156D01*
X155233144Y-117334300D01*
X155231481Y-117335641D01*
X155220388Y-117349137D01*
X150910879Y-117255295D01*
X149413294Y-117222684D01*
X149346699Y-117201544D01*
X149302105Y-117147757D01*
X149292010Y-117096691D01*
X149299715Y-116624127D01*
X149320000Y-115380000D01*
X149319999Y-115380000D01*
X146923669Y-115440350D01*
X146923667Y-115440350D01*
X145638727Y-116200348D01*
X145638724Y-116200350D01*
X144798726Y-117150348D01*
X144798726Y-117150349D01*
X144790190Y-117858815D01*
X144769699Y-117925612D01*
X144716348Y-117970728D01*
X144667186Y-117981317D01*
X141141965Y-118009369D01*
X141074771Y-117990219D01*
X141028597Y-117937780D01*
X141016990Y-117887119D01*
X140989997Y-115970632D01*
X141008736Y-115903325D01*
X141060890Y-115856831D01*
X141074257Y-115851425D01*
X143398726Y-115065350D01*
X145525360Y-113954225D01*
X145581880Y-113940133D01*
X151140000Y-113900000D01*
X151170000Y-116300000D01*
G37*
%TD.AperFunction*%
%TD*%
%TA.AperFunction,Conductor*%
%TO.N,VCC*%
G36*
X133425000Y-114900000D02*
G01*
X132750000Y-114900000D01*
X132750000Y-113300000D01*
X130200000Y-113249999D01*
X130200000Y-113250000D01*
X130200000Y-114900000D01*
X129375000Y-114900000D01*
X129400000Y-112100000D01*
X129260000Y-112157142D01*
X129260000Y-112157140D01*
X129261544Y-112154843D01*
X129315272Y-112110177D01*
X129364468Y-112100000D01*
X133424999Y-112100000D01*
X133425000Y-112100000D01*
X133425000Y-114900000D01*
G37*
%TD.AperFunction*%
%TD*%
%TA.AperFunction,Conductor*%
%TO.N,VCC*%
G36*
X155544308Y-106727292D02*
G01*
X155590063Y-106780096D01*
X155601265Y-106830631D01*
X155609996Y-107939492D01*
X155610000Y-107940468D01*
X155610000Y-108007259D01*
X155590315Y-108074298D01*
X155554892Y-108110360D01*
X155509208Y-108140886D01*
X155509201Y-108140892D01*
X155411638Y-108238454D01*
X155411635Y-108238458D01*
X155334978Y-108353182D01*
X155334971Y-108353195D01*
X155282171Y-108480667D01*
X155282168Y-108480677D01*
X155255250Y-108616004D01*
X155255250Y-108616007D01*
X155255250Y-108753993D01*
X155255250Y-108753995D01*
X155255249Y-108753995D01*
X155282168Y-108889322D01*
X155282171Y-108889332D01*
X155334971Y-109016804D01*
X155334978Y-109016817D01*
X155411635Y-109131541D01*
X155411638Y-109131545D01*
X155509205Y-109229112D01*
X155509208Y-109229114D01*
X155554891Y-109259638D01*
X155599695Y-109313249D01*
X155610000Y-109362740D01*
X155610000Y-115966389D01*
X155590315Y-116033428D01*
X155537511Y-116079183D01*
X155486390Y-116090388D01*
X154846954Y-116092398D01*
X154822377Y-116090017D01*
X154786038Y-116082790D01*
X154786036Y-116082790D01*
X154648050Y-116082790D01*
X154648049Y-116082790D01*
X154607547Y-116090845D01*
X154583749Y-116093226D01*
X152553623Y-116099611D01*
X152486522Y-116080138D01*
X152440601Y-116027478D01*
X152429235Y-115976382D01*
X152390002Y-109630323D01*
X152390000Y-109629556D01*
X152390000Y-108700000D01*
X140975753Y-108771085D01*
X140908592Y-108751818D01*
X140877242Y-108719147D01*
X140875430Y-108720538D01*
X140870478Y-108714085D01*
X140795914Y-108639521D01*
X140795913Y-108639520D01*
X140704587Y-108586793D01*
X140602727Y-108559500D01*
X140497273Y-108559500D01*
X140395413Y-108586793D01*
X140395410Y-108586794D01*
X140304085Y-108639521D01*
X140229521Y-108714085D01*
X140176794Y-108805410D01*
X140176793Y-108805413D01*
X140149500Y-108907273D01*
X140149500Y-108968469D01*
X140129815Y-109035508D01*
X140129170Y-109036502D01*
X139854505Y-109455039D01*
X139801266Y-109500288D01*
X139772013Y-109509184D01*
X137950001Y-109824999D01*
X137424999Y-110400000D01*
X135575000Y-113649998D01*
X135575000Y-114776000D01*
X135555315Y-114843039D01*
X135502511Y-114888794D01*
X135451000Y-114900000D01*
X133425000Y-114900000D01*
X133425000Y-112100000D01*
X135065379Y-109266616D01*
X135089195Y-109237071D01*
X137831156Y-106739928D01*
X137893975Y-106709343D01*
X137914649Y-106707607D01*
X155477269Y-106707607D01*
X155544308Y-106727292D01*
G37*
%TD.AperFunction*%
%TD*%
%TA.AperFunction,Conductor*%
%TO.N,VCC*%
G36*
X129375000Y-114900000D02*
G01*
X126293073Y-115560413D01*
X125888370Y-115647135D01*
X125861334Y-115649883D01*
X119740763Y-115597867D01*
X119740762Y-115597867D01*
X117050000Y-115575000D01*
X117075000Y-113550000D01*
X125566119Y-113599081D01*
X125724998Y-113600000D01*
X125724998Y-113599999D01*
X125725000Y-113600000D01*
X129400000Y-112100000D01*
X129375000Y-114900000D01*
G37*
%TD.AperFunction*%
%TD*%
%TA.AperFunction,Conductor*%
%TO.N,/VBUS*%
G36*
X155220387Y-117349137D02*
G01*
X155217212Y-117353002D01*
X155184072Y-117384879D01*
X155181039Y-117381726D01*
X155147762Y-117409622D01*
X155098102Y-117420000D01*
X154132288Y-117420000D01*
X154128055Y-117419928D01*
X151792327Y-117340139D01*
X151734562Y-117323599D01*
X151707890Y-117308200D01*
X151694587Y-117300520D01*
X151592727Y-117273227D01*
X151487273Y-117273227D01*
X151385413Y-117300520D01*
X151385410Y-117300521D01*
X151374096Y-117307053D01*
X151307869Y-117323590D01*
X151015604Y-117313607D01*
X150988369Y-117309620D01*
X150910335Y-117289146D01*
X150910879Y-117255295D01*
X155220387Y-117349137D01*
G37*
%TD.AperFunction*%
%TA.AperFunction,Conductor*%
G36*
X155225793Y-116372989D02*
G01*
X155236980Y-116426617D01*
X155233604Y-116624115D01*
X155224414Y-116371398D01*
X155225793Y-116372989D01*
G37*
%TD.AperFunction*%
%TA.AperFunction,Conductor*%
G36*
X152129484Y-109971073D02*
G01*
X152175644Y-110023523D01*
X152187247Y-110075134D01*
X152223739Y-115977659D01*
X152223935Y-115980949D01*
X152223913Y-115980950D01*
X152224500Y-115991371D01*
X152224500Y-116119752D01*
X152236131Y-116178229D01*
X152236132Y-116178231D01*
X152259902Y-116213804D01*
X152259903Y-116213805D01*
X152280448Y-116244552D01*
X152290028Y-116250953D01*
X152290000Y-116260000D01*
X152303498Y-116259953D01*
X152341780Y-116285533D01*
X151170000Y-116300000D01*
X151140000Y-113900000D01*
X150964802Y-113901265D01*
X150974541Y-113295494D01*
X150991139Y-113235489D01*
X151003206Y-113214589D01*
X151003207Y-113214587D01*
X151030500Y-113112727D01*
X151030500Y-113007273D01*
X151003207Y-112905413D01*
X150998565Y-112897374D01*
X150981971Y-112833387D01*
X151010000Y-111090000D01*
X151010000Y-110083049D01*
X151029685Y-110016010D01*
X151082489Y-109970255D01*
X151133043Y-109959053D01*
X152062296Y-109951905D01*
X152129484Y-109971073D01*
G37*
%TD.AperFunction*%
%TD*%
M02*
