%TF.GenerationSoftware,KiCad,Pcbnew,9.0.0*%
%TF.CreationDate,2025-04-21T19:14:20+02:00*%
%TF.ProjectId,HUSB238_3.3V_Version,48555342-3233-4385-9f33-2e33565f5665,rev?*%
%TF.SameCoordinates,Original*%
%TF.FileFunction,Legend,Bot*%
%TF.FilePolarity,Positive*%
%FSLAX46Y46*%
G04 Gerber Fmt 4.6, Leading zero omitted, Abs format (unit mm)*
G04 Created by KiCad (PCBNEW 9.0.0) date 2025-04-21 19:14:20*
%MOMM*%
%LPD*%
G01*
G04 APERTURE LIST*
%ADD10C,0.100000*%
%ADD11C,0.150000*%
%ADD12C,0.090000*%
%ADD13C,0.120000*%
%ADD14C,0.650000*%
%ADD15O,2.100000X1.000000*%
%ADD16O,1.600000X1.000000*%
%ADD17R,2.500000X1.000000*%
%ADD18R,1.700000X1.700000*%
%ADD19O,1.700000X1.700000*%
%ADD20R,3.150000X1.000000*%
G04 APERTURE END LIST*
D10*
X153970000Y-106750000D02*
X153970000Y-107950000D01*
X158560000Y-107300000D02*
X159760000Y-107300000D01*
X114010000Y-107180000D02*
X115210000Y-107180000D01*
X153370000Y-107350000D02*
X154570000Y-107350000D01*
X108860000Y-107190000D02*
X110060000Y-107190000D01*
X109460000Y-106590000D02*
X109460000Y-107790000D01*
X141557544Y-111192172D02*
X141557544Y-110492172D01*
X141557544Y-110492172D02*
X141324211Y-110992172D01*
X141324211Y-110992172D02*
X141090877Y-110492172D01*
X141090877Y-110492172D02*
X141090877Y-111192172D01*
X140457544Y-111192172D02*
X140457544Y-110825505D01*
X140457544Y-110825505D02*
X140490877Y-110758839D01*
X140490877Y-110758839D02*
X140557544Y-110725505D01*
X140557544Y-110725505D02*
X140690877Y-110725505D01*
X140690877Y-110725505D02*
X140757544Y-110758839D01*
X140457544Y-111158839D02*
X140524211Y-111192172D01*
X140524211Y-111192172D02*
X140690877Y-111192172D01*
X140690877Y-111192172D02*
X140757544Y-111158839D01*
X140757544Y-111158839D02*
X140790877Y-111092172D01*
X140790877Y-111092172D02*
X140790877Y-111025505D01*
X140790877Y-111025505D02*
X140757544Y-110958839D01*
X140757544Y-110958839D02*
X140690877Y-110925505D01*
X140690877Y-110925505D02*
X140524211Y-110925505D01*
X140524211Y-110925505D02*
X140457544Y-110892172D01*
X140124211Y-111192172D02*
X140124211Y-110492172D01*
X140057544Y-110925505D02*
X139857544Y-111192172D01*
X139857544Y-110725505D02*
X140124211Y-110992172D01*
X139290877Y-111158839D02*
X139357544Y-111192172D01*
X139357544Y-111192172D02*
X139490877Y-111192172D01*
X139490877Y-111192172D02*
X139557544Y-111158839D01*
X139557544Y-111158839D02*
X139590877Y-111092172D01*
X139590877Y-111092172D02*
X139590877Y-110825505D01*
X139590877Y-110825505D02*
X139557544Y-110758839D01*
X139557544Y-110758839D02*
X139490877Y-110725505D01*
X139490877Y-110725505D02*
X139357544Y-110725505D01*
X139357544Y-110725505D02*
X139290877Y-110758839D01*
X139290877Y-110758839D02*
X139257544Y-110825505D01*
X139257544Y-110825505D02*
X139257544Y-110892172D01*
X139257544Y-110892172D02*
X139590877Y-110958839D01*
X138457544Y-111158839D02*
X138390878Y-111192172D01*
X138390878Y-111192172D02*
X138257544Y-111192172D01*
X138257544Y-111192172D02*
X138190878Y-111158839D01*
X138190878Y-111158839D02*
X138157544Y-111092172D01*
X138157544Y-111092172D02*
X138157544Y-111058839D01*
X138157544Y-111058839D02*
X138190878Y-110992172D01*
X138190878Y-110992172D02*
X138257544Y-110958839D01*
X138257544Y-110958839D02*
X138357544Y-110958839D01*
X138357544Y-110958839D02*
X138424211Y-110925505D01*
X138424211Y-110925505D02*
X138457544Y-110858839D01*
X138457544Y-110858839D02*
X138457544Y-110825505D01*
X138457544Y-110825505D02*
X138424211Y-110758839D01*
X138424211Y-110758839D02*
X138357544Y-110725505D01*
X138357544Y-110725505D02*
X138257544Y-110725505D01*
X138257544Y-110725505D02*
X138190878Y-110758839D01*
X137557544Y-110725505D02*
X137557544Y-111192172D01*
X137857544Y-110725505D02*
X137857544Y-111092172D01*
X137857544Y-111092172D02*
X137824211Y-111158839D01*
X137824211Y-111158839D02*
X137757544Y-111192172D01*
X137757544Y-111192172D02*
X137657544Y-111192172D01*
X137657544Y-111192172D02*
X137590877Y-111158839D01*
X137590877Y-111158839D02*
X137557544Y-111125505D01*
X137224211Y-111192172D02*
X137224211Y-110725505D01*
X137224211Y-110858839D02*
X137190878Y-110792172D01*
X137190878Y-110792172D02*
X137157544Y-110758839D01*
X137157544Y-110758839D02*
X137090878Y-110725505D01*
X137090878Y-110725505D02*
X137024211Y-110725505D01*
X136524211Y-111158839D02*
X136590878Y-111192172D01*
X136590878Y-111192172D02*
X136724211Y-111192172D01*
X136724211Y-111192172D02*
X136790878Y-111158839D01*
X136790878Y-111158839D02*
X136824211Y-111092172D01*
X136824211Y-111092172D02*
X136824211Y-110825505D01*
X136824211Y-110825505D02*
X136790878Y-110758839D01*
X136790878Y-110758839D02*
X136724211Y-110725505D01*
X136724211Y-110725505D02*
X136590878Y-110725505D01*
X136590878Y-110725505D02*
X136524211Y-110758839D01*
X136524211Y-110758839D02*
X136490878Y-110825505D01*
X136490878Y-110825505D02*
X136490878Y-110892172D01*
X136490878Y-110892172D02*
X136824211Y-110958839D01*
X135757545Y-110725505D02*
X135490878Y-110725505D01*
X135657545Y-110492172D02*
X135657545Y-111092172D01*
X135657545Y-111092172D02*
X135624212Y-111158839D01*
X135624212Y-111158839D02*
X135557545Y-111192172D01*
X135557545Y-111192172D02*
X135490878Y-111192172D01*
X135257545Y-111192172D02*
X135257545Y-110492172D01*
X134957545Y-111192172D02*
X134957545Y-110825505D01*
X134957545Y-110825505D02*
X134990878Y-110758839D01*
X134990878Y-110758839D02*
X135057545Y-110725505D01*
X135057545Y-110725505D02*
X135157545Y-110725505D01*
X135157545Y-110725505D02*
X135224212Y-110758839D01*
X135224212Y-110758839D02*
X135257545Y-110792172D01*
X134624212Y-111192172D02*
X134624212Y-110725505D01*
X134624212Y-110492172D02*
X134657545Y-110525505D01*
X134657545Y-110525505D02*
X134624212Y-110558839D01*
X134624212Y-110558839D02*
X134590879Y-110525505D01*
X134590879Y-110525505D02*
X134624212Y-110492172D01*
X134624212Y-110492172D02*
X134624212Y-110558839D01*
X134324212Y-111158839D02*
X134257546Y-111192172D01*
X134257546Y-111192172D02*
X134124212Y-111192172D01*
X134124212Y-111192172D02*
X134057546Y-111158839D01*
X134057546Y-111158839D02*
X134024212Y-111092172D01*
X134024212Y-111092172D02*
X134024212Y-111058839D01*
X134024212Y-111058839D02*
X134057546Y-110992172D01*
X134057546Y-110992172D02*
X134124212Y-110958839D01*
X134124212Y-110958839D02*
X134224212Y-110958839D01*
X134224212Y-110958839D02*
X134290879Y-110925505D01*
X134290879Y-110925505D02*
X134324212Y-110858839D01*
X134324212Y-110858839D02*
X134324212Y-110825505D01*
X134324212Y-110825505D02*
X134290879Y-110758839D01*
X134290879Y-110758839D02*
X134224212Y-110725505D01*
X134224212Y-110725505D02*
X134124212Y-110725505D01*
X134124212Y-110725505D02*
X134057546Y-110758839D01*
X132890879Y-110725505D02*
X132890879Y-111192172D01*
X133190879Y-110725505D02*
X133190879Y-111092172D01*
X133190879Y-111092172D02*
X133157546Y-111158839D01*
X133157546Y-111158839D02*
X133090879Y-111192172D01*
X133090879Y-111192172D02*
X132990879Y-111192172D01*
X132990879Y-111192172D02*
X132924212Y-111158839D01*
X132924212Y-111158839D02*
X132890879Y-111125505D01*
X132557546Y-110725505D02*
X132557546Y-111192172D01*
X132557546Y-110792172D02*
X132524213Y-110758839D01*
X132524213Y-110758839D02*
X132457546Y-110725505D01*
X132457546Y-110725505D02*
X132357546Y-110725505D01*
X132357546Y-110725505D02*
X132290879Y-110758839D01*
X132290879Y-110758839D02*
X132257546Y-110825505D01*
X132257546Y-110825505D02*
X132257546Y-111192172D01*
X131924213Y-111192172D02*
X131924213Y-110725505D01*
X131924213Y-110492172D02*
X131957546Y-110525505D01*
X131957546Y-110525505D02*
X131924213Y-110558839D01*
X131924213Y-110558839D02*
X131890880Y-110525505D01*
X131890880Y-110525505D02*
X131924213Y-110492172D01*
X131924213Y-110492172D02*
X131924213Y-110558839D01*
X131690880Y-110725505D02*
X131424213Y-110725505D01*
X131590880Y-110492172D02*
X131590880Y-111092172D01*
X131590880Y-111092172D02*
X131557547Y-111158839D01*
X131557547Y-111158839D02*
X131490880Y-111192172D01*
X131490880Y-111192172D02*
X131424213Y-111192172D01*
X130657547Y-111192172D02*
X130657547Y-110725505D01*
X130657547Y-110492172D02*
X130690880Y-110525505D01*
X130690880Y-110525505D02*
X130657547Y-110558839D01*
X130657547Y-110558839D02*
X130624214Y-110525505D01*
X130624214Y-110525505D02*
X130657547Y-110492172D01*
X130657547Y-110492172D02*
X130657547Y-110558839D01*
X130357547Y-111158839D02*
X130290881Y-111192172D01*
X130290881Y-111192172D02*
X130157547Y-111192172D01*
X130157547Y-111192172D02*
X130090881Y-111158839D01*
X130090881Y-111158839D02*
X130057547Y-111092172D01*
X130057547Y-111092172D02*
X130057547Y-111058839D01*
X130057547Y-111058839D02*
X130090881Y-110992172D01*
X130090881Y-110992172D02*
X130157547Y-110958839D01*
X130157547Y-110958839D02*
X130257547Y-110958839D01*
X130257547Y-110958839D02*
X130324214Y-110925505D01*
X130324214Y-110925505D02*
X130357547Y-110858839D01*
X130357547Y-110858839D02*
X130357547Y-110825505D01*
X130357547Y-110825505D02*
X130324214Y-110758839D01*
X130324214Y-110758839D02*
X130257547Y-110725505D01*
X130257547Y-110725505D02*
X130157547Y-110725505D01*
X130157547Y-110725505D02*
X130090881Y-110758839D01*
X129224214Y-110725505D02*
X129224214Y-111425505D01*
X129224214Y-110758839D02*
X129157547Y-110725505D01*
X129157547Y-110725505D02*
X129024214Y-110725505D01*
X129024214Y-110725505D02*
X128957547Y-110758839D01*
X128957547Y-110758839D02*
X128924214Y-110792172D01*
X128924214Y-110792172D02*
X128890881Y-110858839D01*
X128890881Y-110858839D02*
X128890881Y-111058839D01*
X128890881Y-111058839D02*
X128924214Y-111125505D01*
X128924214Y-111125505D02*
X128957547Y-111158839D01*
X128957547Y-111158839D02*
X129024214Y-111192172D01*
X129024214Y-111192172D02*
X129157547Y-111192172D01*
X129157547Y-111192172D02*
X129224214Y-111158839D01*
X128490881Y-111192172D02*
X128557548Y-111158839D01*
X128557548Y-111158839D02*
X128590881Y-111092172D01*
X128590881Y-111092172D02*
X128590881Y-110492172D01*
X127924214Y-110725505D02*
X127924214Y-111192172D01*
X128224214Y-110725505D02*
X128224214Y-111092172D01*
X128224214Y-111092172D02*
X128190881Y-111158839D01*
X128190881Y-111158839D02*
X128124214Y-111192172D01*
X128124214Y-111192172D02*
X128024214Y-111192172D01*
X128024214Y-111192172D02*
X127957547Y-111158839D01*
X127957547Y-111158839D02*
X127924214Y-111125505D01*
X127290881Y-110725505D02*
X127290881Y-111292172D01*
X127290881Y-111292172D02*
X127324214Y-111358839D01*
X127324214Y-111358839D02*
X127357548Y-111392172D01*
X127357548Y-111392172D02*
X127424214Y-111425505D01*
X127424214Y-111425505D02*
X127524214Y-111425505D01*
X127524214Y-111425505D02*
X127590881Y-111392172D01*
X127290881Y-111158839D02*
X127357548Y-111192172D01*
X127357548Y-111192172D02*
X127490881Y-111192172D01*
X127490881Y-111192172D02*
X127557548Y-111158839D01*
X127557548Y-111158839D02*
X127590881Y-111125505D01*
X127590881Y-111125505D02*
X127624214Y-111058839D01*
X127624214Y-111058839D02*
X127624214Y-110858839D01*
X127624214Y-110858839D02*
X127590881Y-110792172D01*
X127590881Y-110792172D02*
X127557548Y-110758839D01*
X127557548Y-110758839D02*
X127490881Y-110725505D01*
X127490881Y-110725505D02*
X127357548Y-110725505D01*
X127357548Y-110725505D02*
X127290881Y-110758839D01*
X126657548Y-110725505D02*
X126657548Y-111292172D01*
X126657548Y-111292172D02*
X126690881Y-111358839D01*
X126690881Y-111358839D02*
X126724215Y-111392172D01*
X126724215Y-111392172D02*
X126790881Y-111425505D01*
X126790881Y-111425505D02*
X126890881Y-111425505D01*
X126890881Y-111425505D02*
X126957548Y-111392172D01*
X126657548Y-111158839D02*
X126724215Y-111192172D01*
X126724215Y-111192172D02*
X126857548Y-111192172D01*
X126857548Y-111192172D02*
X126924215Y-111158839D01*
X126924215Y-111158839D02*
X126957548Y-111125505D01*
X126957548Y-111125505D02*
X126990881Y-111058839D01*
X126990881Y-111058839D02*
X126990881Y-110858839D01*
X126990881Y-110858839D02*
X126957548Y-110792172D01*
X126957548Y-110792172D02*
X126924215Y-110758839D01*
X126924215Y-110758839D02*
X126857548Y-110725505D01*
X126857548Y-110725505D02*
X126724215Y-110725505D01*
X126724215Y-110725505D02*
X126657548Y-110758839D01*
X126057548Y-111158839D02*
X126124215Y-111192172D01*
X126124215Y-111192172D02*
X126257548Y-111192172D01*
X126257548Y-111192172D02*
X126324215Y-111158839D01*
X126324215Y-111158839D02*
X126357548Y-111092172D01*
X126357548Y-111092172D02*
X126357548Y-110825505D01*
X126357548Y-110825505D02*
X126324215Y-110758839D01*
X126324215Y-110758839D02*
X126257548Y-110725505D01*
X126257548Y-110725505D02*
X126124215Y-110725505D01*
X126124215Y-110725505D02*
X126057548Y-110758839D01*
X126057548Y-110758839D02*
X126024215Y-110825505D01*
X126024215Y-110825505D02*
X126024215Y-110892172D01*
X126024215Y-110892172D02*
X126357548Y-110958839D01*
X125424215Y-111192172D02*
X125424215Y-110492172D01*
X125424215Y-111158839D02*
X125490882Y-111192172D01*
X125490882Y-111192172D02*
X125624215Y-111192172D01*
X125624215Y-111192172D02*
X125690882Y-111158839D01*
X125690882Y-111158839D02*
X125724215Y-111125505D01*
X125724215Y-111125505D02*
X125757548Y-111058839D01*
X125757548Y-111058839D02*
X125757548Y-110858839D01*
X125757548Y-110858839D02*
X125724215Y-110792172D01*
X125724215Y-110792172D02*
X125690882Y-110758839D01*
X125690882Y-110758839D02*
X125624215Y-110725505D01*
X125624215Y-110725505D02*
X125490882Y-110725505D01*
X125490882Y-110725505D02*
X125424215Y-110758839D01*
X124557549Y-111192172D02*
X124557549Y-110725505D01*
X124557549Y-110492172D02*
X124590882Y-110525505D01*
X124590882Y-110525505D02*
X124557549Y-110558839D01*
X124557549Y-110558839D02*
X124524216Y-110525505D01*
X124524216Y-110525505D02*
X124557549Y-110492172D01*
X124557549Y-110492172D02*
X124557549Y-110558839D01*
X124224216Y-110725505D02*
X124224216Y-111192172D01*
X124224216Y-110792172D02*
X124190883Y-110758839D01*
X124190883Y-110758839D02*
X124124216Y-110725505D01*
X124124216Y-110725505D02*
X124024216Y-110725505D01*
X124024216Y-110725505D02*
X123957549Y-110758839D01*
X123957549Y-110758839D02*
X123924216Y-110825505D01*
X123924216Y-110825505D02*
X123924216Y-111192172D01*
X123057550Y-111192172D02*
X123057550Y-110725505D01*
X123057550Y-110858839D02*
X123024217Y-110792172D01*
X123024217Y-110792172D02*
X122990883Y-110758839D01*
X122990883Y-110758839D02*
X122924217Y-110725505D01*
X122924217Y-110725505D02*
X122857550Y-110725505D01*
X122624217Y-111192172D02*
X122624217Y-110725505D01*
X122624217Y-110492172D02*
X122657550Y-110525505D01*
X122657550Y-110525505D02*
X122624217Y-110558839D01*
X122624217Y-110558839D02*
X122590884Y-110525505D01*
X122590884Y-110525505D02*
X122624217Y-110492172D01*
X122624217Y-110492172D02*
X122624217Y-110558839D01*
X121990884Y-110725505D02*
X121990884Y-111292172D01*
X121990884Y-111292172D02*
X122024217Y-111358839D01*
X122024217Y-111358839D02*
X122057551Y-111392172D01*
X122057551Y-111392172D02*
X122124217Y-111425505D01*
X122124217Y-111425505D02*
X122224217Y-111425505D01*
X122224217Y-111425505D02*
X122290884Y-111392172D01*
X121990884Y-111158839D02*
X122057551Y-111192172D01*
X122057551Y-111192172D02*
X122190884Y-111192172D01*
X122190884Y-111192172D02*
X122257551Y-111158839D01*
X122257551Y-111158839D02*
X122290884Y-111125505D01*
X122290884Y-111125505D02*
X122324217Y-111058839D01*
X122324217Y-111058839D02*
X122324217Y-110858839D01*
X122324217Y-110858839D02*
X122290884Y-110792172D01*
X122290884Y-110792172D02*
X122257551Y-110758839D01*
X122257551Y-110758839D02*
X122190884Y-110725505D01*
X122190884Y-110725505D02*
X122057551Y-110725505D01*
X122057551Y-110725505D02*
X121990884Y-110758839D01*
X121657551Y-111192172D02*
X121657551Y-110492172D01*
X121357551Y-111192172D02*
X121357551Y-110825505D01*
X121357551Y-110825505D02*
X121390884Y-110758839D01*
X121390884Y-110758839D02*
X121457551Y-110725505D01*
X121457551Y-110725505D02*
X121557551Y-110725505D01*
X121557551Y-110725505D02*
X121624218Y-110758839D01*
X121624218Y-110758839D02*
X121657551Y-110792172D01*
X121124218Y-110725505D02*
X120857551Y-110725505D01*
X121024218Y-110492172D02*
X121024218Y-111092172D01*
X121024218Y-111092172D02*
X120990885Y-111158839D01*
X120990885Y-111158839D02*
X120924218Y-111192172D01*
X120924218Y-111192172D02*
X120857551Y-111192172D01*
X120157552Y-110725505D02*
X120024218Y-111192172D01*
X120024218Y-111192172D02*
X119890885Y-110858839D01*
X119890885Y-110858839D02*
X119757552Y-111192172D01*
X119757552Y-111192172D02*
X119624218Y-110725505D01*
X119057552Y-111192172D02*
X119057552Y-110825505D01*
X119057552Y-110825505D02*
X119090885Y-110758839D01*
X119090885Y-110758839D02*
X119157552Y-110725505D01*
X119157552Y-110725505D02*
X119290885Y-110725505D01*
X119290885Y-110725505D02*
X119357552Y-110758839D01*
X119057552Y-111158839D02*
X119124219Y-111192172D01*
X119124219Y-111192172D02*
X119290885Y-111192172D01*
X119290885Y-111192172D02*
X119357552Y-111158839D01*
X119357552Y-111158839D02*
X119390885Y-111092172D01*
X119390885Y-111092172D02*
X119390885Y-111025505D01*
X119390885Y-111025505D02*
X119357552Y-110958839D01*
X119357552Y-110958839D02*
X119290885Y-110925505D01*
X119290885Y-110925505D02*
X119124219Y-110925505D01*
X119124219Y-110925505D02*
X119057552Y-110892172D01*
X118790886Y-110725505D02*
X118624219Y-111192172D01*
X118457552Y-110725505D02*
X118624219Y-111192172D01*
X118624219Y-111192172D02*
X118690886Y-111358839D01*
X118690886Y-111358839D02*
X118724219Y-111392172D01*
X118724219Y-111392172D02*
X118790886Y-111425505D01*
X141557544Y-112319133D02*
X141557544Y-111619133D01*
X141557544Y-111619133D02*
X141290877Y-111619133D01*
X141290877Y-111619133D02*
X141224211Y-111652466D01*
X141224211Y-111652466D02*
X141190877Y-111685800D01*
X141190877Y-111685800D02*
X141157544Y-111752466D01*
X141157544Y-111752466D02*
X141157544Y-111852466D01*
X141157544Y-111852466D02*
X141190877Y-111919133D01*
X141190877Y-111919133D02*
X141224211Y-111952466D01*
X141224211Y-111952466D02*
X141290877Y-111985800D01*
X141290877Y-111985800D02*
X141557544Y-111985800D01*
X140757544Y-112319133D02*
X140824211Y-112285800D01*
X140824211Y-112285800D02*
X140857544Y-112252466D01*
X140857544Y-112252466D02*
X140890877Y-112185800D01*
X140890877Y-112185800D02*
X140890877Y-111985800D01*
X140890877Y-111985800D02*
X140857544Y-111919133D01*
X140857544Y-111919133D02*
X140824211Y-111885800D01*
X140824211Y-111885800D02*
X140757544Y-111852466D01*
X140757544Y-111852466D02*
X140657544Y-111852466D01*
X140657544Y-111852466D02*
X140590877Y-111885800D01*
X140590877Y-111885800D02*
X140557544Y-111919133D01*
X140557544Y-111919133D02*
X140524211Y-111985800D01*
X140524211Y-111985800D02*
X140524211Y-112185800D01*
X140524211Y-112185800D02*
X140557544Y-112252466D01*
X140557544Y-112252466D02*
X140590877Y-112285800D01*
X140590877Y-112285800D02*
X140657544Y-112319133D01*
X140657544Y-112319133D02*
X140757544Y-112319133D01*
X140124211Y-112319133D02*
X140190878Y-112285800D01*
X140190878Y-112285800D02*
X140224211Y-112219133D01*
X140224211Y-112219133D02*
X140224211Y-111619133D01*
X139557544Y-112319133D02*
X139557544Y-111952466D01*
X139557544Y-111952466D02*
X139590877Y-111885800D01*
X139590877Y-111885800D02*
X139657544Y-111852466D01*
X139657544Y-111852466D02*
X139790877Y-111852466D01*
X139790877Y-111852466D02*
X139857544Y-111885800D01*
X139557544Y-112285800D02*
X139624211Y-112319133D01*
X139624211Y-112319133D02*
X139790877Y-112319133D01*
X139790877Y-112319133D02*
X139857544Y-112285800D01*
X139857544Y-112285800D02*
X139890877Y-112219133D01*
X139890877Y-112219133D02*
X139890877Y-112152466D01*
X139890877Y-112152466D02*
X139857544Y-112085800D01*
X139857544Y-112085800D02*
X139790877Y-112052466D01*
X139790877Y-112052466D02*
X139624211Y-112052466D01*
X139624211Y-112052466D02*
X139557544Y-112019133D01*
X139224211Y-112319133D02*
X139224211Y-111852466D01*
X139224211Y-111985800D02*
X139190878Y-111919133D01*
X139190878Y-111919133D02*
X139157544Y-111885800D01*
X139157544Y-111885800D02*
X139090878Y-111852466D01*
X139090878Y-111852466D02*
X139024211Y-111852466D01*
X138790878Y-112319133D02*
X138790878Y-111852466D01*
X138790878Y-111619133D02*
X138824211Y-111652466D01*
X138824211Y-111652466D02*
X138790878Y-111685800D01*
X138790878Y-111685800D02*
X138757545Y-111652466D01*
X138757545Y-111652466D02*
X138790878Y-111619133D01*
X138790878Y-111619133D02*
X138790878Y-111685800D01*
X138557545Y-111852466D02*
X138290878Y-111852466D01*
X138457545Y-111619133D02*
X138457545Y-112219133D01*
X138457545Y-112219133D02*
X138424212Y-112285800D01*
X138424212Y-112285800D02*
X138357545Y-112319133D01*
X138357545Y-112319133D02*
X138290878Y-112319133D01*
X138124212Y-111852466D02*
X137957545Y-112319133D01*
X137790878Y-111852466D02*
X137957545Y-112319133D01*
X137957545Y-112319133D02*
X138024212Y-112485800D01*
X138024212Y-112485800D02*
X138057545Y-112519133D01*
X138057545Y-112519133D02*
X138124212Y-112552466D01*
X136990879Y-112319133D02*
X136990879Y-111852466D01*
X136990879Y-111619133D02*
X137024212Y-111652466D01*
X137024212Y-111652466D02*
X136990879Y-111685800D01*
X136990879Y-111685800D02*
X136957546Y-111652466D01*
X136957546Y-111652466D02*
X136990879Y-111619133D01*
X136990879Y-111619133D02*
X136990879Y-111685800D01*
X136690879Y-112285800D02*
X136624213Y-112319133D01*
X136624213Y-112319133D02*
X136490879Y-112319133D01*
X136490879Y-112319133D02*
X136424213Y-112285800D01*
X136424213Y-112285800D02*
X136390879Y-112219133D01*
X136390879Y-112219133D02*
X136390879Y-112185800D01*
X136390879Y-112185800D02*
X136424213Y-112119133D01*
X136424213Y-112119133D02*
X136490879Y-112085800D01*
X136490879Y-112085800D02*
X136590879Y-112085800D01*
X136590879Y-112085800D02*
X136657546Y-112052466D01*
X136657546Y-112052466D02*
X136690879Y-111985800D01*
X136690879Y-111985800D02*
X136690879Y-111952466D01*
X136690879Y-111952466D02*
X136657546Y-111885800D01*
X136657546Y-111885800D02*
X136590879Y-111852466D01*
X136590879Y-111852466D02*
X136490879Y-111852466D01*
X136490879Y-111852466D02*
X136424213Y-111885800D01*
X135557546Y-112319133D02*
X135557546Y-111852466D01*
X135557546Y-111919133D02*
X135524213Y-111885800D01*
X135524213Y-111885800D02*
X135457546Y-111852466D01*
X135457546Y-111852466D02*
X135357546Y-111852466D01*
X135357546Y-111852466D02*
X135290879Y-111885800D01*
X135290879Y-111885800D02*
X135257546Y-111952466D01*
X135257546Y-111952466D02*
X135257546Y-112319133D01*
X135257546Y-111952466D02*
X135224213Y-111885800D01*
X135224213Y-111885800D02*
X135157546Y-111852466D01*
X135157546Y-111852466D02*
X135057546Y-111852466D01*
X135057546Y-111852466D02*
X134990879Y-111885800D01*
X134990879Y-111885800D02*
X134957546Y-111952466D01*
X134957546Y-111952466D02*
X134957546Y-112319133D01*
X134324213Y-112319133D02*
X134324213Y-111952466D01*
X134324213Y-111952466D02*
X134357546Y-111885800D01*
X134357546Y-111885800D02*
X134424213Y-111852466D01*
X134424213Y-111852466D02*
X134557546Y-111852466D01*
X134557546Y-111852466D02*
X134624213Y-111885800D01*
X134324213Y-112285800D02*
X134390880Y-112319133D01*
X134390880Y-112319133D02*
X134557546Y-112319133D01*
X134557546Y-112319133D02*
X134624213Y-112285800D01*
X134624213Y-112285800D02*
X134657546Y-112219133D01*
X134657546Y-112219133D02*
X134657546Y-112152466D01*
X134657546Y-112152466D02*
X134624213Y-112085800D01*
X134624213Y-112085800D02*
X134557546Y-112052466D01*
X134557546Y-112052466D02*
X134390880Y-112052466D01*
X134390880Y-112052466D02*
X134324213Y-112019133D01*
X133990880Y-112319133D02*
X133990880Y-111852466D01*
X133990880Y-111985800D02*
X133957547Y-111919133D01*
X133957547Y-111919133D02*
X133924213Y-111885800D01*
X133924213Y-111885800D02*
X133857547Y-111852466D01*
X133857547Y-111852466D02*
X133790880Y-111852466D01*
X133557547Y-112319133D02*
X133557547Y-111619133D01*
X133490880Y-112052466D02*
X133290880Y-112319133D01*
X133290880Y-111852466D02*
X133557547Y-112119133D01*
X132724213Y-112285800D02*
X132790880Y-112319133D01*
X132790880Y-112319133D02*
X132924213Y-112319133D01*
X132924213Y-112319133D02*
X132990880Y-112285800D01*
X132990880Y-112285800D02*
X133024213Y-112219133D01*
X133024213Y-112219133D02*
X133024213Y-111952466D01*
X133024213Y-111952466D02*
X132990880Y-111885800D01*
X132990880Y-111885800D02*
X132924213Y-111852466D01*
X132924213Y-111852466D02*
X132790880Y-111852466D01*
X132790880Y-111852466D02*
X132724213Y-111885800D01*
X132724213Y-111885800D02*
X132690880Y-111952466D01*
X132690880Y-111952466D02*
X132690880Y-112019133D01*
X132690880Y-112019133D02*
X133024213Y-112085800D01*
X132090880Y-112319133D02*
X132090880Y-111619133D01*
X132090880Y-112285800D02*
X132157547Y-112319133D01*
X132157547Y-112319133D02*
X132290880Y-112319133D01*
X132290880Y-112319133D02*
X132357547Y-112285800D01*
X132357547Y-112285800D02*
X132390880Y-112252466D01*
X132390880Y-112252466D02*
X132424213Y-112185800D01*
X132424213Y-112185800D02*
X132424213Y-111985800D01*
X132424213Y-111985800D02*
X132390880Y-111919133D01*
X132390880Y-111919133D02*
X132357547Y-111885800D01*
X132357547Y-111885800D02*
X132290880Y-111852466D01*
X132290880Y-111852466D02*
X132157547Y-111852466D01*
X132157547Y-111852466D02*
X132090880Y-111885800D01*
X130924214Y-112319133D02*
X130924214Y-111952466D01*
X130924214Y-111952466D02*
X130957547Y-111885800D01*
X130957547Y-111885800D02*
X131024214Y-111852466D01*
X131024214Y-111852466D02*
X131157547Y-111852466D01*
X131157547Y-111852466D02*
X131224214Y-111885800D01*
X130924214Y-112285800D02*
X130990881Y-112319133D01*
X130990881Y-112319133D02*
X131157547Y-112319133D01*
X131157547Y-112319133D02*
X131224214Y-112285800D01*
X131224214Y-112285800D02*
X131257547Y-112219133D01*
X131257547Y-112219133D02*
X131257547Y-112152466D01*
X131257547Y-112152466D02*
X131224214Y-112085800D01*
X131224214Y-112085800D02*
X131157547Y-112052466D01*
X131157547Y-112052466D02*
X130990881Y-112052466D01*
X130990881Y-112052466D02*
X130924214Y-112019133D01*
X130690881Y-111852466D02*
X130424214Y-111852466D01*
X130590881Y-111619133D02*
X130590881Y-112219133D01*
X130590881Y-112219133D02*
X130557548Y-112285800D01*
X130557548Y-112285800D02*
X130490881Y-112319133D01*
X130490881Y-112319133D02*
X130424214Y-112319133D01*
X129757548Y-111852466D02*
X129490881Y-111852466D01*
X129657548Y-111619133D02*
X129657548Y-112219133D01*
X129657548Y-112219133D02*
X129624215Y-112285800D01*
X129624215Y-112285800D02*
X129557548Y-112319133D01*
X129557548Y-112319133D02*
X129490881Y-112319133D01*
X129157548Y-112319133D02*
X129224215Y-112285800D01*
X129224215Y-112285800D02*
X129257548Y-112252466D01*
X129257548Y-112252466D02*
X129290881Y-112185800D01*
X129290881Y-112185800D02*
X129290881Y-111985800D01*
X129290881Y-111985800D02*
X129257548Y-111919133D01*
X129257548Y-111919133D02*
X129224215Y-111885800D01*
X129224215Y-111885800D02*
X129157548Y-111852466D01*
X129157548Y-111852466D02*
X129057548Y-111852466D01*
X129057548Y-111852466D02*
X128990881Y-111885800D01*
X128990881Y-111885800D02*
X128957548Y-111919133D01*
X128957548Y-111919133D02*
X128924215Y-111985800D01*
X128924215Y-111985800D02*
X128924215Y-112185800D01*
X128924215Y-112185800D02*
X128957548Y-112252466D01*
X128957548Y-112252466D02*
X128990881Y-112285800D01*
X128990881Y-112285800D02*
X129057548Y-112319133D01*
X129057548Y-112319133D02*
X129157548Y-112319133D01*
X128624215Y-111852466D02*
X128624215Y-112552466D01*
X128624215Y-111885800D02*
X128557548Y-111852466D01*
X128557548Y-111852466D02*
X128424215Y-111852466D01*
X128424215Y-111852466D02*
X128357548Y-111885800D01*
X128357548Y-111885800D02*
X128324215Y-111919133D01*
X128324215Y-111919133D02*
X128290882Y-111985800D01*
X128290882Y-111985800D02*
X128290882Y-112185800D01*
X128290882Y-112185800D02*
X128324215Y-112252466D01*
X128324215Y-112252466D02*
X128357548Y-112285800D01*
X128357548Y-112285800D02*
X128424215Y-112319133D01*
X128424215Y-112319133D02*
X128557548Y-112319133D01*
X128557548Y-112319133D02*
X128624215Y-112285800D01*
X127357549Y-112319133D02*
X127424216Y-112285800D01*
X127424216Y-112285800D02*
X127457549Y-112219133D01*
X127457549Y-112219133D02*
X127457549Y-111619133D01*
X126824215Y-112285800D02*
X126890882Y-112319133D01*
X126890882Y-112319133D02*
X127024215Y-112319133D01*
X127024215Y-112319133D02*
X127090882Y-112285800D01*
X127090882Y-112285800D02*
X127124215Y-112219133D01*
X127124215Y-112219133D02*
X127124215Y-111952466D01*
X127124215Y-111952466D02*
X127090882Y-111885800D01*
X127090882Y-111885800D02*
X127024215Y-111852466D01*
X127024215Y-111852466D02*
X126890882Y-111852466D01*
X126890882Y-111852466D02*
X126824215Y-111885800D01*
X126824215Y-111885800D02*
X126790882Y-111952466D01*
X126790882Y-111952466D02*
X126790882Y-112019133D01*
X126790882Y-112019133D02*
X127124215Y-112085800D01*
X126590882Y-111852466D02*
X126324215Y-111852466D01*
X126490882Y-112319133D02*
X126490882Y-111719133D01*
X126490882Y-111719133D02*
X126457549Y-111652466D01*
X126457549Y-111652466D02*
X126390882Y-111619133D01*
X126390882Y-111619133D02*
X126324215Y-111619133D01*
X126190882Y-111852466D02*
X125924215Y-111852466D01*
X126090882Y-111619133D02*
X126090882Y-112219133D01*
X126090882Y-112219133D02*
X126057549Y-112285800D01*
X126057549Y-112285800D02*
X125990882Y-112319133D01*
X125990882Y-112319133D02*
X125924215Y-112319133D01*
X124590882Y-112319133D02*
X124624216Y-112319133D01*
X124624216Y-112319133D02*
X124690882Y-112285800D01*
X124690882Y-112285800D02*
X124790882Y-112185800D01*
X124790882Y-112185800D02*
X124957549Y-111985800D01*
X124957549Y-111985800D02*
X125024216Y-111885800D01*
X125024216Y-111885800D02*
X125057549Y-111785800D01*
X125057549Y-111785800D02*
X125057549Y-111719133D01*
X125057549Y-111719133D02*
X125024216Y-111652466D01*
X125024216Y-111652466D02*
X124957549Y-111619133D01*
X124957549Y-111619133D02*
X124924216Y-111619133D01*
X124924216Y-111619133D02*
X124857549Y-111652466D01*
X124857549Y-111652466D02*
X124824216Y-111719133D01*
X124824216Y-111719133D02*
X124824216Y-111752466D01*
X124824216Y-111752466D02*
X124857549Y-111819133D01*
X124857549Y-111819133D02*
X124890882Y-111852466D01*
X124890882Y-111852466D02*
X125090882Y-111985800D01*
X125090882Y-111985800D02*
X125124216Y-112019133D01*
X125124216Y-112019133D02*
X125157549Y-112085800D01*
X125157549Y-112085800D02*
X125157549Y-112185800D01*
X125157549Y-112185800D02*
X125124216Y-112252466D01*
X125124216Y-112252466D02*
X125090882Y-112285800D01*
X125090882Y-112285800D02*
X125024216Y-112319133D01*
X125024216Y-112319133D02*
X124924216Y-112319133D01*
X124924216Y-112319133D02*
X124857549Y-112285800D01*
X124857549Y-112285800D02*
X124824216Y-112252466D01*
X124824216Y-112252466D02*
X124724216Y-112119133D01*
X124724216Y-112119133D02*
X124690882Y-112019133D01*
X124690882Y-112019133D02*
X124690882Y-111952466D01*
X123757549Y-112319133D02*
X123757549Y-111852466D01*
X123757549Y-111985800D02*
X123724216Y-111919133D01*
X123724216Y-111919133D02*
X123690882Y-111885800D01*
X123690882Y-111885800D02*
X123624216Y-111852466D01*
X123624216Y-111852466D02*
X123557549Y-111852466D01*
X123324216Y-112319133D02*
X123324216Y-111852466D01*
X123324216Y-111619133D02*
X123357549Y-111652466D01*
X123357549Y-111652466D02*
X123324216Y-111685800D01*
X123324216Y-111685800D02*
X123290883Y-111652466D01*
X123290883Y-111652466D02*
X123324216Y-111619133D01*
X123324216Y-111619133D02*
X123324216Y-111685800D01*
X122690883Y-111852466D02*
X122690883Y-112419133D01*
X122690883Y-112419133D02*
X122724216Y-112485800D01*
X122724216Y-112485800D02*
X122757550Y-112519133D01*
X122757550Y-112519133D02*
X122824216Y-112552466D01*
X122824216Y-112552466D02*
X122924216Y-112552466D01*
X122924216Y-112552466D02*
X122990883Y-112519133D01*
X122690883Y-112285800D02*
X122757550Y-112319133D01*
X122757550Y-112319133D02*
X122890883Y-112319133D01*
X122890883Y-112319133D02*
X122957550Y-112285800D01*
X122957550Y-112285800D02*
X122990883Y-112252466D01*
X122990883Y-112252466D02*
X123024216Y-112185800D01*
X123024216Y-112185800D02*
X123024216Y-111985800D01*
X123024216Y-111985800D02*
X122990883Y-111919133D01*
X122990883Y-111919133D02*
X122957550Y-111885800D01*
X122957550Y-111885800D02*
X122890883Y-111852466D01*
X122890883Y-111852466D02*
X122757550Y-111852466D01*
X122757550Y-111852466D02*
X122690883Y-111885800D01*
X122357550Y-112319133D02*
X122357550Y-111619133D01*
X122057550Y-112319133D02*
X122057550Y-111952466D01*
X122057550Y-111952466D02*
X122090883Y-111885800D01*
X122090883Y-111885800D02*
X122157550Y-111852466D01*
X122157550Y-111852466D02*
X122257550Y-111852466D01*
X122257550Y-111852466D02*
X122324217Y-111885800D01*
X122324217Y-111885800D02*
X122357550Y-111919133D01*
X121824217Y-111852466D02*
X121557550Y-111852466D01*
X121724217Y-111619133D02*
X121724217Y-112219133D01*
X121724217Y-112219133D02*
X121690884Y-112285800D01*
X121690884Y-112285800D02*
X121624217Y-112319133D01*
X121624217Y-112319133D02*
X121557550Y-112319133D01*
X120690884Y-112319133D02*
X120757551Y-112285800D01*
X120757551Y-112285800D02*
X120790884Y-112252466D01*
X120790884Y-112252466D02*
X120824217Y-112185800D01*
X120824217Y-112185800D02*
X120824217Y-111985800D01*
X120824217Y-111985800D02*
X120790884Y-111919133D01*
X120790884Y-111919133D02*
X120757551Y-111885800D01*
X120757551Y-111885800D02*
X120690884Y-111852466D01*
X120690884Y-111852466D02*
X120590884Y-111852466D01*
X120590884Y-111852466D02*
X120524217Y-111885800D01*
X120524217Y-111885800D02*
X120490884Y-111919133D01*
X120490884Y-111919133D02*
X120457551Y-111985800D01*
X120457551Y-111985800D02*
X120457551Y-112185800D01*
X120457551Y-112185800D02*
X120490884Y-112252466D01*
X120490884Y-112252466D02*
X120524217Y-112285800D01*
X120524217Y-112285800D02*
X120590884Y-112319133D01*
X120590884Y-112319133D02*
X120690884Y-112319133D01*
X120257551Y-111852466D02*
X119990884Y-111852466D01*
X120157551Y-112319133D02*
X120157551Y-111719133D01*
X120157551Y-111719133D02*
X120124218Y-111652466D01*
X120124218Y-111652466D02*
X120057551Y-111619133D01*
X120057551Y-111619133D02*
X119990884Y-111619133D01*
X119224218Y-112319133D02*
X119224218Y-111619133D01*
X119224218Y-111885800D02*
X119157551Y-111852466D01*
X119157551Y-111852466D02*
X119024218Y-111852466D01*
X119024218Y-111852466D02*
X118957551Y-111885800D01*
X118957551Y-111885800D02*
X118924218Y-111919133D01*
X118924218Y-111919133D02*
X118890885Y-111985800D01*
X118890885Y-111985800D02*
X118890885Y-112185800D01*
X118890885Y-112185800D02*
X118924218Y-112252466D01*
X118924218Y-112252466D02*
X118957551Y-112285800D01*
X118957551Y-112285800D02*
X119024218Y-112319133D01*
X119024218Y-112319133D02*
X119157551Y-112319133D01*
X119157551Y-112319133D02*
X119224218Y-112285800D01*
X118490885Y-112319133D02*
X118557552Y-112285800D01*
X118557552Y-112285800D02*
X118590885Y-112252466D01*
X118590885Y-112252466D02*
X118624218Y-112185800D01*
X118624218Y-112185800D02*
X118624218Y-111985800D01*
X118624218Y-111985800D02*
X118590885Y-111919133D01*
X118590885Y-111919133D02*
X118557552Y-111885800D01*
X118557552Y-111885800D02*
X118490885Y-111852466D01*
X118490885Y-111852466D02*
X118390885Y-111852466D01*
X118390885Y-111852466D02*
X118324218Y-111885800D01*
X118324218Y-111885800D02*
X118290885Y-111919133D01*
X118290885Y-111919133D02*
X118257552Y-111985800D01*
X118257552Y-111985800D02*
X118257552Y-112185800D01*
X118257552Y-112185800D02*
X118290885Y-112252466D01*
X118290885Y-112252466D02*
X118324218Y-112285800D01*
X118324218Y-112285800D02*
X118390885Y-112319133D01*
X118390885Y-112319133D02*
X118490885Y-112319133D01*
X117657552Y-112319133D02*
X117657552Y-111952466D01*
X117657552Y-111952466D02*
X117690885Y-111885800D01*
X117690885Y-111885800D02*
X117757552Y-111852466D01*
X117757552Y-111852466D02*
X117890885Y-111852466D01*
X117890885Y-111852466D02*
X117957552Y-111885800D01*
X117657552Y-112285800D02*
X117724219Y-112319133D01*
X117724219Y-112319133D02*
X117890885Y-112319133D01*
X117890885Y-112319133D02*
X117957552Y-112285800D01*
X117957552Y-112285800D02*
X117990885Y-112219133D01*
X117990885Y-112219133D02*
X117990885Y-112152466D01*
X117990885Y-112152466D02*
X117957552Y-112085800D01*
X117957552Y-112085800D02*
X117890885Y-112052466D01*
X117890885Y-112052466D02*
X117724219Y-112052466D01*
X117724219Y-112052466D02*
X117657552Y-112019133D01*
X117324219Y-112319133D02*
X117324219Y-111852466D01*
X117324219Y-111985800D02*
X117290886Y-111919133D01*
X117290886Y-111919133D02*
X117257552Y-111885800D01*
X117257552Y-111885800D02*
X117190886Y-111852466D01*
X117190886Y-111852466D02*
X117124219Y-111852466D01*
X116590886Y-112319133D02*
X116590886Y-111619133D01*
X116590886Y-112285800D02*
X116657553Y-112319133D01*
X116657553Y-112319133D02*
X116790886Y-112319133D01*
X116790886Y-112319133D02*
X116857553Y-112285800D01*
X116857553Y-112285800D02*
X116890886Y-112252466D01*
X116890886Y-112252466D02*
X116924219Y-112185800D01*
X116924219Y-112185800D02*
X116924219Y-111985800D01*
X116924219Y-111985800D02*
X116890886Y-111919133D01*
X116890886Y-111919133D02*
X116857553Y-111885800D01*
X116857553Y-111885800D02*
X116790886Y-111852466D01*
X116790886Y-111852466D02*
X116657553Y-111852466D01*
X116657553Y-111852466D02*
X116590886Y-111885800D01*
X150054211Y-107542172D02*
X150387544Y-107542172D01*
X150387544Y-107542172D02*
X150387544Y-106842172D01*
X149820877Y-107542172D02*
X149820877Y-107075505D01*
X149820877Y-106842172D02*
X149854210Y-106875505D01*
X149854210Y-106875505D02*
X149820877Y-106908839D01*
X149820877Y-106908839D02*
X149787544Y-106875505D01*
X149787544Y-106875505D02*
X149820877Y-106842172D01*
X149820877Y-106842172D02*
X149820877Y-106908839D01*
X149187544Y-107508839D02*
X149254211Y-107542172D01*
X149254211Y-107542172D02*
X149387544Y-107542172D01*
X149387544Y-107542172D02*
X149454211Y-107508839D01*
X149454211Y-107508839D02*
X149487544Y-107475505D01*
X149487544Y-107475505D02*
X149520877Y-107408839D01*
X149520877Y-107408839D02*
X149520877Y-107208839D01*
X149520877Y-107208839D02*
X149487544Y-107142172D01*
X149487544Y-107142172D02*
X149454211Y-107108839D01*
X149454211Y-107108839D02*
X149387544Y-107075505D01*
X149387544Y-107075505D02*
X149254211Y-107075505D01*
X149254211Y-107075505D02*
X149187544Y-107108839D01*
X148620877Y-107508839D02*
X148687544Y-107542172D01*
X148687544Y-107542172D02*
X148820877Y-107542172D01*
X148820877Y-107542172D02*
X148887544Y-107508839D01*
X148887544Y-107508839D02*
X148920877Y-107442172D01*
X148920877Y-107442172D02*
X148920877Y-107175505D01*
X148920877Y-107175505D02*
X148887544Y-107108839D01*
X148887544Y-107108839D02*
X148820877Y-107075505D01*
X148820877Y-107075505D02*
X148687544Y-107075505D01*
X148687544Y-107075505D02*
X148620877Y-107108839D01*
X148620877Y-107108839D02*
X148587544Y-107175505D01*
X148587544Y-107175505D02*
X148587544Y-107242172D01*
X148587544Y-107242172D02*
X148920877Y-107308839D01*
X148287544Y-107075505D02*
X148287544Y-107542172D01*
X148287544Y-107142172D02*
X148254211Y-107108839D01*
X148254211Y-107108839D02*
X148187544Y-107075505D01*
X148187544Y-107075505D02*
X148087544Y-107075505D01*
X148087544Y-107075505D02*
X148020877Y-107108839D01*
X148020877Y-107108839D02*
X147987544Y-107175505D01*
X147987544Y-107175505D02*
X147987544Y-107542172D01*
X147687544Y-107508839D02*
X147620878Y-107542172D01*
X147620878Y-107542172D02*
X147487544Y-107542172D01*
X147487544Y-107542172D02*
X147420878Y-107508839D01*
X147420878Y-107508839D02*
X147387544Y-107442172D01*
X147387544Y-107442172D02*
X147387544Y-107408839D01*
X147387544Y-107408839D02*
X147420878Y-107342172D01*
X147420878Y-107342172D02*
X147487544Y-107308839D01*
X147487544Y-107308839D02*
X147587544Y-107308839D01*
X147587544Y-107308839D02*
X147654211Y-107275505D01*
X147654211Y-107275505D02*
X147687544Y-107208839D01*
X147687544Y-107208839D02*
X147687544Y-107175505D01*
X147687544Y-107175505D02*
X147654211Y-107108839D01*
X147654211Y-107108839D02*
X147587544Y-107075505D01*
X147587544Y-107075505D02*
X147487544Y-107075505D01*
X147487544Y-107075505D02*
X147420878Y-107108839D01*
X146820877Y-107508839D02*
X146887544Y-107542172D01*
X146887544Y-107542172D02*
X147020877Y-107542172D01*
X147020877Y-107542172D02*
X147087544Y-107508839D01*
X147087544Y-107508839D02*
X147120877Y-107442172D01*
X147120877Y-107442172D02*
X147120877Y-107175505D01*
X147120877Y-107175505D02*
X147087544Y-107108839D01*
X147087544Y-107108839D02*
X147020877Y-107075505D01*
X147020877Y-107075505D02*
X146887544Y-107075505D01*
X146887544Y-107075505D02*
X146820877Y-107108839D01*
X146820877Y-107108839D02*
X146787544Y-107175505D01*
X146787544Y-107175505D02*
X146787544Y-107242172D01*
X146787544Y-107242172D02*
X147120877Y-107308839D01*
X146187544Y-107542172D02*
X146187544Y-106842172D01*
X146187544Y-107508839D02*
X146254211Y-107542172D01*
X146254211Y-107542172D02*
X146387544Y-107542172D01*
X146387544Y-107542172D02*
X146454211Y-107508839D01*
X146454211Y-107508839D02*
X146487544Y-107475505D01*
X146487544Y-107475505D02*
X146520877Y-107408839D01*
X146520877Y-107408839D02*
X146520877Y-107208839D01*
X146520877Y-107208839D02*
X146487544Y-107142172D01*
X146487544Y-107142172D02*
X146454211Y-107108839D01*
X146454211Y-107108839D02*
X146387544Y-107075505D01*
X146387544Y-107075505D02*
X146254211Y-107075505D01*
X146254211Y-107075505D02*
X146187544Y-107108839D01*
X145020878Y-107075505D02*
X145020878Y-107542172D01*
X145320878Y-107075505D02*
X145320878Y-107442172D01*
X145320878Y-107442172D02*
X145287545Y-107508839D01*
X145287545Y-107508839D02*
X145220878Y-107542172D01*
X145220878Y-107542172D02*
X145120878Y-107542172D01*
X145120878Y-107542172D02*
X145054211Y-107508839D01*
X145054211Y-107508839D02*
X145020878Y-107475505D01*
X144687545Y-107075505D02*
X144687545Y-107542172D01*
X144687545Y-107142172D02*
X144654212Y-107108839D01*
X144654212Y-107108839D02*
X144587545Y-107075505D01*
X144587545Y-107075505D02*
X144487545Y-107075505D01*
X144487545Y-107075505D02*
X144420878Y-107108839D01*
X144420878Y-107108839D02*
X144387545Y-107175505D01*
X144387545Y-107175505D02*
X144387545Y-107542172D01*
X143754212Y-107542172D02*
X143754212Y-106842172D01*
X143754212Y-107508839D02*
X143820879Y-107542172D01*
X143820879Y-107542172D02*
X143954212Y-107542172D01*
X143954212Y-107542172D02*
X144020879Y-107508839D01*
X144020879Y-107508839D02*
X144054212Y-107475505D01*
X144054212Y-107475505D02*
X144087545Y-107408839D01*
X144087545Y-107408839D02*
X144087545Y-107208839D01*
X144087545Y-107208839D02*
X144054212Y-107142172D01*
X144054212Y-107142172D02*
X144020879Y-107108839D01*
X144020879Y-107108839D02*
X143954212Y-107075505D01*
X143954212Y-107075505D02*
X143820879Y-107075505D01*
X143820879Y-107075505D02*
X143754212Y-107108839D01*
X143154212Y-107508839D02*
X143220879Y-107542172D01*
X143220879Y-107542172D02*
X143354212Y-107542172D01*
X143354212Y-107542172D02*
X143420879Y-107508839D01*
X143420879Y-107508839D02*
X143454212Y-107442172D01*
X143454212Y-107442172D02*
X143454212Y-107175505D01*
X143454212Y-107175505D02*
X143420879Y-107108839D01*
X143420879Y-107108839D02*
X143354212Y-107075505D01*
X143354212Y-107075505D02*
X143220879Y-107075505D01*
X143220879Y-107075505D02*
X143154212Y-107108839D01*
X143154212Y-107108839D02*
X143120879Y-107175505D01*
X143120879Y-107175505D02*
X143120879Y-107242172D01*
X143120879Y-107242172D02*
X143454212Y-107308839D01*
X142820879Y-107542172D02*
X142820879Y-107075505D01*
X142820879Y-107208839D02*
X142787546Y-107142172D01*
X142787546Y-107142172D02*
X142754212Y-107108839D01*
X142754212Y-107108839D02*
X142687546Y-107075505D01*
X142687546Y-107075505D02*
X142620879Y-107075505D01*
X141454213Y-107475505D02*
X141487546Y-107508839D01*
X141487546Y-107508839D02*
X141587546Y-107542172D01*
X141587546Y-107542172D02*
X141654213Y-107542172D01*
X141654213Y-107542172D02*
X141754213Y-107508839D01*
X141754213Y-107508839D02*
X141820880Y-107442172D01*
X141820880Y-107442172D02*
X141854213Y-107375505D01*
X141854213Y-107375505D02*
X141887546Y-107242172D01*
X141887546Y-107242172D02*
X141887546Y-107142172D01*
X141887546Y-107142172D02*
X141854213Y-107008839D01*
X141854213Y-107008839D02*
X141820880Y-106942172D01*
X141820880Y-106942172D02*
X141754213Y-106875505D01*
X141754213Y-106875505D02*
X141654213Y-106842172D01*
X141654213Y-106842172D02*
X141587546Y-106842172D01*
X141587546Y-106842172D02*
X141487546Y-106875505D01*
X141487546Y-106875505D02*
X141454213Y-106908839D01*
X140754213Y-107475505D02*
X140787546Y-107508839D01*
X140787546Y-107508839D02*
X140887546Y-107542172D01*
X140887546Y-107542172D02*
X140954213Y-107542172D01*
X140954213Y-107542172D02*
X141054213Y-107508839D01*
X141054213Y-107508839D02*
X141120880Y-107442172D01*
X141120880Y-107442172D02*
X141154213Y-107375505D01*
X141154213Y-107375505D02*
X141187546Y-107242172D01*
X141187546Y-107242172D02*
X141187546Y-107142172D01*
X141187546Y-107142172D02*
X141154213Y-107008839D01*
X141154213Y-107008839D02*
X141120880Y-106942172D01*
X141120880Y-106942172D02*
X141054213Y-106875505D01*
X141054213Y-106875505D02*
X140954213Y-106842172D01*
X140954213Y-106842172D02*
X140887546Y-106842172D01*
X140887546Y-106842172D02*
X140787546Y-106875505D01*
X140787546Y-106875505D02*
X140754213Y-106908839D01*
X139687547Y-107175505D02*
X139587547Y-107208839D01*
X139587547Y-107208839D02*
X139554213Y-107242172D01*
X139554213Y-107242172D02*
X139520880Y-107308839D01*
X139520880Y-107308839D02*
X139520880Y-107408839D01*
X139520880Y-107408839D02*
X139554213Y-107475505D01*
X139554213Y-107475505D02*
X139587547Y-107508839D01*
X139587547Y-107508839D02*
X139654213Y-107542172D01*
X139654213Y-107542172D02*
X139920880Y-107542172D01*
X139920880Y-107542172D02*
X139920880Y-106842172D01*
X139920880Y-106842172D02*
X139687547Y-106842172D01*
X139687547Y-106842172D02*
X139620880Y-106875505D01*
X139620880Y-106875505D02*
X139587547Y-106908839D01*
X139587547Y-106908839D02*
X139554213Y-106975505D01*
X139554213Y-106975505D02*
X139554213Y-107042172D01*
X139554213Y-107042172D02*
X139587547Y-107108839D01*
X139587547Y-107108839D02*
X139620880Y-107142172D01*
X139620880Y-107142172D02*
X139687547Y-107175505D01*
X139687547Y-107175505D02*
X139920880Y-107175505D01*
X139087547Y-107208839D02*
X139087547Y-107542172D01*
X139320880Y-106842172D02*
X139087547Y-107208839D01*
X139087547Y-107208839D02*
X138854213Y-106842172D01*
X138620880Y-107275505D02*
X138087547Y-107275505D01*
X137754213Y-107542172D02*
X137754213Y-106842172D01*
X137754213Y-106842172D02*
X137354213Y-107542172D01*
X137354213Y-107542172D02*
X137354213Y-106842172D01*
X136620880Y-107475505D02*
X136654213Y-107508839D01*
X136654213Y-107508839D02*
X136754213Y-107542172D01*
X136754213Y-107542172D02*
X136820880Y-107542172D01*
X136820880Y-107542172D02*
X136920880Y-107508839D01*
X136920880Y-107508839D02*
X136987547Y-107442172D01*
X136987547Y-107442172D02*
X137020880Y-107375505D01*
X137020880Y-107375505D02*
X137054213Y-107242172D01*
X137054213Y-107242172D02*
X137054213Y-107142172D01*
X137054213Y-107142172D02*
X137020880Y-107008839D01*
X137020880Y-107008839D02*
X136987547Y-106942172D01*
X136987547Y-106942172D02*
X136920880Y-106875505D01*
X136920880Y-106875505D02*
X136820880Y-106842172D01*
X136820880Y-106842172D02*
X136754213Y-106842172D01*
X136754213Y-106842172D02*
X136654213Y-106875505D01*
X136654213Y-106875505D02*
X136620880Y-106908839D01*
X136320880Y-107275505D02*
X135787547Y-107275505D01*
X135487546Y-107508839D02*
X135387546Y-107542172D01*
X135387546Y-107542172D02*
X135220880Y-107542172D01*
X135220880Y-107542172D02*
X135154213Y-107508839D01*
X135154213Y-107508839D02*
X135120880Y-107475505D01*
X135120880Y-107475505D02*
X135087546Y-107408839D01*
X135087546Y-107408839D02*
X135087546Y-107342172D01*
X135087546Y-107342172D02*
X135120880Y-107275505D01*
X135120880Y-107275505D02*
X135154213Y-107242172D01*
X135154213Y-107242172D02*
X135220880Y-107208839D01*
X135220880Y-107208839D02*
X135354213Y-107175505D01*
X135354213Y-107175505D02*
X135420880Y-107142172D01*
X135420880Y-107142172D02*
X135454213Y-107108839D01*
X135454213Y-107108839D02*
X135487546Y-107042172D01*
X135487546Y-107042172D02*
X135487546Y-106975505D01*
X135487546Y-106975505D02*
X135454213Y-106908839D01*
X135454213Y-106908839D02*
X135420880Y-106875505D01*
X135420880Y-106875505D02*
X135354213Y-106842172D01*
X135354213Y-106842172D02*
X135187546Y-106842172D01*
X135187546Y-106842172D02*
X135087546Y-106875505D01*
X134820879Y-107342172D02*
X134487546Y-107342172D01*
X134887546Y-107542172D02*
X134654213Y-106842172D01*
X134654213Y-106842172D02*
X134420879Y-107542172D01*
X133354213Y-107075505D02*
X133354213Y-107542172D01*
X133520880Y-106808839D02*
X133687546Y-107308839D01*
X133687546Y-107308839D02*
X133254213Y-107308839D01*
X132987546Y-107475505D02*
X132954213Y-107508839D01*
X132954213Y-107508839D02*
X132987546Y-107542172D01*
X132987546Y-107542172D02*
X133020879Y-107508839D01*
X133020879Y-107508839D02*
X132987546Y-107475505D01*
X132987546Y-107475505D02*
X132987546Y-107542172D01*
X132520880Y-106842172D02*
X132454213Y-106842172D01*
X132454213Y-106842172D02*
X132387546Y-106875505D01*
X132387546Y-106875505D02*
X132354213Y-106908839D01*
X132354213Y-106908839D02*
X132320880Y-106975505D01*
X132320880Y-106975505D02*
X132287546Y-107108839D01*
X132287546Y-107108839D02*
X132287546Y-107275505D01*
X132287546Y-107275505D02*
X132320880Y-107408839D01*
X132320880Y-107408839D02*
X132354213Y-107475505D01*
X132354213Y-107475505D02*
X132387546Y-107508839D01*
X132387546Y-107508839D02*
X132454213Y-107542172D01*
X132454213Y-107542172D02*
X132520880Y-107542172D01*
X132520880Y-107542172D02*
X132587546Y-107508839D01*
X132587546Y-107508839D02*
X132620880Y-107475505D01*
X132620880Y-107475505D02*
X132654213Y-107408839D01*
X132654213Y-107408839D02*
X132687546Y-107275505D01*
X132687546Y-107275505D02*
X132687546Y-107108839D01*
X132687546Y-107108839D02*
X132654213Y-106975505D01*
X132654213Y-106975505D02*
X132620880Y-106908839D01*
X132620880Y-106908839D02*
X132587546Y-106875505D01*
X132587546Y-106875505D02*
X132520880Y-106842172D01*
X150187544Y-108935800D02*
X150220877Y-108902466D01*
X150220877Y-108902466D02*
X150287544Y-108802466D01*
X150287544Y-108802466D02*
X150320877Y-108735800D01*
X150320877Y-108735800D02*
X150354211Y-108635800D01*
X150354211Y-108635800D02*
X150387544Y-108469133D01*
X150387544Y-108469133D02*
X150387544Y-108335800D01*
X150387544Y-108335800D02*
X150354211Y-108169133D01*
X150354211Y-108169133D02*
X150320877Y-108069133D01*
X150320877Y-108069133D02*
X150287544Y-108002466D01*
X150287544Y-108002466D02*
X150220877Y-107902466D01*
X150220877Y-107902466D02*
X150187544Y-107869133D01*
X149620877Y-108635800D02*
X149687544Y-108669133D01*
X149687544Y-108669133D02*
X149820877Y-108669133D01*
X149820877Y-108669133D02*
X149887544Y-108635800D01*
X149887544Y-108635800D02*
X149920877Y-108602466D01*
X149920877Y-108602466D02*
X149954210Y-108535800D01*
X149954210Y-108535800D02*
X149954210Y-108335800D01*
X149954210Y-108335800D02*
X149920877Y-108269133D01*
X149920877Y-108269133D02*
X149887544Y-108235800D01*
X149887544Y-108235800D02*
X149820877Y-108202466D01*
X149820877Y-108202466D02*
X149687544Y-108202466D01*
X149687544Y-108202466D02*
X149620877Y-108235800D01*
X149387544Y-108935800D02*
X149354210Y-108902466D01*
X149354210Y-108902466D02*
X149287544Y-108802466D01*
X149287544Y-108802466D02*
X149254210Y-108735800D01*
X149254210Y-108735800D02*
X149220877Y-108635800D01*
X149220877Y-108635800D02*
X149187544Y-108469133D01*
X149187544Y-108469133D02*
X149187544Y-108335800D01*
X149187544Y-108335800D02*
X149220877Y-108169133D01*
X149220877Y-108169133D02*
X149254210Y-108069133D01*
X149254210Y-108069133D02*
X149287544Y-108002466D01*
X149287544Y-108002466D02*
X149354210Y-107902466D01*
X149354210Y-107902466D02*
X149387544Y-107869133D01*
X148354210Y-108035800D02*
X148320877Y-108002466D01*
X148320877Y-108002466D02*
X148254210Y-107969133D01*
X148254210Y-107969133D02*
X148087544Y-107969133D01*
X148087544Y-107969133D02*
X148020877Y-108002466D01*
X148020877Y-108002466D02*
X147987544Y-108035800D01*
X147987544Y-108035800D02*
X147954210Y-108102466D01*
X147954210Y-108102466D02*
X147954210Y-108169133D01*
X147954210Y-108169133D02*
X147987544Y-108269133D01*
X147987544Y-108269133D02*
X148387544Y-108669133D01*
X148387544Y-108669133D02*
X147954210Y-108669133D01*
X147520877Y-107969133D02*
X147454210Y-107969133D01*
X147454210Y-107969133D02*
X147387543Y-108002466D01*
X147387543Y-108002466D02*
X147354210Y-108035800D01*
X147354210Y-108035800D02*
X147320877Y-108102466D01*
X147320877Y-108102466D02*
X147287543Y-108235800D01*
X147287543Y-108235800D02*
X147287543Y-108402466D01*
X147287543Y-108402466D02*
X147320877Y-108535800D01*
X147320877Y-108535800D02*
X147354210Y-108602466D01*
X147354210Y-108602466D02*
X147387543Y-108635800D01*
X147387543Y-108635800D02*
X147454210Y-108669133D01*
X147454210Y-108669133D02*
X147520877Y-108669133D01*
X147520877Y-108669133D02*
X147587543Y-108635800D01*
X147587543Y-108635800D02*
X147620877Y-108602466D01*
X147620877Y-108602466D02*
X147654210Y-108535800D01*
X147654210Y-108535800D02*
X147687543Y-108402466D01*
X147687543Y-108402466D02*
X147687543Y-108235800D01*
X147687543Y-108235800D02*
X147654210Y-108102466D01*
X147654210Y-108102466D02*
X147620877Y-108035800D01*
X147620877Y-108035800D02*
X147587543Y-108002466D01*
X147587543Y-108002466D02*
X147520877Y-107969133D01*
X147020876Y-108035800D02*
X146987543Y-108002466D01*
X146987543Y-108002466D02*
X146920876Y-107969133D01*
X146920876Y-107969133D02*
X146754210Y-107969133D01*
X146754210Y-107969133D02*
X146687543Y-108002466D01*
X146687543Y-108002466D02*
X146654210Y-108035800D01*
X146654210Y-108035800D02*
X146620876Y-108102466D01*
X146620876Y-108102466D02*
X146620876Y-108169133D01*
X146620876Y-108169133D02*
X146654210Y-108269133D01*
X146654210Y-108269133D02*
X147054210Y-108669133D01*
X147054210Y-108669133D02*
X146620876Y-108669133D01*
X145987543Y-107969133D02*
X146320876Y-107969133D01*
X146320876Y-107969133D02*
X146354209Y-108302466D01*
X146354209Y-108302466D02*
X146320876Y-108269133D01*
X146320876Y-108269133D02*
X146254209Y-108235800D01*
X146254209Y-108235800D02*
X146087543Y-108235800D01*
X146087543Y-108235800D02*
X146020876Y-108269133D01*
X146020876Y-108269133D02*
X145987543Y-108302466D01*
X145987543Y-108302466D02*
X145954209Y-108369133D01*
X145954209Y-108369133D02*
X145954209Y-108535800D01*
X145954209Y-108535800D02*
X145987543Y-108602466D01*
X145987543Y-108602466D02*
X146020876Y-108635800D01*
X146020876Y-108635800D02*
X146087543Y-108669133D01*
X146087543Y-108669133D02*
X146254209Y-108669133D01*
X146254209Y-108669133D02*
X146320876Y-108635800D01*
X146320876Y-108635800D02*
X146354209Y-108602466D01*
X145154209Y-108635800D02*
X145054209Y-108669133D01*
X145054209Y-108669133D02*
X144887543Y-108669133D01*
X144887543Y-108669133D02*
X144820876Y-108635800D01*
X144820876Y-108635800D02*
X144787543Y-108602466D01*
X144787543Y-108602466D02*
X144754209Y-108535800D01*
X144754209Y-108535800D02*
X144754209Y-108469133D01*
X144754209Y-108469133D02*
X144787543Y-108402466D01*
X144787543Y-108402466D02*
X144820876Y-108369133D01*
X144820876Y-108369133D02*
X144887543Y-108335800D01*
X144887543Y-108335800D02*
X145020876Y-108302466D01*
X145020876Y-108302466D02*
X145087543Y-108269133D01*
X145087543Y-108269133D02*
X145120876Y-108235800D01*
X145120876Y-108235800D02*
X145154209Y-108169133D01*
X145154209Y-108169133D02*
X145154209Y-108102466D01*
X145154209Y-108102466D02*
X145120876Y-108035800D01*
X145120876Y-108035800D02*
X145087543Y-108002466D01*
X145087543Y-108002466D02*
X145020876Y-107969133D01*
X145020876Y-107969133D02*
X144854209Y-107969133D01*
X144854209Y-107969133D02*
X144754209Y-108002466D01*
X144454209Y-108669133D02*
X144454209Y-107969133D01*
X144154209Y-108669133D02*
X144154209Y-108302466D01*
X144154209Y-108302466D02*
X144187542Y-108235800D01*
X144187542Y-108235800D02*
X144254209Y-108202466D01*
X144254209Y-108202466D02*
X144354209Y-108202466D01*
X144354209Y-108202466D02*
X144420876Y-108235800D01*
X144420876Y-108235800D02*
X144454209Y-108269133D01*
X143820876Y-108669133D02*
X143820876Y-108202466D01*
X143820876Y-107969133D02*
X143854209Y-108002466D01*
X143854209Y-108002466D02*
X143820876Y-108035800D01*
X143820876Y-108035800D02*
X143787543Y-108002466D01*
X143787543Y-108002466D02*
X143820876Y-107969133D01*
X143820876Y-107969133D02*
X143820876Y-108035800D01*
X143487543Y-108202466D02*
X143487543Y-108669133D01*
X143487543Y-108269133D02*
X143454210Y-108235800D01*
X143454210Y-108235800D02*
X143387543Y-108202466D01*
X143387543Y-108202466D02*
X143287543Y-108202466D01*
X143287543Y-108202466D02*
X143220876Y-108235800D01*
X143220876Y-108235800D02*
X143187543Y-108302466D01*
X143187543Y-108302466D02*
X143187543Y-108669133D01*
X142554210Y-108202466D02*
X142554210Y-108669133D01*
X142854210Y-108202466D02*
X142854210Y-108569133D01*
X142854210Y-108569133D02*
X142820877Y-108635800D01*
X142820877Y-108635800D02*
X142754210Y-108669133D01*
X142754210Y-108669133D02*
X142654210Y-108669133D01*
X142654210Y-108669133D02*
X142587543Y-108635800D01*
X142587543Y-108635800D02*
X142554210Y-108602466D01*
X142220877Y-108669133D02*
X142220877Y-108202466D01*
X142220877Y-107969133D02*
X142254210Y-108002466D01*
X142254210Y-108002466D02*
X142220877Y-108035800D01*
X142220877Y-108035800D02*
X142187544Y-108002466D01*
X142187544Y-108002466D02*
X142220877Y-107969133D01*
X142220877Y-107969133D02*
X142220877Y-108035800D01*
D11*
X161872268Y-118374295D02*
X161872268Y-118945723D01*
X161872268Y-118945723D02*
X161910363Y-119060009D01*
X161910363Y-119060009D02*
X161986554Y-119136200D01*
X161986554Y-119136200D02*
X162100839Y-119174295D01*
X162100839Y-119174295D02*
X162177030Y-119174295D01*
X161110363Y-119174295D02*
X161491315Y-119174295D01*
X161491315Y-119174295D02*
X161491315Y-118374295D01*
X160386553Y-119098104D02*
X160424649Y-119136200D01*
X160424649Y-119136200D02*
X160538934Y-119174295D01*
X160538934Y-119174295D02*
X160615125Y-119174295D01*
X160615125Y-119174295D02*
X160729411Y-119136200D01*
X160729411Y-119136200D02*
X160805601Y-119060009D01*
X160805601Y-119060009D02*
X160843696Y-118983819D01*
X160843696Y-118983819D02*
X160881792Y-118831438D01*
X160881792Y-118831438D02*
X160881792Y-118717152D01*
X160881792Y-118717152D02*
X160843696Y-118564771D01*
X160843696Y-118564771D02*
X160805601Y-118488580D01*
X160805601Y-118488580D02*
X160729411Y-118412390D01*
X160729411Y-118412390D02*
X160615125Y-118374295D01*
X160615125Y-118374295D02*
X160538934Y-118374295D01*
X160538934Y-118374295D02*
X160424649Y-118412390D01*
X160424649Y-118412390D02*
X160386553Y-118450485D01*
X159815125Y-118374295D02*
X159815125Y-118945723D01*
X159815125Y-118945723D02*
X159853220Y-119060009D01*
X159853220Y-119060009D02*
X159929411Y-119136200D01*
X159929411Y-119136200D02*
X160043696Y-119174295D01*
X160043696Y-119174295D02*
X160119887Y-119174295D01*
X159053220Y-119174295D02*
X159434172Y-119174295D01*
X159434172Y-119174295D02*
X159434172Y-118374295D01*
X158329410Y-119098104D02*
X158367506Y-119136200D01*
X158367506Y-119136200D02*
X158481791Y-119174295D01*
X158481791Y-119174295D02*
X158557982Y-119174295D01*
X158557982Y-119174295D02*
X158672268Y-119136200D01*
X158672268Y-119136200D02*
X158748458Y-119060009D01*
X158748458Y-119060009D02*
X158786553Y-118983819D01*
X158786553Y-118983819D02*
X158824649Y-118831438D01*
X158824649Y-118831438D02*
X158824649Y-118717152D01*
X158824649Y-118717152D02*
X158786553Y-118564771D01*
X158786553Y-118564771D02*
X158748458Y-118488580D01*
X158748458Y-118488580D02*
X158672268Y-118412390D01*
X158672268Y-118412390D02*
X158557982Y-118374295D01*
X158557982Y-118374295D02*
X158481791Y-118374295D01*
X158481791Y-118374295D02*
X158367506Y-118412390D01*
X158367506Y-118412390D02*
X158329410Y-118450485D01*
X157757982Y-118374295D02*
X157757982Y-118945723D01*
X157757982Y-118945723D02*
X157796077Y-119060009D01*
X157796077Y-119060009D02*
X157872268Y-119136200D01*
X157872268Y-119136200D02*
X157986553Y-119174295D01*
X157986553Y-119174295D02*
X158062744Y-119174295D01*
X156996077Y-119174295D02*
X157377029Y-119174295D01*
X157377029Y-119174295D02*
X157377029Y-118374295D01*
X156272267Y-119098104D02*
X156310363Y-119136200D01*
X156310363Y-119136200D02*
X156424648Y-119174295D01*
X156424648Y-119174295D02*
X156500839Y-119174295D01*
X156500839Y-119174295D02*
X156615125Y-119136200D01*
X156615125Y-119136200D02*
X156691315Y-119060009D01*
X156691315Y-119060009D02*
X156729410Y-118983819D01*
X156729410Y-118983819D02*
X156767506Y-118831438D01*
X156767506Y-118831438D02*
X156767506Y-118717152D01*
X156767506Y-118717152D02*
X156729410Y-118564771D01*
X156729410Y-118564771D02*
X156691315Y-118488580D01*
X156691315Y-118488580D02*
X156615125Y-118412390D01*
X156615125Y-118412390D02*
X156500839Y-118374295D01*
X156500839Y-118374295D02*
X156424648Y-118374295D01*
X156424648Y-118374295D02*
X156310363Y-118412390D01*
X156310363Y-118412390D02*
X156272267Y-118450485D01*
X155700839Y-118374295D02*
X155700839Y-118945723D01*
X155700839Y-118945723D02*
X155738934Y-119060009D01*
X155738934Y-119060009D02*
X155815125Y-119136200D01*
X155815125Y-119136200D02*
X155929410Y-119174295D01*
X155929410Y-119174295D02*
X156005601Y-119174295D01*
X154938934Y-119174295D02*
X155319886Y-119174295D01*
X155319886Y-119174295D02*
X155319886Y-118374295D01*
X154215124Y-119098104D02*
X154253220Y-119136200D01*
X154253220Y-119136200D02*
X154367505Y-119174295D01*
X154367505Y-119174295D02*
X154443696Y-119174295D01*
X154443696Y-119174295D02*
X154557982Y-119136200D01*
X154557982Y-119136200D02*
X154634172Y-119060009D01*
X154634172Y-119060009D02*
X154672267Y-118983819D01*
X154672267Y-118983819D02*
X154710363Y-118831438D01*
X154710363Y-118831438D02*
X154710363Y-118717152D01*
X154710363Y-118717152D02*
X154672267Y-118564771D01*
X154672267Y-118564771D02*
X154634172Y-118488580D01*
X154634172Y-118488580D02*
X154557982Y-118412390D01*
X154557982Y-118412390D02*
X154443696Y-118374295D01*
X154443696Y-118374295D02*
X154367505Y-118374295D01*
X154367505Y-118374295D02*
X154253220Y-118412390D01*
X154253220Y-118412390D02*
X154215124Y-118450485D01*
D12*
X151149123Y-115503770D02*
X151149123Y-114803770D01*
X150815790Y-115037103D02*
X150815790Y-115503770D01*
X150815790Y-115103770D02*
X150782457Y-115070437D01*
X150782457Y-115070437D02*
X150715790Y-115037103D01*
X150715790Y-115037103D02*
X150615790Y-115037103D01*
X150615790Y-115037103D02*
X150549123Y-115070437D01*
X150549123Y-115070437D02*
X150515790Y-115137103D01*
X150515790Y-115137103D02*
X150515790Y-115503770D01*
X150215790Y-115470437D02*
X150149124Y-115503770D01*
X150149124Y-115503770D02*
X150015790Y-115503770D01*
X150015790Y-115503770D02*
X149949124Y-115470437D01*
X149949124Y-115470437D02*
X149915790Y-115403770D01*
X149915790Y-115403770D02*
X149915790Y-115370437D01*
X149915790Y-115370437D02*
X149949124Y-115303770D01*
X149949124Y-115303770D02*
X150015790Y-115270437D01*
X150015790Y-115270437D02*
X150115790Y-115270437D01*
X150115790Y-115270437D02*
X150182457Y-115237103D01*
X150182457Y-115237103D02*
X150215790Y-115170437D01*
X150215790Y-115170437D02*
X150215790Y-115137103D01*
X150215790Y-115137103D02*
X150182457Y-115070437D01*
X150182457Y-115070437D02*
X150115790Y-115037103D01*
X150115790Y-115037103D02*
X150015790Y-115037103D01*
X150015790Y-115037103D02*
X149949124Y-115070437D01*
X149715790Y-115037103D02*
X149449123Y-115037103D01*
X149615790Y-114803770D02*
X149615790Y-115403770D01*
X149615790Y-115403770D02*
X149582457Y-115470437D01*
X149582457Y-115470437D02*
X149515790Y-115503770D01*
X149515790Y-115503770D02*
X149449123Y-115503770D01*
X149215790Y-115503770D02*
X149215790Y-115037103D01*
X149215790Y-115170437D02*
X149182457Y-115103770D01*
X149182457Y-115103770D02*
X149149123Y-115070437D01*
X149149123Y-115070437D02*
X149082457Y-115037103D01*
X149082457Y-115037103D02*
X149015790Y-115037103D01*
X148482457Y-115037103D02*
X148482457Y-115503770D01*
X148782457Y-115037103D02*
X148782457Y-115403770D01*
X148782457Y-115403770D02*
X148749124Y-115470437D01*
X148749124Y-115470437D02*
X148682457Y-115503770D01*
X148682457Y-115503770D02*
X148582457Y-115503770D01*
X148582457Y-115503770D02*
X148515790Y-115470437D01*
X148515790Y-115470437D02*
X148482457Y-115437103D01*
X147849124Y-115470437D02*
X147915791Y-115503770D01*
X147915791Y-115503770D02*
X148049124Y-115503770D01*
X148049124Y-115503770D02*
X148115791Y-115470437D01*
X148115791Y-115470437D02*
X148149124Y-115437103D01*
X148149124Y-115437103D02*
X148182457Y-115370437D01*
X148182457Y-115370437D02*
X148182457Y-115170437D01*
X148182457Y-115170437D02*
X148149124Y-115103770D01*
X148149124Y-115103770D02*
X148115791Y-115070437D01*
X148115791Y-115070437D02*
X148049124Y-115037103D01*
X148049124Y-115037103D02*
X147915791Y-115037103D01*
X147915791Y-115037103D02*
X147849124Y-115070437D01*
X147649124Y-115037103D02*
X147382457Y-115037103D01*
X147549124Y-114803770D02*
X147549124Y-115403770D01*
X147549124Y-115403770D02*
X147515791Y-115470437D01*
X147515791Y-115470437D02*
X147449124Y-115503770D01*
X147449124Y-115503770D02*
X147382457Y-115503770D01*
X147149124Y-115503770D02*
X147149124Y-115037103D01*
X147149124Y-114803770D02*
X147182457Y-114837103D01*
X147182457Y-114837103D02*
X147149124Y-114870437D01*
X147149124Y-114870437D02*
X147115791Y-114837103D01*
X147115791Y-114837103D02*
X147149124Y-114803770D01*
X147149124Y-114803770D02*
X147149124Y-114870437D01*
X146715791Y-115503770D02*
X146782458Y-115470437D01*
X146782458Y-115470437D02*
X146815791Y-115437103D01*
X146815791Y-115437103D02*
X146849124Y-115370437D01*
X146849124Y-115370437D02*
X146849124Y-115170437D01*
X146849124Y-115170437D02*
X146815791Y-115103770D01*
X146815791Y-115103770D02*
X146782458Y-115070437D01*
X146782458Y-115070437D02*
X146715791Y-115037103D01*
X146715791Y-115037103D02*
X146615791Y-115037103D01*
X146615791Y-115037103D02*
X146549124Y-115070437D01*
X146549124Y-115070437D02*
X146515791Y-115103770D01*
X146515791Y-115103770D02*
X146482458Y-115170437D01*
X146482458Y-115170437D02*
X146482458Y-115370437D01*
X146482458Y-115370437D02*
X146515791Y-115437103D01*
X146515791Y-115437103D02*
X146549124Y-115470437D01*
X146549124Y-115470437D02*
X146615791Y-115503770D01*
X146615791Y-115503770D02*
X146715791Y-115503770D01*
X146182458Y-115037103D02*
X146182458Y-115503770D01*
X146182458Y-115103770D02*
X146149125Y-115070437D01*
X146149125Y-115070437D02*
X146082458Y-115037103D01*
X146082458Y-115037103D02*
X145982458Y-115037103D01*
X145982458Y-115037103D02*
X145915791Y-115070437D01*
X145915791Y-115070437D02*
X145882458Y-115137103D01*
X145882458Y-115137103D02*
X145882458Y-115503770D01*
X145582458Y-115470437D02*
X145515792Y-115503770D01*
X145515792Y-115503770D02*
X145382458Y-115503770D01*
X145382458Y-115503770D02*
X145315792Y-115470437D01*
X145315792Y-115470437D02*
X145282458Y-115403770D01*
X145282458Y-115403770D02*
X145282458Y-115370437D01*
X145282458Y-115370437D02*
X145315792Y-115303770D01*
X145315792Y-115303770D02*
X145382458Y-115270437D01*
X145382458Y-115270437D02*
X145482458Y-115270437D01*
X145482458Y-115270437D02*
X145549125Y-115237103D01*
X145549125Y-115237103D02*
X145582458Y-115170437D01*
X145582458Y-115170437D02*
X145582458Y-115137103D01*
X145582458Y-115137103D02*
X145549125Y-115070437D01*
X145549125Y-115070437D02*
X145482458Y-115037103D01*
X145482458Y-115037103D02*
X145382458Y-115037103D01*
X145382458Y-115037103D02*
X145315792Y-115070437D01*
X144982458Y-115437103D02*
X144949125Y-115470437D01*
X144949125Y-115470437D02*
X144982458Y-115503770D01*
X144982458Y-115503770D02*
X145015791Y-115470437D01*
X145015791Y-115470437D02*
X144982458Y-115437103D01*
X144982458Y-115437103D02*
X144982458Y-115503770D01*
X144982458Y-115070437D02*
X144949125Y-115103770D01*
X144949125Y-115103770D02*
X144982458Y-115137103D01*
X144982458Y-115137103D02*
X145015791Y-115103770D01*
X145015791Y-115103770D02*
X144982458Y-115070437D01*
X144982458Y-115070437D02*
X144982458Y-115137103D01*
X151015790Y-116297398D02*
X151015790Y-116630731D01*
X151249123Y-115930731D02*
X151015790Y-116297398D01*
X151015790Y-116297398D02*
X150782456Y-115930731D01*
X150449123Y-116630731D02*
X150515790Y-116597398D01*
X150515790Y-116597398D02*
X150549123Y-116564064D01*
X150549123Y-116564064D02*
X150582456Y-116497398D01*
X150582456Y-116497398D02*
X150582456Y-116297398D01*
X150582456Y-116297398D02*
X150549123Y-116230731D01*
X150549123Y-116230731D02*
X150515790Y-116197398D01*
X150515790Y-116197398D02*
X150449123Y-116164064D01*
X150449123Y-116164064D02*
X150349123Y-116164064D01*
X150349123Y-116164064D02*
X150282456Y-116197398D01*
X150282456Y-116197398D02*
X150249123Y-116230731D01*
X150249123Y-116230731D02*
X150215790Y-116297398D01*
X150215790Y-116297398D02*
X150215790Y-116497398D01*
X150215790Y-116497398D02*
X150249123Y-116564064D01*
X150249123Y-116564064D02*
X150282456Y-116597398D01*
X150282456Y-116597398D02*
X150349123Y-116630731D01*
X150349123Y-116630731D02*
X150449123Y-116630731D01*
X149615790Y-116164064D02*
X149615790Y-116630731D01*
X149915790Y-116164064D02*
X149915790Y-116530731D01*
X149915790Y-116530731D02*
X149882457Y-116597398D01*
X149882457Y-116597398D02*
X149815790Y-116630731D01*
X149815790Y-116630731D02*
X149715790Y-116630731D01*
X149715790Y-116630731D02*
X149649123Y-116597398D01*
X149649123Y-116597398D02*
X149615790Y-116564064D01*
X148449124Y-116597398D02*
X148515791Y-116630731D01*
X148515791Y-116630731D02*
X148649124Y-116630731D01*
X148649124Y-116630731D02*
X148715791Y-116597398D01*
X148715791Y-116597398D02*
X148749124Y-116564064D01*
X148749124Y-116564064D02*
X148782457Y-116497398D01*
X148782457Y-116497398D02*
X148782457Y-116297398D01*
X148782457Y-116297398D02*
X148749124Y-116230731D01*
X148749124Y-116230731D02*
X148715791Y-116197398D01*
X148715791Y-116197398D02*
X148649124Y-116164064D01*
X148649124Y-116164064D02*
X148515791Y-116164064D01*
X148515791Y-116164064D02*
X148449124Y-116197398D01*
X147849124Y-116630731D02*
X147849124Y-116264064D01*
X147849124Y-116264064D02*
X147882457Y-116197398D01*
X147882457Y-116197398D02*
X147949124Y-116164064D01*
X147949124Y-116164064D02*
X148082457Y-116164064D01*
X148082457Y-116164064D02*
X148149124Y-116197398D01*
X147849124Y-116597398D02*
X147915791Y-116630731D01*
X147915791Y-116630731D02*
X148082457Y-116630731D01*
X148082457Y-116630731D02*
X148149124Y-116597398D01*
X148149124Y-116597398D02*
X148182457Y-116530731D01*
X148182457Y-116530731D02*
X148182457Y-116464064D01*
X148182457Y-116464064D02*
X148149124Y-116397398D01*
X148149124Y-116397398D02*
X148082457Y-116364064D01*
X148082457Y-116364064D02*
X147915791Y-116364064D01*
X147915791Y-116364064D02*
X147849124Y-116330731D01*
X147515791Y-116164064D02*
X147515791Y-116630731D01*
X147515791Y-116230731D02*
X147482458Y-116197398D01*
X147482458Y-116197398D02*
X147415791Y-116164064D01*
X147415791Y-116164064D02*
X147315791Y-116164064D01*
X147315791Y-116164064D02*
X147249124Y-116197398D01*
X147249124Y-116197398D02*
X147215791Y-116264064D01*
X147215791Y-116264064D02*
X147215791Y-116630731D01*
X146382458Y-116597398D02*
X146315792Y-116630731D01*
X146315792Y-116630731D02*
X146182458Y-116630731D01*
X146182458Y-116630731D02*
X146115792Y-116597398D01*
X146115792Y-116597398D02*
X146082458Y-116530731D01*
X146082458Y-116530731D02*
X146082458Y-116497398D01*
X146082458Y-116497398D02*
X146115792Y-116430731D01*
X146115792Y-116430731D02*
X146182458Y-116397398D01*
X146182458Y-116397398D02*
X146282458Y-116397398D01*
X146282458Y-116397398D02*
X146349125Y-116364064D01*
X146349125Y-116364064D02*
X146382458Y-116297398D01*
X146382458Y-116297398D02*
X146382458Y-116264064D01*
X146382458Y-116264064D02*
X146349125Y-116197398D01*
X146349125Y-116197398D02*
X146282458Y-116164064D01*
X146282458Y-116164064D02*
X146182458Y-116164064D01*
X146182458Y-116164064D02*
X146115792Y-116197398D01*
X145515791Y-116597398D02*
X145582458Y-116630731D01*
X145582458Y-116630731D02*
X145715791Y-116630731D01*
X145715791Y-116630731D02*
X145782458Y-116597398D01*
X145782458Y-116597398D02*
X145815791Y-116530731D01*
X145815791Y-116530731D02*
X145815791Y-116264064D01*
X145815791Y-116264064D02*
X145782458Y-116197398D01*
X145782458Y-116197398D02*
X145715791Y-116164064D01*
X145715791Y-116164064D02*
X145582458Y-116164064D01*
X145582458Y-116164064D02*
X145515791Y-116197398D01*
X145515791Y-116197398D02*
X145482458Y-116264064D01*
X145482458Y-116264064D02*
X145482458Y-116330731D01*
X145482458Y-116330731D02*
X145815791Y-116397398D01*
X145082458Y-116630731D02*
X145149125Y-116597398D01*
X145149125Y-116597398D02*
X145182458Y-116530731D01*
X145182458Y-116530731D02*
X145182458Y-115930731D01*
X144549124Y-116597398D02*
X144615791Y-116630731D01*
X144615791Y-116630731D02*
X144749124Y-116630731D01*
X144749124Y-116630731D02*
X144815791Y-116597398D01*
X144815791Y-116597398D02*
X144849124Y-116530731D01*
X144849124Y-116530731D02*
X144849124Y-116264064D01*
X144849124Y-116264064D02*
X144815791Y-116197398D01*
X144815791Y-116197398D02*
X144749124Y-116164064D01*
X144749124Y-116164064D02*
X144615791Y-116164064D01*
X144615791Y-116164064D02*
X144549124Y-116197398D01*
X144549124Y-116197398D02*
X144515791Y-116264064D01*
X144515791Y-116264064D02*
X144515791Y-116330731D01*
X144515791Y-116330731D02*
X144849124Y-116397398D01*
X143915791Y-116597398D02*
X143982458Y-116630731D01*
X143982458Y-116630731D02*
X144115791Y-116630731D01*
X144115791Y-116630731D02*
X144182458Y-116597398D01*
X144182458Y-116597398D02*
X144215791Y-116564064D01*
X144215791Y-116564064D02*
X144249124Y-116497398D01*
X144249124Y-116497398D02*
X144249124Y-116297398D01*
X144249124Y-116297398D02*
X144215791Y-116230731D01*
X144215791Y-116230731D02*
X144182458Y-116197398D01*
X144182458Y-116197398D02*
X144115791Y-116164064D01*
X144115791Y-116164064D02*
X143982458Y-116164064D01*
X143982458Y-116164064D02*
X143915791Y-116197398D01*
X143715791Y-116164064D02*
X143449124Y-116164064D01*
X143615791Y-115930731D02*
X143615791Y-116530731D01*
X143615791Y-116530731D02*
X143582458Y-116597398D01*
X143582458Y-116597398D02*
X143515791Y-116630731D01*
X143515791Y-116630731D02*
X143449124Y-116630731D01*
X142749125Y-116164064D02*
X142582458Y-116630731D01*
X142582458Y-116630731D02*
X142415791Y-116164064D01*
X142049125Y-116630731D02*
X142115792Y-116597398D01*
X142115792Y-116597398D02*
X142149125Y-116564064D01*
X142149125Y-116564064D02*
X142182458Y-116497398D01*
X142182458Y-116497398D02*
X142182458Y-116297398D01*
X142182458Y-116297398D02*
X142149125Y-116230731D01*
X142149125Y-116230731D02*
X142115792Y-116197398D01*
X142115792Y-116197398D02*
X142049125Y-116164064D01*
X142049125Y-116164064D02*
X141949125Y-116164064D01*
X141949125Y-116164064D02*
X141882458Y-116197398D01*
X141882458Y-116197398D02*
X141849125Y-116230731D01*
X141849125Y-116230731D02*
X141815792Y-116297398D01*
X141815792Y-116297398D02*
X141815792Y-116497398D01*
X141815792Y-116497398D02*
X141849125Y-116564064D01*
X141849125Y-116564064D02*
X141882458Y-116597398D01*
X141882458Y-116597398D02*
X141949125Y-116630731D01*
X141949125Y-116630731D02*
X142049125Y-116630731D01*
X141415792Y-116630731D02*
X141482459Y-116597398D01*
X141482459Y-116597398D02*
X141515792Y-116530731D01*
X141515792Y-116530731D02*
X141515792Y-115930731D01*
X141249125Y-116164064D02*
X140982458Y-116164064D01*
X141149125Y-115930731D02*
X141149125Y-116530731D01*
X141149125Y-116530731D02*
X141115792Y-116597398D01*
X141115792Y-116597398D02*
X141049125Y-116630731D01*
X141049125Y-116630731D02*
X140982458Y-116630731D01*
X140449125Y-116630731D02*
X140449125Y-116264064D01*
X140449125Y-116264064D02*
X140482458Y-116197398D01*
X140482458Y-116197398D02*
X140549125Y-116164064D01*
X140549125Y-116164064D02*
X140682458Y-116164064D01*
X140682458Y-116164064D02*
X140749125Y-116197398D01*
X140449125Y-116597398D02*
X140515792Y-116630731D01*
X140515792Y-116630731D02*
X140682458Y-116630731D01*
X140682458Y-116630731D02*
X140749125Y-116597398D01*
X140749125Y-116597398D02*
X140782458Y-116530731D01*
X140782458Y-116530731D02*
X140782458Y-116464064D01*
X140782458Y-116464064D02*
X140749125Y-116397398D01*
X140749125Y-116397398D02*
X140682458Y-116364064D01*
X140682458Y-116364064D02*
X140515792Y-116364064D01*
X140515792Y-116364064D02*
X140449125Y-116330731D01*
X139815792Y-116164064D02*
X139815792Y-116730731D01*
X139815792Y-116730731D02*
X139849125Y-116797398D01*
X139849125Y-116797398D02*
X139882459Y-116830731D01*
X139882459Y-116830731D02*
X139949125Y-116864064D01*
X139949125Y-116864064D02*
X140049125Y-116864064D01*
X140049125Y-116864064D02*
X140115792Y-116830731D01*
X139815792Y-116597398D02*
X139882459Y-116630731D01*
X139882459Y-116630731D02*
X140015792Y-116630731D01*
X140015792Y-116630731D02*
X140082459Y-116597398D01*
X140082459Y-116597398D02*
X140115792Y-116564064D01*
X140115792Y-116564064D02*
X140149125Y-116497398D01*
X140149125Y-116497398D02*
X140149125Y-116297398D01*
X140149125Y-116297398D02*
X140115792Y-116230731D01*
X140115792Y-116230731D02*
X140082459Y-116197398D01*
X140082459Y-116197398D02*
X140015792Y-116164064D01*
X140015792Y-116164064D02*
X139882459Y-116164064D01*
X139882459Y-116164064D02*
X139815792Y-116197398D01*
X139215792Y-116597398D02*
X139282459Y-116630731D01*
X139282459Y-116630731D02*
X139415792Y-116630731D01*
X139415792Y-116630731D02*
X139482459Y-116597398D01*
X139482459Y-116597398D02*
X139515792Y-116530731D01*
X139515792Y-116530731D02*
X139515792Y-116264064D01*
X139515792Y-116264064D02*
X139482459Y-116197398D01*
X139482459Y-116197398D02*
X139415792Y-116164064D01*
X139415792Y-116164064D02*
X139282459Y-116164064D01*
X139282459Y-116164064D02*
X139215792Y-116197398D01*
X139215792Y-116197398D02*
X139182459Y-116264064D01*
X139182459Y-116264064D02*
X139182459Y-116330731D01*
X139182459Y-116330731D02*
X139515792Y-116397398D01*
X138915792Y-116597398D02*
X138849126Y-116630731D01*
X138849126Y-116630731D02*
X138715792Y-116630731D01*
X138715792Y-116630731D02*
X138649126Y-116597398D01*
X138649126Y-116597398D02*
X138615792Y-116530731D01*
X138615792Y-116530731D02*
X138615792Y-116497398D01*
X138615792Y-116497398D02*
X138649126Y-116430731D01*
X138649126Y-116430731D02*
X138715792Y-116397398D01*
X138715792Y-116397398D02*
X138815792Y-116397398D01*
X138815792Y-116397398D02*
X138882459Y-116364064D01*
X138882459Y-116364064D02*
X138915792Y-116297398D01*
X138915792Y-116297398D02*
X138915792Y-116264064D01*
X138915792Y-116264064D02*
X138882459Y-116197398D01*
X138882459Y-116197398D02*
X138815792Y-116164064D01*
X138815792Y-116164064D02*
X138715792Y-116164064D01*
X138715792Y-116164064D02*
X138649126Y-116197398D01*
X137882459Y-116164064D02*
X137615792Y-116164064D01*
X137782459Y-116630731D02*
X137782459Y-116030731D01*
X137782459Y-116030731D02*
X137749126Y-115964064D01*
X137749126Y-115964064D02*
X137682459Y-115930731D01*
X137682459Y-115930731D02*
X137615792Y-115930731D01*
X137382459Y-116630731D02*
X137382459Y-116164064D01*
X137382459Y-116297398D02*
X137349126Y-116230731D01*
X137349126Y-116230731D02*
X137315792Y-116197398D01*
X137315792Y-116197398D02*
X137249126Y-116164064D01*
X137249126Y-116164064D02*
X137182459Y-116164064D01*
X136849126Y-116630731D02*
X136915793Y-116597398D01*
X136915793Y-116597398D02*
X136949126Y-116564064D01*
X136949126Y-116564064D02*
X136982459Y-116497398D01*
X136982459Y-116497398D02*
X136982459Y-116297398D01*
X136982459Y-116297398D02*
X136949126Y-116230731D01*
X136949126Y-116230731D02*
X136915793Y-116197398D01*
X136915793Y-116197398D02*
X136849126Y-116164064D01*
X136849126Y-116164064D02*
X136749126Y-116164064D01*
X136749126Y-116164064D02*
X136682459Y-116197398D01*
X136682459Y-116197398D02*
X136649126Y-116230731D01*
X136649126Y-116230731D02*
X136615793Y-116297398D01*
X136615793Y-116297398D02*
X136615793Y-116497398D01*
X136615793Y-116497398D02*
X136649126Y-116564064D01*
X136649126Y-116564064D02*
X136682459Y-116597398D01*
X136682459Y-116597398D02*
X136749126Y-116630731D01*
X136749126Y-116630731D02*
X136849126Y-116630731D01*
X136315793Y-116630731D02*
X136315793Y-116164064D01*
X136315793Y-116230731D02*
X136282460Y-116197398D01*
X136282460Y-116197398D02*
X136215793Y-116164064D01*
X136215793Y-116164064D02*
X136115793Y-116164064D01*
X136115793Y-116164064D02*
X136049126Y-116197398D01*
X136049126Y-116197398D02*
X136015793Y-116264064D01*
X136015793Y-116264064D02*
X136015793Y-116630731D01*
X136015793Y-116264064D02*
X135982460Y-116197398D01*
X135982460Y-116197398D02*
X135915793Y-116164064D01*
X135915793Y-116164064D02*
X135815793Y-116164064D01*
X135815793Y-116164064D02*
X135749126Y-116197398D01*
X135749126Y-116197398D02*
X135715793Y-116264064D01*
X135715793Y-116264064D02*
X135715793Y-116630731D01*
X134915794Y-115930731D02*
X134482460Y-115930731D01*
X134482460Y-115930731D02*
X134715794Y-116197398D01*
X134715794Y-116197398D02*
X134615794Y-116197398D01*
X134615794Y-116197398D02*
X134549127Y-116230731D01*
X134549127Y-116230731D02*
X134515794Y-116264064D01*
X134515794Y-116264064D02*
X134482460Y-116330731D01*
X134482460Y-116330731D02*
X134482460Y-116497398D01*
X134482460Y-116497398D02*
X134515794Y-116564064D01*
X134515794Y-116564064D02*
X134549127Y-116597398D01*
X134549127Y-116597398D02*
X134615794Y-116630731D01*
X134615794Y-116630731D02*
X134815794Y-116630731D01*
X134815794Y-116630731D02*
X134882460Y-116597398D01*
X134882460Y-116597398D02*
X134915794Y-116564064D01*
X134182460Y-116564064D02*
X134149127Y-116597398D01*
X134149127Y-116597398D02*
X134182460Y-116630731D01*
X134182460Y-116630731D02*
X134215793Y-116597398D01*
X134215793Y-116597398D02*
X134182460Y-116564064D01*
X134182460Y-116564064D02*
X134182460Y-116630731D01*
X133915794Y-115930731D02*
X133482460Y-115930731D01*
X133482460Y-115930731D02*
X133715794Y-116197398D01*
X133715794Y-116197398D02*
X133615794Y-116197398D01*
X133615794Y-116197398D02*
X133549127Y-116230731D01*
X133549127Y-116230731D02*
X133515794Y-116264064D01*
X133515794Y-116264064D02*
X133482460Y-116330731D01*
X133482460Y-116330731D02*
X133482460Y-116497398D01*
X133482460Y-116497398D02*
X133515794Y-116564064D01*
X133515794Y-116564064D02*
X133549127Y-116597398D01*
X133549127Y-116597398D02*
X133615794Y-116630731D01*
X133615794Y-116630731D02*
X133815794Y-116630731D01*
X133815794Y-116630731D02*
X133882460Y-116597398D01*
X133882460Y-116597398D02*
X133915794Y-116564064D01*
X133182460Y-116364064D02*
X132649127Y-116364064D01*
X132349126Y-115997398D02*
X132315793Y-115964064D01*
X132315793Y-115964064D02*
X132249126Y-115930731D01*
X132249126Y-115930731D02*
X132082460Y-115930731D01*
X132082460Y-115930731D02*
X132015793Y-115964064D01*
X132015793Y-115964064D02*
X131982460Y-115997398D01*
X131982460Y-115997398D02*
X131949126Y-116064064D01*
X131949126Y-116064064D02*
X131949126Y-116130731D01*
X131949126Y-116130731D02*
X131982460Y-116230731D01*
X131982460Y-116230731D02*
X132382460Y-116630731D01*
X132382460Y-116630731D02*
X131949126Y-116630731D01*
X131515793Y-115930731D02*
X131449126Y-115930731D01*
X131449126Y-115930731D02*
X131382459Y-115964064D01*
X131382459Y-115964064D02*
X131349126Y-115997398D01*
X131349126Y-115997398D02*
X131315793Y-116064064D01*
X131315793Y-116064064D02*
X131282459Y-116197398D01*
X131282459Y-116197398D02*
X131282459Y-116364064D01*
X131282459Y-116364064D02*
X131315793Y-116497398D01*
X131315793Y-116497398D02*
X131349126Y-116564064D01*
X131349126Y-116564064D02*
X131382459Y-116597398D01*
X131382459Y-116597398D02*
X131449126Y-116630731D01*
X131449126Y-116630731D02*
X131515793Y-116630731D01*
X131515793Y-116630731D02*
X131582459Y-116597398D01*
X131582459Y-116597398D02*
X131615793Y-116564064D01*
X131615793Y-116564064D02*
X131649126Y-116497398D01*
X131649126Y-116497398D02*
X131682459Y-116364064D01*
X131682459Y-116364064D02*
X131682459Y-116197398D01*
X131682459Y-116197398D02*
X131649126Y-116064064D01*
X131649126Y-116064064D02*
X131615793Y-115997398D01*
X131615793Y-115997398D02*
X131582459Y-115964064D01*
X131582459Y-115964064D02*
X131515793Y-115930731D01*
X131082459Y-115930731D02*
X130849126Y-116630731D01*
X130849126Y-116630731D02*
X130615792Y-115930731D01*
X130382459Y-116564064D02*
X130349126Y-116597398D01*
X130349126Y-116597398D02*
X130382459Y-116630731D01*
X130382459Y-116630731D02*
X130415792Y-116597398D01*
X130415792Y-116597398D02*
X130382459Y-116564064D01*
X130382459Y-116564064D02*
X130382459Y-116630731D01*
X150915790Y-117391025D02*
X150815790Y-117424359D01*
X150815790Y-117424359D02*
X150782456Y-117457692D01*
X150782456Y-117457692D02*
X150749123Y-117524359D01*
X150749123Y-117524359D02*
X150749123Y-117624359D01*
X150749123Y-117624359D02*
X150782456Y-117691025D01*
X150782456Y-117691025D02*
X150815790Y-117724359D01*
X150815790Y-117724359D02*
X150882456Y-117757692D01*
X150882456Y-117757692D02*
X151149123Y-117757692D01*
X151149123Y-117757692D02*
X151149123Y-117057692D01*
X151149123Y-117057692D02*
X150915790Y-117057692D01*
X150915790Y-117057692D02*
X150849123Y-117091025D01*
X150849123Y-117091025D02*
X150815790Y-117124359D01*
X150815790Y-117124359D02*
X150782456Y-117191025D01*
X150782456Y-117191025D02*
X150782456Y-117257692D01*
X150782456Y-117257692D02*
X150815790Y-117324359D01*
X150815790Y-117324359D02*
X150849123Y-117357692D01*
X150849123Y-117357692D02*
X150915790Y-117391025D01*
X150915790Y-117391025D02*
X151149123Y-117391025D01*
X150515790Y-117291025D02*
X150349123Y-117757692D01*
X150182456Y-117291025D02*
X150349123Y-117757692D01*
X150349123Y-117757692D02*
X150415790Y-117924359D01*
X150415790Y-117924359D02*
X150449123Y-117957692D01*
X150449123Y-117957692D02*
X150515790Y-117991025D01*
X149382457Y-117291025D02*
X149382457Y-117991025D01*
X149382457Y-117324359D02*
X149315790Y-117291025D01*
X149315790Y-117291025D02*
X149182457Y-117291025D01*
X149182457Y-117291025D02*
X149115790Y-117324359D01*
X149115790Y-117324359D02*
X149082457Y-117357692D01*
X149082457Y-117357692D02*
X149049124Y-117424359D01*
X149049124Y-117424359D02*
X149049124Y-117624359D01*
X149049124Y-117624359D02*
X149082457Y-117691025D01*
X149082457Y-117691025D02*
X149115790Y-117724359D01*
X149115790Y-117724359D02*
X149182457Y-117757692D01*
X149182457Y-117757692D02*
X149315790Y-117757692D01*
X149315790Y-117757692D02*
X149382457Y-117724359D01*
X148449124Y-117291025D02*
X148449124Y-117757692D01*
X148749124Y-117291025D02*
X148749124Y-117657692D01*
X148749124Y-117657692D02*
X148715791Y-117724359D01*
X148715791Y-117724359D02*
X148649124Y-117757692D01*
X148649124Y-117757692D02*
X148549124Y-117757692D01*
X148549124Y-117757692D02*
X148482457Y-117724359D01*
X148482457Y-117724359D02*
X148449124Y-117691025D01*
X148215791Y-117291025D02*
X147949124Y-117291025D01*
X148115791Y-117057692D02*
X148115791Y-117657692D01*
X148115791Y-117657692D02*
X148082458Y-117724359D01*
X148082458Y-117724359D02*
X148015791Y-117757692D01*
X148015791Y-117757692D02*
X147949124Y-117757692D01*
X147815791Y-117291025D02*
X147549124Y-117291025D01*
X147715791Y-117057692D02*
X147715791Y-117657692D01*
X147715791Y-117657692D02*
X147682458Y-117724359D01*
X147682458Y-117724359D02*
X147615791Y-117757692D01*
X147615791Y-117757692D02*
X147549124Y-117757692D01*
X147315791Y-117757692D02*
X147315791Y-117291025D01*
X147315791Y-117057692D02*
X147349124Y-117091025D01*
X147349124Y-117091025D02*
X147315791Y-117124359D01*
X147315791Y-117124359D02*
X147282458Y-117091025D01*
X147282458Y-117091025D02*
X147315791Y-117057692D01*
X147315791Y-117057692D02*
X147315791Y-117124359D01*
X146982458Y-117291025D02*
X146982458Y-117757692D01*
X146982458Y-117357692D02*
X146949125Y-117324359D01*
X146949125Y-117324359D02*
X146882458Y-117291025D01*
X146882458Y-117291025D02*
X146782458Y-117291025D01*
X146782458Y-117291025D02*
X146715791Y-117324359D01*
X146715791Y-117324359D02*
X146682458Y-117391025D01*
X146682458Y-117391025D02*
X146682458Y-117757692D01*
X146049125Y-117291025D02*
X146049125Y-117857692D01*
X146049125Y-117857692D02*
X146082458Y-117924359D01*
X146082458Y-117924359D02*
X146115792Y-117957692D01*
X146115792Y-117957692D02*
X146182458Y-117991025D01*
X146182458Y-117991025D02*
X146282458Y-117991025D01*
X146282458Y-117991025D02*
X146349125Y-117957692D01*
X146049125Y-117724359D02*
X146115792Y-117757692D01*
X146115792Y-117757692D02*
X146249125Y-117757692D01*
X146249125Y-117757692D02*
X146315792Y-117724359D01*
X146315792Y-117724359D02*
X146349125Y-117691025D01*
X146349125Y-117691025D02*
X146382458Y-117624359D01*
X146382458Y-117624359D02*
X146382458Y-117424359D01*
X146382458Y-117424359D02*
X146349125Y-117357692D01*
X146349125Y-117357692D02*
X146315792Y-117324359D01*
X146315792Y-117324359D02*
X146249125Y-117291025D01*
X146249125Y-117291025D02*
X146115792Y-117291025D01*
X146115792Y-117291025D02*
X146049125Y-117324359D01*
X145282459Y-117291025D02*
X145015792Y-117291025D01*
X145182459Y-117057692D02*
X145182459Y-117657692D01*
X145182459Y-117657692D02*
X145149126Y-117724359D01*
X145149126Y-117724359D02*
X145082459Y-117757692D01*
X145082459Y-117757692D02*
X145015792Y-117757692D01*
X144782459Y-117757692D02*
X144782459Y-117057692D01*
X144482459Y-117757692D02*
X144482459Y-117391025D01*
X144482459Y-117391025D02*
X144515792Y-117324359D01*
X144515792Y-117324359D02*
X144582459Y-117291025D01*
X144582459Y-117291025D02*
X144682459Y-117291025D01*
X144682459Y-117291025D02*
X144749126Y-117324359D01*
X144749126Y-117324359D02*
X144782459Y-117357692D01*
X143882459Y-117724359D02*
X143949126Y-117757692D01*
X143949126Y-117757692D02*
X144082459Y-117757692D01*
X144082459Y-117757692D02*
X144149126Y-117724359D01*
X144149126Y-117724359D02*
X144182459Y-117657692D01*
X144182459Y-117657692D02*
X144182459Y-117391025D01*
X144182459Y-117391025D02*
X144149126Y-117324359D01*
X144149126Y-117324359D02*
X144082459Y-117291025D01*
X144082459Y-117291025D02*
X143949126Y-117291025D01*
X143949126Y-117291025D02*
X143882459Y-117324359D01*
X143882459Y-117324359D02*
X143849126Y-117391025D01*
X143849126Y-117391025D02*
X143849126Y-117457692D01*
X143849126Y-117457692D02*
X144182459Y-117524359D01*
X142649126Y-117757692D02*
X143049126Y-117757692D01*
X142849126Y-117757692D02*
X142849126Y-117057692D01*
X142849126Y-117057692D02*
X142915793Y-117157692D01*
X142915793Y-117157692D02*
X142982460Y-117224359D01*
X142982460Y-117224359D02*
X143049126Y-117257692D01*
X141849126Y-117724359D02*
X141782460Y-117757692D01*
X141782460Y-117757692D02*
X141649126Y-117757692D01*
X141649126Y-117757692D02*
X141582460Y-117724359D01*
X141582460Y-117724359D02*
X141549126Y-117657692D01*
X141549126Y-117657692D02*
X141549126Y-117624359D01*
X141549126Y-117624359D02*
X141582460Y-117557692D01*
X141582460Y-117557692D02*
X141649126Y-117524359D01*
X141649126Y-117524359D02*
X141749126Y-117524359D01*
X141749126Y-117524359D02*
X141815793Y-117491025D01*
X141815793Y-117491025D02*
X141849126Y-117424359D01*
X141849126Y-117424359D02*
X141849126Y-117391025D01*
X141849126Y-117391025D02*
X141815793Y-117324359D01*
X141815793Y-117324359D02*
X141749126Y-117291025D01*
X141749126Y-117291025D02*
X141649126Y-117291025D01*
X141649126Y-117291025D02*
X141582460Y-117324359D01*
X141315793Y-117291025D02*
X141182459Y-117757692D01*
X141182459Y-117757692D02*
X141049126Y-117424359D01*
X141049126Y-117424359D02*
X140915793Y-117757692D01*
X140915793Y-117757692D02*
X140782459Y-117291025D01*
X140515793Y-117757692D02*
X140515793Y-117291025D01*
X140515793Y-117057692D02*
X140549126Y-117091025D01*
X140549126Y-117091025D02*
X140515793Y-117124359D01*
X140515793Y-117124359D02*
X140482460Y-117091025D01*
X140482460Y-117091025D02*
X140515793Y-117057692D01*
X140515793Y-117057692D02*
X140515793Y-117124359D01*
X140282460Y-117291025D02*
X140015793Y-117291025D01*
X140182460Y-117057692D02*
X140182460Y-117657692D01*
X140182460Y-117657692D02*
X140149127Y-117724359D01*
X140149127Y-117724359D02*
X140082460Y-117757692D01*
X140082460Y-117757692D02*
X140015793Y-117757692D01*
X139482460Y-117724359D02*
X139549127Y-117757692D01*
X139549127Y-117757692D02*
X139682460Y-117757692D01*
X139682460Y-117757692D02*
X139749127Y-117724359D01*
X139749127Y-117724359D02*
X139782460Y-117691025D01*
X139782460Y-117691025D02*
X139815793Y-117624359D01*
X139815793Y-117624359D02*
X139815793Y-117424359D01*
X139815793Y-117424359D02*
X139782460Y-117357692D01*
X139782460Y-117357692D02*
X139749127Y-117324359D01*
X139749127Y-117324359D02*
X139682460Y-117291025D01*
X139682460Y-117291025D02*
X139549127Y-117291025D01*
X139549127Y-117291025D02*
X139482460Y-117324359D01*
X139182460Y-117757692D02*
X139182460Y-117057692D01*
X138882460Y-117757692D02*
X138882460Y-117391025D01*
X138882460Y-117391025D02*
X138915793Y-117324359D01*
X138915793Y-117324359D02*
X138982460Y-117291025D01*
X138982460Y-117291025D02*
X139082460Y-117291025D01*
X139082460Y-117291025D02*
X139149127Y-117324359D01*
X139149127Y-117324359D02*
X139182460Y-117357692D01*
X137715794Y-117291025D02*
X137715794Y-117757692D01*
X138015794Y-117291025D02*
X138015794Y-117657692D01*
X138015794Y-117657692D02*
X137982461Y-117724359D01*
X137982461Y-117724359D02*
X137915794Y-117757692D01*
X137915794Y-117757692D02*
X137815794Y-117757692D01*
X137815794Y-117757692D02*
X137749127Y-117724359D01*
X137749127Y-117724359D02*
X137715794Y-117691025D01*
X137382461Y-117291025D02*
X137382461Y-117991025D01*
X137382461Y-117324359D02*
X137315794Y-117291025D01*
X137315794Y-117291025D02*
X137182461Y-117291025D01*
X137182461Y-117291025D02*
X137115794Y-117324359D01*
X137115794Y-117324359D02*
X137082461Y-117357692D01*
X137082461Y-117357692D02*
X137049128Y-117424359D01*
X137049128Y-117424359D02*
X137049128Y-117624359D01*
X137049128Y-117624359D02*
X137082461Y-117691025D01*
X137082461Y-117691025D02*
X137115794Y-117724359D01*
X137115794Y-117724359D02*
X137182461Y-117757692D01*
X137182461Y-117757692D02*
X137315794Y-117757692D01*
X137315794Y-117757692D02*
X137382461Y-117724359D01*
X136015795Y-118024359D02*
X136049128Y-117991025D01*
X136049128Y-117991025D02*
X136115795Y-117891025D01*
X136115795Y-117891025D02*
X136149128Y-117824359D01*
X136149128Y-117824359D02*
X136182462Y-117724359D01*
X136182462Y-117724359D02*
X136215795Y-117557692D01*
X136215795Y-117557692D02*
X136215795Y-117424359D01*
X136215795Y-117424359D02*
X136182462Y-117257692D01*
X136182462Y-117257692D02*
X136149128Y-117157692D01*
X136149128Y-117157692D02*
X136115795Y-117091025D01*
X136115795Y-117091025D02*
X136049128Y-116991025D01*
X136049128Y-116991025D02*
X136015795Y-116957692D01*
X135449128Y-117724359D02*
X135515795Y-117757692D01*
X135515795Y-117757692D02*
X135649128Y-117757692D01*
X135649128Y-117757692D02*
X135715795Y-117724359D01*
X135715795Y-117724359D02*
X135749128Y-117691025D01*
X135749128Y-117691025D02*
X135782461Y-117624359D01*
X135782461Y-117624359D02*
X135782461Y-117424359D01*
X135782461Y-117424359D02*
X135749128Y-117357692D01*
X135749128Y-117357692D02*
X135715795Y-117324359D01*
X135715795Y-117324359D02*
X135649128Y-117291025D01*
X135649128Y-117291025D02*
X135515795Y-117291025D01*
X135515795Y-117291025D02*
X135449128Y-117324359D01*
X135049128Y-117757692D02*
X135115795Y-117724359D01*
X135115795Y-117724359D02*
X135149128Y-117691025D01*
X135149128Y-117691025D02*
X135182461Y-117624359D01*
X135182461Y-117624359D02*
X135182461Y-117424359D01*
X135182461Y-117424359D02*
X135149128Y-117357692D01*
X135149128Y-117357692D02*
X135115795Y-117324359D01*
X135115795Y-117324359D02*
X135049128Y-117291025D01*
X135049128Y-117291025D02*
X134949128Y-117291025D01*
X134949128Y-117291025D02*
X134882461Y-117324359D01*
X134882461Y-117324359D02*
X134849128Y-117357692D01*
X134849128Y-117357692D02*
X134815795Y-117424359D01*
X134815795Y-117424359D02*
X134815795Y-117624359D01*
X134815795Y-117624359D02*
X134849128Y-117691025D01*
X134849128Y-117691025D02*
X134882461Y-117724359D01*
X134882461Y-117724359D02*
X134949128Y-117757692D01*
X134949128Y-117757692D02*
X135049128Y-117757692D01*
X134515795Y-117757692D02*
X134515795Y-117291025D01*
X134515795Y-117424359D02*
X134482462Y-117357692D01*
X134482462Y-117357692D02*
X134449128Y-117324359D01*
X134449128Y-117324359D02*
X134382462Y-117291025D01*
X134382462Y-117291025D02*
X134315795Y-117291025D01*
X134082462Y-117757692D02*
X134082462Y-117291025D01*
X134082462Y-117424359D02*
X134049129Y-117357692D01*
X134049129Y-117357692D02*
X134015795Y-117324359D01*
X134015795Y-117324359D02*
X133949129Y-117291025D01*
X133949129Y-117291025D02*
X133882462Y-117291025D01*
X133382462Y-117724359D02*
X133449129Y-117757692D01*
X133449129Y-117757692D02*
X133582462Y-117757692D01*
X133582462Y-117757692D02*
X133649129Y-117724359D01*
X133649129Y-117724359D02*
X133682462Y-117657692D01*
X133682462Y-117657692D02*
X133682462Y-117391025D01*
X133682462Y-117391025D02*
X133649129Y-117324359D01*
X133649129Y-117324359D02*
X133582462Y-117291025D01*
X133582462Y-117291025D02*
X133449129Y-117291025D01*
X133449129Y-117291025D02*
X133382462Y-117324359D01*
X133382462Y-117324359D02*
X133349129Y-117391025D01*
X133349129Y-117391025D02*
X133349129Y-117457692D01*
X133349129Y-117457692D02*
X133682462Y-117524359D01*
X133082462Y-117724359D02*
X133015796Y-117757692D01*
X133015796Y-117757692D02*
X132882462Y-117757692D01*
X132882462Y-117757692D02*
X132815796Y-117724359D01*
X132815796Y-117724359D02*
X132782462Y-117657692D01*
X132782462Y-117657692D02*
X132782462Y-117624359D01*
X132782462Y-117624359D02*
X132815796Y-117557692D01*
X132815796Y-117557692D02*
X132882462Y-117524359D01*
X132882462Y-117524359D02*
X132982462Y-117524359D01*
X132982462Y-117524359D02*
X133049129Y-117491025D01*
X133049129Y-117491025D02*
X133082462Y-117424359D01*
X133082462Y-117424359D02*
X133082462Y-117391025D01*
X133082462Y-117391025D02*
X133049129Y-117324359D01*
X133049129Y-117324359D02*
X132982462Y-117291025D01*
X132982462Y-117291025D02*
X132882462Y-117291025D01*
X132882462Y-117291025D02*
X132815796Y-117324359D01*
X132482462Y-117291025D02*
X132482462Y-117991025D01*
X132482462Y-117324359D02*
X132415795Y-117291025D01*
X132415795Y-117291025D02*
X132282462Y-117291025D01*
X132282462Y-117291025D02*
X132215795Y-117324359D01*
X132215795Y-117324359D02*
X132182462Y-117357692D01*
X132182462Y-117357692D02*
X132149129Y-117424359D01*
X132149129Y-117424359D02*
X132149129Y-117624359D01*
X132149129Y-117624359D02*
X132182462Y-117691025D01*
X132182462Y-117691025D02*
X132215795Y-117724359D01*
X132215795Y-117724359D02*
X132282462Y-117757692D01*
X132282462Y-117757692D02*
X132415795Y-117757692D01*
X132415795Y-117757692D02*
X132482462Y-117724359D01*
X131749129Y-117757692D02*
X131815796Y-117724359D01*
X131815796Y-117724359D02*
X131849129Y-117691025D01*
X131849129Y-117691025D02*
X131882462Y-117624359D01*
X131882462Y-117624359D02*
X131882462Y-117424359D01*
X131882462Y-117424359D02*
X131849129Y-117357692D01*
X131849129Y-117357692D02*
X131815796Y-117324359D01*
X131815796Y-117324359D02*
X131749129Y-117291025D01*
X131749129Y-117291025D02*
X131649129Y-117291025D01*
X131649129Y-117291025D02*
X131582462Y-117324359D01*
X131582462Y-117324359D02*
X131549129Y-117357692D01*
X131549129Y-117357692D02*
X131515796Y-117424359D01*
X131515796Y-117424359D02*
X131515796Y-117624359D01*
X131515796Y-117624359D02*
X131549129Y-117691025D01*
X131549129Y-117691025D02*
X131582462Y-117724359D01*
X131582462Y-117724359D02*
X131649129Y-117757692D01*
X131649129Y-117757692D02*
X131749129Y-117757692D01*
X131215796Y-117291025D02*
X131215796Y-117757692D01*
X131215796Y-117357692D02*
X131182463Y-117324359D01*
X131182463Y-117324359D02*
X131115796Y-117291025D01*
X131115796Y-117291025D02*
X131015796Y-117291025D01*
X131015796Y-117291025D02*
X130949129Y-117324359D01*
X130949129Y-117324359D02*
X130915796Y-117391025D01*
X130915796Y-117391025D02*
X130915796Y-117757692D01*
X130282463Y-117757692D02*
X130282463Y-117057692D01*
X130282463Y-117724359D02*
X130349130Y-117757692D01*
X130349130Y-117757692D02*
X130482463Y-117757692D01*
X130482463Y-117757692D02*
X130549130Y-117724359D01*
X130549130Y-117724359D02*
X130582463Y-117691025D01*
X130582463Y-117691025D02*
X130615796Y-117624359D01*
X130615796Y-117624359D02*
X130615796Y-117424359D01*
X130615796Y-117424359D02*
X130582463Y-117357692D01*
X130582463Y-117357692D02*
X130549130Y-117324359D01*
X130549130Y-117324359D02*
X130482463Y-117291025D01*
X130482463Y-117291025D02*
X130349130Y-117291025D01*
X130349130Y-117291025D02*
X130282463Y-117324359D01*
X129949130Y-117757692D02*
X129949130Y-117291025D01*
X129949130Y-117057692D02*
X129982463Y-117091025D01*
X129982463Y-117091025D02*
X129949130Y-117124359D01*
X129949130Y-117124359D02*
X129915797Y-117091025D01*
X129915797Y-117091025D02*
X129949130Y-117057692D01*
X129949130Y-117057692D02*
X129949130Y-117124359D01*
X129615797Y-117291025D02*
X129615797Y-117757692D01*
X129615797Y-117357692D02*
X129582464Y-117324359D01*
X129582464Y-117324359D02*
X129515797Y-117291025D01*
X129515797Y-117291025D02*
X129415797Y-117291025D01*
X129415797Y-117291025D02*
X129349130Y-117324359D01*
X129349130Y-117324359D02*
X129315797Y-117391025D01*
X129315797Y-117391025D02*
X129315797Y-117757692D01*
X128682464Y-117291025D02*
X128682464Y-117857692D01*
X128682464Y-117857692D02*
X128715797Y-117924359D01*
X128715797Y-117924359D02*
X128749131Y-117957692D01*
X128749131Y-117957692D02*
X128815797Y-117991025D01*
X128815797Y-117991025D02*
X128915797Y-117991025D01*
X128915797Y-117991025D02*
X128982464Y-117957692D01*
X128682464Y-117724359D02*
X128749131Y-117757692D01*
X128749131Y-117757692D02*
X128882464Y-117757692D01*
X128882464Y-117757692D02*
X128949131Y-117724359D01*
X128949131Y-117724359D02*
X128982464Y-117691025D01*
X128982464Y-117691025D02*
X129015797Y-117624359D01*
X129015797Y-117624359D02*
X129015797Y-117424359D01*
X129015797Y-117424359D02*
X128982464Y-117357692D01*
X128982464Y-117357692D02*
X128949131Y-117324359D01*
X128949131Y-117324359D02*
X128882464Y-117291025D01*
X128882464Y-117291025D02*
X128749131Y-117291025D01*
X128749131Y-117291025D02*
X128682464Y-117324359D01*
X127915798Y-117291025D02*
X127649131Y-117291025D01*
X127815798Y-117057692D02*
X127815798Y-117657692D01*
X127815798Y-117657692D02*
X127782465Y-117724359D01*
X127782465Y-117724359D02*
X127715798Y-117757692D01*
X127715798Y-117757692D02*
X127649131Y-117757692D01*
X127315798Y-117757692D02*
X127382465Y-117724359D01*
X127382465Y-117724359D02*
X127415798Y-117691025D01*
X127415798Y-117691025D02*
X127449131Y-117624359D01*
X127449131Y-117624359D02*
X127449131Y-117424359D01*
X127449131Y-117424359D02*
X127415798Y-117357692D01*
X127415798Y-117357692D02*
X127382465Y-117324359D01*
X127382465Y-117324359D02*
X127315798Y-117291025D01*
X127315798Y-117291025D02*
X127215798Y-117291025D01*
X127215798Y-117291025D02*
X127149131Y-117324359D01*
X127149131Y-117324359D02*
X127115798Y-117357692D01*
X127115798Y-117357692D02*
X127082465Y-117424359D01*
X127082465Y-117424359D02*
X127082465Y-117624359D01*
X127082465Y-117624359D02*
X127115798Y-117691025D01*
X127115798Y-117691025D02*
X127149131Y-117724359D01*
X127149131Y-117724359D02*
X127215798Y-117757692D01*
X127215798Y-117757692D02*
X127315798Y-117757692D01*
X126249132Y-117757692D02*
X126249132Y-117291025D01*
X126249132Y-117057692D02*
X126282465Y-117091025D01*
X126282465Y-117091025D02*
X126249132Y-117124359D01*
X126249132Y-117124359D02*
X126215799Y-117091025D01*
X126215799Y-117091025D02*
X126249132Y-117057692D01*
X126249132Y-117057692D02*
X126249132Y-117124359D01*
X126015799Y-117291025D02*
X125749132Y-117291025D01*
X125915799Y-117057692D02*
X125915799Y-117657692D01*
X125915799Y-117657692D02*
X125882466Y-117724359D01*
X125882466Y-117724359D02*
X125815799Y-117757692D01*
X125815799Y-117757692D02*
X125749132Y-117757692D01*
X125549132Y-117724359D02*
X125482466Y-117757692D01*
X125482466Y-117757692D02*
X125349132Y-117757692D01*
X125349132Y-117757692D02*
X125282466Y-117724359D01*
X125282466Y-117724359D02*
X125249132Y-117657692D01*
X125249132Y-117657692D02*
X125249132Y-117624359D01*
X125249132Y-117624359D02*
X125282466Y-117557692D01*
X125282466Y-117557692D02*
X125349132Y-117524359D01*
X125349132Y-117524359D02*
X125449132Y-117524359D01*
X125449132Y-117524359D02*
X125515799Y-117491025D01*
X125515799Y-117491025D02*
X125549132Y-117424359D01*
X125549132Y-117424359D02*
X125549132Y-117391025D01*
X125549132Y-117391025D02*
X125515799Y-117324359D01*
X125515799Y-117324359D02*
X125449132Y-117291025D01*
X125449132Y-117291025D02*
X125349132Y-117291025D01*
X125349132Y-117291025D02*
X125282466Y-117324359D01*
X124482466Y-117291025D02*
X124315799Y-117757692D01*
X124315799Y-117757692D02*
X124149132Y-117291025D01*
X123782466Y-117757692D02*
X123849133Y-117724359D01*
X123849133Y-117724359D02*
X123882466Y-117691025D01*
X123882466Y-117691025D02*
X123915799Y-117624359D01*
X123915799Y-117624359D02*
X123915799Y-117424359D01*
X123915799Y-117424359D02*
X123882466Y-117357692D01*
X123882466Y-117357692D02*
X123849133Y-117324359D01*
X123849133Y-117324359D02*
X123782466Y-117291025D01*
X123782466Y-117291025D02*
X123682466Y-117291025D01*
X123682466Y-117291025D02*
X123615799Y-117324359D01*
X123615799Y-117324359D02*
X123582466Y-117357692D01*
X123582466Y-117357692D02*
X123549133Y-117424359D01*
X123549133Y-117424359D02*
X123549133Y-117624359D01*
X123549133Y-117624359D02*
X123582466Y-117691025D01*
X123582466Y-117691025D02*
X123615799Y-117724359D01*
X123615799Y-117724359D02*
X123682466Y-117757692D01*
X123682466Y-117757692D02*
X123782466Y-117757692D01*
X123149133Y-117757692D02*
X123215800Y-117724359D01*
X123215800Y-117724359D02*
X123249133Y-117657692D01*
X123249133Y-117657692D02*
X123249133Y-117057692D01*
X122982466Y-117291025D02*
X122715799Y-117291025D01*
X122882466Y-117057692D02*
X122882466Y-117657692D01*
X122882466Y-117657692D02*
X122849133Y-117724359D01*
X122849133Y-117724359D02*
X122782466Y-117757692D01*
X122782466Y-117757692D02*
X122715799Y-117757692D01*
X122182466Y-117757692D02*
X122182466Y-117391025D01*
X122182466Y-117391025D02*
X122215799Y-117324359D01*
X122215799Y-117324359D02*
X122282466Y-117291025D01*
X122282466Y-117291025D02*
X122415799Y-117291025D01*
X122415799Y-117291025D02*
X122482466Y-117324359D01*
X122182466Y-117724359D02*
X122249133Y-117757692D01*
X122249133Y-117757692D02*
X122415799Y-117757692D01*
X122415799Y-117757692D02*
X122482466Y-117724359D01*
X122482466Y-117724359D02*
X122515799Y-117657692D01*
X122515799Y-117657692D02*
X122515799Y-117591025D01*
X122515799Y-117591025D02*
X122482466Y-117524359D01*
X122482466Y-117524359D02*
X122415799Y-117491025D01*
X122415799Y-117491025D02*
X122249133Y-117491025D01*
X122249133Y-117491025D02*
X122182466Y-117457692D01*
X121549133Y-117291025D02*
X121549133Y-117857692D01*
X121549133Y-117857692D02*
X121582466Y-117924359D01*
X121582466Y-117924359D02*
X121615800Y-117957692D01*
X121615800Y-117957692D02*
X121682466Y-117991025D01*
X121682466Y-117991025D02*
X121782466Y-117991025D01*
X121782466Y-117991025D02*
X121849133Y-117957692D01*
X121549133Y-117724359D02*
X121615800Y-117757692D01*
X121615800Y-117757692D02*
X121749133Y-117757692D01*
X121749133Y-117757692D02*
X121815800Y-117724359D01*
X121815800Y-117724359D02*
X121849133Y-117691025D01*
X121849133Y-117691025D02*
X121882466Y-117624359D01*
X121882466Y-117624359D02*
X121882466Y-117424359D01*
X121882466Y-117424359D02*
X121849133Y-117357692D01*
X121849133Y-117357692D02*
X121815800Y-117324359D01*
X121815800Y-117324359D02*
X121749133Y-117291025D01*
X121749133Y-117291025D02*
X121615800Y-117291025D01*
X121615800Y-117291025D02*
X121549133Y-117324359D01*
X120949133Y-117724359D02*
X121015800Y-117757692D01*
X121015800Y-117757692D02*
X121149133Y-117757692D01*
X121149133Y-117757692D02*
X121215800Y-117724359D01*
X121215800Y-117724359D02*
X121249133Y-117657692D01*
X121249133Y-117657692D02*
X121249133Y-117391025D01*
X121249133Y-117391025D02*
X121215800Y-117324359D01*
X121215800Y-117324359D02*
X121149133Y-117291025D01*
X121149133Y-117291025D02*
X121015800Y-117291025D01*
X121015800Y-117291025D02*
X120949133Y-117324359D01*
X120949133Y-117324359D02*
X120915800Y-117391025D01*
X120915800Y-117391025D02*
X120915800Y-117457692D01*
X120915800Y-117457692D02*
X121249133Y-117524359D01*
X119782467Y-117291025D02*
X119782467Y-117757692D01*
X120082467Y-117291025D02*
X120082467Y-117657692D01*
X120082467Y-117657692D02*
X120049134Y-117724359D01*
X120049134Y-117724359D02*
X119982467Y-117757692D01*
X119982467Y-117757692D02*
X119882467Y-117757692D01*
X119882467Y-117757692D02*
X119815800Y-117724359D01*
X119815800Y-117724359D02*
X119782467Y-117691025D01*
X119449134Y-117291025D02*
X119449134Y-117991025D01*
X119449134Y-117324359D02*
X119382467Y-117291025D01*
X119382467Y-117291025D02*
X119249134Y-117291025D01*
X119249134Y-117291025D02*
X119182467Y-117324359D01*
X119182467Y-117324359D02*
X119149134Y-117357692D01*
X119149134Y-117357692D02*
X119115801Y-117424359D01*
X119115801Y-117424359D02*
X119115801Y-117624359D01*
X119115801Y-117624359D02*
X119149134Y-117691025D01*
X119149134Y-117691025D02*
X119182467Y-117724359D01*
X119182467Y-117724359D02*
X119249134Y-117757692D01*
X119249134Y-117757692D02*
X119382467Y-117757692D01*
X119382467Y-117757692D02*
X119449134Y-117724359D01*
X118882468Y-118024359D02*
X118849134Y-117991025D01*
X118849134Y-117991025D02*
X118782468Y-117891025D01*
X118782468Y-117891025D02*
X118749134Y-117824359D01*
X118749134Y-117824359D02*
X118715801Y-117724359D01*
X118715801Y-117724359D02*
X118682468Y-117557692D01*
X118682468Y-117557692D02*
X118682468Y-117424359D01*
X118682468Y-117424359D02*
X118715801Y-117257692D01*
X118715801Y-117257692D02*
X118749134Y-117157692D01*
X118749134Y-117157692D02*
X118782468Y-117091025D01*
X118782468Y-117091025D02*
X118849134Y-116991025D01*
X118849134Y-116991025D02*
X118882468Y-116957692D01*
X117515801Y-117757692D02*
X117515801Y-117391025D01*
X117515801Y-117391025D02*
X117549134Y-117324359D01*
X117549134Y-117324359D02*
X117615801Y-117291025D01*
X117615801Y-117291025D02*
X117749134Y-117291025D01*
X117749134Y-117291025D02*
X117815801Y-117324359D01*
X117515801Y-117724359D02*
X117582468Y-117757692D01*
X117582468Y-117757692D02*
X117749134Y-117757692D01*
X117749134Y-117757692D02*
X117815801Y-117724359D01*
X117815801Y-117724359D02*
X117849134Y-117657692D01*
X117849134Y-117657692D02*
X117849134Y-117591025D01*
X117849134Y-117591025D02*
X117815801Y-117524359D01*
X117815801Y-117524359D02*
X117749134Y-117491025D01*
X117749134Y-117491025D02*
X117582468Y-117491025D01*
X117582468Y-117491025D02*
X117515801Y-117457692D01*
X117182468Y-117291025D02*
X117182468Y-117757692D01*
X117182468Y-117357692D02*
X117149135Y-117324359D01*
X117149135Y-117324359D02*
X117082468Y-117291025D01*
X117082468Y-117291025D02*
X116982468Y-117291025D01*
X116982468Y-117291025D02*
X116915801Y-117324359D01*
X116915801Y-117324359D02*
X116882468Y-117391025D01*
X116882468Y-117391025D02*
X116882468Y-117757692D01*
X116249135Y-117757692D02*
X116249135Y-117057692D01*
X116249135Y-117724359D02*
X116315802Y-117757692D01*
X116315802Y-117757692D02*
X116449135Y-117757692D01*
X116449135Y-117757692D02*
X116515802Y-117724359D01*
X116515802Y-117724359D02*
X116549135Y-117691025D01*
X116549135Y-117691025D02*
X116582468Y-117624359D01*
X116582468Y-117624359D02*
X116582468Y-117424359D01*
X116582468Y-117424359D02*
X116549135Y-117357692D01*
X116549135Y-117357692D02*
X116515802Y-117324359D01*
X116515802Y-117324359D02*
X116449135Y-117291025D01*
X116449135Y-117291025D02*
X116315802Y-117291025D01*
X116315802Y-117291025D02*
X116249135Y-117324359D01*
X115482469Y-117291025D02*
X115215802Y-117291025D01*
X115382469Y-117057692D02*
X115382469Y-117657692D01*
X115382469Y-117657692D02*
X115349136Y-117724359D01*
X115349136Y-117724359D02*
X115282469Y-117757692D01*
X115282469Y-117757692D02*
X115215802Y-117757692D01*
X114982469Y-117757692D02*
X114982469Y-117057692D01*
X114682469Y-117757692D02*
X114682469Y-117391025D01*
X114682469Y-117391025D02*
X114715802Y-117324359D01*
X114715802Y-117324359D02*
X114782469Y-117291025D01*
X114782469Y-117291025D02*
X114882469Y-117291025D01*
X114882469Y-117291025D02*
X114949136Y-117324359D01*
X114949136Y-117324359D02*
X114982469Y-117357692D01*
X114082469Y-117724359D02*
X114149136Y-117757692D01*
X114149136Y-117757692D02*
X114282469Y-117757692D01*
X114282469Y-117757692D02*
X114349136Y-117724359D01*
X114349136Y-117724359D02*
X114382469Y-117657692D01*
X114382469Y-117657692D02*
X114382469Y-117391025D01*
X114382469Y-117391025D02*
X114349136Y-117324359D01*
X114349136Y-117324359D02*
X114282469Y-117291025D01*
X114282469Y-117291025D02*
X114149136Y-117291025D01*
X114149136Y-117291025D02*
X114082469Y-117324359D01*
X114082469Y-117324359D02*
X114049136Y-117391025D01*
X114049136Y-117391025D02*
X114049136Y-117457692D01*
X114049136Y-117457692D02*
X114382469Y-117524359D01*
X113215803Y-117757692D02*
X113215803Y-117291025D01*
X113215803Y-117424359D02*
X113182470Y-117357692D01*
X113182470Y-117357692D02*
X113149136Y-117324359D01*
X113149136Y-117324359D02*
X113082470Y-117291025D01*
X113082470Y-117291025D02*
X113015803Y-117291025D01*
X112515803Y-117724359D02*
X112582470Y-117757692D01*
X112582470Y-117757692D02*
X112715803Y-117757692D01*
X112715803Y-117757692D02*
X112782470Y-117724359D01*
X112782470Y-117724359D02*
X112815803Y-117657692D01*
X112815803Y-117657692D02*
X112815803Y-117391025D01*
X112815803Y-117391025D02*
X112782470Y-117324359D01*
X112782470Y-117324359D02*
X112715803Y-117291025D01*
X112715803Y-117291025D02*
X112582470Y-117291025D01*
X112582470Y-117291025D02*
X112515803Y-117324359D01*
X112515803Y-117324359D02*
X112482470Y-117391025D01*
X112482470Y-117391025D02*
X112482470Y-117457692D01*
X112482470Y-117457692D02*
X112815803Y-117524359D01*
X112215803Y-117724359D02*
X112149137Y-117757692D01*
X112149137Y-117757692D02*
X112015803Y-117757692D01*
X112015803Y-117757692D02*
X111949137Y-117724359D01*
X111949137Y-117724359D02*
X111915803Y-117657692D01*
X111915803Y-117657692D02*
X111915803Y-117624359D01*
X111915803Y-117624359D02*
X111949137Y-117557692D01*
X111949137Y-117557692D02*
X112015803Y-117524359D01*
X112015803Y-117524359D02*
X112115803Y-117524359D01*
X112115803Y-117524359D02*
X112182470Y-117491025D01*
X112182470Y-117491025D02*
X112215803Y-117424359D01*
X112215803Y-117424359D02*
X112215803Y-117391025D01*
X112215803Y-117391025D02*
X112182470Y-117324359D01*
X112182470Y-117324359D02*
X112115803Y-117291025D01*
X112115803Y-117291025D02*
X112015803Y-117291025D01*
X112015803Y-117291025D02*
X111949137Y-117324359D01*
X111715803Y-117291025D02*
X111449136Y-117291025D01*
X111615803Y-117057692D02*
X111615803Y-117657692D01*
X111615803Y-117657692D02*
X111582470Y-117724359D01*
X111582470Y-117724359D02*
X111515803Y-117757692D01*
X111515803Y-117757692D02*
X111449136Y-117757692D01*
X110382470Y-117757692D02*
X110382470Y-117057692D01*
X110382470Y-117724359D02*
X110449137Y-117757692D01*
X110449137Y-117757692D02*
X110582470Y-117757692D01*
X110582470Y-117757692D02*
X110649137Y-117724359D01*
X110649137Y-117724359D02*
X110682470Y-117691025D01*
X110682470Y-117691025D02*
X110715803Y-117624359D01*
X110715803Y-117624359D02*
X110715803Y-117424359D01*
X110715803Y-117424359D02*
X110682470Y-117357692D01*
X110682470Y-117357692D02*
X110649137Y-117324359D01*
X110649137Y-117324359D02*
X110582470Y-117291025D01*
X110582470Y-117291025D02*
X110449137Y-117291025D01*
X110449137Y-117291025D02*
X110382470Y-117324359D01*
X109949137Y-117757692D02*
X110015804Y-117724359D01*
X110015804Y-117724359D02*
X110049137Y-117691025D01*
X110049137Y-117691025D02*
X110082470Y-117624359D01*
X110082470Y-117624359D02*
X110082470Y-117424359D01*
X110082470Y-117424359D02*
X110049137Y-117357692D01*
X110049137Y-117357692D02*
X110015804Y-117324359D01*
X110015804Y-117324359D02*
X109949137Y-117291025D01*
X109949137Y-117291025D02*
X109849137Y-117291025D01*
X109849137Y-117291025D02*
X109782470Y-117324359D01*
X109782470Y-117324359D02*
X109749137Y-117357692D01*
X109749137Y-117357692D02*
X109715804Y-117424359D01*
X109715804Y-117424359D02*
X109715804Y-117624359D01*
X109715804Y-117624359D02*
X109749137Y-117691025D01*
X109749137Y-117691025D02*
X109782470Y-117724359D01*
X109782470Y-117724359D02*
X109849137Y-117757692D01*
X109849137Y-117757692D02*
X109949137Y-117757692D01*
X109482471Y-117291025D02*
X109349137Y-117757692D01*
X109349137Y-117757692D02*
X109215804Y-117424359D01*
X109215804Y-117424359D02*
X109082471Y-117757692D01*
X109082471Y-117757692D02*
X108949137Y-117291025D01*
X108682471Y-117291025D02*
X108682471Y-117757692D01*
X108682471Y-117357692D02*
X108649138Y-117324359D01*
X108649138Y-117324359D02*
X108582471Y-117291025D01*
X108582471Y-117291025D02*
X108482471Y-117291025D01*
X108482471Y-117291025D02*
X108415804Y-117324359D01*
X108415804Y-117324359D02*
X108382471Y-117391025D01*
X108382471Y-117391025D02*
X108382471Y-117757692D01*
X108049138Y-117691025D02*
X108015805Y-117724359D01*
X108015805Y-117724359D02*
X108049138Y-117757692D01*
X108049138Y-117757692D02*
X108082471Y-117724359D01*
X108082471Y-117724359D02*
X108049138Y-117691025D01*
X108049138Y-117691025D02*
X108049138Y-117757692D01*
X150915790Y-118517986D02*
X151149123Y-118517986D01*
X151149123Y-118884653D02*
X151149123Y-118184653D01*
X151149123Y-118184653D02*
X150815790Y-118184653D01*
X150449123Y-118884653D02*
X150515790Y-118851320D01*
X150515790Y-118851320D02*
X150549123Y-118817986D01*
X150549123Y-118817986D02*
X150582456Y-118751320D01*
X150582456Y-118751320D02*
X150582456Y-118551320D01*
X150582456Y-118551320D02*
X150549123Y-118484653D01*
X150549123Y-118484653D02*
X150515790Y-118451320D01*
X150515790Y-118451320D02*
X150449123Y-118417986D01*
X150449123Y-118417986D02*
X150349123Y-118417986D01*
X150349123Y-118417986D02*
X150282456Y-118451320D01*
X150282456Y-118451320D02*
X150249123Y-118484653D01*
X150249123Y-118484653D02*
X150215790Y-118551320D01*
X150215790Y-118551320D02*
X150215790Y-118751320D01*
X150215790Y-118751320D02*
X150249123Y-118817986D01*
X150249123Y-118817986D02*
X150282456Y-118851320D01*
X150282456Y-118851320D02*
X150349123Y-118884653D01*
X150349123Y-118884653D02*
X150449123Y-118884653D01*
X149915790Y-118884653D02*
X149915790Y-118417986D01*
X149915790Y-118551320D02*
X149882457Y-118484653D01*
X149882457Y-118484653D02*
X149849123Y-118451320D01*
X149849123Y-118451320D02*
X149782457Y-118417986D01*
X149782457Y-118417986D02*
X149715790Y-118417986D01*
X148982457Y-118251320D02*
X148949124Y-118217986D01*
X148949124Y-118217986D02*
X148882457Y-118184653D01*
X148882457Y-118184653D02*
X148715791Y-118184653D01*
X148715791Y-118184653D02*
X148649124Y-118217986D01*
X148649124Y-118217986D02*
X148615791Y-118251320D01*
X148615791Y-118251320D02*
X148582457Y-118317986D01*
X148582457Y-118317986D02*
X148582457Y-118384653D01*
X148582457Y-118384653D02*
X148615791Y-118484653D01*
X148615791Y-118484653D02*
X149015791Y-118884653D01*
X149015791Y-118884653D02*
X148582457Y-118884653D01*
X148149124Y-118184653D02*
X148082457Y-118184653D01*
X148082457Y-118184653D02*
X148015790Y-118217986D01*
X148015790Y-118217986D02*
X147982457Y-118251320D01*
X147982457Y-118251320D02*
X147949124Y-118317986D01*
X147949124Y-118317986D02*
X147915790Y-118451320D01*
X147915790Y-118451320D02*
X147915790Y-118617986D01*
X147915790Y-118617986D02*
X147949124Y-118751320D01*
X147949124Y-118751320D02*
X147982457Y-118817986D01*
X147982457Y-118817986D02*
X148015790Y-118851320D01*
X148015790Y-118851320D02*
X148082457Y-118884653D01*
X148082457Y-118884653D02*
X148149124Y-118884653D01*
X148149124Y-118884653D02*
X148215790Y-118851320D01*
X148215790Y-118851320D02*
X148249124Y-118817986D01*
X148249124Y-118817986D02*
X148282457Y-118751320D01*
X148282457Y-118751320D02*
X148315790Y-118617986D01*
X148315790Y-118617986D02*
X148315790Y-118451320D01*
X148315790Y-118451320D02*
X148282457Y-118317986D01*
X148282457Y-118317986D02*
X148249124Y-118251320D01*
X148249124Y-118251320D02*
X148215790Y-118217986D01*
X148215790Y-118217986D02*
X148149124Y-118184653D01*
X147715790Y-118184653D02*
X147482457Y-118884653D01*
X147482457Y-118884653D02*
X147249123Y-118184653D01*
X146182457Y-118884653D02*
X146182457Y-118517986D01*
X146182457Y-118517986D02*
X146215790Y-118451320D01*
X146215790Y-118451320D02*
X146282457Y-118417986D01*
X146282457Y-118417986D02*
X146415790Y-118417986D01*
X146415790Y-118417986D02*
X146482457Y-118451320D01*
X146182457Y-118851320D02*
X146249124Y-118884653D01*
X146249124Y-118884653D02*
X146415790Y-118884653D01*
X146415790Y-118884653D02*
X146482457Y-118851320D01*
X146482457Y-118851320D02*
X146515790Y-118784653D01*
X146515790Y-118784653D02*
X146515790Y-118717986D01*
X146515790Y-118717986D02*
X146482457Y-118651320D01*
X146482457Y-118651320D02*
X146415790Y-118617986D01*
X146415790Y-118617986D02*
X146249124Y-118617986D01*
X146249124Y-118617986D02*
X146182457Y-118584653D01*
X145749124Y-118884653D02*
X145815791Y-118851320D01*
X145815791Y-118851320D02*
X145849124Y-118784653D01*
X145849124Y-118784653D02*
X145849124Y-118184653D01*
X145382457Y-118884653D02*
X145449124Y-118851320D01*
X145449124Y-118851320D02*
X145482457Y-118784653D01*
X145482457Y-118784653D02*
X145482457Y-118184653D01*
X144615790Y-118851320D02*
X144549124Y-118884653D01*
X144549124Y-118884653D02*
X144415790Y-118884653D01*
X144415790Y-118884653D02*
X144349124Y-118851320D01*
X144349124Y-118851320D02*
X144315790Y-118784653D01*
X144315790Y-118784653D02*
X144315790Y-118751320D01*
X144315790Y-118751320D02*
X144349124Y-118684653D01*
X144349124Y-118684653D02*
X144415790Y-118651320D01*
X144415790Y-118651320D02*
X144515790Y-118651320D01*
X144515790Y-118651320D02*
X144582457Y-118617986D01*
X144582457Y-118617986D02*
X144615790Y-118551320D01*
X144615790Y-118551320D02*
X144615790Y-118517986D01*
X144615790Y-118517986D02*
X144582457Y-118451320D01*
X144582457Y-118451320D02*
X144515790Y-118417986D01*
X144515790Y-118417986D02*
X144415790Y-118417986D01*
X144415790Y-118417986D02*
X144349124Y-118451320D01*
X144082457Y-118417986D02*
X143949123Y-118884653D01*
X143949123Y-118884653D02*
X143815790Y-118551320D01*
X143815790Y-118551320D02*
X143682457Y-118884653D01*
X143682457Y-118884653D02*
X143549123Y-118417986D01*
X143282457Y-118884653D02*
X143282457Y-118417986D01*
X143282457Y-118184653D02*
X143315790Y-118217986D01*
X143315790Y-118217986D02*
X143282457Y-118251320D01*
X143282457Y-118251320D02*
X143249124Y-118217986D01*
X143249124Y-118217986D02*
X143282457Y-118184653D01*
X143282457Y-118184653D02*
X143282457Y-118251320D01*
X143049124Y-118417986D02*
X142782457Y-118417986D01*
X142949124Y-118184653D02*
X142949124Y-118784653D01*
X142949124Y-118784653D02*
X142915791Y-118851320D01*
X142915791Y-118851320D02*
X142849124Y-118884653D01*
X142849124Y-118884653D02*
X142782457Y-118884653D01*
X142249124Y-118851320D02*
X142315791Y-118884653D01*
X142315791Y-118884653D02*
X142449124Y-118884653D01*
X142449124Y-118884653D02*
X142515791Y-118851320D01*
X142515791Y-118851320D02*
X142549124Y-118817986D01*
X142549124Y-118817986D02*
X142582457Y-118751320D01*
X142582457Y-118751320D02*
X142582457Y-118551320D01*
X142582457Y-118551320D02*
X142549124Y-118484653D01*
X142549124Y-118484653D02*
X142515791Y-118451320D01*
X142515791Y-118451320D02*
X142449124Y-118417986D01*
X142449124Y-118417986D02*
X142315791Y-118417986D01*
X142315791Y-118417986D02*
X142249124Y-118451320D01*
X141949124Y-118884653D02*
X141949124Y-118184653D01*
X141649124Y-118884653D02*
X141649124Y-118517986D01*
X141649124Y-118517986D02*
X141682457Y-118451320D01*
X141682457Y-118451320D02*
X141749124Y-118417986D01*
X141749124Y-118417986D02*
X141849124Y-118417986D01*
X141849124Y-118417986D02*
X141915791Y-118451320D01*
X141915791Y-118451320D02*
X141949124Y-118484653D01*
X141049124Y-118851320D02*
X141115791Y-118884653D01*
X141115791Y-118884653D02*
X141249124Y-118884653D01*
X141249124Y-118884653D02*
X141315791Y-118851320D01*
X141315791Y-118851320D02*
X141349124Y-118784653D01*
X141349124Y-118784653D02*
X141349124Y-118517986D01*
X141349124Y-118517986D02*
X141315791Y-118451320D01*
X141315791Y-118451320D02*
X141249124Y-118417986D01*
X141249124Y-118417986D02*
X141115791Y-118417986D01*
X141115791Y-118417986D02*
X141049124Y-118451320D01*
X141049124Y-118451320D02*
X141015791Y-118517986D01*
X141015791Y-118517986D02*
X141015791Y-118584653D01*
X141015791Y-118584653D02*
X141349124Y-118651320D01*
X140749124Y-118851320D02*
X140682458Y-118884653D01*
X140682458Y-118884653D02*
X140549124Y-118884653D01*
X140549124Y-118884653D02*
X140482458Y-118851320D01*
X140482458Y-118851320D02*
X140449124Y-118784653D01*
X140449124Y-118784653D02*
X140449124Y-118751320D01*
X140449124Y-118751320D02*
X140482458Y-118684653D01*
X140482458Y-118684653D02*
X140549124Y-118651320D01*
X140549124Y-118651320D02*
X140649124Y-118651320D01*
X140649124Y-118651320D02*
X140715791Y-118617986D01*
X140715791Y-118617986D02*
X140749124Y-118551320D01*
X140749124Y-118551320D02*
X140749124Y-118517986D01*
X140749124Y-118517986D02*
X140715791Y-118451320D01*
X140715791Y-118451320D02*
X140649124Y-118417986D01*
X140649124Y-118417986D02*
X140549124Y-118417986D01*
X140549124Y-118417986D02*
X140482458Y-118451320D01*
X139615791Y-118417986D02*
X139615791Y-118884653D01*
X139615791Y-118484653D02*
X139582458Y-118451320D01*
X139582458Y-118451320D02*
X139515791Y-118417986D01*
X139515791Y-118417986D02*
X139415791Y-118417986D01*
X139415791Y-118417986D02*
X139349124Y-118451320D01*
X139349124Y-118451320D02*
X139315791Y-118517986D01*
X139315791Y-118517986D02*
X139315791Y-118884653D01*
X138715791Y-118851320D02*
X138782458Y-118884653D01*
X138782458Y-118884653D02*
X138915791Y-118884653D01*
X138915791Y-118884653D02*
X138982458Y-118851320D01*
X138982458Y-118851320D02*
X139015791Y-118784653D01*
X139015791Y-118784653D02*
X139015791Y-118517986D01*
X139015791Y-118517986D02*
X138982458Y-118451320D01*
X138982458Y-118451320D02*
X138915791Y-118417986D01*
X138915791Y-118417986D02*
X138782458Y-118417986D01*
X138782458Y-118417986D02*
X138715791Y-118451320D01*
X138715791Y-118451320D02*
X138682458Y-118517986D01*
X138682458Y-118517986D02*
X138682458Y-118584653D01*
X138682458Y-118584653D02*
X139015791Y-118651320D01*
X138115791Y-118851320D02*
X138182458Y-118884653D01*
X138182458Y-118884653D02*
X138315791Y-118884653D01*
X138315791Y-118884653D02*
X138382458Y-118851320D01*
X138382458Y-118851320D02*
X138415791Y-118784653D01*
X138415791Y-118784653D02*
X138415791Y-118517986D01*
X138415791Y-118517986D02*
X138382458Y-118451320D01*
X138382458Y-118451320D02*
X138315791Y-118417986D01*
X138315791Y-118417986D02*
X138182458Y-118417986D01*
X138182458Y-118417986D02*
X138115791Y-118451320D01*
X138115791Y-118451320D02*
X138082458Y-118517986D01*
X138082458Y-118517986D02*
X138082458Y-118584653D01*
X138082458Y-118584653D02*
X138415791Y-118651320D01*
X137482458Y-118884653D02*
X137482458Y-118184653D01*
X137482458Y-118851320D02*
X137549125Y-118884653D01*
X137549125Y-118884653D02*
X137682458Y-118884653D01*
X137682458Y-118884653D02*
X137749125Y-118851320D01*
X137749125Y-118851320D02*
X137782458Y-118817986D01*
X137782458Y-118817986D02*
X137815791Y-118751320D01*
X137815791Y-118751320D02*
X137815791Y-118551320D01*
X137815791Y-118551320D02*
X137782458Y-118484653D01*
X137782458Y-118484653D02*
X137749125Y-118451320D01*
X137749125Y-118451320D02*
X137682458Y-118417986D01*
X137682458Y-118417986D02*
X137549125Y-118417986D01*
X137549125Y-118417986D02*
X137482458Y-118451320D01*
X136715792Y-118417986D02*
X136449125Y-118417986D01*
X136615792Y-118184653D02*
X136615792Y-118784653D01*
X136615792Y-118784653D02*
X136582459Y-118851320D01*
X136582459Y-118851320D02*
X136515792Y-118884653D01*
X136515792Y-118884653D02*
X136449125Y-118884653D01*
X136115792Y-118884653D02*
X136182459Y-118851320D01*
X136182459Y-118851320D02*
X136215792Y-118817986D01*
X136215792Y-118817986D02*
X136249125Y-118751320D01*
X136249125Y-118751320D02*
X136249125Y-118551320D01*
X136249125Y-118551320D02*
X136215792Y-118484653D01*
X136215792Y-118484653D02*
X136182459Y-118451320D01*
X136182459Y-118451320D02*
X136115792Y-118417986D01*
X136115792Y-118417986D02*
X136015792Y-118417986D01*
X136015792Y-118417986D02*
X135949125Y-118451320D01*
X135949125Y-118451320D02*
X135915792Y-118484653D01*
X135915792Y-118484653D02*
X135882459Y-118551320D01*
X135882459Y-118551320D02*
X135882459Y-118751320D01*
X135882459Y-118751320D02*
X135915792Y-118817986D01*
X135915792Y-118817986D02*
X135949125Y-118851320D01*
X135949125Y-118851320D02*
X136015792Y-118884653D01*
X136015792Y-118884653D02*
X136115792Y-118884653D01*
X135049126Y-118884653D02*
X135049126Y-118184653D01*
X135049126Y-118451320D02*
X134982459Y-118417986D01*
X134982459Y-118417986D02*
X134849126Y-118417986D01*
X134849126Y-118417986D02*
X134782459Y-118451320D01*
X134782459Y-118451320D02*
X134749126Y-118484653D01*
X134749126Y-118484653D02*
X134715793Y-118551320D01*
X134715793Y-118551320D02*
X134715793Y-118751320D01*
X134715793Y-118751320D02*
X134749126Y-118817986D01*
X134749126Y-118817986D02*
X134782459Y-118851320D01*
X134782459Y-118851320D02*
X134849126Y-118884653D01*
X134849126Y-118884653D02*
X134982459Y-118884653D01*
X134982459Y-118884653D02*
X135049126Y-118851320D01*
X134149126Y-118851320D02*
X134215793Y-118884653D01*
X134215793Y-118884653D02*
X134349126Y-118884653D01*
X134349126Y-118884653D02*
X134415793Y-118851320D01*
X134415793Y-118851320D02*
X134449126Y-118784653D01*
X134449126Y-118784653D02*
X134449126Y-118517986D01*
X134449126Y-118517986D02*
X134415793Y-118451320D01*
X134415793Y-118451320D02*
X134349126Y-118417986D01*
X134349126Y-118417986D02*
X134215793Y-118417986D01*
X134215793Y-118417986D02*
X134149126Y-118451320D01*
X134149126Y-118451320D02*
X134115793Y-118517986D01*
X134115793Y-118517986D02*
X134115793Y-118584653D01*
X134115793Y-118584653D02*
X134449126Y-118651320D01*
X132982460Y-118884653D02*
X132982460Y-118184653D01*
X132982460Y-118851320D02*
X133049127Y-118884653D01*
X133049127Y-118884653D02*
X133182460Y-118884653D01*
X133182460Y-118884653D02*
X133249127Y-118851320D01*
X133249127Y-118851320D02*
X133282460Y-118817986D01*
X133282460Y-118817986D02*
X133315793Y-118751320D01*
X133315793Y-118751320D02*
X133315793Y-118551320D01*
X133315793Y-118551320D02*
X133282460Y-118484653D01*
X133282460Y-118484653D02*
X133249127Y-118451320D01*
X133249127Y-118451320D02*
X133182460Y-118417986D01*
X133182460Y-118417986D02*
X133049127Y-118417986D01*
X133049127Y-118417986D02*
X132982460Y-118451320D01*
X132549127Y-118884653D02*
X132615794Y-118851320D01*
X132615794Y-118851320D02*
X132649127Y-118817986D01*
X132649127Y-118817986D02*
X132682460Y-118751320D01*
X132682460Y-118751320D02*
X132682460Y-118551320D01*
X132682460Y-118551320D02*
X132649127Y-118484653D01*
X132649127Y-118484653D02*
X132615794Y-118451320D01*
X132615794Y-118451320D02*
X132549127Y-118417986D01*
X132549127Y-118417986D02*
X132449127Y-118417986D01*
X132449127Y-118417986D02*
X132382460Y-118451320D01*
X132382460Y-118451320D02*
X132349127Y-118484653D01*
X132349127Y-118484653D02*
X132315794Y-118551320D01*
X132315794Y-118551320D02*
X132315794Y-118751320D01*
X132315794Y-118751320D02*
X132349127Y-118817986D01*
X132349127Y-118817986D02*
X132382460Y-118851320D01*
X132382460Y-118851320D02*
X132449127Y-118884653D01*
X132449127Y-118884653D02*
X132549127Y-118884653D01*
X132082461Y-118417986D02*
X131949127Y-118884653D01*
X131949127Y-118884653D02*
X131815794Y-118551320D01*
X131815794Y-118551320D02*
X131682461Y-118884653D01*
X131682461Y-118884653D02*
X131549127Y-118417986D01*
X131282461Y-118417986D02*
X131282461Y-118884653D01*
X131282461Y-118484653D02*
X131249128Y-118451320D01*
X131249128Y-118451320D02*
X131182461Y-118417986D01*
X131182461Y-118417986D02*
X131082461Y-118417986D01*
X131082461Y-118417986D02*
X131015794Y-118451320D01*
X131015794Y-118451320D02*
X130982461Y-118517986D01*
X130982461Y-118517986D02*
X130982461Y-118884653D01*
X130649128Y-118817986D02*
X130615795Y-118851320D01*
X130615795Y-118851320D02*
X130649128Y-118884653D01*
X130649128Y-118884653D02*
X130682461Y-118851320D01*
X130682461Y-118851320D02*
X130649128Y-118817986D01*
X130649128Y-118817986D02*
X130649128Y-118884653D01*
X129549129Y-118517986D02*
X129782462Y-118517986D01*
X129782462Y-118884653D02*
X129782462Y-118184653D01*
X129782462Y-118184653D02*
X129449129Y-118184653D01*
X129082462Y-118884653D02*
X129149129Y-118851320D01*
X129149129Y-118851320D02*
X129182462Y-118817986D01*
X129182462Y-118817986D02*
X129215795Y-118751320D01*
X129215795Y-118751320D02*
X129215795Y-118551320D01*
X129215795Y-118551320D02*
X129182462Y-118484653D01*
X129182462Y-118484653D02*
X129149129Y-118451320D01*
X129149129Y-118451320D02*
X129082462Y-118417986D01*
X129082462Y-118417986D02*
X128982462Y-118417986D01*
X128982462Y-118417986D02*
X128915795Y-118451320D01*
X128915795Y-118451320D02*
X128882462Y-118484653D01*
X128882462Y-118484653D02*
X128849129Y-118551320D01*
X128849129Y-118551320D02*
X128849129Y-118751320D01*
X128849129Y-118751320D02*
X128882462Y-118817986D01*
X128882462Y-118817986D02*
X128915795Y-118851320D01*
X128915795Y-118851320D02*
X128982462Y-118884653D01*
X128982462Y-118884653D02*
X129082462Y-118884653D01*
X128549129Y-118884653D02*
X128549129Y-118417986D01*
X128549129Y-118551320D02*
X128515796Y-118484653D01*
X128515796Y-118484653D02*
X128482462Y-118451320D01*
X128482462Y-118451320D02*
X128415796Y-118417986D01*
X128415796Y-118417986D02*
X128349129Y-118417986D01*
X127649130Y-118184653D02*
X127215796Y-118184653D01*
X127215796Y-118184653D02*
X127449130Y-118451320D01*
X127449130Y-118451320D02*
X127349130Y-118451320D01*
X127349130Y-118451320D02*
X127282463Y-118484653D01*
X127282463Y-118484653D02*
X127249130Y-118517986D01*
X127249130Y-118517986D02*
X127215796Y-118584653D01*
X127215796Y-118584653D02*
X127215796Y-118751320D01*
X127215796Y-118751320D02*
X127249130Y-118817986D01*
X127249130Y-118817986D02*
X127282463Y-118851320D01*
X127282463Y-118851320D02*
X127349130Y-118884653D01*
X127349130Y-118884653D02*
X127549130Y-118884653D01*
X127549130Y-118884653D02*
X127615796Y-118851320D01*
X127615796Y-118851320D02*
X127649130Y-118817986D01*
X126915796Y-118817986D02*
X126882463Y-118851320D01*
X126882463Y-118851320D02*
X126915796Y-118884653D01*
X126915796Y-118884653D02*
X126949129Y-118851320D01*
X126949129Y-118851320D02*
X126915796Y-118817986D01*
X126915796Y-118817986D02*
X126915796Y-118884653D01*
X126649130Y-118184653D02*
X126215796Y-118184653D01*
X126215796Y-118184653D02*
X126449130Y-118451320D01*
X126449130Y-118451320D02*
X126349130Y-118451320D01*
X126349130Y-118451320D02*
X126282463Y-118484653D01*
X126282463Y-118484653D02*
X126249130Y-118517986D01*
X126249130Y-118517986D02*
X126215796Y-118584653D01*
X126215796Y-118584653D02*
X126215796Y-118751320D01*
X126215796Y-118751320D02*
X126249130Y-118817986D01*
X126249130Y-118817986D02*
X126282463Y-118851320D01*
X126282463Y-118851320D02*
X126349130Y-118884653D01*
X126349130Y-118884653D02*
X126549130Y-118884653D01*
X126549130Y-118884653D02*
X126615796Y-118851320D01*
X126615796Y-118851320D02*
X126649130Y-118817986D01*
X126015796Y-118184653D02*
X125782463Y-118884653D01*
X125782463Y-118884653D02*
X125549129Y-118184653D01*
X124682463Y-118884653D02*
X124749130Y-118851320D01*
X124749130Y-118851320D02*
X124782463Y-118817986D01*
X124782463Y-118817986D02*
X124815796Y-118751320D01*
X124815796Y-118751320D02*
X124815796Y-118551320D01*
X124815796Y-118551320D02*
X124782463Y-118484653D01*
X124782463Y-118484653D02*
X124749130Y-118451320D01*
X124749130Y-118451320D02*
X124682463Y-118417986D01*
X124682463Y-118417986D02*
X124582463Y-118417986D01*
X124582463Y-118417986D02*
X124515796Y-118451320D01*
X124515796Y-118451320D02*
X124482463Y-118484653D01*
X124482463Y-118484653D02*
X124449130Y-118551320D01*
X124449130Y-118551320D02*
X124449130Y-118751320D01*
X124449130Y-118751320D02*
X124482463Y-118817986D01*
X124482463Y-118817986D02*
X124515796Y-118851320D01*
X124515796Y-118851320D02*
X124582463Y-118884653D01*
X124582463Y-118884653D02*
X124682463Y-118884653D01*
X123849130Y-118417986D02*
X123849130Y-118884653D01*
X124149130Y-118417986D02*
X124149130Y-118784653D01*
X124149130Y-118784653D02*
X124115797Y-118851320D01*
X124115797Y-118851320D02*
X124049130Y-118884653D01*
X124049130Y-118884653D02*
X123949130Y-118884653D01*
X123949130Y-118884653D02*
X123882463Y-118851320D01*
X123882463Y-118851320D02*
X123849130Y-118817986D01*
X123615797Y-118417986D02*
X123349130Y-118417986D01*
X123515797Y-118184653D02*
X123515797Y-118784653D01*
X123515797Y-118784653D02*
X123482464Y-118851320D01*
X123482464Y-118851320D02*
X123415797Y-118884653D01*
X123415797Y-118884653D02*
X123349130Y-118884653D01*
X123115797Y-118417986D02*
X123115797Y-119117986D01*
X123115797Y-118451320D02*
X123049130Y-118417986D01*
X123049130Y-118417986D02*
X122915797Y-118417986D01*
X122915797Y-118417986D02*
X122849130Y-118451320D01*
X122849130Y-118451320D02*
X122815797Y-118484653D01*
X122815797Y-118484653D02*
X122782464Y-118551320D01*
X122782464Y-118551320D02*
X122782464Y-118751320D01*
X122782464Y-118751320D02*
X122815797Y-118817986D01*
X122815797Y-118817986D02*
X122849130Y-118851320D01*
X122849130Y-118851320D02*
X122915797Y-118884653D01*
X122915797Y-118884653D02*
X123049130Y-118884653D01*
X123049130Y-118884653D02*
X123115797Y-118851320D01*
X122182464Y-118417986D02*
X122182464Y-118884653D01*
X122482464Y-118417986D02*
X122482464Y-118784653D01*
X122482464Y-118784653D02*
X122449131Y-118851320D01*
X122449131Y-118851320D02*
X122382464Y-118884653D01*
X122382464Y-118884653D02*
X122282464Y-118884653D01*
X122282464Y-118884653D02*
X122215797Y-118851320D01*
X122215797Y-118851320D02*
X122182464Y-118817986D01*
X121949131Y-118417986D02*
X121682464Y-118417986D01*
X121849131Y-118184653D02*
X121849131Y-118784653D01*
X121849131Y-118784653D02*
X121815798Y-118851320D01*
X121815798Y-118851320D02*
X121749131Y-118884653D01*
X121749131Y-118884653D02*
X121682464Y-118884653D01*
X121415798Y-118851320D02*
X121415798Y-118884653D01*
X121415798Y-118884653D02*
X121449131Y-118951320D01*
X121449131Y-118951320D02*
X121482464Y-118984653D01*
X120615798Y-118851320D02*
X120549132Y-118884653D01*
X120549132Y-118884653D02*
X120415798Y-118884653D01*
X120415798Y-118884653D02*
X120349132Y-118851320D01*
X120349132Y-118851320D02*
X120315798Y-118784653D01*
X120315798Y-118784653D02*
X120315798Y-118751320D01*
X120315798Y-118751320D02*
X120349132Y-118684653D01*
X120349132Y-118684653D02*
X120415798Y-118651320D01*
X120415798Y-118651320D02*
X120515798Y-118651320D01*
X120515798Y-118651320D02*
X120582465Y-118617986D01*
X120582465Y-118617986D02*
X120615798Y-118551320D01*
X120615798Y-118551320D02*
X120615798Y-118517986D01*
X120615798Y-118517986D02*
X120582465Y-118451320D01*
X120582465Y-118451320D02*
X120515798Y-118417986D01*
X120515798Y-118417986D02*
X120415798Y-118417986D01*
X120415798Y-118417986D02*
X120349132Y-118451320D01*
X119749131Y-118851320D02*
X119815798Y-118884653D01*
X119815798Y-118884653D02*
X119949131Y-118884653D01*
X119949131Y-118884653D02*
X120015798Y-118851320D01*
X120015798Y-118851320D02*
X120049131Y-118784653D01*
X120049131Y-118784653D02*
X120049131Y-118517986D01*
X120049131Y-118517986D02*
X120015798Y-118451320D01*
X120015798Y-118451320D02*
X119949131Y-118417986D01*
X119949131Y-118417986D02*
X119815798Y-118417986D01*
X119815798Y-118417986D02*
X119749131Y-118451320D01*
X119749131Y-118451320D02*
X119715798Y-118517986D01*
X119715798Y-118517986D02*
X119715798Y-118584653D01*
X119715798Y-118584653D02*
X120049131Y-118651320D01*
X119515798Y-118417986D02*
X119249131Y-118417986D01*
X119415798Y-118184653D02*
X119415798Y-118784653D01*
X119415798Y-118784653D02*
X119382465Y-118851320D01*
X119382465Y-118851320D02*
X119315798Y-118884653D01*
X119315798Y-118884653D02*
X119249131Y-118884653D01*
X118549132Y-118184653D02*
X118115798Y-118184653D01*
X118115798Y-118184653D02*
X118349132Y-118451320D01*
X118349132Y-118451320D02*
X118249132Y-118451320D01*
X118249132Y-118451320D02*
X118182465Y-118484653D01*
X118182465Y-118484653D02*
X118149132Y-118517986D01*
X118149132Y-118517986D02*
X118115798Y-118584653D01*
X118115798Y-118584653D02*
X118115798Y-118751320D01*
X118115798Y-118751320D02*
X118149132Y-118817986D01*
X118149132Y-118817986D02*
X118182465Y-118851320D01*
X118182465Y-118851320D02*
X118249132Y-118884653D01*
X118249132Y-118884653D02*
X118449132Y-118884653D01*
X118449132Y-118884653D02*
X118515798Y-118851320D01*
X118515798Y-118851320D02*
X118549132Y-118817986D01*
X117815798Y-118817986D02*
X117782465Y-118851320D01*
X117782465Y-118851320D02*
X117815798Y-118884653D01*
X117815798Y-118884653D02*
X117849131Y-118851320D01*
X117849131Y-118851320D02*
X117815798Y-118817986D01*
X117815798Y-118817986D02*
X117815798Y-118884653D01*
X117549132Y-118184653D02*
X117115798Y-118184653D01*
X117115798Y-118184653D02*
X117349132Y-118451320D01*
X117349132Y-118451320D02*
X117249132Y-118451320D01*
X117249132Y-118451320D02*
X117182465Y-118484653D01*
X117182465Y-118484653D02*
X117149132Y-118517986D01*
X117149132Y-118517986D02*
X117115798Y-118584653D01*
X117115798Y-118584653D02*
X117115798Y-118751320D01*
X117115798Y-118751320D02*
X117149132Y-118817986D01*
X117149132Y-118817986D02*
X117182465Y-118851320D01*
X117182465Y-118851320D02*
X117249132Y-118884653D01*
X117249132Y-118884653D02*
X117449132Y-118884653D01*
X117449132Y-118884653D02*
X117515798Y-118851320D01*
X117515798Y-118851320D02*
X117549132Y-118817986D01*
X116882465Y-118417986D02*
X116715798Y-118884653D01*
X116715798Y-118884653D02*
X116549131Y-118417986D01*
X115182465Y-118884653D02*
X115215799Y-118884653D01*
X115215799Y-118884653D02*
X115282465Y-118851320D01*
X115282465Y-118851320D02*
X115382465Y-118751320D01*
X115382465Y-118751320D02*
X115549132Y-118551320D01*
X115549132Y-118551320D02*
X115615799Y-118451320D01*
X115615799Y-118451320D02*
X115649132Y-118351320D01*
X115649132Y-118351320D02*
X115649132Y-118284653D01*
X115649132Y-118284653D02*
X115615799Y-118217986D01*
X115615799Y-118217986D02*
X115549132Y-118184653D01*
X115549132Y-118184653D02*
X115515799Y-118184653D01*
X115515799Y-118184653D02*
X115449132Y-118217986D01*
X115449132Y-118217986D02*
X115415799Y-118284653D01*
X115415799Y-118284653D02*
X115415799Y-118317986D01*
X115415799Y-118317986D02*
X115449132Y-118384653D01*
X115449132Y-118384653D02*
X115482465Y-118417986D01*
X115482465Y-118417986D02*
X115682465Y-118551320D01*
X115682465Y-118551320D02*
X115715799Y-118584653D01*
X115715799Y-118584653D02*
X115749132Y-118651320D01*
X115749132Y-118651320D02*
X115749132Y-118751320D01*
X115749132Y-118751320D02*
X115715799Y-118817986D01*
X115715799Y-118817986D02*
X115682465Y-118851320D01*
X115682465Y-118851320D02*
X115615799Y-118884653D01*
X115615799Y-118884653D02*
X115515799Y-118884653D01*
X115515799Y-118884653D02*
X115449132Y-118851320D01*
X115449132Y-118851320D02*
X115415799Y-118817986D01*
X115415799Y-118817986D02*
X115315799Y-118684653D01*
X115315799Y-118684653D02*
X115282465Y-118584653D01*
X115282465Y-118584653D02*
X115282465Y-118517986D01*
X114015799Y-118184653D02*
X114349132Y-118184653D01*
X114349132Y-118184653D02*
X114382465Y-118517986D01*
X114382465Y-118517986D02*
X114349132Y-118484653D01*
X114349132Y-118484653D02*
X114282465Y-118451320D01*
X114282465Y-118451320D02*
X114115799Y-118451320D01*
X114115799Y-118451320D02*
X114049132Y-118484653D01*
X114049132Y-118484653D02*
X114015799Y-118517986D01*
X114015799Y-118517986D02*
X113982465Y-118584653D01*
X113982465Y-118584653D02*
X113982465Y-118751320D01*
X113982465Y-118751320D02*
X114015799Y-118817986D01*
X114015799Y-118817986D02*
X114049132Y-118851320D01*
X114049132Y-118851320D02*
X114115799Y-118884653D01*
X114115799Y-118884653D02*
X114282465Y-118884653D01*
X114282465Y-118884653D02*
X114349132Y-118851320D01*
X114349132Y-118851320D02*
X114382465Y-118817986D01*
X113782465Y-118184653D02*
X113549132Y-118884653D01*
X113549132Y-118884653D02*
X113315798Y-118184653D01*
X112549132Y-118184653D02*
X112549132Y-118751320D01*
X112549132Y-118751320D02*
X112515799Y-118817986D01*
X112515799Y-118817986D02*
X112482465Y-118851320D01*
X112482465Y-118851320D02*
X112415799Y-118884653D01*
X112415799Y-118884653D02*
X112282465Y-118884653D01*
X112282465Y-118884653D02*
X112215799Y-118851320D01*
X112215799Y-118851320D02*
X112182465Y-118817986D01*
X112182465Y-118817986D02*
X112149132Y-118751320D01*
X112149132Y-118751320D02*
X112149132Y-118184653D01*
X111815799Y-118884653D02*
X111815799Y-118184653D01*
X111815799Y-118184653D02*
X111549132Y-118184653D01*
X111549132Y-118184653D02*
X111482466Y-118217986D01*
X111482466Y-118217986D02*
X111449132Y-118251320D01*
X111449132Y-118251320D02*
X111415799Y-118317986D01*
X111415799Y-118317986D02*
X111415799Y-118417986D01*
X111415799Y-118417986D02*
X111449132Y-118484653D01*
X111449132Y-118484653D02*
X111482466Y-118517986D01*
X111482466Y-118517986D02*
X111549132Y-118551320D01*
X111549132Y-118551320D02*
X111815799Y-118551320D01*
X111115799Y-118817986D02*
X111082466Y-118851320D01*
X111082466Y-118851320D02*
X111115799Y-118884653D01*
X111115799Y-118884653D02*
X111149132Y-118851320D01*
X111149132Y-118851320D02*
X111115799Y-118817986D01*
X111115799Y-118817986D02*
X111115799Y-118884653D01*
D10*
X112353333Y-112778633D02*
X112353333Y-113278633D01*
X112353333Y-113278633D02*
X112386666Y-113378633D01*
X112386666Y-113378633D02*
X112453333Y-113445300D01*
X112453333Y-113445300D02*
X112553333Y-113478633D01*
X112553333Y-113478633D02*
X112620000Y-113478633D01*
X112053333Y-112845300D02*
X112020000Y-112811966D01*
X112020000Y-112811966D02*
X111953333Y-112778633D01*
X111953333Y-112778633D02*
X111786667Y-112778633D01*
X111786667Y-112778633D02*
X111720000Y-112811966D01*
X111720000Y-112811966D02*
X111686667Y-112845300D01*
X111686667Y-112845300D02*
X111653333Y-112911966D01*
X111653333Y-112911966D02*
X111653333Y-112978633D01*
X111653333Y-112978633D02*
X111686667Y-113078633D01*
X111686667Y-113078633D02*
X112086667Y-113478633D01*
X112086667Y-113478633D02*
X111653333Y-113478633D01*
X156823333Y-112658633D02*
X156823333Y-113158633D01*
X156823333Y-113158633D02*
X156856666Y-113258633D01*
X156856666Y-113258633D02*
X156923333Y-113325300D01*
X156923333Y-113325300D02*
X157023333Y-113358633D01*
X157023333Y-113358633D02*
X157090000Y-113358633D01*
X156556667Y-112658633D02*
X156123333Y-112658633D01*
X156123333Y-112658633D02*
X156356667Y-112925300D01*
X156356667Y-112925300D02*
X156256667Y-112925300D01*
X156256667Y-112925300D02*
X156190000Y-112958633D01*
X156190000Y-112958633D02*
X156156667Y-112991966D01*
X156156667Y-112991966D02*
X156123333Y-113058633D01*
X156123333Y-113058633D02*
X156123333Y-113225300D01*
X156123333Y-113225300D02*
X156156667Y-113291966D01*
X156156667Y-113291966D02*
X156190000Y-113325300D01*
X156190000Y-113325300D02*
X156256667Y-113358633D01*
X156256667Y-113358633D02*
X156456667Y-113358633D01*
X156456667Y-113358633D02*
X156523333Y-113325300D01*
X156523333Y-113325300D02*
X156556667Y-113291966D01*
D13*
%TO.C,J2*%
X109425000Y-109220000D02*
X109425000Y-109790000D01*
X109425000Y-111310000D02*
X109425000Y-112330000D01*
X109425000Y-113850000D02*
X109425000Y-114870000D01*
X109425000Y-116390000D02*
X109425000Y-116960000D01*
X114625000Y-109220000D02*
X109425000Y-109220000D01*
X114625000Y-109220000D02*
X114625000Y-109790000D01*
X114625000Y-111310000D02*
X114625000Y-112330000D01*
X114625000Y-113850000D02*
X114625000Y-114870000D01*
X114625000Y-116390000D02*
X114625000Y-116960000D01*
X114625000Y-116960000D02*
X109425000Y-116960000D01*
X116065000Y-109790000D02*
X114625000Y-109790000D01*
%TO.C,J3*%
X153925000Y-109190000D02*
X153925000Y-109760000D01*
X153925000Y-111280000D02*
X153925000Y-112300000D01*
X153925000Y-113820000D02*
X153925000Y-114840000D01*
X153925000Y-116360000D02*
X153925000Y-116930000D01*
X159125000Y-109190000D02*
X153925000Y-109190000D01*
X159125000Y-109190000D02*
X159125000Y-109760000D01*
X159125000Y-111280000D02*
X159125000Y-112300000D01*
X159125000Y-113820000D02*
X159125000Y-114840000D01*
X159125000Y-116360000D02*
X159125000Y-116930000D01*
X159125000Y-116930000D02*
X153925000Y-116930000D01*
X160565000Y-109760000D02*
X159125000Y-109760000D01*
%TD*%
%LPC*%
D14*
%TO.C,J9*%
X157005750Y-115895000D03*
D15*
X156505750Y-117325000D03*
D16*
X160685750Y-117325000D03*
D15*
X156505750Y-108685000D03*
D16*
X160685750Y-108685000D03*
%TD*%
D17*
%TO.C,J4*%
X109600000Y-111820000D03*
X109600000Y-114360000D03*
%TD*%
D18*
%TO.C,N21*%
X142975750Y-110425000D03*
D19*
X142975750Y-112965000D03*
%TD*%
D20*
%TO.C,J2*%
X114550000Y-110550000D03*
X109500000Y-110550000D03*
X114550000Y-113090000D03*
X109500000Y-113090000D03*
X114550000Y-115630000D03*
X109500000Y-115630000D03*
%TD*%
%TO.C,J3*%
X159050000Y-110520000D03*
X154000000Y-110520000D03*
X159050000Y-113060000D03*
X154000000Y-113060000D03*
X159050000Y-115600000D03*
X154000000Y-115600000D03*
%TD*%
%LPD*%
M02*
